<?xml version="1.0" encoding="UTF-8"?>
<svg width="1144px" height="618px" viewBox="0 0 1144 618" version="1.1" xmlns="http://www.w3.org/2000/svg" xmlns:xlink="http://www.w3.org/1999/xlink">
    <!-- Generator: Sketch 53.2 (72643) - https://sketchapp.com -->
    <title>undraw_developer_activity_bv83</title>
    <desc>Created with Sketch.</desc>
    <g id="Page-1" stroke="none" stroke-width="1" fill="none" fill-rule="evenodd">
        <g id="IllustrationUndraw" transform="translate(0.000000, -1500.000000)" fill-rule="nonzero">
            <g id="undraw_developer_activity_bv83" transform="translate(0.000000, 1500.000000)">
                <path d="M1144,396.23 C1144.01373,413.000032 1141.70857,429.691425 1137.15,445.83 C1132.74407,461.388305 1126.26246,476.28222 1117.88,490.11 C1117.88,540.21 1084.06,583.51 1034.97,604.11 C1014.45702,612.631489 992.45245,616.982771 970.24,616.91 L217.17,616.91 C176.92,616.91 139.62,606.05 109.03,587.55 C100.275361,582.27976 91.9705184,576.296126 84.2,569.66 C50.2,540.44 29.12,500.06 29.12,455.46 C10.0381409,426.076846 -0.0799455669,391.775421 -6.75015599e-14,356.74 C-6.75015599e-14,283.38 43.39,220.3 105.55,192.45 C113.804178,188.753597 122.333202,185.704413 131.06,183.33 C134.146667,182.49 137.266667,181.736667 140.42,181.07 C148.826093,179.279879 157.352397,178.110061 165.93,177.57 C169.03,177.376667 172.146667,177.266667 175.28,177.24 L177,177.24 C180.46,177.24 183.89,177.36 187.3,177.56 L188.42,175.66 C189.793333,173.366667 191.2,171.096667 192.64,168.85 C195.24,164.756667 197.966667,160.723333 200.82,156.75 C203.806667,152.556667 206.923333,148.43 210.17,144.37 L211,143.37 C212.84,141.076667 214.72,138.81 216.64,136.57 C222.64,129.576667 228.973333,122.793333 235.64,116.22 C307.75,45.54 420.72,0.04 547.72,0.04 C646.54,0.04 736.87,27.59 806.06,73.11 C832.271835,58.2765785 861.882066,50.4932981 892,50.52 C989.74,50.52 1069,130.89 1069,230.03 C1068.98545,236.30291 1068.65168,242.571016 1068,248.81 C1115.81237,282.655681 1144.1642,337.650769 1144,396.23 Z" id="Path" fill="#254095" opacity="0.1"></path>
                <path d="M235.66,116.18 L235.66,136.53 L216.66,136.53 C222.613333,129.543333 228.946667,122.76 235.66,116.18 Z" id="Path" fill="#254095" opacity="0.2"></path>
                <rect id="Rectangle" fill="#254095" opacity="0.2" x="245.02" y="111.02" width="25.51" height="25.51"></rect>
                <rect id="Rectangle" fill="#254095" opacity="0.2" x="279.88" y="111.02" width="25.51" height="25.51"></rect>
                <rect id="Rectangle" fill="#254095" opacity="0.2" x="314.75" y="111.02" width="25.51" height="25.51"></rect>
                <rect id="Rectangle" fill="#254095" opacity="0.2" x="349.61" y="111.02" width="25.51" height="25.51"></rect>
                <rect id="Rectangle" fill="#254095" opacity="0.2" x="384.48" y="111.02" width="25.51" height="25.51"></rect>
                <rect id="Rectangle" fill="#254095" x="419.35" y="111.02" width="25.51" height="25.51"></rect>
                <rect id="Rectangle" fill="#254095" opacity="0.2" x="454.21" y="111.02" width="25.51" height="25.51"></rect>
                <rect id="Rectangle" fill="#254095" opacity="0.2" x="489.08" y="111.02" width="25.51" height="25.51"></rect>
                <rect id="Rectangle" fill="#254095" opacity="0.2" x="523.94" y="111.02" width="25.51" height="25.51"></rect>
                <rect id="Rectangle" fill="#254095" x="558.81" y="111.02" width="25.51" height="25.51"></rect>
                <rect id="Rectangle" fill="#254095" opacity="0.2" x="593.68" y="111.02" width="25.51" height="25.51"></rect>
                <rect id="Rectangle" fill="#254095" opacity="0.2" x="628.54" y="111.02" width="25.51" height="25.51"></rect>
                <rect id="Rectangle" fill="#254095" opacity="0.2" x="663.41" y="111.02" width="25.51" height="25.51"></rect>
                <rect id="Rectangle" fill="#254095" opacity="0.2" x="698.28" y="111.02" width="25.51" height="25.51"></rect>
                <rect id="Rectangle" fill="#254095" opacity="0.2" x="733.14" y="111.02" width="25.51" height="25.51"></rect>
                <rect id="Rectangle" fill="#254095" opacity="0.2" x="768.01" y="111.02" width="25.51" height="25.51"></rect>
                <rect id="Rectangle" fill="#254095" x="802.87" y="111.02" width="25.51" height="25.51"></rect>
                <rect id="Rectangle" fill="#254095" x="837.74" y="111.02" width="25.51" height="25.51"></rect>
                <rect id="Rectangle" fill="#254095" opacity="0.2" x="872.61" y="111.02" width="25.51" height="25.51"></rect>
                <rect id="Rectangle" fill="#254095" opacity="0.2" x="907.47" y="111.02" width="25.51" height="25.51"></rect>
                <rect id="Rectangle" fill="#254095" x="942.34" y="111.02" width="25.51" height="25.51"></rect>
                <rect id="Rectangle" fill="#254095" x="977.2" y="111.02" width="25.51" height="25.51"></rect>
                <path d="M200.8,156.74 L200.8,168.84 L192.62,168.84 C195.22,164.72 197.946667,160.686667 200.8,156.74 Z" id="Path" fill="#254095"></path>
                <rect id="Rectangle" fill="#254095" opacity="0.2" x="210.15" y="143.33" width="25.51" height="25.51"></rect>
                <rect id="Rectangle" fill="#254095" x="245.02" y="143.33" width="25.51" height="25.51"></rect>
                <rect id="Rectangle" fill="#254095" opacity="0.2" x="279.88" y="143.33" width="25.51" height="25.51"></rect>
                <rect id="Rectangle" fill="#254095" opacity="0.7" x="314.75" y="143.33" width="25.51" height="25.51"></rect>
                <rect id="Rectangle" fill="#254095" opacity="0.2" x="349.61" y="143.33" width="25.51" height="25.51"></rect>
                <rect id="Rectangle" fill="#254095" opacity="0.4" x="384.48" y="143.33" width="25.51" height="25.51"></rect>
                <rect id="Rectangle" fill="#254095" x="419.35" y="143.33" width="25.51" height="25.51"></rect>
                <rect id="Rectangle" fill="#254095" opacity="0.4" x="454.21" y="143.33" width="25.51" height="25.51"></rect>
                <rect id="Rectangle" fill="#254095" opacity="0.2" x="489.08" y="143.33" width="25.51" height="25.51"></rect>
                <rect id="Rectangle" fill="#254095" opacity="0.4" x="523.94" y="143.33" width="25.51" height="25.51"></rect>
                <rect id="Rectangle" fill="#254095" x="558.81" y="143.33" width="25.51" height="25.51"></rect>
                <rect id="Rectangle" fill="#254095" opacity="0.4" x="593.68" y="143.33" width="25.51" height="25.51"></rect>
                <rect id="Rectangle" fill="#254095" opacity="0.4" x="628.54" y="143.33" width="25.51" height="25.51"></rect>
                <rect id="Rectangle" fill="#254095" opacity="0.2" x="663.41" y="143.33" width="25.51" height="25.51"></rect>
                <rect id="Rectangle" fill="#254095" opacity="0.4" x="698.28" y="143.33" width="25.51" height="25.51"></rect>
                <rect id="Rectangle" fill="#254095" opacity="0.4" x="733.14" y="143.33" width="25.51" height="25.51"></rect>
                <rect id="Rectangle" fill="#254095" opacity="0.2" x="768.01" y="143.33" width="25.51" height="25.51"></rect>
                <rect id="Rectangle" fill="#254095" opacity="0.2" x="802.87" y="143.33" width="25.51" height="25.51"></rect>
                <rect id="Rectangle" fill="#254095" opacity="0.4" x="837.74" y="143.33" width="25.51" height="25.51"></rect>
                <rect id="Rectangle" fill="#254095" opacity="0.2" x="872.61" y="143.33" width="25.51" height="25.51"></rect>
                <rect id="Rectangle" fill="#254095" x="907.47" y="143.33" width="25.51" height="25.51"></rect>
                <rect id="Rectangle" fill="#254095" x="942.34" y="143.33" width="25.51" height="25.51"></rect>
                <rect id="Rectangle" fill="#254095" x="977.2" y="143.33" width="25.51" height="25.51"></rect>
                <path d="M131.06,183.33 L131.06,201.16 L105.55,201.16 L105.55,192.45 C113.804178,188.753597 122.333202,185.704413 131.06,183.33 Z" id="Path" fill="#254095" opacity="0.2"></path>
                <polygon id="Path" fill="#254095" opacity="0.2" points="165.93 177.57 165.93 201.16 140.42 201.16 140.42 181.07"></polygon>
                <rect id="Rectangle" fill="#254095" x="175.28" y="175.65" width="25.51" height="25.51"></rect>
                <rect id="Rectangle" fill="#254095" opacity="0.7" x="210.15" y="175.65" width="25.51" height="25.51"></rect>
                <rect id="Rectangle" fill="#254095" x="245.02" y="175.65" width="25.51" height="25.51"></rect>
                <rect id="Rectangle" fill="#254095" opacity="0.7" x="279.88" y="175.65" width="25.51" height="25.51"></rect>
                <rect id="Rectangle" fill="#254095" opacity="0.7" x="314.75" y="175.65" width="25.51" height="25.51"></rect>
                <rect id="Rectangle" fill="#254095" opacity="0.2" x="349.61" y="175.65" width="25.51" height="25.51"></rect>
                <rect id="Rectangle" fill="#254095" opacity="0.4" x="384.48" y="175.65" width="25.51" height="25.51"></rect>
                <rect id="Rectangle" fill="#254095" opacity="0.4" x="419.35" y="175.65" width="25.51" height="25.51"></rect>
                <rect id="Rectangle" fill="#254095" x="454.21" y="175.65" width="25.51" height="25.51"></rect>
                <rect id="Rectangle" fill="#254095" opacity="0.2" x="489.08" y="175.65" width="25.51" height="25.51"></rect>
                <rect id="Rectangle" fill="#254095" opacity="0.4" x="523.94" y="175.65" width="25.51" height="25.51"></rect>
                <rect id="Rectangle" fill="#254095" x="558.81" y="175.65" width="25.51" height="25.51"></rect>
                <rect id="Rectangle" fill="#254095" opacity="0.2" x="593.68" y="175.65" width="25.51" height="25.51"></rect>
                <rect id="Rectangle" fill="#254095" opacity="0.4" x="628.54" y="175.65" width="25.51" height="25.51"></rect>
                <rect id="Rectangle" fill="#254095" opacity="0.2" x="663.41" y="175.65" width="25.51" height="25.51"></rect>
                <rect id="Rectangle" fill="#254095" x="698.28" y="175.65" width="25.51" height="25.51"></rect>
                <rect id="Rectangle" fill="#254095" opacity="0.2" x="733.14" y="175.65" width="25.51" height="25.51"></rect>
                <rect id="Rectangle" fill="#254095" opacity="0.7" x="768.01" y="175.65" width="25.51" height="25.51"></rect>
                <rect id="Rectangle" fill="#254095" opacity="0.7" x="802.87" y="175.65" width="25.51" height="25.51"></rect>
                <rect id="Rectangle" fill="#254095" opacity="0.4" x="837.74" y="175.65" width="25.51" height="25.51"></rect>
                <rect id="Rectangle" fill="#254095" opacity="0.2" x="872.61" y="175.65" width="25.51" height="25.51"></rect>
                <rect id="Rectangle" fill="#254095" x="907.47" y="175.65" width="25.51" height="25.51"></rect>
                <rect id="Rectangle" fill="#254095" x="942.34" y="175.65" width="25.51" height="25.51"></rect>
                <rect id="Rectangle" fill="#254095" x="977.2" y="175.65" width="25.51" height="25.51"></rect>
                <rect id="Rectangle" fill="#254095" opacity="0.2" x="105.55" y="207.96" width="25.51" height="25.51"></rect>
                <rect id="Rectangle" fill="#254095" opacity="0.2" x="140.42" y="207.96" width="25.51" height="25.51"></rect>
                <rect id="Rectangle" fill="#254095" opacity="0.2" x="175.28" y="207.96" width="25.51" height="25.51"></rect>
                <rect id="Rectangle" fill="#254095" opacity="0.2" x="210.15" y="207.96" width="25.51" height="25.51"></rect>
                <rect id="Rectangle" fill="#254095" x="245.02" y="207.96" width="25.51" height="25.51"></rect>
                <rect id="Rectangle" fill="#254095" opacity="0.7" x="279.88" y="207.96" width="25.51" height="25.51"></rect>
                <rect id="Rectangle" fill="#254095" opacity="0.7" x="314.75" y="207.96" width="25.51" height="25.51"></rect>
                <rect id="Rectangle" fill="#254095" opacity="0.2" x="349.61" y="207.96" width="25.51" height="25.51"></rect>
                <rect id="Rectangle" fill="#254095" opacity="0.2" x="384.48" y="207.96" width="25.51" height="25.51"></rect>
                <rect id="Rectangle" fill="#254095" opacity="0.4" x="419.35" y="207.96" width="25.51" height="25.51"></rect>
                <rect id="Rectangle" fill="#254095" opacity="0.4" x="454.21" y="207.96" width="25.51" height="25.51"></rect>
                <rect id="Rectangle" fill="#254095" x="489.08" y="207.96" width="25.51" height="25.51"></rect>
                <rect id="Rectangle" fill="#254095" opacity="0.2" x="523.94" y="207.96" width="25.51" height="25.51"></rect>
                <rect id="Rectangle" fill="#254095" opacity="0.4" x="558.81" y="207.96" width="25.51" height="25.51"></rect>
                <rect id="Rectangle" fill="#254095" opacity="0.4" x="593.68" y="207.96" width="25.51" height="25.51"></rect>
                <rect id="Rectangle" fill="#254095" opacity="0.4" x="628.54" y="207.96" width="25.51" height="25.51"></rect>
                <rect id="Rectangle" fill="#254095" opacity="0.4" x="663.41" y="207.96" width="25.51" height="25.51"></rect>
                <rect id="Rectangle" fill="#254095" opacity="0.2" x="698.28" y="207.96" width="25.51" height="25.51"></rect>
                <rect id="Rectangle" fill="#254095" opacity="0.2" x="733.14" y="207.96" width="25.51" height="25.51"></rect>
                <rect id="Rectangle" fill="#254095" opacity="0.2" x="768.01" y="207.96" width="25.51" height="25.51"></rect>
                <rect id="Rectangle" fill="#254095" opacity="0.2" x="802.87" y="207.96" width="25.51" height="25.51"></rect>
                <rect id="Rectangle" fill="#254095" opacity="0.7" x="837.74" y="207.96" width="25.51" height="25.51"></rect>
                <rect id="Rectangle" fill="#254095" opacity="0.7" x="872.61" y="207.96" width="25.51" height="25.51"></rect>
                <rect id="Rectangle" fill="#254095" opacity="0.4" x="907.47" y="207.96" width="25.51" height="25.51"></rect>
                <rect id="Rectangle" fill="#254095" opacity="0.2" x="942.34" y="207.96" width="25.51" height="25.51"></rect>
                <rect id="Rectangle" fill="#254095" x="977.2" y="207.96" width="25.51" height="25.51"></rect>
                <rect id="Rectangle" fill="#254095" opacity="0.2" x="105.55" y="240.28" width="25.51" height="25.51"></rect>
                <rect id="Rectangle" fill="#254095" opacity="0.2" x="140.42" y="240.28" width="25.51" height="25.51"></rect>
                <rect id="Rectangle" fill="#254095" opacity="0.4" x="175.28" y="240.28" width="25.51" height="25.51"></rect>
                <rect id="Rectangle" fill="#254095" opacity="0.2" x="210.15" y="240.28" width="25.51" height="25.51"></rect>
                <rect id="Rectangle" fill="#254095" opacity="0.2" x="245.02" y="240.28" width="25.51" height="25.51"></rect>
                <rect id="Rectangle" fill="#254095" opacity="0.7" x="279.88" y="240.28" width="25.51" height="25.51"></rect>
                <rect id="Rectangle" fill="#254095" opacity="0.7" x="314.75" y="240.28" width="25.51" height="25.51"></rect>
                <rect id="Rectangle" fill="#254095" opacity="0.2" x="349.61" y="240.28" width="25.51" height="25.51"></rect>
                <rect id="Rectangle" fill="#254095" opacity="0.2" x="384.48" y="240.28" width="25.51" height="25.51"></rect>
                <rect id="Rectangle" fill="#254095" opacity="0.4" x="419.35" y="240.28" width="25.51" height="25.51"></rect>
                <rect id="Rectangle" fill="#254095" x="454.21" y="240.28" width="25.51" height="25.51"></rect>
                <rect id="Rectangle" fill="#254095" opacity="0.2" x="489.08" y="240.28" width="25.51" height="25.51"></rect>
                <rect id="Rectangle" fill="#254095" x="523.94" y="240.28" width="25.51" height="25.51"></rect>
                <rect id="Rectangle" fill="#254095" x="558.81" y="240.28" width="25.51" height="25.51"></rect>
                <rect id="Rectangle" fill="#254095" x="593.68" y="240.28" width="25.51" height="25.51"></rect>
                <rect id="Rectangle" fill="#254095" opacity="0.2" x="628.54" y="240.28" width="25.51" height="25.51"></rect>
                <rect id="Rectangle" fill="#254095" x="663.41" y="240.28" width="25.51" height="25.51"></rect>
                <rect id="Rectangle" fill="#254095" opacity="0.2" x="698.28" y="240.28" width="25.51" height="25.51"></rect>
                <rect id="Rectangle" fill="#254095" opacity="0.2" x="733.14" y="240.28" width="25.51" height="25.51"></rect>
                <rect id="Rectangle" fill="#254095" opacity="0.2" x="768.01" y="240.28" width="25.51" height="25.51"></rect>
                <rect id="Rectangle" fill="#254095" opacity="0.2" x="802.87" y="240.28" width="25.51" height="25.51"></rect>
                <rect id="Rectangle" fill="#254095" opacity="0.2" x="837.74" y="240.28" width="25.51" height="25.51"></rect>
                <rect id="Rectangle" fill="#254095" opacity="0.7" x="872.61" y="240.28" width="25.51" height="25.51"></rect>
                <rect id="Rectangle" fill="#254095" opacity="0.2" x="907.47" y="240.28" width="25.51" height="25.51"></rect>
                <rect id="Rectangle" fill="#254095" opacity="0.2" x="942.34" y="240.28" width="25.51" height="25.51"></rect>
                <rect id="Rectangle" fill="#254095" x="977.2" y="240.28" width="25.51" height="25.51"></rect>
                <rect id="Rectangle" fill="#254095" opacity="0.2" x="105.55" y="272.59" width="25.51" height="25.51"></rect>
                <rect id="Rectangle" fill="#254095" opacity="0.2" x="140.42" y="272.59" width="25.51" height="25.51"></rect>
                <rect id="Rectangle" fill="#254095" opacity="0.2" x="175.28" y="272.59" width="25.51" height="25.51"></rect>
                <rect id="Rectangle" fill="#254095" opacity="0.4" x="210.15" y="272.59" width="25.51" height="25.51"></rect>
                <rect id="Rectangle" fill="#254095" opacity="0.2" x="245.02" y="272.59" width="25.51" height="25.51"></rect>
                <rect id="Rectangle" fill="#254095" opacity="0.2" x="279.88" y="272.59" width="25.51" height="25.51"></rect>
                <rect id="Rectangle" fill="#254095" opacity="0.7" x="314.75" y="272.59" width="25.51" height="25.51"></rect>
                <rect id="Rectangle" fill="#254095" opacity="0.2" x="349.61" y="272.59" width="25.51" height="25.51"></rect>
                <rect id="Rectangle" fill="#254095" opacity="0.2" x="384.48" y="272.59" width="25.51" height="25.51"></rect>
                <rect id="Rectangle" fill="#254095" opacity="0.2" x="419.35" y="272.59" width="25.51" height="25.51"></rect>
                <rect id="Rectangle" fill="#254095" x="454.21" y="272.59" width="25.51" height="25.51"></rect>
                <rect id="Rectangle" fill="#254095" opacity="0.2" x="489.08" y="272.59" width="25.51" height="25.51"></rect>
                <rect id="Rectangle" fill="#254095" x="523.94" y="272.59" width="25.51" height="25.51"></rect>
                <rect id="Rectangle" fill="#254095" x="558.81" y="272.59" width="25.51" height="25.51"></rect>
                <rect id="Rectangle" fill="#254095" opacity="0.2" x="593.68" y="272.59" width="25.51" height="25.51"></rect>
                <rect id="Rectangle" fill="#254095" opacity="0.2" x="628.54" y="272.59" width="25.51" height="25.51"></rect>
                <rect id="Rectangle" fill="#254095" opacity="0.2" x="663.41" y="272.59" width="25.51" height="25.51"></rect>
                <rect id="Rectangle" fill="#254095" opacity="0.2" x="698.28" y="272.59" width="25.51" height="25.51"></rect>
                <rect id="Rectangle" fill="#254095" opacity="0.2" x="733.14" y="272.59" width="25.51" height="25.51"></rect>
                <rect id="Rectangle" fill="#254095" opacity="0.2" x="768.01" y="272.59" width="25.51" height="25.51"></rect>
                <rect id="Rectangle" fill="#254095" opacity="0.2" x="802.87" y="272.59" width="25.51" height="25.51"></rect>
                <rect id="Rectangle" fill="#254095" opacity="0.2" x="837.74" y="272.59" width="25.51" height="25.51"></rect>
                <rect id="Rectangle" fill="#254095" opacity="0.2" x="872.61" y="272.59" width="25.51" height="25.51"></rect>
                <rect id="Rectangle" fill="#254095" opacity="0.2" x="907.47" y="272.59" width="25.51" height="25.51"></rect>
                <rect id="Rectangle" fill="#254095" opacity="0.4" x="942.34" y="272.59" width="25.51" height="25.51"></rect>
                <rect id="Rectangle" fill="#254095" x="977.2" y="272.59" width="25.51" height="25.51"></rect>
                <rect id="Rectangle" fill="#254095" opacity="0.7" x="105.55" y="304.91" width="25.51" height="25.51"></rect>
                <rect id="Rectangle" fill="#254095" opacity="0.7" x="140.42" y="304.91" width="25.51" height="25.51"></rect>
                <rect id="Rectangle" fill="#254095" opacity="0.7" x="175.28" y="304.91" width="25.51" height="25.51"></rect>
                <rect id="Rectangle" fill="#254095" opacity="0.7" x="210.15" y="304.91" width="25.51" height="25.51"></rect>
                <rect id="Rectangle" fill="#254095" opacity="0.7" x="245.02" y="304.91" width="25.51" height="25.51"></rect>
                <rect id="Rectangle" fill="#254095" opacity="0.2" x="279.88" y="304.91" width="25.51" height="25.51"></rect>
                <rect id="Rectangle" fill="#254095" opacity="0.2" x="314.75" y="304.91" width="25.51" height="25.51"></rect>
                <rect id="Rectangle" fill="#254095" opacity="0.2" x="349.61" y="304.91" width="25.51" height="25.51"></rect>
                <rect id="Rectangle" fill="#254095" opacity="0.2" x="384.48" y="304.91" width="25.51" height="25.51"></rect>
                <rect id="Rectangle" fill="#254095" opacity="0.2" x="419.35" y="304.91" width="25.51" height="25.51"></rect>
                <rect id="Rectangle" fill="#254095" opacity="0.2" x="454.21" y="304.91" width="25.51" height="25.51"></rect>
                <rect id="Rectangle" fill="#254095" x="489.08" y="304.91" width="25.51" height="25.51"></rect>
                <rect id="Rectangle" fill="#254095" opacity="0.2" x="523.94" y="304.91" width="25.51" height="25.51"></rect>
                <rect id="Rectangle" fill="#254095" opacity="0.2" x="558.81" y="304.91" width="25.51" height="25.51"></rect>
                <rect id="Rectangle" fill="#254095" opacity="0.2" x="593.68" y="304.91" width="25.51" height="25.51"></rect>
                <rect id="Rectangle" fill="#254095" x="628.54" y="304.91" width="25.51" height="25.51"></rect>
                <rect id="Rectangle" fill="#254095" opacity="0.2" x="663.41" y="304.91" width="25.51" height="25.51"></rect>
                <rect id="Rectangle" fill="#254095" opacity="0.2" x="698.28" y="304.91" width="25.51" height="25.51"></rect>
                <rect id="Rectangle" fill="#254095" opacity="0.2" x="733.14" y="304.91" width="25.51" height="25.51"></rect>
                <rect id="Rectangle" fill="#254095" opacity="0.2" x="768.01" y="304.91" width="25.51" height="25.51"></rect>
                <rect id="Rectangle" fill="#254095" opacity="0.2" x="802.87" y="304.91" width="25.51" height="25.51"></rect>
                <rect id="Rectangle" fill="#254095" opacity="0.2" x="837.74" y="304.91" width="25.51" height="25.51"></rect>
                <rect id="Rectangle" fill="#254095" opacity="0.2" x="872.61" y="304.91" width="25.51" height="25.51"></rect>
                <rect id="Rectangle" fill="#254095" opacity="0.2" x="907.47" y="304.91" width="25.51" height="25.51"></rect>
                <rect id="Rectangle" fill="#254095" opacity="0.2" x="942.34" y="304.91" width="25.51" height="25.51"></rect>
                <rect id="Rectangle" fill="#254095" x="977.2" y="304.91" width="25.51" height="25.51"></rect>
                <circle id="Oval" fill="#767D9F" cx="734.52" cy="363.89" r="34.87"></circle>
                <path d="M732.71,319.53 C736.19,334.716667 739.143333,350.016667 741.57,365.43 C742.3,370.01 742.95,374.84 741.29,379.17 C739.9,382.78 737.07,385.6 734.85,388.76 C732.63,391.92 730.95,395.97 732.3,399.59 C733.65,403.21 737.59,405.19 741.35,406.21 C752.11,409.11 763.58,407 774.29,403.86 C779.139207,402.611621 783.788265,400.686016 788.1,398.14 C792.64,395.26 796.36,391.26 799.78,387.14 C815.39,368.21 825.61,345.49 835.23,322.91 C822.689576,324.051347 810.366439,319.086362 802.12,309.57 C798.18,304.94 795.29,298.49 797.51,292.83 C791,296.4 783.27,296.64 776.26,299.08 C771.912681,300.740336 767.728201,302.7991 763.76,305.23 C758.973333,307.996667 754.213333,310.816667 749.48,313.69 C744.07,316.95 739,319.85 732.71,319.53 Z" id="Path" fill="#AE6E79"></path>
                <path d="M805.64,345.71 C799.53,357.6 791.58,369.03 780.23,376.11 C768.88,383.19 753.6,385.11 742.23,378.11 C736.63,374.69 732.39,369.49 727.5,365.11 C722.61,360.73 716.5,356.98 709.93,357.55 C702.69,358.18 697.02,363.83 692.17,369.24 C684.81,377.46 677.7,386.03 672.49,395.76 C662.49,414.46 660.12,436.32 660.56,457.52 C661,478.72 664.07,499.81 664.14,521.01 C664.24,547.09 659.82,572.96 655.35,598.65 C696.45,593.59 737.6,604.65 778.79,608.84 C805.15,611.55 831.71,611.49 858.21,611.42 C862.87,611.42 867.83,611.3 871.71,608.72 C874.081567,606.989879 875.999437,604.711765 877.3,602.08 C880.96,595.33 882.43,587.63 883.45,580.02 C886.04,560.8 886.12,541.34 886.19,521.94 C886.37,474.94 886.54,427.77 880.57,381.14 C879.1,369.67 877.22,358.14 872.82,347.41 C868.42,336.68 861.24,326.81 851.2,321.06 C844.75,317.36 829.8,310.92 822.2,314.65 C813.67,318.81 809.73,337.75 805.64,345.71 Z" id="Path" fill="#767D9F"></path>
                <path d="M808.68,478.43 C807.13,449.43 800.82,418.48 814.25,392.74 C817.55,386.42 805.71,378.53 809.37,372.41 C813.836515,364.9484 817.223497,356.891693 819.43,348.48 C820.19,345.59 820.8,342.53 820.08,339.63 C818.75,334.34 813.52,331.19 809.08,327.97 C804.18,324.41 801.66,313.56 800.08,307.69 C798.5,301.82 812.65,308.89 818.34,306.8 C826.24,303.91 836.28,305.73 844.16,308.66 C848.56,310.28 853.34,310.42 858.03,310.54 C867.14,310.78 876.28,311.01 885.32,309.89 C889.38,309.38 893.45,308.61 897.53,308.84 C907.94,309.43 916.99,316.55 923.15,324.97 C929.31,333.39 933.23,343.2 938.28,352.32 C942.49,359.92 947.51,367.1 951.1,375.01 C954.28,382.01 956.29,389.53 958.28,397.01 L963.41,416.2 C964.307406,418.945195 964.73343,421.822543 964.67,424.71 C964.41,427.78 963.05,430.64 961.67,433.37 C956.451676,443.488523 950.194653,453.036601 943,461.86 C932.21,475.09 919.11,487.02 912.7,502.86 C910.2,509.03 908.81,515.59 907.54,522.13 C902.419586,548.287107 898.780458,574.712513 896.64,601.28 C884.955293,595.872909 872.707148,591.777896 860.12,589.07 C853.845507,587.727528 847.502874,586.72606 841.12,586.07 C835.53,585.49 828.32,586.59 823,585.07 C814.1,582.54 813.12,567.49 811.77,559.61 C809.61,547.06 809.18,534.29 809.1,521.61 C809,507.19 809.45,492.8 808.68,478.43 Z" id="Path" fill="#4C4981"></path>
                <path d="M613.23,424.2 C617.44,448.2 622.08,472.27 631.23,494.82 C631,495.04 630.77,495.24 630.54,495.44 C629.73,496.13 628.89,496.78 628.01,497.44 C625.96,498.88 623.71,500.1 622.01,501.98 C621.366266,502.699469 620.858075,503.529515 620.51,504.43 C619.874688,505.852278 619.874688,507.477722 620.51,508.9 C615.74,511.01 610.2,510.36 604.85,510.16 C600.24,509.99 595.77,510.16 592.07,512.69 C586.93,516.23 585.38,523.03 584.55,529.21 C584.243333,531.463333 583.98,533.72 583.76,535.98 C583.546667,538.08 583.373333,540.186667 583.24,542.3 C582.786704,549.291039 582.723273,556.301904 583.05,563.3 C583.103333,564.58 583.173333,565.86 583.26,567.14 C566.92,566.75 552.03,558.23 537.94,549.95 C534.72,548.06 531.4,546.07 529.31,542.95 C527.384222,539.885791 526.568772,536.253332 527,532.66 C527,532.15 527.09,531.66 527.16,531.14 C527.60785,528.172503 528.375657,525.262213 529.45,522.46 C533.858296,510.524044 540.356345,499.468218 548.64,489.81 C552.22,485.63 556.25,481.54 557.92,476.29 C558.65,474 558.92,471.57 559.66,469.29 C562.98,459.41 574.96,454.74 579.06,445.15 C580.06,442.86 580.52,440.35 581.76,438.15 C582.876313,436.321606 584.316511,434.711973 586.01,433.4 C586.74,432.79 587.5,432.2 588.25,431.61 C595.276667,426.103333 602.046667,420.286667 608.56,414.16 C609.773333,413.02 610.973333,411.866667 612.16,410.7 C612.001556,415.226061 612.360548,419.75541 613.23,424.2 L613.23,424.2 Z" id="Path" fill="#4C4981"></path>
                <path d="M714,353.22 C712.56,354.74 711,356.17 709.47,357.59 L709.06,357.96 L707.44,359.46 C704.499677,361.997703 701.95493,364.960395 699.89,368.25 L699.72,368.53 C694.62,377.66 696.51,388.9 697.93,399.27 C699.691263,412.192727 700.483473,425.229093 700.3,438.27 C700.04,456.27 697.92,474.15 697.88,492.13 C697.88,496.21 697.97,500.28 698.15,504.36 C698.44,510.99 698.94,517.61 699.54,524.23 C700.19,531.49 700.97,538.74 701.7,545.99 C702.28,551.6 702.83,557.2 703.29,562.8 C703.52,565.7 703.74,568.59 703.92,571.49 C704.13,574.89 704.3,578.3 704.4,581.7 L704.4,581.7 C704.47,583.86 704.51,586.01 704.51,588.17 C704.51,589.4 704.51,590.62 704.51,591.84 C704.51,594.18 704.446667,596.513333 704.32,598.84 C704.186667,601.833333 703.983333,604.833333 703.71,607.84 C703.4,611.11 702.85,614.68 700.55,616.98 C700.41,617.12 700.26,617.25 700.11,617.38 L696.87,616.98 C674.53491,614.306014 651.98622,613.903957 629.57,615.78 C630.06,612.4 630.51,609.03 630.95,605.64 C631.15,604.04 631.35,602.43 631.54,600.82 C631.76,598.98 631.97,597.14 632.17,595.3 C632.4,593.3 632.61,591.3 632.81,589.3 C633.33,584.146667 633.786667,578.99 634.18,573.83 C634.76,566.303333 635.2,558.763333 635.5,551.21 C635.646667,547.603333 635.76,543.993333 635.84,540.38 C635.953333,535.9 636.006667,531.416667 636,526.93 C636,522.57 635.963333,518.203333 635.89,513.83 C635.89,512.39 635.83,510.95 635.71,509.52 C635.623909,508.232429 635.4468,506.952565 635.18,505.69 C634.437484,502.778736 633.433401,499.940527 632.18,497.21 C631.96,496.69 631.75,496.21 631.54,495.66 C631.42,495.39 631.31,495.11 631.2,494.84 C636.96,489.71 641.06,482.84 645,476.08 C651.39,465.19 657.93,453.82 659,441.24 C660.07,428.66 653.82,414.53 641.8,410.69 C638.53,409.69 635.07,409.41 631.7,408.82 C628.52,408.26 621.89,406.99 618.21,404.71 C616.21,406.763333 614.21,408.78 612.21,410.76 C612.331302,407.738994 613.069797,404.774804 614.38,402.05 L615.8,402.12 C615.684304,401.799682 615.630023,401.460426 615.64,401.12 C615.64,400.05 616.38,398.84 617.96,397.5 C622.67,393.5 630.08,392.61 633.05,387.2 C634.29,384.95 634.5,382.27 635.5,379.91 C638.37,373.18 646.61,370.7 651.57,365.32 C656.53,359.94 657.77,352.32 661.78,346.32 C664.775372,341.938455 668.930134,338.476153 673.78,336.32 C674.18,336.13 674.59,335.94 675,335.77 C683.3,332.22 693.16,331.41 701.76,331.43 C705.1,331.43 713.76,331.53 718,333.22 C718.687687,333.465702 719.317425,333.850353 719.85,334.35 C724.37,339.27 717.34,349.66 714,353.22 Z" id="Path" fill="#4C4981"></path>
                <path d="M614.72,401.35 C630.323882,396.652509 647.159661,398.406686 661.46,406.22 C668.66,410.22 675.12,415.8 679.08,423 C685.03,433.8 684.77,446.82 684.35,459.15 C684.14,465.32 683.87,471.71 681.15,477.25 C678,483.66 672.06,488.06 666,491.66 C662.203697,494.082013 658.044523,495.881396 653.68,496.99 C646.96,498.45 639.98,497.21 633.21,495.99 C625.85,494.63 617.95,492.99 612.84,487.51 C609.84,484.33 608.2,480.2 606.58,476.16 C604.253333,470.326667 601.92,464.5 599.58,458.68 C595.53,448.57 594.16,440.16 599.51,430.31 C601.94,425.82 604.91,421.62 607.31,417.1 C608.51,414.8 612.81,401.94 614.72,401.35 Z" id="Path" fill="#4C4981"></path>
                <path d="M1035,574.22 L1035,604.12 C1014.48702,612.641489 992.48245,616.992771 970.27,616.92 L700.58,616.92 C700.44,617.06 700.29,617.19 700.14,617.32 L696.9,616.92 L217.17,616.92 C176.92,616.92 139.62,606.06 109.03,587.56 L109.03,541.91 L339.75,515.28 L339.93,515.28 L474.29,526.66 L509.06,529.66 L527.12,531.19 L564.5,534.36 L583.73,535.99 L611.73,538.37 L615.67,538.7 L635.85,540.41 L663.23,542.66 L701.73,545.92 L765.91,551.37 L811.06,555.2 L885.2,561.49 L899.3,562.68 L900.82,562.81 L902.14,562.92 L920.76,564.5 L941.2,566.24 L943.57,566.44 L1035,574.22 Z" id="Path" fill="#504F60"></path>
                <polygon id="Path" fill="#9C9CA1" points="764 573.12 474.86 523.77 463.65 580.46 596.19 596.33 637 601.44 749.26 579.33"></polygon>
                <path d="M614.33,598.6 L759.19,571.37 C760.657445,571.0891 762.173615,571.479163 763.323307,572.433368 C764.472999,573.387574 765.135726,574.805923 765.13,576.3 L765.13,576.3 C765.136524,578.715551 763.415218,580.790377 761.04,581.23 L619.57,607.72 L614.33,598.6 Z" id="Path" fill="#9C9CA1"></path>
                <path d="M677.17,512.97 C681.68,512.55 686.25,511.84 690.31,509.84 C695.31,507.35 699.2,503.06 703.83,499.9 C714.01,492.9 727.63,491.96 739.3,495.98 C750.97,500 760.71,508.61 767.53,518.89 C772.06,525.74 775.46,534.48 772.26,542.04 C771.162116,544.35092 769.777919,546.514568 768.14,548.48 L759.8,559.38 C758.215629,561.671313 756.309377,563.722386 754.14,565.47 C751.02,567.74 747.14,568.67 743.32,569.23 C733.17,570.71 722.84,569.87 712.61,570.55 C695.04,571.72 677.88,577.38 660.27,577.19 C650.15,577.08 640.16,575.04 630.27,573 L586.5,564 C578.88,562.44 570.27,560.16 566.68,553.25 C565.07,550.14 564.77,546.54 564.58,543.04 C564.06,533.4 564.58,522.68 571.26,515.73 C577.54,509.21 587.47,507.15 594.97,502.33 C604.15,496.42 607.18,498.33 616.86,502.77 C635.744761,511.322476 656.523094,514.836636 677.17,512.97 Z" id="Path" fill="#AE6E79"></path>
                <path d="M677.17,512.97 C681.68,512.55 686.25,511.84 690.31,509.84 C695.31,507.35 699.2,503.06 703.83,499.9 C714.01,492.9 727.63,491.96 739.3,495.98 C750.97,500 760.71,508.61 767.53,518.89 C772.06,525.74 775.46,534.48 772.26,542.04 C771.162116,544.35092 769.777919,546.514568 768.14,548.48 L759.8,559.38 C758.215629,561.671313 756.309377,563.722386 754.14,565.47 C751.02,567.74 747.14,568.67 743.32,569.23 C733.17,570.71 722.84,569.87 712.61,570.55 C695.04,571.72 677.88,577.38 660.27,577.19 C650.15,577.08 640.16,575.04 630.27,573 L586.5,564 C578.88,562.44 570.27,560.16 566.68,553.25 C565.07,550.14 564.77,546.54 564.58,543.04 C564.06,533.4 564.58,522.68 571.26,515.73 C577.54,509.21 587.47,507.15 594.97,502.33 C604.15,496.42 607.18,498.33 616.86,502.77 C635.744761,511.322476 656.523094,514.836636 677.17,512.97 Z" id="Path" fill="#000000" opacity="0.05"></path>
                <path d="M852.94,499.26 C840.66,504.01 828.31,508.78 815.45,511.61 C793.89,516.36 771.33,515.61 749.94,521.04 C738.64,523.92 727.41,528.56 715.8,527.62 C710.61,527.2 705.6,525.62 700.55,524.42 C672.18,517.42 639.93,519.69 616.89,537.69 C609.01,543.84 602.56,551.51 596.71,559.69 C594.175442,563.267259 593.36986,567.789112 594.513091,572.021581 C595.656322,576.254049 598.629035,579.755348 602.62,581.57 C611.580078,585.69054 621.178037,588.250672 631,589.14 C644.13,590.3 657.32,588.44 670.38,586.58 C689.76,583.83 709.15,581.07 728.48,577.98 C735.42,576.87 742.36,575.72 749.34,574.84 C799.57,568.49 850.71,576.21 901.07,570.91 C906.16,570.37 911.34,569.67 915.97,567.5 C927.69,562 933.49,547.5 931.07,534.76 C928.65,522.02 919.31,511.43 908.07,504.93 C898.65,499.46 888.49,497.25 878,494.93 C868.26,492.66 862.32,495.66 852.94,499.26 Z" id="Path" fill="#AE6E79"></path>
                <path d="M960.67,423.1 C966.21,430.36 967.39,440.1 966.79,449.19 C966.19,458.28 964.03,467.27 963.71,476.4 C963.27,488.92 966.29,501.4 965.78,513.88 C965.42,522.61 963.35,531.17 960.9,539.55 C958.01,549.44 953.83,560.07 944.7,564.82 C932.58,571.13 907.16,567.58 894.41,572.52 C895.57,565.29 906.69,554.82 907.85,547.59 C908.65,542.59 909.46,537.45 908.6,532.44 C907.5,526.05 903.75,520.38 899.3,515.66 C892.22,508.15 882.98,502.5 872.83,500.66 C862.68,498.82 837.83,500.33 829.71,506.74 C828.71,500.12 847.31,493.74 853.85,492.31 C857.11,491.58 860.85,491.99 863.46,489.92 C868.46,486 864.83,478.19 865.07,471.92 C865.26,466.92 868.18,462.34 868.77,457.34 C869.77,449.34 864.55,441.19 866.6,433.34 C867.36,430.44 869.05,427.89 870.22,425.13 C873.78,416.68 872.22,407.04 870.32,398.06 C869.14,392.42 867.99,386.06 871.13,381.25 C874.04,376.76 882.3,392.75 887.59,392.01 C905.06,389.56 920.87,376.61 934.98,387.21 C942.17,392.61 943.11,398.21 945.98,405.92 C948.77,413.26 956,417.02 960.67,423.1 Z" id="Path" fill="#000000" opacity="0.1"></path>
                <path d="M963.67,423.1 C969.21,430.36 970.39,440.1 969.79,449.19 C969.19,458.28 967.03,467.27 966.71,476.4 C966.27,488.92 969.29,501.4 968.78,513.88 C968.42,522.61 966.35,531.17 963.9,539.55 C961.01,549.44 956.83,560.07 947.7,564.82 C935.58,571.13 910.16,567.58 897.41,572.52 C898.57,565.29 909.69,554.82 910.85,547.59 C911.65,542.59 912.46,537.45 911.6,532.44 C910.5,526.05 906.75,520.38 902.3,515.66 C895.22,508.15 885.98,502.5 875.83,500.66 C865.68,498.82 840.83,500.33 832.71,506.74 C831.71,500.12 850.31,493.74 856.85,492.31 C860.11,491.58 863.85,491.99 866.46,489.92 C871.46,486 867.83,478.19 868.07,471.92 C868.26,466.92 871.18,462.34 871.77,457.34 C872.77,449.34 867.55,441.19 869.6,433.34 C870.36,430.44 872.05,427.89 873.22,425.13 C876.78,416.68 875.22,407.04 873.32,398.06 C872.14,392.42 870.99,386.06 874.13,381.25 C877.04,376.76 882.73,375.06 888.02,374.31 C905.731834,371.914281 923.677989,376.544389 938.02,387.21 C945.21,392.61 946.15,398.21 949.02,405.92 C951.77,413.26 959,417.02 963.67,423.1 Z" id="Path" fill="#4C4981"></path>
                <path d="M302,375.72 L356.37,576.66 C357.735934,581.701099 362.08118,585.369268 367.28,585.87 L612,609.38 C616.047053,609.770248 620.032128,608.174156 622.690873,605.098119 C625.349618,602.022082 626.352003,597.847929 625.38,593.9 L565.84,351.52 C564.376987,345.570637 558.829269,341.549387 552.72,342.01 L313.13,359.93 C309.405525,360.219369 306.003987,362.154205 303.851722,365.207598 C301.699458,368.26099 301.020592,372.114974 302,375.72 Z" id="Path" fill="#9C9CA1"></path>
                <ellipse id="Oval" fill="#FFFFFF" cx="787.11" cy="387.68" rx="26.9" ry="27.25"></ellipse>
                <path d="M809.2,337.97 C809.2,337.97 814.87,354.83 798.14,361.92 L796,365.66 L806.48,376 C806.48,376 819.4,352.43 818,344.06 C818,344.06 816,335.56 809.2,337.97 Z" id="Path" fill="#FFFFFF"></path>
                <circle id="Oval" fill="#254095" cx="790.2" cy="388.99" r="25.94"></circle>
                <path d="M818.13,347.89 L814.01,341.09 L808.01,340.24 C809.29,317.85 803.48,311.18 803.48,311.18 L802.13,311.05 L796.25,310.48 L785.19,299 L785.19,295.74 C800.73,297.59 809.32,304.97 813.96,313.62 C822.16,328.8 818.13,347.89 818.13,347.89 Z" id="Path" fill="#254095"></path>
                <path d="M802.18,306.93 L802.18,311.05 L796.3,310.48 L785.24,299 C785.24,299 802.35,302.83 802.18,306.93 Z" id="Path" stroke="#4C4981" fill="#000000" opacity="0.1"></path>
                <path d="M818.13,347.89 L814.01,341.09 L814.01,313.66 C822.16,328.8 818.13,347.89 818.13,347.89 Z" id="Path" stroke="#4C4981" fill="#000000" opacity="0.1"></path>
                <ellipse id="Oval" fill="#FFFFFF" transform="translate(729.106493, 376.859364) rotate(-30.000000) translate(-729.106493, -376.859364) " cx="729.106493" cy="376.859364" rx="14.43" ry="26.32"></ellipse>
                <path d="M733,374.66 C740.27,387.25 749.19,395.66 742.29,399.66 C735.39,403.66 715.29,401.66 708.02,389.06 C700.75,376.46 707.35,359.06 714.25,355.06 C721.15,351.06 725.72,362.04 733,374.66 Z" id="Path" fill="#254095"></path>
                <path d="M797.73,283.96 C797.73,324.19 770.2,362.96 729.97,362.96 C689.736056,362.96 657.12,330.343944 657.12,290.11 C657.12,249.876056 689.736056,217.26 729.97,217.26 C770.2,217.3 797.73,243.72 797.73,283.96 Z" id="Path" fill="#000000" opacity="0.1"></path>
                <circle id="Oval" fill="#AE6E79" cx="729.97" cy="288.15" r="72.85"></circle>
                <path d="M723.57,255.87 C732.24,259.06 737.37,268.02 745.15,273.01 C756.15,280.01 770.47,278.2 783.03,274.74 C790.03,272.83 797.35,270.5 804.24,272.62 C805.25351,273.068736 806.371512,273.227956 807.47,273.08 C808.97,272.65 809.71,270.99 810.2,269.51 C818.72,244.11 814.89,215.34 802.03,191.84 C798.71,185.78 794.73,179.92 789.25,175.71 C784.93,172.4 779.85,170.23 774.73,168.38 C765.373224,165.019539 755.695644,162.630303 745.85,161.25 C744.111294,160.934083 742.335452,160.876798 740.58,161.08 C738.17,161.47 736.01,162.77 733.86,163.93 C724.651813,168.866135 714.440108,171.639642 704,172.04 C690,172.57 674,169.27 663.21,178.25 C650.21,189.02 653.45,210.03 645.02,224.65 C639.44,234.32 628.68,241.34 626.91,252.35 C626.449087,255.715193 626.663256,259.138493 627.54,262.42 C631.66,279.36 648.06,292.48 665.54,292.79 C668.224376,292.994777 670.912473,292.443994 673.3,291.2 C674.864288,290.132502 676.245481,288.818849 677.39,287.31 C688.84,273.75 701.94,247.91 723.57,255.87 Z" id="Path" fill="#444053"></path>
                <path d="M810.2,262.14 C809.71,263.62 808.97,265.28 807.47,265.71 C806.371512,265.857956 805.25351,265.698736 804.24,265.25 C797.35,263.13 789.99,265.46 783.04,267.37 C770.47,270.83 756.12,272.68 745.16,265.64 C737.37,260.64 732.25,251.64 723.57,248.5 C701.94,240.5 688.84,266.38 677.36,279.94 C676.215481,281.448849 674.834288,282.762502 673.27,283.83 C670.882473,285.073994 668.194376,285.624777 665.51,285.42 C648.09,285.11 631.68,271.99 627.51,255.05 C627.28,254.05 627.08,253.05 626.93,252.05 C626.93,252.14 626.93,252.22 626.88,252.31 C626.419087,255.675193 626.633256,259.098493 627.51,262.38 C631.63,279.32 648.04,292.44 665.51,292.75 C668.194376,292.954777 670.882473,292.403994 673.27,291.16 C674.834288,290.092502 676.215481,288.778849 677.36,287.27 C688.84,273.71 701.94,247.87 723.57,255.83 C732.25,259.02 737.37,267.98 745.16,272.97 C756.16,279.97 770.47,278.16 783.04,274.7 C790.04,272.79 797.35,270.46 804.24,272.58 C805.25351,273.028736 806.371512,273.187956 807.47,273.04 C808.97,272.61 809.71,270.95 810.2,269.47 C813.636504,259.077136 815.154529,248.145995 814.68,237.21 C814.385601,245.691381 812.876924,254.086766 810.2,262.14 L810.2,262.14 Z" id="Path" fill="#000000" opacity="0.1"></path>
            </g>
        </g>
    </g>
</svg>