<?xml version="1.0" encoding="UTF-8"?>
<svg width="1052px" height="698px" viewBox="0 0 1052 698" version="1.1" xmlns="http://www.w3.org/2000/svg" xmlns:xlink="http://www.w3.org/1999/xlink">
    <!-- Generator: Sketch 53.2 (72643) - https://sketchapp.com -->
    <title>undraw_user_flow_vr6w</title>
    <desc>Created with Sketch.</desc>
    <defs>
        <linearGradient x1="0.109487385%" y1="50.0124825%" x2="100.000251%" y2="50.0124825%" id="linearGradient-1">
            <stop stop-color="#808080" stop-opacity="0.25" offset="0%"></stop>
            <stop stop-color="#808080" stop-opacity="0.12" offset="54%"></stop>
            <stop stop-color="#808080" stop-opacity="0.1" offset="100%"></stop>
        </linearGradient>
    </defs>
    <g id="Page-1" stroke="none" stroke-width="1" fill="none" fill-rule="evenodd">
        <g id="IllustrationUndraw" transform="translate(-3075.000000, -6102.000000)">
            <g id="undraw_user_flow_vr6w" transform="translate(3000.000000, 6000.000000)">
                <path d="M677.01,234.97 C612.29,232.72 550.65,211.83 491.79,188.97 C432.93,166.11 374.6,140.78 311.45,128.67 C270.82,120.88 224.36,119.78 191.62,141.56 C160.12,162.56 149.94,198.71 144.46,232.29 C140.35,257.55 137.93,284.13 149.21,307.78 C157.04,324.2 170.95,338 180.57,353.73 C214.03,408.45 190.38,475.93 154.11,529.36 C137.11,554.43 117.37,578.36 104.24,605.02 C91.11,631.68 85.04,662.27 96.52,689.49 C107.91,716.49 135.04,736.73 164.43,750.98 C224.11,779.93 294.43,788.21 363.04,792.9 C514.86,803.29 667.5,798.79 819.72,794.29 C876.06,792.62 932.65,790.93 988.07,782.22 C1018.84,777.38 1050.62,769.71 1072.96,751.17 C1101.32,727.64 1108.35,687.79 1089.35,658.29 C1057.47,608.8 969.35,596.51 947.04,543.39 C934.77,514.16 947.37,481.6 965.19,454.48 C1003.43,396.32 1067.52,345.29 1070.9,278.81 C1073.22,233.14 1042.41,187.42 994.77,165.81 C944.83,143.17 875.59,146.01 838.77,183.5 C800.81,222.1 734.15,236.95 677.01,234.97 Z" id="Path" fill="#254095" fill-rule="nonzero" opacity="0.1"></path>
                <g id="abffebd3-2ac6-4c6b-a0d4-e62621854ed7" opacity="0.6" transform="translate(179.000000, 153.000000)">
                    <path d="M154.34,194.71 C154.34,194.71 126.85,146.02 85.46,131.99 C68.0796308,126.20321 53.0420685,114.940827 42.6,99.89 C37.6924702,92.7031758 33.4547066,85.0812266 29.94,77.12" id="Path" stroke="#535461" stroke-width="2"></path>
                    <path d="M3.86,68.12 C8.57,72.7 30.54,77.43 30.54,77.43 C30.54,77.43 25.15,55.62 20.43,51.04 C17.3944533,47.9980827 12.9546411,46.8291278 8.81469966,47.981816 C4.67475828,49.1345042 1.47791563,52.4297409 0.451218088,56.6027131 C-0.57547945,60.7756853 0.72748742,65.178033 3.86,68.12 L3.86,68.12 Z" id="Path" fill="#254095" fill-rule="nonzero"></path>
                    <path d="M16.28,107.62 C22.73,108.9 43.74,100.93 43.74,100.93 C43.74,100.93 27.36,85.55 20.91,84.27 C16.7389242,83.44293 12.4434546,84.9039283 9.64165311,88.102651 C6.83985164,91.3013737 5.9573786,95.7518587 7.32665306,99.7776512 C8.69592753,103.803444 12.1089241,106.79293 16.28,107.62 L16.28,107.62 Z" id="Path" fill="#254095" fill-rule="nonzero"></path>
                    <path d="M61.53,150.31 C67.74,148.16 81.86,130.68 81.86,130.68 C81.86,130.68 59.95,125.68 53.74,127.82 C47.529558,129.971149 44.2388509,136.749558 46.39,142.96 C48.5411491,149.170442 55.319558,152.461149 61.53,150.31 Z" id="Path" fill="#254095" fill-rule="nonzero"></path>
                    <path d="M103.04,174.93 C109.53,173.86 126.4,159.01 126.4,159.01 C126.4,159.01 105.66,150.37 99.17,151.44 C92.6834157,152.508671 88.2913292,158.633416 89.3600002,165.12 C90.4286712,171.606584 96.5534157,175.998671 103.04,174.93 Z" id="Path" fill="#254095" fill-rule="nonzero"></path>
                    <path d="M62.06,83.86 C62.06,90.44 50.17,109.5 50.17,109.5 C50.17,109.5 38.26,90.5 38.26,83.87 C38.26,77.2978115 43.5878115,71.97 50.16,71.97 C56.7321885,71.97 62.06,77.2978115 62.06,83.87 L62.06,83.86 Z" id="Path" fill="#254095" fill-rule="nonzero"></path>
                    <path d="M110.25,113.26 C108.25,119.54 91.25,134.17 91.25,134.17 C91.25,134.17 85.59,112.42 87.55,106.17 C89.5133723,99.8960452 96.1910452,96.4016277 102.465,98.365 C108.738955,100.328372 112.233372,107.006045 110.27,113.28 L110.25,113.26 Z" id="Path" fill="#254095" fill-rule="nonzero"></path>
                    <path d="M153.16,148.26 C152.29,154.78 137.95,172.09 137.95,172.09 C137.95,172.09 128.69,151.61 129.57,145.09 C130.445372,138.575802 136.435802,134.004629 142.95,134.88 C149.464198,135.755372 154.035371,141.745802 153.16,148.26 Z" id="Path" fill="#254095" fill-rule="nonzero"></path>
                    <path d="M3.86,68.12 C8.57,72.7 30.54,77.43 30.54,77.43 C30.54,77.43 25.15,55.62 20.43,51.04 C17.3944533,47.9980827 12.9546411,46.8291278 8.81469966,47.981816 C4.67475828,49.1345042 1.47791563,52.4297409 0.451218088,56.6027131 C-0.57547945,60.7756853 0.72748742,65.178033 3.86,68.12 L3.86,68.12 Z" id="Path" fill="#000000" fill-rule="nonzero" opacity="0.25"></path>
                    <path d="M16.28,107.62 C22.73,108.9 43.74,100.93 43.74,100.93 C43.74,100.93 27.36,85.55 20.91,84.27 C16.7389242,83.44293 12.4434546,84.9039283 9.64165311,88.102651 C6.83985164,91.3013737 5.9573786,95.7518587 7.32665306,99.7776512 C8.69592753,103.803444 12.1089241,106.79293 16.28,107.62 L16.28,107.62 Z" id="Path" fill="#000000" fill-rule="nonzero" opacity="0.25"></path>
                    <path d="M61.53,150.31 C67.74,148.16 81.86,130.68 81.86,130.68 C81.86,130.68 59.95,125.68 53.74,127.82 C47.529558,129.971149 44.2388509,136.749558 46.39,142.96 C48.5411491,149.170442 55.319558,152.461149 61.53,150.31 Z" id="Path" fill="#000000" fill-rule="nonzero" opacity="0.25"></path>
                    <path d="M103.04,174.93 C109.53,173.86 126.4,159.01 126.4,159.01 C126.4,159.01 105.66,150.37 99.17,151.44 C92.6834157,152.508671 88.2913292,158.633416 89.3600002,165.12 C90.4286712,171.606584 96.5534157,175.998671 103.04,174.93 Z" id="Path" fill="#000000" fill-rule="nonzero" opacity="0.25"></path>
                    <path d="M62.06,83.86 C62.06,90.44 50.17,109.5 50.17,109.5 C50.17,109.5 38.26,90.5 38.26,83.87 C38.26,77.2978115 43.5878115,71.97 50.16,71.97 C56.7321885,71.97 62.06,77.2978115 62.06,83.87 L62.06,83.86 Z" id="Path" fill="#000000" fill-rule="nonzero" opacity="0.25"></path>
                    <path d="M110.25,113.26 C108.25,119.54 91.25,134.17 91.25,134.17 C91.25,134.17 85.59,112.42 87.55,106.17 C89.5133723,99.8960452 96.1910452,96.4016277 102.465,98.365 C108.738955,100.328372 112.233372,107.006045 110.27,113.28 L110.25,113.26 Z" id="Path" fill="#000000" fill-rule="nonzero" opacity="0.25"></path>
                    <path d="M153.16,148.26 C152.29,154.78 137.95,172.09 137.95,172.09 C137.95,172.09 128.69,151.61 129.57,145.09 C130.445372,138.575802 136.435802,134.004629 142.95,134.88 C149.464198,135.755372 154.035371,141.745802 153.16,148.26 Z" id="Path" fill="#000000" fill-rule="nonzero" opacity="0.25"></path>
                    <path d="M152.76,193.75 C152.76,193.75 147.36,138.09 115.2,108.49 C101.636795,96.1584518 92.4369019,79.7621509 88.98,61.76 C87.394368,53.2010381 86.5976927,44.5145995 86.599995,35.81" id="Path" stroke="#535461" stroke-width="2"></path>
                    <path d="M66.48,17.03 C68.94,23.13 87.1,36.36 87.1,36.36 C87.1,36.36 91.02,14.23 88.56,8.13 C86.9701683,4.1857877 83.3968909,1.38935042 79.1861869,0.794079074 C74.975483,0.198807728 70.7670586,1.8951382 68.1461866,5.24407919 C65.5253147,8.59302018 64.8901679,13.0857878 66.48,17.03 L66.48,17.03 Z" id="Path" fill="#254095" fill-rule="nonzero"></path>
                    <path d="M61.85,58.16 C67.22,61.94 89.66,63.16 89.66,63.16 C89.66,63.16 80.92,42.46 75.54,38.68 C70.163508,34.8996109 62.7403891,36.193508 58.96,41.57 C55.1796109,46.946492 56.473508,54.3696109 61.85,58.15 L61.85,58.16 Z" id="Path" fill="#254095" fill-rule="nonzero"></path>
                    <path d="M85.9,115.55 C92.45,116.1 112.45,105.83 112.45,105.83 C112.45,105.83 94.45,92.38 87.9,91.83 C81.349903,91.2777156 75.5922853,96.1399031 75.0400005,102.69 C74.4877158,109.240097 79.3499031,114.997715 85.9,115.55 L85.9,115.55 Z" id="Path" fill="#254095" fill-rule="nonzero"></path>
                    <path d="M113.88,154.87 C120.25,156.52 141.69,149.78 141.69,149.78 C141.69,149.78 126.22,133.48 119.86,131.78 C115.668902,130.45767 111.090182,131.552901 107.951097,134.628613 C104.812012,137.704325 103.623638,142.259758 104.860227,146.47695 C106.096815,150.694142 109.557037,153.886488 113.86,154.78 L113.88,154.87 Z" id="Path" fill="#254095" fill-rule="nonzero"></path>
                    <path d="M113.32,55.01 C110.66,61.01 92.06,73.63 92.06,73.63 C92.06,73.63 88.89,51.39 91.55,45.38 C94.2092511,39.3683805 101.23838,36.6507489 107.25,39.31 C113.26162,41.9692511 115.979251,48.9983805 113.32,55.01 L113.32,55.01 Z" id="Path" fill="#254095" fill-rule="nonzero"></path>
                    <path d="M145.46,101.42 C141.12,106.35 119.6,112.82 119.6,112.82 C119.6,112.82 123.23,90.65 127.6,85.71 C131.938197,80.7698129 139.459813,80.2818033 144.4,84.62 C149.340187,88.9581967 149.828197,96.4798129 145.49,101.42 L145.46,101.42 Z" id="Path" fill="#254095" fill-rule="nonzero"></path>
                    <path d="M170.5,150.8 C167.06,156.4 146.95,166.42 146.95,166.42 C146.95,166.42 146.78,143.95 150.22,138.34 C153.660734,132.739833 160.989833,130.989266 166.59,134.43 C172.190167,137.870734 173.940734,145.199833 170.5,150.8 Z" id="Path" fill="#254095" fill-rule="nonzero"></path>
                </g>
                <path d="M222.36,267.86 C222.36,267.86 369.36,273.86 389.36,267.86 C389.36,267.86 378.36,513.86 382.36,521.86 C382.36,521.86 219.36,530.86 207.36,521.86 C195.36,512.86 222.36,267.86 222.36,267.86 Z" id="Path" stroke="#33313F" stroke-width="3" fill="#FFFFFF" fill-rule="nonzero"></path>
                <path d="M244.36,313.86 C244.36,313.86 312.36,421.86 335.36,431.86" id="Path" stroke="#33313F" stroke-width="3" fill="#FFFFFF" fill-rule="nonzero"></path>
                <path d="M335.36,313.86 C335.36,313.86 270.36,398.86 260.36,427.86" id="Path" stroke="#33313F" stroke-width="3" fill="#FFFFFF" fill-rule="nonzero"></path>
                <g id="Group" transform="translate(0.600000, 0.620000)"></g>
                <path d="M329.36,472.86 L250.36,472.86 C244.36,472.86 244.36,500.86 244.36,500.86 L329.36,500.86 L329.36,472.86 Z" id="Path" stroke="#33313F" stroke-width="3" fill="#FFFFFF" fill-rule="nonzero"></path>
                <path d="M498.36,267.86 C498.36,267.86 639.36,260.86 665.36,267.86 C665.36,267.86 654.36,513.86 658.36,521.86 C658.36,521.86 478.2,535.95 483.36,521.86 C494.36,491.86 498.36,267.86 498.36,267.86 Z" id="Path" stroke="#33313F" stroke-width="3" fill="#FFFFFF" fill-rule="nonzero"></path>
                <path d="M553.31,286.62 C553.31,286.62 584.69,336.47 595.31,341.08" id="Path" stroke="#33313F" stroke-width="3" fill="#FFFFFF" fill-rule="nonzero"></path>
                <path d="M595.31,286.62 C595.31,286.62 565.31,325.85 560.69,339.24" id="Path" stroke="#33313F" stroke-width="3" fill="#FFFFFF" fill-rule="nonzero"></path>
                <path d="M631.12,372.86 L525.12,372.86 C517.12,372.86 517.12,400.86 517.12,400.86 L631.12,400.86 L631.12,372.86 Z" id="Path" stroke="#33313F" stroke-width="3" fill="#FFFFFF" fill-rule="nonzero"></path>
                <path d="M616.65,461.86 L537.65,461.86 C531.65,461.86 531.65,489.86 531.65,489.86 L616.65,489.86 L616.65,461.86 Z" id="Path" stroke="#33313F" stroke-width="3" fill="#FFFFFF" fill-rule="nonzero"></path>
                <path d="M631.12,413.86 C639.17,413.86 534.5,422.86 525.12,413.86 C520.18,409.13 517.12,441.86 517.12,441.86 L631.12,441.86 L631.12,413.86 Z" id="Path" stroke="#33313F" stroke-width="3" fill="#FFFFFF" fill-rule="nonzero"></path>
                <polyline id="Path" stroke="#33313F" stroke-width="3" fill="#FFFFFF" fill-rule="nonzero" points="563.87 475.36 569.87 481.36 580.87 466.36"></polyline>
                <path d="M767.36,269.86 C767.36,269.86 907.36,286.86 934.36,269.86 C934.36,269.86 923.36,515.86 927.36,523.86 C927.36,523.86 741.56,534.27 752.36,523.86 C779.36,497.86 767.36,269.86 767.36,269.86 Z" id="Path" stroke="#33313F" stroke-width="3" fill="#FFFFFF" fill-rule="nonzero"></path>
                <path d="M786.81,313.36 C786.81,313.36 806.98,345.36 813.81,348.36" id="Path" stroke="#33313F" stroke-width="3" fill="#FFFFFF" fill-rule="nonzero"></path>
                <path d="M813.81,313.36 C813.81,313.36 794.53,338.62 791.6,347.18" id="Path" stroke="#33313F" stroke-width="3" fill="#FFFFFF" fill-rule="nonzero"></path>
                <path d="M902.12,379.36 L796.12,379.36 C788.12,379.36 788.12,394.18 788.12,394.18 L902.12,394.18 L902.12,379.36 Z" id="Path" stroke="#33313F" stroke-width="3" fill="#FFFFFF" fill-rule="nonzero"></path>
                <path d="M844.33,423.36 L899.54,423.36 C907.54,423.36 907.54,438.18 907.54,438.18 L907.78,438.18" id="Path" stroke="#33313F" stroke-width="3" fill="#FFFFFF" fill-rule="nonzero"></path>
                <path d="M902.12,401.05 C910.17,401.05 805.5,405.81 796.12,401.05 C791.18,398.55 788.12,415.86 788.12,415.86 L902.12,415.86 L902.12,401.05 Z" id="Path" stroke="#33313F" stroke-width="3" fill="#FFFFFF" fill-rule="nonzero"></path>
                <path d="M768.2,288.62 C768.2,288.62 923.4,300.09 933.38,292.47" id="Path" stroke="#33313F" stroke-width="3" fill="#FFFFFF" fill-rule="nonzero"></path>
                <path d="M913.85,281.53 C915.97,281.08 918.15,281.72 920.3,282.05 C922.45,282.38 924.89,282.34 926.45,280.84" id="Path" stroke="#33313F" stroke-width="2" fill="#FFFFFF" fill-rule="nonzero"></path>
                <path d="M912.78,285.47 C917.260774,286.258809 921.819613,286.510586 926.36,286.22" id="Path" stroke="#33313F" stroke-width="2" fill="#FFFFFF" fill-rule="nonzero"></path>
                <path d="M912.76,291.06 C916.602313,290.407536 920.478536,289.973506 924.37,289.76" id="Path" stroke="#33313F" stroke-width="2" fill="#FFFFFF" fill-rule="nonzero"></path>
                <path d="M776.93,283.62 C778.807455,284.488221 780.86279,284.902714 782.93,284.83 C784.233137,285.008408 785.557451,284.721591 786.67,284.02 C787.98,282.96 788.09,281.02 788.09,279.33 C788.12796,278.816635 788.052863,278.301192 787.87,277.82 C787.617525,277.359438 787.248559,276.973232 786.8,276.7 C784.33,274.98 779.74,274.28 776.85,275.45 C772.89,277.05 773.53,281.77 776.93,283.62 Z" id="Path" stroke="#33313F" stroke-width="2" fill="#FFFFFF" fill-rule="nonzero"></path>
                <path d="M821.18,307.1 C820.6,314.5 822.37,321.85 823.56,329.18 C825.061428,338.433358 825.657578,347.811005 825.34,357.18 C809.56,358.14 793.76,358.37 777.94,357.87 C779.41,357.92 779.04,324.43 779.18,321.35 C779.36,317.41 778.52,310.63 783.09,309.15 C787.89,307.58 794.65,308.55 799.69,308.31 C806.85,307.976667 814.013333,307.573333 821.18,307.1 Z" id="Path" stroke="#33313F" stroke-width="3" fill="#FFFFFF" fill-rule="nonzero"></path>
                <path d="M412.36,382.86 C412.36,382.86 451.36,380.86 458.36,382.86" id="Path" stroke="#33313F" stroke-width="3"></path>
                <path d="M458.36,361.86 C458.36,361.86 475.36,378.86 475.36,382.86 C475.36,386.86 453.36,400.86 453.36,400.86" id="Path" stroke="#33313F" stroke-width="3"></path>
                <path d="M682.36,382.86 C682.36,382.86 721.36,380.86 728.36,382.86" id="Path" stroke="#33313F" stroke-width="3"></path>
                <path d="M728.36,361.86 C728.36,361.86 745.36,378.86 745.36,382.86 C745.36,386.86 723.36,400.86 723.36,400.86" id="Path" stroke="#33313F" stroke-width="3"></path>
                <circle id="Oval" fill="#254095" fill-rule="nonzero" opacity="0.1" cx="452.32" cy="123.63" r="21.63"></circle>
                <circle id="Oval" fill="#254095" fill-rule="nonzero" opacity="0.1" cx="781.43" cy="153.49" r="21.63"></circle>
                <circle id="Oval" fill="#254095" fill-rule="nonzero" opacity="0.1" cx="1012.58" cy="473.93" r="21.63"></circle>
                <circle id="Oval" fill="#254095" fill-rule="nonzero" opacity="0.1" cx="1089.95" cy="377.5" r="36.25"></circle>
                <circle id="Oval" fill="#254095" fill-rule="nonzero" opacity="0.1" cx="1041.96" cy="553.42" r="36.25"></circle>
                <circle id="Oval" fill="#254095" fill-rule="nonzero" opacity="0.1" cx="111.25" cy="440.07" r="36.25"></circle>
                <path d="M943.09,488.76 C943.060347,487.551302 942.909594,486.348622 942.64,485.17 C941.73,481.8 939.71,477.71 936.36,476.69 C932.91543,475.632304 929.588107,474.224977 926.43,472.49 C925.82,461.77 928.29,450.8 925.6,440.41 C924.6,436.61 922.96,432.97 922.51,429.07 C921.96,424.24 923.29,419.07 921.36,414.61 C919.84,411.1 916.5,408.61 912.9,407.31 C909.3,406.01 905.44,405.67 901.63,405.31 C896.83,404.91 881.29,403.07 875.88,407.37 L875.88,407.37 C875.503885,407.657614 875.167614,407.993885 874.88,408.37 L874.88,408.37 C874.754976,408.533329 874.644551,408.707332 874.55,408.89 C874.553058,408.916579 874.553058,408.943421 874.55,408.97 C874.447996,409.181483 874.357856,409.398486 874.28,409.62 L874.28,409.62 C874.201905,409.860655 874.1483,410.108578 874.12,410.36 C874.114512,410.443243 874.114512,410.526757 874.12,410.61 C874.109769,410.786519 874.109769,410.963481 874.12,411.14 L874.12,411.4 C874.12,411.59 874.12,411.77 874.12,411.95 C874.12,412.13 874.12,412.1 874.12,412.17 C874.19,413.06 874.33,413.97 874.33,414.86 C874.340136,415.303125 874.299878,415.745967 874.21,416.18 C873.874792,417.355485 873.310658,418.453167 872.55,419.41 L872.55,419.41 L872.37,419.67 L872.04,420.15 L871.78,420.56 L871.56,420.92 C871.46,421.09 871.38,421.26 871.29,421.44 L871.14,421.72 C871.019208,421.99556 870.918935,422.279667 870.84,422.57 C870.625623,423.440326 870.625623,424.349674 870.84,425.22 C871.110222,426.343046 871.570161,427.411726 872.2,428.38 C872.45,428.79 872.73,429.19 873.01,429.59 C873.29,429.99 873.47,430.22 873.71,430.53 C873.570674,431.460327 873.497158,432.399325 873.49,433.34 C873.490495,439.684151 876.407134,445.675981 881.4,449.59 C881.790836,453.813312 881.747274,458.065582 881.27,462.28 C881.17,463.17 881.07,464.05 880.95,464.93 C880.83,465.81 880.73,466.4 880.62,467.13 C879.152635,467.336158 877.657972,467.220134 876.24,466.79 C875.587278,466.498485 874.919691,466.241464 874.24,466.02 C871.32,465.3 868.35,468.2 865.48,467.32 C865.48,467.45 865.39,467.58 865.35,467.72 C864.747221,467.349969 864.057105,467.146384 863.35,467.13 C861.65,467.05 860.25,465.81 859.01,464.64 L855.21,461.05 C854.959023,460.832813 854.737183,460.584084 854.55,460.31 C854.342503,459.922348 854.187797,459.508679 854.09,459.08 C853.281732,457.057142 852.019213,455.24719 850.4,453.79 C850.113001,453.430476 849.732367,453.157112 849.3,453 C849.138034,452.97011 848.971966,452.97011 848.81,453 C848.7,452.86 848.6,452.72 848.48,452.59 C848.21,452.3 847.93,452.02 847.64,451.76 C845.83,450.08 845.64,448.64 844.06,446.76 C842.682942,444.968439 841.436399,443.080244 840.33,441.11 C840.19,440.11 840.01,438.99 839.79,437.89 C839.290429,435.39779 838.560633,432.957324 837.61,430.6 L838.98,429.1 L838.98,427.61 L841.42,424.76 L841.25,424.61 L844.25,421.79 L841.25,421.68 L839.85,423.62 L839.74,423.52 L837.24,426.02 L835.49,426.22 L835.26,426.46 C833.81,424.3 832.26,423.12 830.88,423.4 C828.55,423.88 827.39,428.4 827.76,434.31 L820.83,441.56 L820.05,442.38 L816.47,446.97 L819.28,449.67 L823.59,445.67 L824.28,444.92 L828.57,440.27 C828.57,440.42 828.64,440.57 828.67,440.72 C828.53198,441.431937 828.45835,442.154856 828.45,442.88 C828.45,443.73 829.24,444.34 829.64,445.1 C830.305484,446.111717 830.653693,447.299111 830.64,448.51 C830.64,448.93 830.46,449.34 830.45,449.77 C830.498823,450.70595 830.822287,451.606779 831.38,452.36 C833.053333,455.16 834.72,457.96 836.38,460.76 C836.72,461.35 837.08,461.94 837.38,462.52 C837.383303,462.549909 837.383303,462.580091 837.38,462.61 C837.696255,463.220935 838.156088,463.745968 838.72,464.14 C838.915983,466.246524 839.474181,468.303398 840.37,470.22 C840.55,470.59 840.74,470.96 840.94,471.32 C842.281058,473.526387 843.86054,475.578707 845.65,477.44 L848.04,480.11 C850.38,482.74 852.73,485.36 855.28,487.79 C856.195899,488.759385 857.302414,489.528838 858.53,490.05 C859.745047,490.545507 861.132926,490.346692 862.16,489.53 C862.16,490.77 862.16,492.01 862.16,493.24 C862.874797,493.364411 863.507323,493.776457 863.91,494.38 C864.177244,495.089472 864.114942,495.88107 863.74,496.54 C861.65,501.93 859.53,507.36 856.34,512.2 C858.58582,513.522958 860.666991,515.107333 862.54,516.92 C863.762778,518.268778 864.848138,519.736024 865.78,521.3 C865.86,522.03 865.93,522.77 865.98,523.5 C866.72,535.42 862.11,547.25 857.98,558.61 C856.8,561.82 855.49,565.2 855.6,568.54 C854.814521,569.028935 854.062824,569.570157 853.35,570.16 C854.17,572.29 853.85,574.16 853.77,576.49 C853.736588,577.863439 853.45189,579.219142 852.93,580.49 C852.54,581.38 851.93,582.21 851.5,583.06 C848.91,587.63 848.33,593.06 847.81,598.27 C847.5,601.43 848.73,605.27 847.29,608.09 C844.83,612.94 842.64,618.09 842.24,623.47 C842.226459,624.683145 842.075496,625.890849 841.79,627.07 C841.48,628.07 840.92,628.92 840.64,629.9 C840.354196,631.213428 840.289978,632.565395 840.45,633.9 C840.638281,638.694066 839.922486,643.480734 838.34,648.01 C837.09,651.59 835.72,655.41 836.7,659.08 C834.285542,661.608958 832.795137,664.87869 832.47,668.36 C832.440851,669.251533 832.330393,670.138546 832.14,671.01 C831.835987,671.903419 831.437039,672.761659 830.95,673.57 C828.937492,677.236669 827.991797,681.393569 828.22,685.57 C825.22,689.63 823.73,694.66 822.84,699.65 C821.95,704.64 821.55,709.72 820.41,714.65 C818.9,721.18 816.15,727.77 815.6,734.44 C812.36,736.52 810.97,740.53 810.34,744.32 C809.71,748.11 809.62,752.08 808.04,755.59 C807.22,757.41 806.04,759.04 805.26,760.89 C804.706377,762.369522 804.301055,763.900367 804.05,765.46 C803.57,767.91 803.15,770.62 803.75,772.96 C802.902719,773.862224 801.912847,774.618986 800.82,775.2 C800.97,774.58 801.11,773.95 801.21,773.32 C798.63,775.67 793.96,774.85 791.89,777.66 C790.615268,779.545572 791.056659,782.101228 792.89,783.45 C793.538644,783.841809 794.238704,784.141354 794.97,784.34 C799.92,785.93 805.11,787.55 810.24,786.7 C810.848014,786.629521 811.436018,786.439184 811.97,786.14 C812.643362,785.652933 813.194489,785.016228 813.58,784.28 L815.89,780.62 C817.731591,781.173024 819.605031,781.613834 821.5,781.94 C821.686667,783.533333 821.816667,785.133333 821.89,786.74 C822.89,786.94 824.23,786.99 824.7,786.07 C824.845248,785.71896 824.906871,785.338951 824.88,784.96 C824.88,784.24 824.97,783.3 825.04,782.34 L825.24,782.34 C828.291794,782.460017 831.327547,781.842576 834.09,780.54 C833.01,771.69 836.54,763.03 839.61,754.65 C842.84,745.83 845.61,736.84 848.39,727.86 C850.39,721.55 852.61,715.42 854.56,709.1 C857.04,701.1 859.516667,693.1 861.99,685.1 C863.08,681.58 864.16,678.1 865.41,674.6 C868.019175,667.515577 871.113162,660.61926 874.67,653.96 C875.67,652.08 876.67,650.21 877.5,648.24 C878.5,645.85 879.21,643.35 880,640.89 C881.74918,635.819343 883.850978,630.877277 886.29,626.1 L886.47,625.73 C887.28,629.04 888.1,632.41 888.63,635.73 C889.365954,639.81262 889.423392,643.988683 888.8,648.09 C888.32,650.88 887.41,653.64 887.53,656.46 C887.68,660.38 889.76,663.92 890.79,667.7 C891.452379,670.521836 891.830929,673.402834 891.92,676.3 C892.19,680.79 894.64,685.84 892.92,690.01 C887.58,703.22 890.17,718.14 887.11,732.01 C885.55,739.13 880.74,745.83 881.11,753.11 C881.376667,758.276667 881.83,763.43 882.47,768.57 C882.582142,770.139284 882.950341,771.67964 883.56,773.13 C883.968749,773.901728 884.426346,774.646576 884.93,775.36 C884.5,775.54 884.12,775.99 883.81,776.94 C882.868937,779.506611 883.781752,782.384857 886.03,783.94 C886.931017,784.423674 887.903121,784.76121 888.91,784.94 C890.270807,785.320925 891.676888,785.516027 893.09,785.52 C893.530513,785.498483 893.968587,785.441634 894.4,785.35 C895.947949,786.002343 897.530294,786.569851 899.14,787.05 C899.14,787.463333 899.18,787.873333 899.26,788.28 C899.260053,788.716692 899.454259,789.130755 899.79,789.41 C900.036693,789.535893 900.314457,789.587973 900.59,789.56 L906.02,789.56 C906.02,789.11 906.02,788.65 906.02,788.2 C907.278621,788.333471 908.534227,787.922215 909.47,787.07 C909.956529,786.465099 910.298551,785.757114 910.47,785 C911.95,779.973333 913.423333,774.95 914.89,769.93 C915.564118,767.807326 916.082166,765.638212 916.44,763.44 C917.07015,759.903755 917.268269,756.30404 917.03,752.72 C915.11,734.29 919.35,715.8 917.97,697.32 C917.134469,686.215948 917.705661,675.050815 919.67,664.09 C920.12,661.61 920.67,659.09 920.87,656.62 C921.3,651.96 920.77,647.25 921.09,642.62 C921.21,641 921.43,639.39 921.63,637.78 C923.064113,627.788148 923.845768,617.713481 923.97,607.62 C923.948152,604.278071 923.744518,600.939806 923.36,597.62 C924.395321,597.343999 925.335743,596.79081 926.08,596.02 C926.98,594.85 926.75,593.23 926.74,591.75 C926.74,588.21 928.23,584.86 929.42,581.52 C930.956795,576.931697 932.222314,572.256954 933.21,567.52 C934.241838,563.685423 934.805937,559.740088 934.89,555.77 C934.89,555.37 934.89,554.97 934.83,554.56 C935.205475,554.300255 935.516712,553.958236 935.74,553.56 C936.004454,552.975263 936.166801,552.34955 936.22,551.71 C936.59,549.15 936.95,546.6 937.32,544.04 C937.58,542.206667 937.843333,540.373333 938.11,538.54 C939.17,531.153333 940.226667,523.76 941.28,516.36 C941.56,514.43 941.83,512.51 942.11,510.58 L942.93,504.85 C943.03,504.17 943.12,503.49 943.2,502.8 C945.68,498.85 943.34,493.4 943.09,488.76 Z M916.6,571.84 C915.41,569.05 914.31,566.18 914.6,563.15 L914.5,563.15 C914.754949,562.219089 914.705899,561.231082 914.36,560.33 C914.05,559.59 913.52,558.97 913.19,558.25 C912.834404,557.355769 912.651183,556.402339 912.65,555.44 C912.403351,549.361751 912.880028,543.275728 914.07,537.31 C914.2,536.6 914.34,535.9 914.48,535.19 C914.894338,534.948538 915.274396,534.652563 915.61,534.31 C916.135087,533.7097 916.569674,533.035921 916.9,532.31 C918.026667,530.043333 919.066667,527.733333 920.02,525.38 C920.33,524.61 920.78,523.74 921.55,523.55 C921.39,529.4 921.99,535.37 919.55,540.65 C919.095872,541.500534 918.759459,542.408848 918.55,543.35 C918.33,544.83 918.95,546.35 918.73,547.83 C918.62,548.59 918.29,549.31 918.15,550.06 C917.953724,550.821325 918.178647,551.629525 918.74,552.18 C918.867241,552.27796 919.008931,552.355552 919.16,552.41 C919.1,552.81 919.05,553.22 919.02,553.61 C918.93,554.43 918.9,555.2 918.85,555.68 C918.616761,558.122668 918.523275,560.576667 918.57,563.03 C918.57,565.68 918.68,568.34 918.63,571.03 C918.671142,571.805367 918.541417,572.580304 918.25,573.3 C918.052509,573.672301 917.79583,574.010036 917.49,574.3 C917.21,573.41 916.89,572.62 916.6,571.84 Z" id="Shape" fill="url(#linearGradient-1)" fill-rule="nonzero"></path>
                <polygon id="Path" fill="#33313F" fill-rule="nonzero" points="841.01 426.14 844.37 423.01 841.37 422.9 839.8 425.3"></polygon>
                <polygon id="Path" fill="#65617D" fill-rule="nonzero" points="816.84 448.06 820.4 443.49 821.19 442.67 832.09 431.26 835.8 427.37 837.54 427.17 840.04 424.68 841.51 425.97 839.08 428.81 839.13 430.3 835.33 434.42 824.63 446.03 823.94 446.77 819.64 450.75"></polygon>
                <polygon id="Path" fill="#33313F" fill-rule="nonzero" points="821.19 442.67 832.09 431.26 835.33 434.42 824.63 446.03"></polygon>
                <ellipse id="Oval" fill="#FBBEBE" fill-rule="nonzero" transform="translate(834.417633, 440.166855) rotate(-11.580000) translate(-834.417633, -440.166855) " cx="834.417633" cy="440.166855" rx="5.64" ry="15.97"></ellipse>
                <path d="M884.22,777.24 C883.307762,779.787019 884.212929,782.62949 886.43,784.18 C887.332154,784.661078 888.303837,784.998468 889.31,785.18 C890.664003,785.560825 892.063466,785.755943 893.47,785.76 C895.21,785.67 896.87,785 898.59,784.76 C898.791053,784.716767 899.000981,784.74879 899.18,784.85 C899.353741,785.035382 899.437764,785.28745 899.41,785.54 C899.428203,786.526669 899.501651,787.511545 899.63,788.49 C899.579269,788.849166 899.704042,789.210852 899.965435,789.462344 C900.226827,789.713835 900.59306,789.824555 900.95,789.76 L906.36,789.76 C906.486953,784.996998 905.958677,780.239145 904.79,775.62 C904.716636,775.2657 904.581219,774.927158 904.39,774.62 C903.937934,774.111827 903.335279,773.761446 902.67,773.62 C901.341265,773.068878 899.90677,772.819549 898.47,772.89 C896.73,773.11 895.26,774.25 893.77,775.19 C892.28,776.13 890.25,776.96 888.44,776.47 C886.63,775.98 885.14,774.46 884.22,777.24 Z" id="Path" fill="#3F3D56" fill-rule="nonzero"></path>
                <path d="M804.6,772.85 C803.079835,774.478824 801.214177,775.746515 799.14,776.56 L798.21,777.01 C798.080246,777.049222 797.971978,777.139446 797.91,777.26 C797.8716,777.41592 797.904584,777.580843 798,777.71 C799.57736,780.137412 802.571676,781.226625 805.34,780.38 C805.938427,780.230985 806.493387,779.943228 806.96,779.54 C807.719013,778.630003 808.155074,777.494135 808.2,776.31 C808.492095,775.093145 808.440161,773.819046 808.05,772.63 C806.69,769.49 806.18,770.91 804.6,772.85 Z" id="Path" fill="#FBBEBE" fill-rule="nonzero"></path>
                <path d="M825.42,785.17 C825.451934,785.549163 825.390118,785.930359 825.24,786.28 C824.78,787.2 823.46,787.14 822.44,786.95 C822.289436,783.554009 821.8816,780.174323 821.22,776.84 C819.28,776.75 817.87,778.6 816.84,780.24 L814.16,784.5 C813.771144,785.231175 813.220486,785.863919 812.55,786.35 C812.018851,786.647457 811.434463,786.837722 810.83,786.91 C805.71,787.75 800.54,786.14 795.6,784.55 C794.873143,784.352307 794.176703,784.056236 793.53,783.67 C791.693218,782.327817 791.250907,779.771262 792.53,777.89 C794.59,775.09 799.25,775.89 801.82,773.57 C801.555402,775.203409 801.112764,776.802939 800.5,778.34 C803.96,777.82 806.27,774.66 809.06,772.55 C809.752868,771.946986 810.595998,771.542698 811.5,771.38 C812.174562,771.327387 812.853004,771.402016 813.5,771.6 C816.706372,772.40522 819.705629,773.880991 822.3,775.93 C823.35,776.76 824.99,777.93 825.45,779.21 C825.94,780.74 825.41,783.54 825.42,785.17 Z" id="Path" fill="#3F3D56" fill-rule="nonzero"></path>
                <circle id="Oval" fill="#FBBEBE" fill-rule="nonzero" cx="894.21" cy="434.56" r="20.66"></circle>
                <path d="M934.91,556.55 C934.826641,560.506994 934.262502,564.439177 933.23,568.26 C932.256138,572.998264 930.997182,577.67343 929.46,582.26 C928.27,585.59 926.77,588.93 926.78,592.46 C926.78,593.93 927.02,595.55 926.13,596.72 C925.322017,597.530986 924.309527,598.108071 923.2,598.39 C922.083703,598.68678 921.174521,599.495766 920.75,600.57 C919.806218,599.172269 919.100028,597.628113 918.66,596 C916.873333,590.506667 915.206667,584.983333 913.66,579.43 C913.370947,578.782673 913.419581,578.034462 913.79,577.43 C914.045017,577.205756 914.345068,577.038682 914.67,576.94 C915.692158,576.517965 916.627784,575.911164 917.43,575.15 C917.810373,574.817628 918.125718,574.417512 918.36,573.97 C918.651417,573.250304 918.781142,572.475367 918.74,571.7 C918.74,569.06 918.74,566.41 918.68,563.77 C918.634753,561.323557 918.72489,558.876484 918.95,556.44 C918.95,555.95 919.04,555.19 919.12,554.37 C919.27,552.79 919.57,550.98 920.43,550.37 C921.69,549.51 925.49,550.66 926.94,550.85 C929.42,551.2 931.89,551.6 934.35,552.07 C934.702339,553.537925 934.890163,555.040512 934.91,556.55 Z" id="Path" fill="#3F3D56" fill-rule="nonzero"></path>
                <path d="M851.48,457.7 C850.68,459.3 848.76,460.06 847.28,461.08 L842.21,464.56 C841.52564,465.170198 840.624923,465.480044 839.71,465.42 C838.876492,465.112203 838.202321,464.481294 837.84,463.67 L837.78,463.58 L836.78,461.83 L831.78,453.45 C831.226944,452.694297 830.903996,451.794902 830.85,450.86 C830.85,450.44 831,450.03 831.05,449.61 C831.055163,448.403427 830.707581,447.221649 830.05,446.21 C829.65,445.45 828.84,444.84 828.87,444 C828.826761,442.892637 829.017581,441.788607 829.43,440.76 C829.95384,439.813075 830.702484,439.009484 831.61,438.42 C832.08,438.08 832.61,437.76 833.06,437.42 C833.32947,437.241722 833.626928,437.109893 833.94,437.03 C834.76,436.86 835.58,437.54 836.42,437.57 C840.04,439.99 841.42,444.57 844.27,447.88 C845.87,449.75 846.03,451.19 847.84,452.88 C848.133886,453.138894 848.411106,453.416114 848.67,453.71 C849.036385,454.095594 849.343104,454.533764 849.58,455.01 C849.9,455.86 851.9,456.88 851.48,457.7 Z" id="Path" fill="#3F3D56" fill-rule="nonzero"></path>
                <path d="M886.94,455.28 C888.43,458.43 889.59,461.89 889.16,465.35 C889.074027,466.286308 888.780222,467.191637 888.3,468 C886.86,470.21 883.84,470.6 881.2,470.74 C880.084168,470.649833 878.978655,471.009935 878.13,471.74 C877.400106,472.78827 877.478482,474.199031 878.32,475.16 C879.158887,476.069489 880.210285,476.756677 881.38,477.16 C885.54,479 890.02,480.51 894.55,480.08 C896.65,479.88 898.69,479.28 900.78,478.97 C903.045283,478.729469 905.321995,478.612629 907.6,478.62 C910.32,478.52 913.03,478.25 915.74,477.98 L922.91,477.27 C923.302746,477.277531 923.684215,477.138491 923.98,476.88 C924.52,476.26 923.83,475.35 923.18,474.88 C919.36,472.05 914.51,470.12 912.35,465.88 C911.35,463.88 911.03,461.51 910.29,459.34 C909.55,457.17 908.37,455.24 907.92,453.03 C907.674445,451.103417 907.564175,449.161997 907.59,447.22 C907.622097,445.257207 906.907187,443.355544 905.59,441.9 C904.17,440.57 902.1,440.23 900.15,440.14 C895.37,439.94 890.29,441.08 886.89,444.45 C885.98,445.36 885.21,446.4 884.26,447.27 C883.31,448.14 882.05,448.33 882.67,449.41 C883.29,450.49 884.5,451.15 885.16,452.11 C885.83832,453.116646 886.433617,454.17681 886.94,455.28 L886.94,455.28 Z" id="Path" fill="#FBBEBE" fill-rule="nonzero"></path>
                <path d="M927.68,484.32 C926.425098,492.017289 924.387876,499.566403 921.6,506.85 C920.183886,510.139096 918.98139,513.516106 918,516.96 C917.22,520.06 917.38,523.38 916.66,526.49 C915.78,530.35 914.9,534.24 914.19,538.14 C912.999661,544.088795 912.522962,550.158314 912.77,556.22 C912.772202,557.178998 912.955409,558.128962 913.31,559.02 C913.64,559.74 914.18,560.36 914.48,561.09 C914.960676,562.401383 914.86255,563.85511 914.21,565.09 C913.695794,566.237145 913.000225,567.294005 912.15,568.22 C902.82,571 892.86,570.08 883.15,570.67 C874.15,571.22 865.15,573.06 856.33,571.52 C855.33,567.52 856.99,563.34 858.43,559.44 C862.57,548.11 867.17,536.31 866.43,524.44 C866.349051,523.058606 866.188787,521.683005 865.95,520.32 C864.51,511.91 866.08,503.2 868.61,495.04 C870.19,489.97 870.12,484.55 869.75,479.26 C869.57182,477.545589 869.548392,475.818614 869.68,474.1 C869.831939,472.343358 870.484388,470.667118 871.56,469.27 L871.71,469.06 C871.82,468.89 872.15,468.99 872.45,469.06 L872.45,469.06 C872.61,469.126667 872.79,469.126667 872.95,469.06 C872.979147,469.026545 873.017349,469.002234 873.06,468.99 C873.149137,468.936041 873.260863,468.936041 873.35,468.99 C873.58,469.14 873.7,469.61 874.2,469.7 C874.938638,469.81495 875.683139,469.888399 876.43,469.92 C877.328148,469.946091 878.220473,470.073566 879.09,470.3 L879.21,470.3 C880.510625,470.515039 881.844372,470.401602 883.09,469.97 C883.91815,469.762381 884.717522,469.45338 885.47,469.05 C886.083538,468.802684 886.711327,468.592308 887.35,468.42 C888.27,467.86 888.07,465.28 888.26,464.23 C888.361717,463.16735 888.610771,462.124017 889,461.13 C889.92236,459.638398 891.527444,458.704599 893.28,458.64 C895.005511,458.589001 896.730965,458.743419 898.42,459.1 C902.14,459.63 905.96,459.53 909.63,460.39 C911.47,460.82 913.47,461.48 915.17,460.64 C915.62,460.74 915.69,461.15 915.69,461.64 C915.655661,462.106765 915.561559,462.567193 915.41,463.01 C914.78,465.77 916.95,468.3 918.94,470.31 C919.802856,471.254176 920.816677,472.048335 921.94,472.66 C922.94,473.12 923.94,473.31 924.94,473.81 C925.754036,474.236307 926.443248,474.866936 926.94,475.64 C927.522291,476.518063 927.91091,477.510065 928.08,478.55 C928.270828,480.482161 928.135612,482.432653 927.68,484.32 L927.68,484.32 Z" id="Path" fill="#3F3D56" fill-rule="nonzero"></path>
                <path d="M927.68,484.32 C926.425098,492.017289 924.387876,499.566403 921.6,506.85 C920.183886,510.139096 918.98139,513.516106 918,516.96 C917.22,520.06 917.38,523.38 916.66,526.49 C915.78,530.35 914.9,534.24 914.19,538.14 C913.98,538.26 913.77,538.36 913.55,538.46 C912.305678,539.055906 910.987365,539.483013 909.63,539.73 C907.188536,540.019905 904.717271,539.93899 902.3,539.49 L888,537.62 C882.3,536.86 876.23,535.93 872,532.07 C869.66,529.95 868.11,527.15 866.43,524.44 C866.349051,523.058606 866.188787,521.683005 865.95,520.32 C864.51,511.91 866.08,503.2 868.61,495.04 C870.19,489.97 870.12,484.55 869.75,479.26 C869.57182,477.545589 869.548392,475.818614 869.68,474.1 C869.831939,472.343358 870.484388,470.667118 871.56,469.27 C871.852189,469.182223 872.149392,469.112096 872.45,469.06 L872.45,469.06 C872.651364,469.021886 872.855237,468.99849 873.06,468.99 L873.35,468.99 C873.68685,468.991236 874.022421,469.031504 874.35,469.11 C875.02,469.28 875.64,469.64 876.3,469.88 L876.42,469.88 C877.278639,470.156866 878.178184,470.285373 879.08,470.26 C880.4,470.26 881.76,470.04 883.08,469.96 C884.70949,469.700773 886.378823,469.996604 887.82,470.8 C888.751777,471.548296 889.633656,472.356686 890.46,473.22 C891.468941,473.998733 892.596714,474.609892 893.8,475.03 C902.404966,478.31722 911.95369,478.112682 920.41,474.46 C921.225805,474.006286 922.146632,473.775217 923.08,473.79 C923.772163,473.924493 924.42917,474.200232 925.01,474.6 C925.6,474.95 926.2,475.29 926.8,475.6 C927.382291,476.478063 927.77091,477.470065 927.94,478.51 C928.181238,480.447485 928.093333,482.411807 927.68,484.32 L927.68,484.32 Z" id="Path" fill="#000000" fill-rule="nonzero" opacity="0.1"></path>
                <path d="M936.38,477.7 C932.398769,476.490151 928.575322,474.811729 924.99,472.7 C924.410984,472.294897 923.753534,472.015566 923.06,471.88 C922.125219,471.863947 921.203224,472.098762 920.39,472.56 C911.931233,476.204173 902.384591,476.40508 893.78,473.12 C892.574987,472.703807 891.446604,472.092318 890.44,471.31 C889.614715,470.449218 888.736329,469.640969 887.81,468.89 C884.52,466.76 879.97,469.27 876.28,467.89 C875.643739,467.599819 874.992866,467.342807 874.33,467.12 C871.42,466.4 868.46,469.29 865.59,468.42 C864.522113,471.310267 863.738409,474.297717 863.25,477.34 C862.842992,480.832309 862.626005,484.34415 862.6,487.86 C862.54,489.96 862.49,492.07 862.6,494.18 C863.314797,494.304411 863.947323,494.716457 864.35,495.32 C864.612376,496.023403 864.550141,496.806844 864.18,497.46 C862.09,502.84 859.98,508.26 856.8,513.08 C859.039771,514.402866 861.114329,515.987318 862.98,517.8 C866.49,521.5 868.2,526.68 871.98,530.1 C876.24,533.96 882.32,534.89 887.98,535.66 L902.26,537.62 C904.677271,538.06899 907.148536,538.149905 909.59,537.86 C910.947365,537.613013 912.265678,537.185906 913.51,536.59 C914.320598,536.251065 915.060144,535.762558 915.69,535.15 C916.214631,534.549356 916.649173,533.875647 916.98,533.15 C918.1,530.89 919.14,528.58 920.08,526.24 C920.42,525.41 920.92,524.43 921.82,524.37 C927.11,519.59 932.12,514.69 937.41,509.91 C939.540156,508.14514 941.450518,506.130699 943.1,503.91 C945.74,500.02 943.34,494.5 943.1,489.81 C943.078694,488.60458 942.931223,487.404704 942.66,486.23 C941.73,482.8 939.71,478.72 936.38,477.7 Z" id="Path" fill="#254095" fill-rule="nonzero"></path>
                <path d="M851.48,457.7 C850.68,459.3 848.76,460.06 847.28,461.08 L842.21,464.56 C841.52564,465.170198 840.624923,465.480044 839.71,465.42 C838.876492,465.112203 838.202321,464.481294 837.84,463.67 C837.84,463.43 837.84,463.19 837.84,462.95 C837.800131,462.140489 837.90858,461.33051 838.16,460.56 C838.659636,459.431098 839.428821,458.442146 840.4,457.68 C842.279075,455.892595 844.519376,454.528636 846.97,453.68 C847.35405,453.52712 847.773403,453.485532 848.18,453.56 C848.332319,453.600651 848.477387,453.664751 848.61,453.75 C848.976385,454.135594 849.283104,454.573764 849.52,455.05 C849.9,455.86 851.9,456.88 851.48,457.7 Z" id="Path" fill="#000000" fill-rule="nonzero" opacity="0.1"></path>
                <path d="M863.42,468.27 C861.72,468.19 860.33,466.95 859.1,465.78 L855.3,462.2 C855.04692,461.984957 854.824814,461.735929 854.64,461.46 C854.440117,461.073511 854.288962,460.663714 854.19,460.24 C853.37923,458.223909 852.120874,456.418443 850.51,454.96 C850.219889,454.603767 849.840243,454.331113 849.41,454.17 C849.002485,454.098148 848.582952,454.143222 848.2,454.3 C845.749376,455.148636 843.509075,456.512595 841.63,458.3 C840.654361,459.057694 839.884223,460.047871 839.39,461.18 C839.13858,461.95051 839.030131,462.760489 839.07,463.57 C839.090848,466.226458 839.68792,468.846753 840.82,471.25 C841,471.62 841.18,471.99 841.38,472.35 C842.723618,474.545834 844.299332,476.59091 846.08,478.45 L848.46,481.12 C850.8,483.73 853.14,486.35 855.69,488.77 C856.596801,489.740892 857.697155,490.510799 858.92,491.03 C860.176132,491.541645 861.613055,491.306021 862.64,490.42 C863.122617,489.867975 863.483763,489.220637 863.7,488.52 C865.25,484.52 866.7,480.37 866.79,476.06 C866.820087,474.334055 866.749969,472.607819 866.58,470.89 C866.41,469.06 865.13,468.35 863.42,468.27 Z" id="Path" fill="#254095" fill-rule="nonzero"></path>
                <path d="M924.02,608.27 C923.965303,618.329012 923.253789,628.373717 921.89,638.34 C921.69,639.94 921.47,641.55 921.36,643.17 C921.03,647.83 921.56,652.53 921.13,657.17 C920.89,659.67 920.38,662.17 919.93,664.62 C917.973933,675.551489 917.406108,686.686235 918.24,697.76 C919.61,716.19 915.39,734.63 917.3,753.01 C917.536685,756.583695 917.341949,760.172891 916.72,763.7 C916.358512,765.890916 915.840519,768.053118 915.17,770.17 C913.696667,775.183333 912.23,780.183333 910.77,785.17 C910.593685,785.925404 910.252165,786.63235 909.77,787.24 C908.741617,788.139575 907.37328,788.548252 906.02,788.36 C900.25,788.17 894.83,785.69 889.59,783.25 C888.984235,783.018816 888.425248,782.680036 887.94,782.25 C886.85,781.12 886.94,779.33 886.46,777.85 C885.98,776.37 884.67,774.96 883.93,773.42 C883.330821,771.973195 882.96299,770.441132 882.84,768.88 C882.173333,763.753333 881.72,758.613333 881.48,753.46 C881.11,746.2 885.9,739.52 887.48,732.46 C890.53,718.58 887.95,703.7 893.28,690.52 C894.95,686.37 892.52,681.33 892.28,676.85 C892.199191,673.959372 891.823918,671.084511 891.16,668.27 C890.16,664.5 888.06,660.97 887.91,657.07 C887.79,654.25 888.7,651.5 889.18,648.71 C889.793919,644.62143 889.736498,640.460074 889.01,636.39 C888.48,633.03 887.66,629.67 886.85,626.39 L886.67,626.76 C884.233518,631.522065 882.138249,636.451127 880.4,641.51 C879.61,643.96 878.9,646.45 877.9,648.84 C877.08,650.84 876.08,652.66 875.09,654.54 C871.537638,661.177994 868.450221,668.054514 865.85,675.12 C864.61,678.58 863.53,682.12 862.44,685.59 C859.98,693.59 857.513333,701.59 855.04,709.59 C853.09,715.9 850.84,722 848.89,728.3 C846.12,737.3 843.35,746.22 840.13,755.01 C837.07,763.37 833.55,772.01 834.62,780.84 C831.865778,782.134405 828.840926,782.748292 825.8,782.63 C820.645703,782.169706 815.589522,780.939369 810.8,778.98 C808.833829,778.430434 807.049396,777.367368 805.63,775.9 C803.4,773.19 803.96,769.22 804.63,765.78 C804.879813,764.223358 805.285176,762.695707 805.84,761.22 C806.59,759.37 807.79,757.74 808.61,755.93 C810.19,752.43 810.29,748.48 810.91,744.69 C811.53,740.9 812.91,736.91 816.15,734.84 C816.69,728.19 819.44,721.61 820.95,715.11 C822.09,710.18 822.47,705.11 823.36,700.11 C824.25,695.11 825.72,690.11 828.74,686.11 C828.500303,681.935025 829.439374,677.776777 831.45,674.11 C831.938821,673.306127 832.33788,672.451001 832.64,671.56 C832.831008,670.69203 832.941476,669.80828 832.97,668.92 C833.294759,665.44844 834.77757,662.18696 837.18,659.66 C836.18,656 837.58,652.2 838.82,648.66 C840.402523,644.144768 841.115093,639.370548 840.92,634.59 C840.768049,633.254683 840.835608,631.9035 841.12,630.59 C841.4,629.59 841.95,628.74 842.26,627.77 C842.555862,626.596166 842.706985,625.390542 842.71,624.18 C843.11,618.78 845.29,613.68 847.71,608.85 C849.14,606.03 847.92,602.2 848.23,599.05 C848.75,593.83 849.32,588.44 851.9,583.88 C852.42509,583.051188 852.902531,582.193131 853.33,581.31 C853.855826,580.04075 854.137419,578.683674 854.16,577.31 C854.25,575.03 854.57,573.12 853.75,571 C859.1,566.54 866.41,565.3 873.36,565.05 C880.31,564.8 887.36,565.38 894.17,563.89 C896.17,563.45 898.17,562.82 900.28,562.52 C905.08,561.82 909.93,562.92 914.66,564 C914.33,567 915.43,569.88 916.61,572.67 C921.396712,583.934022 923.914764,596.031547 924.02,608.27 L924.02,608.27 Z" id="Path" fill="#33313F" fill-rule="nonzero"></path>
                <path d="M900.47,610.53 L888.99,636.37 C888.46,633.01 887.64,629.65 886.83,626.37 L886.65,626.74 L886.7,626.2 L892.96,612.42 L900.47,610.53 Z" id="Path" fill="#000000" fill-rule="nonzero" opacity="0.1"></path>
                <path d="M934.91,556.55 C934.241743,557.035968 933.453297,557.329906 932.63,557.4 C931.360316,557.440121 930.092854,557.267747 928.88,556.89 L919.93,554.62 C919.646838,554.558407 919.371697,554.464456 919.11,554.34 C919.26,552.76 919.56,550.95 920.42,550.34 C921.68,549.48 925.48,550.63 926.93,550.82 C929.41,551.17 931.88,551.57 934.34,552.04 C934.697924,553.517312 934.889118,555.030091 934.91,556.55 Z" id="Path" fill="#000000" fill-rule="nonzero" opacity="0.1"></path>
                <path d="M942.51,497.05 C942.71,497.88 942.98,498.7 943.13,499.54 C943.398185,501.597251 943.33064,503.684394 942.93,505.72 L942.11,511.44 L941.29,517.2 L938.12,539.33 L937.33,544.81 L936.24,552.46 C936.181957,553.095501 936.019793,553.71713 935.76,554.3 C935.088664,555.403063 933.910221,556.097368 932.62,556.15 C931.353635,556.189379 930.089584,556.017009 928.88,555.64 L919.93,553.38 C919.539099,553.308203 919.167704,553.154875 918.84,552.93 C918.278516,552.383756 918.053281,551.578253 918.25,550.82 C918.38,550.06 918.71,549.35 918.83,548.59 C919.05,547.11 918.42,545.59 918.65,544.12 C918.856661,543.178025 919.193212,542.269336 919.65,541.42 C922.65,534.79 920.91,527.06 921.93,519.86 C922.814401,514.198909 925.173443,508.87037 928.77,504.41 C931.000604,501.600827 933.570111,499.078344 936.42,496.9 C937.55,496.03 939.33,494.23 940.73,493.9 C942.6,493.52 942.22,495.79 942.51,497.05 Z" id="Path" fill="#254095" fill-rule="nonzero"></path>
                <path d="M874.41,410.91 C873.75,413 874.78,415.31 874.31,417.46 C873.79,419.82 871.58,421.46 870.95,423.83 C869.95,427.44 873.01,430.73 875.24,433.73 C883.54,444.86 882.45,460.28 879.61,473.88 C877.329558,484.784419 874.169215,495.486109 870.16,505.88 C868.92,509.1 867.53,512.39 865.08,514.81 C869.68,513.49 874.56,512.16 879.18,513.44 C885.02,515.06 890.06,520.73 895.97,519.44 C899.54,518.64 902.03,515.44 905.24,513.74 C911.24,510.51 918.46,512.54 925.16,513.57 C926.600686,513.919718 928.111949,513.843286 929.51,513.35 C930.577783,512.77575 931.485241,511.943913 932.15,510.93 C935.131507,507.098065 936.916019,502.471552 937.28,497.63 C937.607978,492.750847 935.818954,487.966758 932.37,484.5 C930.96,483.16 929.26,482.08 928.17,480.5 C927.103145,478.657534 926.534485,476.569002 926.52,474.44 C925.72,463.44 928.4,452.22 925.65,441.58 C924.65,437.79 923.01,434.16 922.57,430.27 C922.02,425.45 923.34,420.27 921.42,415.85 C919.9,412.35 916.57,409.85 912.99,408.58 C909.351195,407.407391 905.569951,406.734571 901.75,406.58 C896.27,406.1 876.7,403.76 874.41,410.91 Z" id="Path" fill="#33313F" fill-rule="nonzero"></path>
                <g id="Group" opacity="0.1" transform="translate(865.000000, 408.000000)" fill="#000000" fill-rule="nonzero">
                    <path d="M14.6,65.88 C12.3261467,76.7381612 9.18267914,87.3958539 5.2,97.75 C5.89,96.38 6.48,94.94 7.03,93.51 C11.0387168,83.1159398 14.1990476,72.4142906 16.48,61.51 C19.32,47.92 20.41,32.51 12.11,21.36 C10.11,18.71 7.54,15.83 7.64,12.7 C6.89688518,13.6447418 6.32183256,14.7102805 5.94,15.85 C4.94,19.46 8,22.75 10.23,25.75 C18.54,36.86 17.45,52.28 14.6,65.88 Z" id="Path"></path>
                    <path d="M9.43,8.44 C10.226774,7.43955128 10.8242366,6.29554621 11.19,5.07 C11.3444901,3.58445478 11.3041484,2.08508858 11.07,0.61 C10.2985011,1.19281465 9.72011807,1.99418876 9.41,2.91 C8.85,4.68 9.5,6.62 9.43,8.44 Z" id="Path"></path>
                    <path d="M69.03,98.52 C68.3617823,99.5371683 67.4511288,100.37222 66.38,100.95 C64.9854661,101.443602 63.4772999,101.520053 62.04,101.17 C55.34,100.17 48.04,98.1 42.12,101.34 C38.91,103.08 36.41,106.24 32.85,107.03 C26.93,108.35 21.85,102.69 16.05,101.03 C11.92,99.88 7.56,100.83 3.38,102.03 C2.55507672,103.799672 1.43965455,105.418724 0.08,106.82 C4.68,105.5 9.56,104.17 14.18,105.45 C20.02,107.07 25.06,112.74 30.97,111.45 C34.53,110.65 37.03,107.45 40.24,105.75 C46.24,102.52 53.46,104.55 60.16,105.58 C61.6006856,105.929718 63.111949,105.853286 64.51,105.36 C65.5777833,104.78575 66.4852412,103.953913 67.15,102.94 C68.9527562,100.543487 70.3512317,97.8681428 71.29,95.02 C70.6203822,96.2386429 69.8651531,97.4082455 69.03,98.52 L69.03,98.52 Z" id="Path"></path>
                </g>
                <path d="M991.89,677.54 C991.89,677.54 997.82,685.3 989.16,697.01 C980.5,708.72 973.34,718.62 976.23,725.9 C976.23,725.9 989.31,704.15 999.95,703.9 C1010.59,703.65 1003.6,690.62 991.89,677.54 Z" id="Path" fill="#254095" fill-rule="nonzero"></path>
                <path d="M991.89,677.54 C992.409524,678.290352 992.817125,679.112293 993.1,679.98 C1003.49,692.18 1009.02,703.56 999.04,703.85 C989.74,704.12 978.59,720.74 975.91,724.94 C976,725.27 976.11,725.58 976.23,725.94 C976.23,725.94 989.31,704.19 999.95,703.94 C1010.59,703.69 1003.6,690.62 991.89,677.54 Z" id="Path" fill="#000000" fill-rule="nonzero" opacity="0.1"></path>
                <path d="M1002.92,687.43 C1002.92,690.16 1002.61,692.37 1002.23,692.37 C1001.85,692.37 1001.55,690.16 1001.55,687.43 C1001.55,684.7 1001.93,685.98 1002.31,685.98 C1002.69,685.98 1002.92,684.7 1002.92,687.43 Z" id="Path" fill="#FFD037" fill-rule="nonzero"></path>
                <path d="M1006.7,690.69 C1004.3,691.99 1002.21,692.78 1002.03,692.45 C1001.85,692.12 1003.65,690.79 1006.03,689.45 C1008.41,688.11 1007.49,689.1 1007.67,689.45 C1007.85,689.8 1009.1,689.38 1006.7,690.69 Z" id="Path" fill="#FFD037" fill-rule="nonzero"></path>
                <path d="M960.6,677.54 C960.6,677.54 954.67,685.3 963.34,697.01 C972.01,708.72 979.15,718.6 976.26,725.9 C976.26,725.9 963.18,704.15 952.54,703.9 C941.9,703.65 948.86,690.62 960.6,677.54 Z" id="Path" fill="#254095" fill-rule="nonzero"></path>
                <path d="M960.6,677.54 C960.080476,678.290352 959.672875,679.112293 959.39,679.98 C949,692.18 943.47,703.56 953.45,703.85 C962.75,704.12 973.91,720.74 976.58,724.94 C976.49,725.27 976.38,725.58 976.26,725.94 C976.26,725.94 963.18,704.19 952.54,703.94 C941.9,703.69 948.86,690.62 960.6,677.54 Z" id="Path" fill="#000000" fill-rule="nonzero" opacity="0.1"></path>
                <path d="M949.6,687.43 C949.6,690.16 949.9,692.37 950.28,692.37 C950.66,692.37 950.96,690.16 950.96,687.43 C950.96,684.7 950.58,685.98 950.2,685.98 C949.82,685.98 949.6,684.7 949.6,687.43 Z" id="Path" fill="#FFD037" fill-rule="nonzero"></path>
                <path d="M945.76,690.69 C948.16,691.99 950.25,692.78 950.43,692.45 C950.61,692.12 948.81,690.79 946.43,689.45 C944.05,688.11 944.98,689.1 944.79,689.45 C944.6,689.8 943.37,689.38 945.76,690.69 Z" id="Path" fill="#FFD037" fill-rule="nonzero"></path>
                <path d="M1008.14,715.45 L1007.85,717.87 L1007.43,721.29 L1007.26,722.71 L1006.84,726.14 L1006.66,727.56 L1006.25,730.98 L1001.5,769.88 C1001.08,773.35 995.4,776.06 988.56,776.06 L963.9,776.06 C957.06,776.06 951.39,773.35 950.97,769.88 L946.22,730.98 L945.8,727.56 L945.63,726.14 L945.2,722.71 L945.03,721.29 L944.62,717.87 L944.32,715.45 C944.08,713.45 947.15,711.82 951.02,711.82 L1001.44,711.82 C1005.31,711.82 1008.39,713.48 1008.14,715.45 Z" id="Path" fill="#444053" fill-rule="nonzero"></path>
                <polygon id="Path" fill="#9D9CB5" fill-rule="nonzero" points="1007.85 717.87 1007.43 721.28 945.03 721.28 944.62 717.87"></polygon>
                <polygon id="Path" fill="#9D9CB5" fill-rule="nonzero" points="1007.26 722.71 1006.84 726.13 945.63 726.13 945.21 722.71"></polygon>
                <polygon id="Path" fill="#9D9CB5" fill-rule="nonzero" points="1006.66 727.56 1006.25 730.98 946.22 730.98 945.8 727.56"></polygon>
            </g>
        </g>
    </g>
</svg>