<?xml version="1.0" encoding="UTF-8"?>
<svg width="1054px" height="755px" viewBox="0 0 1054 755" version="1.1" xmlns="http://www.w3.org/2000/svg" xmlns:xlink="http://www.w3.org/1999/xlink">
    <!-- Generator: Sketch 53.2 (72643) - https://sketchapp.com -->
    <title>undraw_conference_uo36</title>
    <desc>Created with Sketch.</desc>
    <defs>
        <linearGradient x1="49.9982345%" y1="100%" x2="49.9982345%" y2="-0.00187364609%" id="linearGradient-1">
            <stop stop-color="#808080" stop-opacity="0.25" offset="0%"></stop>
            <stop stop-color="#808080" stop-opacity="0.12" offset="54%"></stop>
            <stop stop-color="#808080" stop-opacity="0.1" offset="100%"></stop>
        </linearGradient>
        <linearGradient x1="49.8550725%" y1="99.8065764%" x2="49.8550725%" y2="-0.193423598%" id="linearGradient-2">
            <stop stop-color="#808080" stop-opacity="0.25" offset="0%"></stop>
            <stop stop-color="#808080" stop-opacity="0.12" offset="54%"></stop>
            <stop stop-color="#808080" stop-opacity="0.1" offset="100%"></stop>
        </linearGradient>
        <linearGradient x1="50.0304205%" y1="99.9946339%" x2="50.0304205%" y2="0.0142200681%" id="linearGradient-3">
            <stop stop-color="#808080" stop-opacity="0.25" offset="0%"></stop>
            <stop stop-color="#808080" stop-opacity="0.12" offset="54%"></stop>
            <stop stop-color="#808080" stop-opacity="0.1" offset="100%"></stop>
        </linearGradient>
    </defs>
    <g id="Page-1" stroke="none" stroke-width="1" fill="none" fill-rule="evenodd">
        <g id="IllustrationUndraw" transform="translate(-1500.000000, 0.000000)" fill-rule="nonzero">
            <g id="undraw_conference_uo36" transform="translate(1500.000000, 0.000000)">
                <ellipse id="Oval" fill="#254095" opacity="0.1" cx="510" cy="708.44" rx="510" ry="25.5"></ellipse>
                <g id="Group" opacity="0.2" transform="translate(899.000000, 412.000000)">
                    <path d="M16.91,214.93 C16.4827165,215.739449 15.9840734,216.509167 15.42,217.23 C10.4733333,213.736667 5.42666667,210.323333 0.28,206.99 C0.38,206.77 0.49,206.55 0.61,206.33 C1.79592004,204.031723 3.57377027,202.091623 5.76,200.71 C8.59,198.97 11.76,198.58 14.41,199.97 C17.06,201.36 18.51,204.23 18.66,207.53 C18.7487717,210.108765 18.144455,212.664161 16.91,214.93 L16.91,214.93 Z" id="Path" fill="#3F3D56"></path>
                    <ellipse id="Oval" fill="#3F3D56" transform="translate(15.705045, 197.633924) rotate(-62.090000) translate(-15.705045, -197.633924) " cx="15.705045" cy="197.633924" rx="12.07" ry="9.22"></ellipse>
                    <ellipse id="Oval" fill="#3F3D56" transform="translate(22.616267, 184.583852) rotate(-62.090000) translate(-22.616267, -184.583852) " cx="22.6162672" cy="184.583852" rx="12.07" ry="9.22"></ellipse>
                    <ellipse id="Oval" fill="#3F3D56" transform="translate(29.522808, 171.552616) rotate(-62.090000) translate(-29.522808, -171.552616) " cx="29.5228085" cy="171.552616" rx="12.07" ry="9.22"></ellipse>
                    <ellipse id="Oval" fill="#3F3D56" transform="translate(36.434031, 158.502544) rotate(-62.090000) translate(-36.434031, -158.502544) " cx="36.4340306" cy="158.502544" rx="12.07" ry="9.22"></ellipse>
                    <path d="M53.14,52.99 C52.7813695,50.9838984 52.557535,48.9560248 52.47,46.92 L75.76,54.74 L52.5,42.65 C53.1789829,30.4991671 58.8367357,19.165574 68.14,11.32 L90.68,43.9 L73.18,7.65 C87.1952265,-1.09508713 104.918423,-1.29050157 119.123064,7.14343571 C133.327705,15.577373 141.640347,31.2314416 140.671561,47.7227902 C139.702775,64.2141387 129.614435,78.7872398 114.52,85.5 C115.092079,88.6256986 115.320105,91.8046511 115.2,94.98 L79.75,94.7 L114.67,100.45 C113.892121,105.20835 112.345247,109.808444 110.09,114.07 C105.481832,122.835929 98.0511793,129.790936 89,133.81 C93.1216372,156.489647 79.1177971,178.527684 56.8348174,184.428793 C34.5518376,190.329902 11.4760121,178.111519 3.83234518,156.364597 C-3.81132172,134.617674 6.54517205,110.64841 27.62,101.31 C23.9585619,81.2443441 34.5032043,61.2789397 53.14,52.99 L53.14,52.99 Z" id="Path" fill="#254095"></path>
                    <path d="M110.09,114.1 C105.47649,122.854713 98.0464381,129.798587 89,133.81 C93.1216372,156.489647 79.1177971,178.527684 56.8348174,184.428793 C34.5518376,190.329902 11.4760121,178.111519 3.83234518,156.364597 C-3.81132172,134.617674 6.54517205,110.64841 27.62,101.31 C25.86,91.89 112.41,109.71 110.09,114.1 Z" id="Path" fill="#000000" opacity="0.1"></path>
                </g>
                <g id="Group" opacity="0.2" transform="translate(848.000000, 6.000000)">
                    <path d="M40.22,360.3 C39.6901175,361.685158 39.0445019,363.023221 38.29,364.3 C29.6233333,359.673333 20.83,355.173333 11.91,350.8 C12.04,350.43 12.17,350.05 12.31,349.67 C13.7670385,345.760381 16.2382701,342.30894 19.47,339.67 C23.67,336.31 28.72,335.04 33.22,336.75 C37.72,338.46 40.65,342.75 41.56,348.05 C42.209994,352.179856 41.7474507,356.40833 40.22,360.3 Z" id="Path" fill="#3F3D56"></path>
                    <ellipse id="Oval" fill="#3F3D56" transform="translate(36.957400, 338.800800) rotate(-68.838740) translate(-36.957400, -338.800800) " cx="36.9574" cy="338.8008" rx="19.4961634" ry="14.8888859"></ellipse>
                    <ellipse id="Oval" fill="#3F3D56" transform="translate(43.298503, 310.359911) rotate(-69.160000) translate(-43.298503, -310.359911) " cx="43.2985033" cy="310.359911" rx="19.55" ry="14.93"></ellipse>
                    <ellipse id="Oval" fill="#3F3D56" transform="translate(51.793343, 288.031892) rotate(-69.160000) translate(-51.793343, -288.031892) " cx="51.7933427" cy="288.031892" rx="19.55" ry="14.93"></ellipse>
                    <ellipse id="Oval" fill="#3F3D56" transform="translate(60.298182, 265.693873) rotate(-69.160000) translate(-60.298182, -265.693873) " cx="60.2981821" cy="265.693873" rx="19.55" ry="14.93"></ellipse>
                    <path d="M66.18,92.99 C65.1947157,89.8368669 64.4295425,86.6191299 63.89,83.36 L102.89,91.3 L63.12,76.5 C61.7765584,56.8245273 68.6068695,37.4659496 82,22.99 L124.7,70.85 L89.36,16.1 C110.147624,-0.691339133 138.561359,-4.49547711 163.033877,6.23626356 C187.506395,16.9680042 203.956367,40.4458708 205.686955,67.1119439 C207.417542,93.7780171 194.140131,119.185145 171.26,132.99 C172.797734,137.897994 173.80351,142.957047 174.26,148.08 L117.26,154.69 L174.5,156.98 C173.602344,181.139471 160.56007,203.210144 139.83,215.65 C150.945881,251.25484 132.832345,289.424059 98.2212728,303.328773 C63.6102005,317.233488 24.1246176,302.204244 7.51867057,268.804993 C-9.08727645,235.405742 2.7629906,194.85256 34.74,175.65 C24.8986314,144.143086 37.8878411,109.992702 66.18,92.99 Z" id="Path" fill="#254095"></path>
                    <path d="M169.84,179.75 C164.164761,194.746464 153.594365,207.388658 139.84,215.63 C150.955881,251.23484 132.842345,289.404059 98.2312728,303.308773 C63.6202005,317.213488 24.1346176,302.184244 7.52867057,268.784993 C-9.07727645,235.385742 2.7729906,194.83256 34.75,175.63 C30.08,160.85 172.69,172.24 169.84,179.75 Z" id="Path" fill="#000000" opacity="0.1"></path>
                </g>
                <g id="Group" opacity="0.2" transform="translate(47.000000, 0.000000)">
                    <path d="M154.71,440.59 C155.13283,442.300904 155.698137,443.97341 156.4,445.59 C167.32,441.396667 178.36,437.396667 189.52,433.59 C189.42,433.14 189.32,432.66 189.21,432.2 C188.064572,427.35138 185.648428,422.89532 182.21,419.29 C177.75,414.7 171.97,412.46 166.41,413.82 C160.85,415.18 156.75,419.82 154.91,425.93 C153.538086,430.711525 153.469037,435.772828 154.71,440.59 L154.71,440.59 Z" id="Path" fill="#3F3D56"></path>
                    <ellipse id="Oval" fill="#3F3D56" transform="translate(165.261444, 408.741539) rotate(-13.720000) translate(-165.261444, -408.741539) " cx="165.261444" cy="408.741539" rx="17.76" ry="23.25"></ellipse>
                    <ellipse id="Oval" fill="#3F3D56" transform="translate(158.515296, 381.127926) rotate(-13.720000) translate(-158.515296, -381.127926) " cx="158.515296" cy="381.127926" rx="17.76" ry="23.25"></ellipse>
                    <ellipse id="Oval" fill="#3F3D56" transform="translate(151.771520, 353.534029) rotate(-13.720000) translate(-151.771520, -353.534029) " cx="151.77152" cy="353.534029" rx="17.76" ry="23.25"></ellipse>
                    <ellipse id="Oval" fill="#3F3D56" transform="translate(145.047459, 325.937760) rotate(-13.720000) translate(-145.047459, -325.937760) " cx="145.047459" cy="325.93776" rx="17.76" ry="23.25"></ellipse>
                    <path d="M163.49,121.31 C165.118938,117.744216 166.495652,114.068522 167.61,110.31 L120.47,113.93 L169.58,102.33 C174.036593,79.3305807 168.828506,55.5108189 155.18,36.47 L97.73,86.64 L147.51,27.25 C125.514126,4.17803986 92.4644487,-4.65895787 61.888954,4.35619166 C31.3134593,13.3713412 8.34492913,38.7252433 2.38490702,70.0399672 C-3.57511509,101.354691 8.47389405,133.373359 33.6,152.99 C31.0645082,158.556471 29.1366965,164.380139 27.85,170.36 L94.15,186.57 L26.27,180.82 C23.7779789,209.463076 35.9156128,237.428154 58.54,255.17 C40.1483384,295.547141 55.8812523,343.278755 94.6773808,364.806112 C133.473509,386.333469 182.299883,374.424781 206.828076,337.452705 C231.35627,300.480629 223.34641,250.865372 188.43,223.49 C204.698589,187.756315 194.392103,145.530306 163.49,121.31 Z" id="Path" fill="#254095"></path>
                    <path d="M28.38,208.42 C32.8779656,226.965007 43.5051112,243.448358 58.54,255.2 C40.160481,295.58105 55.9053214,343.306617 94.7053379,364.823928 C133.505354,386.341238 182.32718,374.422383 206.847332,337.446742 C231.367485,300.471101 223.349367,250.859212 188.43,223.49 C196.08,206.73 26.12,199.15 28.38,208.42 Z" id="Path" fill="#000000" opacity="0.1"></path>
                </g>
                <path d="M958.16,98.99 L123.44,98.99 C119.329385,99.0010315 116.004468,102.339374 116.01,106.45 L116.01,617.3 C115.99671,621.286903 117.571194,625.11507 120.385681,627.938939 C123.200169,630.762808 127.023074,632.350022 131.01,632.35 L950.62,632.35 C954.606926,632.350022 958.429831,630.762808 961.244319,627.938939 C964.058806,625.11507 965.63329,621.286903 965.62,617.3 L965.62,106.44 C965.620002,104.462403 964.833721,102.56595 963.434411,101.168516 C962.035102,99.771082 960.137595,98.9873455 958.16,98.99 Z" id="Path" fill="url(#linearGradient-1)"></path>
                <path d="M962.22,130.7 L962.22,614.29 C962.220002,622.504093 955.564092,629.16448 947.35,629.17 L134.4,629.17 C126.185908,629.16448 119.529998,622.504093 119.53,614.29 L119.53,130.7 L962.22,130.7 Z" id="Path" fill="#FFFFFF"></path>
                <path d="M962.22,109.21 L962.220007,130.7 L119.529993,130.7 L119.53,109.21 C119.527345,107.253622 120.302653,105.376464 121.685084,103.992157 C123.067515,102.607851 124.943621,101.829998 126.9,101.83 L954.9,101.83 C958.954702,101.857505 962.225595,105.155209 962.22,109.21 L962.22,109.21 Z" id="Path" fill="#EDEDF4"></path>
                <circle id="Oval" fill="#FA5959" opacity="0.8" cx="132.88" cy="116.05" r="3.45"></circle>
                <circle id="Oval" fill="#FED253" opacity="0.8" cx="142.36" cy="116.05" r="3.45"></circle>
                <circle id="Oval" fill="#8CCF4D" opacity="0.8" cx="151.84" cy="116.05" r="3.45"></circle>
                <rect id="Rectangle" fill="url(#linearGradient-2)" transform="translate(587.325000, 87.785000) rotate(90.000000) translate(-587.325000, -87.785000) " x="585.6" y="85.2" width="3.45" height="5.17"></rect>
                <rect id="Rectangle" fill="#EDEDF4" x="313.33" y="173.09" width="81" height="8.62"></rect>
                <rect id="Rectangle" fill="#EDEDF4" x="313.33" y="198.07" width="454.95" height="8.62"></rect>
                <rect id="Rectangle" fill="#EDEDF4" x="313.33" y="223.06" width="454.95" height="8.62"></rect>
                <rect id="Rectangle" fill="#EDEDF4" x="313.33" y="248.05" width="454.95" height="8.62"></rect>
                <rect id="Rectangle" fill="#EDEDF4" x="313.33" y="273.04" width="454.95" height="8.62"></rect>
                <rect id="Rectangle" fill="#EDEDF4" x="400.21" y="320.7" width="280.9" height="217.14"></rect>
                <ellipse id="Oval" fill="#254095" cx="905.6" cy="749.81" rx="26.87" ry="5.17"></ellipse>
                <ellipse id="Oval" fill="#3F3D56" cx="905.15" cy="747.62" rx="3.13" ry="4.09"></ellipse>
                <ellipse id="Oval" fill="#3F3D56" cx="905.15" cy="742.61" rx="3.13" ry="4.09"></ellipse>
                <ellipse id="Oval" fill="#3F3D56" cx="905.15" cy="737.61" rx="3.13" ry="4.09"></ellipse>
                <ellipse id="Oval" fill="#3F3D56" cx="905.15" cy="732.6" rx="3.13" ry="4.09"></ellipse>
                <ellipse id="Oval" fill="#3F3D56" cx="905.15" cy="727.6" rx="3.13" ry="4.09"></ellipse>
                <ellipse id="Oval" fill="#3F3D56" cx="905.15" cy="722.6" rx="3.13" ry="4.09"></ellipse>
                <ellipse id="Oval" fill="#3F3D56" cx="905.15" cy="717.59" rx="3.13" ry="4.09"></ellipse>
                <path d="M916.86,683.34 C917.287481,682.798781 917.675164,682.227283 918.02,681.63 L909.81,680.28 L918.69,680.34 C920.423497,676.593571 920.528477,672.296612 918.98,668.47 L907.05,674.66 L918.05,666.57 C915.285976,661.620681 909.967902,658.652368 904.304392,658.897813 C898.640882,659.143258 893.599545,662.560527 891.274067,667.730414 C888.948589,672.900302 889.736277,678.939536 893.31,683.34 C892.640711,684.183902 892.067197,685.099512 891.6,686.07 L902.27,691.62 L890.89,687.8 C889.269958,692.597821 890.180054,697.889164 893.31,701.87 C888.459462,708.016406 889.152406,716.859671 894.90111,722.175537 C900.649814,727.491403 909.520186,727.491403 915.26889,722.175537 C921.017594,716.859671 921.710538,708.016406 916.86,701.87 C921.1312,696.431723 921.1312,688.778277 916.86,683.34 L916.86,683.34 Z" id="Path" fill="#254095"></path>
                <path d="M890.1,692.6 C890.094519,695.96349 891.225695,699.230157 893.31,701.87 C888.459462,708.016406 889.152406,716.859671 894.90111,722.175537 C900.649814,727.491403 909.520186,727.491403 915.26889,722.175537 C921.017594,716.859671 921.710538,708.016406 916.86,701.87 C918.87,699.32 890.1,690.92 890.1,692.6 Z" id="Path" fill="#000000" opacity="0.1"></path>
                <ellipse id="Oval" fill="#254095" cx="76.98" cy="683.04" rx="12.16" ry="2.34"></ellipse>
                <ellipse id="Oval" fill="#3F3D56" cx="76.77" cy="682.05" rx="1.42" ry="1.85"></ellipse>
                <ellipse id="Oval" fill="#3F3D56" cx="76.77" cy="679.78" rx="1.42" ry="1.85"></ellipse>
                <ellipse id="Oval" fill="#3F3D56" cx="76.77" cy="677.52" rx="1.42" ry="1.85"></ellipse>
                <ellipse id="Oval" fill="#3F3D56" cx="76.77" cy="675.25" rx="1.42" ry="1.85"></ellipse>
                <ellipse id="Oval" fill="#3F3D56" cx="76.77" cy="672.99" rx="1.42" ry="1.85"></ellipse>
                <ellipse id="Oval" fill="#3F3D56" cx="76.77" cy="670.72" rx="1.42" ry="1.85"></ellipse>
                <ellipse id="Oval" fill="#3F3D56" cx="76.77" cy="668.45" rx="1.42" ry="1.85"></ellipse>
                <path d="M82.07,652.99 C82.2669574,652.747907 82.4441917,652.490416 82.6,652.22 L78.88,651.6 L82.88,651.6 C83.65845,649.903692 83.7054559,647.961989 83.01,646.23 L77.61,649.03 L82.61,645.37 C81.3337634,643.184472 78.9464992,641.89171 76.4187445,642.017285 C73.8909899,642.142859 71.6436079,643.665862 70.5902669,645.967119 C69.536926,648.268377 69.8530039,650.964737 71.41,652.96 C71.1082092,653.343546 70.8499589,653.75943 70.64,654.2 L75.47,656.71 L70.32,654.99 C69.5829037,657.16105 69.9929801,659.557551 71.41,661.36 C69.2246304,664.139688 69.542387,668.132125 72.139928,670.531142 C74.7374691,672.93016 78.7425309,672.93016 81.340072,670.531142 C83.937613,668.132125 84.2553696,664.139688 82.07,661.36 C84.0045226,658.897872 84.0045226,655.432128 82.07,652.97 L82.07,652.99 Z" id="Path" fill="#254095"></path>
                <path d="M70,657.14 C69.9962828,658.663389 70.5072302,660.143374 71.45,661.34 C69.2646304,664.119688 69.582387,668.112125 72.179928,670.511142 C74.7774691,672.91016 78.7825309,672.91016 81.380072,670.511142 C83.977613,668.112125 84.2953696,664.119688 82.11,661.34 C83,660.18 70,656.38 70,657.14 Z" id="Path" fill="#000000" opacity="0.1"></path>
                <path d="M278.93,305.46 L232.29,305.46 C230.835994,305.463194 229.58364,306.48595 229.29,307.91 L216.67,370.17 C216.650138,370.33942 216.650138,370.51058 216.67,370.68 L215.47,370.81 L214.4,370.92 C214.335521,370.90804 214.272014,370.891328 214.21,370.87 C213.877934,370.636189 213.660037,370.273028 213.61,369.87 C212.997941,367.653168 212.553356,365.393471 212.28,363.11 C212.124987,360.60573 212.124987,358.09427 212.28,355.59 C212.34,353.59 212.28,351.64 212.28,349.67 C212.611754,347.453981 212.808782,345.219878 212.87,342.98 C212.989019,340.59174 212.753119,338.199035 212.17,335.88 C211.801379,334.621482 211.333236,333.394278 210.77,332.21 C210.33,328.85 209.85,325.48 209.36,322.13 C208.99,319.64 208.62,317.13 208.13,314.67 C208.24,314.26 208.33,313.85 208.4,313.43 C208.949023,309.288347 207.272764,305.164217 203.99,302.58 C202.989363,301.766856 201.882495,301.093988 200.7,300.58 C199.719007,300.177892 198.717636,299.827413 197.7,299.53 L181.61,294.53 C180.12,292.36 178.61,290.17 177.27,287.93 C175.964016,285.912204 174.823621,283.791938 173.86,281.59 C184.704544,273.852314 187.622591,258.994412 180.51,247.73 C180.24,247.31 179.96,246.89 179.67,246.49 C179.787001,244.555415 179.560159,242.615406 179,240.76 C178.875868,240.071703 178.671125,239.400415 178.39,238.76 C177.955527,237.892506 177.399972,237.091161 176.74,236.38 C176.61,236.23 176.46,236.09 176.32,235.94 C175.002525,234.492607 173.526601,233.19782 171.92,232.08 C166.58,228.21 159.42,223.51 152.87,221.93 C149.633184,221.193416 146.274134,221.176348 143.03,221.88 L142.53,221.74 L141.58,221.55 C141.82,221.65 142.05,221.78 142.29,221.89 C138.854545,221.121823 135.285135,221.18697 131.88,222.08 C127.64,223.34 126.16,226.7 124.37,230.37 C121.464115,236.275927 117.056859,241.314268 111.59,244.98 C108.07,247.34 103.9,249.38 102.21,253.25 C100.63,256.86 101.7,260.99 102.07,264.92 C102.982569,275.752752 98.3589518,286.312959 89.78,292.99 C84.97,296.69 78.55,299.79 77.52,305.75 C76.79,310 79.19,314.06 81,317.98 C84.83,326.24 86.14,336.33 81.64,344.26 C80.37,346.51 78.64,348.57 77.96,351.06 C76.76,355.49 79.31,360.31 83.13,362.89 C86.95,365.47 91.74,366.16 96.36,366.14 C97.15,366.14 97.95,366.14 98.76,366.03 C98.36,369.9 97.86,373.77 97.23,377.61 C96.3,383.28 95.11,388.97 95.47,394.7 C95.66,397.8 96.37,401.01 98.38,403.4 C101.54,407.17 107.04,407.94 111.97,407.75 C119.77,407.45 127.44,405.42 135.2,404.97 C135.054677,405.283321 134.979592,405.624618 134.98,405.97 C134.98,407.32 135.81,408.81 135.43,410.15 C135.269165,410.618626 135.032706,411.057766 134.73,411.45 C132.73,414.39 130.36,417.67 131.05,421.16 C131.39,422.86 132.45,424.56 131.96,426.23 C131.650259,427.010114 131.218174,427.735882 130.68,428.38 C127.94,432.46 128.51,437.83 129.2,442.7 L130.12,442.96 C129.86,443.52 129.6,444.09 129.36,444.66 C128.238935,447.187247 127.591531,449.898889 127.45,452.66 C127.526569,455.759411 128.052033,458.831354 129.01,461.78 C130.37,466.78 131.78,471.78 133.57,476.61 C135.09,480.76 136.88,484.79 138.65,488.83 C139.21,490.07 139.76,491.32 140.31,492.57 C143.723333,500.303333 147.143333,508.043333 150.57,515.79 C151.00045,516.678803 151.335649,517.610657 151.57,518.57 C151.75,519.39 151.79,520.22 151.92,521.05 C152.46,524.27 154.56,526.98 156.1,529.87 C161.29,539.62 160,551.38 158.59,562.33 C159.360832,563.100189 160.224067,563.771966 161.16,564.33 C161.01,565.43 160.86,566.54 160.63,567.6 C159.26,573.85 157.63,580.05 156.68,586.4 C156.201924,589.486781 155.967866,592.60644 155.98,595.73 C155.98,598.73 157.05,601.78 157.05,604.73 C157.78,607.73 158.89,610.59 159.67,613.56 C159.99,618.17 160.53,622.78 161.22,627.38 C161.446667,631.553333 161.68,635.73 161.92,639.91 C162.13,643.61 162.3,647.5 160.64,650.82 C160.64,650.93 160.52,651.04 160.46,651.15 C157.511617,650.949973 154.667421,652.279531 152.93,654.67 C151.180312,657.214604 150.172774,660.195673 150.02,663.28 C149.808076,664.58179 149.956791,665.916761 150.45,667.14 C150.93,668.14 151.77,668.81 152.32,669.73 C152.859311,670.799397 153.198234,671.958514 153.32,673.15 C154.44,680.07 155.57,687.01 156.17,694 C156.35,696.13 156.52,698.38 157.77,700.12 C159.02,701.86 161.77,702.71 163.34,701.24 C161.754797,693.231084 160.970931,685.084236 161,676.92 C161.524001,676.845059 162.055999,676.845059 162.58,676.92 C162.89,678.33 163.32,679.73 163.72,681.12 C163.987351,682.140798 164.321402,683.142951 164.72,684.12 C164.56,685.49 164.72,687.55 164.66,688.55 C164.58,692.97 164.58,697.386667 164.66,701.8 C164.72,704.32 164.81,706.84 164.93,709.36 C164.918734,709.638838 164.973558,709.916388 165.09,710.17 C165.166541,710.267246 165.286633,710.319786 165.41,710.31 C166.25,710.31 167.1,710.31 167.94,710.31 C168.030848,709.312722 168.067569,708.311253 168.05,707.31 C168.05,705.01 168.05,702.716667 168.05,700.43 C168.05,698.47 168.05,696.51 168.05,694.55 C168.64,698.06 169.48,701.55 170.33,705 L172.13,712.38 L172.31,713.12 L173.84,719.37 C173.88762,719.594536 173.96146,719.812698 174.06,720.02 C174.2545,720.322675 174.509927,720.581508 174.81,720.78 C181.249835,725.462257 189.693057,726.368656 196.98,723.16 C197.255867,723.048997 197.509814,722.889856 197.73,722.69 C198.130955,722.153879 198.313253,721.485451 198.24,720.82 C198.144936,718.826117 198.536177,716.839024 199.38,715.03 C199.840966,714.362503 200.217183,713.6403 200.5,712.88 C200.671921,711.647605 200.43293,710.3929 199.82,709.31 L198.17,705.46 C198.95101,705.430058 199.729285,705.349892 200.5,705.22 C201.67,704.22 200.82,702.15 201.79,700.97 C202.193557,700.603885 202.624845,700.269553 203.08,699.97 C204.3,698.9 204.18,696.97 203.63,695.44 C201.85,690.51 197.09,687.37 192.63,684.59 L192.05,684.23 C188.41,667.23 181.99,650.48 183.7,633.23 C184.07,629.55 184.81,625.91 185.41,622.23 C188.41,604.13 188.22,585.56 191.68,567.55 C193.466418,567.448832 195.205154,566.935426 196.76,566.05 C199.69,564.23 201.12,560.71 201.51,557.3 C201.9,553.89 201.43,550.45 201.51,547.01 C201.6,542.08 202.78,537.24 203.96,532.43 C205.34,526.82 202.96,520.87 204.4,515.28 C204.947057,513.560137 205.381313,511.806412 205.7,510.03 C206,507.52 205.5,504.87 206.39,502.49 C206.79,501.4 207.48,500.43 207.94,499.36 C209.94,494.84 207.74,489.36 209.75,484.82 C210.399037,483.767134 210.881401,482.620256 211.18,481.42 C211.249174,480.485849 211.130157,479.547316 210.83,478.66 C210.32,476.58 209.83,474.48 209.5,472.37 C209.351665,471.643124 209.287908,470.901528 209.31,470.16 C209.408022,469.374045 209.5856,468.600076 209.84,467.85 C211.36,462.59 211.55,457.04 211.72,451.55 C211.81,448.64 211.89,445.55 210.66,442.93 C210.293735,442.137403 209.822876,441.397481 209.26,440.73 L209.41,440.65 C208.64,437.52 208.03,433.88 209.15,430.85 C209.62,429.56 210.43,428.32 210.28,426.95 C210.13,425.58 209.19,424.64 208.81,423.42 C208.16,421.42 209.15,419.26 209.73,417.2 C210.73,413.68 210.5,409.94 210.27,406.28 C210.281214,405.492582 210.102864,404.714017 209.75,404.01 C209.49,403.58 209.1,403.25 208.85,402.81 C208.342865,401.727547 208.368742,400.470663 208.92,399.41 C209.475057,398.376835 209.927231,397.291619 210.27,396.17 C210.325025,395.822163 210.325025,395.467837 210.27,395.12 C211.01,394.8 211.67,394.32 212.38,393.94 C215.38,392.34 218.93,392.58 222.31,392.49 C225.69,392.4 229.45,391.73 231.47,389.04 C231.669165,388.702691 231.942802,388.415373 232.27,388.2 C232.377598,388.145303 232.491906,388.104959 232.61,388.08 C233.84,388.25 234.61,388.24 234.44,387.92 C235,387.67 235.26,387.06 235.59,386.55 C235.674337,386.416945 235.7679,386.289967 235.87,386.17 C237.124084,385.422111 238.434748,384.773466 239.79,384.23 C239.547574,384.200284 239.302426,384.200284 239.06,384.23 C241.144077,383.554291 243.330592,383.249668 245.52,383.33 C247.61,383.33 251.21,383.62 252.84,382 C255.84,380.09 256.73,376.26 258.12,373 C258.582325,371.943627 259.099702,370.912212 259.67,369.91 L267.44,369.15 C268.779483,369.016273 269.876941,368.028156 270.15,366.71 L281.81,309.12 C281.986405,308.241394 281.768803,307.329617 281.214638,306.625367 C280.660474,305.921116 279.82545,305.49518 278.93,305.46 Z M131.78,384.46 C128.289557,385.969565 124.330443,385.969565 120.84,384.46 C120.32,384.23 119.75,383.59 120.17,383.21 C120.59,382.83 120.93,383.15 121.27,382.99 C121.92,382.67 121.45,381.71 121.09,381.09 C120.09,379.29 120.78,377.01 121.77,375.19 C122.76,373.37 124.03,371.57 124.07,369.5 C124.009268,368.834716 124.009268,368.165284 124.07,367.5 C124.387077,366.556237 124.890349,365.685713 125.55,364.94 C125.73,364.68 125.88,364.4 126.04,364.12 C126.31,364.54 126.58,364.95 126.86,365.36 C127.76,366.74 128.656667,368.13 129.55,369.53 C130.263565,370.472475 130.715479,371.586736 130.86,372.76 C130.75978,373.453832 130.797158,374.160608 130.97,374.84 C131.37,375.72 132.61,376.45 132.15,377.3 C131.68934,378.225865 131.68934,379.314135 132.15,380.24 C132.62,381.05 133.32,381.72 133.79,382.52 C133.923482,382.760367 134.03719,383.011195 134.13,383.27 C133.37,383.67 132.58,384.11 131.78,384.46 Z M228.78,373.67 C228.19,373.81 227.6,373.95 227.01,374.11 C226.93,373.75 226.9,373.55 226.9,373.55 L223.78,374.48 C222.592135,374.533052 221.409792,374.289022 220.34,373.77 L233.22,372.51 C231.75,372.93 230.27,373.32 228.78,373.67 Z" id="Shape" fill="url(#linearGradient-3)"></path>
                <path d="M134,232.99 C131.133467,238.857435 126.778687,243.870777 121.37,247.53 C117.88,249.88 113.76,251.9 112.09,255.75 C110.53,259.34 111.59,263.46 111.95,267.36 C112.848151,278.065231 108.314693,288.506834 99.88,295.16 C95.13,298.85 88.78,301.93 87.76,307.86 C87.04,312.08 89.42,316.13 91.21,320.02 C94.99,328.24 96.29,338.28 91.84,346.16 C90.58,348.4 88.84,350.45 88.2,352.93 C87.01,357.34 89.53,362.13 93.31,364.69 C97.09,367.25 101.83,367.95 106.39,367.93 C109.7,367.93 113.29,367.43 115.65,365.1 C117.23,363.54 118.01,361.37 118.75,359.28 L124.5,342.99 C125.5,340.05 126.64,336.99 128.82,334.79 C133.45,330.07 140.99,330.57 147.6,330.65 C157.329007,330.766794 167.008053,329.242082 176.23,326.14 C181.63,324.31 187.49,321.21 188.75,315.66 C190.01,310.11 186.27,305.06 183,300.56 C180.553333,297.226667 178.24,293.776667 176.06,290.21 C173.93,286.77 171.9,283.14 171.31,279.14 C170.31,272.49 173.46,266.03 175.87,259.76 C178.28,253.49 179.97,246.07 176.46,240.34 C174.943843,238.108676 173.011964,236.190378 170.77,234.69 C165.49,230.84 158.41,226.17 151.94,224.6 C148.471257,223.785845 144.855872,223.833913 141.41,224.74 C137.22,226.04 135.75,229.38 134,232.99 Z" id="Path" fill="#3F3D56"></path>
                <path d="M205,310.72 C206.297459,315.133968 207.217437,319.65022 207.75,324.22 C209.35,335.22 210.96,346.36 210.66,357.51 C210.514992,359.997889 210.514992,362.492111 210.66,364.98 C210.938238,367.252827 211.382763,369.502191 211.99,371.71 C212.033928,372.112596 212.248848,372.476866 212.58,372.71 C212.96,372.9 213.41,372.71 213.83,372.66 C215.26,372.49 216.32,373.87 217.42,374.8 C219.633979,376.589227 222.724644,376.82023 225.18,375.38 C224.425362,378.728639 225.724617,382.206403 228.49,384.24 C231.287066,386.19154 234.794542,386.830259 238.1,385.99 C236.44,385.73 234.85,386.89 233.94,388.3 C233.62,388.8 233.36,389.41 232.81,389.66 C232.26,389.91 231.31,389.59 230.66,389.93 C230.338201,390.148617 230.068483,390.435406 229.87,390.77 C227.87,393.45 224.16,394.11 220.82,394.2 C217.48,394.29 213.94,394.06 211,395.65 C210.27,396.04 209.59,396.54 208.83,396.86 C206.51,397.86 203.74,396.86 201.94,395.15 C200.223332,393.306303 199.004974,391.055439 198.4,388.61 C195.4,378.93 196,368.56 196.61,358.45 C197.58,342.38 199.62,325.92 205,310.72 Z" id="Path" fill="#454B69"></path>
                <path d="M205,310.72 C206.297459,315.133968 207.217437,319.65022 207.75,324.22 C209.35,335.22 210.96,346.36 210.66,357.51 C210.514992,359.997889 210.514992,362.492111 210.66,364.98 C210.938238,367.252827 211.382763,369.502191 211.99,371.71 C212.033928,372.112596 212.248848,372.476866 212.58,372.71 C212.96,372.9 213.41,372.71 213.83,372.66 C215.26,372.49 216.32,373.87 217.42,374.8 C219.633979,376.589227 222.724644,376.82023 225.18,375.38 C224.425362,378.728639 225.724617,382.206403 228.49,384.24 C231.287066,386.19154 234.794542,386.830259 238.1,385.99 C236.44,385.73 234.85,386.89 233.94,388.3 C233.62,388.8 233.36,389.41 232.81,389.66 C232.26,389.91 231.31,389.59 230.66,389.93 C230.338201,390.148617 230.068483,390.435406 229.87,390.77 C227.87,393.45 224.16,394.11 220.82,394.2 C217.48,394.29 213.94,394.06 211,395.65 C210.27,396.04 209.59,396.54 208.83,396.86 C206.51,397.86 203.74,396.86 201.94,395.15 C200.223332,393.306303 199.004974,391.055439 198.4,388.61 C195.4,378.93 196,368.56 196.61,358.45 C197.58,342.38 199.62,325.92 205,310.72 Z" id="Path" fill="#000000" opacity="0.1"></path>
                <path d="M156.16,605.25 C157,608.74 158.38,612.09 159.16,615.59 C159.72835,618.606348 160.06268,621.662117 160.16,624.73 L161.02,640.25 C161.23,643.93 161.4,647.8 159.76,651.1 C158.63,653.39 156.67,655.31 156.11,657.8 C155.23,661.7 158.02,665.39 160.64,668.42 L173.5,683.32 C177.5,687.99 181.93,692.9 187.9,694.49 C188.787047,694.792177 189.743349,694.826952 190.65,694.59 C192.31,694.04 193.12,692.03 192.88,690.29 C192.503568,688.571742 191.717993,686.969719 190.59,685.62 C187.22,680.89 183.59,676.24 181.43,670.86 C178.65,664.02 178.36,656.45 178.53,649.07 C179.21,618.97 186.78,589.22 185.92,559.07 C179.35,558.57 172.52,557.48 165.92,557.54 C160.05,557.6 160.75,563.54 159.73,568.29 C158.37,574.51 156.73,580.68 155.82,586.99 C155.345509,590.063641 155.11479,593.169987 155.13,596.28 C155.13,599.31 156.16,602.34 156.16,605.25 Z" id="Path" fill="#FBBEBE"></path>
                <path d="M156.16,605.25 C157,608.74 158.38,612.09 159.16,615.59 C159.72835,618.606348 160.06268,621.662117 160.16,624.73 L161.02,640.25 C161.23,643.93 161.4,647.8 159.76,651.1 C158.63,653.39 156.67,655.31 156.11,657.8 C155.23,661.7 158.02,665.39 160.64,668.42 L173.5,683.32 C177.5,687.99 181.93,692.9 187.9,694.49 C188.787047,694.792177 189.743349,694.826952 190.65,694.59 C192.31,694.04 193.12,692.03 192.88,690.29 C192.503568,688.571742 191.717993,686.969719 190.59,685.62 C187.22,680.89 183.59,676.24 181.43,670.86 C178.65,664.02 178.36,656.45 178.53,649.07 C179.21,618.97 186.78,589.22 185.92,559.07 C179.35,558.57 172.52,557.48 165.92,557.54 C160.05,557.6 160.75,563.54 159.73,568.29 C158.37,574.51 156.73,580.68 155.82,586.99 C155.345509,590.063641 155.11479,593.169987 155.13,596.28 C155.13,599.31 156.16,602.34 156.16,605.25 Z" id="Path" fill="#000000" opacity="0.05"></path>
                <path d="M160.05,651.49 C157.05,650.87 153.93,652.49 152.05,654.93 C150.315438,657.461382 149.318353,660.42494 149.17,663.49 C148.950217,664.784992 149.099228,666.115695 149.6,667.33 C150.07,668.28 150.9,669 151.44,669.91 C151.979727,670.972137 152.318741,672.124784 152.44,673.31 C153.56,680.2 154.68,687.1 155.26,694.05 C155.44,696.17 155.61,698.41 156.85,700.14 C158.09,701.87 160.85,702.71 162.36,701.26 C160.795334,693.325822 160.01491,685.256973 160.03,677.17 C163.54,676.69 166.6,679.45 168.89,682.17 C171.234384,684.926421 173.382967,687.843549 175.32,690.9 C176.94926,693.794441 178.836948,696.535606 180.96,699.09 C185.633196,704.046003 192.450721,706.377133 199.18,705.32 C200.34,704.32 199.49,702.26 200.45,701.09 C200.850101,700.723992 201.278058,700.389651 201.73,700.09 C202.94,699.03 202.81,697.09 202.27,695.59 C200.52,690.68 195.81,687.59 191.4,684.79 C183.4,679.79 175.3,674.79 167.25,669.95 C164.180402,668.049443 161.843812,665.166591 160.62,661.77 C160.33,660.9 159.07,651.16 160.05,651.49 Z" id="Path" fill="#3F3D56"></path>
                <path d="M160.05,651.49 C157.05,650.87 153.93,652.49 152.05,654.93 C150.315438,657.461382 149.318353,660.42494 149.17,663.49 C148.950217,664.784992 149.099228,666.115695 149.6,667.33 C150.07,668.28 150.9,669 151.44,669.91 C151.979727,670.972137 152.318741,672.124784 152.44,673.31 C153.56,680.2 154.68,687.1 155.26,694.05 C155.44,696.17 155.61,698.41 156.85,700.14 C158.09,701.87 160.85,702.71 162.36,701.26 C160.795334,693.325822 160.01491,685.256973 160.03,677.17 C163.54,676.69 166.6,679.45 168.89,682.17 C171.234384,684.926421 173.382967,687.843549 175.32,690.9 C176.94926,693.794441 178.836948,696.535606 180.96,699.09 C185.633196,704.046003 192.450721,706.377133 199.18,705.32 C200.34,704.32 199.49,702.26 200.45,701.09 C200.850101,700.723992 201.278058,700.389651 201.73,700.09 C202.94,699.03 202.81,697.09 202.27,695.59 C200.52,690.68 195.81,687.59 191.4,684.79 C183.4,679.79 175.3,674.79 167.25,669.95 C164.180402,668.049443 161.843812,665.166591 160.62,661.77 C160.33,660.9 159.07,651.16 160.05,651.49 Z" id="Path" fill="#000000" opacity="0.05"></path>
                <path d="M158.75,596.51 C157.14,616.62 161.65,636.64 165.66,656.41 C166.036865,657.989912 166.241392,659.606014 166.27,661.23 C166.101909,663.254056 165.767446,665.260836 165.27,667.23 C163.75,675.39 165.69,683.75 167.62,691.82 C168.96,697.41 170.85,703.72 176.06,706.16 C179.73,707.89 184.06,707.16 188.06,706.35 C189.374478,706.210644 190.62434,705.708621 191.67,704.9 C193.11,703.55 193.16,701.32 193.04,699.36 C191.66,677.16 180.42,655.87 182.61,633.73 C182.97,630.07 183.7,626.45 184.3,622.81 C187.4,603.99 187,584.62 191,565.99 C191.198679,565.338136 191.198679,564.641864 191,563.99 C190.661604,563.350457 190.124679,562.838096 189.47,562.53 C185.83,560.35 181.94,558.42 177.74,557.83 C174.46,557.37 170.34,557.73 167.58,559.76 C164.82,561.79 164.5,566.48 163.65,569.83 C161.267225,578.569243 159.628047,587.494401 158.75,596.51 Z" id="Path" fill="#FBBEBE"></path>
                <path d="M164,709.44 C163.983669,709.714931 164.035181,709.98966 164.15,710.24 C164.225512,710.339577 164.345157,710.395661 164.47,710.39 C165.31,710.39 166.14,710.39 166.98,710.39 C167.08,709.39 167.08,708.39 167.09,707.39 L167.09,700.55 C167.09,695.13 167.09,689.69 166.85,684.3 C166.853419,684.09967 166.822992,683.9002 166.76,683.71 C166.702241,683.591534 166.602414,683.498838 166.48,683.45 C165.89,683.17 164.48,682.3 163.98,683.3 C163.48,684.3 163.7,687.45 163.67,688.76 C163.59,693.153333 163.59,697.546667 163.67,701.94 C163.783333,704.44 163.893333,706.94 164,709.44 Z" id="Path" fill="#3F3D56"></path>
                <path d="M207.91,471.51 C207.888768,472.248193 207.95252,472.986378 208.1,473.71 C208.46,475.81 208.91,477.89 209.42,479.96 C209.71007,480.846062 209.825536,481.779972 209.76,482.71 C209.462023,483.900955 208.986713,485.040352 208.35,486.09 C206.35,490.56 208.5,496.09 206.56,500.55 C206.1,501.62 205.42,502.55 205.02,503.67 C204.15,506.04 204.64,508.67 204.35,511.17 C204.034684,512.936353 203.603758,514.680102 203.06,516.39 C201.65,521.95 203.98,527.87 202.62,533.45 C201.46,538.23 200.28,543.05 200.2,547.96 C200.13,551.37 200.6,554.79 200.2,558.19 C199.8,561.59 198.39,565.08 195.5,566.89 C193.22,568.32 190.39,568.48 187.69,568.53 C182.5,568.62 177.28,568.47 172.09,568.07 C166.9,567.67 161.33,566.82 157.68,563.13 C159.07,552.24 160.34,540.55 155.21,530.84 C153.69,527.97 151.61,525.27 151.08,522.07 C150.94,521.25 150.9,520.42 150.73,519.61 C150.493022,518.654671 150.157907,517.726402 149.73,516.84 C146.35,509.126667 142.966667,501.423333 139.58,493.73 C139.04,492.49 138.5,491.25 137.94,490.01 C136.19,486.01 134.43,482.01 132.94,477.87 C131.17,473.03 129.77,468.07 128.43,463.11 C127.481533,460.173422 126.962829,457.115089 126.89,454.03 C127.035628,451.300612 127.676031,448.620404 128.78,446.12 C129.38,444.66 130.08,443.23 130.78,441.83 C150.889923,437.086172 171.586338,435.314023 192.21,436.57 C195.50786,436.630295 198.779161,437.172704 201.92,438.18 C204.048308,438.932338 205.965218,440.183988 207.51,441.83 C208.22132,442.595375 208.805392,443.469795 209.24,444.42 C210.45,447.06 210.37,450.1 210.29,453 C210.11,458.45 209.93,464 208.43,469.21 C208.177973,469.956728 208.003716,470.72748 207.91,471.51 Z" id="Path" fill="#3F3D56"></path>
                <path d="M193.81,698.28 C190.760302,700.586568 187.181368,702.092402 183.4,702.66 C180.06,703.15 176.4,702.8 173.75,700.66 C170.75,698.27 169.68,694.21 168.82,690.45 L167.67,685.45 C167.25,683.65 166.84,681.85 166.51,680.03 C165.651016,675.223884 165.399044,670.328913 165.76,665.46 C163.02,666.53 161.38,669.78 161.2,672.71 C161.02,675.64 161.93,678.51 162.76,681.33 C163.08726,682.691737 163.588022,684.005816 164.25,685.24 C164.74,686.06 165.38,686.79 165.8,687.65 C166.323813,688.922443 166.624868,690.2755 166.69,691.65 C167.311835,696.167467 168.210189,700.642537 169.38,705.05 L171.16,712.39 L171.34,713.13 L172.85,719.35 C172.896098,719.571744 172.970017,719.786779 173.07,719.99 C173.257949,720.294534 173.510585,720.553998 173.81,720.75 C180.165016,725.408445 188.526141,726.312454 195.73,723.12 C196.004668,723.006656 196.258231,722.847757 196.48,722.65 C196.865452,722.114656 197.039918,721.455956 196.97,720.8 C196.883723,718.813223 197.27463,716.834684 198.11,715.03 C198.562743,714.3643 198.932165,713.645606 199.21,712.89 C199.374581,711.665397 199.139605,710.420376 198.54,709.34 L194.84,700.68 C194.621748,699.831922 194.274353,699.022459 193.81,698.28 Z" id="Path" fill="#3F3D56"></path>
                <path d="M185.13,337.99 C184.990763,339.895947 184.61453,341.777111 184.01,343.59 C183.560413,344.905726 182.770275,346.078856 181.72,346.99 C180,344.67 176.93,343.87 174.6,342.16 C172.683445,340.5318 171.01574,338.631627 169.65,336.52 C166.65,332.52 163.23,328.97 160.03,325.19 C159.54,324.61 159.03,324.04 158.6,323.46 C156.964073,321.466056 155.483085,319.349882 154.17,317.13 C151.5,312.53 149.67,307.24 145.65,303.76 C143.46,301.86 140.71,300.61 138.77,298.46 C139.953074,296.43417 140.724494,294.194673 141.04,291.87 C141.5,289.64 141.95,287.4 142.19,285.13 C142.26,284.53 142.3,283.93 142.32,283.33 C142.32,283.07 142.32,282.82 142.32,282.56 C142.32,280.71 141.13,277.56 143.02,276.5 C144.75,275.5 147.59,275.5 149.63,275.56 L150,275.56 C154.736248,275.612633 159.354513,277.044329 163.29,279.68 C164.185748,280.228183 164.966807,280.944719 165.59,281.79 C166.502275,283.454943 166.852983,285.369808 166.59,287.25 C166.59,287.69 166.59,288.13 166.52,288.56 L166.52,289.2 C166.45,291.34 166.66,293.63 168.16,295.12 C169.66,296.61 172.32,296.8 174.51,297.48 C174.87,297.6 175.21,297.72 175.56,297.86 C177.958191,298.942184 180.005469,300.67423 181.47,302.86 C183.116301,305.372837 184.279521,308.170669 184.9,311.11 C185.510637,313.739017 185.895372,316.415431 186.05,319.11 C186.265684,325.417944 185.957963,331.732911 185.13,337.99 Z" id="Path" fill="#FBBEBE"></path>
                <path d="M166.55,288.51 L166.55,289.15 C163.88,290.15 157.37,287.39 154.36,287.39 C148.36,287.39 146.54,288.56 142.22,285.08 C142.31,284.23 142.37,283.37 142.39,282.51 C142.39,280.66 141.2,277.51 143.09,276.45 C144.98,275.39 147.99,275.45 150.03,275.51 C154.766248,275.562633 159.384513,276.994329 163.32,279.63 C164.215748,280.178183 164.996807,280.894719 165.62,281.74 C166.89,283.66 166.69,286.19 166.55,288.51 Z" id="Path" fill="#000000" opacity="0.1"></path>
                <path d="M183.1,263.6 C183.101915,271.119472 179.736491,278.244681 173.927625,283.019569 C168.11876,287.794456 160.476923,289.717216 153.1,288.26 C141.326209,285.927212 132.839649,275.602665 132.83,263.6 C132.648457,254.497026 137.400966,246.006754 145.255507,241.402053 C153.110047,236.797352 162.839953,236.797352 170.694493,241.402053 C178.549034,246.006754 183.301543,254.497026 183.12,263.6 L183.1,263.6 Z" id="Path" fill="#FBBEBE"></path>
                <path d="M140.8,293.31 C140.010728,292.648243 139.043628,292.234269 138.02,292.12 C136.516326,292.266188 135.229564,293.261388 134.71,294.68 C134.1,296.03 133.91,297.52 133.38,298.91 C132.660763,300.778921 131.355664,302.364687 129.66,303.43 C128.47,304.17 127.06,304.69 126.25,305.83 C124.97,307.64 125.75,310.17 126.83,312.11 C130.83,319.34 138.13,324.11 145.12,328.52 L153,333.52 C156.164625,335.616561 159.442982,337.536169 162.82,339.27 C168.29,341.97 174.21,343.7 179.65,346.46 C182.15,347.72 184.65,349.23 187.38,349.66 C187.962676,347.798322 188.328432,345.875588 188.47,343.93 C189.82,331.93 191.15,319.66 188.47,307.88 C188.116232,305.598379 187.156117,303.453662 185.69,301.67 C184.658491,300.683515 183.477175,299.86672 182.19,299.25 C178.997088,297.530948 175.712138,295.988623 172.35,294.63 C170.773602,293.867616 169.040882,293.484089 167.29,293.51 C167.441813,294.824075 167.835079,296.098799 168.45,297.27 C172.67,306.676667 176.896667,316.086667 181.13,325.5 C182.059258,327.215789 182.585887,329.120544 182.67,331.07 C182.58,333.84 180.67,336.54 181.48,339.2 C174.103533,328.472983 165.642258,318.533917 156.23,309.54 C155.817014,309.193827 155.477074,308.768902 155.23,308.29 C155.002383,307.534858 154.954441,306.736964 155.09,305.96 C155.18,304.48 154.87,302.5 153.63,301.51 C152.77,300.82 151.5,300.62 150.55,300.02 C147.24,297.92 144.05,295.55 140.8,293.31 Z" id="Path" fill="#254095"></path>
                <path d="M208,444.06 C201.645386,447.255581 194.723732,449.168636 187.63,449.69 C180.556927,450.195035 173.458326,450.235122 166.38,449.81 L150.26,449.2 C142.94,448.91 135.75,448.32 128.77,446.12 C129.37,444.66 130.07,443.23 130.77,441.83 C150.879923,437.086172 171.576338,435.314023 192.2,436.57 C195.49786,436.630295 198.769161,437.172704 201.91,438.18 C204.038308,438.932338 205.955218,440.183988 207.5,441.83 C207.66,442.59 207.84,443.34 208,444.06 Z" id="Path" fill="#000000" opacity="0.1"></path>
                <path d="M206.87,365.48 C204.09,374.89 206,385.19 207.73,394.84 C208.726133,395.515256 209.183988,396.748249 208.87,397.91 C208.524455,399.022674 208.075844,400.10068 207.53,401.13 C206.980812,402.179794 206.951244,403.425329 207.45,404.5 C207.7,404.94 208.09,405.28 208.35,405.71 C208.697022,406.408589 208.871889,407.180058 208.86,407.96 C209.08,411.6 209.3,415.32 208.32,418.83 C207.75,420.83 206.78,422.99 207.42,425.01 C207.8,426.23 208.74,427.26 208.87,428.53 C209,429.8 208.22,431.12 207.75,432.4 C206.64,435.4 207.24,439.03 208.01,442.15 C201.655386,445.345581 194.733732,447.258636 187.64,447.78 C180.56712,448.290036 173.468189,448.330124 166.39,447.9 L150.27,447.29 C142.89,447.01 135.65,446.41 128.62,444.17 C127.94,439.32 127.37,433.98 130.09,429.93 C130.615056,429.280308 131.039773,428.555592 131.35,427.78 C131.83,426.12 130.78,424.43 130.45,422.78 C129.76,419.31 132.09,416.04 134.08,413.13 C134.386373,412.740157 134.62318,412.300372 134.78,411.83 C135.15,410.49 134.34,409.02 134.33,407.67 C134.321745,407.280809 134.411134,406.895752 134.59,406.55 C134.88,405.98 135.44,405.55 135.74,405.03 C136.059257,404.300976 136.156645,403.494047 136.02,402.71 C135.646667,397.676667 135.04,392.676667 134.2,387.71 C134.12,387.27 134.04,386.81 133.93,386.36 C133.78741,385.66076 133.541373,384.986684 133.2,384.36 C132.73,383.55 132.04,382.9 131.58,382.09 C131.119534,381.167607 131.119534,380.082393 131.58,379.16 C132.03,378.32 130.8,377.59 130.41,376.72 C130.242461,376.043209 130.205131,375.340735 130.3,374.65 C130.157639,373.480952 129.709198,372.3702 129,371.43 C128.12,370.04 127.24,368.66 126.34,367.29 C122.34,361.083333 118.17,354.983333 113.83,348.99 C111.77,346.12 109.66,343.26 107.53,340.44 C105.8,338.16 104.02,335.85 103.15,333.12 C102.996013,332.645745 102.875714,332.161206 102.79,331.67 C102.306945,329.048565 102.682183,326.341237 103.86,323.95 C105.025435,321.965796 106.363977,320.088491 107.86,318.34 C109.275821,316.195082 110.811598,314.131799 112.46,312.16 C114.140917,310.176164 116.555349,308.959926 119.15,308.79 C120.64,308.79 122.38,309.21 123.41,308.14 C123.79,307.76 123.99,307.25 124.41,306.88 C125.5,305.88 127.29,306.55 128.6,307.29 L153.78,321.52 L157.86,323.84 C158.6,324.28 159.36,324.72 160.1,325.17 C163.593406,327.209341 166.941413,329.488124 170.12,331.99 C174.78,335.73 179.95,339.17 184.01,343.55 C184.4,343.96 184.77,344.37 185.13,344.8 C185.863333,339.68 186.596667,334.553333 187.33,329.42 C187.600974,327.943077 187.698302,326.439532 187.62,324.94 C187.429803,323.466039 187.067325,322.019483 186.54,320.63 C186.38,320.13 186.21,319.63 186.05,319.13 C185.14,316.41 184.23,313.7 183.33,310.98 C182,306.98 180.58,302.85 177.58,299.91 C176.851456,299.289896 176.181929,298.60363 175.58,297.86 C175.58,297.86 175.58,297.86 175.58,297.86 C175.003329,297.10558 174.817877,296.122684 175.08,295.21 L196.29,301.83 C197.29,302.15 198.29,302.46 199.29,302.83 C200.463929,303.342698 201.561054,304.015781 202.55,304.83 C205.795459,307.412276 207.446977,311.5088 206.9,315.62 C206.69,316.95 206.23,318.21 205.95,319.52 C205.46,321.89 204.7,324.62 205.73,326.82 C206.76,329.02 207.73,330.96 208.66,333.03 C209.46446,334.607098 210.133531,336.249667 210.66,337.94 C211.239424,340.249393 211.471971,342.632154 211.35,345.01 C211.224262,350.31634 210.307503,355.574224 208.63,360.61 C208,362.2 207.37,363.82 206.87,365.48 Z" id="Path" fill="#454B69"></path>
                <polygon id="Path" fill="#3F3D56" points="163.59 377.4 213.88 372.67 222.67 371.68 214.59 374.54"></polygon>
                <polygon id="Path" fill="#3F3D56" points="162.46 379.84 162.46 376.05 215.77 373.42 218.37 375.65"></polygon>
                <path d="M162.63,372.63 C163.75,372.33 164.95,372.39 166.08,372.12 C167.55,371.77 168.87,370.87 170.37,370.68 C171.29482,370.606669 172.225414,370.674103 173.13,370.88 L180.03,372.08 C180.56,372.18 181.18,372.34 181.37,372.85 C181.472971,373.318296 181.311871,373.805432 180.95,374.12 C179.71,375.43 177.73,375.62 175.95,375.73 L171.14,376.02 C170.20309,376.005144 169.276572,376.2179 168.44,376.64 C167.608958,377.115608 167.2316,378.11351 167.54,379.02 C167.797767,379.456363 168.181118,379.804864 168.64,380.02 C170.556573,381.076015 172.760118,381.492902 174.93,381.21 C176.683288,380.876929 178.40342,380.388331 180.07,379.75 C184.301712,378.391726 188.76762,377.918585 193.19,378.36 C194.34,378.47 195.68,378.8 196.09,379.88 C196.310637,380.650635 196.138686,381.480485 195.63,382.1 C193.91,384.49 190.49,384.57 187.63,385.22 C184.89572,385.843902 182.365896,387.15528 180.28,389.03 C180.92,390.34 180.39,391.9 179.75,393.2 C179.026272,394.704499 178.162458,396.137493 177.17,397.48 C176.635773,398.313814 175.885964,398.987606 175,399.43 C174.41734,399.631539 173.806442,399.739543 173.19,399.75 C167.214694,400.102914 161.218625,399.767376 155.32,398.75 C154.683213,398.705154 154.078841,398.452161 153.6,398.03 C153.295829,397.624095 153.105916,397.144135 153.05,396.64 C152.44,393.64 151.9,390.64 151.44,387.57 C150.990694,385.667199 151.17323,383.669838 151.96,381.88 C152.7,380.49 153.86,380.04 155.04,379.1 C157.6,377.07 159.24,373.53 162.63,372.63 Z" id="Path" fill="#FBBEBE"></path>
                <path d="M227.58,310.09 L215.1,371.99 C214.893837,372.935375 215.156303,373.922148 215.804903,374.64017 C216.453503,375.358192 217.4086,375.719302 218.37,375.61 L265.44,370.99 C266.773139,370.871463 267.866502,369.884173 268.12,368.57 L279.65,311.28 C279.843035,310.382399 279.614421,309.445825 279.029534,308.738112 C278.444648,308.0304 277.567893,307.629478 276.65,307.65 L230.55,307.65 C229.100538,307.639025 227.850532,308.665966 227.58,310.09 Z" id="Path" fill="#3F3D56"></path>
                <path d="M251,383.78 C254,381.89 254.85,378.07 256.22,374.84 C257.319169,372.471541 258.582236,370.182651 260,367.99 C261.2,365.99 262.4,363.6 261.45,361.49 C260.700281,360.143792 259.461372,359.137626 257.99,358.68 C256.662591,358.042268 255.16304,357.856141 253.72,358.15 C252.1,358.59 250.9,359.93 249.81,361.2 L245.93,365.7 C244.267619,367.856004 242.268661,369.730028 240.01,371.25 C238.588879,372.039068 237.086878,372.672725 235.53,373.14 C232.75,374.06 229.93,374.87 227.08,375.55 C225.441262,375.869801 223.841949,376.366023 222.31,377.03 C221.689043,377.259945 221.185249,377.727753 220.91,378.33 C220.785486,379.080017 220.961537,379.848889 221.4,380.47 C222.4,382.3 223.51,386.03 225.56,386.68 C227.512403,387.162992 229.503333,387.474179 231.51,387.61 C233.51,387.82 235.02,387.02 236.79,386.27 C239.02205,385.421374 241.404596,385.040167 243.79,385.15 C245.83,385.11 249.39,385.4 251,383.78 Z" id="Path" fill="#FBBEBE"></path>
                <path d="M225.23,375.39 C225.23,375.39 227,387.3 238.1,385.99 C238.1,385.99 232.19,388.34 232.81,389.66 C233.43,390.98 219.11,387.09 219.11,387.09 L218.37,380.88 C218.37,380.88 217.9,377.45 218.37,377.36 C218.84,377.27 225.23,375.39 225.23,375.39 Z" id="Path" fill="#454B69"></path>
                <path d="M225.23,375.39 C225.23,375.39 227,387.3 238.1,385.99 C238.1,385.99 232.19,388.34 232.81,389.66 C233.43,390.98 219.11,387.09 219.11,387.09 L218.37,380.88 C218.37,380.88 217.9,377.45 218.37,377.36 C218.84,377.27 225.23,375.39 225.23,375.39 Z" id="Path" fill="#000000" opacity="0.1"></path>
                <path d="M173.93,325.62 C175.025153,326.170265 175.925523,327.042717 176.51,328.12 C177.44279,329.599319 178.147365,331.210739 178.6,332.9 C179.15,334.9 179.41,337.25 180.93,338.73" id="Path" fill="#000000" opacity="0.1"></path>
                <path d="M127.26,358.61 C128.07345,361.506701 127.736686,364.605649 126.32,367.26 C122.32,361.053333 118.15,354.953333 113.81,348.96 C111.75,346.09 109.64,343.23 107.51,340.41 C105.78,338.13 104,335.82 103.13,333.09 C102.976013,332.615745 102.855714,332.131206 102.77,331.64 C103.836509,330.052388 105.436506,328.899396 107.28,328.39 C110.2,336.86 117.6,342.93 122.9,350.17 C124.879402,352.678815 126.35945,355.543863 127.26,358.61 L127.26,358.61 Z" id="Path" fill="#000000" opacity="0.1"></path>
                <path d="M164.54,401.99 L147.02,402.59 C145.53,402.64 143.69,402.93 143.22,404.35 C143.08,404.8 143.1,405.29 142.96,405.74 C142.47,407.33 140.34,407.52 138.67,407.51 C137.22,407.51 135.77,407.57 134.33,407.68 C134.321745,407.290809 134.411134,406.905752 134.59,406.56 C134.88,405.99 135.44,405.56 135.74,405.04 C136.059257,404.310976 136.156645,403.504047 136.02,402.72 C135.646667,397.686667 135.04,392.686667 134.2,387.72 C134.12,387.28 134.04,386.82 133.93,386.37 C135.286826,385.475598 136.874917,384.996043 138.5,384.99 C139.94,385.15 141.26,385.99 142.7,385.92 C145.2,385.79 146.93,383 149.43,382.84 C149.963986,382.878932 150.500467,382.814418 151.01,382.65 C151.8,382.25 151.93,381.2 152.34,380.42 C152.94,379.26 154.62,378.98 155.89,379.28 C155.855267,381.929208 156.025777,384.577127 156.4,387.2 C156.525214,388.349029 156.793976,389.47783 157.2,390.56 C157.67694,391.655943 158.27392,392.695628 158.98,393.66 C160.86,396.46 162.66,399.17 164.54,401.99 Z" id="Path" fill="#000000" opacity="0.1"></path>
                <path d="M106.32,327.44 C103.21,328.22 101,331.14 100.09,334.22 C99.18,337.3 99.34,340.58 99.43,343.79 C99.736756,355.703263 98.9231786,367.618991 97,379.38 C96.08,385.02 94.9,390.68 95.25,396.38 C95.44,399.47 96.15,402.66 98.13,405.04 C101.26,408.78 106.7,409.55 111.58,409.36 C120.34,409.02 128.94,406.45 137.71,406.51 C139.38,406.51 141.5,406.32 142,404.73 C142.14,404.29 142.11,403.8 142.26,403.35 C142.72,401.93 144.56,401.63 146.06,401.58 L163.58,400.99 C161.7,398.22 159.9,395.5 158.02,392.73 C157.316521,391.762137 156.716568,390.723112 156.23,389.63 C155.82862,388.542974 155.560008,387.411446 155.43,386.26 C155.058758,383.640259 154.891589,380.995636 154.93,378.35 C153.66,378.06 151.93,378.35 151.37,379.48 C150.96,380.27 150.83,381.31 150.05,381.71 C149.539308,381.884659 148.997467,381.949408 148.46,381.9 C145.97,382.07 144.24,384.9 141.74,384.99 C140.3,385.06 138.97,384.21 137.54,384.06 C135.27,383.82 133.24,385.32 131.16,386.24 C127.711334,387.749774 123.788666,387.749774 120.34,386.24 C119.83,386.02 119.26,385.38 119.68,385 C120.1,384.62 120.43,384.94 120.77,384.78 C121.41,384.46 120.94,383.51 120.59,382.89 C119.59,381.1 120.29,378.89 121.26,377.03 C122.23,375.17 123.5,373.42 123.53,371.36 C123.468081,370.694771 123.468081,370.025229 123.53,369.36 C123.845297,368.420589 124.345076,367.553626 125,366.81 C126.699584,364.062809 127.164193,360.727064 126.28,357.62 C125.375248,354.556631 123.89183,351.695026 121.91,349.19 C116.65,341.99 109.25,335.91 106.32,327.44 Z" id="Path" fill="#454B69"></path>
                <path d="M153.71,321.49 L157.79,323.81 C156.539176,324.39038 155.257219,324.90116 153.95,325.34 C144.75,328.43 148.03,332.72 138.33,332.6 C131.72,332.53 124.18,332.02 119.55,336.74 C117.37,338.96 116.27,342 115.23,344.94 C114.75,346.28 114.28,347.62 113.81,348.94 C111.75,346.07 109.64,343.21 107.51,340.39 C105.78,338.11 104,335.8 103.13,333.07 C102.182391,330.035337 102.436559,326.75263 103.84,323.9 C105.005435,321.915796 106.343977,320.038491 107.84,318.29 C109.255821,316.145082 110.791598,314.081799 112.44,312.11 C114.120917,310.126164 116.535349,308.909926 119.13,308.74 C120.62,308.74 122.36,309.16 123.39,308.09 C123.77,307.71 123.97,307.2 124.39,306.83 C125.48,305.83 127.27,306.5 128.58,307.24 L153.71,321.49 Z" id="Path" fill="#000000" opacity="0.1"></path>
                <path d="M178.05,245.06 C177.915551,243.862277 177.619528,242.688276 177.17,241.57 C176.738954,240.708379 176.190385,239.910767 175.54,239.2 C171.253059,234.368719 165.118831,231.581425 158.66,231.53 C158.104068,231.493852 157.547099,231.582694 157.03,231.79 C156.90108,231.847626 156.780091,231.921564 156.67,232.01 C152.06,228.9 146.67,225.85 141.67,224.64 C138.201257,223.825845 134.585872,223.873913 131.14,224.78 C126.95,226.04 125.49,229.38 123.71,233.03 C120.846613,238.899518 116.491189,243.913601 111.08,247.57 C107.6,249.92 103.47,251.94 101.8,255.79 C100.24,259.38 101.3,263.5 101.67,267.4 C102.549857,278.102215 98.0199983,288.535528 89.6,295.2 C84.84,298.89 78.49,301.97 77.48,307.9 C76.76,312.12 79.13,316.17 80.92,320.06 C84.71,328.28 86.01,338.32 81.56,346.2 C80.29,348.44 78.56,350.49 77.91,352.97 C76.72,357.38 79.25,362.17 83.02,364.73 C86.79,367.29 91.54,367.99 96.1,367.97 C99.42,367.97 103.01,367.47 105.36,365.14 C106.82032,363.457991 107.883262,361.46882 108.47,359.32 C110.39,353.886667 112.313333,348.456667 114.24,343.03 C115.24,340.09 116.38,337.03 118.56,334.83 C123.18,330.11 130.73,330.61 137.33,330.69 C147.04,330.81 143.76,326.53 152.95,323.43 C158.35,321.61 164.22,318.51 165.48,312.95 C166.74,307.39 163,302.35 159.73,297.85 C157.276667,294.516667 154.963333,291.066667 152.79,287.5 C150.66,284.06 148.63,280.43 148.04,276.43 C147.04,269.78 163.19,266.07 165.61,259.8 C166.300642,258.03074 166.881741,256.220652 167.35,254.38 C168.51,254.29 169.58,254.18 170.35,254.15 C173.44,254.01 176.91,252.8 177.97,249.9 C178.401817,248.318859 178.429326,246.654548 178.05,245.06 L178.05,245.06 Z" id="Path" fill="#3F3D56"></path>
                <g id="Group" opacity="0.1" transform="translate(84.000000, 224.000000)" fill="#000000">
                    <path d="M66.9,5.58 C67.4195385,5.38232806 67.9751006,5.29711914 68.53,5.33 L68.76,5.33 C65.3488342,3.17953942 61.6435202,1.53572736 57.76,0.45 L56.83,0.26 C60.2345012,1.82664653 63.4995998,3.67999141 66.59,5.8 C66.6866671,5.71769885 66.7904021,5.64408051 66.9,5.58 Z" id="Path"></path>
                    <path d="M94.05,20.87 C93.9155511,19.6722767 93.6195281,18.4982763 93.17,17.38 C92.7414608,16.5169024 92.1926612,15.7189545 91.54,15.01 C88.1208357,11.1591701 83.5011302,8.57622258 78.43,7.68 C81.0914466,8.974177 83.4704766,10.7822399 85.43,13 C86.0867032,13.7020112 86.6359783,14.4972808 87.06,15.36 C87.5176703,16.4790832 87.8139665,17.6575338 87.94,18.86 C88.3258627,20.452875 88.3052308,22.1171799 87.88,23.7 C86.83,26.6 83.35,27.81 80.27,27.94 C79.52,27.94 78.44,28.09 77.27,28.17 C76.8032179,30.0143468 76.2220944,31.8278527 75.53,33.6 C73.11,39.86 56.99,43.6 57.97,50.23 C58.55,54.23 60.59,57.86 62.71,61.3 C64.83,64.74 67.21,68.3 69.65,71.65 C72.92,76.15 76.65,81.32 75.4,86.75 C74.15,92.18 68.28,95.41 62.88,97.23 C53.68,100.33 56.96,104.61 47.26,104.49 C40.65,104.41 33.1,103.91 28.48,108.63 C26.3,110.85 25.2,113.89 24.16,116.83 L18.39,133.12 C17.8011571,135.265927 16.7422398,137.253958 15.29,138.94 C12.93,141.27 9.34,141.75 6.03,141.76 C4.14479991,141.780495 2.26129215,141.639985 0.4,141.34 C3.92,143.25 8.11,143.8 12.15,143.78 C15.47,143.78 19.06,143.28 21.41,140.95 C22.8703199,139.267991 23.9332622,137.27882 24.52,135.13 C26.44,129.703333 28.3633333,124.273333 30.29,118.84 C31.29,115.9 32.43,112.84 34.61,110.64 C39.23,105.92 46.78,106.42 53.38,106.5 C63.09,106.62 59.81,102.34 69,99.24 C74.4,97.42 80.27,94.32 81.53,88.76 C82.79,83.2 79.05,78.16 75.78,73.66 C73.3266667,70.3266667 71.0133333,66.8766667 68.84,63.31 C66.71,59.87 64.68,56.24 64.09,52.24 C63.09,45.59 79.24,41.88 81.66,35.61 C82.3506422,33.8407403 82.9317406,32.030652 83.4,30.19 C84.56,30.1 85.63,29.99 86.4,29.96 C89.49,29.82 92.96,28.61 94.02,25.71 C94.4353647,24.124663 94.4456806,22.4603642 94.05,20.87 L94.05,20.87 Z" id="Path"></path>
                </g>
            </g>
        </g>
    </g>
</svg>