<?xml version="1.0" encoding="UTF-8"?>
<svg width="1144px" height="698px" viewBox="0 0 1144 698" version="1.1" xmlns="http://www.w3.org/2000/svg" xmlns:xlink="http://www.w3.org/1999/xlink">
    <!-- Generator: Sketch 53.2 (72643) - https://sketchapp.com -->
    <title>undraw_personal_settings_kihd</title>
    <desc>Created with Sketch.</desc>
    <defs>
        <linearGradient x1="49.9691814%" y1="100.009159%" x2="49.9691814%" y2="0.032662489%" id="linearGradient-1">
            <stop stop-color="#808080" stop-opacity="0.25" offset="0%"></stop>
            <stop stop-color="#808080" stop-opacity="0.12" offset="54%"></stop>
            <stop stop-color="#808080" stop-opacity="0.1" offset="100%"></stop>
        </linearGradient>
    </defs>
    <g id="Page-1" stroke="none" stroke-width="1" fill="none" fill-rule="evenodd">
        <g id="IllustrationUndraw" transform="translate(-3000.000000, -3000.000000)">
            <g id="undraw_personal_settings_kihd" transform="translate(3000.000000, 3000.000000)">
                <path d="M1144,415.31 C1144.06177,448.405777 1135.02601,480.881901 1117.88,509.19 C1117.88,543.81 1101.74,575.19 1075.56,598.06 C1069.00662,603.776244 1061.95142,608.890261 1054.48,613.34 C1054.18,613.53 1053.87,613.71 1053.56,613.89 C1053,614.22 1052.44,614.55 1051.87,614.89 L1051.34,615.2 L1051.34,615.2 C1026.5512,629.007279 998.614211,636.172376 970.24,636 L217.17,636 C211.17,636 205.223333,635.76 199.33,635.28 C178.386573,633.630482 157.806573,628.864658 138.27,621.14 C134.456667,619.633333 130.716667,618.013333 127.05,616.28 C125.303333,615.46 123.573333,614.616667 121.86,613.75 C120.79,613.21 119.72,612.65 118.66,612.09 C106.340031,605.597789 94.7820194,597.752697 84.2,588.7 C50.2,559.47 29.12,519.09 29.12,474.49 C10.0474484,445.121108 -0.0702382125,410.838411 -3.55271368e-14,375.82 C-3.55271368e-14,276.68 79.24,196.31 177,196.31 C180,196.31 183,196.4 186,196.56 C186.43,196.56 186.85,196.56 187.28,196.62 C203.76,168.53 225.79,142.72 252.28,120 C324.52,58.1 430.1,19.08 547.71,19.08 C646.53,19.08 736.86,46.63 806.05,92.15 C832.268587,77.3288638 861.882252,69.5593681 892,69.6 C989.74,69.6 1069,149.97 1069,249.11 C1068.98545,255.38291 1068.65168,261.651016 1068,267.89 C1115.81237,301.735681 1144.1642,356.730769 1144,415.31 Z" id="Path" fill="#254095" fill-rule="nonzero" opacity="0.1"></path>
                <g id="Group" opacity="0.2" transform="translate(79.000000, 350.000000)" fill-rule="nonzero">
                    <path d="M59.37,269.79 C59.37,270.25 59.32,270.7 59.27,271.14 C55.4566667,269.633333 51.7166667,268.013333 48.05,266.28 C46.0912321,266.022407 44.2694985,265.134355 42.86,263.75 C41.79,263.21 40.72,262.65 39.66,262.09 C39.9000217,261.587295 40.1705254,261.099721 40.47,260.63 C42.53,257.37 45.66,255.33 49.11,255.44 C52.56,255.55 55.55,257.78 57.4,261.15 C58.8148754,263.802987 59.4950084,266.785905 59.37,269.79 L59.37,269.79 Z" id="Path" fill="#3F3D56"></path>
                    <path d="M59.91,252.67 C59.841825,255.669501 58.9754224,258.59663 57.4,261.15 C55.34,264.4 52.21,266.44 48.76,266.33 L48.05,266.28 C46.0912321,266.022407 44.2694985,265.134355 42.86,263.75 C41.9041728,262.842195 41.0975863,261.789246 40.47,260.63 C37.6639058,255.21697 37.868347,248.735426 41.01,243.51 C43.07,240.25 46.2,238.21 49.65,238.32 C53.1,238.43 56.09,240.66 57.94,244.03 C59.3548754,246.682987 60.0350084,249.665905 59.91,252.67 Z" id="Path" fill="#3F3D56"></path>
                    <ellipse id="Oval" fill="#3F3D56" transform="translate(49.758605, 235.242292) rotate(-88.190000) translate(-49.758605, -235.242292) " cx="49.7586053" cy="235.242292" rx="14.01" ry="10.7"></ellipse>
                    <ellipse id="Oval" fill="#3F3D56" transform="translate(50.294203, 218.121823) rotate(-88.190000) translate(-50.294203, -218.121823) " cx="50.2942032" cy="218.121823" rx="14.01" ry="10.7"></ellipse>
                    <ellipse id="Oval" fill="#3F3D56" transform="translate(50.914900, 199.889100) rotate(-88.281642) translate(-50.914900, -199.889100) " cx="50.9149" cy="199.8891" rx="14.0163031" ry="10.7048139"></ellipse>
                    <path d="M14.47,82.55 C13.0617587,80.6432553 11.7918453,78.6381289 10.67,76.55 L38.93,72.82 L8.51,72.09 C3.02359429,59.0764441 3.13571068,44.3783463 8.82,31.45 L48.94,53.9 L12.19,25.05 C22.2954937,8.70551926 40.6908404,-0.617441717 59.8473079,0.896760115 C79.0037754,2.41096195 95.7059884,14.5081708 103.11817,32.2373168 C110.530351,49.9664629 107.408381,70.351744 95.03,85.05 C97.2182465,88.0172348 99.0790722,91.2124904 100.58,94.58 L63.49,112.39 L102.82,100.56 C107.851964,117.163397 104.15811,135.185044 93,148.47 C108.870168,170.002224 105.523865,200.1162 85.3138375,217.639147 C65.1038094,235.162094 34.8195305,234.207252 15.7535189,215.445959 C-3.31249259,196.684666 -4.75508995,166.4197 12.44,145.93 C-1.60111757,126.873789 -0.774649797,100.683025 14.44,82.55 L14.47,82.55 Z" id="Path" fill="#254095"></path>
                    <path d="M105,117.13 C104.645304,128.630317 100.416805,139.673746 93,148.47 C108.870168,170.002224 105.523865,200.1162 85.3138375,217.639147 C65.1038094,235.162094 34.8195305,234.207252 15.7535189,215.445959 C-3.31249259,196.684666 -4.75508995,166.4197 12.44,145.93 C5.87,137 105.18,111.37 105,117.13 Z" id="Path" fill="#000000" opacity="0.1"></path>
                </g>
                <path d="M958,138.41 L958,617.59 C958,627.757562 949.757562,636 939.59,636 L204.41,636 C202.691097,636.002031 200.98064,635.759604 199.33,635.28 C191.433554,633.023574 185.99224,625.802506 186,617.59 L186,403.75 C186,402.66 186,401.58 186,400.5 L186,196.56 C186.43,196.56 186.85,196.56 187.28,196.62 C203.76,168.53 225.79,142.72 252.28,120 L939.59,120 C949.757562,120 958,128.242438 958,138.41 Z" id="Path" fill="#FFFFFF" fill-rule="nonzero"></path>
                <rect id="Rectangle" fill="#3F3D56" fill-rule="nonzero" x="712.17" y="182.23" width="137.83" height="35.96" rx="17.98"></rect>
                <rect id="Rectangle" fill="#000000" fill-rule="nonzero" opacity="0.1" x="721.15" y="188.24" width="119.86" height="23.93" rx="11.965"></rect>
                <rect id="Rectangle" fill="#254095" fill-rule="nonzero" x="794.73" y="189.55" width="43.28" height="21.31" rx="10.65"></rect>
                <circle id="Oval" fill="#FFFFFF" fill-rule="nonzero" cx="816.04" cy="200.21" r="6.66"></circle>
                <rect id="Rectangle" fill="#3F3D56" fill-rule="nonzero" x="712.17" y="419.28" width="137.83" height="35.96" rx="17.98"></rect>
                <rect id="Rectangle" fill="#000000" fill-rule="nonzero" opacity="0.1" x="721.15" y="425.29" width="119.86" height="23.93" rx="11.965"></rect>
                <rect id="Rectangle" fill="#254095" fill-rule="nonzero" x="794.73" y="426.6" width="43.28" height="21.31" rx="10.65"></rect>
                <circle id="Oval" fill="#FFFFFF" fill-rule="nonzero" cx="816.04" cy="437.26" r="6.66"></circle>
                <rect id="Rectangle" fill="#3F3D56" fill-rule="nonzero" x="712.17" y="537.8" width="137.83" height="35.96" rx="17.98"></rect>
                <rect id="Rectangle" fill="#000000" fill-rule="nonzero" opacity="0.1" x="721.15" y="543.82" width="119.86" height="23.93" rx="11.965"></rect>
                <rect id="Rectangle" fill="#254095" fill-rule="nonzero" x="794.73" y="545.13" width="43.28" height="21.31" rx="10.65"></rect>
                <circle id="Oval" fill="#FFFFFF" fill-rule="nonzero" cx="816.04" cy="555.78" r="6.66"></circle>
                <rect id="Rectangle" fill="#254095" fill-rule="nonzero" x="294" y="159.59" width="80.57" height="21.31" rx="10.65"></rect>
                <rect id="Rectangle" fill="#254095" fill-rule="nonzero" x="294" y="189.55" width="223.73" height="21.31" rx="10.65"></rect>
                <rect id="Rectangle" fill="#254095" fill-rule="nonzero" x="294" y="219.52" width="223.73" height="21.31" rx="10.65"></rect>
                <g id="Group" opacity="0.5" transform="translate(294.000000, 278.000000)" fill="#254095" fill-rule="nonzero">
                    <rect id="Rectangle" x="0" y="0.11" width="80.57" height="21.31" rx="10.65"></rect>
                    <rect id="Rectangle" x="0" y="30.08" width="167" height="21.31" rx="10.65"></rect>
                    <rect id="Rectangle" x="0" y="60.04" width="223.73" height="21.31" rx="10.65"></rect>
                </g>
                <rect id="Rectangle" fill="#254095" fill-rule="nonzero" x="294" y="396.64" width="80.57" height="21.31" rx="10.65"></rect>
                <rect id="Rectangle" fill="#254095" fill-rule="nonzero" x="294" y="426.6" width="223.73" height="21.31" rx="10.65"></rect>
                <rect id="Rectangle" fill="#254095" fill-rule="nonzero" x="294" y="456.57" width="139" height="21.31" rx="10.65"></rect>
                <rect id="Rectangle" fill="#254095" fill-rule="nonzero" x="294" y="515.16" width="80.57" height="21.31" rx="10.65"></rect>
                <rect id="Rectangle" fill="#254095" fill-rule="nonzero" x="294" y="545.13" width="223.73" height="21.31" rx="10.65"></rect>
                <rect id="Rectangle" fill="#254095" fill-rule="nonzero" x="294" y="575.09" width="180" height="21.31" rx="10.65"></rect>
                <path d="M260,259.99 L912,259.99" id="Path" stroke="#3F3D56" opacity="0.7" stroke-linecap="round"></path>
                <path d="M260,380.49 L912,380.49" id="Path" stroke="#3F3D56" opacity="0.7" stroke-linecap="round"></path>
                <path d="M260,500.99 L912,500.99" id="Path" stroke="#3F3D56" opacity="0.7" stroke-linecap="round"></path>
                <path d="M260,624.49 L912,624.49" id="Path" stroke="#3F3D56" opacity="0.7" stroke-linecap="round"></path>
                <ellipse id="Oval" fill="#254095" fill-rule="nonzero" opacity="0.1" cx="795" cy="687.49" rx="147.68" ry="10.5"></ellipse>
                <circle id="Oval" fill="#254095" fill-rule="nonzero" opacity="0.1" cx="70.52" cy="141.18" r="21.63"></circle>
                <circle id="Oval" fill="#254095" fill-rule="nonzero" opacity="0.1" cx="160.67" cy="21.63" r="21.63"></circle>
                <circle id="Oval" fill="#254095" fill-rule="nonzero" opacity="0.1" cx="153.34" cy="103.76" r="36.25"></circle>
                <rect id="Rectangle" fill="#3F3D56" fill-rule="nonzero" x="712.17" y="300.75" width="137.83" height="35.96" rx="17.98"></rect>
                <rect id="Rectangle" fill="#000000" fill-rule="nonzero" opacity="0.1" x="721.15" y="306.77" width="119.86" height="23.93" rx="11.965"></rect>
                <path d="M725.17,661 C726.74,660.77 728.31,660.45 729.85,660.09 C729.64874,661.630742 729.203149,663.129549 728.53,664.53 C727,667.43 724.01,669.18 721.26,670.96 C720.478758,670.229849 719.291541,670.150423 718.42,670.77 C715.11,672.77 712.47,675.59 708.96,677.31 C707.73,677.91 706.45,678.39 705.25,679.06 C702.338573,680.833978 699.928961,683.322763 698.25,686.29 C697.25,687.84 696.44,689.88 697.42,691.42 C697.795868,691.94109 698.280352,692.374396 698.84,692.69 C700.265162,693.684472 701.972975,694.192959 703.71,694.14 C704.71,694.05 705.71,693.67 706.8,693.5 C708.17,693.26 709.57,693.38 710.95,693.26 C712.951905,693.001581 714.913732,692.494327 716.79,691.75 L723.66,689.35 C725.600143,688.722977 727.48907,687.947347 729.31,687.03 C730.4,686.44 731.43,685.75 732.54,685.21 C733.788934,684.655948 735.079598,684.201207 736.4,683.85 L740.3,682.71 C740.860284,682.495472 741.463403,682.416656 742.06,682.48 C742.6,682.58 743.06,682.92 743.61,683.06 C744.449635,683.209272 745.314098,683.126284 746.11,682.82 L750.63,681.54 C751.584328,681.323904 752.4943,680.945031 753.32,680.42 C755.39,678.95 755.76,676.03 755.75,673.48 C755.739755,669.617193 755.30379,665.767283 754.45,662 C753.871339,662.235041 753.364466,662.617781 752.98,663.11 C752.518505,662.459436 752.021065,661.835132 751.49,661.24 C749.407734,658.818171 747.869738,655.977483 746.98,652.91 C748.612417,651.697092 749.974617,650.157806 750.98,648.39 C748.59,639.28 746.14,630.03 741.28,621.99 C739.69,619.37 737.87,616.91 736.28,614.33 C731.55,606.83 730.58,597.33 725.17,590.33 C724.115697,588.874166 724.115697,586.905834 725.17,585.45 C725.79,584.63 726.79,583.86 726.6,582.84 C726.46,582.11 725.7,581.44 725.99,580.76 C726.13,580.43 726.47,580.25 726.73,580.01 C727.65,579.15 727.53,577.7 727.62,576.44 C727.82,573.26 729.71,570.44 731.53,567.88 C731.89898,567.267531 732.388959,566.73672 732.97,566.32 C733.46,566.02 734.04,565.88 734.53,565.58 C736.25,564.49 736.13,561.96 736.95,560.08 C738.03,557.6 740.75,556.35 742.53,554.34 C744.8,551.78 745.38,548.22 747.77,545.99 C748.015157,545.755159 748.279399,545.54109 748.56,545.35 C747.523243,549.143569 747.048193,553.06863 747.15,557 C746.92,570.53 750.28,584.53 748.71,598 C747.47,608.66 753.98,619.29 763.21,624.62 C766.824401,626.547137 770.602521,628.150077 774.5,629.41 C780.28,631.48 786.04,633.61 791.71,635.99 C795.71,637.67 799.656667,639.473333 803.55,641.4 C808.35493,643.747359 813.028512,646.35455 817.55,649.21 C823.11,652.78 828.68,656.4 832.63,661.73 C835.046992,661.607162 837.369597,660.75275 839.29,659.28 C840.81,660.48 842.65,661.39 844.08,662.72 C846.054571,664.777553 847.376662,667.373026 847.88,670.18 L847.28,670.18 C847.35,671.51 847.41,672.84 847.48,674.18 C847.532588,674.520832 847.480273,674.869597 847.33,675.18 C847.185105,675.378275 847.001377,675.544991 846.79,675.67 L843.71,677.76 C841.47,679.27 839,681.18 838.88,683.89 C838.817648,684.678538 839.057131,685.461324 839.55,686.08 C840.303692,686.781042 841.265891,687.21649 842.29,687.32 C847.65,688.45 853.14,689.55 858.57,688.82 C861.15,688.47 863.82,687.62 865.5,685.62 C867.04,683.8 867.5,681.33 867.92,678.98 C868.59,674.98 869.15,670.89 869.59,666.83 C869.725024,664.070638 870.284943,661.348624 871.25,658.76 C871.324694,658.534667 871.477115,658.343255 871.68,658.22 C871.91,658.12 872.18,658.22 872.42,658.12 C872.66,658.02 872.82,657.65 872.9,657.35 C873.890145,653.400843 874.370717,649.341188 874.33,645.27 C874.377013,644.212636 874.217367,643.156252 873.86,642.16 C873.003828,640.470977 871.431231,639.258461 869.58,638.86 C867.757752,638.489545 865.908249,638.268808 864.05,638.2 C862.498938,638.050738 860.963396,637.769723 859.46,637.36 C858.851299,637.12982 858.197437,637.044236 857.55,637.11 C856.88477,637.200176 856.388926,637.768686 856.39,638.44 C856.424805,638.670774 856.506482,638.891981 856.63,639.09 L855.07,638.78 C853.81,638.55 852.07,638 850.18,637.54 C850.18,637.22 850.2,636.886667 850.24,636.54 C850.248473,635.810073 849.835843,635.140522 849.18,634.82 L822.76,620.7 L817.82,618.06 C807,612.27 795.82,606.92 784.97,601.13 C784.25,601.35 783.65,600.52 783.44,599.78 C783.23,599.04 783.08,598.16 782.39,597.83 C782.05,597.67 781.6,597.68 781.39,597.39 C781.211249,597.130225 781.142913,596.810123 781.2,596.5 C781.55,591.23 785.32,586.37 784.57,581.15 C784.25,578.92 783.1,576.72 783.57,574.53 C783.92,573.02 785,571.79 785.57,570.35 C786.87,567.13 785.57,563.26 786.99,560.11 C787.93636,558.039626 788.579629,555.843754 788.9,553.59 C789.569696,549.098843 790.918446,544.735636 792.9,540.65 C793.857481,538.589048 795.110694,536.678908 796.62,534.98 C797.41,534.12 798.3,533.35 799.06,532.46 C801.36,529.71 802.21,526.05 802.86,522.46 C804.04,516.05 804.86,509.4 803.38,503.04 C802.88,500.88 802.12,498.73 802.15,496.51 C802.15,493.85 803.22,490.8 801.93,488.67 C803.258832,487.603002 804.145793,486.08199 804.42,484.4 C804.4388,483.794797 804.557046,483.196811 804.77,482.63 C805.209354,482.013068 805.779618,481.500855 806.44,481.13 C808.545413,479.523595 809.547521,476.855192 809.02,474.26 C810.39,474.88 811.83,473.49 812.48,472.12 C813.13,470.75 813.62,469.12 815.01,468.5 C815.95,468.1 817.01,468.34 818.01,468.08 C819.6,467.67 820.57,466.08 821.69,464.91 C823.97,462.45 827.2,461.18 830.19,459.67 C839.05,455.16 846.27,448.03 853.34,441.01 C857.027014,437.586332 860.3758,433.815599 863.34,429.75 C864.13,428.58 864.85,427.37 865.53,426.13 L865.71,426.04 L865.77,426.26 C865.88,426.7 866.01,427.14 866.14,427.57 C866.46,428.57 866.82,429.64 867.14,430.66 C868.22,433.66 869.39,436.86 871.59,439.13 C872.264725,439.822336 873.032,440.417984 873.87,440.9 C875.687952,441.876529 877.684664,442.475202 879.74,442.66 C880.52,442.76 881.31,442.82 882.1,442.86 C882.89,442.9 883.68,442.93 884.46,442.95 L900.64,443.38 C895.08,435.32 894.64,424.84 895.01,415.03 C895.94,389.83 900.85,364.4 896.29,339.6 C895.74,336.6 895.01,333.6 893.18,331.19 C890.78,328.04 886.84,326.52 883,325.63 C879.16,324.74 875.17,324.31 871.58,322.7 C868.58,321.33 865.82,319.13 862.58,318.41 C860.192806,318.010023 857.752539,318.050694 855.38,318.53 C852.46,318.963333 849.556667,319.476667 846.67,320.07 L845.97,320.22 L846,320.22 L845.52,320.33 L845.39,320.33 L844.96,320.43 L844.8,320.43 L844.4,320.54 L844.22,320.59 L843.85,320.71 L843.64,320.78 L843.3,320.89 L843.08,320.98 L842.76,321.1 L842.52,321.2 L842.23,321.33 L841.99,321.45 L841.72,321.58 L841.48,321.72 L841.23,321.86 L840.99,322.02 L840.76,322.17 L840.52,322.34 L840.32,322.5 L840.09,322.7 L839.9,322.87 C839.821638,322.941693 839.748141,323.01853 839.68,323.1 L839.51,323.27 C839.431187,323.358895 839.357725,323.452393 839.29,323.55 C839.29,323.6 839.2,323.65 839.16,323.71 C839.12,323.77 838.98,323.97 838.89,324.12 L838.89,324.18 C838.664382,324.555721 838.479981,324.954699 838.34,325.37 C838.27,325.58 838.2,325.79 838.15,326 C838.046774,326.427741 837.973265,326.862112 837.93,327.3 C837.93,327.52 837.93,327.75 837.88,327.97 C837.88,328.41 837.88,328.86 837.88,329.3 C837.920341,330.05084 838.003812,330.798741 838.13,331.54 C830.920767,335.80049 826.403937,343.464038 826.168427,351.834781 C825.932918,360.205525 830.011718,368.110909 836.97,372.77 C837.018285,373.164917 837.044992,373.562174 837.05,373.96 L837.05,374.22 C836.994008,375.634649 836.847037,377.044228 836.61,378.44 C832.657324,377.672429 828.636122,377.313872 824.61,377.37 C822.21,377.37 819.79,377.59 817.37,377.78 C814.776047,374.650711 812.358947,371.378947 810.13,367.98 L804.79,360.15 C802.956175,357.591523 801.286168,354.919512 799.79,352.15 C798.48,349.61 797.46,346.91 796,344.45 C793,339.38 788.1,335.07 787.49,329.2 L786.08,329.49 C785.31,328.23 784.34,326.9 783.98,326.17 C782.048764,322.004137 780.560594,317.646882 779.54,313.17 C779.05,310.85 778.68,308.43 777.41,306.43 C776.544284,305.180591 775.495939,304.068199 774.3,303.13 C772.371154,301.314214 770.109733,299.888093 767.64,298.93 C765.411748,298.120026 762.948106,298.264733 760.83,299.33 C760.504094,299.1788 760.170277,299.045273 759.83,298.93 C757.317152,297.973954 754.496067,298.302334 752.27,299.81 C750.17,301.42 749.27,304.18 748.95,306.81 C748.397048,310.44923 749.020671,314.169947 750.73,317.43 C752.73,321.01 756.31,323.43 759.27,326.27 C761.330011,328.265432 763.133855,330.50932 764.64,332.95 C765.104403,338.351833 764.966892,343.788551 764.23,349.16 C763.85,351.46 763.23,353.72 763.05,356.04 C762.32,364.42 766.68,372.8 765.12,381.04 C764.592157,383.578969 765.727291,386.174132 767.95,387.51 C770.19,388.72 772.81,388.88 775.27,389.51 C780.1,390.75 784.27,393.84 789.15,394.99 C791.4,395.53 793.74,395.63 795.98,396.23 L796.33,396.34 C794.604389,398.293 793.373181,400.631953 792.74,403.16 C791.74,407.36 792.68,411.85 791.68,416.05 C790.86,419.51 788.8,422.53 786.77,425.46 C782.863333,431.113333 778.95,436.78 775.03,442.46 C772.410362,446.443557 769.520228,450.242495 766.38,453.83 C760.99,459.72 751.69,464.39 748.95,471.47 C748.89,471.3 748.81,471.13 748.75,470.96 C744.87,473.81 743.42,479.12 740.33,482.81 C738.82,484.6 736.96,486.05 735.33,487.71 C733.310607,489.852525 731.461651,492.149511 729.8,494.58 C725.2,500.96 720.57,507.37 717.28,514.52 C715.56,518.24 714.23,522.11 712.86,525.96 C707.48,541.13 698.7,555.52 695.05,571.21 C694.16,575.04 691.83,578.5 691.48,582.42 C691.09,586.6 693,590.62 694.98,594.31 C697.98,599.95 701.32,605.43 703.98,611.23 C705.55,614.61 706.91,618.1 708.66,621.4 C710.57,625 712.91,628.34 714.91,631.89 C719.78,641 722.58,651.07 725.17,661 Z M791.33,374.45 L790.85,374.21 C789.056724,373.434312 787.414769,372.347575 786,371 C781.69,366.4 779.84,359.47 778.49,353.28 C778.33,352.54 778.19,351.81 778.06,351.07 C783.29,358.5 788.23,366.18 791.33,374.47 L791.33,374.45 Z" id="Shape" fill="url(#linearGradient-1)" fill-rule="nonzero"></path>
                <path d="M771.68,314.4 C771.19,312.09 770.83,309.69 769.56,307.71 C768.69002,306.466677 767.638298,305.36102 766.44,304.43 C764.50007,302.626157 762.232539,301.210647 759.76,300.26 C757.246844,299.316401 754.433123,299.640202 752.2,301.13 C750.09,302.73 749.2,305.47 748.87,308.13 C748.317441,311.74655 748.941436,315.444947 750.65,318.68 C752.7,322.24 756.24,324.62 759.21,327.46 C761.367042,329.540249 763.242931,331.893515 764.79,334.46 C765.495403,335.790774 766.34736,337.038522 767.33,338.18 C768.33743,339.313749 769.818057,339.909701 771.33,339.79 C772.576999,339.46023 773.708635,338.792322 774.6,337.86 C775.82,336.79 779.1,334.86 779.2,333.19 C779.28,331.82 776.72,328.72 776.09,327.43 C774.166104,323.253743 772.687932,318.886264 771.68,314.4 Z" id="Path" fill="#FBBEBE" fill-rule="nonzero"></path>
                <path d="M771.68,314.4 C771.19,312.09 770.83,309.69 769.56,307.71 C768.69002,306.466677 767.638298,305.36102 766.44,304.43 C764.50007,302.626157 762.232539,301.210647 759.76,300.26 C757.246844,299.316401 754.433123,299.640202 752.2,301.13 C750.09,302.73 749.2,305.47 748.87,308.13 C748.317441,311.74655 748.941436,315.444947 750.65,318.68 C752.7,322.24 756.24,324.62 759.21,327.46 C761.367042,329.540249 763.242931,331.893515 764.79,334.46 C765.495403,335.790774 766.34736,337.038522 767.33,338.18 C768.33743,339.313749 769.818057,339.909701 771.33,339.79 C772.576999,339.46023 773.708635,338.792322 774.6,337.86 C775.82,336.79 779.1,334.86 779.2,333.19 C779.28,331.82 776.72,328.72 776.09,327.43 C774.166104,323.253743 772.687932,318.886264 771.68,314.4 Z" id="Path" fill="#000000" fill-rule="nonzero" opacity="0.1"></path>
                <path d="M840.85,380.23 C835.575503,378.816273 830.129982,378.143155 824.67,378.23 C815.56,378.36 806.18,380.57 797.5,377.77 C795.267437,377.009663 793.094736,376.083758 791,375 C789.204771,374.23119 787.559485,373.15126 786.14,371.81 C781.82,367.24 779.96,360.35 778.62,354.21 C777.436127,348.031648 776.750588,341.768162 776.57,335.48 C774.32,336.53 771.94,337.56 769.47,337.35 C767,337.14 764.47,335.24 764.47,332.76 C764.84,338.58 765.11,344.47 764.14,350.21 C763.76,352.49 763.14,354.74 762.97,357.04 C762.23,365.37 766.6,373.69 765.04,381.9 C764.503467,384.426027 765.643388,387.011995 767.87,388.32 C770.11,389.53 772.74,389.68 775.2,390.32 C780.03,391.55 784.2,394.62 789.1,395.77 C791.35,396.3 793.7,396.4 795.94,397 C799.13,397.85 802.04,399.68 805.3,400.25 C807.74,400.69 810.3,400.39 812.73,400.6 C814.88,400.78 816.98,401.34 819.14,401.4 C824.42,401.53 829.4,398.55 832.9,394.59 C836.4,390.63 838.63,385 840.85,380.23 Z" id="Path" fill="#F86D70" fill-rule="nonzero"></path>
                <path d="M840.85,380.23 C835.575503,378.816273 830.129982,378.143155 824.67,378.23 C815.56,378.36 806.18,380.57 797.5,377.77 C795.267437,377.009663 793.094736,376.083758 791,375 C789.204771,374.23119 787.559485,373.15126 786.14,371.81 C781.82,367.24 779.96,360.35 778.62,354.21 C777.436127,348.031648 776.750588,341.768162 776.57,335.48 C774.32,336.53 771.94,337.56 769.47,337.35 C767,337.14 764.47,335.24 764.47,332.76 C764.84,338.58 765.11,344.47 764.14,350.21 C763.76,352.49 763.14,354.74 762.97,357.04 C762.23,365.37 766.6,373.69 765.04,381.9 C764.503467,384.426027 765.643388,387.011995 767.87,388.32 C770.11,389.53 772.74,389.68 775.2,390.32 C780.03,391.55 784.2,394.62 789.1,395.77 C791.35,396.3 793.7,396.4 795.94,397 C799.13,397.85 802.04,399.68 805.3,400.25 C807.74,400.69 810.3,400.39 812.73,400.6 C814.88,400.78 816.98,401.34 819.14,401.4 C824.42,401.53 829.4,398.55 832.9,394.59 C836.4,390.63 838.63,385 840.85,380.23 Z" id="Path" fill="#000000" fill-rule="nonzero" opacity="0.1"></path>
                <path d="M855.31,637.67 C856.941711,637.872279 858.523639,638.366843 859.98,639.13 C861.879733,640.480399 863.301422,642.399329 864.04,644.61 C866.22,649.99 866.67,655.91 866.77,661.72 C866.85,666.41 866.69,671.21 865.01,675.59 C864.551093,676.971962 863.757534,678.218982 862.7,679.22 C861.762316,679.95482 860.677926,680.479965 859.52,680.76 C857.01,681.45 854.11,681.44 852.06,679.84 C849.78,678.06 849.21,674.91 848.73,672.06 C848.08,668.22 847.16,664.13 844.3,661.48 C842.18,659.48 839.14,658.48 837.6,656.06 C835.76,653.15 836.73,649.35 837.9,646.11 C838.9,643.3 840.41,637.61 843.35,636.17 C846.29,634.73 852.26,637.12 855.31,637.67 Z" id="Path" fill="#FBBEBE" fill-rule="nonzero"></path>
                <path d="M747,651.47 C747.881686,654.609196 749.445572,657.515018 751.58,659.98 C752.88,661.48 754.51,663.3 753.83,665.16 C753.543568,665.792136 753.124006,666.354964 752.6,666.81 C742.94,676.25 729.43,680.81 716.03,682.53 C715.816885,682.585481 715.593115,682.585481 715.38,682.53 C714.99,682.36 714.89,681.86 714.85,681.43 C714.630002,680.035289 714.630002,678.614711 714.85,677.22 C715.5,673.95 718.37,671.64 721.18,669.83 C723.99,668.02 727.06,666.28 728.62,663.33 C730.57,659.67 729.75,654.9 732.07,651.47 C733.95,648.68 737.45,647.47 740.78,646.97 C741.93,646.79 744.38,645.53 745.36,646.11 C746.34,646.69 746.66,650.32 747,651.47 Z" id="Path" fill="#FBBEBE" fill-rule="nonzero"></path>
                <path d="M856.63,637.33 C856.629542,636.660837 857.126325,636.095532 857.79,636.01 C858.436601,635.946355 859.089246,636.028363 859.7,636.25 C861.202018,636.667801 862.737975,636.952237 864.29,637.1 C866.151329,637.164879 868.004204,637.382274 869.83,637.75 C871.679749,638.137731 873.255918,639.339146 874.12,641.02 C874.476577,642.012986 874.63622,643.065945 874.59,644.12 C874.631044,648.164834 874.150416,652.198081 873.16,656.12 C873.08,656.42 872.96,656.77 872.67,656.88 C872.38,656.99 872.17,656.88 871.94,656.99 C871.730591,657.105693 871.575863,657.300002 871.51,657.53 C870.541769,660.093908 869.978363,662.792857 869.84,665.53 C869.4,669.53 868.84,673.59 868.17,677.59 C867.78,679.93 867.29,682.39 865.75,684.19 C864.06,686.19 861.39,687.02 858.81,687.37 C853.37,688.09 847.88,687 842.51,685.88 C841.484532,685.77783 840.51973,685.3463 839.76,684.65 C839.266861,684.03535 839.027187,683.255516 839.09,682.47 C839.21,679.78 841.69,677.88 843.92,676.38 L847.01,674.31 C847.225315,674.190407 847.410114,674.022719 847.55,673.82 C847.70214,673.510178 847.754543,673.160825 847.7,672.82 L847.5,668.82 C851.669206,668.89446 855.460548,671.253005 857.37,674.96 C857.79,675.81 858.2,676.8 859.08,677.13 C860.269692,677.402095 861.460516,676.680518 861.77,675.5 C862.034858,674.354428 862.003886,673.160302 861.68,672.03 C859.87,662.36 860.3,652.42 859.2,642.65 C859.129639,641.549587 858.785933,640.484099 858.2,639.55 C857.73,638.88 856.74,638.23 856.63,637.33 Z" id="Path" fill="#F86D70" fill-rule="nonzero"></path>
                <rect id="Rectangle" fill="#254095" fill-rule="nonzero" transform="translate(745.790000, 318.735000) rotate(180.000000) translate(-745.790000, -318.735000) " x="724.15" y="308.08" width="43.28" height="21.31" rx="10.65"></rect>
                <circle id="Oval" fill="#FFFFFF" fill-rule="nonzero" cx="746.12" cy="318.73" r="6.66"></circle>
                <path d="M722.11,674.82 C721.66,675.57 720.95,676.15 720.53,676.92 C720.03734,677.677617 720.182812,678.683084 720.87,679.27 C721.319841,679.466816 721.820528,679.515834 722.3,679.41 C731.958796,678.203959 741.024579,674.096462 748.3,667.63 C749.510486,666.610244 750.582857,665.437024 751.49,664.14 C752.34,662.85 753.06,661.27 754.49,660.73 C755.360315,664.485092 755.809752,668.325425 755.83,672.18 C755.83,674.72 755.47,677.61 753.4,679.08 C752.568897,679.597137 751.655871,679.969111 750.7,680.18 L746.18,681.46 C745.37956,681.761773 744.513123,681.844619 743.67,681.7 C743.14,681.56 742.67,681.22 742.12,681.12 C741.523403,681.056656 740.920284,681.135472 740.36,681.35 L736.45,682.49 C735.128443,682.833234 733.83741,683.284761 732.59,683.84 C731.47,684.37 730.44,685.05 729.35,685.64 C727.526754,686.554319 725.634216,687.323372 723.69,687.94 L716.82,690.33 C714.938052,691.065406 712.973618,691.569107 710.97,691.83 C709.59,691.95 708.18,691.83 706.81,692.06 C705.81,692.24 704.81,692.62 703.71,692.7 C701.974367,692.753746 700.267309,692.24899 698.84,691.26 C698.282985,690.945009 697.799026,690.515581 697.42,690 C696.42,688.47 697.29,686.45 698.25,684.9 C699.94137,681.955304 702.349186,679.485573 705.25,677.72 C706.45,677.06 707.74,676.58 708.97,675.98 C712.48,674.28 715.13,671.44 718.44,669.5 C721.57,667.67 723.58,672.4 722.11,674.82 Z" id="Path" fill="#F86D70" fill-rule="nonzero"></path>
                <path d="M818.69,397.94 C822.324232,400.433503 826.486086,402.052382 830.85,402.67 C833.131956,402.952983 835.430857,403.076615 837.73,403.04 C847.322737,403.030042 856.898385,402.230677 866.36,400.65 C862.6,396.5 858.79,392.06 857.36,386.65 C856.654193,383.781652 856.50483,380.804588 856.92,377.88 C857.49661,374.143338 858.393242,370.463135 859.6,366.88 C855.564746,367.091739 851.519118,366.988091 847.5,366.57 C845.21,366.33 839.59,364.25 837.6,365.83 C835.61,367.41 837.14,372.5 837.17,374.89 C837.174989,374.976595 837.174989,375.063405 837.17,375.15 C837.072809,378.790629 836.289081,382.380171 834.86,385.73 C832,392.19 825.8,397.51 818.69,397.94 Z" id="Path" fill="#FBBEBE" fill-rule="nonzero"></path>
                <path d="M837.18,374.84 C843.017491,378.654897 850.222995,379.749404 856.93,377.84 C857.50661,374.103338 858.403242,370.423135 859.61,366.84 C855.574746,367.051739 851.529118,366.948091 847.51,366.53 C845.22,366.29 839.6,364.21 837.61,365.79 C835.62,367.37 837.15,372.45 837.18,374.84 Z" id="Path" fill="#000000" fill-rule="nonzero" opacity="0.1"></path>
                <circle id="Oval" fill="#FBBEBE" fill-rule="nonzero" cx="850.38" cy="353.54" r="24.11"></circle>
                <path d="M748.09,475.53 C748.073218,479.486591 750.139785,483.160065 753.53,485.2 C755.385822,486.174797 757.373154,486.875416 759.43,487.28 C770.43,489.94 781.75,492.08 793.08,491.43 C795.536003,491.409178 797.963247,490.899253 800.22,489.93 C802.498939,488.920254 804.144055,486.864792 804.63,484.42 C804.641349,483.821401 804.756385,483.229301 804.97,482.67 C805.409726,482.056033 805.980071,481.547163 806.64,481.18 C808.744777,479.595216 809.752216,476.942424 809.23,474.36 C810.6,474.98 812.04,473.59 812.69,472.23 C813.34,470.87 813.84,469.23 815.22,468.64 C816.16,468.24 817.22,468.48 818.22,468.22 C819.81,467.81 820.78,466.22 821.9,465.07 C824.18,462.63 827.43,461.37 830.41,459.86 C839.29,455.39 846.52,448.3 853.61,441.33 C857.295818,437.934288 860.644728,434.190207 863.61,430.15 C864.404334,428.98836 865.13863,427.786785 865.81,426.55 C867.946723,422.444398 869.801024,418.197883 871.36,413.84 C872.26,411.5 873.17,409.04 872.8,406.56 C872.8,406.34 872.72,406.12 872.67,405.89 C872.207359,404.298661 871.465851,402.802102 870.48,401.47 C868.03,397.87 864.82,394.47 860.6,393.35 C856.38,392.23 852.18,393.58 847.89,394.49 C846.470097,394.808196 845.030056,395.028713 843.58,395.15 C839.04,395.47 834.58,394.25 830.16,393.04 L825.38,391.72 C822.99,391.06 821.79,388.17 819.38,387.66 C818.296295,387.496765 817.190761,387.554593 816.13,387.83 C811.22,388.76 806.26,389.97 801.93,392.47 C800.962261,393.02354 800.03943,393.652134 799.17,394.35 C796.027717,396.696583 793.766393,400.032212 792.75,403.82 C791.75,407.99 792.69,412.45 791.69,416.62 C790.87,420.06 788.8,423.06 786.78,425.96 L775,442.83 C772.373755,446.782951 769.480343,450.551738 766.34,454.11 C760,461 748.26,466.18 748.09,475.53 Z" id="Path" fill="#F86D70" fill-rule="nonzero"></path>
                <path d="M779.53,314.4 C779.04,312.09 778.68,309.69 777.41,307.71 C776.54002,306.466677 775.488298,305.36102 774.29,304.43 C772.35007,302.626157 770.082539,301.210647 767.61,300.26 C765.096844,299.316401 762.283123,299.640202 760.05,301.13 C757.94,302.73 757.05,305.47 756.72,308.13 C756.167441,311.74655 756.791436,315.444947 758.5,318.68 C760.5,322.24 764.09,324.62 767.06,327.46 C769.217042,329.540249 771.092931,331.893515 772.64,334.46 C773.345403,335.790774 774.19736,337.038522 775.18,338.18 C776.18743,339.313749 777.668057,339.909701 779.18,339.79 C780.426999,339.46023 781.558635,338.792322 782.45,337.86 C783.67,336.79 786.95,334.86 787.05,333.19 C787.13,331.82 784.57,328.72 783.94,327.43 C782.016104,323.253743 780.537932,318.886264 779.53,314.4 L779.53,314.4 Z" id="Path" fill="#FBBEBE" fill-rule="nonzero"></path>
                <path d="M694.81,593.64 C697.81,599.24 701.15,604.64 703.86,610.44 C705.43,613.81 706.79,617.27 708.54,620.55 C710.45,624.12 712.8,627.44 714.8,630.96 C719.8,639.86 722.63,649.9 725.22,659.79 C732.457735,658.713514 739.422831,656.262832 745.74,652.57 C746.164603,652.330128 746.575262,652.066371 746.97,651.78 C748.661281,650.570648 750.073114,649.012175 751.11,647.21 C748.72,638.21 746.27,628.98 741.4,620.99 C739.81,618.39 737.99,615.99 736.4,613.38 C731.67,605.93 730.69,596.54 725.28,589.57 C724.219751,588.13086 724.219751,586.16914 725.28,584.73 C725.9,583.92 726.9,583.15 726.71,582.14 C726.57,581.41 725.81,580.75 726.1,580.07 C726.24,579.74 726.58,579.56 726.84,579.32 C727.76,578.48 727.64,577.03 727.73,575.79 C727.93,572.63 729.82,569.86 731.65,567.28 C732.021822,566.672466 732.511429,566.145458 733.09,565.73 C733.58,565.43 734.16,565.29 734.65,564.99 C736.37,563.92 736.25,561.4 737.08,559.53 C738.16,557.07 740.88,555.82 742.67,553.83 C744.94,551.29 745.51,547.76 747.91,545.54 C748.157723,545.308088 748.421731,545.094208 748.7,544.9 C747.659416,548.679169 747.184261,552.591613 747.29,556.51 C747.06,569.95 750.42,583.85 748.85,597.2 C747.61,607.78 754.13,618.34 763.37,623.64 C766.994009,625.553381 770.77843,627.146117 774.68,628.4 C780.46,630.45 786.24,632.56 791.91,634.93 C795.91,636.59 799.91,638.39 803.77,640.3 C808.575058,642.628712 813.248747,645.219271 817.77,648.06 C823.34,651.6 828.92,655.2 832.87,660.49 C836.7,660.39 840.21,658.09 842.63,655.12 C845.05,652.15 846.56,648.56 847.97,645.01 C849.2,641.94 850.42,638.79 850.51,635.48 C850.512202,634.754349 850.100887,634.090812 849.45,633.77 L822.99,619.77 L817.99,617.15 C807.16,611.4 795.99,606.08 785.1,600.34 C784.37,600.55 783.77,599.72 783.56,599 C783.35,598.28 783.2,597.38 782.51,597.06 C782.16,596.9 781.72,596.9 781.51,596.62 C781.33834,596.36103 781.273815,596.045575 781.33,595.74 C781.68,590.5 785.46,585.68 784.7,580.49 C784.38,578.27 783.23,576.09 783.7,573.92 C784.05,572.41 785.13,571.19 785.7,569.76 C786.99,566.56 785.7,562.76 787.12,559.59 C788.067552,557.534057 788.710956,555.351197 789.03,553.11 C789.711442,548.647142 791.077518,544.316174 793.08,540.27 C794.037891,538.218407 795.2912,536.318227 796.8,534.63 C797.6,533.78 798.49,533.01 799.24,532.13 C801.55,529.4 802.39,525.76 803.05,522.25 C804.23,515.88 805.05,509.25 803.57,502.96 C803.07,500.81 802.31,498.68 802.34,496.47 C802.34,493.56 803.65,490.15 801.63,488.04 C800.778031,487.282779 799.744477,486.759112 798.63,486.52 C793.925865,485.251537 789.126911,484.365319 784.28,483.87 L762.22,481 C759.671589,480.831823 757.177876,480.183797 754.87,479.09 C751.87,477.44 749.87,474.37 748.67,471.17 C744.79,474 743.33,479.27 740.24,482.93 C738.73,484.72 736.87,486.16 735.24,487.8 C733.214339,489.925453 731.361775,492.209389 729.7,494.63 C725.09,500.96 720.45,507.34 717.15,514.43 C715.44,518.12 714.15,521.97 712.73,525.79 C707.34,540.86 698.55,555.16 694.9,570.73 C694,574.54 691.67,577.97 691.32,581.87 C690.91,586 692.82,590 694.81,593.64 Z" id="Path" fill="#434175" fill-rule="nonzero"></path>
                <path d="M810.53,468.54 C811.066386,469.542596 811.344756,470.662948 811.34,471.8 C810.85,469.36 807.49,468.01 807.28,465.6 C807.18,464.49 807.38,464.54 808.07,465.13 C809.12,466 809.57,467.58 810.53,468.54 Z" id="Path" fill="#000000" fill-rule="nonzero" opacity="0.1"></path>
                <path d="M800.32,475.94 C801.023963,476.542031 801.552524,477.322781 801.85,478.2 C802.409879,479.433746 802.516125,480.825567 802.15,482.13 C801.66,481.9 801.49,481.3 801.34,480.77 C801.113658,479.951653 800.777252,479.167827 800.34,478.44 C799.94,477.81 798.11,476.31 798.13,475.62 C798.1,474.58 799.83,475.57 800.32,475.94 Z" id="Path" fill="#000000" fill-rule="nonzero" opacity="0.1"></path>
                <path d="M799.14,394.35 C800.690358,395.678032 802.396162,396.812997 804.22,397.73 C809,400.15 814.29,401.42 819.1,403.73 C821.471972,404.935129 823.775489,406.270501 826,407.73 C830.77,410.73 835.53,413.73 840.29,416.78 C841.43623,417.441178 842.494568,418.244171 843.44,419.17 C845.16,421.01 845.15,424.17 846.72,426.17 C848.473459,428.168774 850.991386,429.331453 853.65,429.37 C856.282883,429.392292 858.899245,428.952282 861.38,428.07 C862.884978,427.624549 864.361103,427.086865 865.8,426.46 C867.304811,425.825362 868.728265,425.012919 870.04,424.04 C872.688176,422.178218 874.487068,419.339566 875.04,416.15 C875.212295,413.967455 874.922668,411.773101 874.19,409.71 C873.793283,408.36655 873.284842,407.058654 872.67,405.8 C872.317776,405.085701 871.909848,404.400249 871.45,403.75 C868.17,399.1 862.39,396.91 856.8,395.82 C853.85,395.25 850.85,394.9 847.89,394.4 C846.470097,394.718196 845.030056,394.938713 843.58,395.06 C839.04,395.38 834.58,394.16 830.16,392.95 L825.38,391.63 C822.99,390.97 821.79,388.08 819.38,387.57 C818.296295,387.406765 817.190761,387.464593 816.13,387.74 C811.22,388.67 806.26,389.88 801.93,392.38 C800.948814,392.960998 800.015821,393.619778 799.14,394.35 L799.14,394.35 Z" id="Path" fill="#000000" fill-rule="nonzero" opacity="0.1"></path>
                <path d="M787.49,330.36 C788.1,336.19 793.02,340.47 796.02,345.5 C797.48,347.95 798.5,350.63 799.81,353.16 C801.307134,355.92895 802.977103,358.600901 804.81,361.16 L810.16,368.93 C813.31,373.5 816.49,378.11 820.51,381.93 C827.51,383.12 833.41,388.33 840.06,390.86 C845.39,392.86 851.19,393.16 856.78,394.25 C862.37,395.34 868.15,397.52 871.43,402.18 C872.656206,404.02178 873.581133,406.047168 874.17,408.18 C874.90244,410.23969 875.192081,412.430739 875.02,414.61 C874.469553,417.803213 872.670401,420.645872 870.02,422.51 C867.389305,424.33287 864.462699,425.686214 861.37,426.51 C858.888007,427.387507 856.272491,427.827374 853.64,427.81 C850.97902,427.76927 848.458848,426.607231 846.7,424.61 C845.14,422.61 845.15,419.42 843.43,417.61 C842.484568,416.684171 841.42623,415.881178 840.28,415.22 L825.99,406.22 C823.765489,404.760501 821.461972,403.425129 819.09,402.22 C814.28,399.87 808.99,398.6 804.21,396.22 C799.43,393.84 794.98,389.81 794.04,384.54 C791.13,368.35 779.92,354.7 770.34,341.33 C770.65,341.27 770.56,340.55 770.67,340.25 C772.056996,337.11201 774.547973,334.592564 777.67,333.17 C780.75,331.5 784.17,331.07 787.49,330.36 Z" id="Path" fill="#F86D70" fill-rule="nonzero"></path>
                <path d="M838,330.48 C837.820712,328.724899 838.168881,326.956202 839,325.4 C840.59,322.76 843.91,321.83 846.93,321.21 C849.95,320.59 852.73,320.11 855.65,319.69 C858.025845,319.21238 860.468481,319.168338 862.86,319.56 C866.12,320.28 868.86,322.47 871.86,323.82 C875.46,325.43 879.46,325.82 883.3,326.74 C887.14,327.66 891.09,329.13 893.5,332.26 C895.33,334.63 896.06,337.66 896.61,340.61 C901.18,365.24 896.26,390.5 895.33,415.53 C894.96,425.27 895.4,435.68 900.97,443.69 L884.76,443.26 C880.61,443.15 876.15,442.93 872.89,440.37 C870.01,438.12 868.65,434.49 867.43,431.06 C866.325278,428.395593 865.624228,425.581284 865.35,422.71 C865.1,416.83 868.44,411.06 867.35,405.27 C866.54,400.95 863.35,397.45 860.03,394.62 C856.71,391.79 852.93,389.32 850.2,385.87 C845.35,379.72 844.42,371.33 845.02,363.52 C845.38,358.88 846.22,354.23 845.81,349.59 C845.604958,346.039724 844.324987,342.635768 842.14,339.83 C839.59,336.75 838.24,334.83 838,330.48 Z" id="Path" fill="#434175" fill-rule="nonzero"></path>
                <path d="M839,325.4 C840.56,322.8 843.8,321.86 846.77,321.25 C845.194238,321.804103 843.842432,322.857458 842.92,324.25 C842.094343,325.811753 841.746561,327.581961 841.92,329.34 C842.14,333.69 843.49,335.61 846.07,338.69 C848.263621,341.491732 849.547736,344.897429 849.75,348.45 C850.15,353.09 849.32,357.73 848.96,362.38 C848.35,370.18 849.28,378.58 854.14,384.73 C856.86,388.18 860.61,390.64 863.97,393.48 C867.33,396.32 870.48,399.81 871.29,404.13 C872.37,409.91 869.03,415.69 869.29,421.57 C869.554678,424.438616 870.252604,427.250548 871.36,429.91 C872.59,433.35 873.95,436.98 876.82,439.23 C880.08,441.79 884.55,442.01 888.7,442.12 L900.18,442.42 C900.43,442.84 900.7,443.26 900.98,443.67 L884.77,443.24 C880.62,443.13 876.16,442.91 872.9,440.35 C870.02,438.1 868.66,434.47 867.44,431.04 C866.335278,428.375593 865.634228,425.561284 865.36,422.69 C865.11,416.81 868.45,411.04 867.36,405.25 C866.55,400.93 863.36,397.43 860.04,394.6 C856.72,391.77 852.94,389.3 850.21,385.85 C845.36,379.7 844.43,371.31 845.03,363.5 C845.39,358.86 846.23,354.21 845.82,349.57 C845.614958,346.019724 844.334987,342.615768 842.15,339.81 C839.57,336.73 838.22,334.81 837.99,330.46 C837.817809,328.710514 838.169353,326.949315 839,325.4 Z" id="Path" fill="#000000" fill-rule="nonzero" opacity="0.1"></path>
                <path d="M717.22,579.23 L747,651.78 C748.691281,650.570648 750.103114,649.012175 751.14,647.21 C748.75,638.21 746.3,628.98 741.43,620.99 C739.84,618.39 738.02,615.99 736.43,613.38 C731.7,605.93 730.72,596.54 725.31,589.57 C724.249751,588.13086 724.249751,586.16914 725.31,584.73 C725.93,583.92 726.93,583.15 726.74,582.14 C726.6,581.41 725.84,580.75 726.13,580.07 C726.27,579.74 726.61,579.56 726.87,579.32 C727.79,578.48 727.67,577.03 727.76,575.79 C727.96,572.63 729.85,569.86 731.68,567.28 C732.051822,566.672466 732.541429,566.145458 733.12,565.73 C733.61,565.43 734.19,565.29 734.68,564.99 C736.4,563.92 736.28,561.4 737.11,559.53 C738.19,557.07 740.91,555.82 742.7,553.83 C744.97,551.29 745.54,547.76 747.94,545.54 L748.15,545.02 L745.9,531.02 L717.22,579.23 Z" id="Path" fill="#000000" fill-rule="nonzero" opacity="0.1"></path>
                <ellipse id="Oval" fill="#254095" fill-rule="nonzero" cx="977.05" cy="659.35" rx="33.95" ry="6.53"></ellipse>
                <ellipse id="Oval" fill="#3F3D56" fill-rule="nonzero" cx="977.62" cy="656.57" rx="3.95" ry="5.17"></ellipse>
                <ellipse id="Oval" fill="#3F3D56" fill-rule="nonzero" cx="977.62" cy="650.25" rx="3.95" ry="5.17"></ellipse>
                <ellipse id="Oval" fill="#3F3D56" fill-rule="nonzero" cx="977.62" cy="643.92" rx="3.95" ry="5.17"></ellipse>
                <ellipse id="Oval" fill="#3F3D56" fill-rule="nonzero" cx="977.62" cy="637.6" rx="3.95" ry="5.17"></ellipse>
                <ellipse id="Oval" fill="#3F3D56" fill-rule="nonzero" cx="977.62" cy="631.27" rx="3.95" ry="5.17"></ellipse>
                <ellipse id="Oval" fill="#3F3D56" fill-rule="nonzero" cx="977.62" cy="624.95" rx="3.95" ry="5.17"></ellipse>
                <ellipse id="Oval" fill="#3F3D56" fill-rule="nonzero" cx="977.62" cy="618.63" rx="3.95" ry="5.17"></ellipse>
                <path d="M962.82,575.35 C962.28006,574.661785 961.788864,573.936686 961.35,573.18 L971.73,571.47 L960.5,571.56 C958.327224,566.821128 958.19706,561.39765 960.14,556.56 L975.21,564.37 L961.31,554.16 C964.844196,547.994869 971.532067,544.326833 978.630527,544.660367 C985.728987,544.993901 992.043453,549.272876 994.983995,555.742234 C997.924536,562.211592 996.996296,569.782621 992.58,575.35 C993.425781,576.416291 994.150242,577.573416 994.74,578.8 L981.26,585.8 L995.64,580.98 C996.299642,582.93588 996.637369,584.985881 996.64,587.05 C996.645254,591.299379 995.214548,595.425873 992.58,598.76 C998.683053,606.520684 997.79678,617.668659 990.544177,624.367557 C983.291575,631.066455 972.108425,631.066455 964.855823,624.367557 C957.60322,617.668659 956.716947,606.520684 962.82,598.76 C957.4202,591.890813 957.4202,582.219187 962.82,575.35 L962.82,575.35 Z" id="Path" fill="#254095" fill-rule="nonzero"></path>
                <path d="M996.64,587.05 C996.645254,591.299379 995.214548,595.425873 992.58,598.76 C998.683053,606.520684 997.79678,617.668659 990.544177,624.367557 C983.291575,631.066455 972.108425,631.066455 964.855823,624.367557 C957.60322,617.668659 956.716947,606.520684 962.82,598.76 C960.28,595.54 996.64,584.93 996.64,587.05 Z" id="Path" fill="#000000" fill-rule="nonzero" opacity="0.1"></path>
                <ellipse id="Oval" fill="#254095" fill-rule="nonzero" cx="1043.17" cy="586.83" rx="22.83" ry="4.39"></ellipse>
                <ellipse id="Oval" fill="#3F3D56" fill-rule="nonzero" cx="1043.56" cy="584.97" rx="2.66" ry="3.48"></ellipse>
                <ellipse id="Oval" fill="#3F3D56" fill-rule="nonzero" cx="1043.56" cy="580.72" rx="2.66" ry="3.48"></ellipse>
                <ellipse id="Oval" fill="#3F3D56" fill-rule="nonzero" cx="1043.56" cy="576.46" rx="2.66" ry="3.48"></ellipse>
                <ellipse id="Oval" fill="#3F3D56" fill-rule="nonzero" cx="1043.56" cy="572.21" rx="2.66" ry="3.48"></ellipse>
                <ellipse id="Oval" fill="#3F3D56" fill-rule="nonzero" cx="1043.56" cy="567.96" rx="2.66" ry="3.48"></ellipse>
                <ellipse id="Oval" fill="#3F3D56" fill-rule="nonzero" cx="1043.56" cy="563.71" rx="2.66" ry="3.48"></ellipse>
                <ellipse id="Oval" fill="#3F3D56" fill-rule="nonzero" cx="1043.56" cy="559.45" rx="2.66" ry="3.48"></ellipse>
                <path d="M1033.61,530.36 C1033.238,529.900979 1032.90358,529.412733 1032.61,528.9 L1039.61,527.75 L1032.06,527.81 C1031.28738,526.142981 1030.88808,524.32736 1030.89,522.49 C1030.88887,520.855803 1031.20118,519.236555 1031.81,517.72 L1041.95,522.98 L1032.6,516.11 C1034.96471,511.942426 1039.46935,509.455774 1044.25602,509.675653 C1049.04268,509.895531 1053.30038,512.784688 1055.27306,517.151502 C1057.24573,521.518317 1056.59915,526.622943 1053.6,530.36 C1054.16637,531.078229 1054.65258,531.856176 1055.05,532.68 L1045.99,537.39 L1055.65,534.14 C1057.03995,538.229292 1056.26868,542.744057 1053.6,546.14 C1057.72055,551.36017 1057.13254,558.871601 1052.24987,563.386981 C1047.36721,567.902361 1039.83279,567.902361 1034.95013,563.386981 C1030.06746,558.871601 1029.47945,551.36017 1033.6,546.14 C1029.96045,541.52451 1029.96045,535.01549 1033.6,530.4 L1033.61,530.36 Z" id="Path" fill="#254095" fill-rule="nonzero"></path>
                <path d="M1056.34,538.23 C1056.34197,541.084203 1055.38395,543.85613 1053.62,546.1 C1057.74055,551.32017 1057.15254,558.831601 1052.26987,563.346981 C1047.38721,567.862361 1039.85279,567.862361 1034.97013,563.346981 C1030.08746,558.831601 1029.49945,551.32017 1033.62,546.1 C1031.9,543.93 1056.34,536.8 1056.34,538.23 Z" id="Path" fill="#000000" fill-rule="nonzero" opacity="0.1"></path>
            </g>
        </g>
    </g>
</svg>