<?xml version="1.0" encoding="UTF-8"?>
<svg width="1023px" height="786px" viewBox="0 0 1023 786" version="1.1" xmlns="http://www.w3.org/2000/svg" xmlns:xlink="http://www.w3.org/1999/xlink">
    <!-- Generator: Sketch 53.2 (72643) - https://sketchapp.com -->
    <title>undraw_bug_fixing_oc7a</title>
    <desc>Created with Sketch.</desc>
    <defs>
        <linearGradient x1="50.853129%" y1="100.420433%" x2="48.7491637%" y2="0.0198459433%" id="linearGradient-1">
            <stop stop-color="#808080" stop-opacity="0.25" offset="0%"></stop>
            <stop stop-color="#808080" stop-opacity="0.12" offset="54%"></stop>
            <stop stop-color="#808080" stop-opacity="0.1" offset="100%"></stop>
        </linearGradient>
    </defs>
    <g id="Page-1" stroke="none" stroke-width="1" fill="none" fill-rule="evenodd">
        <g id="IllustrationUndraw" fill-rule="nonzero">
            <g id="undraw_bug_fixing_oc7a">
                <ellipse id="Oval" fill="#254095" opacity="0.1" cx="468.63" cy="660.88" rx="425" ry="33"></ellipse>
                <g id="Group" opacity="0.1" transform="translate(679.000000, 92.000000)">
                    <path d="M166.05,380.84 C163.51,373.13 153.21,369.58 143.05,372.92 C141.58617,373.397158 140.170036,374.009811 138.82,374.75 C138.17,374.57 137.5,374.41 136.82,374.29 C137.374988,372.07203 137.587444,369.782217 137.45,367.5 C144.576855,362.732105 148.706806,354.597239 148.35,346.03 C155.457107,341.24866 159.569673,333.118202 159.21,324.56 C162.731972,322.238926 165.57257,319.022113 167.44,315.24 C172.34,305.54 170.31,294.64 162.9,290.89 C155.49,287.14 145.5,291.97 140.6,301.67 C138.657394,305.413673 137.749466,309.608092 137.97,313.82 C130.862893,318.60134 126.750327,326.731798 127.11,335.29 C120.002893,340.07134 115.890327,348.201798 116.25,356.76 C109.126069,361.535136 104.997544,369.67098 105.35,378.24 C101.828028,380.561074 98.9874299,383.777887 97.12,387.56 C96.1989398,389.382976 95.5005868,391.310162 95.04,393.3 C93.8116799,391.504682 92.3141168,389.909305 90.6,388.57 C90.4038614,387.042771 90.0691478,385.53656 89.6,384.07 C86.26,373.9 77.3,367.7 69.6,370.24 C61.9,372.78 58.34,383.07 61.68,393.24 C63.0469885,397.600579 65.6782275,401.456945 69.24,404.32 C69.4361386,405.847229 69.7708522,407.35344 70.24,408.82 C72.18,414.72 76.01,419.28 80.39,421.57 C80.0020684,422.843809 79.7243791,424.148614 79.56,425.47 C75.430098,429.442274 72.7716061,434.699319 72.02,440.38 C67.8867943,444.353907 65.2278942,449.615285 64.48,455.3 C62.4335462,457.265078 60.7420001,459.568964 59.48,462.11 C54.57,471.81 56.6,482.72 64.01,486.46 C71.42,490.2 81.41,485.39 86.32,475.68 C87.6142874,473.147948 88.4601278,470.410808 88.82,467.59 C92.949902,463.617726 95.6083939,458.360681 96.36,452.68 C100.493206,448.706093 103.152106,443.444715 103.9,437.76 C108.001991,433.778424 110.628977,428.520926 111.35,422.85 C115.498501,418.87674 118.165691,413.605863 118.91,407.91 C120.182053,406.703869 121.318774,405.362607 122.3,403.91 C126.385729,404.748627 130.621168,404.482833 134.57,403.14 C136.03383,402.662842 137.449964,402.050189 138.8,401.31 C143.222841,402.476429 147.891794,402.309432 152.22,400.83 C162.35,397.52 168.58,388.56 166.05,380.84 Z" id="Path" fill="#3F3D56"></path>
                    <g transform="translate(57.000000, 316.000000)" fill="#000000" id="Path">
                        <path d="M91.12,34.44 C90.0704897,35.4720023 88.917777,36.3935023 87.68,37.19 C87.8371377,40.044565 87.4607065,42.9034074 86.57,45.62 C87.3569145,44.532205 88.0589856,43.3854889 88.67,42.19 C89.9100578,39.7601053 90.7379864,37.1411474 91.12,34.44 L91.12,34.44 Z"></path>
                        <path d="M101.98,12.97 C100.93049,14.0020023 99.777777,14.9235023 98.54,15.72 C98.6971377,18.574565 98.3207065,21.4334074 97.43,24.15 C98.2191427,23.0601882 98.9213097,21.9099717 99.53,20.71 C100.765438,18.2817489 101.593148,15.6668604 101.98,12.97 L101.98,12.97 Z"></path>
                        <path d="M77.35,4.98 C77.2580957,3.50802501 77.3150512,2.03053167 77.52,0.57 C75.5781177,2.48387953 73.9633443,4.70334853 72.74,7.14 C72.1362702,8.34153465 71.6280345,9.58871819 71.22,10.87 C72.8750996,8.53894359 74.954734,6.54073039 77.35,4.98 L77.35,4.98 Z"></path>
                        <path d="M8.42,134.91 C9.29372348,133.692175 10.2815226,132.560392 11.37,131.53 C11.5401143,130.173387 11.8312753,128.834716 12.24,127.53 C11.3704626,128.697877 10.6042372,129.939229 9.95,131.24 C9.34558776,132.4218 8.834044,133.648837 8.42,134.91 Z"></path>
                        <path d="M15.96,120.01 C16.8337235,118.792175 17.8215226,117.660392 18.91,116.63 C19.0732468,115.308424 19.3509568,114.003522 19.74,112.73 L19.74,112.73 C18.9096352,113.86443 18.1738294,115.065131 17.54,116.32 C16.9216951,117.508709 16.393543,118.742179 15.96,120.01 Z"></path>
                        <path d="M80.25,55.91 C79.206422,56.941658 78.056699,57.8600957 76.82,58.65 C76.9569731,60.9322089 76.7445228,63.2219505 76.19,65.44 C76.8645644,65.5567071 77.5322308,65.7102704 78.19,65.9 C79.5400364,65.159811 80.9561699,64.5471575 82.42,64.07 C92.6,60.73 102.89,64.28 105.42,71.99 C106.048072,73.927873 106.158389,75.9963157 105.74,77.99 C109.09,74.05 110.48,69.25 109.04,64.85 C106.5,57.14 96.2,53.59 86.04,56.93 C84.5761699,57.4071575 83.1600364,58.019811 81.81,58.76 C81.16,58.58 80.49,58.42 79.81,58.3 C80,57.5 80.14,56.71 80.25,55.91 Z"></path>
                        <path d="M4.7,142.4 C3.8304626,143.567877 3.0642372,144.809229 2.41,146.11 C1.80235147,147.315712 1.28752576,148.566003 0.87,149.85 C1.76265948,148.626295 2.76696652,147.488081 3.87,146.45 C4.02410067,145.077754 4.3018971,143.722241 4.7,142.4 Z"></path>
                        <path d="M66.44,26.45 C66.3487072,24.9780178 66.4056603,23.5005859 66.61,22.04 C64.6681177,23.9538795 63.0533443,26.1733485 61.83,28.61 C61.2262702,29.8115347 60.7180345,31.0587182 60.31,32.34 C61.9650996,30.0089436 64.044734,28.0107304 66.44,26.45 L66.44,26.45 Z"></path>
                        <path d="M50.75,114.01 C50.552694,115.497758 50.2179291,116.964028 49.75,118.39 C50.5323251,117.297617 51.230981,116.147676 51.84,114.95 C52.495527,113.665186 53.0408176,112.32705 53.47,110.95 C52.651286,112.04491 51.741372,113.068564 50.75,114.01 Z"></path>
                        <path d="M35.67,143.83 C35.4734902,145.317901 35.1387086,146.784245 34.67,148.21 C35.4591427,147.120188 36.1613097,145.969972 36.77,144.77 C37.4213941,143.483298 37.966542,142.145511 38.4,140.77 C37.5806283,141.867376 36.667172,142.89125 35.67,143.83 L35.67,143.83 Z"></path>
                        <path d="M43.21,128.91 C43.0137194,130.397942 42.6789329,131.864307 42.21,133.29 C43.0069465,132.218498 43.7222918,131.088653 44.35,129.91 C45.005527,128.625186 45.5508176,127.28705 45.98,125.91 C45.1427216,126.986158 44.2160989,127.98972 43.21,128.91 Z"></path>
                        <path d="M58.29,99.1 C58.09374,100.584676 57.7589465,102.047724 57.29,103.47 C58.0744381,102.382514 58.773207,101.23573 59.38,100.04 C60.042685,98.7330166 60.5913858,97.3713018 61.02,95.97 C60.2053231,97.0927865 59.2916693,98.1403091 58.29,99.1 L58.29,99.1 Z"></path>
                        <path d="M8.92,61.39 C16.64,58.86 25.6,65.05 28.92,75.22 C29.3881471,76.6902382 29.7228343,78.1996772 29.92,79.73 C31.6341168,81.0693055 33.1316799,82.6646824 34.36,84.46 C34.8204719,82.4669254 35.5188128,80.5364158 36.44,78.71 C36.79,78.03 37.17,77.38 37.56,76.71 C36.4252149,75.1393668 35.0791955,73.7327764 33.56,72.53 C33.3638614,71.0027712 33.0291478,69.4965601 32.56,68.03 C29.22,57.86 20.26,51.66 12.56,54.2 C8.16,55.64 5.12,59.61 3.94,64.63 C5.29327578,63.1391517 7.00867627,62.023108 8.92,61.39 L8.92,61.39 Z"></path>
                        <path d="M44.72,69.39 C44.6316727,67.9210141 44.6919789,66.4468626 44.9,64.99 C42.9517883,66.9007267 41.3332508,69.1207249 40.11,71.56 C39.5046075,72.7573292 38.9963083,74.0013246 38.59,75.28 C40.2495924,72.9528203 42.3284282,70.9553744 44.72,69.39 Z"></path>
                        <path d="M55.58,47.91 C55.4916727,46.4410141 55.5519789,44.9668626 55.76,43.51 C53.8097331,45.4151592 52.1908589,47.6322395 50.97,50.07 C50.3662702,51.2715347 49.8580345,52.5187182 49.45,53.8 C51.1050996,51.4689436 53.184734,49.4707304 55.58,47.91 Z"></path>
                        <path d="M28.13,158.74 C27.9335292,160.231179 27.5987533,161.700845 27.13,163.13 C28.7736812,160.853577 30.0336715,158.323462 30.86,155.64 C30.0424757,156.751236 29.1289686,157.788552 28.13,158.74 L28.13,158.74 Z"></path>
                    </g>
                    <path d="M180.87,281.62 C184.394527,279.30187 187.235807,276.084284 189.1,272.3 C194.01,262.6 191.98,251.69 184.57,247.94 C177.16,244.19 167.17,249.02 162.26,258.73 C160.315146,262.483361 159.410501,266.688921 159.64,270.91 C152.532893,275.69134 148.420327,283.821798 148.78,292.38 C145.253223,294.695536 142.41134,297.913805 140.55,301.7 C139.948016,302.887283 139.443036,304.121305 139.04,305.39 C141.650578,301.609606 145.436666,298.797285 149.81,297.39 C150.815595,300.501297 153.024247,303.080905 155.943539,304.5537 C158.86283,306.026496 162.250043,306.270027 165.35,305.23 C166.826695,309.578041 166.826695,314.291959 165.35,318.64 C166.131048,317.562717 166.826509,316.425906 167.43,315.24 C169.369607,311.495536 170.274099,307.301041 170.05,303.09 C177.16618,298.316679 181.281508,290.180759 180.91,281.62 L180.87,281.62 Z" id="Path" fill="#3F3D56"></path>
                    <path d="M300.23,143.98 C303.244761,142.573387 306.158409,140.95952 308.95,139.15 L276.62,115.53 L314.62,135.1 C330.156897,122.757654 339.923129,104.559909 341.62,84.79 L277.04,85.45 L341.76,74.63 C339.936715,47.9497834 323.476257,24.4781075 299.012939,13.6751255 C274.549622,2.87214343 246.114163,6.51781733 225.167347,23.1427747 C204.220531,39.7677321 194.213676,66.6327485 199.18,92.91 C194.485565,95.0928014 190.03992,97.77494 185.92,100.91 L219.67,147.84 L179.15,106.76 C161.77664,123.819508 154.190209,148.497037 158.98,172.37 C124.960734,188.248798 108.852115,227.602073 121.973349,262.777063 C135.094583,297.952052 173.041153,317.141263 209.148757,306.860817 C245.256362,296.580371 267.40445,260.281196 260.03,223.47 C290.179437,209.436733 306.79544,176.58086 300.23,143.98 Z" id="Path" fill="#254095"></path>
                    <path d="M165.35,125.66 C158.034551,140.07094 155.797137,156.529146 159,172.37 C124.980734,188.248798 108.872115,227.602073 121.993349,262.777063 C135.114583,297.952052 173.061153,317.141263 209.168757,306.860817 C245.276362,296.580371 267.42445,260.281196 260.05,223.47 C274.18,216.91 168.97,118.45 165.35,125.66 Z" id="Path" fill="#000000"></path>
                    <circle id="Oval" fill="#254095" cx="246.49" cy="10.72" r="10.69"></circle>
                    <circle id="Oval" fill="#254095" cx="308.93" cy="17.58" r="10.69"></circle>
                    <circle id="Oval" fill="#254095" cx="333.01" cy="113.64" r="10.69"></circle>
                    <circle id="Oval" fill="#254095" cx="300.51" cy="161.61" r="10.69"></circle>
                    <circle id="Oval" fill="#254095" cx="256.11" cy="261.24" r="10.69"></circle>
                    <circle id="Oval" fill="#000000" cx="256.11" cy="261.24" r="10.69"></circle>
                    <circle id="Oval" fill="#254095" cx="157.39" cy="148.4" r="10.69"></circle>
                    <circle id="Oval" fill="#000000" cx="157.39" cy="148.4" r="10.69"></circle>
                    <path d="M145.99,324.23 C138.88,320.64 136.73,310.47 140.88,301.09 C140.66,301.47 140.45,301.86 140.25,302.27 C135.34,311.97 137.37,322.87 144.78,326.62 C152.19,330.37 162.18,325.54 167.08,315.84 C167.29,315.44 167.47,315.03 167.65,314.63 C162.56,323.54 153.09,327.83 145.99,324.23 Z" id="Path" fill="#000000"></path>
                    <path d="M135.43,345.11 C128.33,341.52 126.17,331.35 130.33,321.96 C130.11,322.35 129.89,322.74 129.69,323.14 C124.78,332.84 126.81,343.75 134.22,347.49 C141.63,351.23 151.62,346.42 156.53,336.71 C156.73,336.31 156.92,335.91 157.1,335.5 C152,344.41 142.54,348.7 135.43,345.11 Z" id="Path" fill="#000000"></path>
                    <path d="M124.87,365.98 C117.77,362.39 115.61,352.22 119.77,342.84 C119.55,343.22 119.33,343.61 119.13,344.02 C114.22,353.72 116.26,364.62 123.67,368.37 C131.08,372.12 141.06,367.29 145.97,357.59 C146.17,357.19 146.36,356.78 146.54,356.38 C141.45,365.29 131.98,369.58 124.87,365.98 Z" id="Path" fill="#000000"></path>
                    <path d="M114.35,386.91 C107.24,383.32 105.09,373.15 109.24,363.77 C109.02,364.15 108.81,364.54 108.6,364.94 C103.7,374.64 105.73,385.55 113.14,389.3 C120.55,393.05 130.54,388.22 135.44,378.51 C135.65,378.11 135.83,377.71 136.01,377.3 C130.89,386.16 121.42,390.45 114.35,386.91 Z" id="Path" fill="#000000"></path>
                    <path d="M103.76,407.73 C96.65,404.14 94.5,393.97 98.65,384.59 C98.43,384.97 98.22,385.36 98.02,385.77 C93.11,395.47 95.14,406.37 102.55,410.12 C109.96,413.87 119.95,409.04 124.86,399.34 C125.06,398.94 125.25,398.53 125.43,398.13 C120.35,407.04 110.86,411.33 103.76,407.73 Z" id="Path" fill="#000000"></path>
                    <path d="M93.2,428.61 C86.1,425.02 83.94,414.85 88.1,405.47 C87.88,405.85 87.66,406.24 87.46,406.64 C82.55,416.34 84.58,427.25 92,431 C99.42,434.75 109.35,429.91 114.35,420.21 C114.55,419.81 114.74,419.41 114.92,419 C109.77,427.91 100.35,432.2 93.2,428.61 Z" id="Path" fill="#000000"></path>
                    <path d="M82.64,449.48 C75.54,445.89 73.38,435.72 77.54,426.34 C77.32,426.73 77.11,427.11 76.9,427.52 C72,437.22 74.03,448.12 81.44,451.87 C88.85,455.62 98.84,450.79 103.74,441.09 C103.95,440.69 104.13,440.28 104.31,439.88 C99.22,448.79 89.75,453.08 82.64,449.48 Z" id="Path" fill="#000000"></path>
                    <path d="M72.09,470.36 C64.98,466.77 62.83,456.6 66.98,447.22 C66.76,447.6 66.55,447.99 66.35,448.39 C61.44,458.09 63.47,469 70.88,472.75 C78.29,476.5 88.28,471.67 93.19,461.96 C93.39,461.56 93.57,461.16 93.75,460.75 C88.66,469.66 79.19,473.91 72.09,470.36 Z" id="Path" fill="#000000"></path>
                    <path d="M65.15,484.08 C58.05,480.48 55.89,470.32 60.05,460.93 C59.83,461.32 59.61,461.71 59.41,462.11 C54.5,471.81 56.53,482.72 63.94,486.46 C71.35,490.2 81.34,485.39 86.25,475.68 C86.45,475.28 86.64,474.88 86.82,474.47 C81.72,483.38 72.25,487.67 65.15,484.08 Z" id="Path" fill="#000000"></path>
                    <path d="M255.94,391.17 C257.041562,388.010815 257.714231,384.718101 257.94,381.38 C259.942109,381.375561 261.773526,380.251572 262.684021,378.468469 C263.594516,376.685365 263.431098,374.542766 262.260709,372.918374 C261.09032,371.293982 259.109623,370.460747 257.13,370.76 C254.722898,359.798983 247.509918,350.50364 237.49,345.45 C238.821006,342.815602 237.764398,339.601006 235.13,338.27 C232.495602,336.938994 229.281006,337.995602 227.95,340.63 C227.718606,341.079651 227.556765,341.561803 227.47,342.06 C215.565551,339.842138 203.322895,343.510837 194.6,351.91 C191.353393,351.384733 188.051946,351.287237 184.78,351.62 L180.45,371.33 L180.19,352.33 C166.649734,355.297998 155.859489,365.507924 152.148246,378.863616 C148.437004,392.219308 152.412862,406.532396 162.48073,416.060558 C172.548599,425.588719 187.058827,428.770735 200.19,424.33 C200.705378,425.260146 201.489601,426.013001 202.44,426.49 C204.446208,427.509101 206.875983,427.161219 208.515636,425.620124 C210.155289,424.079029 210.652937,421.675454 209.76,419.61 C211.465829,418.438558 213.071354,417.12738 214.56,415.69 C230.575559,418.293828 246.446123,410.287894 253.87,395.86 L233.72,392.47 L255.94,391.17 Z" id="Path" fill="#254095"></path>
                    <path d="M224.81,400.74 C217.37,390.92 212.81,379.29 207.56,368.13 C205.452123,363.549393 203.091832,359.089211 200.49,354.77 L196.55,350.18 C195.89,350.74 195.23,351.32 194.55,351.93 C191.303393,351.404733 188.001946,351.307237 184.73,351.64 L180.4,371.35 L180.14,352.35 C166.599734,355.317998 155.809489,365.527924 152.098246,378.883616 C148.387004,392.239308 152.362862,406.552396 162.43073,416.080558 C172.498599,425.608719 187.008827,428.790735 200.14,424.35 C200.655378,425.280146 201.439601,426.033001 202.39,426.51 C204.396208,427.529101 206.825983,427.181219 208.465636,425.640124 C210.105289,424.099029 210.602937,421.695454 209.71,419.63 C211.415829,418.458558 213.021354,417.14738 214.51,415.71 C222.15337,416.947164 229.992313,415.787392 236.95,412.39 C232.305637,409.181756 228.206761,405.24832 224.81,400.74 L224.81,400.74 Z" id="Path" fill="#000000"></path>
                    <path d="M93.06,358.54 C93.8984145,356.88224 93.815023,354.907878 92.8398057,353.32672 C91.8645884,351.745562 90.1377088,350.784861 88.28,350.79 C86.7643241,342.75348 82.654195,335.436046 76.58,329.96 C77.5589391,326.141988 77.930158,322.193568 77.68,318.26 L58.03,314.91 L77.11,313.71 C76.7673316,311.91844 76.2961134,310.153878 75.7,308.43 C76.4428076,307.918884 77.0474733,307.231763 77.46,306.43 C78.4447694,304.474232 78.1383186,302.115789 76.6864328,300.476634 C75.234547,298.837479 72.9303508,298.248545 70.87,298.99 C60.4431551,284.25608 40.9844429,279.065352 24.6044185,286.648379 C8.22439419,294.231405 -0.407913896,312.42669 4.08,329.91 C2.92283512,330.398323 1.97907834,331.285313 1.42,332.41 C0.415488071,334.392894 0.744358602,336.790668 2.24566522,338.429872 C3.74697185,340.069077 6.10669231,340.606846 8.17,339.78 C10.0880219,343.001276 12.4778869,345.916979 15.26,348.43 C13.2345551,356.327932 13.8455669,364.671403 17,372.19 L43.35,365.35 L19.85,377.71 C28.3685158,391.246109 44.5480982,397.87201 60.1141107,394.199054 C75.6801233,390.526099 87.1910823,377.366339 88.76,361.45 C90.600834,361.290888 92.2279465,360.189749 93.06,358.54 L93.06,358.54 Z" id="Path" fill="#254095"></path>
                    <path d="M93.06,358.54 C93.8984145,356.88224 93.815023,354.907878 92.8398057,353.32672 C91.8645884,351.745562 90.1377088,350.784861 88.28,350.79 C86.7643241,342.75348 82.654195,335.436046 76.58,329.96 C76.74,329.33 76.88,328.71 77,328.08 C76.302321,328.585547 75.6558948,329.158287 75.07,329.79 C71.52,333.68 69.7,338.91 66.19,342.84 C62.05,347.48 55.85,349.9 49.66,350.55 C43.47,351.2 37.24,350.25 31.13,349.06 C26.07,348.06 20.94,346.9 15.81,347.39 C15.31,347.39 14.81,347.5 14.35,347.58 C14.65,347.87 14.95,348.16 15.26,348.44 C13.2345551,356.337932 13.8455669,364.681403 17,372.2 L43.35,365.35 L19.85,377.71 C28.3685158,391.246109 44.5480982,397.87201 60.1141107,394.199054 C75.6801233,390.526099 87.1910823,377.366339 88.76,361.45 C90.600834,361.290888 92.2279465,360.189749 93.06,358.54 L93.06,358.54 Z" id="Path" fill="#000000"></path>
                </g>
                <g id="Group" opacity="0.1" transform="translate(0.000000, 319.000000)">
                    <path d="M89.49,192.24 C90.77,188.35 95.96,186.56 101.08,188.24 C101.816426,188.481449 102.529364,188.789385 103.21,189.16 C103.54,189.07 103.88,188.99 104.21,188.93 C103.929055,187.813074 103.821133,186.659657 103.89,185.51 C100.316578,183.093409 98.2473708,179.00039 98.42,174.69 C96.6470608,173.523132 95.2178383,171.904036 94.28,170 C93.3027552,168.113693 92.8437903,166.001764 92.95,163.88 C91.1782658,162.707451 89.7496002,161.085536 88.81,159.18 C86.35,154.3 87.35,148.81 91.1,146.91 C94.85,145.01 99.87,147.46 102.34,152.34 C103.315523,154.230228 103.771077,156.34579 103.66,158.47 C107.243859,160.872736 109.316763,164.96928 109.13,169.28 C112.71244,171.688637 114.784381,175.787064 114.6,180.1 C118.183859,182.502736 120.256763,186.59928 120.07,190.91 C121.845411,192.081202 123.277634,193.703238 124.22,195.61 C124.669648,196.53256 125.005446,197.506373 125.22,198.51 C125.836041,197.603425 126.588216,196.797283 127.45,196.12 C127.552773,195.348883 127.726852,194.588961 127.97,193.85 C129.66,188.73 134.17,185.61 138.06,186.85 C141.95,188.09 143.73,193.32 142.06,198.44 C141.369775,200.638638 140.044063,202.58371 138.25,204.03 C138.146119,204.797646 137.972057,205.554147 137.73,206.29 C136.909195,209.00413 135.080814,211.301235 132.62,212.71 C132.812915,213.364449 132.95336,214.033233 133.04,214.71 C134.072434,215.70098 134.928065,216.860985 135.57,218.14 C136.224284,219.416291 136.650687,220.797026 136.83,222.22 C137.866298,223.209921 138.725386,224.370027 139.37,225.65 C140.022958,226.926831 140.449289,228.307328 140.63,229.73 C141.668723,230.721598 142.528062,231.885427 143.17,233.17 C145.64,238.05 144.62,243.55 140.89,245.43 C137.16,247.31 132.12,244.89 129.65,240 C128.998724,238.722486 128.572486,237.342287 128.39,235.92 C126.306526,233.921368 124.966216,231.272492 124.59,228.41 C122.506526,226.411368 121.166216,223.762492 120.79,220.9 C119.75444,219.909428 118.895453,218.749456 118.25,217.47 C117.603271,216.190646 117.177279,214.811243 116.99,213.39 C115.957566,212.39902 115.101935,211.239015 114.46,209.96 C113.805716,208.683709 113.379313,207.302974 113.2,205.88 C112.556174,205.280171 111.982503,204.609211 111.49,203.88 C109.432557,204.300858 107.300383,204.169754 105.31,203.5 C104.57078,203.253341 103.854688,202.942142 103.17,202.57 C100.945936,203.160714 98.5964943,203.077178 96.42,202.33 C91.35,200.64 88.22,196.13 89.49,192.24 Z" id="Path" fill="#3F3D56"></path>
                    <g transform="translate(89.000000, 159.000000)" fill="#000000" id="Path">
                        <path d="M9.52,17.91 C10.0501686,18.4324865 10.6333146,18.898333 11.26,19.3 C11.1753135,20.736086 11.3653777,22.1751435 11.82,23.54 C11.4181824,22.9944795 11.0635669,22.4157204 10.76,21.81 C10.1345455,20.5872268 9.71556219,19.2694569 9.52,17.91 L9.52,17.91 Z"></path>
                        <path d="M4.05,7.11 C4.58289268,7.62645953 5.16575217,8.0887274 5.79,8.49 C5.70599337,9.92934145 5.89602497,11.3715455 6.35,12.74 C5.13867422,11.0773075 4.34937765,9.14524679 4.05,7.11 L4.05,7.11 Z"></path>
                        <path d="M16.48,3.08 C16.5275675,2.33918568 16.5007669,1.59546894 16.4,0.86 C17.3776101,1.82525989 18.1915862,2.94321051 18.81,4.17 C19.1118968,4.77592252 19.366003,5.40450097 19.57,6.05 C18.7366679,4.8738612 17.6882071,3.86611735 16.48,3.08 Z"></path>
                        <path d="M51.18,68.54 C50.7427728,67.9268295 50.2471203,67.3574989 49.7,66.84 C49.6087275,66.1623421 49.4615591,65.4933948 49.26,64.84 C49.6940046,65.4272026 50.0786515,66.0493272 50.41,66.7 C50.7134099,67.2927087 50.970834,67.9078522 51.18,68.54 Z"></path>
                        <path d="M47.35,61.03 C46.9127728,60.4168295 46.4171203,59.8474989 45.87,59.33 C45.7883509,58.6524007 45.6478195,57.9832036 45.45,57.33 L45.45,57.33 C46.2738348,58.4455162 46.9089471,59.6887148 47.33,61.01 L47.35,61.03 Z"></path>
                        <path d="M15,28.75 C15.5249504,29.2684232 16.105072,29.7278259 16.73,30.12 C16.6552421,31.2697477 16.7632496,32.4240776 17.05,33.54 C16.7129503,33.5995031 16.3791777,33.6762708 16.05,33.77 C15.365036,33.4011503 14.6489403,33.0932961 13.91,32.85 C8.79,31.17 3.6,32.96 2.33,36.85 C2.01171459,37.8178805 1.95309415,38.8523587 2.16,39.85 C0.486617886,38.089775 -0.143173249,35.5819923 0.5,33.24 C1.78,29.35 6.97,27.56 12.09,29.24 C12.8264264,29.4814492 13.5393637,29.7893845 14.22,30.16 C14.55,30.07 14.89,29.99 15.22,29.93 C15.1238348,29.5412682 15.0503773,29.1472686 15,28.75 L15,28.75 Z"></path>
                        <path d="M53.06,72.31 C53.4962191,72.8992223 53.8809694,73.5248596 54.21,74.18 C54.5153149,74.7856212 54.7727675,75.4142068 54.98,76.06 C54.5428448,75.443701 54.0472125,74.8710447 53.5,74.35 C53.4109173,73.6588442 53.2637295,72.976428 53.06,72.31 Z"></path>
                        <path d="M21.95,13.91 C21.9977697,13.1691885 21.9709683,12.4254515 21.87,11.69 C22.84994,12.6532528 23.6642118,13.7716095 24.28,15 C24.5819,15.6024749 24.8360147,16.2277308 25.04,16.87 C24.2064326,15.6968228 23.1579006,14.6924037 21.95,13.91 L21.95,13.91 Z"></path>
                        <path d="M29.86,58.01 C29.9535976,58.7571435 30.1176617,59.4937579 30.35,60.21 C29.5166931,59.0674451 28.881188,57.7930545 28.47,56.44 C28.8854921,57.0038144 29.3506868,57.5292502 29.86,58.01 Z"></path>
                        <path d="M37.45,73.03 C37.5508617,73.7767522 37.7181926,74.5130082 37.95,75.23 C37.5481824,74.6844795 37.1935669,74.1057204 36.89,73.5 C36.5611094,72.8574875 36.2868103,72.1884654 36.07,71.5 C36.4887961,72.0457076 36.950245,72.5573141 37.45,73.03 Z"></path>
                        <path d="M33.66,65.52 C33.7535976,66.2671435 33.9176617,67.0037579 34.15,67.72 C33.7517261,67.1721031 33.3972934,66.5936422 33.09,65.99 C32.7598812,65.3480531 32.4855386,64.6789248 32.27,63.99 C32.6873654,64.5399447 33.1525074,65.0519356 33.66,65.52 L33.66,65.52 Z"></path>
                        <path d="M26.06,50.49 C26.1524967,51.2406047 26.3165772,51.9806413 26.55,52.7 C26.1708163,52.1510811 25.8364044,51.5725485 25.55,50.97 C25.214743,50.3291855 24.9369879,49.6598962 24.72,48.97 C25.1195197,49.5163573 25.5680447,50.0251319 26.06,50.49 Z"></path>
                        <path d="M50.93,31.5 C47.04,30.22 42.53,33.34 40.85,38.5 C40.6068521,39.2389609 40.4327731,39.9988828 40.33,40.77 C39.4651082,41.4431173 38.7095126,42.2459376 38.09,43.15 C37.8578857,42.1446285 37.505339,41.1709281 37.04,40.25 C36.87,39.91 36.68,39.58 36.48,39.25 C37.0476035,38.4619222 37.7205308,37.7553486 38.48,37.15 C38.5827731,36.3788828 38.7568521,35.6189609 39,34.88 C40.69,29.76 45.2,26.64 49.09,27.88 C51.3589296,28.7510074 53.0057663,30.7469431 53.43,33.14 C52.7504228,32.3887741 51.8897318,31.8241608 50.93,31.5 Z"></path>
                        <path d="M32.89,35.53 C32.9375675,34.7891857 32.9107669,34.0454689 32.81,33.31 C33.78994,34.2732528 34.6042118,35.3916095 35.22,36.62 C35.5218968,37.2259225 35.776003,37.854501 35.98,38.5 C35.1492719,37.3216219 34.1003415,36.3134267 32.89,35.53 Z"></path>
                        <path d="M27.42,24.71 C27.4674333,23.9691838 27.4406332,23.2254805 27.34,22.49 C28.3153412,23.4572101 29.1290335,24.5747709 29.75,25.8 C30.0518968,26.4059225 30.306003,27.034501 30.51,27.68 C29.6766679,26.5038612 28.6282071,25.4961174 27.42,24.71 L27.42,24.71 Z"></path>
                        <path d="M41.25,80.54 C41.345994,81.2908933 41.5134195,82.0309136 41.75,82.75 C41.3503119,82.1995409 40.9958217,81.617642 40.69,81.01 C40.3611094,80.3674875 40.0868103,79.6984654 39.87,79.01 C40.2887961,79.5557076 40.750245,80.0673141 41.25,80.54 L41.25,80.54 Z"></path>
                    </g>
                    <path d="M82.02,142.25 C80.2470608,141.083132 78.8178383,139.464036 77.88,137.56 C75.41,132.67 76.43,127.18 80.16,125.29 C83.89,123.4 88.93,125.83 91.4,130.72 C92.3769841,132.60611 92.8326763,134.718865 92.72,136.84 C96.3024404,139.248637 98.3743812,143.347064 98.19,147.66 C99.9640703,148.828451 101.396173,150.446899 102.34,152.35 C102.640116,152.949839 102.894182,153.571631 103.1,154.21 C101.775342,152.319506 99.8682233,150.91463 97.67,150.21 C97.1753624,151.787972 96.0670399,153.100799 94.5943919,153.85311 C93.121744,154.60542 91.4084569,154.734029 89.84,154.21 C89.0985649,156.398919 89.0985649,158.771081 89.84,160.96 C89.4642748,160.415872 89.129999,159.84426 88.84,159.25 C87.8627552,157.363693 87.4037903,155.251764 87.51,153.13 C83.932081,150.717373 81.8615132,146.621661 82.04,142.31 L82.02,142.25 Z" id="Path" fill="#3F3D56"></path>
                    <path d="M21.9,72.91 C20.3830991,72.2007944 18.9163591,71.3889087 17.51,70.48 L33.79,58.58 L14.65,68.43 C6.82880411,62.2109776 1.9134878,53.0458477 1.06,43.09 L33.6,43.43 L0.99,37.97 C1.75532848,24.4104017 10.0278302,12.4129988 22.4294469,6.87690496 C34.8310637,1.34081108 49.2859054,3.19270557 59.8913685,11.6763713 C70.4968317,20.160037 75.477682,33.8554045 72.8,47.17 C75.1620971,48.2628961 77.4013416,49.6037611 79.48,51.17 L62.48,74.81 L82.89,54.13 C91.6396931,62.7245832 95.4608204,75.1545297 93.05,87.18 C110.209773,95.1727328 118.343426,115.012851 111.73218,132.750748 C105.120934,150.488646 85.9858645,160.165202 67.7808577,154.97682 C49.5758509,149.788438 38.4169548,131.478177 42.15,112.92 C26.9834378,105.851792 18.6181302,89.3277272 21.9,72.92 L21.9,72.91 Z" id="Path" fill="#254095"></path>
                    <path d="M89.85,63.69 C93.5381136,70.9485164 94.6657511,79.240176 93.05,87.22 C110.209773,95.2127328 118.343426,115.052851 111.73218,132.790748 C105.120934,150.528646 85.9858645,160.205202 67.7808577,155.01682 C49.5758509,149.828438 38.4169548,131.518177 42.15,112.96 C35.02,109.65 88.02,60.06 89.85,63.69 Z" id="Path" fill="#000000"></path>
                    <circle id="Oval" fill="#254095" cx="48.97" cy="5.78" r="5.39"></circle>
                    <circle id="Oval" fill="#254095" cx="17.51" cy="9.24" r="5.39"></circle>
                    <circle id="Oval" fill="#254095" cx="5.39" cy="57.63" r="5.39"></circle>
                    <circle id="Oval" fill="#254095" cx="21.76" cy="81.8" r="5.39"></circle>
                    <circle id="Oval" fill="#254095" cx="44.12" cy="131.99" r="5.39"></circle>
                    <circle id="Oval" fill="#000000" cx="44.12" cy="131.99" r="5.39"></circle>
                    <circle id="Oval" fill="#254095" cx="93.85" cy="75.14" r="5.39"></circle>
                    <circle id="Oval" fill="#000000" cx="93.85" cy="75.14" r="5.39"></circle>
                    <path d="M99.6,163.72 C103.18,161.91 104.26,156.79 102.17,152.06 C102.28,152.26 102.39,152.45 102.49,152.65 C104.96,157.54 103.94,163.03 100.2,164.92 C96.46,166.81 91.44,164.38 88.97,159.49 C88.87,159.29 88.77,159.09 88.68,158.88 C91.25,163.37 96.02,165.53 99.6,163.72 Z" id="Path" fill="#000000"></path>
                    <path d="M104.91,174.24 C108.49,172.43 109.58,167.3 107.49,162.58 C107.6,162.77 107.71,162.97 107.81,163.17 C110.28,168.06 109.26,173.55 105.52,175.44 C101.78,177.33 96.76,174.9 94.29,170.01 C94.18,169.81 94.09,169.6 94,169.4 C96.57,173.91 101.35,176.05 104.91,174.24 Z" id="Path" fill="#000000"></path>
                    <path d="M110.23,184.75 C113.81,182.94 114.9,177.82 112.8,173.09 C112.92,173.29 113.02,173.48 113.13,173.69 C115.6,178.57 114.57,184.07 110.84,185.95 C107.11,187.83 102.08,185.41 99.61,180.52 C99.5,180.32 99.41,180.12 99.32,179.91 C101.88,184.4 106.65,186.56 110.23,184.75 Z" id="Path" fill="#000000"></path>
                    <path d="M115.55,195.27 C119.13,193.46 120.22,188.34 118.12,183.61 C118.23,183.8 118.34,184 118.44,184.2 C120.92,189.09 119.89,194.58 116.16,196.47 C112.43,198.36 107.39,195.93 104.92,191.04 C104.82,190.84 104.73,190.63 104.64,190.43 C107.2,194.91 111.97,197.08 115.55,195.27 Z" id="Path" fill="#000000"></path>
                    <path d="M120.87,205.78 C124.45,203.97 125.53,198.85 123.44,194.13 C123.55,194.32 123.66,194.52 123.76,194.72 C126.23,199.61 125.21,205.1 121.48,206.99 C117.75,208.88 112.71,206.44 110.24,201.56 C110.14,201.35 110.05,201.15 109.95,200.95 C112.52,205.43 117.29,207.59 120.87,205.78 Z" id="Path" fill="#000000"></path>
                    <path d="M126.19,216.3 C129.77,214.49 130.85,209.37 128.76,204.64 C128.87,204.84 128.98,205.03 129.08,205.23 C131.55,210.12 130.53,215.61 126.8,217.5 C123.07,219.39 118.03,216.96 115.56,212.07 C115.46,211.87 115.36,211.67 115.27,211.46 C117.84,215.91 122.61,218.11 126.19,216.3 Z" id="Path" fill="#000000"></path>
                    <path d="M131.51,226.82 C135.08,225.01 136.17,219.88 134.08,215.16 C134.19,215.35 134.3,215.55 134.4,215.75 C136.87,220.64 135.85,226.13 132.11,228.02 C128.37,229.91 123.35,227.47 120.88,222.59 C120.78,222.38 120.68,222.18 120.59,221.98 C123.16,226.46 127.93,228.63 131.51,226.82 Z" id="Path" fill="#000000"></path>
                    <path d="M136.82,237.33 C140.4,235.52 141.49,230.4 139.39,225.67 C139.51,225.87 139.61,226.06 139.72,226.27 C142.19,231.15 141.16,236.65 137.43,238.53 C133.7,240.41 128.67,237.99 126.2,233.1 C126.09,232.9 126,232.7 125.91,232.49 C128.48,236.98 133.24,239.14 136.82,237.33 Z" id="Path" fill="#000000"></path>
                    <path d="M140.35,244.24 C143.93,242.43 145.01,237.31 142.92,232.58 C143.03,232.78 143.14,232.97 143.24,233.18 C145.71,238.06 144.69,243.56 140.96,245.44 C137.23,247.32 132.19,244.9 129.72,240.01 C129.62,239.81 129.52,239.61 129.43,239.4 C131.97,243.91 136.74,246.05 140.35,244.24 Z" id="Path" fill="#000000"></path>
                    <path d="M44.21,197.44 C43.6545994,195.84963 43.3181801,194.191084 43.21,192.51 C42.2020619,192.506445 41.2806867,191.939712 40.8229156,191.041715 C40.3651445,190.143719 40.4478003,189.065161 41.037059,188.247404 C41.6263178,187.429648 42.6232904,187.009927 43.62,187.16 C44.8350683,181.640623 48.4661779,176.959465 53.51,174.41 C52.838974,173.081755 53.3717552,171.461026 54.7,170.79 C56.0282448,170.118974 57.648974,170.651755 58.32,171.98 C58.437064,172.206013 58.5180434,172.448951 58.56,172.7 C64.5633626,171.597931 70.7296609,173.459736 75.12,177.7 C76.7728538,177.429393 78.4545937,177.382304 80.12,177.56 L82.3,187.48 L82.35,177.91 C89.1032041,179.471116 94.4548711,184.612498 96.2852987,191.297735 C98.1157263,197.982971 96.1295903,205.133455 91.1135647,209.917003 C86.0975391,214.700552 78.8609176,216.34538 72.27,214.2 C72.0067965,214.665065 71.6142447,215.043721 71.14,215.29 C70.1275378,215.801038 68.9036285,215.624884 68.0763815,214.84906 C67.2491345,214.073236 66.9949014,212.863133 67.44,211.82 C66.5825526,211.221374 65.7764348,210.552396 65.03,209.82 C56.960694,211.127226 48.9672946,207.090156 45.23,199.82 L55.38,198.11 L44.21,197.44 Z" id="Path" fill="#254095"></path>
                    <path d="M59.89,202.26 C63.64,197.26 65.94,191.46 68.58,185.84 C69.637218,183.527309 70.8258251,181.276969 72.14,179.1 L74.14,176.79 C74.48,177.08 74.81,177.37 75.14,177.67 C76.7928538,177.399393 78.4745937,177.352304 80.14,177.53 L82.32,187.45 L82.35,177.91 C89.1032041,179.471116 94.4548711,184.612498 96.2852987,191.297735 C98.1157263,197.982971 96.1295903,205.133455 91.1135647,209.917003 C86.0975391,214.700552 78.8609176,216.34538 72.27,214.2 C72.0067965,214.665065 71.6142447,215.043721 71.14,215.29 C70.1275378,215.801038 68.9036285,215.624884 68.0763815,214.84906 C67.2491345,214.073236 66.9949014,212.863133 67.44,211.82 C66.5825526,211.221374 65.7764348,210.552396 65.03,209.82 C61.1779558,210.43767 57.2291447,209.854601 53.72,208.15 C56.0802336,206.531496 58.1637029,204.542577 59.89,202.26 L59.89,202.26 Z" id="Path" fill="#000000"></path>
                    <path d="M126.26,181 C125.936954,180.363848 125.880906,179.625141 126.104273,178.947531 C126.327641,178.26992 126.811983,177.709347 127.45,177.39 C127.827473,177.196752 128.245944,177.097279 128.67,177.1 C129.432806,173.050264 131.501704,169.362076 134.56,166.6 C134.065485,164.678255 133.879832,162.690077 134.01,160.71 L143.9,159.05 L134.29,158.44 C134.464075,157.536791 134.704732,156.647698 135.01,155.78 C134.632344,155.528669 134.325822,155.184263 134.12,154.78 C133.628046,153.794515 133.784029,152.608997 134.514155,151.784306 C135.244282,150.959615 136.402158,150.661105 137.44,151.03 C139.206177,148.517255 141.566197,146.480149 144.31,145.1 C150.910878,141.750375 158.861593,142.576468 164.632844,147.211578 C170.404094,151.846687 172.926355,159.431838 171.08,166.6 C172.039571,167.011302 172.674499,167.940674 172.708781,168.984116 C172.743062,170.027558 172.170505,170.996601 171.24,171.47 C170.548656,171.820435 169.740051,171.856859 169.02,171.57 C168.054907,173.187883 166.851378,174.650996 165.45,175.91 C166.474908,179.897977 166.169423,184.111562 164.58,187.91 L151.35,184.43 L163.18,190.66 C159.563803,196.430625 153.117525,199.803578 146.314939,199.48448 C139.512353,199.165382 133.410126,195.2038 130.35,189.12 C129.303618,187.040027 128.646151,184.786341 128.41,182.47 C127.486735,182.386471 126.672874,181.830018 126.26,181 Z" id="Path" fill="#254095"></path>
                    <path d="M126.26,181 C125.936954,180.363848 125.880906,179.625141 126.104273,178.947531 C126.327641,178.26992 126.811983,177.709347 127.45,177.39 C127.827473,177.196752 128.245944,177.097279 128.67,177.1 C129.432806,173.050264 131.501704,169.362076 134.56,166.6 C134.48,166.29 134.41,165.97 134.35,165.66 C134.708702,165.915775 135.043413,166.203626 135.35,166.52 C137.14,168.52 138.06,171.11 139.82,173.09 C142.02526,175.364898 144.990068,176.749425 148.15,176.98 C151.279993,177.195436 154.424613,176.942653 157.48,176.23 C159.999797,175.580871 162.599334,175.294652 165.2,175.38 L165.94,175.48 L165.48,175.91 C166.504908,179.897977 166.199423,184.111562 164.61,187.91 L151.35,184.43 L163.18,190.66 C159.563803,196.430625 153.117525,199.803578 146.314939,199.48448 C139.512353,199.165382 133.410126,195.2038 130.35,189.12 C129.303618,187.040027 128.646151,184.786341 128.41,182.47 C127.486735,182.386471 126.672874,181.830018 126.26,181 Z" id="Path" fill="#000000"></path>
                </g>
                <path d="M346.35,51.91 C342.396459,51.1595126 338.308924,51.6051724 334.61,53.19 C330.122699,55.1896839 324.997301,55.1896839 320.51,53.19 C315.202335,50.8633891 309.140883,50.9840332 303.93,53.52 C302.459646,54.2966165 300.822843,54.7049593 299.16,54.71 C292.44,54.71 286.85,47.94 285.69,39.01 C287.029887,38.0278414 288.170245,36.7992423 289.05,35.39 C292.99,29.04 299.05,24.96 305.94,24.96 C312.83,24.96 318.83,28.96 322.77,35.27 C325.163803,39.1237564 329.393475,41.4508339 333.93,41.41 L334.11,41.41 C339.41,41.38 344.04,45.67 346.35,51.91 Z" id="Path" fill="#254095" opacity="0.1"></path>
                <path d="M366.77,23.91 L355.91,30.8 L362.5,18.8 C360.631284,17.3108551 358.31933,16.4874193 355.93,16.46 L355.76,16.46 C355.006473,16.4692128 354.253589,16.4123282 353.51,16.29 L349.82,18.63 L351.4,15.76 C348.799764,14.8550778 346.547876,13.1591685 344.96,10.91 L338.35,15.04 L342.51,7.47 C338.66,2.84 333.46,0 327.75,0 C320.9,0 314.75,4.08 310.85,10.43 C308.474546,14.2910355 304.210725,16.58136 299.68,16.43 L299.35,16.43 C291.79,16.43 285.65,25 285.65,35.59 C285.65,46.18 291.79,54.74 299.35,54.74 C301.012843,54.7349593 302.649646,54.3266165 304.12,53.55 C309.331055,51.0118252 315.394887,50.894791 320.7,53.23 C325.188639,55.2233848 330.311361,55.2233848 334.8,53.23 C340.06314,50.944983 346.059827,51.0617779 351.23,53.55 C352.68895,54.305848 354.306893,54.7034781 355.95,54.71 C363.52,54.71 369.65,46.14 369.65,35.56 C369.67653,31.4972612 368.686488,27.4924047 366.77,23.91 L366.77,23.91 Z" id="Path" fill="#254095" opacity="0.1"></path>
                <path d="M120.35,190.45 C114.70315,189.381578 108.866173,190.015049 103.58,192.27 C97.1641713,195.1141 89.841628,195.095921 83.44,192.22 C75.8596905,188.896419 67.2024587,189.068248 59.76,192.69 C57.6568662,193.797947 55.3171073,194.381171 52.94,194.39 C43.34,194.39 35.35,184.72 33.69,171.96 C35.6083177,170.562206 37.2382378,168.806646 38.49,166.79 C44.12,157.72 52.84,151.89 62.63,151.89 C72.42,151.89 81.03,157.65 86.63,166.62 C90.053415,172.149989 96.1267204,175.47892 102.63,175.39 L102.88,175.39 C110.46,175.38 117.08,181.51 120.35,190.45 Z" id="Path" fill="#254095" opacity="0.1"></path>
                <path d="M149.55,150.4 L134.03,160.24 L143.45,143.11 C140.780294,140.978994 137.475687,139.800034 134.06,139.76 L133.81,139.76 C132.73167,139.77577 131.654078,139.695452 130.59,139.52 L125.35,142.91 L127.61,138.81 C123.880973,137.506926 120.660363,135.056461 118.41,131.81 L108.99,137.81 L114.92,126.91 C109.41,120.3 101.99,116.25 93.83,116.25 C84.04,116.25 75.32,122.07 69.69,131.14 C66.2952801,136.680791 60.1843378,139.969242 53.69,139.75 L53.16,139.75 C42.35,139.75 33.59,152 33.59,167.12 C33.59,182.24 42.35,194.49 53.16,194.49 C55.5386398,194.48368 57.8797646,193.896682 59.98,192.78 C67.4239328,189.161452 76.0811507,188.993279 83.66,192.32 C90.061628,195.195921 97.3841713,195.2141 103.8,192.37 C111.32113,189.105587 119.889474,189.269801 127.28,192.82 C129.360372,193.908754 131.671966,194.481508 134.02,194.49 C144.83,194.49 153.59,182.23 153.59,167.12 C153.665374,161.296218 152.276173,155.546853 149.55,150.4 Z" id="Path" fill="#254095" opacity="0.1"></path>
                <path d="M747.97,90.91 C751.923565,90.1601256 756.010921,90.6057658 759.71,92.19 C764.193642,94.1905077 769.316358,94.1905077 773.8,92.19 C779.107665,89.8633891 785.169117,89.9840332 790.38,92.52 C791.850782,93.2954955 793.487305,93.7037684 795.15,93.71 C801.87,93.71 807.47,86.94 808.63,78.01 C807.287801,77.0304399 806.146992,75.8013543 805.27,74.39 C801.35,68.02 795.22,63.91 788.35,63.91 C781.48,63.91 775.47,67.91 771.53,74.22 C769.1398,78.0913717 764.8996,80.4314464 760.35,80.39 L760.18,80.39 C754.86,80.38 750.22,84.67 747.97,90.91 Z" id="Path" fill="#254095" opacity="0.1"></path>
                <path d="M727.49,62.91 L738.35,69.78 L731.75,57.78 C733.619466,56.2922059 735.930942,55.4689406 738.32,55.44 L738.5,55.44 C739.25351,55.4486523 740.006345,55.3917714 740.75,55.27 L744.43,57.61 L742.85,54.74 C745.468892,53.8501923 747.74242,52.1607862 749.35,49.91 L755.94,54.09 L751.77,46.52 C755.63,41.89 760.77,39.05 766.54,39.05 C773.39,39.05 779.54,43.13 783.44,49.48 C785.81397,53.3426094 790.078783,55.6334667 794.61,55.48 L794.97,55.48 C802.54,55.48 808.67,64.05 808.67,74.64 C808.67,85.23 802.54,93.79 794.97,93.79 C793.307453,93.7825849 791.671208,93.3743812 790.2,92.6 C784.988945,90.0618252 778.925113,89.944791 773.62,92.28 C769.134749,94.272936 764.015251,94.272936 759.53,92.28 C754.263475,89.9945953 748.2636,90.1113812 743.09,92.6 C741.631459,93.3569357 740.013248,93.7546315 738.37,93.76 C730.81,93.76 724.67,85.19 724.67,74.61 C724.616645,70.5355253 725.586235,66.5127586 727.49,62.91 L727.49,62.91 Z" id="Path" fill="#254095" opacity="0.1"></path>
                <ellipse id="Oval" fill="#254095" opacity="0.1" cx="615.63" cy="756.88" rx="115" ry="20"></ellipse>
                <polygon id="Path" fill="#D0D2D5" points="555.44 661.88 377.25 659.59 377.78 655.02 386.39 579.63 542.88 579.63 554.39 655.02 555.27 660.74"></polygon>
                <polygon id="Path" fill="#000000" opacity="0.1" points="555.27 660.74 466.35 660.74 377.25 659.59 377.78 655.02 554.39 655.02"></polygon>
                <rect id="Rectangle" fill="#D0D2D5" x="347.55" y="656.17" width="236.45" height="5.71"></rect>
                <path d="M809.59,126.83 C809.617679,118.625285 802.994671,111.948577 794.79,111.91 L134.47,111.91 C130.526217,111.928522 126.751324,113.512969 123.975776,116.314772 C121.200228,119.116575 119.651391,122.906218 119.67,126.85 L119.669834,527.1 L809.590086,527.1 L809.59,126.83 Z" id="Path" fill="#3F3D56"></path>
                <path d="M119.67,523.1 L119.67,569.98 C119.67,578.153814 126.296186,584.78 134.47,584.78 L794.79,584.78 C802.963814,584.78 809.59,578.153814 809.59,569.98 L809.59,523.1 L119.67,523.1 Z" id="Path" fill="#D0D2D5"></path>
                <rect id="Rectangle" fill="#FFFFFF" x="148.23" y="137.01" width="636.23" height="359.81"></rect>
                <path d="M468.06,566.99 C472.793682,566.995285 477.266799,564.823261 480.19,561.1 L480.19,561.1 C480.628509,560.540537 481.029391,559.952577 481.39,559.34 L472.92,557.91 L482.07,557.97 C483.843073,554.113389 483.94798,549.696439 482.36,545.76 L470.09,552.12 L481.41,543.8 C478.512485,538.819531 473.079926,535.870037 467.324865,536.152769 C461.569805,536.435502 456.452512,539.903287 454.057129,545.143783 C451.661747,550.38428 452.387959,556.523077 455.94,561.06 L455.94,561.06 C458.852953,564.795512 463.322987,566.982583 468.06,566.99 L468.06,566.99 Z" id="Path" fill="#254095"></path>
                <polygon id="Path" fill="#000000" opacity="0.1" points="483.48 584.77 554.57 656.17 543.66 584.77"></polygon>
                <rect id="Rectangle" fill="#444053" opacity="0.1" x="147.73" y="137.05" width="636.92" height="21.02"></rect>
                <rect id="Rectangle" fill="#254095" opacity="0.3" x="368.87" y="140.71" width="191.9" height="12.79" rx="0.58"></rect>
                <path d="M555.07,148.43 L554.6,148.43 L554.43,148.28 C555.011923,147.580768 555.33038,146.699703 555.33,145.79 C555.313445,143.70505 553.611793,142.027231 551.526817,142.040085 C549.44184,142.052938 547.761004,143.751608 547.770156,145.836605 C547.779307,147.921601 549.474991,149.60545 551.56,149.6 C552.470797,149.596729 553.351724,149.274784 554.05,148.69 L554.22,148.84 L554.22,149.31 L557.15,152.24 L558.02,151.36 L555.07,148.43 Z M551.56,148.43 C550.491319,148.434048 549.525614,147.793406 549.11384,146.807233 C548.702065,145.82106 548.925457,144.683912 549.679699,143.926803 C550.433941,143.169693 551.570232,142.941987 552.557961,143.350016 C553.54569,143.758045 554.189992,144.721311 554.19,145.79 C554.195349,146.490063 553.920302,147.163148 553.426208,147.65912 C552.932115,148.155092 552.260078,148.432693 551.56,148.43 Z" id="Shape" fill="#3F3D56"></path>
                <circle id="Oval" fill="#FA5959" opacity="0.8" cx="159.18" cy="147.56" r="3.85"></circle>
                <circle id="Oval" fill="#FED253" opacity="0.8" cx="169.77" cy="147.56" r="3.85"></circle>
                <circle id="Oval" fill="#8CCF4D" opacity="0.8" cx="180.37" cy="147.56" r="3.85"></circle>
                <path d="M500.05,291.4 C491.32,279.8 478.67,272.48 464.59,272.48 C450.51,272.48 437.86,279.8 429.13,291.4 C431.059814,296.133893 433.915671,300.434678 437.53,304.05 C446.601691,313.11741 459.611686,317.038911 472.183212,314.495248 C484.754739,311.951585 495.216879,303.280844 500.05,291.4 L500.05,291.4 Z" id="Path" fill="#254095"></path>
                <path d="M424.52,298.19 C423.898227,297.922639 423.307965,297.587263 422.76,297.19 C421.931299,296.511334 421.267886,295.653001 420.82,294.68 C422.406126,291.421686 421.31559,287.492153 418.277132,285.517267 C415.238674,283.542381 411.204836,284.141262 408.871188,286.913713 C406.537539,289.686164 406.635667,293.763034 409.1,296.42 C409.601395,296.95221 410.173388,297.413169 410.8,297.79 C411.614095,298.261226 412.276731,298.955085 412.71,299.79 C413.528215,301.441931 414.655172,302.921912 416.03,304.15 C417.440626,305.359997 418.9643,306.431592 420.58,307.35 C418.35581,313.644558 417.094927,320.238906 416.84,326.91 C414.254262,326.953638 411.688144,327.367854 409.22,328.14 C407.95625,328.532786 406.764234,329.127105 405.69,329.9 C405.401221,329.865092 405.110837,329.845065 404.82,329.84 C401.181571,329.839914 398.116538,332.557846 397.681427,336.170164 C397.246316,339.782483 399.578283,343.150495 403.112665,344.014389 C406.647047,344.878283 410.269718,342.965737 411.55,339.56 C412.128951,337.945326 413.559919,336.788209 415.26,336.56 C415.873979,336.485878 416.491591,336.445817 417.11,336.44 C417.968992,345.849578 420.888011,354.95487 425.66,363.11 C421.42,366.4 418.81,369.99 417.71,373.97 C417.504607,374.083884 417.313297,374.221493 417.14,374.38 C416.838576,374.61593 416.557581,374.876855 416.3,375.16 C413.929295,377.767045 413.800846,381.709168 415.996809,384.465011 C418.192772,387.220854 422.064056,387.975835 425.13461,386.247072 C428.205165,384.518309 429.567384,380.816796 428.35,377.51 C427.681944,375.735526 428.143045,373.733477 429.52,372.43 C430,371.98 430.52,371.5 431.22,370.97 C439.33,380.44 448.98,386.51 461.03,387.23 L461.03,322.98 C445.1,322.11 431.22,311.74 424.52,298.19 Z M524.35,329.91 C524.059119,329.914027 523.76868,329.934057 523.48,329.97 C522.395406,329.214416 521.20616,328.621478 519.95,328.21 C517.482464,327.435281 514.915971,327.021005 512.33,326.98 C512.052485,320.31476 510.792225,313.727035 508.59,307.43 C510.2057,306.511592 511.729374,305.439997 513.14,304.23 C514.558873,302.932017 515.725193,301.382575 516.58,299.66 C516.980637,298.911978 517.597474,298.302111 518.35,297.91 C521.751887,295.997648 523.003384,291.718235 521.167939,288.274246 C519.332493,284.830256 515.082275,283.482937 511.597921,285.24055 C508.113568,286.998163 506.671107,291.217041 508.35,294.74 C507.909616,295.717526 507.244971,296.577454 506.41,297.25 C505.848735,297.713625 505.261084,298.144346 504.65,298.54 C497.95,312.08 484.08,322.16 468.17,323.03 L468.17,387.34 C480.17,386.62 489.88,380.52 497.98,371.08 C498.61,371.58 499.14,372.03 499.59,372.45 C501.024548,373.780724 501.521141,375.841978 500.85,377.68 C499.639366,380.982614 500.999598,384.676002 504.063129,386.40449 C507.12666,388.132978 510.991332,387.387557 513.192226,384.643662 C515.39312,381.899768 515.282111,377.965429 512.93,375.35 C512.672419,375.066855 512.391424,374.80593 512.09,374.57 C511.76,374.31 511.52,374.16 511.52,374.16 C510.42,370.16 507.82,366.59 503.52,363.3 C508.291989,355.14487 511.211008,346.039578 512.07,336.63 C512.661773,336.637028 513.252693,336.677091 513.84,336.75 C515.573923,336.974207 517.048801,338.123463 517.69,339.75 C518.920231,342.884624 522.16364,344.743146 525.490079,344.219562 C528.816518,343.695978 531.332181,340.930974 531.54,337.57 C531.640749,335.590549 530.931179,333.655404 529.57472,332.210276 C528.218261,330.765148 526.33186,329.934626 524.35,329.91 L524.35,329.91 Z" id="Shape" fill="#254095"></path>
                <path d="M681,745.22 C680.419195,744.298947 679.685305,743.483889 678.83,742.81 C674.46,738.68 672.43,732.62 671.35,726.68 C670.27,720.74 669.96,714.68 668.23,708.87 C667.289089,705.890993 666.112022,702.991797 664.71,700.2 C663.71,698.06 662.45,693.87 660.62,692.37 C660.260933,692.059429 659.826325,691.849023 659.36,691.76 C658.495546,689.922745 657.2635,688.282286 655.74,686.94 C652.88,684.35 649.39,682.29 647.48,678.94 C646.955006,677.778073 646.308041,676.675216 645.55,675.65 C644.26,674.23 642.22,673.65 641.03,672.15 C639.48,670.21 639.83,667.43 640.03,664.96 C640.23,662.49 640.03,659.53 637.89,658.23 C636.61,657.44 634.96,657.52 633.63,656.82 C631.63,655.82 630.84,653.3 630.88,651.05 C630.92,648.8 631.62,646.61 631.8,644.36 C632.36,637.2 627.64,630.08 629.46,623.14 C630.15,620.51 631.73,618.23 632.9,615.78 C633.308008,614.964668 633.642661,614.11465 633.9,613.24 C637.020174,614.476923 640.299072,615.268033 643.64,615.59 C638.13,603.23 639.53,588.87 636.96,575.59 L637.29,575.14 C639.885588,571.71619 641.359517,567.573822 641.51,563.28 C641.51,558.34 639.2,553.72 638.16,548.88 C637.27,544.77 637.31,540.47 636.16,536.43 C635.362154,533.91941 634.303019,531.499489 633,529.21 C631.753333,526.896667 630.443333,524.62 629.07,522.38 C627.79,518.14 626.506667,513.9 625.22,509.66 C623.42,503.71 621.57,497.66 618.07,492.52 C616.79,490.64 616.4,486.82 614.43,485.68 C612.83043,484.852276 611.015602,484.534681 609.23,484.77 C606.45,483.21 604.01,480.96 603.66,477.88 C603.625413,477.207062 603.692843,476.532764 603.86,475.88 L604.2,475.88 C608.6,475.48 610.83,471.6 613.12,468.2 C616.82,462.7 615.41,455.26 613.12,449 C612.552314,447.024276 611.524183,445.21134 610.12,443.71 C606.91,440.71 601.83,441.37 597.69,439.92 C596.3,439.44 595,438.71 593.58,438.37 C590.83,437.73 587.95,438.63 585.43,439.9 C582.91,441.17 580.56,442.81 577.92,443.81 C575.28,444.81 572.02,445.6 571.37,448.31 C571.187811,449.222739 571.264003,450.168214 571.59,451.04 C572.197548,452.778834 573.265482,454.320254 574.68,455.5 C572.405083,460.190367 572.299308,465.64195 574.390571,470.417032 C576.481834,475.192114 580.560162,478.811256 585.55,480.32 C586.31,481.54 587.02,482.78 587.67,484.05 C588.83,486.29 589.81,488.93 589.41,491.33 C588.686566,492.098634 588.018242,492.917332 587.41,493.78 C584.54,497.78 582.91,502.47 581.41,507.15 C579.395106,513.125695 577.781516,519.229274 576.58,525.42 C574.14,530.61 571.16,535.57 569.39,541.02 C566.220877,541.024044 563.065715,540.600216 560.01,539.76 L551.57,537.85 C548.63,537.18 545.57,536.46 543.27,534.52 C542.05,533.52 541.1,532.19 539.86,531.2 C538.62,530.21 536.13,529.05 534.77,529.87 C534.521413,530.021053 534.290045,530.19877 534.08,530.4 C532.84,527.89 531.66,525.4 530.22,522.97 C528.15,519.57 525.07,516.46 521.17,515.81 C518.787072,515.426629 516.348874,515.993986 514.38,517.39 C512.1,519.01 510.67,522.39 512.38,524.67 C512.807249,525.177357 513.271881,525.652017 513.77,526.09 C514.927606,527.42362 515.961844,528.859504 516.86,530.38 C520.083463,534.904652 524.905366,538.035851 530.35,539.14 L530,540.14 C529.29,542.22 527.78,544.73 528.16,546.89 L565.7,559.74 C568.108274,560.717466 570.664071,561.28204 573.26,561.41 C574.272719,561.4016 575.280459,561.267234 576.26,561.01 L576.26,562.93 L576.26,563.01 C576.36,576.2 574.26,589.3 573.87,602.48 C573.8,604.89 573.87,607.48 575.39,609.36 C577.09,611.42 580.11,611.83 582.74,611.36 C583.373333,611.253333 583.993333,611.113333 584.6,610.94 C585.489567,614.257783 586.131335,617.63709 586.52,621.05 L589,638.91 C589.319099,640.738472 589.449783,642.594856 589.39,644.45 C589.1,648.64 586.89,652.39 585.29,656.26 C583.69,660.13 582.74,664.76 584.84,668.38 C585.5,669.5 586.41,670.45 587,671.61 C587.749854,673.405915 588.091414,675.345974 588,677.29 C588.153333,682.676667 588.3,688.07 588.44,693.47 C588.003589,693.398344 587.555993,693.487153 587.18,693.72 C585.1,695.34 585.33,703.05 585.18,705.44 C585.02,709.44 585.18,713.52 584.96,717.56 C584.699989,723.004643 583.824413,728.402348 582.35,733.65 C581.98955,735.355858 581.201562,736.942156 580.06,738.26 C578.890537,739.277141 577.495223,740.000511 575.99,740.37 C571.00769,741.930321 565.798144,742.640253 560.58,742.47 C558.47,742.4 556.27,742.2 554.31,743 C552.35,743.8 550.77,746 551.48,748 C552.09,749.68 553.94,750.48 555.61,751.11 C559.424966,752.453581 563.107348,754.147476 566.61,756.17 C567.958171,757.088537 569.379633,757.89459 570.86,758.58 C572.278951,759.089746 573.746729,759.451664 575.24,759.66 L592.97,762.72 C596.6,763.34 600.97,763.72 603.28,760.72 C604.53,759.1 604.71,756.9 604.65,754.84 C604.55,750.84 603.75,746.77 604.27,742.77 C604.664883,740.405383 605.28779,738.084555 606.13,735.84 C607.896667,730.593333 609.67,725.35 611.45,720.11 C613.23,714.85 615.03,709.54 615.72,704.02 C615.97,702.02 615.95,699.74 614.42,698.49 C614.03302,698.172565 613.583125,697.940801 613.1,697.81 C613.04,692.99 612.41,688.16 612.68,683.34 C612.75,682.14 612.87,680.94 612.97,679.73 C613.8969,680.610775 614.725117,681.589882 615.44,682.65 C617.15,685.33 617.78,688.87 620.39,690.65 C622.61,692.17 625.9,692.09 627.46,694.29 C627.96116,695.135049 628.338345,696.047701 628.58,697 C629.485456,699.357775 630.844424,701.515136 632.58,703.35 C633.175676,705.545109 634.003689,707.670454 635.05,709.69 C636.523333,712.803333 637.99,715.906667 639.45,719 C640.950922,722.338863 642.619719,725.599693 644.45,728.77 C645.847392,730.765736 646.973883,732.938014 647.8,735.23 C649.21,740.17 646.91,745.59 643.27,749.23 C639.63,752.87 634.83,754.96 630.1,756.91 C629.601664,757.078641 629.144892,757.35134 628.76,757.71 C628.350109,758.195536 628.133008,758.81481 628.15,759.45 C628.15,761.76 630.05,763.74 632.23,764.45 C634.458484,765.04865 636.793713,765.134127 639.06,764.7 C651.84,763.15 664.58,760.03 675.88,753.82 C677.570163,753.018963 679.067574,751.862649 680.27,750.43 C681.453082,748.959792 681.733459,746.958744 681,745.22 L681,745.22 Z" id="Path" fill="url(#linearGradient-1)"></path>
                <path d="M626.99,520.97 C629.123333,524.243333 631.123333,527.596667 632.99,531.03 C634.297594,533.300998 635.360224,535.704485 636.16,538.2 C637.32,542.2 637.29,546.47 638.16,550.55 C639.16,555.35 641.5,559.93 641.5,564.85 C641.347315,569.11285 639.872532,573.222673 637.28,576.61 C634.69498,579.968317 631.735915,583.02132 628.46,585.71 C620.908651,566.147446 616.690191,545.457386 615.98,524.5 C615.88,521.6 615.86,518.61 616.92,515.9 C617.57,514.2 620.69,509.54 622.7,511.37 C623.43,512.04 623.62,515.06 624.07,516.07 C624.912679,517.777734 625.889054,519.416172 626.99,520.97 Z" id="Path" fill="#2F2E41"></path>
                <path d="M626.99,520.97 C629.123333,524.243333 631.123333,527.596667 632.99,531.03 C634.297594,533.300998 635.360224,535.704485 636.16,538.2 C637.32,542.2 637.29,546.47 638.16,550.55 C639.16,555.35 641.5,559.93 641.5,564.85 C641.347315,569.11285 639.872532,573.222673 637.28,576.61 C634.69498,579.968317 631.735915,583.02132 628.46,585.71 C620.908651,566.147446 616.690191,545.457386 615.98,524.5 C615.88,521.6 615.86,518.61 616.92,515.9 C617.57,514.2 620.69,509.54 622.7,511.37 C623.43,512.04 623.62,515.06 624.07,516.07 C624.912679,517.777734 625.889054,519.416172 626.99,520.97 Z" id="Path" fill="#000000" opacity="0.1"></path>
                <path d="M363.35,384.54 C355.44,392.44 354.49,395.92 349.74,397.49 C344.99,399.06 327.9,407.91 333.27,417.72 L347.71,427.26 L348.13,427.54 L350.34,434.18 L328.5,473.06 C328.5,473.06 292.5,456.6 288.97,480.95 C285.44,505.3 287.68,511.95 286.73,524.95 C285.78,537.95 287.04,541.71 283.87,541.71 C280.7,541.71 279.45,533.17 279.45,533.17 C279.45,533.17 279.25,532.78 278.9,532.05 C274.19,522.26 242.22,450.39 293.43,400.99 C293.43,400.99 317.15,399.43 322.86,372.23 C326.8,353.43 340.58,355.05 349.74,358.88 C352.717127,360.047346 355.49128,361.677414 357.96,363.71 C360.181535,365.813271 362.157484,368.161597 363.85,370.71 C366.46,374.83 367.88,380 363.35,384.54 Z" id="Path" fill="#D0D2D5"></path>
                <path d="M348.13,427.54 L350.34,434.18 L328.5,473.06 C328.5,473.06 292.5,456.6 288.97,480.95 C285.44,505.3 287.68,511.95 286.73,524.95 C285.78,537.95 287.04,541.71 283.87,541.71 C280.7,541.71 279.45,533.17 279.45,533.17 C279.45,533.17 279.25,532.78 278.9,532.05 C277.31,519.89 269.25,448.76 298.47,452.54 C298.47,452.54 322.18,463.62 325.97,459.2 C328.97,455.7 342.29,435.57 347.71,427.31 L348.13,427.54 Z" id="Path" fill="#000000" opacity="0.1"></path>
                <path d="M363.85,370.65 L349.41,387.06 C349.41,387.06 332.64,409.5 329.16,408.55 C328.118055,408.322821 327.056256,408.198888 325.99,408.18 C323.620639,407.998513 321.566955,406.470372 320.712481,404.253013 C319.858007,402.035654 320.355139,399.524539 321.99,397.8 C327.71,391.8 338.25,380.41 338.94,377.88 C339.63,375.35 346.34,364.26 349.7,358.83 C352.677127,359.997346 355.45128,361.627414 357.92,363.66 C360.154951,365.757959 362.144369,368.10299 363.85,370.65 L363.85,370.65 Z" id="Path" fill="#000000" opacity="0.1"></path>
                <path d="M772.41,606.74 C769.96,611.64 757.41,630.02 751.92,638.05 L749.35,641.83 C749.35,641.83 748.35,648.47 731.96,640.24 C715.57,632.01 330.48,469.52 330.48,469.52 L327.87,461.68 L346.87,433.23 L768.94,596.3 C768.94,596.3 775.58,600.41 772.41,606.74 Z" id="Path" fill="#454B69"></path>
                <path d="M751.92,638.05 L749.35,641.83 C749.35,641.83 748.35,648.47 731.96,640.24 C715.57,632.01 330.48,469.52 330.48,469.52 L327.87,461.68 L751.92,638.05 Z" id="Path" fill="#000000" opacity="0.1"></path>
                <path d="M519.64,531.91 C515.73,531.27 511.39,531.58 508.35,534.12 C506.51256,535.675896 505.350949,537.884391 505.11,540.28 C504.85,543.05 506.46,546.34 509.24,546.55 C509.909001,546.55753 510.577603,546.514071 511.24,546.42 C512.996201,546.412441 514.749652,546.559677 516.48,546.86 C523.390922,547.509969 530.187523,544.765977 534.71,539.5 C537.1,536.5 533.95,535.2 531.13,534.6 C527.27,533.78 523.5,532.53 519.64,531.91 Z" id="Path" fill="#FBBEBE"></path>
                <path d="M586.52,622.22 L589,639.84 C589.315805,641.658713 589.443146,643.505153 589.38,645.35 C589.09,649.5 586.88,653.22 585.29,657.06 C583.7,660.9 582.73,665.5 584.84,669.06 C585.49,670.17 586.4,671.12 586.99,672.27 C587.739649,674.048423 588.08135,675.972199 587.99,677.9 L588.67,702.9 C596.389352,703.426708 604.137042,703.383257 611.85,702.77 C612.151809,702.784383 612.44909,702.692367 612.69,702.51 C612.893502,702.251701 612.996526,701.928418 612.98,701.6 C613.32,695.75 612.3,689.89 612.63,684.04 C612.75,681.9 613.05,679.77 613.09,677.62 C613.21,668.91 608.91,660.38 610.21,651.77 C610.618199,649.597455 611.152434,647.450495 611.81,645.34 C615.92,630.34 615.05,614.58 614.14,599.09 C614.155528,598.840641 614.084921,598.593516 613.94,598.39 C613.792486,598.242265 613.604631,598.141379 613.4,598.1 C604.52155,595.436016 594.901945,597.264413 587.62,603 C586.53,603.88 583.78,604.73 583.06,605.78 C582.06,607.24 583.37,608.7 583.95,610.25 C585.234749,614.135938 586.096403,618.14917 586.52,622.22 L586.52,622.22 Z" id="Path" fill="#3F3D56"></path>
                <path d="M586.52,622.22 L589,639.84 C589.315805,641.658713 589.443146,643.505153 589.38,645.35 C589.09,649.5 586.88,653.22 585.29,657.06 C583.7,660.9 582.73,665.5 584.84,669.06 C585.49,670.17 586.4,671.12 586.99,672.27 C587.739649,674.048423 588.08135,675.972199 587.99,677.9 L588.67,702.9 C596.389352,703.426708 604.137042,703.383257 611.85,702.77 C612.151809,702.784383 612.44909,702.692367 612.69,702.51 C612.893502,702.251701 612.996526,701.928418 612.98,701.6 C613.32,695.75 612.3,689.89 612.63,684.04 C612.75,681.9 613.05,679.77 613.09,677.62 C613.21,668.91 608.91,660.38 610.21,651.77 C610.618199,649.597455 611.152434,647.450495 611.81,645.34 C615.92,630.34 615.05,614.58 614.14,599.09 C614.155528,598.840641 614.084921,598.593516 613.94,598.39 C613.792486,598.242265 613.604631,598.141379 613.4,598.1 C604.52155,595.436016 594.901945,597.264413 587.62,603 C586.53,603.88 583.78,604.73 583.06,605.78 C582.06,607.24 583.37,608.7 583.95,610.25 C585.234749,614.135938 586.096403,618.14917 586.52,622.22 L586.52,622.22 Z" id="Path" fill="#000000" opacity="0.1"></path>
                <path d="M632.89,616.91 C631.72,619.34 630.15,621.6 629.45,624.21 C627.63,631.1 632.34,638.21 631.78,645.27 C631.6,647.5 630.91,649.67 630.86,651.9 C630.81,654.13 631.63,656.61 633.61,657.64 C634.94,658.32 636.61,658.25 637.86,659.03 C639.97,660.32 640.21,663.25 640,665.71 C639.79,668.17 639.44,670.92 641,672.84 C642.19,674.33 644.23,674.91 645.51,676.32 C646.271614,677.332149 646.918887,678.425469 647.44,679.58 C649.35,682.92 652.84,684.96 655.7,687.58 C658.56,690.2 660.98,694.04 659.7,697.67 C658.76,700.33 656.12,701.97 653.58,703.22 C648.945663,705.510552 644.054362,707.23946 639.01,708.37 C638.468647,708.533727 637.895813,708.564598 637.34,708.46 C636.777121,708.25448 636.275029,707.910582 635.88,707.46 C632.93,704.57 629.88,701.54 628.52,697.65 C628.278143,696.707235 627.900886,695.804514 627.4,694.97 C625.84,692.78 622.55,692.86 620.33,691.35 C617.73,689.58 617.1,686.07 615.4,683.42 C613.7,680.77 611.21,679.19 609.4,676.86 C606.34,672.98 605.59,667.8 603.4,663.37 C602.47,661.49 601.28,659.73 600.54,657.77 C599.793184,655.420708 599.333179,652.989731 599.17,650.53 C597.76,638.85 594.17,627.09 596.43,615.53 C596.93,612.99 597.7,610.53 598.02,607.91 C598.57,603.38 597.7,598.74 598.37,594.22 C598.40315,593.070463 598.959173,591.998921 599.88,591.31 C600.420349,591.067428 601.007825,590.947883 601.6,590.96 C607.528248,590.64313 613.472,590.776847 619.38,591.36 C622.38,591.65 625.74,592.26 627.54,594.71 C629.07,596.81 628.99,599.62 629.48,602.17 C630.09,605.31 631.68,607.02 633.35,609.48 C635.02,611.94 634.12,614.37 632.89,616.91 Z" id="Path" fill="#3F3D56"></path>
                <path d="M609.82,698.17 C611.4,698.17 613.15,698.07 614.37,699.07 C615.89,700.32 615.91,702.61 615.67,704.56 C614.97,710.04 613.18,715.31 611.39,720.56 L606.07,736.17 C605.227961,738.397461 604.605016,740.701687 604.21,743.05 C603.69,747.05 604.49,751.05 604.59,755.05 C604.59,757.05 604.46,759.27 603.21,760.88 C600.95,763.79 596.54,763.45 592.91,762.88 L575.2,759.88 C573.705931,759.681024 572.237526,759.322304 570.82,758.81 C569.342035,758.127612 567.920861,757.32841 566.57,756.42 C563.065431,754.417561 559.383061,752.743757 555.57,751.42 C553.91,750.8 552.05,750.01 551.45,748.34 C550.74,746.34 552.32,744.14 554.28,743.34 C556.24,742.54 558.43,742.74 560.55,742.8 C565.763186,742.965978 570.967642,742.263038 575.95,740.72 C577.450753,740.351964 578.842406,739.632143 580.01,738.62 C581.196275,737.286907 582.004218,735.660663 582.35,733.91 C583.85892,728.698218 584.758262,723.32901 585.03,717.91 C585.24,713.91 585.1,709.91 585.26,705.91 C585.36,703.54 585.13,695.91 587.21,694.28 C588.8,693.06 595.34,696.43 597.49,696.92 C601.532258,697.846386 605.674066,698.266277 609.82,698.17 L609.82,698.17 Z" id="Path" fill="#2F2E41"></path>
                <path d="M668.16,709.29 C669.89,715.02 670.16,721.08 671.28,726.97 C672.4,732.86 674.38,738.87 678.75,742.97 C679.600429,743.645185 680.333611,744.456078 680.92,745.37 C681.672278,747.115809 681.382581,749.135959 680.17,750.6 C678.96272,752.022478 677.466147,753.171328 675.78,753.97 C664.49,760.13 651.78,763.24 638.97,764.78 C636.706301,765.20405 634.376577,765.118649 632.15,764.53 C629.97,763.79 628.04,761.83 628.08,759.53 C628.058917,758.898937 628.272712,758.282494 628.68,757.8 C629.069108,757.444213 629.529223,757.17496 630.03,757.01 C634.75,755.07 639.54,752.96 643.19,749.38 C646.84,745.8 649.13,740.38 647.72,735.52 C646.885005,733.243736 645.751791,731.088275 644.35,729.11 C642.521759,725.965964 640.85298,722.73187 639.35,719.42 L634.95,710.19 C633.66,707.49 632.36,704.71 632.14,701.73 C637.667347,701.977602 643.186976,701.092828 648.36,699.13 C650.774712,698.14542 653.024183,696.796412 655.03,695.13 C656.73,693.71 658.28,691.06 660.57,692.91 C662.41,694.39 663.57,698.56 664.65,700.67 C666.053022,703.442848 667.226934,706.325789 668.16,709.29 Z" id="Path" fill="#2F2E41"></path>
                <path d="M603.68,480.1 C604.12,483.94 607.84,486.47 611.39,487.99 L588.92,495.16 C590.37,492.38 589.2,488.98 587.76,486.16 C586.587216,483.927241 585.250204,481.78468 583.76,479.75 C583.54,479.44 583.29,479.05 583.45,478.69 C583.592704,478.454846 583.816954,478.280429 584.08,478.2 C588.7,476.14 593.46,474.01 598.51,473.26 C599.97,473.05 602.73,472.47 603.82,473.95 C604.91,475.43 603.47,478.33 603.68,480.1 Z" id="Path" fill="#FBBEBE"></path>
                <path d="M603.68,480.1 C604.12,483.94 607.84,486.47 611.39,487.99 L588.92,495.16 C590.37,492.38 589.2,488.98 587.76,486.16 C586.587216,483.927241 585.250204,481.78468 583.76,479.75 C583.54,479.44 583.29,479.05 583.45,478.69 C583.592704,478.454846 583.816954,478.280429 584.08,478.2 C588.7,476.14 593.46,474.01 598.51,473.26 C599.97,473.05 602.73,472.47 603.82,473.95 C604.91,475.43 603.47,478.33 603.68,480.1 Z" id="Path" fill="#000000" opacity="0.1"></path>
                <circle id="Oval" fill="#FBBEBE" cx="590.62" cy="465.59" r="17.62"></circle>
                <path d="M575.35,610.59 C577.06,612.64 580.07,613.04 582.7,612.59 C588.85,611.59 593.88,607.06 599.9,605.43 C607.28,603.43 615.09,606 622.06,609.15 C629.03,612.3 635.96,616.15 643.58,616.69 C636.69,601.33 640.63,582.85 634.04,567.36 C632.43,563.57 630.18,559.92 629.82,555.82 C629.37,550.73 631.91,545.82 632.3,540.76 C632.66,536.25 631.3,531.76 630,527.46 C628.393333,522.18 626.786667,516.9 625.18,511.62 C623.38,505.71 621.53,499.7 618.04,494.62 C616.75,492.75 616.36,488.96 614.4,487.83 C610.12,485.36 603.63,488.47 598.99,488.64 C594.35,488.81 590.12,492.11 587.41,495.84 C584.54,499.78 582.91,504.47 581.41,509.11 C579.021577,516.01887 577.238199,523.12227 576.08,530.34 C575.93,531.42 575.8,532.5 575.7,533.59 C574.7,543.86 576.16,554.19 576.24,564.51 L576.24,564.58 C576.34,577.67 574.24,590.68 573.85,603.76 C573.81,606.15 573.87,608.76 575.35,610.59 Z" id="Path" fill="#2F2E41"></path>
                <path d="M576.27,564.52 C579.72,563.65 582.84,561.42 585.52,558.98 C587.84114,556.902489 589.902748,554.552122 591.66,551.98 C593.872339,548.52185 595.64912,544.803707 596.95,540.91 C600.652266,530.496526 603.00476,519.651528 603.95,508.64 C604.21,505.64 604.29,502.42 602.5,500.04 C600.430732,497.385288 596.804867,496.506793 593.75,497.92 C591.39,499.07 589.86,501.4 588.44,503.63 C585.63,508.05 582.8,512.53 580.99,517.45 C580.19,519.63 579.6,521.87 578.82,524.06 C578.026787,526.21999 577.111992,528.333368 576.08,530.39 C575.93,531.47 575.8,532.55 575.7,533.64 C574.77,543.91 576.19,554.2 576.27,564.52 Z" id="Path" fill="#000000" opacity="0.1"></path>
                <path d="M602.45,498.11 C604.24,500.49 604.16,503.74 603.91,506.7 C602.966723,517.711824 600.614175,528.55707 596.91,538.97 C595.620157,542.896526 593.842955,546.645783 591.62,550.13 C589.859688,552.699746 587.798386,555.049764 585.48,557.13 C582.08,560.23 577.94,563 573.33,563.04 C570.735301,562.917848 568.179639,562.360064 565.77,561.39 L528.22,548.61 C527.84,546.47 529.35,543.97 530.06,541.91 L532.06,535.98 C532.63,534.34 533.29,532.57 534.78,531.68 C536.27,530.79 538.63,532.01 539.87,533 C541.11,533.99 542.05,535.29 543.27,536.3 C545.58,538.22 548.63,538.94 551.57,539.6 L560,541.49 C563.056152,542.326959 566.211323,542.747424 569.38,542.74 C571.73,535.56 576.2,529.24 578.73,522.12 C579.51,519.94 580.1,517.69 580.91,515.51 C582.71,510.59 585.55,506.12 588.36,501.69 C589.77,499.47 591.3,497.14 593.67,495.98 C596.734607,494.548898 600.381834,495.433704 602.45,498.11 Z" id="Path" fill="#2F2E41"></path>
                <path d="M596.24,469.57 C596.106602,468.411108 595.746424,467.289799 595.18,466.27 C594.575525,465.222116 593.360954,464.687705 592.18,464.95 C590.42,465.5 589.83,468.22 587.99,468.31 C586.75,468.37 585.86,467.11 585.47,465.93 C585.08,464.75 584.87,463.4 583.94,462.57 C583.29248,462.085827 582.549365,461.744949 581.76,461.57 C577.49,460.22 573.08,457.73 571.66,453.48 C571.325887,452.617218 571.246069,451.676749 571.43,450.77 C572.08,448.08 575.43,447.27 577.98,446.3 C580.53,445.33 582.98,443.67 585.48,442.41 C587.98,441.15 590.88,440.26 593.63,440.9 C595.025435,441.338878 596.397264,441.849559 597.74,442.43 C601.88,443.87 606.95,443.2 610.16,446.19 C611.562618,447.673136 612.591097,449.469546 613.16,451.43 C615.4,457.65 616.82,465.03 613.11,470.49 C610.82,473.86 608.6,477.71 604.2,478.12 C599.08,478.55 597.05,473.91 596.24,469.57 Z" id="Path" fill="#2F2E41"></path>
                <g id="Group" opacity="0.1" transform="translate(571.000000, 447.000000)" fill="#000000">
                    <path d="M17.42,16.81 C17.03,15.63 16.82,14.28 15.9,13.45 C15.2524803,12.9658275 14.5093654,12.624949 13.72,12.45 C9.44,11.1 5.04,8.61 3.61,4.36 C3.28409602,3.49514609 3.20786326,2.55609707 3.39,1.65 C3.4880743,1.22279999 3.66806356,0.818673172 3.92,0.46 C2.29,1.17 0.87,2.11 0.47,3.77 C0.28606863,4.67674873 0.365887065,5.61721812 0.7,6.48 C2.12,10.73 6.53,13.22 10.8,14.57 C11.5893654,14.744949 12.3324803,15.0858275 12.98,15.57 C13.91,16.4 14.11,17.74 14.51,18.93 C14.91,20.12 15.79,21.37 17.03,21.31 C18.27,21.25 18.87,20.12 19.66,19.17 C18.57,19.03 17.78,17.91 17.42,16.81 Z" id="Path"></path>
                    <path d="M36.14,28.97 C31,29.44 28.97,24.76 28.14,20.45 C28.0301774,19.2942984 27.690167,18.1722639 27.14,17.15 C26.5332867,16.1046153 25.3206234,15.5710435 24.14,15.83 C23.2278115,16.272467 22.4610469,16.9663715 21.93,17.83 C22.8602712,17.919185 23.6958458,18.4367975 24.19,19.23 C24.756424,20.2497994 25.1166017,21.3711075 25.25,22.53 C26.06,26.84 28.09,31.53 33.25,31.05 C35.2894953,30.8250423 37.1719723,29.8481508 38.53,28.31 C37.7757273,28.6617794 36.9679053,28.8848599 36.14,28.97 L36.14,28.97 Z" id="Path"></path>
                </g>
                <ellipse id="Oval" fill="#254095" cx="813.11" cy="655.78" rx="32.29" ry="6.21"></ellipse>
                <ellipse id="Oval" fill="#3F3D56" cx="812.57" cy="653.14" rx="3.76" ry="4.92"></ellipse>
                <ellipse id="Oval" fill="#3F3D56" cx="812.57" cy="647.12" rx="3.76" ry="4.92"></ellipse>
                <ellipse id="Oval" fill="#3F3D56" cx="812.57" cy="641.11" rx="3.76" ry="4.92"></ellipse>
                <ellipse id="Oval" fill="#3F3D56" cx="812.57" cy="635.09" rx="3.76" ry="4.92"></ellipse>
                <ellipse id="Oval" fill="#3F3D56" cx="812.57" cy="629.07" rx="3.76" ry="4.92"></ellipse>
                <ellipse id="Oval" fill="#3F3D56" cx="812.57" cy="623.06" rx="3.76" ry="4.92"></ellipse>
                <ellipse id="Oval" fill="#3F3D56" cx="812.57" cy="617.04" rx="3.76" ry="4.92"></ellipse>
                <path d="M826.64,575.91 C827.153185,575.256127 827.620948,574.567847 828.04,573.85 L818.16,572.23 L828.85,572.3 C830.912176,567.790475 831.035068,562.63262 829.19,558.03 L814.85,565.47 L828.07,555.75 C824.688999,549.930007 818.343412,546.482595 811.620765,546.813507 C804.898119,547.144419 798.921774,551.198359 796.128693,557.322261 C793.335611,563.446164 794.192521,570.616717 798.35,575.91 C797.546846,576.925696 796.856146,578.025452 796.29,579.19 L809.12,585.86 L795.44,581.27 C793.499074,587.027195 794.593397,593.375022 798.35,598.15 C792.552326,605.530593 793.398618,616.127185 800.294226,622.494034 C807.189834,628.860884 817.820166,628.860884 824.715774,622.494034 C831.611382,616.127185 832.457674,605.530593 826.66,598.15 C831.803264,591.617546 831.803264,582.412454 826.66,575.88 L826.64,575.91 Z" id="Path" fill="#254095"></path>
                <path d="M794.47,587.01 C794.468252,591.054937 795.835801,594.981353 798.35,598.15 C792.552326,605.530593 793.398618,616.127185 800.294226,622.494034 C807.189834,628.860884 817.820166,628.860884 824.715774,622.494034 C831.611382,616.127185 832.457674,605.530593 826.66,598.15 C829.05,595.08 794.47,584.99 794.47,587.01 Z" id="Path" fill="#000000" opacity="0.1"></path>
                <ellipse id="Oval" fill="#254095" cx="148.42" cy="776.87" rx="46.49" ry="8.94"></ellipse>
                <ellipse id="Oval" fill="#3F3D56" cx="147.64" cy="773.07" rx="5.41" ry="7.09"></ellipse>
                <ellipse id="Oval" fill="#3F3D56" cx="147.64" cy="764.41" rx="5.41" ry="7.09"></ellipse>
                <ellipse id="Oval" fill="#3F3D56" cx="147.64" cy="755.75" rx="5.41" ry="7.09"></ellipse>
                <ellipse id="Oval" fill="#3F3D56" cx="147.64" cy="747.09" rx="5.41" ry="7.09"></ellipse>
                <ellipse id="Oval" fill="#3F3D56" cx="147.64" cy="738.43" rx="5.41" ry="7.09"></ellipse>
                <ellipse id="Oval" fill="#3F3D56" cx="147.64" cy="729.76" rx="5.41" ry="7.09"></ellipse>
                <ellipse id="Oval" fill="#3F3D56" cx="147.64" cy="721.1" rx="5.41" ry="7.09"></ellipse>
                <path d="M167.9,661.84 C168.632213,660.885284 169.300344,659.883087 169.9,658.84 L155.68,656.5 L171.06,656.62 C174.039194,650.128117 174.216396,642.696498 171.55,636.07 L150.93,646.81 L169.93,632.81 C165.080266,624.395373 155.934844,619.396377 146.233636,619.857286 C136.532428,620.318196 127.902141,626.161724 123.872017,634.998238 C119.841893,643.834752 121.087707,654.182536 127.1,661.81 C125.932116,663.270117 124.926222,664.852725 124.1,666.53 L142.57,676.13 L122.88,669.52 C120.076163,677.846679 121.679574,687.026772 127.14,693.91 C118.777953,704.539991 119.990553,719.811761 129.925318,728.98896 C139.860082,738.166159 155.179918,738.166159 165.114682,728.98896 C175.049447,719.811761 176.262047,704.539991 167.9,693.91 C175.301682,684.504951 175.301682,671.255049 167.9,661.85 L167.9,661.84 Z" id="Path" fill="#254095"></path>
                <path d="M121.59,677.91 C121.59093,683.715225 123.545894,689.351158 127.14,693.91 C118.777953,704.539991 119.990553,719.811761 129.925318,728.98896 C139.860082,738.166159 155.179918,738.166159 165.114682,728.98896 C175.049447,719.811761 176.262047,704.539991 167.9,693.91 C171.35,689.49 121.59,674.96 121.59,677.91 Z" id="Path" fill="#000000" opacity="0.1"></path>
            </g>
        </g>
    </g>
</svg>