<?xml version="1.0" encoding="UTF-8"?>
<svg width="1131px" height="740px" viewBox="0 0 1131 740" version="1.1" xmlns="http://www.w3.org/2000/svg" xmlns:xlink="http://www.w3.org/1999/xlink">
    <!-- Generator: Sketch 53.2 (72643) - https://sketchapp.com -->
    <title>undraw_pair_programming_njlp(1)</title>
    <desc>Created with Sketch.</desc>
    <defs>
        <linearGradient x1="-3.01724138%" y1="50.2564103%" x2="96.9827586%" y2="50.2564103%" id="linearGradient-1">
            <stop stop-color="#808080" stop-opacity="0.25" offset="0%"></stop>
            <stop stop-color="#808080" stop-opacity="0.12" offset="54%"></stop>
            <stop stop-color="#808080" stop-opacity="0.1" offset="100%"></stop>
        </linearGradient>
    </defs>
    <g id="Page-1" stroke="none" stroke-width="1" fill="none" fill-rule="evenodd">
        <g id="IllustrationUndraw" transform="translate(-1500.000000, -3000.000000)">
            <g id="undraw_pair_programming_njlp(1)" transform="translate(1500.000000, 3000.000000)">
                <path d="M584.48,133.75 C513.11,145.81 441.84,140.64 373.28,133.12 C304.72,125.6 236.33,115.78 164.93,118.74 C119,120.64 67.85,129.74 35.78,156.19 C4.91,181.63 0.1,215.96 0.04,246.95 C-0.04,270.26 1.98,294.38 18.5,312.95 C29.98,325.83 47.65,335.06 60.96,346.95 C107.27,388.25 93.19,453.28 62.8,508.57 C48.54,534.51 31.1,560.02 21.39,586.57 C11.68,613.12 10.39,641.57 27.77,663.22 C44.99,684.69 78.3,696.79 113.03,703.06 C183.57,715.8 262.16,707.89 338.2,697.17 C506.49,673.36 673.04,636.24 839.23,599.21 C900.72,585.5 962.48,571.73 1021.72,551.97 C1054.62,540.97 1088.12,527.28 1109.37,505.97 C1136.37,478.97 1137.05,442.04 1111.03,419.97 C1067.37,382.97 968.55,391.18 934.78,348.88 C916.2,325.59 924.29,293.96 939.08,266.02 C970.79,206.1 1032.08,146.9 1024.14,87.16 C1018.66,46.16 976.85,12.23 920.81,3.39 C862.07,-5.87 786.63,11.69 752.81,52.95 C718.04,95.46 647.5,123.07 584.48,133.75 Z" id="Path" fill="#1D3A8F" fill-rule="nonzero" opacity="0.1"></path>
                <rect id="Rectangle" fill="#565661" fill-rule="nonzero" x="360" y="360.24" width="283.43" height="65.63"></rect>
                <rect id="Rectangle" fill="#000000" fill-rule="nonzero" opacity="0.1" x="360" y="360.24" width="283.43" height="65.63"></rect>
                <polygon id="Path" fill="#BCBEC9" fill-rule="nonzero" points="393.91 428.03 395.9 603.24 368.64 672.06 366.53 428.03"></polygon>
                <polygon id="Path" fill="#565661" fill-rule="nonzero" points="362.99 372.84 638.94 374.5 638.94 423.38 362.99 423.38"></polygon>
                <polygon id="Path" fill="#BCBEC9" fill-rule="nonzero" points="615.33 428.03 638.94 431.36 638.94 669.4 615.33 596.59"></polygon>
                <rect id="Rectangle" fill="#EFEFF0" fill-rule="nonzero" x="647.91" y="362.87" width="132.99" height="282.6"></rect>
                <rect id="Rectangle" fill="#565661" fill-rule="nonzero" x="658.55" y="370.72" width="111.71" height="217.23"></rect>
                <rect id="Rectangle" fill="#000000" fill-rule="nonzero" opacity="0.1" x="658.55" y="370.72" width="111.71" height="217.23"></rect>
                <rect id="Rectangle" fill="#565661" fill-rule="nonzero" x="658.55" y="375.17" width="111.71" height="48.21"></rect>
                <rect id="Rectangle" fill="#565661" fill-rule="nonzero" x="658.55" y="428.03" width="111.71" height="102.4"></rect>
                <rect id="Rectangle" fill="#565661" fill-rule="nonzero" x="658.55" y="536.75" width="111.71" height="102.4"></rect>
                <rect id="Rectangle" fill="#000000" fill-rule="nonzero" opacity="0.1" x="658.55" y="536.75" width="111.71" height="102.4"></rect>
                <ellipse id="Oval" fill="#565661" fill-rule="nonzero" cx="663.21" cy="654.67" rx="7.2" ry="9.2"></ellipse>
                <ellipse id="Oval" fill="#565661" fill-rule="nonzero" cx="763.06" cy="655.11" rx="7.2" ry="9.2"></ellipse>
                <polygon id="Path" fill="#EFEFF0" fill-rule="nonzero" points="359 672.06 368.64 672.06 365.99 365.32 351.35 365.32"></polygon>
                <polygon id="Path" fill="#EFEFF0" fill-rule="nonzero" points="638.94 362.87 638.94 669.4 647.91 669.4 647.91 365.32"></polygon>
                <polygon id="Path" fill="#EFEFF0" fill-rule="nonzero" points="366.46 420.38 366.46 431.36 638.94 431.36 638.94 423.38"></polygon>
                <polygon id="Path" fill="#FFFFFF" fill-rule="nonzero" points="384.93 342.26 730.37 342.26 780.57 358.88 780.57 368.52 349.69 365.2 349.69 355.39"></polygon>
                <polygon id="Path" fill="#BCBEC9" fill-rule="nonzero" points="349.69 355.39 780.57 358.88 780.57 368.52 349.69 365.2"></polygon>
                <path d="M388.72,469.71 L386.72,469.41 C386.72,469.32 386.72,469.24 386.72,469.16 C386.66,468.69 386.59,468.23 386.52,467.76 C387.34,468.41 388.12,469.06 388.84,469.71 L388.72,469.71 Z" id="Path" fill="url(#linearGradient-1)" fill-rule="nonzero"></path>
                <path d="M345.26,624.12 C346.56,623.82 347.88,623.57 349.2,623.39 C358.265698,622.098997 367.511284,623.460481 375.82,627.31 C374.98,633.49 374.15,639.88 375.93,645.85 C377.17,650.05 379.66,653.85 380.19,658.23 C382.913764,658.69835 385.139494,660.664734 385.94,663.31 C386.323614,664.457459 386.516177,665.66013 386.51,666.87 C386.49889,668.366893 386.31092,669.857228 385.95,671.31 C385.69721,673.723182 383.569207,675.496518 381.15,675.31 C373.41,676.19 365.82,673.14 358.62,670.15 L344.62,664.33 C342.98,663.65 341.33,662.96 339.76,662.12 C336.782106,660.51103 334.138245,658.349106 331.97,655.75 C331.511555,655.286066 331.189783,654.7048 331.04,654.07 C330.78,652.31 332.84,651.26 334.15,650.07 C334.53368,649.707347 334.869706,649.297395 335.15,648.85 C336.7,646.51 336.85,643.28 337.78,640.52 C339.98,633.97 346.78,629.75 349.18,623.36 C349.31,623.01 349.43,622.66 349.53,622.3" id="Path" fill="#A26565" fill-rule="nonzero"></path>
                <path d="M386.51,666.87 C386.49889,668.366893 386.31092,669.857228 385.95,671.31 C385.69721,673.723182 383.569207,675.496518 381.15,675.31 C373.41,676.19 365.82,673.14 358.62,670.15 L344.62,664.33 C342.98,663.65 341.33,662.96 339.76,662.12 C336.782106,660.51103 334.138245,658.349106 331.97,655.75 C331.511555,655.286066 331.189783,654.7048 331.04,654.07 C330.78,652.31 332.84,651.26 334.15,650.07 C334.53368,649.707347 334.869706,649.297395 335.15,648.85 C339.01,649.68 343.8,652.11 346.75,653.05 C349.704839,653.854724 352.542102,655.041399 355.19,656.58 C358.87,658.94 361.52,662.58 364.64,665.58 C367.76,668.58 371.79,671.31 376.14,670.94 C378.439955,670.593323 380.656709,669.827289 382.68,668.68 L386.51,666.87 Z" id="Path" fill="#000000" fill-rule="nonzero" opacity="0.1"></path>
                <path d="M370.12,524.76 C370.6526,526.618129 369.974821,528.611595 368.42,529.76 C367.11,530.57 365.42,530.46 364.12,531.34 C362.51,532.47 362.28,534.71 362,536.65 C361,543.32 357.69,549.37 354.86,555.5 C352.03,561.63 349.64,568.32 350.68,574.98 C351.39,579.5 353.61,584.32 351.53,588.39 C351.02,589.39 350.26,590.28 349.68,591.25 C346.83,596.01 348.45,602.04 348.34,607.58 C348.381591,608.195129 348.246262,608.809313 347.95,609.35 C347.512824,609.860982 346.974952,610.276301 346.37,610.57 C344.313309,612.082082 343.057983,614.449163 342.96,617 C342.875735,619.518103 343.179284,622.034187 343.86,624.46 C343.970149,625.439138 344.402865,626.353821 345.09,627.06 C345.886123,627.586236 346.826206,627.851836 347.78,627.82 C354.062519,628.329076 360.225158,629.827549 366.04,632.26 C369.83,633.84 373.51,635.82 377.54,636.58 C378.32759,636.824589 379.181135,636.734171 379.9,636.33 C380.406739,635.872658 380.756615,635.267373 380.9,634.6 C382.45,629.5 384.02,624.24 383.49,618.94 C383.26,616.66 382.65,614.43 382.49,612.15 C381.79,603.15 387.88,595.03 389.81,586.15 C390.68,582.15 390.68,578.01 391.3,573.97 C392.98,562.9 399.08,552.97 401.43,542.02 C401.757083,539.978747 402.265769,537.970775 402.95,536.02 C404.7,531.78 408.75,528.34 408.84,523.75 C408.895574,522.740275 408.629485,521.73894 408.08,520.89 C407.137259,519.855234 405.884785,519.153568 404.51,518.89 C399.077179,517.395411 393.547246,516.2794 387.96,515.55 C385.399251,515.046882 382.785701,514.865478 380.18,515.01 C376.796227,515.407857 373.543869,516.555749 370.66,518.37 C366.8,520.75 369.28,521.32 370.12,524.76 Z" id="Path" fill="#454B69" fill-rule="nonzero"></path>
                <path d="M370.12,524.76 C370.6526,526.618129 369.974821,528.611595 368.42,529.76 C367.11,530.57 365.42,530.46 364.12,531.34 C362.51,532.47 362.28,534.71 362,536.65 C361,543.32 357.69,549.37 354.86,555.5 C352.03,561.63 349.64,568.32 350.68,574.98 C351.39,579.5 353.61,584.32 351.53,588.39 C351.02,589.39 350.26,590.28 349.68,591.25 C346.83,596.01 348.45,602.04 348.34,607.58 C348.381591,608.195129 348.246262,608.809313 347.95,609.35 C347.512824,609.860982 346.974952,610.276301 346.37,610.57 C344.313309,612.082082 343.057983,614.449163 342.96,617 C342.875735,619.518103 343.179284,622.034187 343.86,624.46 C343.970149,625.439138 344.402865,626.353821 345.09,627.06 C345.886123,627.586236 346.826206,627.851836 347.78,627.82 C354.062519,628.329076 360.225158,629.827549 366.04,632.26 C369.83,633.84 373.51,635.82 377.54,636.58 C378.32759,636.824589 379.181135,636.734171 379.9,636.33 C380.406739,635.872658 380.756615,635.267373 380.9,634.6 C382.45,629.5 384.02,624.24 383.49,618.94 C383.26,616.66 382.65,614.43 382.49,612.15 C381.79,603.15 387.88,595.03 389.81,586.15 C390.68,582.15 390.68,578.01 391.3,573.97 C392.98,562.9 399.08,552.97 401.43,542.02 C401.757083,539.978747 402.265769,537.970775 402.95,536.02 C404.7,531.78 408.75,528.34 408.84,523.75 C408.895574,522.740275 408.629485,521.73894 408.08,520.89 C407.137259,519.855234 405.884785,519.153568 404.51,518.89 C399.077179,517.395411 393.547246,516.2794 387.96,515.55 C385.399251,515.046882 382.785701,514.865478 380.18,515.01 C376.796227,515.407857 373.543869,516.555749 370.66,518.37 C366.8,520.75 369.28,521.32 370.12,524.76 Z" id="Path" fill="#000000" fill-rule="nonzero" opacity="0.05"></path>
                <polygon id="Path" fill="#565661" fill-rule="nonzero" points="350.55 675.47 342.02 675.47 336.44 560.83 336.05 554.31 343.3 551.76 343.79 558.69"></polygon>
                <polygon id="Path" fill="#000000" fill-rule="nonzero" opacity="0.1" points="343.79 558.69 336.44 560.83 336.05 554.31 343.3 551.76"></polygon>
                <polygon id="Path" fill="#565661" fill-rule="nonzero" points="457.58 699.72 443.51 701.42 378.69 554.31 361.21 553.03 330.51 561.99 324.54 737.14 310.47 737.14 316.01 555.59 282.32 556.45 222.2 706.11 209.41 706.11 272.64 531.2 275.08 524.46 369.31 521.23 392.8 534.4 393.1 535.16"></polygon>
                <path d="M393.1,535.16 C372.85,541.26 351.83,547.92 351.83,547.92 C351.83,547.92 332.66,554.61 324.54,547.92 C323.51608,547.121196 322.37184,546.490007 321.15,546.05 C322.20368,546.802652 323.341323,547.430202 324.54,547.92 L272.64,531.19 L275.07,524.46 L369.31,521.23 L392.8,534.4 L393.1,535.16 Z" id="Path" fill="#000000" fill-rule="nonzero" opacity="0.1"></path>
                <path d="M297.25,506.13 L335.62,497.6 C335.62,497.6 427.3,514.66 434.12,521.48 C434.12,521.48 360.78,536.4 352.68,541.48 C344.58,546.56 296.39,552.18 297.25,506.13 Z" id="Path" fill="#FFFFFF" fill-rule="nonzero"></path>
                <path d="M280.75,410.24 C277.75,419.75 269.56,428.32 259.59,428.73 C258.864559,428.814952 258.130224,428.682702 257.48,428.35 C256.23,427.57 256.2,425.74 256.71,424.35 C257.22,422.96 258.11,421.71 258.25,420.25 C258.279859,419.952065 258.259578,419.651232 258.19,419.36 C257.93,418.17 256.96,417.11 255.82,417.36 C257.428355,416.07292 257.796224,413.774818 256.67,412.05 C256.217431,411.539026 255.809284,410.990369 255.45,410.41 C254.62,408.71 255.91,406.8 256.45,404.98 C257.56,400.98 254.74,396.98 254.51,392.81 C254.31,389.08 256.2,385.57 256.67,381.87 C257.42,375.87 254.44,370.12 254.09,364.13 C253.85,359.95 254.88,355.81 256.03,351.78 C257.03,348.18 258.16,344.54 258.23,340.78 C258.23,338.05 257.76,335.35 257.63,332.63 C257.42253,330.143465 257.874386,327.646184 258.94,325.39 C259.632342,324.063379 260.811418,323.056326 262.23,322.58 C265.51,321.48 267.66,323.19 268.14,326.3 C268.94,331.59 268.48,336.99 269.53,342.3 C270.500818,347.265716 271.971643,352.120447 273.92,356.79 C275.69,361.01 277.84,365.09 279.2,369.46 C280.223886,373.061985 280.95625,376.740524 281.39,380.46 C282.73,390.45 283.78,400.73 280.75,410.24 Z" id="Path" fill="#1D3A8F" fill-rule="nonzero"></path>
                <path d="M508.51,652.28 C505.951315,655.886644 501.974801,658.229622 497.58,658.72 C493.24,659.26 488.73,658.17 484.52,659.36 C483.19581,659.577991 482.069177,660.445499 481.52,661.67 C481.415792,662.482981 481.352379,663.300673 481.33,664.12 C480.84,666.79 477.33,667.39 474.6,667.37 L463.34,667.3 C461,667.3 458.41,667.17 456.73,665.55 C455.077837,663.720133 455.035088,660.949977 456.63,659.07 C456.979289,658.656161 457.407654,658.316188 457.89,658.07 C456.456165,657.595531 455.41182,656.353921 455.19,654.86 C454.985251,653.389727 455.056468,651.894165 455.4,650.45 C455.4,646.27 456.4,639.27 459.34,636 C462.95,631.93 469.21,626.67 474.66,625.58 C478.391916,624.864412 482.242227,625.958672 485.04,628.53 C487.62,630.93 489.5,634.69 493.04,635.11 C494.97,635.35 496.83,634.44 498.74,634.11 C503.18797,633.537452 507.515551,635.823343 509.55,639.82 C510.03459,640.808823 510.37151,641.863382 510.55,642.95 C511.078382,646.206185 510.349124,649.54147 508.51,652.28 L508.51,652.28 Z" id="Path" fill="#A26565" fill-rule="nonzero"></path>
                <path d="M508.51,652.28 C505.951315,655.886644 501.974801,658.229622 497.58,658.72 C493.24,659.26 488.73,658.17 484.52,659.36 C483.19581,659.577991 482.069177,660.445499 481.52,661.67 C481.415792,662.482981 481.352379,663.300673 481.33,664.12 C480.84,666.79 477.33,667.39 474.6,667.37 L463.34,667.3 C461,667.3 458.41,667.17 456.73,665.55 C455.077837,663.720133 455.035088,660.949977 456.63,659.07 C463.13,658.8 469.52,659.07 476,657.73 C478.63,657.2 481.22,656.5 483.88,656.13 C489.64,655.31 495.77,656.01 501.06,653.57 C505.47,651.57 508.63,647.5 510.5,642.96 C511.040361,646.206565 510.329196,649.537246 508.51,652.28 L508.51,652.28 Z" id="Path" fill="#000000" fill-rule="nonzero" opacity="0.1"></path>
                <path d="M478.8,636.47 C474.8,639.57 470.11,641.99 465.07,642.25 C460.03,642.51 454.68,640.25 452.21,635.87 C448.6,629.44 451.8,620.5 447.38,614.6 C446,612.75 444.01,611.44 442.55,609.65 C441.09,607.86 440.25,605.17 441.55,603.27 C439.98,603.87 438.32,602.35 437.86,600.73 C437.4,599.11 437.69,597.37 437.41,595.73 C436.68,591.38 432.41,588.59 430.36,584.73 C428.31,580.87 428.59,575.86 428.36,571.29 C427.848835,560.155697 423.704146,549.495417 416.56,540.94 C415.2,539.32 413.46,537.67 411.34,537.75 C411.71,534.09 409.27,530.59 406.11,528.75 C402.95,526.91 399.19,526.29 395.53,525.93 C358.6,522.29 320.12,536.02 284.86,524.47 C275.05,521.26 265.59,515.89 259.59,507.47 C254.868366,500.996164 252.960836,492.890065 254.3,484.99 L254.3,484.85 C255.69,477.75 259.44,476 265.65,472.76 C272.819006,468.969893 280.312086,465.827418 288.04,463.37 C303.04,458.68 319.19,456.99 334.67,460.43 C341.9,462.05 348.87,464.73 356.11,466.3 C358.96,466.92 361.83,467.36 364.72,467.73 C369.21,468.29 373.72,468.66 378.24,469.18 C392.692699,470.844186 406.926592,474.045639 420.7,478.73 C425.83,480.47 430.96,482.46 435.37,485.61 C442.41625,490.727383 447.114012,498.458515 448.41,507.07 C448.83,510.01 448.84,513.07 449.48,515.92 C450.086466,518.315266 450.889179,520.656513 451.88,522.92 C460.424561,544.046276 467.406659,565.771329 472.77,587.92 C473.074142,589.56525 473.63784,591.151705 474.44,592.62 C475.72,594.69 477.92,596.08 479.21,598.15 C482.21,603.03 479.32,609.84 481.98,614.92 C482.9,616.68 484.43,618.07 485.35,619.83 C488.35,625.6 483.92,632.5 478.8,636.47 Z" id="Path" fill="#454B69" fill-rule="nonzero"></path>
                <path d="M427.7,521.57 C429.121512,520.445121 430.347942,519.093683 431.33,517.57 C432.315367,516.038678 432.706612,514.199828 432.43,512.4 C433.220699,517.016769 431.777722,521.735194 428.54,525.12 C426.03,527.69 421.32,530.21 417.65,529.33 C418.17,526.39 425.37,523.55 427.7,521.57 Z" id="Path" fill="#000000" fill-rule="nonzero" opacity="0.1"></path>
                <path d="M365.22,471.73 C364.606688,473.907516 362.937434,475.629405 360.78,476.31 C358.647683,476.961694 356.41512,477.222555 354.19,477.08 L352.19,477.08 C325.95,476.5 299.43,470.68 273.8,476.23 C270.711065,476.866744 267.680576,477.759835 264.74,478.9 C260.993546,480.376618 257.485703,482.39843 254.33,484.9 L254.33,484.76 C255.72,477.66 259.47,475.91 265.68,472.67 C272.842495,468.91241 280.325382,465.800118 288.04,463.37 C303.04,458.68 319.19,456.99 334.67,460.43 C341.9,462.05 348.87,464.73 356.11,466.3 C358.96,466.92 361.83,467.36 364.72,467.73 C365.280524,468.984003 365.454599,470.376607 365.22,471.73 Z" id="Path" fill="#000000" fill-rule="nonzero" opacity="0.1"></path>
                <path d="M365.22,470.3 C364.611245,472.482283 362.94086,474.209099 360.78,474.89 C358.648115,475.543347 356.414639,475.800926 354.19,475.65 L352.19,475.65 C325.95,475.07 299.43,469.25 273.8,474.8 C270.712487,475.438004 267.682371,476.327641 264.74,477.46 C260.816653,479.024553 257.157223,481.183111 253.89,483.86 C253.123333,481.753333 252.36,479.643333 251.6,477.53 C250.68,475.01 253.6,474.45 254.16,472.19 C254.53,470.66 253.9,468.92 253.58,467.29 C253.49791,466.890993 253.44444,466.48663 253.42,466.08 C253.24,462.47 254.53,460.39 257.49,458.44 C266.27,452.64 276.98,448.66 287,445.67 C292.32697,443.98593 297.829658,442.918946 303.4,442.49 C311.28,442.03 319.15,443.49 326.82,445.34 C336.25,447.67 345.58,450.75 353.94,455.68 C358.04,458.07 362.04,461.07 364.25,465.33 C365.131961,466.827075 365.474307,468.581159 365.22,470.3 L365.22,470.3 Z" id="Path" fill="#A26565" fill-rule="nonzero"></path>
                <path d="M280.75,410.24 C277.75,419.75 269.56,428.32 259.59,428.73 C258.864559,428.814952 258.130224,428.682702 257.48,428.35 C256.23,427.57 256.2,425.74 256.71,424.35 C257.22,422.96 258.11,421.71 258.25,420.25 C258.279859,419.952065 258.259578,419.651232 258.19,419.36 C263.48,411.9 268.61,404.36 270.64,395.53 C271.050935,394.009586 271.176389,392.426155 271.01,390.86 C270.74,389.06 269.83,387.43 269.33,385.69 C268.45,382.61 268.86,379.35 269.11,376.16 C270.151278,362.113309 267.805565,348.021885 262.27,335.07 C260.92,331.95 259.38,328.79 258.91,325.46 C259.602342,324.133379 260.781418,323.126326 262.2,322.65 C265.48,321.55 267.63,323.26 268.11,326.37 C268.91,331.66 268.45,337.06 269.5,342.37 C270.470818,347.335716 271.941643,352.190447 273.89,356.86 C275.66,361.08 277.81,365.16 279.17,369.53 C280.193886,373.131985 280.92625,376.810524 281.36,380.53 C282.73,390.45 283.78,400.73 280.75,410.24 Z" id="Path" fill="#000000" fill-rule="nonzero" opacity="0.1"></path>
                <path d="M365.22,470.3 C364.611245,472.482283 362.94086,474.209099 360.78,474.89 C358.648115,475.543347 356.414639,475.800926 354.19,475.65 L352.19,475.65 C343.648228,469.976817 333.379209,467.498089 323.19,468.65 C319.93,469.04 316.67,469.8 313.41,469.5 C306.82,468.9 301.48,464.16 295.61,461.13 C281.94554,454.382889 265.553242,456.606512 254.18,466.75 L253.61,467.25 C253.52791,466.850993 253.47444,466.44663 253.45,466.04 C253.27,462.43 254.56,460.35 257.52,458.4 C266.3,452.6 277.01,448.62 287.03,445.63 C292.35697,443.94593 297.859658,442.878946 303.43,442.45 C311.31,441.99 319.18,443.45 326.85,445.3 C336.28,447.63 345.61,450.71 353.97,455.64 C358.04,458.07 362.04,461.07 364.25,465.33 C365.131961,466.827075 365.474307,468.581159 365.22,470.3 L365.22,470.3 Z" id="Path" fill="#000000" fill-rule="nonzero" opacity="0.1"></path>
                <path d="M387.65,360.76 L387.51,361.12 C385.27,366.93 381.15,371.84 378.51,377.5 C375.18,384.67 374.36,392.71 373.62,400.59 C372.98,407.34 372.35,414.13 372.86,420.9 C374.14,437.58 382.29,453.4 384.47,469.76 C385.007177,473.538364 385.144603,477.362825 384.88,481.17 C384.7,483.58 384.26,486.17 382.66,487.95 C381.06,489.73 377.95,490.43 376.23,488.72 C377,487.25 377.78,485.79 378.56,484.32 C373.99,480.77 367.11,483.32 361.77,481.1 C359.42,480.1 357.54,478.3 355.57,476.69 C346.487043,469.304975 334.809923,465.894492 323.18,467.23 C319.92,467.63 316.66,468.39 313.4,468.09 C306.81,467.48 301.47,462.75 295.6,459.72 C281.936596,452.97588 265.547827,455.195069 254.17,465.33 C252.77,466.63 250.89,468.15 249.17,467.33 C248.505204,466.923008 247.96813,466.337424 247.62,465.64 C241.07,454.45 245.89,440.02 252.89,429.12 C259.89,418.22 269.16,408.17 272.04,395.54 C272.455822,394.020436 272.581349,392.436085 272.41,390.87 C272.14,389.07 271.23,387.44 270.73,385.7 C269.85,382.62 270.26,379.36 270.51,376.17 C271.559195,362.121599 269.22032,348.026617 263.69,335.07 C262.09,331.34 260.19,327.56 260.19,323.51 C260.19,317.13 264.76,311.84 268.54,306.71 C272.89,300.81 276.54,294.28 282.05,289.43 C287.27,284.82 294.83,282 301.29,284.34 C312.266874,281.67513 323.565164,280.574253 334.85,281.07 C338.75,281.25 342.78,281.66 346.2,283.55 C349.86,285.55 352.49,289.11 356.09,291.24 C358.72,292.81 361.75,293.55 364.61,294.65 C372.507295,297.734368 379.026489,303.564714 382.97,311.07 C386.97,318.82 387.97,327.73 388.85,336.41 C389.69,344.58 390.49,353.07 387.65,360.76 Z" id="Path" fill="#1D3A8F" fill-rule="nonzero"></path>
                <path d="M372.86,420.9 C374.14,437.58 382.29,453.4 384.47,469.76 C380.11,466.07 374.04,462.36 373.23,458.07 C372.33,453.43 369.45,447.35 368.97,442.66 C368.49,437.97 371.78,432.24 368.33,429.02 C366.65,427.45 371.12,427.89 369.48,426.28 C365.79,422.69 364.88,417.16 364.65,412.03 C364.26,402.95 365.41,393.77 363.74,384.84 C362.74,379.33 360.65,374.08 358.98,368.73 C357.04,362.5 355.64,356.12 354.24,349.73 C352.862101,344.04878 351.859931,338.282964 351.24,332.47 C350.81,327.47 351.01,322.17 353.24,317.61 C355.47,313.05 359.98,309.35 365.04,309.42 C381.96,309.64 379.04,332.58 382.76,343.18 C384.25,347.4 386.26,351.48 387.07,355.88 C387.365452,357.604877 387.525938,359.350168 387.55,361.1 C385.31,366.91 381.19,371.82 378.55,377.48 C375.22,384.65 374.4,392.69 373.66,400.57 C372.98,407.34 372.35,414.13 372.86,420.9 Z" id="Path" fill="#000000" fill-rule="nonzero" opacity="0.1"></path>
                <path d="M383.86,342.92 C385.35,347.14 387.36,351.22 388.17,355.62 C389.52,362.99 387.43,370.82 389.7,377.96 C390.290911,379.484043 390.785223,381.043799 391.18,382.63 C391.57,384.9 391.12,387.22 391.12,389.53 C391.12,393.25 392.29,396.85 393.33,400.42 C396.847002,412.551796 399.174646,424.997155 400.28,437.58 C400.445126,440.961199 400.978274,444.31433 401.87,447.58 C402.289976,448.686616 402.65049,449.814892 402.95,450.96 C403.218526,452.488062 403.28242,454.045074 403.14,455.59 C402.87,460.49 402.32,465.41 402.87,470.29 C403.42,475.17 405.2,480.12 408.87,483.39 C405.59,484.1 402.12,484.81 398.92,483.76 C394.42,482.29 391.72,477.76 389.43,473.64 C386.53,468.38 375.51,463.64 374.37,457.73 C373.48,453.1 370.6,447.02 370.12,442.32 C369.64,437.62 372.92,431.91 369.47,428.69 C367.8,427.12 372.27,427.55 370.62,425.95 C366.94,422.36 366.03,416.83 365.8,411.69 C365.41,402.62 366.55,393.44 364.89,384.51 C363.89,379 361.8,373.75 360.13,368.39 C358.19,362.17 356.79,355.79 355.39,349.39 C354.008116,343.709609 353.0059,337.943528 352.39,332.13 C351.96,327.13 352.15,321.82 354.39,317.26 C356.63,312.7 361.14,309.01 366.19,309.07 C383.04,309.37 380.14,332.32 383.86,342.92 Z" id="Path" fill="#1D3A8F" fill-rule="nonzero"></path>
                <path d="M335.64,346.83 C337.22,348.68 339.25,350.71 341.64,350.35 C341.26253,350.948241 340.476006,351.134874 339.87,350.77 C339.296296,350.389849 338.836603,349.861029 338.54,349.24 L335.12,343.47 C334.67,342.72 331.57,338.35 330.81,340.87 C330.51,341.94 334.87,345.93 335.64,346.83 Z" id="Path" fill="#000000" fill-rule="nonzero" opacity="0.1"></path>
                <path d="M333.8,361.22 C333.701733,359.33463 332.907066,357.552866 331.57,356.22 C330.368011,355.129789 328.965242,354.284052 327.44,353.73 C323.69,352.19 319.25,350.95 315.18,351.15 C316.66,353.31 321.41,354.6 323.79,355.82 C327.163333,357.56 330.5,359.36 333.8,361.22 Z" id="Path" fill="#000000" fill-rule="nonzero" opacity="0.1"></path>
                <path d="M344.45,402.18 C343.76,407.3 339.57,411.18 335.33,414.18 C331.09,417.18 326.33,419.76 323.56,424.1 C321.64,427.1 320.78,430.58 319.15,433.71 C317.35,437.16 314.66,440.06 312.51,443.3 C310.36,446.54 308.68,450.41 309.34,454.25 C309.359153,454.607179 309.525749,454.94037 309.8,455.17 C310.218936,455.346938 310.699665,455.293945 311.07,455.03 C315.43,452.75 317.15,447.54 318.98,443.03 C320.901115,438.477708 323.064201,434.031365 325.46,429.71 C326.54,427.71 327.73,425.53 329.74,424.42 C331.116237,423.846659 332.525398,423.35579 333.96,422.95 C335.994994,422.016752 337.780293,420.61524 339.17,418.86 C344.628977,412.347492 347.479355,404.042202 347.17,395.55 C347.11,393.76 347.01,385.14 344.32,387.8 C341.63,390.46 344.91,398.7 344.45,402.18 Z" id="Path" fill="#000000" fill-rule="nonzero" opacity="0.1"></path>
                <path d="M351.04,205.81 C359.64,209.56 367.04,217.81 366.77,227.16 C366.54,236.98 358.32,246.23 361.15,255.64 C362.79,261.1 367.73,264.76 371.64,268.91 C386.53,284.67 386.5,312.18 371.56,327.91 C365.84,333.91 358.49,338.18 352.44,343.91 C331.11,364.01 330.2,398.78 341.62,425.77 C332.870091,427.662409 323.951626,428.667495 315,428.77 C310.81,428.77 305.68,428.06 304.16,424.15 C302.76,420.54 305.16,415.66 302.4,412.99 C301.1,411.74 299.15,411.57 297.4,411.28 C286.14,409.46 276.9,400.47 272.68,389.88 C268.46,379.29 268.68,367.37 271.1,356.23 C272.82,348.18 275.51,339.32 271.52,332.12 C266.52,323.06 252.14,319.24 252.36,308.88 C252.54,300.39 262.55,296.26 268.23,289.95 C278.71,278.33 273.72,260.3 273.7,244.64 C273.7,230.86 278.52,216.64 288.78,207.46 C304.04,193.69 333.43,198.16 351.04,205.81 Z" id="Path" fill="#A26565" fill-rule="nonzero"></path>
                <g id="Group" opacity="0.1" transform="translate(252.000000, 225.000000)" fill="#000000" fill-rule="nonzero">
                    <path d="M21.16,96.85 C16.77,88.93 5.24,85.01 2.56,77.22 C1.21925768,79.0379852 0.465651542,81.2220474 0.4,83.48 C0.18,93.84 14.54,97.66 19.56,106.73 C21.2084652,109.940931 21.9025135,113.556923 21.56,117.15 C23.14,110.19 24.53,102.93 21.16,96.85 Z" id="Path"></path>
                    <path d="M110.3,17.82 C112.1,12.57 114.71,7.27 114.84,1.82 C114.858202,1.22953017 114.841506,0.638500662 114.79,0.05 C112.78,6.07 109.7,11.91 110.3,17.82 Z" id="Path"></path>
                    <path d="M22.88,45.79 C26.32,34.92 23.35,21.44 23.34,9.38 C23.34,7.92 23.4,6.45 23.51,4.99 C22.3251552,9.65066267 21.7271918,14.4410889 21.73,19.25 C21.75,27.86 23.26,37.2 22.88,45.79 Z" id="Path"></path>
                    <path d="M121.23,92.68 C115.51,98.68 108.16,102.95 102.11,108.68 C91.31,118.85 85.76,132.78 84.37,147.55 C86.95,136.55 92.16,126.42 100.51,118.55 C106.51,112.85 113.91,108.6 119.63,102.55 C126.433905,95.1350261 130.385122,85.5457962 130.78,75.49 C129.053012,81.9158459 125.773536,87.8189031 121.23,92.68 L121.23,92.68 Z" id="Path"></path>
                    <path d="M64.67,193.51 C60.48,193.51 55.35,192.79 53.83,188.88 C52.43,185.28 54.83,180.4 52.07,177.72 C50.77,176.47 48.81,176.3 47.07,176.01 C35.82,174.2 26.58,165.2 22.36,154.62 C19.25,146.8 18.58,138.27 19.36,129.85 C19.28,130.18 19.21,130.51 19.14,130.85 C16.76,141.99 16.51,153.92 20.72,164.51 C24.93,175.1 34.18,184.09 45.43,185.9 C47.21,186.19 49.17,186.37 50.43,187.61 C53.22,190.29 50.79,195.17 52.19,198.77 C53.71,202.68 58.84,203.45 63.03,203.4 C71.9815882,203.296884 80.8999921,202.291805 89.65,200.4 C88.415854,197.482672 87.337666,194.501799 86.42,191.47 C79.2383643,192.746437 71.9637356,193.428747 64.67,193.51 Z" id="Path"></path>
                </g>
                <path d="M349.42,374.9 C351.89,376.76 354.57,369.67 353.04,367.9 C352.63,368.36 349.04,374.64 349.42,374.9 Z" id="Path" fill="#000000" fill-rule="nonzero" opacity="0.1"></path>
                <path d="M359.95,503.24 C362.86,502.24 365.95,501.24 367.85,498.84 C369.42,496.91 370.71,489.25 367.39,492.92 C364.57,496.07 363.24,500.22 359.95,503.24 Z" id="Path" fill="#000000" fill-rule="nonzero" opacity="0.1"></path>
                <path d="M389.58,495.21 C389.23,497.57 388.58,500.02 386.91,501.72 C386.6,502.04 385.91,502.24 385.82,501.81 C387.685319,500.817009 389.418829,499.594146 390.98,498.17 C394.36,494.82 394.82,486.57 389.67,484.38 C389.62,488 390.13,491.53 389.58,495.21 Z" id="Path" fill="#000000" fill-rule="nonzero" opacity="0.1"></path>
                <path d="M425.15,480.34 C425.15,480.34 396.77,469.19 386.51,470.34 C376.25,471.49 398.13,487.66 398.13,487.66 L411.21,496.48 C411.21,496.48 419.21,493.48 419.74,493.25 C420.27,493.02 425.15,480.34 425.15,480.34 Z" id="Path" fill="#454B69" fill-rule="nonzero"></path>
                <path d="M229.88,360.72 C229.88,360.72 251.2,348.36 279.34,363.72 C307.48,379.08 312.17,469.47 312.17,469.47 C312.17,469.47 300.66,561.56 345.04,541.07 C345.04,541.07 426.04,515.92 434.15,521.46 C434.15,521.46 441.83,521.46 426.48,524.87 C411.13,528.28 351.83,547.07 351.83,547.07 C351.83,547.07 332.66,553.77 324.54,547.07 C316.42,540.37 293.41,547.93 290.42,501.87 C288.441263,472.844488 284.882657,443.948333 279.76,415.31 L271.85,391.86 L229.88,360.72 Z" id="Path" fill="#565661" fill-rule="nonzero"></path>
                <path d="M227.32,503.14 C227.32,503.14 236.7,409.76 221.32,376.07 C207.94,346.71 259.68,360.44 273.18,364.44 C275.269266,365.064639 277.091525,366.366253 278.36,368.14 C286.36,379.39 315.06,424.48 306.6,484.81 C306.6,484.81 303.19,538.54 324.51,547.06 L258.82,525.9 C253.49,524.18 248.08,522.75 242.62,521.51 C235.66,519.93 224.32,515.44 227.32,503.14 Z" id="Path" fill="#FFFFFF" fill-rule="nonzero"></path>
                <polygon id="Path" fill="#565661" fill-rule="nonzero" points="694.53 677.47 703.06 677.47 708.65 562.83 709.03 556.31 701.78 553.76 701.3 560.69"></polygon>
                <polygon id="Path" fill="#000000" fill-rule="nonzero" opacity="0.1" points="701.3 560.69 708.65 562.83 709.03 556.31 701.78 553.76"></polygon>
                <path d="M623.31,633.2 C623.100184,634.770268 622.69713,636.308591 622.11,637.78 C621.503644,639.701499 620.202072,641.327572 618.46,642.34 C617.289868,642.823273 616.036002,643.071328 614.77,643.07 C610.06,643.35 605.08,643.28 601.03,640.88 C599.304626,639.768313 597.722721,638.448379 596.32,636.95 C587.218933,627.907536 578.945894,618.068242 571.6,607.55 C570.37,605.78 569.1,603.69 569.65,601.55 C579.16591,598.91053 588.201923,594.775634 596.42,589.3 C597.554071,588.429933 598.824662,587.754086 600.18,587.3 C602.500379,586.804007 604.889424,586.716025 607.24,587.04 C609.51,587.41 609.61,587.48 610.48,590.04 C611.92,594.37 611.68,599.04 613.3,603.37 C614.328212,605.762823 615.580456,608.053022 617.04,610.21 C621.22,617.2 624.43,625.45 623.31,633.2 Z" id="Path" fill="#A26565" fill-rule="nonzero"></path>
                <path d="M623.31,633.2 C623.100184,634.770268 622.69713,636.308591 622.11,637.78 C621.503644,639.701499 620.202072,641.327572 618.46,642.34 C617.289868,642.823273 616.036002,643.071328 614.77,643.07 C610.06,643.35 605.08,643.28 601.03,640.88 C599.304626,639.768313 597.722721,638.448379 596.32,636.95 C587.218933,627.907536 578.945894,618.068242 571.6,607.55 C570.37,605.78 569.1,603.69 569.65,601.55 C572.75437,600.68966 575.811841,599.668278 578.81,598.49 L578.96,598.6 C582.03,600.79 584.26,603.93 586.43,607.01 L593.43,616.86 C594.677779,618.794652 596.151486,620.573844 597.82,622.16 C599.888771,623.820286 602.17286,625.192758 604.61,626.24 C607.9,627.83 611.19,629.42 614.61,630.7 C616.82,631.59 620.56,631.94 623.31,633.2 Z" id="Path" fill="#000000" fill-rule="nonzero" opacity="0.1"></path>
                <path d="M629.77,526.41 C629.080866,528.071505 628.244185,529.667893 627.27,531.18 C617.975469,546.787457 610.805508,563.56557 605.95,581.07 C604.57,580.76 603.79,582.64 603.8,584.07 C603.81,585.5 603.8,587.3 602.48,587.82 C602.09,587.97 601.65,587.97 601.27,588.14 C600.43,588.52 600.19,589.59 600.07,590.51 L598.89,599.17 C598.48,602.17 598.12,605.42 599.59,608.07 C600.604134,609.645069 601.919284,611.004399 603.46,612.07 L622.98,627.47 C623.78,628.1 624.77,628.77 625.73,628.42 C627.92,627.62 625.98,623.7 627.73,622.11 C628.89,621.02 630.73,621.84 632.34,621.71 C634.44,621.55 636.03,619.62 636.56,617.59 C636.932035,615.522725 636.969176,613.40907 636.67,611.33 C636.53804,610.381335 636.648119,609.414705 636.99,608.52 C637.586531,607.571988 638.407372,606.785492 639.38,606.23 C646.257164,601.207559 650.194588,593.100437 649.89,584.59 C649.731178,583.314077 649.778447,582.020922 650.03,580.76 C650.436683,579.605607 651.050004,578.534837 651.84,577.6 C658.93,568.01 664.84,557.6 670.71,547.21 C674.09,541.21 677.53,535.12 678.71,528.36 C678.917421,527.850082 678.872817,527.272286 678.589592,526.800245 C678.306367,526.328203 677.817537,526.016943 677.27,525.96 C674.341683,525.045827 671.35486,524.330861 668.33,523.82 C659.14,521.96 650.27,519.09 641.33,516.33 C632.39,513.57 632.46,519.19 629.77,526.41 Z" id="Path" fill="#454B69" fill-rule="nonzero"></path>
                <polygon id="Path" fill="#565661" fill-rule="nonzero" points="587.5 701.72 601.58 703.42 666.39 556.31 683.87 555.03 714.58 563.99 720.54 739.14 734.61 739.14 729.07 557.59 762.76 558.45 822.88 708.11 835.67 708.11 772.44 533.2 770.01 526.46 675.77 523.23 652.28 536.4 651.98 537.16"></polygon>
                <path d="M651.98,537.16 C672.23,543.26 693.25,549.92 693.25,549.92 C693.25,549.92 712.42,556.61 720.54,549.92 C721.56392,549.121196 722.70816,548.490007 723.93,548.05 C722.87632,548.802652 721.738677,549.430202 720.54,549.92 L772.44,533.19 L770.04,526.46 L675.8,523.23 L652.31,536.4 L651.98,537.16 Z" id="Path" fill="#000000" fill-rule="nonzero" opacity="0.1"></path>
                <path d="M747.83,508.13 L709.46,499.6 C709.46,499.6 617.78,516.66 610.96,523.48 C610.96,523.48 684.3,538.4 692.4,543.48 C700.5,548.56 748.69,554.18 747.83,508.13 Z" id="Path" fill="#FFFFFF" fill-rule="nonzero"></path>
                <path d="M605.45,645.21 C603.14,649.61 597.45,650.85 592.45,650.92 C585.508055,651.005923 578.612823,649.774147 572.13,647.29 C568.43,645.87 564.88,644.04 561.06,643 C555.37,641.44 549.06,641.57 544.06,638.44 C541.408274,636.67212 539.217426,634.296131 537.67,631.51 C537.38,631.02 537.1,630.51 536.84,629.99 C534.45,625.34 533.34,619.93 534.67,614.91 C536,609.89 540.83,604.36 546.43,604.44 C553.08,604.54 561.01,607.69 567.43,609.32 C575.43,611.32 583.43,613.63 590.5,617.86 C596.42,621.42 601.65,626.53 604.44,632.77 C604.976321,633.973686 605.417667,635.217479 605.76,636.49 C606.63,639.37 606.83,642.58 605.45,645.21 Z" id="Path" fill="#A26565" fill-rule="nonzero"></path>
                <path d="M605.45,645.21 C603.14,649.61 597.45,650.85 592.45,650.92 C585.508055,651.005923 578.612823,649.774147 572.13,647.29 C568.43,645.87 564.88,644.04 561.06,643 C555.37,641.44 549.06,641.57 544.06,638.44 C541.408274,636.67212 539.217426,634.296131 537.67,631.51 C537.38,631.02 537.1,630.51 536.84,629.99 C537.84,630.07 538.76,630.17 539.26,630.22 C545.4,630.81 551.26,633.05 557.12,634.74 C565.255338,637.089904 573.655467,638.400324 582.12,638.64 C588.12,638.81 594.38,638.37 599.62,635.44 C601.184723,634.45289 602.807682,633.561264 604.48,632.77 C605.016321,633.973686 605.457667,635.217479 605.8,636.49 C606.63,639.37 606.83,642.58 605.45,645.21 Z" id="Path" fill="#000000" fill-rule="nonzero" opacity="0.1"></path>
                <path d="M648.42,455.07 C635.42,452.94 622.18,452.42 609,451.9 L592.88,451.26 C591.733478,451.127122 590.571786,451.267622 589.49,451.67 C588.557748,452.269249 587.671913,452.937803 586.84,453.67 C585.22,454.77 583.15,454.89 581.2,455 C567.367045,455.762091 553.609465,457.546966 540.04,460.34 C533.04,461.77 525.77,463.64 520.51,468.47 C514.95,473.58 512.51,481.37 512.32,488.91 C512.13,496.45 514.11,503.86 516.2,511.1 C518.860624,519.815449 520.330607,528.850628 520.57,537.96 C520.476053,540.487036 520.572995,543.017558 520.86,545.53 C521.325436,547.928527 522.03237,550.273805 522.97,552.53 L530.33,572.18 C530.98,573.9 531.62,575.61 532.33,577.29 C533.04,578.97 533.72,580.29 534.33,581.87 C535.23,584.03 535.94,586.27 536.65,588.5 L541.55,603.89 L542.19,605.89 C543.96,611.43 545.77,617.07 549.11,621.83 C552.45,626.59 557.62,630.43 563.43,630.72 C565.304613,630.649763 567.181802,630.699865 569.05,630.87 C570.64241,631.258739 572.188075,631.818665 573.66,632.54 C578.022746,634.352397 582.705918,635.267265 587.43,635.23 C591.78,635.23 596.61,634.02 598.97,630.36 C600.27,628.36 600.61,625.9 600.97,623.54 C601.6,618.8 602.21,613.85 600.6,609.35 C599.6,606.66 597.92,604.35 596.76,601.7 C595.14,598.09 594.61,594.1 593.56,590.29 C591.287634,582.089437 586.664138,574.73356 580.26,569.13 C577.985585,560.124836 576.3152,550.977811 575.26,541.75 C575.113421,539.706687 574.706806,537.690417 574.05,535.75 C572.88,532.75 570.51,530.32 569.52,527.26 C568.59,524.42 568.87,521.14 567.18,518.69 C581.25,522.56 595.18,521.69 609.79,521.46 C614.468502,521.474882 619.143647,521.207731 623.79,520.66 C625.956068,520.262833 628.148897,520.028842 630.35,519.96 C634.87,519.96 639.11,521.96 643.26,523.72 C654.99,528.72 667.35,532.65 680.09,533.19 C693.24,533.74 706.24,530.65 719.09,527.59 C724.74,526.24 730.61,524.78 735.09,521.07 C739.57,517.36 742.09,510.67 739.33,505.58 C737.23,501.75 732.88,499.87 728.82,498.27 C717.58,493.83 706.28,489.5 695.45,484.13 C678.91,476.07 666.54,458.07 648.42,455.07 Z" id="Path" fill="#454B69" fill-rule="nonzero"></path>
                <path d="M625.24,409.83 C623.67,413.23 621.03,416.01 619.08,419.21 C615.817932,424.477507 614.741498,430.810527 616.08,436.86 C617.504904,442.920622 621.660465,447.977479 627.33,450.55 C629.827231,451.544833 632.453753,452.177892 635.13,452.43 C638.65,452.86 642.4,452.95 645.51,451.25 C647.837569,449.853178 649.747391,447.857017 651.04,445.47 C653.73,440.97 655.26,435.9 656.66,430.85 C659.25,421.53 661.46,411.97 661.14,402.3 C661.03,398.97 660.37,395.22 657.61,393.3 C656.185377,392.477267 654.605288,391.959651 652.97,391.78 L639.78,389.42 C637.23,388.96 632.78,387.09 630.57,388.93 C628.36,390.77 628.19,396.21 627.81,398.76 C627.21,402.53 626.84,406.36 625.24,409.83 Z" id="Path" fill="#A1616A" fill-rule="nonzero"></path>
                <path d="M785.57,371.15 L782.12,400.07 C781.405744,405.228115 780.995037,410.423727 780.89,415.63 C780.89,418.53 780.98,421.75 779.06,423.92 C778.120853,424.907426 776.932273,425.622648 775.62,425.99 C771.43,427.29 766.86,426.13 762.86,424.34 C760.52,423.34 758.13,421.89 757.07,419.56 C756.454093,417.944698 756.198137,416.214439 756.32,414.49 C756.32,397.24 757.95,379.25 766.96,364.55 C767.728621,363.107572 768.812065,361.856656 770.13,360.89 C772.63,359.29 775.9,359.74 778.73,360.61 C780.47,361.14 785.17,361.73 786.28,363.28 C787.39,364.83 785.81,369.16 785.57,371.15 Z" id="Path" fill="#A1616A" fill-rule="nonzero"></path>
                <circle id="Oval" fill="#A1616A" fill-rule="nonzero" cx="694.04" cy="230.57" r="36"></circle>
                <path d="M684.41,284.22 C684.280147,287.020822 683.51775,289.75588 682.18,292.22 C700.56,289.42 718.893333,286.3 737.18,282.86 C731.112738,279.741193 726.525635,274.348831 724.42,267.86 C723.425594,264.380493 722.88116,260.787903 722.8,257.17 C722.509825,251.432637 722.620092,245.682022 723.13,239.96 C716.73,240.63 710.67,243.03 704.57,245.09 C698.436895,247.162698 692.198124,248.908486 685.88,250.32 C682.83,251 679.76,251.58 676.68,252.12 C673.08,252.76 671.35,252.75 673.85,255.91 C680.56,264.35 685.35,272.93 684.41,284.22 Z" id="Path" fill="#A1616A" fill-rule="nonzero"></path>
                <path d="M695.47,279.41 C690.72,280.12 685.74,280.92 681.95,283.86 C680.50743,285.099013 679.135287,286.417739 677.84,287.81 C670.31,295.12 659.68,298.06 650.54,303.22 C649.049314,303.956857 647.728042,304.995486 646.66,306.27 C645.66,307.66 645.15,309.43 644.1,310.81 C642.88,312.41 640.95,313.41 640,315.18 C639.05,316.95 639.26,318.83 639.16,320.71 C638.93,324.84 637.37,328.76 636.16,332.71 C630.61,351.62 633.65,372.71 625.25,390.57 C626.030521,392.649031 627.627522,394.318296 629.67,395.19 C631.783708,395.951473 633.990084,396.425709 636.23,396.6 L654.84,398.91 C657.5,399.24 660.32,399.55 662.75,398.44 C660.527122,404.568061 658.955137,410.912984 658.06,417.37 C657.607633,421.31701 656.906234,425.231481 655.96,429.09 C653.4,437.89 646.96,445.22 639.33,450.23 C638.36898,450.733398 637.558224,451.482054 636.98,452.4 C635.98,454.4 637.46,456.64 638.51,458.6 C641.56,464.28 641.14,471.1 641.1,477.54 C641.06,483.98 641.71,491.05 646.21,495.67 C648.87,498.4 652.51,499.88 656.05,501.29 L685.16,512.92 C689.963972,514.965555 694.918693,516.637188 699.98,517.92 C707.65,519.67 715.62,519.6 723.49,519.26 C728.69,519.04 733.883333,518.706667 739.07,518.26 C741.133262,518.253104 743.160606,517.719592 744.96,516.71 C746.508928,515.487659 747.700555,513.87119 748.41,512.03 C752.46,503.22 753.82,492.94 760.1,485.56 C764.41,480.49 771.1,476.44 771.59,469.81 C771.82,466.51 770.35,463.3 770.33,459.99 C770.33,455.92 772.46,452.05 772.33,447.99 C772.06,441.38 765.83,436.34 764.84,429.8 C762.32,413.22 770.74,396.66 775.91,380.71 C776.84,377.86 778.04,374.71 780.78,373.49 C783.52,372.27 787.38,372.91 788.36,370.21 C790.83,363.43 791.42,355.48 791.1,348.27 C790.92,344.1 789.44,340.02 789.61,335.84 C789.73,332.9 790.67,330.04 790.92,327.11 C791.3,322.68 790.13,318.28 788.92,314 C788.570361,312.471967 788.046954,310.98898 787.36,309.58 C786.621223,308.301922 785.749738,307.105306 784.76,306.01 L779.89,300.22 C777.61,297.51 775.2,294.7 771.89,293.33 C770.82,290.68 767.4,288.85 764.95,287.39 C762.480476,285.988608 759.929242,284.736367 757.31,283.64 L729.77,271.48 C728.740556,270.961681 727.637753,270.604197 726.5,270.42 C724.823667,270.363759 723.15795,270.706499 721.64,271.42 C713.24,274.75 704.47,278.07 695.47,279.41 Z" id="Path" fill="#1D3A8F" fill-rule="nonzero"></path>
                <path d="M666.3,236.83 C665.24,233.1 662.53,229.88 662.12,226.02 C661.75,222.59 663.26,219.27 664.12,215.93 C664.98,212.59 664.95,208.51 662.3,206.29 C661.86,205.91 661.3,205.57 661.14,205.01 C660.82,204.01 661.83,203.1 662.14,202.09 C662.71,200.09 660.24,197.88 661.14,195.96 C661.65,194.91 662.93,194.54 664.05,194.21 C668.33,192.94 672.67,190.12 673.6,185.75 C676.95,187.15 680.52,184.52 683.09,181.97 C685.66,179.42 688.82,176.51 692.36,177.28 L691.57,178.89 C697.028446,176.908321 702.998455,176.841322 708.5,178.7 L706.82,178.7 C711.645654,178.781729 716.32592,180.36512 720.21,183.23 C719.78,183.23 719.74,183.87 719.91,184.23 C721.31,187.5 724.91,189.23 728.38,190.04 C730.47,190.54 732.74,190.9 734.27,192.4 C735.8,193.9 735.83,197.03 733.81,197.75 C737.929354,199.3538 741.830104,201.470486 745.42,204.05 C746.42,204.78 747.55,205.77 747.42,207.05 C747.276935,207.69265 747.06921,208.319174 746.8,208.92 C746.600353,209.987388 746.672572,211.087857 747.01,212.12 L748.12,216.7 C749.34,221.79 750.3,227.92 746.59,231.61 C749.441489,236.93816 748.462049,243.50569 744.18,247.77 C744.775151,249.577136 744.56899,251.552531 743.613527,253.197838 C742.658064,254.843145 741.044536,256.001254 739.18,256.38 C740.41,258.3 739.28,261.04 737.34,262.24 C735.4,263.44 732.96,263.45 730.7,263.24 C728.44,263.03 726.15,262.52 723.89,262.86 C720.6,263.37 717.38,265.61 714.21,264.61 C713.028407,264.104766 711.893961,263.495713 710.82,262.79 C708.6,261.6 706.02,261.33 703.56,260.79 C699.366243,259.888755 695.384296,258.19142 691.83,255.79 C689.473958,254.373758 687.596504,252.283827 686.44,249.79 C684.24,244.23 687.94,236.94 684.05,232.41 C681.77,229.77 677.25,229.73 674.7,231.99 C673.43,233.12 673.26,235.5 671.94,236.35 C670.098652,236.815881 668.193594,236.978013 666.3,236.83 L666.3,236.83 Z" id="Path" fill="#464353" fill-rule="nonzero"></path>
                <path d="M617.38,523.57 C615.958488,522.445121 614.732058,521.093683 613.75,519.57 C612.764633,518.038678 612.373388,516.199828 612.65,514.4 C611.859301,519.016769 613.302278,523.735194 616.54,527.12 C619.05,529.69 623.76,532.21 627.43,531.33 C626.91,528.39 619.71,525.55 617.38,523.57 Z" id="Path" fill="#000000" fill-rule="nonzero" opacity="0.1"></path>
                <path d="M815.2,362.72 C815.2,362.72 793.88,350.36 765.74,365.72 C737.6,381.08 732.91,471.47 732.91,471.47 C732.91,471.47 744.42,563.56 700.04,543.07 C700.04,543.07 619.04,517.92 610.93,523.46 C610.93,523.46 603.25,523.46 618.6,526.87 C633.95,530.28 693.25,549.07 693.25,549.07 C693.25,549.07 712.42,555.77 720.54,549.07 C728.66,542.37 751.67,549.93 754.66,503.87 C756.638737,474.844488 760.197343,445.948333 765.32,417.31 L773.23,393.86 L815.2,362.72 Z" id="Path" fill="#565661" fill-rule="nonzero"></path>
                <path d="M817.76,505.14 C817.76,505.14 808.38,411.76 823.76,378.07 C837.14,348.71 785.4,362.44 771.9,366.44 C769.810734,367.064639 767.988475,368.366253 766.72,370.14 C758.72,381.39 730.02,426.48 738.48,486.81 C738.48,486.81 741.89,540.54 720.57,549.06 L786.26,527.9 C791.59,526.18 797,524.75 802.46,523.51 C809.42,521.93 820.76,517.44 817.76,505.14 Z" id="Path" fill="#FFFFFF" fill-rule="nonzero"></path>
                <ellipse id="Oval" fill="#1D3A8F" fill-rule="nonzero" opacity="0.1" cx="989.97" cy="671.07" rx="97.44" ry="15.65"></ellipse>
                <rect id="Rectangle" fill="#535461" fill-rule="nonzero" x="986.83" y="371.26" width="6.27" height="141.17"></rect>
                <path d="M1032.51,512 L1032.12,518.36 L1031.56,527.36 L1031.33,531.1 L1030.78,540.1 L1030.54,543.84 L1029.98,552.84 L1023.66,654.91 C1023.05962,664.00126 1015.51106,671.068737 1006.4,671.07 L973.53,671.07 C964.401028,671.06606 956.849994,663.961781 956.29,654.85 L949.95,552.77 L949.4,543.77 L949.17,540.03 L948.6,531.03 L948.37,527.29 L947.82,518.29 L947.42,511.93 C947.280138,509.466372 948.157949,507.053376 949.848089,505.255475 C951.53823,503.457574 953.892437,502.432484 956.36,502.42 L1023.58,502.42 C1026.05875,502.434124 1028.42192,503.469954 1030.1121,505.283153 C1031.80227,507.096352 1032.66978,509.52637 1032.51,512 Z" id="Path" fill="#565661" fill-rule="nonzero"></path>
                <polygon id="Path" fill="#9D9CB5" fill-rule="nonzero" points="1032.12 518.36 1031.56 527.33 948.38 527.33 947.82 518.36"></polygon>
                <polygon id="Path" fill="#9D9CB5" fill-rule="nonzero" points="1031.33 531.08 1030.78 540.06 949.17 540.06 948.61 531.08"></polygon>
                <polygon id="Path" fill="#9D9CB5" fill-rule="nonzero" points="1030.54 543.8 1029.98 552.77 949.96 552.77 949.4 543.8"></polygon>
                <path d="M938.24,424.17 C974.76,450.59 989.97,491.91 989.97,491.91 C989.97,491.91 945.97,490.4 909.44,463.98 C872.91,437.56 857.72,396.25 857.72,396.25 C857.72,396.25 901.73,397.76 938.24,424.17 Z" id="Path" fill="#1D3A8F" fill-rule="nonzero"></path>
                <path d="M857.72,396.25 C857.72,396.25 903.39,421.6 918.05,442.59 C932.71,463.58 989.97,491.91 989.97,491.91" id="Path" stroke="#535461" stroke-width="2"></path>
                <path d="M961.81,370.95 C981.69,385.32 989.97,407.82 989.97,407.82 C989.97,407.82 965.97,406.99 946.14,392.62 C926.31,378.25 918.04,355.75 918.04,355.75 C918.04,355.75 941.94,356.57 961.81,370.95 Z" id="Path" fill="#1D3A8F" fill-rule="nonzero"></path>
                <path d="M918.04,355.75 C918.04,355.75 942.9,369.55 950.87,380.97 C958.84,392.39 990.02,407.82 990.02,407.82" id="Path" stroke="#535461" stroke-width="2"></path>
                <path d="M1018.85,406.67 C996.02,431.76 991.19,464.55 991.19,464.55 C991.19,464.55 1023.38,456.65 1046.19,431.55 C1069,406.45 1073.85,373.67 1073.85,373.67 C1073.85,373.67 1041.68,381.58 1018.85,406.67 Z" id="Path" fill="#1D3A8F" fill-rule="nonzero"></path>
                <path d="M1073.87,373.68 C1073.87,373.68 1044.13,399.4 1036.57,417.12 C1029.01,434.84 991.19,464.55 991.19,464.55" id="Path" stroke="#535461" stroke-width="2"></path>
                <path d="M556.98,346.27 L556.98,348.55 L489.37,348.55 L489.37,346.7 C491.223691,346.004723 492.978555,345.070141 494.59,343.92 C500.415131,339.749104 503.870575,333.024393 503.87,325.86 C503.871134,324.014893 503.639301,322.177026 503.18,320.39 C501.523925,313.876067 497.009634,308.461123 490.9,305.66 L556.52,305.66 C550.410366,308.461123 545.896075,313.876067 544.24,320.39 C543.784071,322.177457 543.555598,324.015317 543.56,325.86 C543.555457,333.022981 547.00736,339.748048 552.83,343.92 C554.127654,344.845823 555.518548,345.633438 556.98,346.27 L556.98,346.27 Z" id="Path" fill="#DFE6F5" fill-rule="nonzero"></path>
                <path d="M556.52,305.66 C550.410366,308.461123 545.896075,313.876067 544.24,320.39 L503.18,320.39 C501.523925,313.876067 497.009634,308.461123 490.9,305.66 L556.52,305.66 Z" id="Path" fill="#000000" fill-rule="nonzero" opacity="0.1"></path>
                <path d="M411.96,294.01 L411.96,306.85 C411.96,313.93 417.14,319.68 423.54,319.68 L622.45,319.68 C628.85,319.68 634.04,313.93 634.04,306.85 L634.04,294.01 L411.96,294.01 Z" id="Path" fill="#DFE6F5" fill-rule="nonzero"></path>
                <path d="M556.98,346.27 L556.98,348.55 L489.37,348.55 L489.37,346.7 C491.223691,346.004723 492.978555,345.070141 494.59,343.92 L552.83,343.92 C554.127654,344.845823 555.518548,345.633438 556.98,346.27 Z" id="Path" fill="#000000" fill-rule="nonzero" opacity="0.1"></path>
                <rect id="Rectangle" fill="#DFE6F5" fill-rule="nonzero" x="467.03" y="344.63" width="112.29" height="6.77" rx="3.385"></rect>
                <path d="M634.04,153.38 C634.040001,150.30706 632.818596,147.360125 630.644762,145.188166 C628.470927,143.016207 625.522939,141.797346 622.45,141.8 L423.54,141.8 C420.467979,141.797344 417.521018,143.016523 415.34877,145.18877 C413.176523,147.361018 411.957344,150.307979 411.96,153.38 L411.959996,296.51 L634.04,296.51 L634.04,153.38 Z" id="Path" fill="#474157" fill-rule="nonzero"></path>
                <path d="M627.98,158.55 L627.98,281.55 C627.982655,283.063466 627.383294,284.515854 626.314048,285.586975 C625.244803,286.658096 623.793468,287.260002 622.28,287.26 L423.72,287.26 C422.206532,287.260002 420.755197,286.658096 419.685952,285.586975 C418.616706,284.515854 418.017345,283.063466 418.02,281.55 L418.02,158.55 C418.01507,157.549279 418.27744,156.565391 418.78,155.7 C419.79886,153.935282 421.68228,152.848694 423.72,152.85 L622.28,152.85 C625.428023,152.85 627.98,155.401977 627.98,158.55 L627.98,158.55 Z" id="Path" fill="#4C4C78" fill-rule="nonzero"></path>
                <circle id="Oval" fill="#FFFFFF" fill-rule="nonzero" cx="523" cy="147.32" r="2.67"></circle>
                <circle id="Oval" fill="#FFFFFF" fill-rule="nonzero" cx="523" cy="307.38" r="6.59"></circle>
                <path d="M627.98,158.55 L418.04,158.55 C418.04,155.401977 420.591977,152.85 423.74,152.85 L622.28,152.85 C625.428023,152.85 627.98,155.401977 627.98,158.55 L627.98,158.55 Z" id="Path" fill="#C8CAD7" fill-rule="nonzero"></path>
                <circle id="Oval" fill="#EDEDF4" fill-rule="nonzero" cx="423.72" cy="155.7" r="1.43"></circle>
                <circle id="Oval" fill="#EDEDF4" fill-rule="nonzero" cx="428" cy="155.7" r="1.43"></circle>
                <circle id="Oval" fill="#EDEDF4" fill-rule="nonzero" cx="432.28" cy="155.7" r="1.43"></circle>
            </g>
        </g>
    </g>
</svg>