<?xml version="1.0" encoding="UTF-8"?>
<svg width="1111px" height="858px" viewBox="0 0 1111 858" version="1.1" xmlns="http://www.w3.org/2000/svg" xmlns:xlink="http://www.w3.org/1999/xlink">
    <!-- Generator: Sketch 53.2 (72643) - https://sketchapp.com -->
    <title>undraw_prototyping_process_rswj</title>
    <desc>Created with Sketch.</desc>
    <defs>
        <linearGradient x1="50.004199%" y1="100.008187%" x2="50.004199%" y2="0.00765306884%" id="linearGradient-1">
            <stop stop-color="#808080" stop-opacity="0.25" offset="0%"></stop>
            <stop stop-color="#808080" stop-opacity="0.12" offset="54%"></stop>
            <stop stop-color="#808080" stop-opacity="0.1" offset="100%"></stop>
        </linearGradient>
    </defs>
    <g id="Page-1" stroke="none" stroke-width="1" fill="none" fill-rule="evenodd">
        <g id="IllustrationUndraw" transform="translate(-1.000000, -4501.000000)">
            <g id="undraw_prototyping_process_rswj" transform="translate(0.000000, 4500.000000)">
                <ellipse id="Oval" fill="#254095" fill-rule="nonzero" opacity="0.1" cx="347.73" cy="822.68" rx="237.5" ry="36"></ellipse>
                <path d="M343.89,38.84 C381.56,5.64 440.7,-1.16 494.54,1.52 C663.62,9.84 816.23,90.51 948.28,181.78 C996.08,214.83 1043.14,250.43 1074.16,295.94 C1137.32,388.56 1118.58,516.88 1030.76,593.18 C1000.88,619.18 964.66,639.05 927.48,656.69 C861.36,688.06 790.02,713.24 714.98,720.41 C661.47,725.52 607.3,721.36 554.1,714.23 C405.46,694.31 259.56,650.23 137.28,574.86 C83.65,541.84 33.1,500.7 10.99,447.21 C-11.12,393.72 2.99,325.94 57.8,294.29 C80.45,281.19 107.53,275.29 134.04,269.72 C173.04,261.55 212.72,253.49 247.94,236.88 C284.31,219.71 327.38,186.52 320.18,148.54 C312.45,107.77 306.23,71.98 343.89,38.84 Z" id="Path" fill="#254095" fill-rule="nonzero" opacity="0.1"></path>
                <path d="M921.83,89.46 C928.59,134.02 909.78,173.83 909.78,173.83 C909.78,173.83 880.01,141.4 873.23,96.84 C869.44,71.84 873.69,48.36 878.15,32.54 C879.299403,28.3424789 882.815489,25.2172715 887.118861,24.5681957 C891.422233,23.91912 895.703676,25.8682296 898.04,29.54 C907.01,43.3 918.04,64.47 921.83,89.46 Z" id="Path" fill="#254095" fill-rule="nonzero"></path>
                <path d="M1047.53,160.48 C1054.22773,160.448766 1060.90085,161.292571 1067.38,162.99 C1078.29,165.79 1078.46,181.24 1067.61,184.28 C1061.16891,186.114823 1054.51631,187.103132 1047.82,187.22 C1023.29,187.49 1003.26,174.33 1003.26,174.33 C1003.26,174.33 1023,160.75 1047.53,160.48 Z" id="Path" fill="#254095" fill-rule="nonzero"></path>
                <path d="M978.55,92.74 C955.72,117.83 950.89,150.62 950.89,150.62 C950.89,150.62 983.07,142.72 1005.89,117.62 C1016.47,105.99 1023.19,92.71 1027.35,81.81 C1028.96228,77.5874637 1027.8275,72.808444 1024.48906,69.7614592 C1021.15063,66.7144745 1016.28811,66.0197631 1012.23,68.01 C1001.71,73.18 989.13,81.11 978.55,92.74 Z" id="Path" fill="#254095" fill-rule="nonzero"></path>
                <rect id="Rectangle" fill="#464353" fill-rule="nonzero" x="512.46" y="88.01" width="514" height="618.97" rx="19.8"></rect>
                <rect id="Rectangle" fill="#254095" fill-rule="nonzero" opacity="0.1" x="556.8" y="150.45" width="425.32" height="494.09"></rect>
                <circle id="Oval" fill="#FFFFFF" fill-rule="nonzero" cx="769.46" cy="677.12" r="18.1"></circle>
                <path d="M769.46,132.76 C764.737965,132.76 760.91,128.932035 760.91,124.21 C760.91,119.487965 764.737965,115.66 769.46,115.66 C774.182035,115.66 778.01,119.487965 778.01,124.21 C777.999004,128.927472 774.177472,132.749004 769.46,132.76 Z" id="Path" fill="#FFFFFF" fill-rule="nonzero"></path>
                <path d="M769.46,116.16 C773.905892,116.16 777.51,119.764108 777.51,124.21 C777.51,128.655892 773.905892,132.26 769.46,132.26 C765.014108,132.26 761.41,128.655892 761.41,124.21 C761.41551,119.766392 765.016392,116.16551 769.46,116.16 L769.46,116.16 Z M769.46,115.16 C765.795135,115.139752 762.479862,117.331829 761.063326,120.711929 C759.64679,124.092029 760.408679,127.992768 762.992982,130.591427 C765.577284,133.190087 769.473742,133.973575 772.861637,132.575787 C776.249533,131.177999 778.459944,127.874921 778.46,124.21 C778.473309,121.8144 777.530976,119.512349 775.841704,117.813692 C774.152432,116.115035 771.855637,115.159963 769.46,115.16 L769.46,115.16 Z" id="Shape" fill="#FFFFFF" fill-rule="nonzero"></path>
                <rect id="Rectangle" stroke="#FFFFFF" fill="#FFFFFF" fill-rule="nonzero" x="576.56" y="303.51" width="88.21" height="119.92" rx="4.3"></rect>
                <rect id="Rectangle" fill="#254095" fill-rule="nonzero" opacity="0.5" x="584.83" y="333.73" width="71.67" height="38.05" rx="7.14"></rect>
                <rect id="Rectangle" fill="#254095" fill-rule="nonzero" x="599.79" y="387.3" width="41.75" height="5.91" rx="1.69"></rect>
                <rect id="Rectangle" stroke="#FFFFFF" fill="#FFFFFF" fill-rule="nonzero" x="725.69" y="303.51" width="88.21" height="119.92" rx="4.3"></rect>
                <rect id="Rectangle" fill="#254095" fill-rule="nonzero" opacity="0.5" x="748.89" y="322.24" width="42.27" height="22.44" rx="1.46"></rect>
                <rect id="Rectangle" fill="#254095" fill-rule="nonzero" x="742.71" y="365.71" width="53.96" height="5.91" rx="1.69"></rect>
                <rect id="Rectangle" fill="#254095" fill-rule="nonzero" x="742.71" y="376.73" width="53.96" height="5.91" rx="1.69"></rect>
                <rect id="Rectangle" stroke="#FFFFFF" fill="#FFFFFF" fill-rule="nonzero" x="874.15" y="218.32" width="88.21" height="119.92" rx="4.3"></rect>
                <rect id="Rectangle" fill="#254095" fill-rule="nonzero" opacity="0.5" x="889.54" y="236.93" width="57.43" height="26.8" rx="1.46"></rect>
                <rect id="Rectangle" fill="#254095" fill-rule="nonzero" opacity="0.5" x="889.54" y="275.88" width="57.43" height="26.8" rx="1.46"></rect>
                <rect id="Rectangle" fill="#254095" fill-rule="nonzero" x="884.95" y="324.28" width="18.84" height="8.27" rx="3.83"></rect>
                <rect id="Rectangle" fill="#254095" fill-rule="nonzero" x="908.84" y="324.28" width="18.84" height="8.27" rx="3.83"></rect>
                <rect id="Rectangle" fill="#254095" fill-rule="nonzero" x="932.73" y="324.28" width="18.84" height="8.27" rx="3.83"></rect>
                <rect id="Rectangle" stroke="#FFFFFF" fill="#FFFFFF" fill-rule="nonzero" x="873.94" y="388.7" width="88.21" height="119.92" rx="4.3"></rect>
                <rect id="Rectangle" fill="#254095" fill-rule="nonzero" opacity="0.5" x="880.75" y="402.72" width="26.36" height="26.8" rx="1.46"></rect>
                <rect id="Rectangle" fill="#254095" fill-rule="nonzero" x="891.07" y="445.84" width="53.96" height="5.91" rx="1.69"></rect>
                <rect id="Rectangle" fill="#254095" fill-rule="nonzero" x="891.07" y="457.79" width="53.96" height="5.91" rx="1.69"></rect>
                <rect id="Rectangle" fill="#254095" fill-rule="nonzero" x="891.07" y="469.74" width="53.96" height="5.91" rx="1.69"></rect>
                <path d="M715.52,360.61 L714.17,361.26 L703.23,366.52 L702.23,366.99 C702.095272,367.052811 701.94061,367.057306 701.802461,367.002425 C701.664313,366.947544 701.554897,366.838142 701.5,366.7 C701.488618,366.633819 701.488618,366.566181 701.5,366.5 L701.5,363.39 C701.5,363.097289 701.262711,362.86 700.97,362.86 L674.38,362.86 C674.085628,362.86005 673.845451,362.624321 673.84,362.33 L673.84,357.94 C673.845451,357.645679 674.085628,357.40995 674.38,357.41 L701,357.41 C701.294321,357.404549 701.53005,357.164372 701.53,356.87 L701.53,353.69 C701.519682,353.623733 701.519682,353.556267 701.53,353.49 C701.586854,353.353646 701.69709,353.246539 701.835024,353.193633 C701.972957,353.140727 702.126544,353.146642 702.26,353.21 L703.26,353.68 L714.17,358.99 L715.52,359.65 C715.706278,359.73721 715.825278,359.924319 715.825278,360.13 C715.825278,360.335681 715.706278,360.52279 715.52,360.61 Z" id="Path" stroke="#FFFFFF" fill="#FFFFFF" fill-rule="nonzero"></path>
                <path d="M863.55,333.64 L862.67,334.85 L855.51,344.61 L854.88,345.48 C854.789335,345.596575 854.655599,345.671791 854.508891,345.688719 C854.362183,345.705647 854.214831,345.662864 854.1,345.57 C854.049209,345.525684 854.008322,345.471167 853.98,345.41 L852.52,342.67 C852.378661,342.408831 852.055523,342.30702 851.79,342.44 L828.29,354.95 C828.165474,355.01695 828.019361,355.031371 827.884149,354.990056 C827.748938,354.948742 827.635839,354.855117 827.57,354.73 L825.51,350.84 C825.44305,350.715474 825.428629,350.569361 825.469944,350.434149 C825.511258,350.298938 825.604883,350.185839 825.73,350.12 L849.23,337.63 C849.355117,337.564161 849.448742,337.451062 849.490056,337.315851 C849.531371,337.180639 849.51695,337.034526 849.45,336.91 L847.96,334.1 C847.922014,334.043817 847.90117,333.977809 847.9,333.91 C847.879907,333.762153 847.924291,333.612797 848.021865,333.499917 C848.119439,333.387038 848.260801,333.32151 848.41,333.32 L849.48,333.32 L861.6,332.88 L863.1,332.83 C863.292479,332.83 863.469827,332.934353 863.563303,333.102609 C863.656779,333.270866 863.651687,333.476575 863.55,333.64 Z" id="Path" stroke="#FFFFFF" fill="#FFFFFF" fill-rule="nonzero"></path>
                <path d="M863.47,384.9 L861.98,384.9 L849.87,384.9 L848.8,384.9 C848.652222,384.900422 848.510979,384.839126 848.41035,384.730902 C848.309722,384.622679 848.258846,384.477357 848.27,384.33 C848.272469,384.263757 848.289542,384.198878 848.32,384.14 L849.66,381.33 C849.721624,381.202791 849.729881,381.056236 849.682935,380.92291 C849.635989,380.789584 849.537731,380.680535 849.41,380.62 L825.41,369.1 C825.142617,368.969791 825.030847,368.647895 825.16,368.38 L827.06,364.43 C827.118377,364.300316 827.227323,364.200201 827.361467,364.152967 C827.495612,364.105733 827.643249,364.115502 827.77,364.18 L851.77,375.71 C852.038199,375.833417 852.355997,375.72307 852.49,375.46 L853.87,372.59 C853.945252,372.422109 854.10362,372.306481 854.286454,372.285937 C854.469287,372.265394 854.649367,372.342995 854.76,372.49 L855.43,373.32 L862.96,382.84 L863.89,384.02 C864.030443,384.179318 864.062217,384.40709 863.970738,384.598761 C863.879258,384.790433 863.682193,384.908985 863.47,384.9 Z" id="Path" stroke="#FFFFFF" fill="#FFFFFF" fill-rule="nonzero"></path>
                <polygon id="Path" fill="#504F60" fill-rule="nonzero" points="425.19 607.65 425.11 610.58 420.01 790.65 411.43 790.65 415.64 610.58 415.72 607.2"></polygon>
                <polygon id="Path" fill="#000000" fill-rule="nonzero" opacity="0.1" points="425.19 607.65 425.11 610.58 420.01 790.65 411.43 790.65 415.64 610.58 415.72 607.2"></polygon>
                <polygon id="Path" fill="#504F60" fill-rule="nonzero" points="474.84 760.19 468.42 760.17 372.97 759.97 367.89 759.96 370.59 751.61 474.16 751.61"></polygon>
                <polygon id="Path" fill="#000000" fill-rule="nonzero" opacity="0.1" points="425.19 607.65 425.11 610.58 415.64 610.58 415.72 607.2"></polygon>
                <rect id="Rectangle" fill="#504F60" fill-rule="nonzero" x="412.9" y="603.25" width="15.91" height="5.98"></rect>
                <polygon id="Path" fill="#000000" fill-rule="nonzero" opacity="0.1" points="373.82 751.61 372.97 759.97 367.89 759.96 370.59 751.61"></polygon>
                <polygon id="Path" fill="#504F60" fill-rule="nonzero" points="387.52 603.14 387.25 605.73 366.08 814.56 356.38 814.11 378.69 605.73 378.94 603.36"></polygon>
                <polygon id="Path" fill="#000000" fill-rule="nonzero" opacity="0.1" points="474.84 760.19 468.42 760.17 467.55 751.61 474.16 751.61"></polygon>
                <polygon id="Path" fill="#504F60" fill-rule="nonzero" points="485 814.11 475.29 814.56 454.12 605.73 453.86 603.14 462.43 603.36 462.68 605.73"></polygon>
                <rect id="Rectangle" fill="#FFFFFF" fill-rule="nonzero" x="312.38" y="397.23" width="213.91" height="205.11"></rect>
                <rect id="Rectangle" fill="#FFFFFF" fill-rule="nonzero" x="265.46" y="397.23" width="308" height="205.11" rx="4.13"></rect>
                <path d="M423.5,328.64 L423.5,378.17 L415.16,378.17 L415.16,328.64 C415.16,326.336973 417.026973,324.47 419.33,324.47 C421.633027,324.47 423.5,326.336973 423.5,328.64 Z" id="Path" fill="#504F60" fill-rule="nonzero"></path>
                <rect id="Rectangle" fill="#000000" fill-rule="nonzero" opacity="0.1" x="415.16" y="373.66" width="8.35" height="4.51"></rect>
                <path d="M426.78,377.04 L426.78,393.4 L411.89,393.4 L411.89,377.04 C411.89,375.935431 412.785431,375.04 413.89,375.04 L424.72,375.04 C425.260751,375.02377 425.78501,375.227297 426.173162,375.604143 C426.561314,375.980989 426.780244,376.499006 426.78,377.04 L426.78,377.04 Z" id="Path" fill="#504F60" fill-rule="nonzero"></path>
                <circle id="Oval" fill="#000000" fill-rule="nonzero" opacity="0.1" cx="419.33" cy="385.39" r="3.16"></circle>
                <circle id="Oval" fill="#3F3D56" fill-rule="nonzero" cx="419.33" cy="384.71" r="3.16"></circle>
                <rect id="Rectangle" fill="#000000" fill-rule="nonzero" opacity="0.1" x="411.89" y="391.37" width="14.89" height="2.03"></rect>
                <rect id="Rectangle" fill="#000000" fill-rule="nonzero" opacity="0.1" x="405.79" y="394.08" width="27.08" height="4.51"></rect>
                <rect id="Rectangle" fill="#504F60" fill-rule="nonzero" x="405.79" y="392.72" width="27.08" height="4.51"></rect>
                <path d="M365.63,597 L477.21,597 C480.523708,597 483.21,599.686292 483.21,603 L483.21,603 L359.65,603 L359.65,603 C359.649982,599.694086 362.324105,597.01102 365.63,597 Z" id="Path" fill="#000000" fill-rule="nonzero" opacity="0.1"></path>
                <polygon id="Path" fill="#000000" fill-rule="nonzero" opacity="0.1" points="378.94 603.36 387.52 603.14 387.25 605.73 378.69 605.73"></polygon>
                <rect id="Rectangle" fill="#000000" fill-rule="nonzero" opacity="0.1" x="412.9" y="603.25" width="15.91" height="2.48"></rect>
                <polygon id="Path" fill="#000000" fill-rule="nonzero" opacity="0.1" points="462.68 605.73 454.12 605.73 453.86 603.14 462.43 603.36"></polygon>
                <path d="M365.63,598.4 L477.21,598.4 C480.523708,598.4 483.21,601.086292 483.21,604.4 L483.21,604.4 L359.65,604.4 L359.65,604.4 C359.65,601.086292 362.336292,598.4 365.65,598.4 L365.63,598.4 Z" id="Path" fill="#504F60" fill-rule="nonzero"></path>
                <path d="M518.82,421.32 C519.279166,421.24843 519.745432,421.39519 520.080825,421.716853 C520.416218,422.038517 520.582327,422.498245 520.53,422.96 C519.08,436.96 520.01,451.3 521.58,465.27 C522.31,471.66 523.3,478.42 526.13,483.16 C526.501666,483.751607 526.418943,484.520931 525.93,485.02 C525.139858,485.634822 524.147883,485.930987 523.15,485.85 L478.52,486.1 C478.061185,486.103603 477.626297,485.895619 477.3411,485.536193 C477.055903,485.176767 476.952207,484.705988 477.06,484.26 C480.65,468.96 479.88,452.26 478.44,436.39 C477.73,428.58 477.32,424.39 483.15,423.84 C489.15,423.3 495.15,423.05 501.15,422.55 C502.59,422.43 514.13,422.09 518.82,421.32 Z" id="Path" stroke="#33313F" stroke-width="3" fill="#FFFFFF" fill-rule="nonzero"></path>
                <path d="M484.67,513.01 C484.210834,512.93843 483.744568,513.08519 483.409175,513.406853 C483.073782,513.728517 482.907673,514.188245 482.96,514.65 C484.41,528.65 483.48,542.99 481.9,556.96 C481.18,563.35 480.19,570.11 477.36,574.86 C476.986084,575.447617 477.069139,576.215873 477.56,576.71 C478.350142,577.324822 479.342117,577.620987 480.34,577.54 L524.97,577.8 C525.428277,577.796596 525.860209,577.58525 526.144123,577.225497 C526.428036,576.865743 526.533204,576.396518 526.43,575.95 C522.84,560.65 523.61,543.95 525.05,528.08 C525.76,520.27 526.17,516.08 520.34,515.53 C514.51,514.98 508.34,514.74 502.34,514.24 C500.9,514.12 489.36,513.78 484.67,513.01 Z" id="Path" stroke="#33313F" stroke-width="3" fill="#FFFFFF" fill-rule="nonzero"></path>
                <path d="M497.78,538.77 C502.965905,538.528148 508.161547,538.59159 513.34,538.96 C514.032065,539.026646 514.582797,539.569033 514.66,540.26 L515.15,544.35 C515.200356,544.535635 515.155407,544.73416 515.03,544.88 C514.919968,544.958987 514.784659,544.994595 514.65,544.98 C512.47,545.04 510.29,544.79 508.12,544.98 C506.77,545.09 505.43,545.35 504.12,545.5 C501.9055,545.694984 499.680087,545.735082 497.46,545.62 C494.331969,545.673937 491.211759,545.290222 488.19,544.48 C488.19,544.48 488.37,541.09 488.37,540.77 C488.37,539.19 488.32,539.05 489.95,539.01 L497.78,538.77 Z" id="Path" stroke="#33313F" stroke-width="2" stroke-linecap="round"></path>
                <path d="M497.78,557.21 C502.966017,557.453526 508.161956,557.38674 513.34,557.01 C514.032065,556.943354 514.582797,556.400967 514.66,555.71 L515.15,551.63 C515.200312,551.441198 515.15554,551.239724 515.03,551.09 C514.919968,551.011013 514.784659,550.975405 514.65,550.99 C512.47,550.93 510.29,551.19 508.12,550.99 C506.77,550.89 505.43,550.63 504.12,550.48 C501.905768,550.280013 499.679999,550.239909 497.46,550.36 C494.331969,550.306063 491.211759,550.689778 488.19,551.5 C488.19,551.5 488.37,554.88 488.37,555.21 C488.37,556.79 488.32,556.92 489.95,556.97 L497.78,557.21 Z" id="Path" stroke="#33313F" stroke-width="2" stroke-linecap="round"></path>
                <path d="M497.78,564.43 C502.966017,564.186474 508.161956,564.25326 513.34,564.63 C514.032065,564.696646 514.582797,565.239033 514.66,565.93 L515.15,570.01 C515.200312,570.198802 515.15554,570.400276 515.03,570.55 C514.919968,570.628987 514.784659,570.664595 514.65,570.65 C512.47,570.71 510.29,570.45 508.12,570.65 C506.77,570.75 505.43,571.02 504.12,571.17 C501.905267,571.361651 499.679854,571.398407 497.46,571.28 C494.332431,571.337328 491.212212,570.956977 488.19,570.15 C488.19,570.15 488.37,566.76 488.37,566.43 C488.37,564.85 488.32,564.72 489.95,564.68 L497.78,564.43 Z" id="Path" stroke="#33313F" stroke-width="2" stroke-linecap="round"></path>
                <path d="M504.35,478.84 C504.807393,479.939206 504.959413,481.141543 504.79,482.32 C504.79169,482.414695 504.767486,482.508054 504.72,482.59 C504.608151,482.698177 504.455073,482.752848 504.3,482.74 L494.8,483.11 C494.8,483.11 495.33,480.31 495.4,480.11 C495.73,478.97 496.56,479.27 497.63,479.21 L504.35,478.84 Z" id="Path" stroke="#33313F" stroke-width="2" fill="#FFFFFF" fill-rule="nonzero" stroke-linecap="round"></path>
                <path d="M518.7,478.84 C519.154008,479.940136 519.302569,481.142442 519.13,482.32 C519.135252,482.413809 519.114489,482.507245 519.07,482.59 C518.956807,482.695996 518.80473,482.750309 518.65,482.74 L509.14,483.11 C509.14,483.11 509.68,480.31 509.75,480.11 C510.07,478.97 510.9,479.27 511.98,479.21 L518.7,478.84 Z" id="Path" stroke="#33313F" stroke-width="2" fill="#FFFFFF" fill-rule="nonzero" stroke-linecap="round"></path>
                <path d="M512.97,431.1 L514.25,442.1 C514.336311,442.902842 514.09534,443.70658 513.581565,444.329508 C513.06779,444.952437 512.324596,445.341954 511.52,445.41 C503.40363,446.051725 495.247248,445.998196 487.14,445.25 C485.649503,445.106579 484.492993,443.886056 484.43,442.39 C484.277968,440.429177 483.990617,438.481203 483.57,436.56 C483.24,434.56 482.88,432.63 485.24,432.04 C487.6,431.45 490.83,431.87 493.41,431.82 C496.503333,431.76 499.586667,431.673333 502.66,431.56 C503.52,431.56 512.97,431.05 512.97,431.1 Z" id="Path" stroke="#33313F" stroke-width="3"></path>
                <path d="M512.97,470.84 L514.23,459.84 C514.316311,459.037158 514.07534,458.23342 513.561565,457.610492 C513.04779,456.987563 512.304596,456.598046 511.5,456.53 C503.383733,455.889946 495.227777,455.940126 487.12,456.68 C485.625875,456.823975 484.468125,458.05008 484.41,459.55 C484.257968,461.510823 483.970617,463.458797 483.55,465.38 C483.22,467.38 482.86,469.31 485.22,469.9 C487.58,470.49 490.81,470.07 493.39,470.12 C496.48,470.18 499.56,470.26 502.64,470.38 C503.52,470.41 512.97,470.92 512.97,470.84 Z" id="Path" stroke="#33313F" stroke-width="3"></path>
                <path d="M500.12,520.41 C499.786667,524.07 499.576667,527.736667 499.49,531.41 C495.81944,531.37905 492.162441,530.960054 488.58,530.16 C488.008749,530.133036 487.478873,529.854119 487.133275,529.39847 C486.787676,528.942821 486.661949,528.357366 486.79,527.8 C486.72,525.52 485.52,520.43 488.73,520.11 C489.69,520.01 500.11,520.59 500.12,520.41 Z" id="Path" stroke="#33313F" stroke-width="2" stroke-linecap="round"></path>
                <path d="M323.55,470.45 C324.50257,470.346673 325.451136,470.676993 326.133485,471.34965 C326.815834,472.022306 327.159689,472.966049 327.07,473.92 C325.92,487.23 326.83,500.86 328.33,514.13 C329,520.03 329.89,526.24 332.25,530.89 C332.667751,531.700784 332.633787,532.670475 332.160331,533.450044 C331.686876,534.229613 330.842073,534.706858 329.93,534.71 L329.93,534.71 L285.65,534.97 C285.114465,534.973506 284.606469,534.732984 284.269784,534.316506 C283.933099,533.900029 283.804359,533.352913 283.92,532.83 C287.43,517.61 286.66,500.99 285.23,485.25 C284.51,477.44 284.11,473.25 289.93,472.7 C295.93,472.17 301.93,471.92 307.88,471.41 C309.15,471.31 318.23,471.03 323.55,470.45 Z" id="Path" stroke="#33313F" stroke-width="3" fill="#FFFFFF" fill-rule="nonzero" stroke-linecap="round"></path>
                <path d="M385.15,470.2 C384.658849,470.12462 384.160698,470.283191 383.803497,470.628616 C383.446296,470.974042 383.271121,471.466598 383.33,471.96 C384.76,485.89 383.83,500.21 382.26,514.13 C381.54,520.52 380.55,527.25 377.73,532 C377.320464,532.695948 377.501603,533.588705 378.15,534.07 C378.906513,534.5493 379.796694,534.773598 380.69,534.71 L425.2,534.97 C425.695002,534.97025 426.162247,534.741372 426.465471,534.350115 C426.768695,533.958858 426.873751,533.449284 426.75,532.97 C423.2,517.7 423.96,501.02 425.4,485.22 C426.11,477.41 426.52,473.22 420.7,472.67 C414.7,472.14 408.7,471.89 402.7,471.38 C401.23,471.29 389.93,470.96 385.15,470.2 Z" id="Path" stroke="#33313F" stroke-width="3" fill="#FFFFFF" fill-rule="nonzero"></path>
                <path d="M297.04,479.29 L319.68,509.49" id="Path" stroke="#33313F" stroke-width="2" fill="#FFFFFF" fill-rule="nonzero" stroke-linecap="round"></path>
                <path d="M319.68,477.03 L297.79,511" id="Path" stroke="#33313F" stroke-width="2" fill="#FFFFFF" fill-rule="nonzero" stroke-linecap="round"></path>
                <path d="M398.07,480.71 L410.4,497.16" id="Path" stroke="#33313F" stroke-width="2" fill="#FFFFFF" fill-rule="nonzero" stroke-linecap="round"></path>
                <path d="M410.4,479.47 L398.48,497.98" id="Path" stroke="#33313F" stroke-width="2" fill="#FFFFFF" fill-rule="nonzero" stroke-linecap="round"></path>
                <path d="M304.52,519.14 C309.709239,518.898194 314.908206,518.961636 320.09,519.33 C320.778669,519.403866 321.325629,519.942539 321.41,520.63 L321.89,524.72 C321.93818,524.907342 321.897624,525.106433 321.78,525.26 C321.665479,525.32893 321.533616,525.363631 321.4,525.36 C319.22,525.42 317.03,525.16 314.86,525.36 C313.51,525.46 312.18,525.72 310.86,525.87 C308.645505,526.065082 306.420085,526.105179 304.2,525.99 C301.075227,526.044579 297.95823,525.660845 294.94,524.85 C294.88,524.85 295.12,521.47 295.12,521.14 C295.12,519.56 295.06,519.43 296.69,519.38 L304.52,519.14 Z" id="Path" stroke="#33313F" stroke-width="2" stroke-linecap="round"></path>
                <path d="M399.64,504.04 C404.829352,503.796529 410.028614,503.863314 415.21,504.24 C415.902065,504.306646 416.452797,504.849033 416.53,505.54 L417.01,509.62 C417.05818,509.807342 417.017624,510.006433 416.9,510.16 C416.78957,510.238137 416.654587,510.273659 416.52,510.26 C414.34,510.32 412.15,510.06 409.98,510.26 C408.63,510.36 407.3,510.63 405.98,510.77 C403.765768,510.969987 401.539999,511.010091 399.32,510.89 C396.191969,510.943937 393.071759,510.560222 390.05,509.75 C390,509.75 390.23,506.37 390.23,506.04 C390.23,504.46 390.18,504.33 391.81,504.28 L399.64,504.04 Z" id="Path" stroke="#33313F" stroke-width="2" stroke-linecap="round"></path>
                <path d="M407.57,515.37 C402.384094,515.128194 397.188455,515.191637 392.01,515.56 C391.317935,515.626646 390.767203,516.169033 390.69,516.86 L390.23,520.94 C390.171435,521.126943 390.212974,521.330863 390.34,521.48 C390.450032,521.558987 390.585341,521.594595 390.72,521.58 C392.9,521.64 395.08,521.39 397.26,521.58 C398.61,521.68 399.94,521.95 401.26,522.1 C403.474761,522.29001 405.699832,522.330101 407.92,522.22 C411.048094,522.27512 414.168467,521.891385 417.19,521.08 C417.24,521.08 417.01,517.69 417.01,517.37 C417.01,515.78 417.07,515.65 415.44,515.61 L407.57,515.37 Z" id="Path" stroke="#33313F" stroke-width="2" stroke-linecap="round"></path>
                <path d="M342.86,507.97 C342.86,507.97 357.57,507.22 360.21,507.97" id="Path" stroke="#33313F" stroke-width="3"></path>
                <path d="M360.23,500.05 C360.23,500.05 366.64,506.46 366.64,507.97 C366.64,509.48 358.34,514.76 358.34,514.76" id="Path" stroke="#33313F" stroke-width="3"></path>
                <path d="M439.07,494.29 C439.07,494.29 452.4,488.05 455.13,487.75" id="Path" stroke="#33313F" stroke-width="3"></path>
                <path d="M452.15,480.42 C452.15,480.42 460.5,483.94 461.07,485.33 C461.64,486.72 455.95,494.75 455.95,494.75" id="Path" stroke="#33313F" stroke-width="3"></path>
                <path d="M438.93,510.27 C438.93,510.27 452.48,516.02 454.53,517.86" id="Path" stroke="#33313F" stroke-width="3"></path>
                <path d="M457.99,510.73 C457.99,510.73 460.99,519.3 460.29,520.66 C459.59,522.02 449.86,523.14 449.86,523.14" id="Path" stroke="#33313F" stroke-width="3"></path>
                <path d="M491.52,478.84 C491.974008,479.940136 492.122569,481.142442 491.95,482.32 C491.955252,482.413809 491.934489,482.507245 491.89,482.59 C491.776807,482.695996 491.62473,482.750309 491.47,482.74 L481.96,483.11 C481.96,483.11 482.5,480.31 482.57,480.11 C482.89,478.97 483.73,479.27 484.8,479.21 L491.52,478.84 Z" id="Path" stroke="#33313F" stroke-width="2" fill="#FFFFFF" fill-rule="nonzero" stroke-linecap="round"></path>
                <polygon id="Path" fill="#33313F" fill-rule="nonzero" points="311.87 565.02 315.23 561.89 312.23 561.77 310.66 564.18"></polygon>
                <polygon id="Path" fill="#65617D" fill-rule="nonzero" points="287.7 586.94 291.26 582.37 292.05 581.55 302.95 570.13 306.66 566.25 308.4 566.04 310.9 563.56 312.37 564.85 309.94 567.69 309.98 569.18 306.19 573.29 295.49 584.91 294.8 585.65 290.5 589.63"></polygon>
                <polygon id="Path" fill="#33313F" fill-rule="nonzero" points="292.05 581.55 302.95 570.13 306.19 573.29 295.49 584.91"></polygon>
                <path d="M308.5,585.95 C305.331621,583.001171 302.576649,579.637346 300.31,575.95 C295.51,568.47 287.49,564.43 281.99,562.42 L281.99,559.99 L282.33,559.92 L282.18,557.66 L282.33,557.66 L281.94,551.66 L281.94,551.61 L281.94,551.61 L279.96,521.84 C279.96,521.84 272.91,501.99 285.44,483.68 C297.97,465.37 286.22,447.81 274.44,440.94 C274.44,440.94 268.96,411.94 273.66,405.07 C267.284492,401.400382 260.714865,398.078849 253.98,395.12 C253.87,394.76 253.78,394.4 253.69,394.02 C253.56,391.32 253.39,388.62 253.24,385.92 C253.396673,384.516677 253.654003,383.126429 254.01,381.76 C254.16,381.19 254.33,380.62 254.51,380.03 C265.971697,375.650554 273.574109,364.689583 273.66,352.42 C273.662575,348.922431 273.032429,345.453242 271.8,342.18 C272.432208,341.139889 272.913671,340.015353 273.23,338.84 C273.98,335.75 273.13,332.45 271.37,329.32 C268.23,322.54 260.4,316.19 254.72,313.84 C246.58,310.54 234.33,311.32 225.85,312.34 C221.09,312.91 215.66,314.5 213.94,318.86 C213.31,320.46 213.3,322.23 212.86,323.86 C211.08,330.52 203.39,333.62 198.64,338.72 C194.44,343.22 192.64,349.31 191.24,355.24 C187.340596,372.235491 186.410216,389.777387 188.49,407.09 C188.97,411.09 189.61,415.04 190.29,419 C187.43,423 184.85,430.07 186.03,442.35 L176.63,486.61 L172.72,512.56 C172.72,512.56 170.37,523.24 179.72,532.4 C185.72,538.24 192.97,548.11 197.44,554.5 C195.493657,560.157856 194.529749,566.107028 194.59,572.09 C194.69,574.81 194.84,577.44 195.03,579.94 C195.425941,585.251259 196.43258,590.499204 198.03,595.58 C199.13,606.24 201.3,619.87 205.55,628.58 L207.11,675.13 C207.11,675.13 204.76,717.87 200.11,726.26 C195.46,734.65 210.28,805.63 210.28,805.63 L210.28,815.55 L207.78,822.89 L207.15,822.42 C195.41,836.92 207.15,842.26 207.15,842.26 C207.15,842.26 210.35,842.41 215.46,842.61 C214.56759,846.794332 216.626016,851.051158 220.46,852.95 C220.46,852.95 286.99,856 298.74,852.95 C310.49,849.9 307.35,839.21 301.08,839.95 C298.69,840.25 295.16,839.62 291.71,838.73 C295.36,834.48 292.44,828.73 287.78,829.27 C281.52,830.03 267.43,824.49 267.43,824.49 L267.36,824.58 C266.910172,824.408531 266.449084,824.2682 265.98,824.16 C260.745937,822.982828 255.575792,821.537591 250.49,819.83 C247.49,813.4 240.49,796.12 245.49,782.72 C247.75,776.66 248.49,768.6 248.49,760.78 C248.609351,737.188836 252.080723,713.734345 258.8,691.12 L268.19,659.12 C268.19,659.12 281.5,620.19 282.28,609.51 L282.23,593.97 C293.23,600.97 301.98,598.87 307.56,595.6 C309.210991,594.626014 310.297229,592.921799 310.483071,591.013952 C310.668913,589.106105 309.931987,587.224297 308.5,585.95 Z M204.03,504.95 C204.3,503.83 204.52,502.61 204.71,501.32 C206.55,501.32 208.4,501.32 210.24,501.26 C212.528671,505.909136 213.490614,511.099477 213.02,516.26 C208.78,514.95 202.44,511.74 204.03,505 L204.03,504.95 Z" id="Shape" fill="url(#linearGradient-1)" fill-rule="nonzero"></path>
                <path d="M211.47,811.84 L208.47,820.84 L218.26,830.63 L250.65,838.16 L274,835.9 L272.49,827.61 L272.49,827.61 C271.574568,823.983614 268.711999,821.171198 265.07,820.32 C255.47,818.06 237.17,812.92 233.32,805.77 L211.47,811.84 Z" id="Path" fill="#DB8B8B" fill-rule="nonzero"></path>
                <path d="M211.47,811.84 L208.47,820.84 L218.26,830.63 L250.65,838.16 L274,835.9 L272.49,827.61 L272.49,827.61 C271.574568,823.983614 268.711999,821.171198 265.07,820.32 C255.47,818.06 237.17,812.92 233.32,805.77 L211.47,811.84 Z" id="Path" fill="#000000" fill-rule="nonzero" opacity="0.1"></path>
                <path d="M266.46,833.64 L261.94,827.64 L266.46,820.64 C266.46,820.64 280.01,826.11 286.04,825.36 C292.07,824.61 295.04,835.15 283.78,838.16 C272.52,841.17 208.46,838.16 208.46,838.16 C208.46,838.16 197.16,832.89 208.46,818.58 L218.25,826.11 C218.25,826.11 234.82,835.11 243.11,833.64 L266.46,833.64 Z" id="Path" fill="#2E3037" fill-rule="nonzero"></path>
                <path d="M286.79,846.45 L263.44,848.71 L231.05,841.17 L221.23,831.38 L222.03,828.99 L223.15,825.63 L224.25,822.34 L246.09,816.34 C247.198857,818.143617 248.716383,819.661143 250.52,820.77 C257.61,825.62 270.36,829.13 277.84,830.88 C278.15,830.96 278.47,831.05 278.77,831.16 C281.987573,832.230695 284.435299,834.87077 285.26,838.16 L286.79,846.45 Z" id="Path" fill="#DB8B8B" fill-rule="nonzero"></path>
                <path d="M286.79,846.45 L263.44,848.71 L231.05,841.17 L221.23,831.38 L222.03,828.99 L231.03,835.9 C231.03,835.9 247.61,844.9 255.89,843.43 L279.23,843.43 L274.71,837.43 L278.77,831.16 C281.987573,832.230695 284.435299,834.87077 285.26,838.16 L286.79,846.45 Z" id="Path" fill="#000000" fill-rule="nonzero" opacity="0.1"></path>
                <path d="M279.23,844.19 L274.71,838.19 L279.23,831.19 C279.23,831.19 292.79,836.66 298.81,835.91 C304.83,835.16 307.81,845.7 296.56,848.72 C285.31,851.74 221.23,848.72 221.23,848.72 C221.23,848.72 209.93,843.44 221.23,829.13 L231.02,836.66 C231.02,836.66 247.6,845.66 255.88,844.2 L279.23,844.19 Z" id="Path" fill="#2E3037" fill-rule="nonzero"></path>
                <path d="M260.43,407.32 C260.43,407.32 224.28,411.08 229.55,396.02 C231.027144,391.749406 231.408804,387.176369 230.66,382.72 C229.723812,377.195247 227.542003,371.95617 224.28,367.4 L258.17,372.67 C256.139057,376.064338 254.594019,379.726648 253.58,383.55 C249.54,399.54 260.43,407.32 260.43,407.32 Z" id="Path" fill="#DB8B8B" fill-rule="nonzero"></path>
                <path d="M198.67,579.05 C198.67,579.05 199.42,611.44 206.95,627.26 L208.46,673.2 C208.46,673.2 206.2,715.39 201.68,723.67 C197.16,731.95 211.47,802.01 211.47,802.01 L211.47,814.06 C211.47,814.06 235.57,823.06 242.35,812.55 L235.57,722.92 L238.57,598.64 L198.67,579.05 Z" id="Path" fill="#35323E" fill-rule="nonzero"></path>
                <path d="M198.66,579.05 C198.66,579.05 199.41,611.44 206.94,627.26 L208.45,673.2 C208.45,673.2 206.19,715.39 201.67,723.67 C197.15,731.95 211.46,802.01 211.46,802.01 L211.46,814.06 C211.46,814.06 235.56,823.06 242.34,812.55 L235.56,722.92 L238.56,598.64 L198.66,579.05 Z" id="Path" fill="#000000" fill-rule="nonzero" opacity="0.1"></path>
                <path d="M183.6,475.11 L179.08,487.16 L175.32,512.77 C174.287172,520.00843 176.812124,527.300251 182.1,532.35 C191.1,541.35 203.19,560.22 203.19,560.22 L217.5,517.29 C217.5,517.29 203.19,515.03 205.5,505.24 C207.81,495.45 207,477.37 207,477.37 L183.6,475.11 Z" id="Path" fill="#254095" fill-rule="nonzero"></path>
                <path d="M250.55,820.75 C240.88,835.96 225.85,827.34 223.18,825.63 L224.28,822.34 L246.12,816.34 C247.231321,818.136331 248.748659,819.646818 250.55,820.75 L250.55,820.75 Z" id="Path" fill="#000000" fill-rule="nonzero" opacity="0.1"></path>
                <path d="M280.77,608.43 C280.01,618.97 267.21,657.43 267.21,657.43 L258.21,689.04 C251.719125,711.374428 248.360397,734.501859 248.23,757.76 C248.23,765.47 247.52,773.43 245.35,779.41 C239.35,795.98 251.35,818.58 251.35,818.58 C240.81,837.41 222.73,824.58 222.73,824.58 L222.73,812.58 C222.73,812.58 208.46,747.02 212.23,734.22 C216,721.42 217.51,686.76 217.51,686.76 L217.51,624.25 C205.4353,612.221932 198.097397,596.246815 196.84,579.25 C196.66,576.78 196.51,574.19 196.42,571.5 C195.81,554.5 207.42,534.58 211.96,527.5 C213.06,525.78 213.74,524.82 213.74,524.82 L280.23,551.2 L280.38,551.26 L280.38,553.83 L280.38,559.53 L280.77,608.43 Z" id="Path" fill="#35323E" fill-rule="nonzero"></path>
                <path d="M258.17,372.67 C256.139057,376.064338 254.594019,379.726648 253.58,383.55 C246.142301,386.385312 237.873136,386.085862 230.66,382.72 C229.723812,377.195247 227.542003,371.95617 224.28,367.4 L258.17,372.67 Z" id="Path" fill="#000000" fill-rule="nonzero" opacity="0.1"></path>
                <circle id="Oval" fill="#DB8B8B" fill-rule="nonzero" cx="243.11" cy="354.59" r="29.38"></circle>
                <path d="M280.77,559.47 L280.44,559.53 C248.86,566.02 209.23,533.11 209.23,533.11 C210.295667,531.318323 211.212093,529.441991 211.97,527.5 C213.07,525.78 213.75,524.82 213.75,524.82 L280.23,551.2 L280.4,553.83 L280.77,559.47 Z" id="Path" fill="#000000" fill-rule="nonzero" opacity="0.1"></path>
                <path d="M272.48,406.57 C272.48,406.57 230.3,380.96 216.74,391.5 L197.91,415.6 C197.91,415.6 185.86,419.37 188.12,443.47 L179.12,487.16 L206.23,493.94 C206.23,493.94 222.05,509 209.23,530.85 C209.23,530.85 249.15,563.99 280.79,557.21 L278.51,521.84 C278.51,521.84 271.73,502.25 283.78,484.18 C295.83,466.11 284.53,448.78 273.24,442 C273.23,441.97 267.96,413.34 272.48,406.57 Z" id="Path" fill="#254095" fill-rule="nonzero"></path>
                <path d="M274.74,560.22 C274.74,560.22 290.56,563.22 298.09,575.29 C300.263809,578.91409 302.917873,582.227466 305.98,585.14 C307.35898,586.415893 308.060736,588.26403 307.876133,590.133631 C307.691529,592.003232 306.64188,593.678436 305.04,594.66 C299.04,598.26 289.32,600.47 277.04,590.35 C255.91,573.03 274.74,560.22 274.74,560.22 Z" id="Path" fill="#DB8B8B" fill-rule="nonzero"></path>
                <path d="M251.39,420.84 C251.39,420.84 236.33,419.33 232.56,458.5 C228.79,497.67 222.77,506.7 222.77,506.7 C222.77,506.7 219,527.04 228.04,539.09 C237.08,551.14 254.4,576.84 254.4,576.84 C254.4,576.84 273.24,582.12 277,563.28 L253.65,519.6 C253.65,519.6 249.89,504.53 258.92,493.99 C267.95,483.45 274.74,413.34 251.39,420.84 Z" id="Path" fill="#000000" fill-rule="nonzero" opacity="0.1"></path>
                <path d="M252.9,418.62 C252.9,418.62 237.83,417.11 234.07,456.28 C230.31,495.45 224.28,504.48 224.28,504.48 C224.28,504.48 220.51,524.84 229.55,536.84 C238.59,548.84 255.91,574.5 255.91,574.5 C255.91,574.5 274.74,579.78 278.51,560.95 L255.16,517.26 C255.16,517.26 251.39,502.19 260.43,491.65 C269.47,481.11 276.23,411.08 252.9,418.62 Z" id="Path" fill="#254095" fill-rule="nonzero"></path>
                <path d="M265.33,446.84 C265.33,446.84 266.83,470.19 260.05,483 C253.27,495.81 253.27,512.37 260.05,521.41" id="Path" fill="#000000" fill-rule="nonzero" opacity="0.1"></path>
                <path d="M269.09,418.24 C269.09,418.24 263.09,412.24 245.74,411.46 C228.39,410.68 220.89,405.46 220.89,405.46" id="Path" fill="#000000" fill-rule="nonzero" opacity="0.1"></path>
                <path d="M227.23,316.63 C222.65,317.19 217.42,318.76 215.77,323.07 C215.16,324.65 215.15,326.39 214.72,328.07 C213.01,334.65 205.61,337.71 201.04,342.74 C197.04,347.18 195.23,353.19 193.92,359.04 C190.159055,375.814817 189.249675,393.103189 191.23,410.18 C192.7,422.67 195.7,434.96 196.55,447.51 C197.4,460.06 195.85,473.26 188.99,483.8 C185.99,488.34 182.15,492.32 180.06,497.31 C184.38,500.81 190.34,501.31 195.9,501.5 C202.38,501.72 208.86,501.72 215.34,501.5 C218.74,501.38 222.29,501.16 225.22,499.44 C227.390148,498.052739 229.175233,496.140395 230.41,493.88 C234.11,487.59 235.05,480.03 234.89,472.73 C234.73,465.43 233.58,458.18 233.44,450.88 C233.37,446.88 233.68,442.68 235.97,439.42 C237.62,437.07 240.13,435.49 242.28,433.58 C250.35,426.44 253.11,414.98 253.38,404.21 C253.65,393.44 251.88,382.65 252.79,371.92 C253.14,367.71 254.71,362.67 258.85,361.85 C260.15,361.59 261.54,361.85 262.78,361.35 C266.1,360.08 265.78,355.4 266.72,351.98 C267.79,348.13 271.07,345.16 271.99,341.28 C274.16,332.17 262.56,321.28 254.99,318.12 C247.14,314.84 235.35,315.63 227.23,316.63 Z" id="Path" fill="#000000" fill-rule="nonzero" opacity="0.1"></path>
                <path d="M226.44,315.13 C221.86,315.69 216.63,317.26 214.98,321.56 C214.554478,323.206896 214.220632,324.876126 213.98,326.56 C212.27,333.14 204.86,336.2 200.29,341.24 C196.29,345.67 194.48,351.68 193.17,357.54 C189.426156,374.327857 188.533698,391.625993 190.53,408.71 C192,421.2 195,433.5 195.84,446.04 C196.68,458.58 195.15,471.79 188.29,482.33 C185.29,486.87 181.45,490.85 179.36,495.84 C183.68,499.35 189.64,499.84 195.2,500.03 C201.68,500.25 208.16,500.25 214.64,500.03 C218.04,499.91 221.59,499.7 224.52,497.97 C226.691549,496.587518 228.474449,494.673826 229.7,492.41 C233.41,486.12 234.34,478.56 234.19,471.26 C234.04,463.96 232.87,456.71 232.74,449.41 C232.67,445.41 232.98,441.21 235.26,437.96 C236.92,435.6 239.43,434.02 241.58,432.12 C249.64,424.97 252.41,413.51 252.68,402.74 C252.95,391.97 251.17,381.18 252.08,370.45 C252.44,366.25 254.01,361.2 258.14,360.39 C259.45,360.13 260.84,360.39 262.08,359.88 C265.4,358.61 265.08,353.94 266.02,350.51 C267.08,346.66 270.36,343.7 271.29,339.82 C273.46,330.7 261.86,319.82 254.29,316.65 C246.38,313.35 234.6,314.12 226.44,315.13 Z" id="Path" fill="#35323E" fill-rule="nonzero"></path>
            </g>
        </g>
    </g>
</svg>