<?xml version="1.0" encoding="UTF-8"?>
<svg width="1133px" height="768px" viewBox="0 0 1133 768" version="1.1" xmlns="http://www.w3.org/2000/svg" xmlns:xlink="http://www.w3.org/1999/xlink">
    <!-- Generator: Sketch 53.2 (72643) - https://sketchapp.com -->
    <title>undraw_schedule_pnbk</title>
    <desc>Created with Sketch.</desc>
    <defs>
        <linearGradient x1="50.0108389%" y1="100%" x2="50.0108389%" y2="0%" id="linearGradient-1">
            <stop stop-color="#808080" stop-opacity="0.25" offset="0%"></stop>
            <stop stop-color="#808080" stop-opacity="0.12" offset="54%"></stop>
            <stop stop-color="#808080" stop-opacity="0.1" offset="100%"></stop>
        </linearGradient>
        <linearGradient x1="49.9891611%" y1="100%" x2="49.9891611%" y2="0%" id="linearGradient-2">
            <stop stop-color="#808080" stop-opacity="0.25" offset="0%"></stop>
            <stop stop-color="#808080" stop-opacity="0.12" offset="54%"></stop>
            <stop stop-color="#808080" stop-opacity="0.1" offset="100%"></stop>
        </linearGradient>
        <linearGradient x1="-0.0404357934%" y1="49.9969857%" x2="99.997717%" y2="49.9969857%" id="linearGradient-3">
            <stop stop-color="#808080" stop-opacity="0.25" offset="0%"></stop>
            <stop stop-color="#808080" stop-opacity="0.12" offset="54%"></stop>
            <stop stop-color="#808080" stop-opacity="0.1" offset="100%"></stop>
        </linearGradient>
    </defs>
    <g id="Page-1" stroke="none" stroke-width="1" fill="none" fill-rule="evenodd">
        <g id="IllustrationUndraw" transform="translate(-1501.000000, -4500.000000)">
            <g id="undraw_schedule_pnbk" transform="translate(1500.000000, 4500.000000)">
                <path d="M613.68,112.3 C544.09,112.19 477.04,90.57 412.89,66.51 C348.74,42.45 285.1,15.62 216.77,4.11 C172.77,-3.29 122.87,-2.79 88.6,23.49 C55.63,48.78 46.19,90.75 41.67,129.57 C38.28,158.75 36.76,189.4 49.84,216.14 C58.93,234.71 74.43,250.03 85.4,267.74 C123.57,329.34 100.92,407.74 64.16,470.56 C46.91,499.97 26.7,528.2 13.69,559.36 C0.68,590.52 -4.59,625.88 8.85,656.71 C22.19,687.28 52.19,709.57 84.28,724.78 C149.57,755.78 225.44,762.6 299.28,765.37 C462.76,771.51 626.49,760.57 789.79,749.57 C850.22,745.51 910.92,741.41 970.08,729.28 C1002.93,722.55 1036.74,712.52 1059.98,690.36 C1089.48,662.24 1095.4,616.19 1073.79,583.02 C1037.53,527.33 942.37,516.57 916.27,456.39 C901.9,423.26 914.1,385.39 932.13,353.53 C970.82,285.24 1037.57,224.16 1038.48,147.64 C1039.1,95.08 1004.15,43.71 952.11,20.71 C897.55,-3.43 823.31,2.51 785.28,46.99 C746.12,92.79 675.13,112.4 613.68,112.3 Z" id="Path" fill="#254095" fill-rule="nonzero" opacity="0.1"></path>
                <path d="M959.84,626 C959.84,626 947.55,617.89 935.37,623.66 C935.37,623.66 939.12,630.89 954.54,630.2 L959.84,626 Z" id="Path" fill="#254095" fill-rule="nonzero"></path>
                <path d="M961.35,626.44 C961.35,626.44 965.09,640.68 955.72,650.37 C955.72,650.37 950.08,644.49 955.72,630.11 L961.35,626.44 Z" id="Path" fill="#254095" fill-rule="nonzero"></path>
                <path d="M976.68,612.77 C976.68,612.77 975.77,600.65 948.43,604.67 C948.43,604.67 948.3,612.49 957.9,616.19 C967.5,619.89 971.89,616.77 976.68,612.77 Z" id="Path" fill="#254095" fill-rule="nonzero"></path>
                <path d="M978.36,612.68 C978.36,612.68 989.93,616.4 979.62,642.05 C979.62,642.05 971.99,640.34 970.62,630.14 C969.25,619.94 973.35,616.4 978.36,612.68 Z" id="Path" fill="#254095" fill-rule="nonzero"></path>
                <path d="M993.85,595.5 C993.85,595.5 995.41,575.57 967.46,577.62 C967.46,577.62 965.46,595.62 988.91,600.29 L993.85,595.5 Z" id="Path" fill="#254095" fill-rule="nonzero"></path>
                <path d="M1012.32,573 C1012.32,573 1008.48,550.42 980.55,557.15 C980.55,557.15 980.44,576.68 1007.75,578.39 L1012.32,573 Z" id="Path" fill="#254095" fill-rule="nonzero"></path>
                <path d="M1025.81,549.74 C1025.81,549.74 1019.4,527.74 991.72,534.33 C991.72,534.33 998.3,554.11 1023.97,553.81 L1025.81,549.74 Z" id="Path" fill="#254095" fill-rule="nonzero"></path>
                <path d="M1038.63,527.03 C1038.63,527.03 1032.36,504.2 1005.63,511.03 C1005.63,511.03 1014.55,532.72 1036.87,530.9 L1038.63,527.03 Z" id="Path" fill="#254095" fill-rule="nonzero"></path>
                <path d="M1046.9,505.45 C1046.9,505.45 1042.08,477.57 1017.19,483.71 C1017.19,483.71 1024.43,509.11 1045.09,509.51 L1046.9,505.45 Z" id="Path" fill="#254095" fill-rule="nonzero"></path>
                <path d="M1054.64,479.38 C1054.64,479.38 1048.86,451.23 1023.64,459.38 C1023.64,459.38 1033.53,485.97 1052.86,483.22 L1054.64,479.38 Z" id="Path" fill="#254095" fill-rule="nonzero"></path>
                <path d="M1059.44,455.11 C1059.44,455.11 1050.25,426.97 1030.76,427.73 C1030.76,427.73 1040.16,457.46 1057.76,460.73 L1059.44,455.11 Z" id="Path" fill="#254095" fill-rule="nonzero"></path>
                <path d="M1062.49,431.44 C1062.49,431.44 1052.49,397.56 1036.63,400.17 C1036.63,400.17 1043.55,426.07 1061.93,436.71 L1062.49,431.44 Z" id="Path" fill="#254095" fill-rule="nonzero"></path>
                <path d="M1064.19,403.16 C1064.19,403.16 1054.82,374.92 1039.19,373.8 C1039.19,373.8 1045.57,401.58 1063.87,410.49 L1064.19,403.16 Z" id="Path" fill="#254095" fill-rule="nonzero"></path>
                <path d="M1066.12,376.83 C1066.12,376.83 1054.43,348.56 1044.12,347.93 C1044.12,347.93 1049.19,375.75 1065.12,381.47 L1066.12,376.83 Z" id="Path" fill="#254095" fill-rule="nonzero"></path>
                <path d="M1067.41,352.31 C1067.41,352.31 1060.19,321.57 1049.89,319.07 C1049.89,319.07 1051.31,344.17 1066.38,354.6 L1067.41,352.31 Z" id="Path" fill="#254095" fill-rule="nonzero"></path>
                <path d="M1071.3,320.22 C1071.3,320.22 1063.74,295.76 1055.37,292.03 C1055.37,292.03 1057.03,320.87 1069.37,326.21 L1071.3,320.22 Z" id="Path" fill="#254095" fill-rule="nonzero"></path>
                <path d="M1074.53,299.15 L1076.06,256.01 C1076.06,256.01 1060.44,288.56 1073.38,306.76 L1074.53,299.15 Z" id="Path" fill="#254095" fill-rule="nonzero"></path>
                <path d="M1086.62,256.28 C1086.62,256.28 1097.88,224.77 1100.62,223.02 C1100.62,223.02 1078.52,243.45 1080.68,269.75 L1086.62,256.28 Z" id="Path" fill="#254095" fill-rule="nonzero"></path>
                <path d="M994.61,595.36 C994.61,595.36 1014.43,592.76 1013.83,620.78 C1013.83,620.78 995.92,623.69 990.08,600.53 L994.61,595.36 Z" id="Path" fill="#254095" fill-rule="nonzero"></path>
                <path d="M1013.25,572.25 C1013.25,572.25 1036.16,572.17 1034.25,600.85 C1034.25,600.85 1015.03,604.28 1008.68,577.66 L1013.25,572.25 Z" id="Path" fill="#254095" fill-rule="nonzero"></path>
                <path d="M1026.03,551.57 C1026.03,551.57 1046.82,541.82 1060.13,566.98 C1060.13,566.98 1040.92,575.11 1024.2,555.63 L1026.03,551.57 Z" id="Path" fill="#254095" fill-rule="nonzero"></path>
                <path d="M1039.1,527.24 C1039.1,527.24 1060.38,516.86 1072.88,541.45 C1072.88,541.45 1050.71,549.09 1037.34,531.13 L1039.1,527.24 Z" id="Path" fill="#254095" fill-rule="nonzero"></path>
                <path d="M1046.63,506.05 C1046.63,506.05 1067.12,486.48 1083.47,506.28 C1083.47,506.28 1062.54,522.38 1045.68,510.41 L1046.63,506.05 Z" id="Path" fill="#254095" fill-rule="nonzero"></path>
                <path d="M1053.48,478.71 C1053.48,478.71 1074.1,458.71 1090.32,479.63 C1090.32,479.63 1067.18,496.06 1052.75,482.91 L1053.48,478.71 Z" id="Path" fill="#254095" fill-rule="nonzero"></path>
                <path d="M1057.34,454.31 C1057.34,454.31 1073.22,429.31 1091.91,434.9 C1091.91,434.9 1075.44,461.37 1057.52,460.19 L1057.34,454.31 Z" id="Path" fill="#254095" fill-rule="nonzero"></path>
                <path d="M1062.02,431.28 C1062.02,431.28 1078.02,399.79 1093.15,405.28 C1093.15,405.28 1081.62,429.48 1061.61,436.59 L1062.02,431.28 Z" id="Path" fill="#254095" fill-rule="nonzero"></path>
                <path d="M1063.12,401.57 C1063.12,401.57 1079.57,376.79 1094.98,379.81 C1094.98,379.81 1081.54,404.94 1061.53,408.74 L1063.12,401.57 Z" id="Path" fill="#254095" fill-rule="nonzero"></path>
                <path d="M1064.38,376.27 C1064.38,376.27 1077.12,348.47 1087.49,348.22 C1087.49,348.22 1081.37,375.84 1065.23,380.95 L1064.38,376.27 Z" id="Path" fill="#254095" fill-rule="nonzero"></path>
                <path d="M1066.9,351.7 C1066.9,351.7 1081.07,323.54 1091.72,323.49 C1091.72,323.49 1084.47,347.56 1067.38,354.18 L1066.9,351.7 Z" id="Path" fill="#254095" fill-rule="nonzero"></path>
                <path d="M1069.04,321.95 C1069.04,321.95 1079.64,298.65 1088.41,296.01 C1088.41,296.01 1083.11,324.41 1070.2,328.13 L1069.04,321.95 Z" id="Path" fill="#254095" fill-rule="nonzero"></path>
                <path d="M1075.8,298.33 L1099.48,262.25 C1099.48,262.25 1093.42,297.84 1072.34,305.25 L1075.8,298.33 Z" id="Path" fill="#254095" fill-rule="nonzero"></path>
                <path d="M1092.06,259.18 C1092.06,259.18 1119.59,240.18 1120.58,237.1 C1120.58,237.1 1106.58,263.72 1080.58,268.42 L1092.06,259.18 Z" id="Path" fill="#254095" fill-rule="nonzero"></path>
                <path d="M1093.7,250.63 C1093.7,250.63 1125.31,220.24 1133.38,220.279961 C1133.38,220.279961 1107.31,221.47 1092.94,249.01 L1093.7,250.63 Z" id="Path" fill="#254095" fill-rule="nonzero"></path>
                <path d="M1069.34,326.46 L1070.49,326.61 C1076.43,280.11 1085.09,252.61 1094.88,249.23 L1094.5,248.14 C1084.13,251.74 1075.43,278.82 1069.34,326.46 Z" id="Path" fill="#444053" fill-rule="nonzero"></path>
                <path d="M1060.61,437.63 L1062.35,437.78 C1062.71,433.44 1062.99,428.99 1063.18,424.57 C1064.84,386.08 1067.42,350.75 1070.8,324.26 L1069.8,323.01 C1066.41,349.55 1063.11,385.96 1061.45,424.49 C1061.25,428.89 1060.97,433.31 1060.61,437.63 Z" id="Path" fill="#444053" fill-rule="nonzero"></path>
                <path d="M927.38,648.14 C927.69,648 958.32,634.33 990.11,601.7 C1008.73259,582.592717 1024.20803,560.653711 1035.96,536.7 C1050.65,506.77 1059.61,469.99 1062.62,434.26 L1060.81,435.11 C1054.06,515.3 1017.55,570.11 988.51,599.95 C957.03,632.29 926.75,645.83 926.45,645.95 L927.38,648.14 Z" id="Path" fill="#444053" fill-rule="nonzero"></path>
                <path d="M1049.71,48.88 L88.83,48.88 C84.1024425,48.88 80.27,52.7124425 80.27,57.44 L80.27,82.38 L1058.27,82.38 L1058.27,57.44 C1058.27,52.7124425 1054.43756,48.88 1049.71,48.88 Z" id="Path" fill="#3F3D56" fill-rule="nonzero"></path>
                <path d="M80.27,82.38 L80.27,643.62 C80.27,653.152435 87.9975652,660.88 97.53,660.88 L1041.01,660.88 C1050.54243,660.88 1058.27,653.152435 1058.27,643.62 L1058.27,82.38 L80.27,82.38 Z" id="Path" fill="#FFFFFF" fill-rule="nonzero"></path>
                <circle id="Oval" fill="#FA5959" fill-rule="nonzero" opacity="0.8" cx="95.77" cy="65.37" r="4"></circle>
                <circle id="Oval" fill="#FED253" fill-rule="nonzero" opacity="0.8" cx="106.77" cy="65.37" r="4"></circle>
                <circle id="Oval" fill="#8CCF4D" fill-rule="nonzero" opacity="0.8" cx="117.77" cy="65.37" r="4"></circle>
                <g id="Group" opacity="0.3" transform="translate(117.000000, 116.000000)" stroke="#3F3D56">
                    <rect id="Rectangle" x="0.77" y="0.37" width="904" height="510"></rect>
                    <rect id="Rectangle" x="118.77" y="0.37" width="668" height="510"></rect>
                    <rect id="Rectangle" x="236.77" y="0.37" width="432" height="510"></rect>
                    <rect id="Rectangle" x="354.77" y="0.37" width="196" height="510"></rect>
                    <path d="M452.77,0.37 L452.77,510.37" id="Path"></path>
                    <rect id="Rectangle" x="0.77" y="74.37" width="904" height="362"></rect>
                    <rect id="Rectangle" x="0.77" y="147.37" width="904" height="216"></rect>
                    <rect id="Rectangle" x="0.77" y="220.37" width="904" height="70"></rect>
                </g>
                <rect id="Rectangle" fill="#3F3D56" fill-rule="nonzero" opacity="0.1" x="259.27" y="144.87" width="71" height="26"></rect>
                <rect id="Rectangle" fill="#3F3D56" fill-rule="nonzero" opacity="0.1" x="148.27" y="215.87" width="53" height="26"></rect>
                <rect id="Rectangle" fill="#3F3D56" fill-rule="nonzero" opacity="0.1" x="374.27" y="144.87" width="71" height="26"></rect>
                <rect id="Rectangle" fill="#3F3D56" fill-rule="nonzero" opacity="0.1" x="482.27" y="144.87" width="71" height="26"></rect>
                <rect id="Rectangle" fill="#3F3D56" fill-rule="nonzero" opacity="0.1" x="582.27" y="144.87" width="71" height="26"></rect>
                <rect id="Rectangle" fill="#3F3D56" fill-rule="nonzero" opacity="0.1" x="694.27" y="144.87" width="71" height="26"></rect>
                <rect id="Rectangle" fill="#3F3D56" fill-rule="nonzero" opacity="0.1" x="808.27" y="144.87" width="71" height="26"></rect>
                <rect id="Rectangle" fill="#3F3D56" fill-rule="nonzero" opacity="0.1" x="929.27" y="144.87" width="71" height="26"></rect>
                <rect id="Rectangle" fill="url(#linearGradient-1)" fill-rule="nonzero" x="399.79" y="285.82" width="46.13" height="44.66"></rect>
                <rect id="Rectangle" fill="#7CFCFF" fill-rule="nonzero" x="400.59" y="286.59" width="44.54" height="43.12"></rect>
                <rect id="Rectangle" fill="url(#linearGradient-1)" fill-rule="nonzero" x="494.83" y="276.14" width="46.13" height="44.66"></rect>
                <rect id="Rectangle" fill="#FFFFA5" fill-rule="nonzero" x="495.63" y="276.91" width="44.54" height="43.12"></rect>
                <rect id="Rectangle" fill="url(#linearGradient-1)" fill-rule="nonzero" x="677.83" y="428.14" width="46.13" height="44.66"></rect>
                <rect id="Rectangle" fill="#FFFFA5" fill-rule="nonzero" x="678.63" y="428.91" width="44.54" height="43.12"></rect>
                <rect id="Rectangle" fill="url(#linearGradient-2)" fill-rule="nonzero" x="271.57" y="206.23" width="46.13" height="44.66"></rect>
                <rect id="Rectangle" fill="#FFFFA5" fill-rule="nonzero" x="272.36" y="207" width="44.54" height="43.12"></rect>
                <rect id="Rectangle" fill="url(#linearGradient-2)" fill-rule="nonzero" x="363.23" y="270.23" width="46.13" height="44.66"></rect>
                <rect id="Rectangle" fill="#FF69B4" fill-rule="nonzero" x="364.02" y="271" width="44.54" height="43.12"></rect>
                <rect id="Rectangle" fill="url(#linearGradient-1)" fill-rule="nonzero" x="731.79" y="427.82" width="46.13" height="44.66"></rect>
                <rect id="Rectangle" fill="#7CFCFF" fill-rule="nonzero" x="732.59" y="428.59" width="44.54" height="43.12"></rect>
                <rect id="Rectangle" fill="url(#linearGradient-1)" fill-rule="nonzero" x="812.79" y="206.82" width="46.13" height="44.66"></rect>
                <rect id="Rectangle" fill="#7CFCFF" fill-rule="nonzero" x="813.59" y="207.59" width="44.54" height="43.12"></rect>
                <rect id="Rectangle" fill="url(#linearGradient-1)" fill-rule="nonzero" x="807.79" y="348.82" width="46.13" height="44.66"></rect>
                <rect id="Rectangle" fill="#7CFCFF" fill-rule="nonzero" x="808.59" y="349.59" width="44.54" height="43.12"></rect>
                <rect id="Rectangle" fill="url(#linearGradient-1)" fill-rule="nonzero" x="842.79" y="358.82" width="46.13" height="44.66"></rect>
                <rect id="Rectangle" fill="#7CFCFF" fill-rule="nonzero" x="843.59" y="359.59" width="44.54" height="43.12"></rect>
                <rect id="Rectangle" fill="url(#linearGradient-2)" fill-rule="nonzero" x="695.23" y="412.23" width="46.13" height="44.66"></rect>
                <rect id="Rectangle" fill="#FF69B4" fill-rule="nonzero" x="696.02" y="413" width="44.54" height="43.12"></rect>
                <rect id="Rectangle" fill="url(#linearGradient-2)" fill-rule="nonzero" x="700.23" y="277.23" width="46.13" height="44.66"></rect>
                <rect id="Rectangle" fill="#FF69B4" fill-rule="nonzero" x="701.02" y="278" width="44.54" height="43.12"></rect>
                <rect id="Rectangle" fill="#3F3D56" fill-rule="nonzero" opacity="0.1" x="148.27" y="285.87" width="53" height="26"></rect>
                <rect id="Rectangle" fill="#3F3D56" fill-rule="nonzero" opacity="0.1" x="148.27" y="358.87" width="53" height="26"></rect>
                <rect id="Rectangle" fill="#3F3D56" fill-rule="nonzero" opacity="0.1" x="148.27" y="431.87" width="53" height="26"></rect>
                <rect id="Rectangle" fill="#3F3D56" fill-rule="nonzero" opacity="0.1" x="148.27" y="504.87" width="53" height="26"></rect>
                <rect id="Rectangle" fill="#3F3D56" fill-rule="nonzero" opacity="0.1" x="148.27" y="577.87" width="53" height="26"></rect>
                <path d="M309.27,351.08 C310.75,350.14 310.16,347.62 308.64,346.75 C307.12,345.88 305.23,346.17 303.52,346.51 C303.669354,345.615698 303.225054,344.727098 302.42,344.31 L302.42,343.93 C303.42,342.93 303.04,340.93 301.82,340.05 C300.6,339.17 298.7,339.13 297.06,339.21 C297.296386,337.193602 296.552812,335.185954 295.06,333.81 C294.773379,333.500817 294.380422,333.311483 293.96,333.28 C292.96,333.28 292.68,334.56 292.61,335.51 C292.419741,338.004908 292.008121,340.47797 291.38,342.9 L260.3,394.9 C256.84,399.9 267.59,384.9 264.13,389.95 C262.377477,392.698908 260.324879,395.244533 258.01,397.54 C255.931559,399.395066 253.606116,400.953213 251.1,402.17 C249.426374,402.218776 247.778336,401.750901 246.38,400.83 C244.624212,399.600161 243.089207,398.082062 241.84,396.34 C239.130834,392.896182 236.680782,389.256201 234.51,385.45 C233.757386,384.24529 233.191001,382.933839 232.83,381.56 C232.37,379.4 232.83,377.06 231.98,375.03 C231.618226,374.273113 231.168453,373.561532 230.64,372.91 L228.49,370.06 L228.49,369.93 C228.25,365.71 224.82,362.45 221.62,359.67 C218.9,357.29 215.95,354.81 212.36,354.35 C210.44,354.1 208.47,354.47 206.55,354.23 C204.98,354.03 203.49,353.44 201.93,353.18 C200.428556,352.974982 198.908402,352.94478 197.4,353.09 L196.76,352.5 C200.078928,351.098126 202.898225,348.728384 204.85,345.7 C206.33,343.31 207.14,340.55 208.51,338.09 C210.18,335.09 212.66,332.61 214.51,329.73 C218.98,322.9 219.8,314.11 217.99,306.15 C216.18,298.19 211.94,290.96 206.99,284.51 C197.39,272.09 181.29,267.51 166.13,269.91 C165.13,270.07 164.13,270.26 163.13,270.48 C160.579533,271.016605 158.090111,271.810673 155.7,272.85 C152.465987,274.174039 149.659774,276.364338 147.59,279.18 C147.032066,280.003076 146.559617,280.88096 146.18,281.8 C145.900734,282.502373 145.673456,283.224317 145.5,283.96 C145.035045,286.181594 144.910289,288.460932 145.13,290.72 C145.19,291.49 145.27,292.26 145.36,293.03 L145.51,294.19 C145.61,294.96 145.72,295.73 145.83,296.5 C145.99,297.66 146.14,298.82 146.25,299.96 C146.338133,300.766981 146.381532,301.578222 146.38,302.39 C146.38,302.6 146.38,302.8 146.38,303 C146.344688,303.603643 146.254312,304.202799 146.11,304.79 C146.031166,305.112966 145.930945,305.430332 145.81,305.74 C145.44977,306.658719 144.976097,307.528799 144.4,308.33 C143.621049,309.417422 142.77613,310.456039 141.87,311.44 L141,312.44 C140.71,312.77 140.43,313.11 140.14,313.44 C138.996689,314.773204 137.950661,316.186845 137.01,317.67 C136.551031,318.416361 136.140195,319.191272 135.78,319.99 C135.506333,320.595237 135.26924,321.216353 135.07,321.85 C134.815475,322.699502 134.634803,323.569402 134.53,324.45 C134.53,324.67 134.53,324.89 134.47,325.11 C134.47,325.54 134.47,325.98 134.47,326.42 C134.49191,326.855643 134.538652,327.289681 134.61,327.72 C134.680372,328.146507 134.780618,328.567543 134.91,328.98 C135.035299,329.398066 135.192425,329.805925 135.38,330.2 C135.38,330.31 135.48,330.42 135.54,330.53 L135.7,330.86 C135.81,331.08 135.92,331.29 136.02,331.51 C136.170934,331.828403 136.281781,332.164302 136.35,332.51 C136.35,332.62 136.35,332.74 136.35,332.86 C136.35,332.98 136.35,333.12 136.35,333.24 C136.190849,334.244439 135.663203,335.15356 134.87,335.79 C134.67,335.98 134.47,336.15 134.26,336.33 L133.94,336.59 L133.29,337.1 L132.67,337.6 C132.125229,338.056482 131.620092,338.558275 131.16,339.1 C125.529212,338.798768 119.885266,339.351699 114.42,340.74 C112.478309,341.372259 110.460005,341.738917 108.42,341.83 C107.42596,341.921884 106.451333,341.51329 105.82,340.74 C105.47352,339.990055 105.37881,339.148183 105.55,338.34 C105.819678,334.991902 105.270546,331.62847 103.95,328.54 C103.630848,327.636143 103.078954,326.832448 102.35,326.21 C101.587966,325.590251 100.51288,325.533668 99.69,326.07 C101.381397,331.540996 101.137744,337.427499 99,342.74 C97.9020875,345.244251 96.6150317,347.661241 95.15,349.97 C92.87,353.86 91.59,358.31 89.56,362.34 C91.83,370.03 91.32,378.24 92.56,386.18 C93.67,393.57 96.25,400.65 98.84,407.66 C100.84,412.95 102.92,418.47 107.16,422.19 C108.526538,423.568526 110.369848,424.370276 112.31,424.43 C113.746143,424.252279 115.118256,423.730876 116.31,422.91 C117.546767,422.236121 118.687037,421.398577 119.7,420.42 C120.07478,420.009402 120.409624,419.56406 120.7,419.09 C120.824194,419.759815 121.07904,420.398628 121.45,420.97 C123.89,415.71 126.57,410.57 129.45,405.54 C130.307851,405.083215 131.112715,404.533224 131.85,403.9 C131.85,404.08 131.94,404.26 131.99,404.44 C131.86,404.92 131.74,405.44 131.61,405.89 C131.48,406.34 131.33,406.82 131.19,407.27 C131.05,407.72 130.98,407.94 130.87,408.27 C130.76,408.6 130.6,409.07 130.45,409.47 C130.3,409.87 130.13,410.34 129.96,410.77 C129.79,411.2 129.73,411.39 129.6,411.69 C129.29,412.45 128.97,413.19 128.6,413.93 C128.878605,414.065571 129.165903,414.182495 129.46,414.28 L129.65,414.34 C129.909226,414.421951 130.173006,414.488731 130.44,414.54 L130.73,414.54 C130.925471,414.570388 131.122413,414.590416 131.32,414.6 L131.54,414.6 L132.19,414.6 C132.905626,414.568756 133.6145,414.447811 134.3,414.24 L134.69,415.84 C135.687532,419.435203 136.330601,423.119451 136.61,426.84 C136.8,431.04 136.07,435.31 136.88,439.44 C137.29,441.59 138.12,443.65 138.42,445.81 C138.61339,447.844316 138.576489,449.893963 138.31,451.92 C137.843333,456.826667 137.376667,461.736667 136.91,466.65 C136.867109,468.453548 136.437423,470.226857 135.65,471.85 C134.96,473.05 133.84,474.42 134.54,475.61 C135.692521,475.303229 136.865516,475.079323 138.05,474.94 C137.62,476.5 137.23,478.07 136.86,479.65 C136.499164,480.824365 136.40353,482.06419 136.58,483.28 C136.83,484.42 137.58,485.45 137.66,486.61 C137.84,488.41 136.59,490 135.9,491.67 C134.14,495.93 136.01,500.73 137.9,504.95 L143.42,517.47 L147.95,527.74 C149.29,530.74 150.64,533.84 151.95,536.92 C157.853541,550.944051 162.674306,565.399659 166.37,580.16 C166.493434,580.830035 166.748337,581.468993 167.12,582.04 C167.88,583.04 169.27,583.36 170.4,583.98 C173.79,585.85 174.18,591.43 171.08,593.75 C171.71,601.27 166.08,608.54 163.18,615.5 C156.5,631.5 157.71,649.56 155.42,666.76 L158.01,665.25 C158.317116,665.388137 158.600583,665.573741 158.85,665.8 C158.79,666.12 158.72,666.453333 158.64,666.8 C158.289629,668.262453 157.730563,669.666856 156.98,670.97 C155.47,673.56 153.16,675.87 152.81,678.85 C152.6,680.65 153.15,682.45 153.14,684.26 C153.14,684.43 153.14,684.59 153.14,684.76 C152.91,684.54 152.56,684.56 152.04,684.97 C151.225973,685.824894 150.662165,686.886789 150.41,688.04 C149.96,689.33 149.6,690.64 149.24,691.95 L147.9,696.57 C147.215674,699.354653 146.309444,702.080031 145.19,704.72 C144.232615,706.487494 143.429633,708.334353 142.79,710.24 C142.433515,711.793237 142.295518,713.388621 142.38,714.98 C142.353733,716.505165 142.573209,718.02461 143.03,719.48 C144.243603,722.378509 146.620976,724.632476 149.58,725.69 C152.509107,726.719447 155.577229,727.299355 158.68,727.41 C159.475411,727.51208 160.281927,727.488459 161.07,727.34 C161.913935,727.097109 162.699796,726.685468 163.38,726.13 C167.6,723.03 169.78,717.33 170.16,712.13 C170.053256,711.056752 169.862674,709.993506 169.59,708.95 C169.85,703.26 169.02,697.54 169.45,691.87 C169.54,692.52 169.63,693.16 169.73,693.8 L170.73,700.17 C170.671392,699.943585 170.554116,699.736627 170.39,699.57 C169.649815,701.928932 169.519084,704.436895 170.01,706.86 C170.508595,709.271866 171.211119,711.637031 172.11,713.93 L173.47,717.73 C173.797728,718.876265 174.348224,719.946674 175.09,720.88 C176.28,722.19 178.09,722.68 179.83,723.1 C183.570123,724.192632 187.42073,724.86347 191.31,725.1 C191.830045,725.160839 192.356342,725.063247 192.82,724.82 C193.057969,724.643906 193.285052,724.453557 193.5,724.25 C193.845562,724.002298 194.213885,723.788002 194.6,723.61 C196.270968,722.730642 197.533593,721.234862 198.12,719.44 C198.689176,717.633519 198.452313,715.669381 197.47,714.05 C197.015331,713.374694 196.496234,712.745079 195.92,712.17 L189.08,704.92 C188.034233,703.678032 186.919122,702.496148 185.74,701.38 C185.454321,701.08725 185.043483,700.952794 184.64,701.02 C182.78,696.38 183.02,690.96 183.34,685.87 C183.44,684.35 184.27,681.2 184.6,678.61 C185.91929,678.164466 187.148539,677.487194 188.23,676.61 C189.27239,675.848615 190.012544,674.743696 190.32,673.49 C193.77,655.87 199.32,638.79 204.56,621.62 C205.08,619.93 205.56,618.23 206.09,616.54 C206.31,615.82 206.51,615.09 206.72,614.36 C206.93,613.63 207.07,613.18 207.24,612.59 C207.52,611.59 207.8,610.59 208.07,609.59 C208.15,609.32 208.22,609.05 208.3,608.78 C208.295453,608.726764 208.295453,608.673236 208.3,608.62 C208.63,607.39 208.95,606.16 209.3,604.93 C209.42,604.45 209.55,603.99 209.67,603.51 C210.06,601.95 210.45,600.37 210.82,598.8 C210.88096,598.583276 210.927725,598.362809 210.96,598.14 C211.095093,597.585193 211.056699,597.002294 210.85,596.47 L210.85,596.47 L210.85,596.47 C210.750349,596.263932 210.618722,596.074929 210.46,595.91 C210.35,595.78 210.23,595.65 210.11,595.53 C209.99,595.41 209.85,595.25 209.73,595.1 C209.414274,594.712625 209.176563,594.267767 209.03,593.79 C209.03,593.31 209.03,592.79 209.03,592.35 C209.03,591.91 208.97,591.35 208.94,590.83 C209.047094,590.154399 209.197402,589.486362 209.39,588.83 C209.51,588.44 209.64,588.05 209.76,587.66 C209.88,587.27 210.06,586.66 210.22,586.21 C210.818323,585.527517 211.142527,584.647533 211.13,583.74 C211.75,582.193333 212.433333,580.676667 213.18,579.19 C214.100973,577.683067 214.722344,576.012496 215.01,574.27 C215.005701,572.69564 214.810953,571.127581 214.43,569.6 C213.43,563.1 216.43,556.77 218.64,550.6 C220.279539,546.048758 221.524136,541.36479 222.36,536.6 C223.01,532.95 223.46,529.12 225.41,525.96 C226.053457,525.072627 226.603069,524.12086 227.05,523.12 C227.352721,522.073827 227.500953,520.989035 227.49,519.9 C227.7361,515.484387 228.804401,511.153528 230.64,507.13 C231.046725,506.350031 231.323685,505.509019 231.46,504.64 C231.465305,504.583457 231.465305,504.526543 231.46,504.47 L231.46,504.23 L231.97,504.15 C232.84,498.64 233.72,492.5 233.12,486.95 C232.339632,480.521312 229.208713,474.608541 224.33,470.35 L224.43,470.35 C226.15,469.48 226.92,467.35 226.95,465.47 C226.958289,462.584541 225.656079,459.851372 223.41,458.04 C222.914103,457.731652 222.501927,457.305737 222.21,456.8 C222.044144,456.280499 221.992967,455.731199 222.06,455.19 C222.076553,451.850569 220.073516,448.832186 216.99,447.55 C216.677021,447.463174 216.391354,447.297969 216.16,447.07 C215.903137,446.629206 215.824435,446.106913 215.94,445.61 C216.129,442.300921 214.469677,439.159373 211.63,437.45 C212.03,435.31 212.43,433.07 211.82,430.97 C211.21,428.87 209.24,426.97 207.08,427.27 C208.84,422.47 206.34,417.13 207,412.06 C207.29,409.88 208.16,407.79 208.27,405.6 C208.37,403.6 207.88,401.46 208.85,399.72 C209.82,397.98 212.11,396.62 211.52,394.72 C211.27,393.91 210.52,393.35 210.17,392.56 C209.82,391.77 211.22,390.56 211.94,391 C212.28,390.74 212.62,390.47 212.94,390.19 C213.044378,391.206769 213.245284,392.211298 213.54,393.19 C214.03,394.83 214.78,396.37 215.29,398 C216.07,400.49 216.29,403.19 217.55,405.47 C219.55,409.12 223.78,410.93 226.64,413.96 C228.32,415.73 229.53,417.96 231.26,419.64 C232.573915,420.867086 234.015469,421.949927 235.56,422.87 L244.8,428.87 C245.758416,429.565883 246.826488,430.096539 247.96,430.44 C249.413333,430.716942 250.916608,430.384317 252.11744,429.520097 C253.318271,428.655876 254.111072,427.336049 254.31,425.87 C253.460392,425.569436 252.68597,425.088407 252.04,424.46 C252.17,424.46 252.3,424.46 252.43,424.4 C254.624958,423.826016 256.655544,422.747374 258.36,421.25 C264.94,416.01 269.67,408.86 274.29,401.83 C279.13,394.46 302.42,374.96 302.42,374.96 L302.42,367.06 C305.383645,365.341994 308.01253,363.102698 310.18,360.45 C311.348554,359.035092 312.032082,357.282456 312.13,355.45 C312.221582,353.528238 311.067773,351.76525 309.27,351.08 Z M115.57,370.03 C115.123333,372.903333 114.573333,375.756667 113.92,378.59 C113.200324,381.867173 112.278563,385.096677 111.16,388.26 L110.8,389.26 C110.47,388.64 110.14,388.03 109.8,387.4 C109.05,385.83 108.44,384.2 107.8,382.57 L103.94,372.17 C103.44,370.82 102.94,369.26 103.69,368.02 C104.239756,367.26033 105.006785,366.685058 105.89,366.37 C108.603979,365.125399 111.438939,364.163657 114.35,363.5 C115.270415,363.315324 116.178756,363.07488 117.07,362.78 C116.352383,365.146486 115.850336,367.573043 115.57,370.03 Z M119.84,357.03 C119.578253,356.560696 119.578253,355.989304 119.84,355.52 C120.128939,355.228919 120.467603,354.991854 120.84,354.82 L121.13,354.62 C120.73,355.45 120.28,356.25 119.84,357.06 L119.84,357.03 Z M127.84,345.72 C126.704802,346.661806 125.672394,347.721031 124.76,348.88 C123.780922,350.173269 122.89853,351.536965 122.12,352.96 C122.360691,351.831677 121.933018,350.665296 121.02,349.96 C120.665857,349.765558 120.331015,349.537866 120.02,349.28 C119.324121,348.352162 119.512162,347.035879 120.44,346.34 C121.360204,345.708869 122.435895,345.342235 123.55,345.28 L128.16,344.6 C128.02,344.99 127.93,345.37 127.83,345.75 L127.84,345.72 Z M171,680.37 C171.081289,678.987464 170.990595,677.600185 170.73,676.24 C171.3,676.24 171.87,676.24 172.43,676.24 C171.96,677.57 171.48,678.98 171,680.37 Z" id="Shape" fill="url(#linearGradient-3)" fill-rule="nonzero"></path>
                <path d="M166.3,272.91 C158.3,274.2 149.4,277.28 146.3,284.78 C143.99,290.45 145.78,296.83 146.37,302.92 C146.59376,304.527681 146.536236,306.162029 146.2,307.75 C145.54,310.32 143.72,312.4 141.96,314.39 C139.514998,316.916636 137.462226,319.795236 135.87,322.93 C134.43,326.13 133.97,329.93 135.46,333.13 C135.966851,333.952248 136.30666,334.866336 136.46,335.82 C136.56,337.9 134.38,339.22 132.78,340.55 C126.78,345.55 127.03,354.55 126.98,362.38 C126.887821,378.345739 123.343454,394.102651 116.59,408.57 C121.769816,411.193422 128.027875,410.375945 132.36,406.51 C131.528406,410.065023 130.328592,413.523703 128.78,416.83 C133.86,419.29 139.99,415.25 142.54,410.21 C145.09,405.17 145.39,399.31 147.2,393.96 C149.01,388.61 152.2,383.96 153.61,378.57 C154.06,376.79 154.34,374.89 155.43,373.41 C156.348405,372.339325 157.428019,371.418279 158.63,370.68 C163.904602,366.872646 167.858623,361.513216 169.94,355.35 C176.16,356.72 182.51,358.1 188.85,357.52 C195.19,356.94 201.67,354.07 205.02,348.65 C206.5,346.26 207.3,343.51 208.67,341.05 C210.35,338.05 212.82,335.57 214.67,332.7 C219.13,325.87 219.95,317.1 218.14,309.14 C216.33,301.18 212.14,293.98 207.14,287.53 C197.56,275.09 181.46,270.48 166.3,272.91 Z" id="Path" fill="#303D5C" fill-rule="nonzero"></path>
                <path d="M115.81,372.93 C115.36,375.79 114.81,378.65 114.17,381.48 C113.444323,384.752377 112.522662,387.97819 111.41,391.14 C110.755732,392.52477 110.45673,394.050713 110.54,395.58 C110.737303,396.516485 111.099612,397.410409 111.61,398.22 C115.26,404.71 120.2,410.98 120.61,418.42 C120.71,420.27 120.61,422.28 121.61,423.81 C124.43,417.736667 127.543333,411.816667 130.95,406.05 C134.51,400.05 138.47,393.91 139.49,386.97 C139.896774,383.712856 139.85303,380.415208 139.36,377.17 C138.89,373.52 138.07,369.78 135.85,366.86 C133.43,363.7 126.85,358.93 122.52,359.92 C117.49,361.07 116.45,368.86 115.81,372.93 Z" id="Path" fill="#254095" fill-rule="nonzero"></path>
                <path d="M244.7,407.91 C249.48,405.96 254.36,403.91 258.15,400.39 C260.464879,398.094533 262.517477,395.548908 264.27,392.8 L275.52,376.57 C278.18,372.71 280.93,368.66 281.52,364.01 C288.108403,357.054282 292.077702,348.027044 292.75,338.47 C292.83,337.52 293.15,336.27 294.1,336.24 C294.520422,336.271483 294.913379,336.460817 295.2,336.77 C296.691166,338.142843 297.434731,340.146749 297.2,342.16 C298.84,342.08 300.62,342.04 301.96,343 C303.3,343.96 303.66,346.34 302.22,347.13 C303.217598,347.432903 303.831619,348.433371 303.65,349.46 C305.37,349.12 307.26,348.84 308.78,349.7 C310.3,350.56 310.88,353.08 309.41,354.02 C311.16606,354.699088 312.306524,356.407782 312.26,358.29 C312.168447,360.123824 311.484164,361.878394 310.31,363.29 C305.99,369.09 298.37,371.43 293.36,376.65 C291.713769,378.474996 290.23764,380.446517 288.95,382.54 L274.44,404.62 C269.83,411.62 265.1,418.79 258.52,424.01 C256.815544,425.507374 254.784958,426.586016 252.59,427.16 C250.353539,427.72407 247.985398,427.066464 246.36,425.43 C244.91,423.78 244.69,421.43 244.55,419.22 C244.31,415.5 244.95,411.66 244.7,407.91 Z" id="Path" fill="#EE8E9E" fill-rule="nonzero"></path>
                <path d="M196.11,714.57 C196.688607,715.142917 197.207906,715.772777 197.66,716.45 C198.64188,718.065855 198.878796,720.026795 198.31,721.83 C197.730352,723.623054 196.469938,725.116878 194.8,725.99 C194.409554,726.165726 194.037696,726.38013 193.69,726.63 C193.47735,726.839188 193.250112,727.033009 193.01,727.21 C192.543117,727.443785 192.019663,727.54085 191.5,727.49 C187.615171,727.24362 183.768956,726.572964 180.03,725.49 C178.31,725.06 176.49,724.57 175.29,723.27 C174.548224,722.336674 173.997728,721.266265 173.67,720.12 L172.31,716.33 C171.417043,714.039283 170.717923,711.677661 170.22,709.27 C169.723749,706.850636 169.854561,704.34455 170.6,701.99 C170.937219,702.412132 171.114323,702.939901 171.1,703.48 C171.500281,706.03143 172.501104,708.451227 174.02,710.54 C174.337403,711.063373 174.720519,711.543948 175.16,711.97 C176.154191,712.732996 177.328962,713.225641 178.57,713.4 C180.958584,713.919182 183.387675,714.230346 185.83,714.33 C186.168112,714.37596 186.512361,714.33465 186.83,714.21 C187.222173,713.992417 187.518379,713.635542 187.66,713.21 C188.009744,712.24058 188.009744,711.17942 187.66,710.21 C187,708.36 185.19,707.15 184.33,705.39 C183.68,704.09 184.57,702.66 185.89,703.76 C187.074939,704.873467 188.193528,706.055498 189.24,707.3 L196.11,714.57 Z" id="Path" fill="#303D5C" fill-rule="nonzero"></path>
                <path d="M183.54,688.3 C183.15,694.41 182.88,701.01 186.22,706.14 C187.43,707.98 189.04,709.53 190.41,711.26 C191.195655,712.125059 191.716298,713.197585 191.91,714.35 C192.1,716.59 190,718.51 187.79,718.93 C185.58,719.35 183.32,718.65 181.18,717.93 C179.155055,717.426164 177.248912,716.529156 175.57,715.29 C172.66,712.83 171.89,708.73 171.31,704.97 L169.95,696.23 C168.919803,691.812031 169.355044,687.178818 171.19,683.03 L173.43,676.47 C173.576603,675.83213 173.927785,675.259703 174.43,674.84 C174.951086,674.553138 175.550444,674.440978 176.14,674.52 C178.28,674.63 183.69,675.41 184.73,677.68 C185.61,679.65 183.69,685.95 183.54,688.3 Z" id="Path" fill="#EE8E9E" fill-rule="nonzero"></path>
                <path d="M183.54,688.3 C183.15,694.41 182.88,701.01 186.22,706.14 C187.43,707.98 189.04,709.53 190.41,711.26 C191.195655,712.125059 191.716298,713.197585 191.91,714.35 C192.1,716.59 190,718.51 187.79,718.93 C185.58,719.35 183.32,718.65 181.18,717.93 C179.155055,717.426164 177.248912,716.529156 175.57,715.29 C172.66,712.83 171.89,708.73 171.31,704.97 L169.95,696.23 C168.919803,691.812031 169.355044,687.178818 171.19,683.03 L173.43,676.47 C173.576603,675.83213 173.927785,675.259703 174.43,674.84 C174.951086,674.553138 175.550444,674.440978 176.14,674.52 C178.28,674.63 183.69,675.41 184.73,677.68 C185.61,679.65 183.69,685.95 183.54,688.3 Z" id="Path" fill="#000000" fill-rule="nonzero" opacity="0.05"></path>
                <path d="M231.61,507.19 C231.614346,507.246583 231.614346,507.303417 231.61,507.36 C231.482899,508.224876 231.205377,509.060827 230.79,509.83 C228.954344,513.843475 227.882717,518.163896 227.63,522.57 C227.640953,523.659035 227.492721,524.743827 227.19,525.79 C226.741444,526.78688 226.191907,527.735167 225.55,528.62 C223.6,531.79 223.15,535.62 222.5,539.25 C221.662089,543.994755 220.417499,548.658621 218.78,553.19 C216.55,559.37 213.55,565.69 214.57,572.19 C214.950953,573.717581 215.145701,575.28564 215.15,576.86 C214.865035,578.600081 214.243431,580.267881 213.32,581.77 C212.573333,583.25 211.906667,584.766667 211.32,586.32 C210.67,587.98 210.09,589.68 209.58,591.4 C208.98,593.49 208.58,595.97 209.96,597.65 C210.388776,598.061063 210.768017,598.520852 211.09,599.02 C211.349832,599.785211 211.349832,600.614789 211.09,601.38 C210.296667,604.713333 209.45,608.046667 208.55,611.38 C207.85,613.98 207.11,616.56 206.35,619.14 C200.73,638.01 194.35,656.69 190.59,676.02 C190.05,678.8 186.48,680.79 183.72,681.4 C180.900712,682.002562 177.963394,681.218038 175.82,679.29 C175.63,679.12 175.45,678.93 175.28,678.75 C172.38,675.63 171.95,670.84 172.17,666.52 C173.17,646.63 183.17,628.42 187.93,609.09 C189.651573,602.100542 190.689786,594.960312 191.03,587.77 C192.14,563.77 192.59,538.39 185.8,515.32 C184.39,510.52 182.72,505.1 185.26,500.8 C186.86,498.08 189.83,496.47 192.77,495.31 C204.882615,490.58964 218.386478,490.950127 230.23,496.31 C230.239764,496.790779 230.219726,497.2717 230.17,497.75 C229.915404,499.98575 230.175361,502.250114 230.93,504.37 C231.318295,505.263518 231.548383,506.217709 231.61,507.19 Z" id="Path" fill="#303D5C" fill-rule="nonzero"></path>
                <path d="M149.39,694.45 L148.12,699.07 C147.443574,701.849199 146.540553,704.568297 145.42,707.2 C144.462615,708.967494 143.659633,710.814353 143.02,712.72 C142.663515,714.273237 142.525518,715.868621 142.61,717.46 C142.583762,718.981885 142.80325,720.498035 143.26,721.95 C144.470519,724.844818 146.844737,727.095606 149.8,728.15 C152.72855,729.180098 155.797284,729.75675 158.9,729.86 C159.694612,729.970389 160.501928,729.950122 161.29,729.8 C162.133935,729.557109 162.919796,729.145468 163.6,728.59 C167.82,725.5 169.99,719.8 170.37,714.59 C170.26097,713.374863 170.022964,712.174775 169.66,711.01 C169.33,710.57 166.14,712.37 167.51,713.88 C169.51,716.1 163.62,714.95 160.62,714.76 C159.302242,714.646775 157.995088,714.432816 156.71,714.12 L151.85,713.12 C150.26,712.78 148.43,712.23 147.85,710.71 C147.27,709.19 148.51,707.37 149.47,705.89 C152.01,701.96 152.67,697.15 153.26,692.51 C153.37,691.6 154.51,685.69 152.16,687.51 C151.353312,688.370162 150.790641,689.429917 150.53,690.58 C150.1,691.83 149.74,693.14 149.39,694.45 Z" id="Path" fill="#303D5C" fill-rule="nonzero"></path>
                <path d="M209.91,597.66 C208.53,595.98 208.91,593.5 209.54,591.41 C209.76,590.63 210.01,589.86 210.27,589.09 L191.19,582.63 C191.12,584.35 191.04,586.05 190.96,587.75 C190.627381,594.943691 189.592461,602.087651 187.87,609.08 C183.1,628.4 173.09,646.61 172.11,666.49 C171.88,671.07 172.37,676.19 175.76,679.27 C177.899276,681.19843 180.832286,681.986514 183.65,681.39 C186.42,680.78 189.98,678.78 190.53,676 C194.31,656.67 200.66,638 206.29,619.11 C208.043333,613.25 209.623333,607.343333 211.03,601.39 C211.289816,600.628211 211.289816,599.801789 211.03,599.04 C210.716817,598.534281 210.340451,598.070544 209.91,597.66 L209.91,597.66 Z" id="Path" fill="#000000" fill-rule="nonzero" opacity="0.05"></path>
                <path d="M157.19,673.49 C155.68,676.09 153.38,678.39 153.03,681.37 C152.82,683.16 153.37,684.96 153.36,686.77 C153.286151,688.267714 153.020655,689.749787 152.57,691.18 C150.71,697.893333 148.57,704.513333 146.15,711.04 C145.752188,711.88167 145.576608,712.811213 145.64,713.74 C145.88,715.27 147.37,716.28 148.79,716.89 C153.34,718.83 158.46,718.7 163.4,718.5 C164.83665,718.558492 166.260813,718.21198 167.51,717.5 C169.28,716.29 169.72,713.9 169.83,711.76 C170.17,705.56 169.12,699.33 169.83,693.17 C170.08,690.92 170.55,688.71 170.9,686.48 C171.39,683.38 171.64,680.12 170.62,677.15 C169.775478,675.018396 168.593731,673.036437 167.12,671.28 C165.819718,669.377991 164.174689,667.736353 162.27,666.44 C161.69,666.1 160.04,665.04 159.45,665.7 C159.15,666.04 159.28,666.95 159.24,667.37 C159.162417,668.015818 159.048907,668.656812 158.9,669.29 C158.53452,670.764811 157.958612,672.179321 157.19,673.49 L157.19,673.49 Z" id="Path" fill="#EE8E9E" fill-rule="nonzero"></path>
                <path d="M193.85,514.93 C192.96,516.14 193.14,517.82 193.5,519.28 C194.13,521.92 195.19,524.45 196.05,527.02 C197.457457,531.634572 198.553259,536.3385 199.33,541.1 C200.13,545.4 201.83,550.19 201.14,554.52 C206.355846,564.447287 209.784761,575.214689 211.27,586.33 C211.66,589.18 205.33,592.86 205.45,595.73 C205.69,601.45 210.25,601.91 206.89,606.47 C206.72,606.7 208.15,611.81 207.96,612.03 C206.59,613.68 204.85,615.03 203.38,616.54 C201.484057,618.688042 199.861688,621.062814 198.55,623.61 C189.85,639.33 177.27,657.15 181.15,674.7 C181.311951,675.99421 180.649128,677.251978 179.49,677.85 C178.341473,678.40252 177.084497,678.692854 175.81,678.7 L175.21,678.7 C172.31,675.58 171.88,670.79 172.1,666.47 C173.1,646.58 183.1,628.37 187.86,609.04 C189.581573,602.050542 190.619786,594.910312 190.96,587.72 C192.07,563.72 192.52,538.34 185.73,515.27 C184.32,510.47 182.65,505.05 185.19,500.75 C186.79,498.03 189.76,496.42 192.7,495.26 C204.812615,490.53964 218.316478,490.900127 230.16,496.26 C230.169764,496.740779 230.149726,497.2217 230.1,497.7 C229.845404,499.93575 230.105361,502.200114 230.86,504.32 C231.279221,505.227781 231.533197,506.203048 231.61,507.2 C231.61,507.2 231.95,503.33 231.94,503.39 C224.19,504.5 216.01,509.57 208.19,510.72 C204.135722,511.15264 200.141557,512.031289 196.28,513.34 C195.339124,513.6363 194.49826,514.186494 193.85,514.93 L193.85,514.93 Z" id="Path" fill="#000000" fill-rule="nonzero" opacity="0.05"></path>
                <path d="M139.86,472.35 C138.813333,475.683333 137.89,479.05 137.09,482.45 C136.734007,483.62528 136.638456,484.864029 136.81,486.08 C137.06,487.22 137.81,488.24 137.89,489.4 C138.07,491.2 136.82,492.79 136.13,494.46 C134.37,498.71 136.25,503.51 138.13,507.72 L143.65,520.22 L148.19,530.48 C149.54,533.53 150.88,536.58 152.19,539.65 C158.090182,553.657195 162.907636,568.096184 166.6,582.84 C166.724314,583.508182 166.97551,584.146355 167.34,584.72 C168.11,585.72 169.5,586.04 170.62,586.66 C174.02,588.52 174.41,594.1 171.3,596.42 C171.94,603.93 166.3,611.18 163.41,618.14 C156.73,634.14 157.94,652.14 155.65,669.34 L158.24,667.82 C160.73,668.96 160.64,672.49 161.98,674.88 C163.98,678.47 168.9,678.97 172.98,678.7 C174.251432,678.694054 175.505414,678.403622 176.65,677.85 C177.811297,677.254169 178.474985,675.994761 178.31,674.7 C174.44,657.15 187.01,639.33 195.72,623.61 C197.028215,621.063137 198.647238,618.688346 200.54,616.54 C202.02,614.98 203.75,613.67 205.13,612.03 C208.97,607.42 209.46,600.92 209.2,594.92 C208.590167,580.811155 204.867974,567.011724 198.3,554.51 C199,550.19 197.3,545.4 196.5,541.1 C195.72033,536.339703 194.614391,531.638625 193.19,527.03 C192.33,524.44 191.28,521.92 190.64,519.28 C190.29,517.82 190.1,516.14 190.99,514.93 C191.647508,514.183081 192.49895,513.632759 193.45,513.34 C197.311557,512.031289 201.305722,511.15264 205.36,510.72 L232.19,506.87 C233.05,501.36 233.93,495.22 233.33,489.68 C232.012051,479.186348 224.565372,470.488721 214.4,467.57 C213.23,467.26 211.86,467.06 210.9,467.8 C187.224685,463.152225 162.748933,464.719859 139.86,472.35 Z" id="Path" fill="#303D5C" fill-rule="nonzero"></path>
                <path d="M164.19,327.44 C164.581082,330.059408 164.173339,332.735875 163.02,335.12 C162.240905,336.422055 161.223096,337.565394 160.02,338.49 C157.425734,340.575796 154.409629,342.073613 151.18,342.88 C149.28,343.36 147.18,343.68 145.89,345.19 C144.01,347.46 145.27,350.9 146.89,353.38 C149.67,357.7 153.53,361.61 158.48,362.96 C162.48,364.04 166.65,363.38 170.69,364.08 C173.62,364.59 176.38,365.8 179.27,366.49 C187.625085,368.401258 196.380067,365.959495 202.54,360 C198.24,356.7 193.78,353.19 191.54,348.25 C189.963426,344.714513 189.66644,340.740551 190.7,337.01 C191.7,333.35 194.05,329.79 193.33,326.01 C192.61,322.23 188.93,319.7 185.33,318.44 C182.02483,317.436151 178.628179,316.76285 175.19,316.43 C173.3,316.17 161.3,313.52 160.55,314.83 C160.13,315.57 162.62,319.95 162.93,320.92 C163.661015,323.021524 164.085377,325.217425 164.19,327.44 L164.19,327.44 Z" id="Path" fill="#EE8E9E" fill-rule="nonzero"></path>
                <circle id="Oval" fill="#EE8E9E" fill-rule="nonzero" cx="179.32" cy="311.86" r="24.34"></circle>
                <path d="M166.46,352.09 L182.97,354.87 C187.028043,355.695601 191.158825,356.111025 195.3,356.11 C197.561088,355.885091 199.838912,355.885091 202.1,356.11 C203.66,356.37 205.15,356.96 206.71,357.16 C208.64,357.4 210.6,357.03 212.53,357.28 C216.11,357.74 219.06,360.22 221.78,362.59 C224.97,365.37 228.4,368.59 228.65,372.84 C228.69486,373.32245 228.626373,373.808709 228.45,374.26 C228.136622,374.770002 227.717118,375.20656 227.22,375.54 C224.22,378.03 222.49,381.74 220.33,385.02 C218.106082,388.404104 215.334962,391.394886 212.13,393.87 C211.41,393.41 210.04,394.62 210.35,395.42 C210.66,396.22 211.45,396.77 211.71,397.58 C212.3,399.45 209.99,400.83 209.03,402.58 C208.07,404.33 208.56,406.46 208.46,408.45 C208.34,410.64 207.46,412.73 207.19,414.9 C206.52,419.97 209.03,425.31 207.26,430.1 C209.43,429.83 211.39,431.7 212,433.79 C212.61,435.88 212.22,438.13 211.81,440.27 C214.650294,441.970177 216.313901,445.104845 216.13,448.41 C215.957834,448.797706 215.970746,449.242566 216.165111,449.619634 C216.359475,449.996701 216.714327,450.265304 217.13,450.35 C220.208334,451.632988 222.209775,454.645018 222.2,457.98 C222.133093,458.524506 222.184254,459.077036 222.35,459.6 C222.641391,460.100179 223.049725,460.522238 223.54,460.83 C225.78686,462.636393 227.089631,465.367059 227.08,468.25 C227.08,470.18 226.28,472.25 224.57,473.12 C221.07,474.9 217.32,475.59 213.48,476.42 C209.941709,477.256064 206.359456,477.893725 202.75,478.33 C199.424036,478.602062 196.086429,478.705528 192.75,478.64 L170.67,478.55 C164.46,478.55 158.25,478.55 152.06,478.08 C146.28,477.69 140.37,476.97 134.77,478.49 C134.07,477.3 135.19,475.93 135.88,474.74 C136.670991,473.118141 137.100869,471.344041 137.14,469.54 L138.54,454.83 C138.806416,452.807308 138.843317,450.760982 138.65,448.73 C138.35,446.56 137.53,444.51 137.11,442.36 C136.31,438.24 137.04,433.98 136.85,429.78 C136.564426,426.059482 135.918056,422.37551 134.92,418.78 L130.54,400.78 C129.84,397.89 129.47,394.53 128.39,391.78 C125.023333,383.113333 121.493333,374.54 117.8,366.06 C117.529488,365.307393 117.602591,364.474018 118,363.78 L121.65,357.24 C122.626526,355.381186 123.743083,353.599376 124.99,351.91 C128.072679,348.011526 132.438118,345.332734 137.31,344.35 C142.188527,343.396037 147.246664,344.144344 151.64,346.47 C153.34,347.38 154.92,348.47 156.64,349.37 C159.59,350.77 163.19,352.31 166.46,352.09 Z" id="Path" fill="#254095" fill-rule="nonzero"></path>
                <path d="M225.04,368.12 L230.79,375.79 C231.318453,376.441532 231.768226,377.153113 232.13,377.91 C232.99,379.91 232.52,382.27 232.98,384.42 C233.338298,385.796426 233.908442,387.108769 234.67,388.31 C236.831644,392.110893 239.275156,395.744405 241.98,399.18 C243.229682,400.925048 244.768518,402.443591 246.53,403.67 C248.31528,404.903946 250.548471,405.301687 252.65,404.76 C251.78121,405.098474 251.068668,405.746887 250.65,406.58 C248.46,410.92 248.3,416.06 249.23,420.82 C249.491659,422.453717 250.032914,424.03012 250.83,425.48 C251.628454,426.942935 252.928068,428.068557 254.49,428.65 C254.291344,430.115529 253.498154,431.434653 252.296875,432.297304 C251.095595,433.159955 249.592175,433.49005 248.14,433.21 C247.007921,432.870712 245.942459,432.339672 244.99,431.64 L235.75,425.64 C234.20769,424.716618 232.766474,423.63403 231.45,422.41 C229.72,420.69 228.52,418.51 226.84,416.74 C223.98,413.74 219.78,411.9 217.76,408.26 C216.49,405.98 216.27,403.26 215.49,400.8 C214.98,399.17 214.23,397.63 213.74,395.99 C212.22,390.93 213.32,385.38 215.63,380.63 C217.94,375.88 221.62,372.16 225.04,368.12 Z" id="Path" fill="#254095" fill-rule="nonzero"></path>
                <path d="M203.37,297.98 C201.117387,294.486221 198.210752,291.46074 194.81,289.07 C190.26,285.68 185.03,282.86 179.36,282.54 C176.989386,282.419059 174.620191,282.804266 172.41,283.67 C172.3,276.8 170.6,272.22 166.3,272.91 C158.3,274.2 149.4,277.28 146.3,284.78 C143.99,290.45 145.78,296.83 146.37,302.92 C146.59376,304.527681 146.536236,306.162029 146.2,307.75 C145.54,310.32 143.72,312.4 141.96,314.39 C139.514998,316.916636 137.462226,319.795236 135.87,322.93 C134.43,326.13 133.97,329.93 135.46,333.13 C135.966851,333.952248 136.30666,334.866336 136.46,335.82 C136.56,337.9 134.38,339.22 132.78,340.55 C126.78,345.55 127.03,354.55 126.98,362.38 C126.887821,378.345739 123.343454,394.102651 116.59,408.57 C121.769816,411.193422 128.027875,410.375945 132.36,406.51 C131.528406,410.065023 130.328592,413.523703 128.78,416.83 C133.86,419.29 139.99,415.25 142.54,410.21 C145.09,405.17 145.39,399.31 147.2,393.96 C149.01,388.61 152.2,383.96 153.61,378.57 C154.06,376.79 154.34,374.89 155.43,373.41 C156.348405,372.339325 157.428019,371.418279 158.63,370.68 C163.87,366.92 156.15,338.43 158.2,332.31 C161.2,332.98 166.85,318.31 170.04,303.31 C172.264681,304.076832 174.637792,304.313116 176.97,304 C177.780785,303.824216 178.612778,303.766953 179.44,303.83 C180.208091,303.987675 180.940402,304.286024 181.6,304.71 C183.960454,306.158434 186.427556,307.425415 188.98,308.5 C194.26,310.5 200.06,310.21 205.69,309.93 C206.45273,305.796622 205.623954,301.527712 203.37,297.98 Z" id="Path" fill="#303D5C" fill-rule="nonzero"></path>
                <g id="Group" opacity="0.1" transform="translate(116.000000, 272.000000)" fill="#000000" fill-rule="nonzero">
                    <path d="M3.45,136.57 C10.2240995,122.121854 13.7858776,106.377021 13.89,90.42 C13.94,82.62 13.68,73.56 19.69,68.59 C21.29,67.26 23.47,65.94 23.37,63.86 C23.2126841,62.9073881 22.8731525,61.9940481 22.37,61.17 C20.88,57.99 21.37,54.17 22.77,50.97 C24.3625611,47.8329298 26.4190075,44.9539049 28.87,42.43 C30.62,40.43 32.45,38.36 33.1,35.79 C33.4351832,34.2020679 33.4960625,32.5684754 33.28,30.96 C32.68,24.87 30.9,18.49 33.21,12.82 C36.21,5.56 44.6,2.45 52.4,1.09 C51.7217074,0.87374377 51.0009965,0.825696377 50.3,0.95 C42.3,2.24 33.4,5.32 30.3,12.82 C27.99,18.49 29.78,24.87 30.37,30.96 C30.5937601,32.5676813 30.5362364,34.2020288 30.2,35.79 C29.54,38.36 27.72,40.44 25.96,42.43 C23.5149981,44.9566365 21.462226,47.8352364 19.87,50.97 C18.43,54.17 17.97,57.97 19.46,61.17 C19.9668507,61.9922475 20.3066604,62.9063357 20.46,63.86 C20.56,65.94 18.38,67.26 16.78,68.59 C10.78,73.59 11.03,82.59 10.98,90.42 C10.8820607,106.372233 7.33783039,122.114893 0.59,136.57 C2.96918575,137.799562 5.65694879,138.303735 8.32,138.02 C6.61807977,137.856624 4.96410745,137.364168 3.45,136.57 L3.45,136.57 Z" id="Path"></path>
                    <path d="M15.64,144.79 C17.1783018,141.482533 18.3680495,138.023886 19.19,134.47 C18.1631633,135.409121 16.9957118,136.181799 15.73,136.76 C14.9497735,139.503995 13.9464289,142.179581 12.73,144.76 C14.1927023,145.455729 15.839424,145.665949 17.43,145.36 C16.8117247,145.246081 16.2103035,145.054567 15.64,144.79 L15.64,144.79 Z" id="Path"></path>
                    <path d="M59.27,11.67 C60.7573907,11.0910259 62.3198191,10.7273572 63.91,10.59 L63.36,10.59 C61.9824005,10.5188997 60.6013488,10.6230666 59.25,10.9 C59.26,11.12 59.27,11.39 59.27,11.67 Z" id="Path"></path>
                    <path d="M75.84,36.47 C73.2907839,35.3953764 70.827009,34.1283877 68.47,32.68 C67.8069415,32.2557095 67.0712972,31.9573837 66.3,31.8 C65.5439249,31.7318674 64.7818856,31.7790734 64.04,31.94 C64.581912,32.1375431 65.1041817,32.3852864 65.6,32.68 C67.9604539,34.1284344 70.4275557,35.3954149 72.98,36.47 C76.9546548,37.7810309 81.1424219,38.3240153 85.32,38.07 C82.0928942,38.0689555 78.8886894,37.5281615 75.84,36.47 Z" id="Path"></path>
                    <path d="M56.9,31.28 C56.9,31.5 56.81,31.72 56.76,31.94 C57.9583029,32.1182388 59.1736847,32.1518128 60.38,32.04 C59.1953285,31.9169821 58.028097,31.6620695 56.9,31.28 Z" id="Path"></path>
                </g>
                <path d="M122.24,416.16 C122.521542,418.767294 121.644099,421.366719 119.84,423.27 C118.826333,424.247743 117.686182,425.085199 116.45,425.76 C115.257315,426.577329 113.885269,427.095277 112.45,427.27 C110.515416,427.207394 108.677386,426.409961 107.31,425.04 C103.07,421.32 100.95,415.81 98.99,410.52 C96.4,403.52 93.82,396.45 92.71,389.06 C91.52,381.14 92.03,372.94 89.76,365.25 C91.76,361.25 93.06,356.79 95.35,352.91 C96.8032468,350.597864 98.0898402,348.185084 99.2,345.69 C101.326465,340.378107 101.566488,334.497524 99.88,329.03 C100.70288,328.493668 101.777966,328.550251 102.54,329.17 C103.266853,329.794336 103.818331,330.597426 104.14,331.5 C105.460488,334.584966 106.009651,337.945154 105.74,341.29 C105.568851,342.094887 105.663599,342.933581 106.01,343.68 C106.639215,344.457019 107.614179,344.869504 108.61,344.78 C110.648892,344.679148 112.665914,344.312723 114.61,343.69 C120.651045,342.148589 126.907854,341.631414 133.12,342.16 C134.371725,342.19697 135.601679,342.496793 136.73,343.04 C137.867641,343.60757 138.587504,344.76864 138.59,346.04 L123.79,348.21 C122.675895,348.272235 121.600204,348.638869 120.68,349.27 C119.758503,349.965235 119.570913,351.273896 120.26,352.2 C120.572697,352.455621 120.907326,352.683169 121.26,352.88 C122.029816,353.462804 122.47207,354.380506 122.448286,355.345759 C122.424501,356.311011 121.937586,357.205817 121.14,357.75 C120.767603,357.921854 120.428939,358.158919 120.14,358.45 C119.54,359.26 120.34,360.33 120.6,361.31 C120.829663,362.790168 120.121411,364.258398 118.82,365 C117.536433,365.704076 116.138073,366.17471 114.69,366.39 C111.783909,367.0598 108.952882,368.021345 106.24,369.26 C105.356785,369.575058 104.589756,370.15033 104.04,370.91 C103.31,372.15 103.79,373.71 104.29,375.06 L108.15,385.44 C108.75,387.07 109.36,388.7 110.15,390.27 C111.15,392.27 112.34,394.21 113.35,396.27 C114.36,398.33 115.02,400.12 115.76,402.08 C117.69,407.37 121.58,410.57 122.24,416.16 Z" id="Path" fill="#EE8E9E" fill-rule="nonzero"></path>
                <rect id="Rectangle" fill="url(#linearGradient-1)" fill-rule="nonzero" x="255.79" y="348.82" width="46.13" height="44.66"></rect>
                <rect id="Rectangle" fill="#7CFCFF" fill-rule="nonzero" x="256.59" y="349.59" width="44.54" height="43.12"></rect>
                <path d="M293.41,346.19 C292.587091,346.801937 291.992261,347.671304 291.72,348.66 C291.590707,349.078456 291.748761,349.532354 292.11,349.78 C292.331189,349.850472 292.568811,349.850472 292.79,349.78 C293.897201,349.583904 294.932476,349.097324 295.79,348.37 C295.449868,348.550648 295.147701,348.795098 294.9,349.09 C294.65083,349.394965 294.603851,349.817777 294.78,350.17 C295.028378,350.47108 295.390446,350.655735 295.78,350.68 C297.206685,350.939203 298.673619,350.870815 300.07,350.48 C299.419422,350.72236 298.816815,351.077831 298.29,351.53 C297.759922,351.996699 297.463398,352.673945 297.48,353.38 C297.482149,353.64539 297.598802,353.896923 297.8,354.07 C297.945286,354.161823 298.109307,354.219914 298.28,354.24 C299.603204,354.472433 300.956796,354.472433 302.28,354.24 C302.973121,354.212371 303.605255,353.836101 303.96,353.24 C304.097115,352.570398 303.956356,351.873822 303.57,351.31 C302.860599,349.783598 302.51814,348.112398 302.57,346.43 C302.613391,346.090146 302.565053,345.744872 302.43,345.43 C302.209567,345.124636 301.89796,344.897057 301.54,344.78 C300.13,344.16 298.21,343.3 296.64,343.78 C295.415282,344.363037 294.31765,345.182014 293.41,346.19 Z" id="Path" fill="#EE8E9E" fill-rule="nonzero"></path>
            </g>
        </g>
    </g>
</svg>