<?xml version="1.0" encoding="UTF-8"?>
<svg width="1145px" height="801px" viewBox="0 0 1145 801" version="1.1" xmlns="http://www.w3.org/2000/svg" xmlns:xlink="http://www.w3.org/1999/xlink">
    <!-- Generator: Sketch 53.2 (72643) - https://sketchapp.com -->
    <title>undraw_launching_125y</title>
    <desc>Created with Sketch.</desc>
    <g id="Page-1" stroke="none" stroke-width="1" fill="none" fill-rule="evenodd">
        <g id="IllustrationUndraw" transform="translate(-3000.000000, -1500.000000)" fill-rule="nonzero">
            <g id="undraw_launching_125y" transform="translate(3000.000000, 1500.000000)">
                <path d="M1143.92,572.47 C1142.12342,586.234253 1139.156,599.82017 1135.05,613.08 C1131.11093,625.829132 1126.06506,638.209576 1119.97,650.08 C1119.97,732.59 1053.87,799.47 972.32,799.47 L219.25,799.47 C170.562349,799.471742 123.809005,780.411454 89,746.37 C89.32,746.28 89.65,746.19 90,746.12 C159.46,727.7 232.75,721.34 293,677.59 C210.9,663.97 129.28,647.066667 48.14,626.88 C43.14,625.62 37.46,623.73 31.63,621.75 C31.36,617.59 31.21,613.4 31.21,609.18 C30.84,608.51 30.48,607.84 30.12,607.18 C28.5333333,604.226667 27.0066667,601.226667 25.54,598.18 C10.61,567.18 2.08,531.27 2.08,492.95 C2.08,432.52 23.31,377.95 57.33,339.46 C286.2,358.39 516.44,350.37 746,342.29 C678.88,328.956667 611.766667,315.603333 544.66,302.23 C435.213333,280.463333 325.766667,258.683333 216.32,236.89 C286.17,138.21 409.44,72.68 549.86,72.68 C648.68,72.68 739,105.13 808.2,158.75 C833.64,141.84 862.93,132.19 894.1,132.19 C959,132.19 1015.73,173.92 1046.54,236.19 C1046.54,236.19 1046.54,236.19 1046.54,236.19 C1062.12,267.69 1071.06,304.43 1071.06,343.67 C1071.06,350.67 1070.77,357.67 1070.2,364.56 C1070.2,364.97 1070.14,365.37 1070.1,365.79 C1091.5,383.59 1109.45,406.89 1122.51,433.98 C1122.67,434.31 1122.83,434.64 1122.98,434.98 C1125.26667,439.76 1127.39333,444.646667 1129.36,449.64 L1129.17,449.64 C1120.77,451.5 1112.38,453.396667 1104,455.33 C1013.67333,476.196667 924.183333,501.483333 835.53,531.19 C810.116667,539.71 784.783333,548.583333 759.53,557.81 C738.21,565.61 710.79,583.28 688.69,584.81 C839.79,574.67 992.1,589.45 1142.5,572.61 L1143.92,572.47 Z" id="Path" fill="#254095" opacity="0.1"></path>
                <path d="M1145,537.22 C1145,465.29 1114.94,401.75 1069,363.55 C1069.63333,356.283333 1069.96667,348.913333 1070,341.44 C1070,224.64 990.76,129.97 893,129.97 C861.82,129.97 832.53,139.61 807.09,156.52 C737.89,102.9 647.56,70.47 548.74,70.47 C388,70.47 249.64,156.37 188.28,279.6 C184.87,279.37 181.44,279.24 177.98,279.24 C80.24,279.24 0.98,373.92 0.98,490.71 C0.98,533.65 11.7,573.59 30.1,606.94 L30.1,606.94 C30.1,712.02 114.29,797.21 218.1,797.21 L971.24,797.21 C1052.78,797.21 1118.88,730.33 1118.88,647.82 L1118.88,647.82 C1135.44,615.64 1145,577.77 1145,537.22 Z" id="Path" fill="#254095" opacity="0.1"></path>
                <path d="M399.72,542.79 C400.02,546.79 401.14,551.54 404.91,552.92 C406.732171,553.43502 408.665453,553.403726 410.47,552.83 C415.217235,551.803264 419.530895,549.333824 422.82,545.76 C425.97,542.1 427.54,536.93 426.22,532.3 C424.95,527.88 421.39,524.57 418.88,520.73 C415.94,516.24 415,511.15 412.96,506.34 C396.77,507.89 398.81,530.78 399.72,542.79 Z" id="Path" fill="#FBBEBE"></path>
                <path d="M382.71,350 C380.56,357 388.19,364.63 390.65,371.51 C393.11,378.39 396.42,385 397.74,392.21 C398.66,397.16 398.61,402.21 398.96,407.21 C399.63,416.66 401.72,425.94 403.96,435.13 C407.12,448.41 410.506667,461.63 414.12,474.79 C415.917363,480.773617 417.330246,486.866049 418.35,493.03 C419.291789,499.695264 419.268213,506.46146 418.28,513.12 C411.932609,511.217909 405.095483,511.845004 399.2,514.87 C395.077886,507.635534 392.602403,499.580824 391.95,491.28 C391.698353,486.358488 391.741764,481.42632 392.08,476.51 C392.72,462.6 386.69,448.67 386.49,434.74 C386.551624,429.915223 386.170021,425.09498 385.35,420.34 C384.7,417.07 384.76,410.95 384.05,407.7 C382.91,402.52 387.78,400.13 387.51,394.82 L386.03,365.82 C385.73,360.78 380.63,354.56 382.71,350 Z" id="Path" fill="#3F3D56"></path>
                <path d="M382.71,350 C380.56,357 388.19,364.63 390.65,371.51 C393.11,378.39 396.42,385 397.74,392.21 C398.66,397.16 398.61,402.21 398.96,407.21 C399.63,416.66 401.72,425.94 403.96,435.13 C407.12,448.41 410.506667,461.63 414.12,474.79 C415.917363,480.773617 417.330246,486.866049 418.35,493.03 C419.291789,499.695264 419.268213,506.46146 418.28,513.12 C411.932609,511.217909 405.095483,511.845004 399.2,514.87 C395.077886,507.635534 392.602403,499.580824 391.95,491.28 C391.698353,486.358488 391.741764,481.42632 392.08,476.51 C392.72,462.6 386.69,448.67 386.49,434.74 C386.551624,429.915223 386.170021,425.09498 385.35,420.34 C384.7,417.07 384.76,410.95 384.05,407.7 C382.91,402.52 387.78,400.13 387.51,394.82 L386.03,365.82 C385.73,360.78 380.63,354.56 382.71,350 Z" id="Path" fill="#000000" opacity="0.1"></path>
                <path d="M309.7,327.55 C310.089447,329.250602 310.87781,330.834183 312,332.17 C322.124296,346.304036 333.660365,359.371323 346.43,371.17 C347.735848,369.823809 348.828443,368.286082 349.67,366.61 C355.466716,356.009864 358.364221,344.068006 358.07,331.99 C352.29,330.13 345.73,327.53 343.88,321.75 C342.41,317.19 344.38,311.75 341.8,307.69 C338.13,301.96 322.55,301.23 317.55,305.39 C314.27,308.11 315.44,310.65 314.4,314.33 C313.25,318.37 309.06,323.25 309.7,327.55 Z" id="Path" fill="#FBBEBE"></path>
                <path d="M309.7,327.55 C310.089447,329.250602 310.87781,330.834183 312,332.17 C322.124296,346.304036 333.660365,359.371323 346.43,371.17 C347.735848,369.823809 348.828443,368.286082 349.67,366.61 C355.466716,356.009864 358.364221,344.068006 358.07,331.99 C352.29,330.13 345.73,327.53 343.88,321.75 C342.41,317.19 344.38,311.75 341.8,307.69 C338.13,301.96 322.55,301.23 317.55,305.39 C314.27,308.11 315.44,310.65 314.4,314.33 C313.25,318.37 309.06,323.25 309.7,327.55 Z" id="Path" fill="#000000" opacity="0.1"></path>
                <path d="M314.9,789.8 C316.532974,790.964511 318.405067,791.750244 320.38,792.1 C339.397681,796.786119 359.042014,798.403173 378.57,796.89 C381.18,796.68 384.66,795.29 384.02,792.75 C383.42,790.38 380.02,790.54 377.72,789.83 C375.55,789.17 373.92,787.42 372.3,785.83 C366.3,779.83 359.04,775.29 351.88,770.75 C350.139622,769.495938 348.193776,768.555163 346.13,767.97 C343.66,767.41 341.08,767.88 338.58,768.36 C332.28,769.55 320.27,769.36 315.28,774.01 C311.29,777.71 310.71,786.13 314.9,789.8 Z" id="Path" fill="#3F3D56"></path>
                <path d="M388,784.81 C388,786.36 388.18,788.1 389.36,789.09 C390.303564,789.745766 391.444201,790.056528 392.59,789.97 C400.885007,789.908881 408.477351,785.300478 412.36,777.97 L440.36,774.7 C445.66,774.08 451.06,773.43 455.93,771.24 C461.68,768.64 466.27,764.07 470.72,759.6 C471.50304,758.93425 472.099261,758.076104 472.45,757.11 C472.91,755.35 471.57,753.5 469.88,752.8 C468.135575,752.219933 466.267866,752.116363 464.47,752.5 C450.8,754.39 437.08,760.5 423.7,757.1 C420.43,756.27 417.18,754.86 413.81,755.1 C411.994796,755.331417 410.218911,755.805659 408.53,756.51 C404.18,758.11 391.17,760.38 388.29,764.06 C385.41,767.74 388,780.41 388,784.81 Z" id="Path" fill="#3F3D56"></path>
                <path d="M317.19,472.16 C313.19,478.39 304.76,479.75 298.87,484.22 C289.82,491.09 288.29,503.89 287.77,515.22 C287.42,523.06 287.2,531.02 288.94,538.68 C290.16,544.01 292.3,549.09 293.94,554.32 C297.44,565.69 298.42,577.67 298.94,589.55 C300.31,619.55 299.09,649.74 302.94,679.55 C304.05,688.08 305.56,696.55 306.4,705.11 C309.16,733.43 304.48,762.63 312.07,790.05 C320.257351,781.172067 331.724744,776.036497 343.8,775.84 C346.3,775.84 348.91,775.99 351.21,774.98 C353.51,773.97 355.33,771.29 354.37,768.98 C353.794533,767.972287 353.124873,767.021371 352.37,766.14 C349.06,761.14 354.68,754.07 352.28,748.56 C351.35,746.44 349.34,744.87 348.75,742.64 C348.12,740.22 349.34,737.74 349.68,735.26 C350.36,730.26 347.49,725.6 346,720.81 C343.75,713.56 344.65,705.81 345.43,698.22 C348.009012,673.42029 349.14093,648.491384 348.82,623.56 C348.61,606.69 347.77,589.46 352.63,573.3 C361.721726,581.874223 369.510792,591.731839 375.75,602.56 C379.63,609.17 382.98,616.23 384.27,623.79 C385.21,629.34 385.03,635.01 384.84,640.63 C383.88,669.396667 382.916667,698.163333 381.95,726.93 C381.37,744.33 380.87,762.24 386.9,778.56 C402.23,770.4 417.9,762.56 433.23,754.35 C432.98,748.7 425.38,746.63 422.58,741.72 C421.575985,739.665029 421.03008,737.416579 420.98,735.13 C419.04,711.75 423.81,688.39 428.22,665.35 C429.9,656.57 431.54,647.72 431.53,638.79 C431.53,624.61 427.38,610.79 423.09,597.28 C418.55,582.97 413.8,568.72 409.09,554.47 C406.09,545.32 402.99,536.16 399.17,527.3 C395.57,518.92 391.29,510.83 388.22,502.3 C383.29,488.52 381.6,473.83 379.95,459.3 C359.11,463.39 338,468 317.19,472.16 Z" id="Path" fill="#2F2E41"></path>
                <circle id="Oval" fill="#FBBEBE" cx="327.66" cy="288.64" r="29.22"></circle>
                <path d="M338.59,359.29 L336.47,343.47 C336.480261,339.902189 334.538986,336.6143 331.41,334.9 L311.05,320.02 C310.05,319.26 308.67,318.46 307.51,319.02 C306.789415,319.505621 306.284261,320.250813 306.1,321.1 C302.88,330.6 304.87,340.96 305.99,350.93 C306.94,359.24 307.26,367.61 307.58,375.93 C308.025054,383.487415 308.005017,391.065045 307.52,398.62 C306.42,411.7 302.52,424.86 305.13,437.73 C306.85,446.24 309.88,454.15 310.59,462.81 C311.08,468.81 310.93,474.91 312.83,480.59 C319.83,477.59 327.75,477.92 335.36,478.32 L353.83,479.32 C356.391745,479.555376 358.972074,479.494979 361.52,479.14 C364.367576,478.544666 367.095318,477.476554 369.59,475.98 C376.147611,472.276469 381.881091,467.27456 386.44,461.28 C383.32,446.21 386.35,430.65 384.27,415.4 C383.08,406.61 380.1,398.14 378.7,389.4 C376.98,378.61 377.65,367.4 374.56,356.92 C372.81036,351.605345 370.588146,346.458108 367.92,341.54 C365.215244,335.948333 360.750097,331.398873 355.21,328.59 C354.182335,328.039324 353.035883,327.747562 351.87,327.74 C348.93,327.91 347.11,331.03 346.29,333.87 C345.29,337.27 345.01,340.87 344.23,344.28 C343.11,349.27 341.49,355.08 338.59,359.29 Z" id="Path" fill="#254095"></path>
                <path d="M278.7,547.79 C282.59,551.91 289.7,550.9 294.22,547.51 C304.06,540.14 304.97,526.03 305.51,513.75 C305.71,509.35 306.01,504.75 308.08,500.89 C311.24,494.94 317.79,491.8 323.23,487.81 C336.13,478.37 343.7,462.81 345.97,447.03 C348.24,431.25 345.63,415.03 341.27,399.66 C333.73,373.09 321.03,348.32 308.14,323.9 C307.753528,322.990699 307.136551,322.197935 306.35,321.6 C303.73,319.98 300.89,323.19 299.09,325.7 C293.02,334.2 283.02,338.76 273.86,343.79 C264.7,348.82 255.34,355.52 252.57,365.59 C250.71,372.34 252.16,379.52 253.57,386.37 C254.98,393.22 260,398.66 263.69,404.47 C268.015875,410.83444 271.914448,417.479051 275.36,424.36 C276.660053,426.925243 277.666422,429.629022 278.36,432.42 C278.964734,435.717531 279.229454,439.068418 279.15,442.42 C279.36,463.14 279.57,483.93 277.07,504.5 C275.65,516.14 273.37,527.82 274.41,539.5 C274.66,542.64 276.48,545.47 278.7,547.79 Z" id="Path" fill="#3F3D56"></path>
                <path d="M303.4,509.17 C307.56,511.03 311.77,512.96 316.27,513.7 C320.77,514.44 325.7,513.84 329.27,511.05 C332.84,508.26 334.72,502.98 332.68,498.9 C335.88714,499.002038 339.09731,498.848217 342.28,498.44 C344.11,498.21 346.33,497.51 346.61,495.69 C346.93,493.57 344.37,492.29 342.3,491.69 L331.14,488.62 C325.895295,486.672408 320.207815,486.242642 314.73,487.38 L297.73,489.98 C297.278617,490.01504 296.841018,490.15179 296.45,490.38 C295.942494,490.816061 295.591347,491.405988 295.45,492.06 C294.63,494.65 290.84,501.89 292.14,504.47 C293.3,506.68 301.07,508 303.4,509.17 Z" id="Path" fill="#FBBEBE"></path>
                <path d="M410,520.13 C407.943049,524.730438 403.980345,528.203739 399.15,529.64 C398.109104,530.002902 396.989033,530.075499 395.91,529.85 C393.91,529.29 392.81,527.2 391.98,525.3 C372.18,480.22 373.29,428.91 360.69,381.3 C356.95,367.17 351.95,352.97 352.86,338.38 C353.02,335.77 353.57,332.83 355.75,331.38 C357.69,330.08 360.33,330.43 362.45,331.38 C364.57,332.33 366.45,333.88 368.45,334.94 C371.76,336.63 375.61,337.11 378.79,339.02 C383.51,341.85 385.93,347.26 388.04,352.34 C392.55,363.18 397.04,374.34 397.39,386.1 C398.16,408.94 388.03,430.89 393.3,453.1 C394.35,457.5 395.9,461.77 397.38,466.04 C402.678033,481.359218 407.019721,496.992632 410.38,512.85 C410.93,515.57 411.05,517.64 410,520.13 Z" id="Path" fill="#3F3D56"></path>
                <path d="M308.71,291.21 C310.46,288.38 312.89,285.89 313.83,282.7 C314.5,280.43 314.36,277.97 315.17,275.7 C317.17,270.22 324.11,268.2 329.86,269.14 C335.61,270.08 340.78,273.14 346.4,274.67 C349.51,275.53 353.83,275.27 354.71,272.16 C355.29,270.1 353.9,268.06 352.58,266.37 L336,245.21 C333.82,245.77 331.38,246.29 329.4,245.21 C328.26,244.58 327.4,243.47 326.13,243.11 C322.68,242.11 319.79,247.42 316.33,246.5 C315.33,246.24 314.54,245.5 313.54,245.42 C310.75,245.19 309.7,249.81 306.91,250.04 C305.75,250.14 304.63,249.4 303.48,249.51 C302.451008,249.717394 301.531379,250.289055 300.89,251.12 C295.34,257.01 293.09,265.46 293.39,273.54 C293.69,281.62 292.3,289.46 295.39,296.92 C296.75,300.18 299.51,304.02 302.86,302.92 C302.86,298.52 306.96,294.13 307.01,289.73" id="Path" fill="#2F2E41"></path>
                <g id="Group" opacity="0.1" transform="translate(308.000000, 560.000000)" fill="#000000">
                    <path d="M57.17,26.99 C51.22323,17.1506055 43.9668274,8.16504629 35.6,0.28 C30.74,16.44 31.6,33.67 31.79,50.54 C32.1109304,75.4713839 30.9790125,100.40029 28.4,125.2 C27.61,132.75 26.72,140.54 28.97,147.79 C30.46,152.58 33.33,157.26 32.65,162.24 C32.31,164.72 31.09,167.24 31.72,169.62 C32.31,171.85 34.32,173.42 35.25,175.54 C37.65,181.05 32.03,188.1 35.34,193.12 C36.094873,194.001371 36.7645326,194.952287 37.34,195.96 C38.34,198.28 36.48,200.96 34.18,201.96 C31.88,202.96 29.27,202.79 26.77,202.82 C17.3058648,202.978711 8.14277979,206.17212 0.63,211.93 C1.28861379,218.043664 2.4288222,224.095797 4.04,230.03 C12.2273513,221.152067 23.6947444,216.016497 35.77,215.82 C38.27,215.82 40.88,215.97 43.18,214.96 C45.48,213.95 47.3,211.27 46.34,208.96 C45.7645326,207.952287 45.094873,207.001371 44.34,206.12 C41.03,201.12 46.65,194.05 44.25,188.54 C43.32,186.42 41.31,184.85 40.72,182.62 C40.09,180.2 41.31,177.72 41.65,175.24 C42.33,170.24 39.46,165.58 37.97,160.79 C35.72,153.54 36.61,145.79 37.4,138.2 C39.9790125,113.40029 41.1109304,88.4713839 40.79,63.54 C40.58,46.67 39.74,29.44 44.6,13.28 C49.1266601,17.5295188 53.3284304,22.1123566 57.17,26.99 L57.17,26.99 Z" id="Path"></path>
                </g>
                <g id="Group" opacity="0.1" transform="translate(292.000000, 264.000000)" fill="#000000">
                    <path d="M1.42,10.47 C1.42,9.1 1.42,7.72 1.42,6.33 C1.36,7.4 1.36,8.47 1.42,9.53 C1.41,9.87 1.41,10.18 1.42,10.47 Z" id="Path"></path>
                    <path d="M54.4,6.72 C48.78,5.18 43.6,2.14 37.86,1.19 C32.12,0.24 25.15,2.27 23.17,7.75 C22.36,9.97 22.5,12.43 21.83,14.75 C20.89,17.94 18.46,20.43 16.71,23.26 L15.06,21.8 C15.01,26.2 10.96,30.59 10.91,34.99 C7.56,36.08 4.8,32.24 3.44,28.99 C2.03755814,25.4029098 1.33163025,21.5813964 1.36,17.73 C1.27,22.96 1.36,28.05 3.44,32.99 C4.8,36.25 7.56,40.09 10.91,38.99 C10.91,34.59 15.01,30.2 15.06,25.8 L16.71,27.26 C18.46,24.43 20.89,21.94 21.83,18.75 C22.5,16.48 22.36,14.02 23.17,11.75 C25.17,6.27 32.11,4.25 37.86,5.19 C43.61,6.13 48.78,9.19 54.4,10.72 C57.51,11.58 61.83,11.32 62.71,8.21 C62.9624007,7.16039339 62.823755,6.05478323 62.32,5.1 C60.93,7.35 57.18,7.47 54.4,6.72 Z" id="Path"></path>
                </g>
                <path d="M251.89,395.38 C251.03668,401.479969 249.807677,407.521454 248.21,413.47 L241.21,442 C240.46,445 239.71,448.16 240.04,451.27 C240.5,455.46 242.88,459.17 245.29,462.63 C258.993542,482.289752 275.728027,499.652033 294.87,514.07 C293.76,508.37 297.71,503.07 301.42,498.59 C305.13,494.11 308.75,489.82 313.6,486.92 C301.453333,475.506667 289.7,463.69 278.34,451.47 C277.142998,450.28189 276.113523,448.936171 275.28,447.47 C272.54,442.18 275.28,435.86 277.66,430.4 C285.19,413.01 288.75,393.27 283.92,374.95 C282.1,368.06 278.92,361.18 273.13,356.95 C270.6,355.1 267.13,353.85 264.37,355.24 C263.192974,355.921383 262.171174,356.841003 261.37,357.94 C252.38,368.93 253.45,382.08 251.89,395.38 Z" id="Path" fill="#3F3D56"></path>
                <ellipse id="Oval" fill="#254095" cx="257.76" cy="793.24" rx="29.24" ry="5.62"></ellipse>
                <ellipse id="Oval" fill="#3F3D56" cx="257.27" cy="790.85" rx="3.4" ry="4.46"></ellipse>
                <ellipse id="Oval" fill="#3F3D56" cx="257.27" cy="785.4" rx="3.4" ry="4.46"></ellipse>
                <ellipse id="Oval" fill="#3F3D56" cx="257.27" cy="779.96" rx="3.4" ry="4.46"></ellipse>
                <ellipse id="Oval" fill="#3F3D56" cx="257.27" cy="774.51" rx="3.4" ry="4.46"></ellipse>
                <ellipse id="Oval" fill="#3F3D56" cx="257.27" cy="769.06" rx="3.4" ry="4.46"></ellipse>
                <ellipse id="Oval" fill="#3F3D56" cx="257.27" cy="763.62" rx="3.4" ry="4.46"></ellipse>
                <ellipse id="Oval" fill="#3F3D56" cx="257.27" cy="758.17" rx="3.4" ry="4.46"></ellipse>
                <path d="M270,720.9 C270.46752,720.307849 270.891944,719.68291 271.27,719.03 L262.33,717.56 L272,717.63 C273.873259,713.548656 273.985362,708.876489 272.31,704.71 L259.31,711.44 L271.31,702.65 C268.262086,697.349359 262.505455,694.198711 256.397868,694.48848 C250.290282,694.778248 244.857795,698.459751 242.325409,704.025145 C239.793023,709.590538 240.586171,716.104853 244.38,720.9 C243.650849,721.828057 243.027025,722.834224 242.52,723.9 L254.13,729.9 L241.75,725.75 C239.984021,730.969936 240.973271,736.728648 244.38,741.06 C239.116546,747.745484 239.876886,757.353925 246.126324,763.128365 C252.375761,768.902806 262.014239,768.902806 268.263676,763.128365 C274.513114,757.353925 275.273454,747.745484 270.01,741.06 C274.663984,735.145787 274.663984,726.814213 270.01,720.9 L270,720.9 Z" id="Path" fill="#254095"></path>
                <path d="M240.89,730.98 C240.882827,734.63751 242.112789,738.189951 244.38,741.06 C239.116546,747.745484 239.876886,757.353925 246.126324,763.128365 C252.375761,768.902806 262.014239,768.902806 268.263676,763.128365 C274.513114,757.353925 275.273454,747.745484 270.01,741.06 C272.2,738.29 240.89,729.15 240.89,730.98 Z" id="Path" fill="#000000" opacity="0.1"></path>
                <ellipse id="Oval" fill="#254095" cx="921.19" cy="794.14" rx="40.21" ry="6.8"></ellipse>
                <path d="M937.82,783.02 C939.653243,781.526285 940.988984,779.510467 941.65,777.24 C942.15,774.94 941.17,772.18 938.97,771.34 C936.51,770.4 933.88,772.11 931.89,773.83 C929.9,775.55 927.61,777.52 925.01,777.15 C927.735285,774.674241 928.964683,770.951895 928.25,767.34 C928.13621,766.604263 927.82519,765.913107 927.35,765.34 C925.98,763.88 923.51,764.51 921.87,765.66 C916.67,769.31 915.22,776.38 915.19,782.73 C914.67,780.44 915.11,778.05 915.1,775.73 C915.09,773.41 914.44,770.73 912.45,769.51 C911.223535,768.846755 909.843712,768.519047 908.45,768.56 C906.12,768.47 903.51,768.71 901.92,770.42 C899.92,772.54 900.45,776.1 902.17,778.42 C903.89,780.74 906.52,782.23 908.94,783.84 C910.875902,784.994273 912.526796,786.569971 913.77,788.45 C913.919817,788.712756 914.040531,788.991069 914.13,789.28 L928.79,789.28 C932.068681,787.610353 935.106259,785.504568 937.82,783.02 Z" id="Path" fill="#254095"></path>
                <polygon id="Path" fill="#3F3D56" points="734.75 415.98 735.62 414.04 734.46 413.52 733.59 415.46 729.04 420.41 734.09 422.67"></polygon>
                <polygon id="Path" fill="#3F3D56" points="739.79 418.3 740.68 416.31 739.49 415.77 738.6 417.76 733.93 422.84 739.11 425.16"></polygon>
                <polygon id="Path" fill="#3F3D56" points="744.85 420.5 745.72 418.56 744.55 418.04 743.68 419.98 739.13 424.93 744.18 427.19"></polygon>
                <polygon id="Path" fill="#3F3D56" points="780.8 436.66 781.69 434.67 780.5 434.13 779.61 436.12 774.94 441.2 780.12 443.52"></polygon>
                <polygon id="Path" fill="#3F3D56" points="785.98 438.98 786.87 436.99 785.68 436.45 784.78 438.44 780.12 443.52 785.3 445.84"></polygon>
                <polygon id="Path" fill="#3F3D56" points="791.15 441.29 792.05 439.3 790.85 438.77 789.96 440.76 785.3 445.84 790.47 448.16"></polygon>
                <polygon id="Path" fill="#3F3D56" points="757.31 426.14 758.2 424.15 757.01 423.61 756.12 425.61 751.45 430.69 756.63 433"></polygon>
                <polygon id="Path" fill="#3F3D56" points="762.49 428.46 763.38 426.47 762.18 425.93 761.29 427.92 756.63 433 761.8 435.32"></polygon>
                <polygon id="Path" fill="#3F3D56" points="767.66 430.77 768.55 428.78 767.36 428.25 766.47 430.24 761.8 435.32 766.98 437.64"></polygon>
                <path d="M814.43,284.67 C817.35,277.75 814.52,262.01 810.17,260.06 C805.82,258.11 792.58,266.66 789.36,273.45 L789.16,273.35 L727.48,411.11 L752.76,422.47 L814.44,284.67 L814.43,284.67 Z" id="Path" fill="#ECECF3"></path>
                <path d="M860.62,305.35 C863.53,298.43 860.71,282.69 856.35,280.74 C851.99,278.79 838.77,287.34 835.55,294.13 L835.34,294.03 L773.66,431.79 L799,443.11 L860.68,305.35 L860.62,305.35 Z" id="Path" fill="#ECECF3"></path>
                <path d="M865.89,230.59 C870.24,220.47 869.89,199.11 865.57,197.16 C861.25,195.21 845.47,209.38 840.82,219.37 L840.62,219.27 L750.17,421.27 L775.45,432.59 L865.9,230.59 L865.89,230.59 Z" id="Path" fill="#FFFFFF"></path>
                <rect id="Rectangle" fill="#3F3D56" transform="translate(859.439213, 211.132159) rotate(24.120000) translate(-859.439213, -211.132159) " x="856.824213" y="205.462159" width="5.23" height="11.34" rx="2.615"></rect>
                <path d="M663.17,448.3 L688.85,451.76 C693,452.32 697.42,452.84 701.23,451.1 C707.54,448.21 709.94,440.23 715.75,436.45 C722.3,432.18 731.87,434.89 736.44,441.23 C737.64,442.91 738.59,444.82 740.23,446.07 C746.8,451.07 757.23,441.67 764.11,446.31 C767.54,448.64 768.62,453.85 772.54,455.23 C775.13,456.14 777.99,454.96 780.73,455.18 C787.58,455.73 790.67,464.52 789.23,471.24 C787.79,477.96 783.63,483.9 782.51,490.67 C781.39,497.44 785.45,506.08 792.3,505.67" id="Path" fill="#FFFFFF" opacity="0.3"></path>
                <circle id="Oval" fill="#254095" opacity="0.1" cx="816" cy="77" r="12"></circle>
                <circle id="Oval" fill="#254095" opacity="0.1" cx="961" cy="12" r="12"></circle>
                <circle id="Oval" fill="#254095" opacity="0.1" cx="901" cy="57" r="12"></circle>
                <circle id="Oval" fill="#254095" opacity="0.1" cx="1042" cy="161" r="12"></circle>
                <circle id="Oval" fill="#254095" opacity="0.1" cx="973" cy="89" r="12"></circle>
            </g>
        </g>
    </g>
</svg>