<?xml version="1.0" encoding="UTF-8"?>
<svg width="1131px" height="813px" viewBox="0 0 1131 813" version="1.1" xmlns="http://www.w3.org/2000/svg" xmlns:xlink="http://www.w3.org/1999/xlink">
    <!-- Generator: Sketch 53.2 (72643) - https://sketchapp.com -->
    <title>undraw_software_engineer_lvl5</title>
    <desc>Created with Sketch.</desc>
    <g id="Page-1" stroke="none" stroke-width="1" fill="none" fill-rule="evenodd">
        <g id="IllustrationUndraw" transform="translate(-3000.000000, -4500.000000)">
            <g id="undraw_software_engineer_lvl5" transform="translate(3000.000000, 4500.000000)">
                <rect id="Rectangle" fill="#254095" fill-rule="nonzero" opacity="0.3" x="689.32824" y="51.26718" width="80.80153" height="30.0916"></rect>
                <rect id="Rectangle" fill="#254095" fill-rule="nonzero" opacity="0.3" x="823.62595" y="0" width="80.80153" height="30.0916"></rect>
                <rect id="Rectangle" fill="#254095" fill-rule="nonzero" opacity="0.3" x="829.19847" y="93.06107" width="80.80153" height="30.0916"></rect>
                <rect id="Rectangle" fill="#254095" fill-rule="nonzero" opacity="0.3" x="570.63359" y="127.61069" width="80.80153" height="30.0916"></rect>
                <rect id="Rectangle" fill="#254095" fill-rule="nonzero" opacity="0.3" x="545" y="251.32061" width="80.80153" height="30.0916"></rect>
                <rect id="Rectangle" fill="#254095" fill-rule="nonzero" opacity="0.3" x="667.03817" y="248.53435" width="80.80153" height="30.0916"></rect>
                <polyline id="Path" stroke="#3F3D56" points="823.626 14.856 770.13 65.616 829.198 108.107"></polyline>
                <path d="M689.32824,65.61641 L611.03435,127.61069" id="Path" stroke="#3F3D56"></path>
                <polyline id="Path" stroke="#3F3D56" points="585.401 251.297 611.034 157.702 707.439 248.534"></polyline>
                <rect id="Rectangle" fill="#254095" fill-rule="nonzero" opacity="0.3" x="144.32824" y="82.26718" width="80.80153" height="30.0916"></rect>
                <rect id="Rectangle" fill="#254095" fill-rule="nonzero" opacity="0.3" x="278.62595" y="31" width="80.80153" height="30.0916"></rect>
                <rect id="Rectangle" fill="#254095" fill-rule="nonzero" opacity="0.3" x="284.19847" y="124.06107" width="80.80153" height="30.0916"></rect>
                <rect id="Rectangle" fill="#254095" fill-rule="nonzero" opacity="0.3" x="25.63359" y="158.61069" width="80.80153" height="30.0916"></rect>
                <rect id="Rectangle" fill="#254095" fill-rule="nonzero" opacity="0.3" x="0" y="282.32061" width="80.80153" height="30.0916"></rect>
                <rect id="Rectangle" fill="#254095" fill-rule="nonzero" opacity="0.3" x="122.03817" y="279.53435" width="80.80153" height="30.0916"></rect>
                <polyline id="Path" stroke="#3F3D56" points="278.626 45.856 225.13 96.616 284.198 139.107"></polyline>
                <path d="M144.32824,96.61641 L66.03435,158.61069" id="Path" stroke="#3F3D56"></path>
                <polyline id="Path" stroke="#3F3D56" points="40.401 282.297 66.034 188.702 162.439 279.534"></polyline>
                <path d="M365,139.10687 L456.63359,139.10687" id="Path" stroke="#3F3D56"></path>
                <rect id="Rectangle" fill="#254095" fill-rule="nonzero" x="415.5" y="123.70611" width="95" height="30"></rect>
                <path d="M510.62322,138.70611 L570.63359,138.70611" id="Path" stroke="#3F3D56"></path>
                <path d="M415.04486,138.70611 L359.42748,45.8564" id="Path" stroke="#3F3D56"></path>
                <ellipse id="Oval" fill="#F2F2F2" fill-rule="nonzero" cx="691" cy="714.20611" rx="440" ry="98"></ellipse>
                <polygon id="Path" fill="#47465A" fill-rule="nonzero" points="894.984 391.611 852.078 606.582 842.79 606.582 841.768 604.994 838.809 600.39 875.964 399.572 881.604 397.21"></polygon>
                <polygon id="Path" fill="#000000" fill-rule="nonzero" opacity="0.1" points="881.604 397.21 841.768 604.994 838.809 600.39 875.964 399.572"></polygon>
                <polygon id="Path" fill="#47465A" fill-rule="nonzero" points="959.564 684.432 948.533 687.988 945.852 688.855 942.313 680.893 881.604 403.96 887.916 402.545 901.177 399.572"></polygon>
                <polygon id="Path" fill="#000000" fill-rule="nonzero" opacity="0.1" points="948.533 687.988 945.852 688.855 942.313 680.893 881.604 403.96 887.916 402.545"></polygon>
                <polygon id="Path" fill="#47465A" fill-rule="nonzero" points="433.636 391.611 423.905 670.277 412.753 672.754 411.962 672.931 408.865 667.181 415.058 394.264 421.016 393.415"></polygon>
                <polygon id="Path" fill="#000000" fill-rule="nonzero" opacity="0.1" points="421.016 393.415 412.753 672.754 411.962 672.931 408.865 667.181 415.058 394.264"></polygon>
                <polygon id="Path" fill="#47465A" fill-rule="nonzero" points="491.581 768.917 480.045 770.907 478.753 771.128 475.215 763.609 419.039 399.572 420.658 399.081 429.213 396.476"></polygon>
                <polygon id="Path" fill="#000000" fill-rule="nonzero" opacity="0.1" points="480.045 770.907 478.753 771.128 475.215 763.609 419.039 399.572 420.658 399.081"></polygon>
                <path d="M735.74611,369.05177 L778.69729,423.93384 C781.690956,427.75908 786.461268,429.748337 791.28571,429.18331 L967.60361,408.53347 C974.621076,407.711606 979.911399,401.765539 979.9114,394.70011 L979.9114,354.01261 L735.74611,369.05177 Z" id="Path" fill="#7A799C" fill-rule="nonzero"></path>
                <path d="M880.3875,377.89835 L892.33037,377.89835 L892.33037,395.13484 C892.33037,397.585659 890.343589,399.57244 887.89277,399.57244 L884.8251,399.57244 C882.374281,399.57244 880.3875,397.585659 880.3875,395.13484 L880.3875,377.89835 Z" id="Path" fill="#47465A" fill-rule="nonzero"></path>
                <path d="M419.039,403.99572 L461.99018,458.87778 C464.983845,462.703022 469.754156,464.692283 474.5786,464.12726 L650.8965,443.47742 C657.913949,442.655529 663.204248,436.709466 663.20425,429.64405 L663.20425,388.95655 L419.039,403.99572 Z" id="Path" fill="#7A799C" fill-rule="nonzero"></path>
                <path d="M563.68035,412.84229 L575.62322,412.84229 L575.62322,430.07878 C575.62322,432.529599 573.636439,434.51638 571.18562,434.51638 L568.118,434.51638 C565.667181,434.51638 563.6804,432.529599 563.6804,430.07878 L563.68035,412.84229 L563.68035,412.84229 Z" id="Path" fill="#47465A" fill-rule="nonzero"></path>
                <path d="M468.38475,431.79117 L992.84409,370.7009 C996.227566,370.306784 998.951793,367.739716 999.546025,364.385595 C1000.14026,361.031474 998.463746,357.68475 995.4216,356.15224 L901.60482,308.97037 C883.126735,299.677462 862.378934,295.855209 841.80235,297.95329 L375.8605,345.46285 C372.461044,345.818454 369.563856,348.085668 368.401481,351.299955 C367.239106,354.514242 368.016039,358.11012 370.40175,360.5578 L424.66086,416.22624 C436.041034,427.902002 452.186658,433.649558 468.38475,431.79117 Z" id="Path" fill="#47465A" fill-rule="nonzero"></path>
                <path d="M1050.54368,362.4215 L1044.93368,359.3205 C1044.93368,359.3205 1038.8774,363.77861 1033.94368,382.56015 C1029.00996,401.34169 1043.16442,382.7639 1043.16442,382.7639 L1049.35702,369.93638 L1050.54368,362.4215 Z" id="Path" fill="#47465A" fill-rule="nonzero"></path>
                <path d="M990.52728,534.4826 C990.52728,534.4826 984.77701,561.4646 982.12304,568.98422 C980.82262,572.6644 974.54147,576.03051 967.57933,578.60486 C961.406261,580.904458 955.015779,582.571731 948.50608,583.58106 C940.9865,584.46572 844.5589,569.42655 797.67208,559.253 C766.08544,552.40133 762.00265,544.54115 762.70157,540.1444 C762.926481,538.835454 763.554294,537.629333 764.49745,536.69425 C764.49745,536.69425 810.94193,505.28893 827.30808,490.24976 C843.67423,475.21059 875.96421,487.15346 911.35048,493.34606 C946.73675,499.53866 990.52728,534.4826 990.52728,534.4826 Z" id="Path" fill="#47465A" fill-rule="nonzero"></path>
                <path d="M1044.93367,359.32055 C1044.93367,359.32055 1066.60777,373.47506 993.62358,402.66873 C993.62358,402.66873 953.95458,425.03529 959.11849,517.17191 C959.363269,521.315019 960.624758,525.33406 962.79149,528.87391 C970.32169,541.25911 986.45783,572.61134 959.56426,576.50383 L959.56426,583.58105 C959.56426,583.58105 1008.22039,559.25299 1013.52833,538.46355 C1018.83627,517.67411 1036.5294,402.2264 1045.37597,391.61055 C1054.22254,380.9947 1059.97284,364.18616 1044.93367,359.32055 Z" id="Path" fill="#47465A" fill-rule="nonzero"></path>
                <path d="M967.57933,578.60486 C961.406261,580.904458 955.015779,582.571731 948.50608,583.58106 C940.9865,584.46572 844.5589,569.42655 797.67208,559.253 C766.08544,552.40133 762.00265,544.54115 762.70157,540.1444 C783.46444,547.24377 850.88421,569.77598 875.07957,571.63819 C903.83092,573.84983 958.75923,579.99819 962.92157,575.81819 C964.52277,574.20812 966.16379,575.90664 967.57933,578.60486 Z" id="Path" fill="#000000" fill-rule="nonzero" opacity="0.1"></path>
                <path d="M714.95667,762.72405 L756.97787,570.75351 C756.97787,570.75351 764.49746,550.40641 781.74826,551.29106 L797.67209,559.25305 C797.67209,559.25305 771.13238,553.06045 765.38209,573.40755 C759.6318,593.75465 722.91858,762.72405 722.91858,762.72405 L714.95667,762.72405 Z" id="Path" fill="#47465A" fill-rule="nonzero"></path>
                <polygon id="Path" fill="#47465A" fill-rule="nonzero" points="815.808 675.143 832.616 557.926 840.136 557.926 822.885 675.143"></polygon>
                <path d="M976.8151,789.7061 L960.89127,606.5821 C960.89127,606.5821 960.89127,591.1006 968.85319,583.58102 C976.81511,576.06144 1002.51813,554.61091 1002.51813,554.61091 C1002.51813,554.61091 1009.10507,553.06036 1014.41301,568.09952 C1019.72095,583.13868 1056.43421,733.53035 1056.43421,733.53035 L1049.35696,736.62665 L1003.79713,563.23395 L972.39181,592.86995 C972.39181,592.86995 966.19922,603.92816 969.29551,614.10171 C972.3918,624.27526 983.89235,789.70609 983.89235,789.70609 L976.8151,789.7061 Z" id="Path" fill="#47465A" fill-rule="nonzero"></path>
                <polygon id="Path" fill="#47465A" fill-rule="nonzero" points="927.717 579.158 967.526 590.658 976.373 582.254 953.372 579.158"></polygon>
                <path d="M573.81275,256.30422 L580.26767,353.12795 L721.37043,339.41577 L715.75564,244.76638 C715.603721,242.205445 714.424599,239.81423 712.485463,238.134583 C710.546326,236.454936 708.01134,235.629053 705.45493,235.84408 L582.5133,246.18496 C577.338457,246.62023 573.46731,251.122606 573.81275,256.30422 Z" id="Path" fill="#7A799C" fill-rule="nonzero"></path>
                <polygon id="Path" fill="#7A799C" fill-rule="nonzero" points="768.7 367.282 628.039 382.627 622.731 383.206 581.595 356.667 581.595 350.916 721.37 338.328"></polygon>
                <polygon id="Path" fill="#000000" fill-rule="nonzero" opacity="0.1" points="628.039 382.627 622.731 383.206 581.595 356.667 581.595 351.518"></polygon>
                <polygon id="Path" fill="#9493B6" fill-rule="nonzero" points="583.364 255.373 588.23 341.627 712.082 330.127 707.658 246.084"></polygon>
                <polygon id="Path" fill="#000000" fill-rule="nonzero" opacity="0.1" points="657.233 365.513 672.272 375.687 717.832 371.263 702.35 361.532"></polygon>
                <polygon id="Path" fill="#9493B6" fill-rule="nonzero" points="595.749 353.128 614.769 367.282 736.41 355.782 714.736 341.627"></polygon>
                <rect id="Rectangle" fill="#FF6584" fill-rule="nonzero" x="811.60543" y="222.4199" width="89.79267" height="89.79267"></rect>
                <rect id="Rectangle" fill="#000000" fill-rule="nonzero" opacity="0.1" x="811.60543" y="222.4199" width="89.79267" height="89.79267"></rect>
                <path d="M842.529,263.97374 C842.529,263.97374 855.19581,298.27969 842.529,304.6131 C829.86219,310.94651 887.91841,304.6131 887.91841,304.6131 L904.27971,291.4185 C904.27971,291.4185 867.33484,280.86282 872.61271,256.58477 C877.89058,232.30672 842.529,263.97374 842.529,263.97374 Z" id="Path" fill="#FBBEBE" fill-rule="nonzero"></path>
                <path d="M842.529,263.97374 C842.529,263.97374 855.19581,298.27969 842.529,304.6131 C829.86219,310.94651 887.91841,304.6131 887.91841,304.6131 L904.27971,291.4185 C904.27971,291.4185 867.33484,280.86282 872.61271,256.58477 C877.89058,232.30672 842.529,263.97374 842.529,263.97374 Z" id="Path" fill="#000000" fill-rule="nonzero" opacity="0.1"></path>
                <path d="M738.55563,608.08879 C738.55563,608.08879 786.05617,675.11734 778.13941,693.58979 C770.22265,712.06224 774.44493,723.67347 758.61141,730.00687 C742.77789,736.34027 738.55563,747.95152 752.27801,747.42374 C766.00039,746.89596 783.94501,743.20147 786.58395,738.45142 C789.22289,733.70137 795.55628,711.00666 804.5286,707.83995 C813.50092,704.67324 830.39,692.5342 818.251,677.75626 C806.112,662.97832 775.5256,608.54578 777.88808,603.03945 C780.25056,597.53312 738.55563,608.08879 738.55563,608.08879 Z" id="Path" fill="#FBBEBE" fill-rule="nonzero"></path>
                <path d="M837.779,475.61505 C837.779,475.61505 739.61121,481.94846 714.27758,505.69873 C688.94395,529.449 736.4445,618.11673 741.72234,619.17225 C747.00018,620.22777 788.16734,616.00555 786.58396,604.39431 C785.00058,592.78307 757.02807,545.28252 757.02807,545.28252 C757.02807,545.28252 793.44515,532.08792 813.50094,528.92122 C833.55673,525.75452 855.72365,510.97657 855.72365,510.97657 L837.779,475.61505 Z" id="Path" fill="#9493B6" fill-rule="nonzero"></path>
                <path d="M792.91736,460.83711 C792.91736,460.83711 794.50071,519.42111 809.27866,521.53225 C824.05661,523.64339 809.27866,476.67062 809.27866,476.67062 L808.75088,458.72597 L792.91736,460.83711 Z" id="Path" fill="#FBBEBE" fill-rule="nonzero"></path>
                <path d="M837.779,307.25205 C837.779,307.25205 810.33424,299.33529 805.0564,320.44664 C799.77856,341.55799 798.19521,414.39216 798.19521,414.39216 L788.6951,472.44838 C788.6951,472.44838 806.11197,467.17054 809.80645,469.80946 L831.97337,441.83692 L837.779,307.25205 Z" id="Path" fill="#254095" fill-rule="nonzero"></path>
                <path d="M837.779,307.25205 C837.779,307.25205 810.33424,299.33529 805.0564,320.44664 C799.77856,341.55799 798.19521,414.39216 798.19521,414.39216 L788.6951,472.44838 C788.6951,472.44838 806.11197,467.17054 809.80645,469.80946 L831.97337,441.83692 L837.779,307.25205 Z" id="Path" fill="#000000" fill-rule="nonzero" opacity="0.1"></path>
                <path d="M875.27932,619.32854 C875.27932,619.32854 893.72407,655.58934 904.80753,655.06154 C915.89099,654.53374 926.44667,647.67254 931.72453,669.3117 C937.00239,690.95086 930.66897,685.14522 937.00237,697.81203 C943.33577,710.47884 944.39137,732.64576 932.25237,737.9236 C920.11337,743.20144 909.02988,743.72922 908.5021,737.9236 C907.97432,732.11798 919.05777,732.11798 906.39096,711.53441 C893.72415,690.95084 866.80718,653.47819 855.72372,649.7837 C844.64026,646.08921 875.27932,619.32854 875.27932,619.32854 Z" id="Path" fill="#FBBEBE" fill-rule="nonzero"></path>
                <path d="M923.28,453.97592 C923.28,453.97592 961.28044,517.30998 936.4746,535.78241 C911.66876,554.25484 837.77903,589.61641 837.77903,589.61641 C837.77903,589.61641 877.36281,616.53341 879.47395,625.50571 C881.58509,634.47801 860.47373,658.75609 853.08476,659.28387 C845.69579,659.81165 824.05665,635.00582 800.83416,628.67241 C777.61167,622.339 763.36151,576.9496 788.69516,560.06051 C814.02881,543.17142 837.77906,515.19889 837.77906,515.19889 L830.39436,474.5652 L923.28,453.97592 Z" id="Path" fill="#9493B6" fill-rule="nonzero"></path>
                <path d="M890.33989,242.76705 C890.33989,265.21154 867.34856,283.76568 844.90407,283.76568 C822.459574,283.76568 804.264715,265.570821 804.264715,243.126325 C804.264715,220.681829 822.459574,202.48697 844.90407,202.48697 C867.34856,202.48693 890.33989,220.32251 890.33989,242.76705 Z" id="Path" fill="#FBBEBE" fill-rule="nonzero"></path>
                <path d="M855.19585,301.44639 C855.19585,301.44639 891.61293,285.61288 891.61293,283.50174 C891.61293,281.3906 912.72429,288.2518 917.47434,292.47407 C922.22439,296.69634 924.86334,296.16856 928.03002,304.61307 C931.1967,313.05758 912.1965,391.6974 912.1965,391.6974 C912.1965,391.6974 922.75218,452.39254 928.5578,458.19816 C934.36342,464.00378 881.585,472.44835 881.585,472.44835 C881.585,472.44835 846.75127,478.78176 840.94565,481.42068 C835.14003,484.0596 824.58435,487.75408 826.69549,481.42068 C828.80663,475.08728 837.77895,470.33722 822.47321,462.42046 C822.47321,462.42046 827.75105,436.55905 822.47321,424.94781 C817.19537,413.33657 792.91732,371.11381 812.44532,340.5024 C831.97332,309.89099 840.94565,298.80747 840.94565,298.80747 C840.94565,298.80747 847.80688,304.6131 855.19585,301.44639 Z" id="Path" fill="#254095" fill-rule="nonzero"></path>
                <path d="M866.8071,445.53138 C866.8071,445.53138 825.64,463.79018 813.237,465.48035 C800.834,467.17052 763.36143,476.67062 783.945,485.11516 C804.52857,493.5597 835.66781,480.89289 835.66781,480.89289 L879.47387,462.42046 L866.8071,445.53138 Z" id="Path" fill="#FBBEBE" fill-rule="nonzero"></path>
                <path d="M911.12933,299.82738 C911.12933,299.82738 926.33111,292.47407 930.55333,318.33548 C934.77555,344.19689 949.55355,426.00337 930.55333,438.1424 C911.55311,450.28143 867.74705,469.8094 867.74705,469.8094 C867.74705,469.8094 841.88565,452.39254 854.02468,446.05913 C866.16371,439.72572 895.19181,421.78107 899.41408,415.44767 C903.63635,409.11427 907.90237,338.42067 900.5134,326.80938 C893.12443,315.19809 911.12933,299.82738 911.12933,299.82738 Z" id="Path" fill="#000000" fill-rule="nonzero" opacity="0.1"></path>
                <path d="M910.08537,293.52964 C910.08537,293.52964 931.19672,292.47407 935.41899,318.33548 C939.64126,344.19689 954.41921,426.00337 935.41899,438.1424 C916.41877,450.28143 872.61272,469.8094 872.61272,469.8094 C872.61272,469.8094 846.75131,452.39254 858.89034,446.05913 C871.02937,439.72572 900.05748,421.78107 904.27975,415.44767 C908.50202,409.11427 901.113,343.14132 893.72407,331.53005 C886.33514,319.91878 910.08537,293.52964 910.08537,293.52964 Z" id="Path" fill="#254095" fill-rule="nonzero"></path>
                <path d="M834.89363,174.71489 C828.41426,175.59668 821.46456,177.96689 818.20427,183.63526 C816.60895,186.40891 816.0932,189.66269 814.86427,192.61699 C811.47283,200.76961 803.23627,205.6381 797.28978,212.16545 C789.54008,220.67216 785.69149,233.49114 790.26202,244.05202 C792.03187,248.14154 794.90608,251.64496 797.08576,255.53155 C803.16676,266.37462 803.49121,279.39696 803.66416,291.8276 L804.00422,316.2689 C804.05615,320.00098 804.09758,323.80843 802.97392,327.36772 C801.85026,330.92701 799.34099,334.26045 795.7818,335.3844 C803.861437,338.185346 812.810604,335.12938 817.48954,327.97163 C818.476102,334.222157 816.294417,340.554592 811.66726,344.87105 C821.34326,342.59234 829.45743,335.55469 834.56937,327.0291 C839.68131,318.50351 842.05177,308.58671 843.11408,298.70293 C843.67594,293.47531 843.87394,288.06985 842.22238,283.07825 C841.05917,279.56259 839.03028,276.41069 837.10418,273.24793 C832.13865,265.09425 827.66729,256.42179 826.06699,247.0102 C824.46669,237.59861 826.0734,227.2722 832.18465,219.93796 C836.937034,214.196785 844.048134,210.93619 851.49965,211.08161 C858.978554,211.370629 865.769134,215.527723 869.42785,222.05699 C870.83965,224.71463 872.8493,228.31653 875.71011,227.38274 C876.240146,227.158145 876.757278,226.904239 877.25911,226.6222 C880.44955,225.17026 884.07353,228.03476 885.48036,231.24535 C889.91769,241.372 881.74259,252.42666 880.8976,263.45048 C880.1116,273.70522 885.82886,283.37661 892.66292,291.06248 C904.467713,304.283455 919.886856,313.756755 937.01565,318.31216 C934.508043,317.680488 932.259377,316.283611 930.58195,314.31553 C937.546082,314.594071 944.517917,314.009629 951.33848,312.57553 C943.91223,306.97914 936.43366,301.33509 930.23377,294.4047 C924.03388,287.47431 919.12347,279.0887 917.78639,269.8865 C915.99198,257.53664 920.59172,244.16303 915.33278,232.84568 C910.52487,222.49897 898.60083,216.71717 894.24618,206.17168 C889.82296,195.46013 886.95536,186.15429 875.24406,181.49119 C862.46212,176.4018 848.70371,172.83544 834.89363,174.71489 Z" id="Path" fill="#FF6584" fill-rule="nonzero"></path>
            </g>
        </g>
    </g>
</svg>