<?xml version="1.0" encoding="UTF-8"?>
<svg width="680px" height="769px" viewBox="0 0 680 769" version="1.1" xmlns="http://www.w3.org/2000/svg" xmlns:xlink="http://www.w3.org/1999/xlink">
    <!-- Generator: Sketch 53.2 (72643) - https://sketchapp.com -->
    <title>undraw_post_online_dkuk</title>
    <desc>Created with Sketch.</desc>
    <defs>
        <linearGradient x1="49.9947291%" y1="100.002696%" x2="49.9947291%" y2="-0.00673945276%" id="linearGradient-1">
            <stop stop-color="#808080" stop-opacity="0.25" offset="0%"></stop>
            <stop stop-color="#808080" stop-opacity="0.12" offset="54%"></stop>
            <stop stop-color="#808080" stop-opacity="0.1" offset="100%"></stop>
        </linearGradient>
        <linearGradient x1="50.0011482%" y1="100.009238%" x2="50.0011482%" y2="0%" id="linearGradient-2">
            <stop stop-color="#808080" stop-opacity="0.25" offset="0%"></stop>
            <stop stop-color="#808080" stop-opacity="0.12" offset="54%"></stop>
            <stop stop-color="#808080" stop-opacity="0.1" offset="100%"></stop>
        </linearGradient>
        <linearGradient x1="-0.0534515576%" y1="49.9968928%" x2="99.9767032%" y2="49.9968928%" id="linearGradient-3">
            <stop stop-color="#808080" stop-opacity="0.25" offset="0%"></stop>
            <stop stop-color="#808080" stop-opacity="0.12" offset="54%"></stop>
            <stop stop-color="#808080" stop-opacity="0.1" offset="100%"></stop>
        </linearGradient>
    </defs>
    <g id="Page-1" stroke="none" stroke-width="1" fill="none" fill-rule="evenodd">
        <g id="IllustrationUndraw" transform="translate(-4500.000000, -3000.000000)" fill-rule="nonzero">
            <g id="undraw_post_online_dkuk" transform="translate(4500.000000, 3000.000000)">
                <g id="Group" opacity="0.2" transform="translate(481.000000, 399.000000)">
                    <path d="M24.11,302.05 C23.4982438,303.19011 22.7924642,304.277211 22,305.3 C14.9933333,300.373333 7.86666667,295.536667 0.62,290.79 L1.09,289.86 C2.76680718,286.621099 5.2761824,283.887365 8.36,281.94 C12.36,279.48 16.87,278.94 20.58,280.94 C24.29,282.94 26.36,286.94 26.58,291.61 C26.6931912,295.247074 25.8409565,298.849233 24.11,302.05 L24.11,302.05 Z" id="Path" fill="#3F3D56"></path>
                    <ellipse id="Oval" fill="#3F3D56" transform="translate(22.363804, 277.646311) rotate(-62.090000) translate(-22.363804, -277.646311) " cx="22.3638036" cy="277.646311" rx="17.05" ry="13.02"></ellipse>
                    <ellipse id="Oval" fill="#3F3D56" transform="translate(32.119002, 259.232965) rotate(-62.090000) translate(-32.119002, -259.232965) " cx="32.1190017" cy="259.232965" rx="17.05" ry="13.02"></ellipse>
                    <ellipse id="Oval" fill="#3F3D56" transform="translate(41.874200, 240.819619) rotate(-62.090000) translate(-41.874200, -240.819619) " cx="41.8741997" cy="240.819619" rx="17.05" ry="13.02"></ellipse>
                    <ellipse id="Oval" fill="#3F3D56" transform="translate(51.619398, 222.416273) rotate(-62.090000) translate(-51.619398, -222.416273) " cx="51.6193978" cy="222.416273" rx="17.05" ry="13.02"></ellipse>
                    <path d="M75.25,73.55 C74.7166283,70.7168744 74.3824763,67.84985 74.25,64.97 L107.17,76.05 L74.34,58.97 C75.3029242,41.8172066 83.2895405,25.8186542 96.42,14.74 L128.23,60.74 L103.53,9.58 C123.315525,-2.80319107 148.359447,-3.10250936 168.435279,8.80426938 C188.511111,20.7110481 200.258444,42.8308982 198.880348,66.1313546 C197.502252,89.4318109 183.229401,110.012708 161.89,119.47 C162.703973,123.884374 163.039247,128.373691 162.89,132.86 L112.89,132.46 L162.17,140.58 C158.785586,161.369385 145.136854,179.046166 125.88,187.58 C131.683209,219.587487 111.912439,250.680148 80.4654781,259.001514 C49.0185171,267.32288 16.4569172,250.078197 5.66973167,219.389549 C-5.11745387,188.700901 9.49268218,154.875159 39.23,141.69 C34.1012444,113.365571 49.0162302,85.2088874 75.33,73.54 L75.25,73.55 Z" id="Path" fill="#254095"></path>
                    <path d="M155.64,159.76 C149.10942,172.131002 138.595658,181.936566 125.8,187.59 C131.603209,219.597487 111.832439,250.690148 80.3854781,259.011514 C48.9385171,267.33288 16.3769172,250.088197 5.58973167,219.399549 C-5.19745387,188.710901 9.41268218,154.885159 39.15,141.7 C36.73,128.41 158.92,153.57 155.64,159.76 Z" id="Path" fill="#000000" opacity="0.1"></path>
                </g>
                <g id="Group" opacity="0.2" transform="translate(0.000000, 1.000000)">
                    <path d="M217,620.72 C217.592667,623.134293 218.392292,625.493019 219.39,627.77 C234.796667,621.87 250.38,616.203333 266.14,610.77 C266,610.13 265.86,609.47 265.7,608.77 C264.100114,601.931248 260.707082,595.642229 255.87,590.55 C249.58,584.07 241.42,580.91 233.57,582.83 C225.72,584.75 219.94,591.3 217.33,599.92 C215.365895,606.699667 215.251954,613.881439 217,620.72 L217,620.72 Z" id="Path" fill="#3F3D56"></path>
                    <ellipse id="Oval" fill="#3F3D56" transform="translate(231.872002, 575.749126) rotate(-13.720000) translate(-231.872002, -575.749126) " cx="231.872002" cy="575.749126" rx="25.07" ry="32.81"></ellipse>
                    <ellipse id="Oval" fill="#3F3D56" transform="translate(222.350558, 536.786637) rotate(-13.720000) translate(-222.350558, -536.786637) " cx="222.350558" cy="536.786637" rx="25.07" ry="32.81"></ellipse>
                    <ellipse id="Oval" fill="#3F3D56" transform="translate(212.841487, 497.823862) rotate(-13.720000) translate(-212.841487, -497.823862) " cx="212.841487" cy="497.823862" rx="25.07" ry="32.81"></ellipse>
                    <ellipse id="Oval" fill="#3F3D56" transform="translate(203.332415, 458.871088) rotate(-13.720000) translate(-203.332415, -458.871088) " cx="203.332415" cy="458.871088" rx="25.07" ry="32.81"></ellipse>
                    <path d="M229.38,170.05 C231.677765,165.005421 233.619187,159.806018 235.19,154.49 L168.64,159.6 L238,143.19 C244.296426,110.713368 236.943445,77.0770036 217.67,50.19 L136.55,121.05 L206.81,37.22 C175.718945,4.81295539 129.141988,-7.53444321 86.080121,5.21490443 C43.0182538,17.9642521 10.6710137,53.6787753 2.23440218,97.7887952 C-6.20220935,141.898815 10.6823296,187.029553 46,214.77 C42.4175525,222.625864 39.6982974,230.847335 37.89,239.29 L131.48,262.17 L35.68,254.05 C32.1425756,294.496582 49.272968,333.993534 81.22,359.05 C55.2779914,416.049208 77.5009385,483.414517 132.266511,513.789335 C187.032084,544.164152 255.945828,527.346297 290.562627,475.158418 C325.179426,422.970539 313.87232,352.941305 264.59,314.3 C287.551501,263.853066 273.001673,204.244639 229.38,170.05 Z" id="Path" fill="#254095"></path>
                    <path d="M38.66,292.99 C45.0069179,319.156135 60.003673,342.412381 81.22,358.99 C55.2779914,415.989208 77.5009385,483.354517 132.266511,513.729335 C187.032084,544.104152 255.945828,527.286297 290.562627,475.098418 C325.179426,422.910539 313.87232,352.881305 264.59,314.24 C275.38,290.6 35.46,279.9 38.66,292.99 Z" id="Path" fill="#000000" opacity="0.1"></path>
                </g>
                <path d="M560,168.31 L557.77,168.31 L557.77,48.05 C557.77,21.53 535.94,0.05 509.01,0.05 L235.88,0.05 C208.95,0.05 187.12,21.55 187.12,48.05 L187.12,97.9 L186.95,97.9 L186.47,97.9 C184.899843,97.8888945 183.616489,99.1498899 183.6,100.72 L183.6,124.72 C183.616489,126.29011 184.899843,127.551106 186.47,127.54 L187,127.54 L187.17,127.54 L187.17,152.05 L186.29,152.05 C185.53678,152.044677 184.812297,152.338797 184.275938,152.867654 C183.73958,153.39651 183.435286,154.116779 183.43,154.87 L183.43,200.76 C183.441009,202.330103 184.719868,203.595548 186.29,203.59 L187.17,203.59 L187.17,221.59 L186.41,221.59 C185.655055,221.582006 184.927998,221.874944 184.389471,222.404089 C183.850944,222.933234 183.545274,223.655031 183.54,224.41 L183.54,270.75 C183.545274,271.504969 183.850944,272.226766 184.389471,272.755911 C184.927998,273.285056 185.655055,273.577994 186.41,273.57 L187.17,273.57 L187.17,693.95 C187.17,720.47 209,741.95 235.93,741.95 L509,741.95 C535.93,741.95 557.76,720.45 557.76,693.95 L557.76,258.25 L560,258.25 C561.570157,258.261106 562.853511,257.00011 562.87,255.43 L562.87,171.13 C562.853511,169.55989 561.570157,168.298894 560,168.31 Z" id="Path" fill="url(#linearGradient-1)"></path>
                <g id="Group" opacity="0.9" transform="translate(188.000000, 5.000000)">
                    <rect id="Rectangle" fill="#E5E7EB" x="359.18" y="166.26" width="10.77" height="88.82" rx="2.29"></rect>
                    <rect id="Rectangle" fill="#E5E7EB" x="1.05" y="96.68" width="6.05" height="29.24" rx="2.29"></rect>
                    <rect id="Rectangle" fill="#E5E7EB" x="0.83" y="150.21" width="6.82" height="50.89" rx="2.29"></rect>
                    <rect id="Rectangle" fill="#E5E7EB" x="0.94" y="218.91" width="6.49" height="51.33" rx="2.29"></rect>
                    <rect id="Rectangle" fill="#FFFFFF" x="4.47" y="0.05" width="360.52" height="732.71" rx="38.99"></rect>
                    <rect id="Rectangle" fill="#E5E7EB" x="149.96" y="21.93" width="50.35" height="10.22" rx="3.87"></rect>
                    <circle id="Oval" fill="#E5E7EB" cx="213.71" cy="27.04" r="5.8"></circle>
                </g>
                <path d="M502.1,24.14 L460.83,24.14 L460.83,29.14 C460.824479,42.158969 450.26897,52.7100012 437.25,52.71 L305.67,52.71 C292.65103,52.7100012 282.095521,42.158969 282.09,29.14 L282.09,24.14 L243.37,24.14 C227.558088,24.14 214.74,36.9580876 214.74,52.77 L214.74,690.05 C214.74,705.861912 227.558088,718.68 243.37,718.68 L502.1,718.68 C517.911912,718.68 530.73,705.861912 530.73,690.05 L530.73,52.77 C530.73,36.9580876 517.911912,24.14 502.1,24.14 Z" id="Path" fill="#ECECF3"></path>
                <ellipse id="Oval" fill="#254095" cx="87.26" cy="753.55" rx="57.19" ry="9.67"></ellipse>
                <path d="M110.91,737.73 C113.36,735.45 115.66,732.73 116.36,729.5 C117.06,726.27 115.68,722.31 112.55,721.12 C109.05,719.78 105.31,722.2 102.48,724.65 C99.65,727.1 96.39,729.9 92.68,729.38 C96.5788889,725.853401 98.3307693,720.533157 97.29,715.38 C97.1300263,714.337403 96.6873187,713.358604 96.01,712.55 C94.07,710.47 90.55,711.36 88.22,713 C80.83,718.2 78.76,728.25 78.72,737.3 C77.97,734.03 78.6,730.63 78.58,727.3 C78.56,723.97 77.65,720.24 74.83,718.44 C73.0673884,717.497419 71.0877662,717.035277 69.09,717.1 C65.77,716.98 62.09,717.31 59.8,719.74 C56.97,722.74 57.71,727.83 60.16,731.16 C62.61,734.49 66.35,736.57 69.79,738.87 C72.4,740.62 75.05,742.66 76.66,745.43 C76.8717372,745.800446 77.0427341,746.192733 77.17,746.6 L98,746.6 C102.682051,744.236361 107.024419,741.252875 110.91,737.73 L110.91,737.73 Z" id="Path" fill="#254095"></path>
                <g id="Group" opacity="0.4" transform="translate(587.000000, 676.000000)" fill="#254095">
                    <ellipse id="Oval" cx="33.02" cy="24.35" rx="32.64" ry="5.52"></ellipse>
                    <path d="M46.51,15.32 C47.9983566,14.1063405 49.08577,12.4717352 49.63,10.63 C50.03,8.76 49.23,6.52 47.45,5.84 C45.45,5.08 43.32,6.46 41.7,7.84 C40.08,9.22 38.23,10.84 36.11,10.54 C38.3406145,8.52665086 39.3408252,5.48418494 38.74,2.54 C38.6495945,1.94634205 38.3969726,1.38918966 38.01,0.93 C36.9,-0.26 34.89,0.25 33.57,1.18 C29.35,4.18 28.17,9.89 28.14,15.05 C27.72,13.19 28.08,11.25 28.07,9.34 C28.06,7.43 27.53,5.34 25.92,4.28 C24.915025,3.74557765 23.7876528,3.48355842 22.65,3.52 C20.75,3.45 18.65,3.64 17.34,5.02 C15.73,6.75 16.15,9.64 17.55,11.54 C18.95,13.44 21.08,14.63 23.05,15.94 C24.6186099,16.8795429 25.9578142,18.1572532 26.97,19.68 C27.0905034,19.8922428 27.1877338,20.1168784 27.26,20.35 L39.16,20.35 C41.8260408,19.0131709 44.2985537,17.3210975 46.51,15.32 Z" id="Path"></path>
                </g>
                <g id="Group" opacity="0.4" transform="translate(87.000000, 614.000000)" fill="#254095">
                    <ellipse id="Oval" cx="33.1" cy="24.32" rx="32.64" ry="5.52"></ellipse>
                    <path d="M46.6,15.29 C48.0915299,14.0769832 49.1766705,12.43706 49.71,10.59 C50.11,8.73 49.32,6.49 47.53,5.81 C45.53,5.05 43.4,6.43 41.79,7.81 C40.18,9.19 38.31,10.81 36.2,10.51 C38.4219114,8.49099543 39.4204641,5.45357302 38.83,2.51 C38.7355018,1.91455883 38.4834588,1.35523053 38.1,0.89 C36.99,-0.29 34.98,0.22 33.65,1.15 C29.43,4.15 28.25,9.85 28.23,15.01 C27.8,13.15 28.16,11.21 28.15,9.3 C28.14,7.39 27.62,5.3 26.01,4.3 C25.0040237,3.75772232 23.8721956,3.49201879 22.73,3.53 C20.84,3.46 18.73,3.65 17.43,5.04 C15.82,6.77 16.24,9.66 17.64,11.56 C19.04,13.46 21.17,14.64 23.13,15.96 C24.7027744,16.894063 26.0430925,18.1728358 27.05,19.7 C27.1697848,19.9139377 27.2701852,20.1381652 27.35,20.37 L39.24,20.37 C41.9106483,19.015402 44.3863144,17.3066542 46.6,15.29 L46.6,15.29 Z" id="Path"></path>
                </g>
                <rect id="Rectangle" fill="#D6D8E0" x="238.98" y="77.05" width="51.09" height="51.09"></rect>
                <rect id="Rectangle" fill="#D6D8E0" x="327.77" y="80.7" width="107.04" height="9.73"></rect>
                <rect id="Rectangle" fill="#D6D8E0" x="327.77" y="97.73" width="176.37" height="9.73"></rect>
                <rect id="Rectangle" fill="#D6D8E0" x="327.77" y="114.76" width="176.37" height="9.73"></rect>
                <rect id="Rectangle" fill="#D6D8E0" x="239.37" y="170.71" width="51.09" height="51.09"></rect>
                <rect id="Rectangle" fill="#D6D8E0" x="328.16" y="174.36" width="107.04" height="9.73"></rect>
                <rect id="Rectangle" fill="#D6D8E0" x="328.16" y="191.39" width="176.37" height="9.73"></rect>
                <rect id="Rectangle" fill="#D6D8E0" x="328.16" y="208.41" width="176.37" height="9.73"></rect>
                <rect id="Rectangle" fill="#D6D8E0" x="239.76" y="264.37" width="51.09" height="51.09"></rect>
                <rect id="Rectangle" fill="#D6D8E0" x="328.56" y="268.01" width="107.04" height="9.73"></rect>
                <rect id="Rectangle" fill="#D6D8E0" x="328.56" y="285.04" width="176.37" height="9.73"></rect>
                <rect id="Rectangle" fill="#D6D8E0" x="328.56" y="302.07" width="176.37" height="9.73"></rect>
                <rect id="Rectangle" fill="#D6D8E0" x="240.15" y="358.02" width="51.09" height="51.09"></rect>
                <rect id="Rectangle" fill="#D6D8E0" x="328.95" y="361.67" width="107.04" height="9.73"></rect>
                <rect id="Rectangle" fill="#D6D8E0" x="328.95" y="378.7" width="176.37" height="9.73"></rect>
                <rect id="Rectangle" fill="#D6D8E0" x="328.95" y="395.73" width="176.37" height="9.73"></rect>
                <rect id="Rectangle" fill="#D6D8E0" x="240.55" y="451.68" width="51.09" height="51.09"></rect>
                <rect id="Rectangle" fill="#D6D8E0" x="329.34" y="455.33" width="107.04" height="9.73"></rect>
                <rect id="Rectangle" fill="#D6D8E0" x="329.34" y="472.36" width="176.37" height="9.73"></rect>
                <rect id="Rectangle" fill="#D6D8E0" x="329.34" y="489.39" width="176.37" height="9.73"></rect>
                <rect id="Rectangle" fill="#D6D8E0" x="240.94" y="545.34" width="51.09" height="51.09"></rect>
                <rect id="Rectangle" fill="#D6D8E0" x="329.73" y="548.99" width="107.04" height="9.73"></rect>
                <rect id="Rectangle" fill="#D6D8E0" x="329.73" y="566.02" width="176.37" height="9.73"></rect>
                <rect id="Rectangle" fill="#D6D8E0" x="329.73" y="583.05" width="176.37" height="9.73"></rect>
                <rect id="Rectangle" fill="#D6D8E0" x="241.33" y="639" width="51.09" height="51.09"></rect>
                <rect id="Rectangle" fill="#D6D8E0" x="330.12" y="642.65" width="107.04" height="9.73"></rect>
                <rect id="Rectangle" fill="#D6D8E0" x="330.12" y="659.68" width="176.37" height="9.73"></rect>
                <rect id="Rectangle" fill="#D6D8E0" x="330.12" y="676.71" width="176.37" height="9.73"></rect>
                <rect id="Rectangle" fill="url(#linearGradient-2)" x="155.01" y="231.1" width="435.45" height="108.25"></rect>
                <rect id="Rectangle" fill="#FFFFFF" x="157.44" y="233.54" width="431.8" height="103.39"></rect>
                <rect id="Rectangle" fill="#254095" x="240.76" y="259.69" width="51.09" height="51.09"></rect>
                <g id="Group" opacity="0.5" transform="translate(329.000000, 263.000000)" fill="#254095">
                    <rect id="Rectangle" x="0.56" y="0.34" width="107.04" height="9.73"></rect>
                    <rect id="Rectangle" x="0.56" y="17.37" width="176.37" height="9.73"></rect>
                    <rect id="Rectangle" x="0.56" y="34.4" width="176.37" height="9.73"></rect>
                </g>
                <path d="M310.18,325.59 C307.46,322.9 302.94,322.01 299.67,323.99 C297.13,325.52 295.73,328.37 294.45,331.06 C292.58,335.06 289.84,338.8 289,343.12 C286.69,355.03 277.21,364.28 273.41,375.79 C272.05,379.9 271.41,384.31 269.26,388.06 C268.243929,389.701913 267.107479,391.266204 265.86,392.74 C260.939677,398.945991 256.588741,405.582841 252.86,412.57 C250.7,412.99 248.78,414.82 246.94,416.25 C244.582373,418.082829 241.85161,419.376528 238.94,420.04 C237.767903,420.178139 236.644514,420.589135 235.66,421.24 C234.28,422.39 234.09,424.46 232.97,425.85 C232.156391,426.760985 231.123835,427.449355 229.97,427.85 C229.97,427.5 229.92,427.15 229.91,426.79 C229.86,424.94 229.83,423.08 229.83,421.22 C236.491458,413.376095 236.466024,401.854418 229.77,394.04 C229.848779,391.144079 230.234266,388.264664 230.92,385.45 C231.27,384.08 231.22,382.4 230.11,381.51 C229.56,381.08 228.85,380.92 228.26,380.51 C227.428632,379.807096 226.748282,378.943051 226.26,377.97 C223.200557,373.634139 217.44443,372.163317 212.68,374.5 C209.07,376.4 206.88,380.2 203.68,382.78 C202.04,384.1 200.15,385.09 198.51,386.42 C195.227926,389.284034 192.894657,393.078648 191.82,397.3 C190.768454,401.50506 190.158485,405.808353 190,410.14 C189.829182,411.439133 189.879901,412.757826 190.15,414.04 C190.47348,415.113332 190.97001,416.126658 191.62,417.04 C194.667603,421.999466 198.950671,426.082681 204.05,428.89 C204.070365,429.146263 204.070365,429.403737 204.05,429.66 C204.05,430.06 203.92,430.45 203.83,430.85 L203.25,430.69 C201.11,430.21 198.8,430.27 196.88,429.2 C193.6,427.36 192.61,422.87 189.47,420.81 C189.203123,420.636695 188.922131,420.486163 188.63,420.36 C188.408279,414.67219 187.322523,409.051213 185.41,403.69 C184.49,401.13 183.36,398.52 183.5,395.79 C183.62,393.26 184.83,390.93 185.91,388.64 C189.68,380.74 192.32,372.36 194.91,364.01 C196.57,358.763333 198.236667,353.513333 199.91,348.26 C201.538556,347.051187 203.012873,345.647396 204.3,344.08 C206.968534,340.973439 208.729633,337.191746 209.39,333.15 C210.030506,329.0762 209.019057,324.915221 206.58,321.59 C205.50092,319.998229 203.788183,318.948722 201.88,318.71 C200.204287,318.746311 198.617069,319.469417 197.49,320.71 C195.832243,322.601027 194.555507,324.794568 193.73,327.17 C192.09,331.04 190.43,335.06 190.59,339.26 C190.72,342.74 192.02,346.63 189.99,349.46 C183.34,358.73 178.32,369.39 173.05,379.53 C171.717979,381.951736 170.574593,384.472534 169.63,387.07 C168.355875,391.282778 167.751837,395.669645 167.84,400.07 C167.79,408.32 168.92,416.53 170.04,424.71 C170.55,428.4 171.2,432.32 172.95,435.51 C171.803543,439.463162 171.201332,443.554159 171.16,447.67 C171.11358,448.620344 171.263357,449.570067 171.6,450.46 C172.188542,451.495329 172.934066,452.433137 173.81,453.24 C176.181698,455.934191 177.275206,459.520899 176.81,463.08 C176.516724,466.393442 176.818132,469.73263 177.7,472.94 C179.7,481.82 181.7,490.69 183.3,499.64 C183.679897,501.304817 183.807988,503.017192 183.68,504.72 C183.37,507.14 182.03,509.44 182.32,511.87 C182.606479,512.99509 182.820254,514.137451 182.96,515.29 C182.894804,516.169413 182.692353,517.033202 182.36,517.85 C180.08,524.48 173.95,539.68 174.02,546.7 L175.62,546.32 C174.01,555.43 170.24,564.14 168.26,573.22 C166.886726,579.835586 166.262795,586.584777 166.4,593.34 C166.531827,596.373764 166.478394,599.412745 166.24,602.44 C165.93,605.13 165.24,607.76 164.86,610.44 C164.429877,614.032956 164.269428,617.653079 164.38,621.27 C164.275894,626.953946 164.610218,632.637459 165.38,638.27 C166.91,647.87 164.23,657.41 163.5,667.1 C163.130117,673.879238 162.362127,680.630879 161.2,687.32 C160.65,690.14 159.96,692.94 159.58,695.79 C158.46,704.25 160.09,712.97 158.33,721.32 C157.5,725.23 156.02,729.62 158.2,732.96 C158.89,734.01 159.88,734.83 160.63,735.84 C161.465655,736.812771 161.731216,738.151957 161.33,739.37 C160.9,740.29 159.9,740.89 159.65,741.87 C159.25,743.41 160.86,744.67 162.3,745.33 L162.71,745.49 C162.519773,746.55591 162.804687,747.651731 163.49,748.49 C164.3457,749.296945 165.408407,749.850799 166.56,750.09 L185.44,755.81 C189.65,757.09 194.23,758.35 198.44,757.31 C198.534907,757.90911 198.794585,758.470014 199.19,758.93 C200.0457,759.736945 201.108407,760.290799 202.26,760.53 L221,766.21 C225.82,767.67 231.11,769.11 235.74,767.13 C237.066589,766.583722 238.230495,765.705628 239.12,764.58 C240.608474,762.391361 241.048096,759.654715 240.32,757.11 C240.085492,755.830907 239.447706,754.660464 238.5,753.77 C237.217477,752.877827 235.701788,752.380709 234.14,752.34 C232.807405,752.299996 231.501267,751.958075 230.32,751.34 C229.963534,751.108023 229.66573,750.796527 229.45,750.43 C230.53,749.363333 231.576667,748.256667 232.59,747.11 C231.77,746.83 231.48,745.65 231.4,744.79 C230.21,732.05 235.01,719.6 236.83,706.94 C237.749285,700.58826 237.910415,694.149772 237.31,687.76 C237.09,685.35 236.76,682.95 236.66,680.53 C236.19,667.93 242.21,655.81 242,643.2 C241.9,637.3 245,631.48 246.51,625.77 C247.83,620.71 247.87,615.41 247.9,610.17 L248.14,568.91 C248.14,563.33 248.14,557.62 246.36,552.35 C245.461531,549.418764 245.215777,546.32635 245.64,543.29 C250.73,541.04 255.55,537.71 260.99,538.29 C262.44,534.44 260.72,521.61 259.36,517.72 C254.013399,502.414929 252.975613,485.934881 256.36,470.08 C257.59,464.39 255.9,458.34 257.27,452.67 C257.521511,451.339108 258.027422,450.069237 258.76,448.93 C259.514826,447.775678 260.811081,447.091649 262.19,447.12 C262.19,443.65 262.12,440.12 261.89,436.6 C264.098625,434.796609 265.982463,432.628674 267.46,430.19 C270.46,425.19 272.17,419.56 274.24,414.12 C277.91,404.52 282.92,395.51 287.13,386.12 C291.34,376.73 291.75,366.46 295.13,356.74 C296.991557,351.386539 300.840524,346.95396 305.88,344.36 C307.88,343.36 310.01,342.64 311.46,341 C312.557438,339.632881 313.231708,337.975011 313.4,336.23 C314.032241,332.376061 312.843083,328.44667 310.18,325.59 L310.18,325.59 Z M193.18,738.72 C193.59,738.27 193.99,737.82 194.37,737.33 C193.11,737.13 191.57,736.21 191.54,734.93 C191.63014,733.646864 191.906362,732.383651 192.36,731.18 C192.951671,729.0091 193.047367,726.732902 192.64,724.52 C192.36,722.97 191.84,721.52 191.52,719.94 C191.214853,718.227141 191.014481,716.497261 190.92,714.76 C190.380711,708.525447 189.160097,702.368728 187.28,696.4 C185.47,690.61 187.95,684.75 188.59,678.72 C188.9,675.86 188.76,672.91 189.76,670.22 C190.35,668.62 191.32,667.22 191.91,665.6 C193.28,661.89 192.47,657.76 191.63,653.89 C197.55,643.16 199.51,630.36 201.74,618.28 C202.993333,611.5 204.246667,604.723333 205.5,597.95 C206.05,594.95 206.66,591.79 208.5,589.37 C210.447662,598.345112 211.214151,607.536258 210.78,616.71 C210.5498,619.373453 210.583296,622.053133 210.88,624.71 C211.34,627.62 212.55,630.37 213.25,633.23 C214.81,639.54 213.9,646.17 214.25,652.66 C214.38,655.28 214.72,657.9 214.83,660.52 C215.32,672.11 211.44,683.38 207.61,694.33 C205.26,701.04 204.74,708.67 203.61,715.7 C202.55,722.43 201.5,729.17 200.96,735.96 C200.8,738.03 200.67,740.16 200.42,742.26 C199.776789,742.117739 199.125618,742.014219 198.47,741.95 C197.137405,741.909996 195.831267,741.568075 194.65,740.95 C193.94322,740.374722 193.430102,739.596317 193.18,738.72 L193.18,738.72 Z" id="Shape" fill="url(#linearGradient-3)"></path>
                <path d="M234.16,752.44 C235.719672,752.484065 237.233524,752.977109 238.52,753.86 C239.465117,754.744321 240.102815,755.907596 240.34,757.18 C241.066935,759.711759 240.626981,762.435805 239.14,764.61 C238.249009,765.726916 237.084784,766.594918 235.76,767.13 C231.13,769.13 225.84,767.68 221.02,766.23 L202.14,760.54 C200.989128,760.304643 199.926273,759.754174 199.07,758.95 C198.006032,757.517766 197.973847,755.566545 198.99,754.1 C200.005402,752.689812 201.389242,751.586199 202.99,750.91 C208.87,748.05 215.49,747.39 221.99,747.27 C224.39,747.22 226.75,746.7 228.38,748.55 C229.24,749.55 229.09,750.61 230.38,751.46 C231.548957,752.070191 232.841822,752.405378 234.16,752.44 L234.16,752.44 Z" id="Path" fill="#3F3D56"></path>
                <path d="M198.49,742.05 C200.049729,742.084814 201.565242,742.574922 202.85,743.46 C203.789611,744.348583 204.426261,745.509945 204.67,746.78 C205.39837,749.311672 204.958317,752.036339 203.47,754.21 C202.579609,755.329925 201.415461,756.201315 200.09,756.74 C195.46,758.74 190.17,757.28 185.35,755.83 L166.47,750.14 C165.317699,749.908698 164.253786,749.357681 163.4,748.55 C162.336032,747.117766 162.303847,745.166545 163.32,743.7 C164.333127,742.287648 165.717639,741.1835 167.32,740.51 C173.2,737.65 179.81,736.99 186.27,736.87 C188.66,736.87 191.03,736.3 192.66,738.15 C193.52,739.15 193.37,740.22 194.66,741.06 C195.845114,741.676065 197.154793,742.014598 198.49,742.05 Z" id="Path" fill="#3F3D56"></path>
                <path d="M214.89,537.16 C203.767113,536.042158 192.578086,535.728009 181.41,536.22 C180.672712,536.210762 179.93913,536.325701 179.24,536.56 C176.78,537.56 176.4,540.78 176.16,543.42 C175.22,554.09 170.51,564.04 168.16,574.51 C166.785322,581.084825 166.161329,587.794433 166.3,594.51 C166.430617,597.510451 166.377183,600.516088 166.14,603.51 C165.83,606.19 165.14,608.8 164.76,611.51 C164.329886,615.079513 164.169432,618.676368 164.28,622.27 C164.17689,627.910726 164.511225,633.550957 165.28,639.14 C166.81,648.68 164.13,658.14 163.4,667.78 C163.029534,674.516109 162.26153,681.224456 161.1,687.87 C160.55,690.67 159.86,693.45 159.48,696.28 C158.36,704.69 159.99,713.36 158.23,721.65 C157.4,725.53 155.92,729.89 158.1,733.21 C158.79,734.26 159.78,735.07 160.53,736.07 C161.364004,737.03566 161.629771,738.368288 161.23,739.58 C160.8,740.49 159.8,741.09 159.55,742.06 C159.15,743.59 160.76,744.85 162.2,745.5 C173.05,750.39 187.04,746.94 194.36,737.55 C193.1,737.35 191.56,736.44 191.53,735.17 C191.620084,733.893347 191.896339,732.636724 192.35,731.44 C192.942441,729.282852 193.038173,727.01947 192.63,724.82 C192.35,723.29 191.83,721.82 191.51,720.27 C191.204864,718.57058 191.004486,716.854009 190.91,715.13 C190.370581,708.934719 189.149876,702.817778 187.27,696.89 C185.46,691.14 187.94,685.32 188.58,679.32 C188.89,676.49 188.75,673.55 189.75,670.88 C190.34,669.29 191.31,667.88 191.9,666.29 C193.27,662.6 192.46,658.51 191.62,654.66 C197.54,643.99 199.5,631.28 201.73,619.28 C202.983333,612.546667 204.236667,605.813333 205.49,599.08 C206.04,596.08 206.65,592.97 208.49,590.56 C210.438002,599.477524 211.204577,608.61254 210.77,617.73 C210.543213,620.356868 210.57671,622.999724 210.87,625.62 C211.33,628.51 212.54,631.24 213.24,634.09 C214.8,640.35 213.89,646.94 214.24,653.39 C214.37,655.99 214.71,658.59 214.82,661.2 C215.31,672.71 211.43,683.91 207.6,694.78 C205.25,701.45 204.73,709.03 203.6,716.01 C202.54,722.7 201.49,729.39 200.95,736.14 C200.46,742.34 200.25,749.05 196.39,753.92 C199.91,756.21 203.56,758.54 207.68,759.33 C212.494886,760.081555 217.421134,759.130255 221.61,756.64 C225.767212,754.147213 229.483942,750.984614 232.61,747.28 C231.79,747 231.5,745.82 231.42,744.97 C230.23,732.32 235.03,719.97 236.85,707.37 C237.769216,701.058516 237.93036,694.659752 237.33,688.31 C237.11,685.92 236.78,683.54 236.68,681.14 C236.21,668.62 242.23,656.57 242.02,644.05 C241.92,638.19 245.02,632.4 246.53,626.73 C247.85,621.73 247.89,616.44 247.92,611.24 L248.16,570.24 C248.16,564.69 248.16,559.02 246.38,553.78 C244.18,547.49 246.69,540.25 247.07,533.6 C236.679831,536.881922 225.746288,538.091475 214.89,537.16 L214.89,537.16 Z" id="Path" fill="#3F3D56"></path>
                <path d="M250.55,419.37 C254.75312,410.774034 259.887206,402.665465 265.86,395.19 C267.104792,393.728176 268.241149,392.177384 269.26,390.55 C271.41,386.83 272.05,382.44 273.41,378.36 C277.21,366.92 286.69,357.73 289,345.9 C289.84,341.61 292.58,337.9 294.45,333.9 C295.73,331.22 297.13,328.4 299.67,326.9 C302.94,324.9 307.46,325.83 310.18,328.5 C312.83265,331.325989 314.01913,335.225479 313.39,339.05 C313.226997,340.787253 312.551793,342.436978 311.45,343.79 C310,345.42 307.83,346.16 305.87,347.14 C300.836358,349.697728 296.985069,354.100737 295.12,359.43 C291.78,369.09 291.36,379.31 287.12,388.62 C282.88,397.93 277.9,406.88 274.23,416.41 C272.16,421.82 270.49,427.41 267.45,432.41 C264.41,437.41 259.63,441.6 253.89,442.35 C253.89793,438.736673 253.33084,435.1451 252.21,431.71 C251,427.74 248.73,423.05 250.55,419.37 Z" id="Path" fill="#A0616A"></path>
                <path d="M188.63,426.83 C188.885489,419.760069 187.785711,412.706558 185.39,406.05 C184.47,403.5 183.34,400.91 183.48,398.2 C183.6,395.69 184.81,393.37 185.89,391.1 C189.66,383.25 192.3,374.92 194.89,366.62 L199.89,350.98 C201.515705,349.779204 202.989797,348.3857 204.28,346.83 C206.943537,343.747259 208.704835,339.989363 209.37,335.97 C210.009304,331.91826 208.997096,327.779375 206.56,324.48 C205.478542,322.895713 203.764785,321.85652 201.86,321.63 C200.182668,321.659189 198.592758,322.383522 197.47,323.63 C195.812974,325.506483 194.536017,327.68682 193.71,330.05 C192.07,333.89 190.41,337.89 190.57,342.05 C190.7,345.51 192,349.37 189.97,352.18 C183.32,361.39 178.3,371.98 173.03,382.05 C171.698251,384.454583 170.554828,386.958745 169.61,389.54 C168.33428,393.731861 167.730137,398.099237 167.82,402.48 C167.77,410.68 168.9,418.83 170.02,426.96 C170.72,432.04 171.66,437.58 175.51,440.96 C179.52,435.87 183.54,430.85 188.63,426.83 Z" id="Path" fill="#A0616A"></path>
                <circle id="Oval" fill="#A0616A" cx="214.08" cy="409.99" r="20.75"></circle>
                <path d="M204,431.84 C203.5,435.6 201.49,438.95 199.53,442.19 C198.34,444.19 196.84,446.32 194.53,446.54 C200.536511,449.699434 206.849052,452.239193 213.37,454.12 C215.590544,454.864166 217.918096,455.239141 220.26,455.23 C222.24181,455.082148 224.181771,454.584461 225.99,453.76 C234.006168,450.246484 239.958991,443.238824 242.13,434.76 C239.54986,434.829202 236.969477,434.631485 234.43,434.17 C233.01,433.91 231.48,433.49 230.65,432.32 C230.073506,431.30148 229.802703,430.138418 229.87,428.97 C229.77,425.51 229.77,422.05 229.87,418.59 C224.771976,418.261802 219.657515,418.889239 214.79,420.44 C212.79,421.09 210.79,421.88 208.74,422.39 C207.48,422.7 204.01,422.39 203.08,423.12 C201.67,424.23 204.37,429.29 204,431.84 Z" id="Path" fill="#A0616A"></path>
                <path d="M213.15,444.45 C212.676816,438.858719 208.682378,434.195857 203.23,432.87 C201.09,432.4 198.78,432.45 196.86,431.39 C193.58,429.56 192.59,425.1 189.45,423.05 C186.31,421 181.83,422.14 179.09,424.74 C176.35,427.34 174.96,431.02 173.84,434.62 C172.163087,439.499939 171.255569,444.611056 171.15,449.77 C171.103525,450.717087 171.253326,451.663556 171.59,452.55 C172.18137,453.580446 172.926626,454.514546 173.8,455.32 C176.169265,457.983659 177.264074,461.545438 176.8,465.08 C176.506895,468.376912 176.808348,471.699666 177.69,474.89 C179.69,483.7 181.69,492.52 183.29,501.41 C183.664893,503.048453 183.792973,504.73371 183.67,506.41 C183.36,508.81 182.02,511.1 182.31,513.5 C182.596463,514.621716 182.810241,515.76075 182.95,516.91 C182.884657,517.779695 182.682155,518.63358 182.35,519.44 C180.07,526.04 173.94,541.14 174.01,548.11 C184.66,545.38 200.36,544.77 211.35,544.73 C214.37852,544.688111 217.406925,544.821668 220.42,545.13 C227.65,545.9 235.05,548.01 242.06,546.06 C248.56,544.25 254.33,539.06 261.06,539.72 C262.51,535.89 260.79,523.14 259.43,519.28 C254.083851,504.081987 253.045572,487.701398 256.43,471.95 C257.66,466.29 255.97,460.29 257.34,454.66 C257.589828,453.334845 258.095962,452.07121 258.83,450.94 C259.587186,449.78949 260.883021,449.10946 262.26,449.14 C262.384632,440.100053 261.546577,431.072523 259.76,422.21 C259.09,419.06 257.7,415.34 254.53,414.8 C251.67,414.32 249.26,416.73 246.97,418.51 C244.605827,420.325814 241.876702,421.608503 238.97,422.27 C237.798577,422.404391 236.675084,422.812 235.69,423.46 C234.31,424.6 234.12,426.66 233,428.05 C231,430.54 226.53,430.32 225.11,433.19 C224.790271,434.046103 224.536204,434.925312 224.35,435.82 C223.679384,437.520467 222.538172,438.994676 221.06,440.07 C218.824713,442.159737 216.107417,443.664384 213.15,444.45 Z" id="Path" fill="#254095"></path>
                <path d="M230.94,387.93 C231.29,386.56 231.24,384.93 230.13,384.01 C229.58,383.58 228.87,383.42 228.28,383.01 C227.448497,382.311181 226.768005,381.450359 226.28,380.48 C223.190787,376.164843 217.435352,374.714355 212.67,377.05 C209.06,378.94 206.87,382.72 203.67,385.28 C202.03,386.6 200.14,387.58 198.5,388.89 C195.221858,391.732664 192.888141,395.507076 191.81,399.71 C190.761259,403.891561 190.154598,408.171705 190,412.48 C189.829132,413.772459 189.879859,415.08459 190.15,416.36 C190.47667,417.416589 190.973163,418.412953 191.62,419.31 C194.91,424.31 199.27,428.86 204.72,431.43 C210.17,434 216.8,434.43 222.18,431.74 C222.719367,431.513219 223.18382,431.138884 223.52,430.66 C223.828344,429.930294 223.89834,429.121843 223.72,428.35 C223.435735,425.296079 224.043643,422.22528 225.47,419.51 C226.47,417.51 227.96,415.79 228.77,413.71 C229.504825,411.390944 229.823074,408.960062 229.71,406.53 C229.79,400.26 229.36,393.99 230.94,387.93 Z" id="Path" fill="#2D293D"></path>
                <rect id="Rectangle" fill="#254095" x="240.55" y="260.3" width="51.09" height="51.09"></rect>
                <path d="M273,303.82 C272.260094,305.247385 271.03227,306.361653 269.54,306.96 C268.657924,307.282503 267.72893,307.458167 266.79,307.48 C265.775414,307.554505 264.756079,307.428787 263.79,307.11 C262.503428,306.603818 261.398896,305.722283 260.62,304.58 C259.850848,303.437633 259.232403,302.200742 258.78,300.9 C258.476186,300.251177 258.348574,299.533793 258.41,298.82 C259.200185,298.723599 259.919658,298.317096 260.41,297.69 C260.700741,297.058517 260.718823,296.335222 260.46,295.69 C260.4,295.49 260.34,295.3 260.27,295.12 C260.12,294.68 259.6,293.85 259.96,293.48 C260.32,293.11 261.16,293.12 261.49,292.97 C262.468149,292.3855 263.512088,291.918916 264.6,291.58 C265.586256,291.448592 266.58875,291.513159 267.55,291.77 C267.681426,291.791562 267.80722,291.83916 267.92,291.91 C268.046333,292.014831 268.140022,292.15363 268.19,292.31 C268.47,292.99 268.63,293.74 268.85,294.44 C269.041971,295.174145 269.420963,295.845994 269.95,296.39 C270.406701,296.777655 270.923458,297.088384 271.48,297.31 L272.82,297.92 C273.055084,298.013588 273.269231,298.152953 273.45,298.33 C273.621383,298.571665 273.724966,298.854793 273.75,299.15 C273.9982,300.746806 273.735715,302.38121 273,303.82 Z" id="Path" fill="#A0616A"></path>
                <path d="M268.84,294.47 C266.651352,296.742932 263.206162,297.25622 260.45,295.72 C260.39,295.52 260.33,295.33 260.26,295.15 C260.11,294.71 259.59,293.88 259.95,293.51 C260.31,293.14 261.15,293.15 261.48,293 C262.458149,292.4155 263.502088,291.948916 264.59,291.61 C265.576256,291.478592 266.57875,291.543159 267.54,291.8 C267.671426,291.821562 267.79722,291.86916 267.91,291.94 C268.036333,292.044831 268.130022,292.18363 268.18,292.34 C268.46,293.05 268.62,293.77 268.84,294.47 Z" id="Path" fill="#000000" opacity="0.1"></path>
                <circle id="Oval" fill="#A0616A" cx="263.84" cy="289.36" r="6.94"></circle>
                <path d="M284.89,311.38 L252.23,311.38 C251.23,309.15 250.33,306.91 249.32,304.68 L249.32,304.68 C249.427847,304.149467 249.627513,303.641842 249.91,303.18 C250.20355,302.72208 250.706174,302.440761 251.25,302.43 C251.54,302.43 251.87,302.54 252.08,302.33 C252.29,302.12 252.22,301.95 252.37,301.81 C252.52,301.67 252.88,301.67 253.16,301.69 C253.770359,301.709556 254.34943,301.420021 254.7,300.92 C254.807163,300.733693 254.938279,300.562233 255.09,300.41 C255.35288,300.282334 255.638289,300.207584 255.93,300.19 C256.74,300.01 257.22,299.19 257.83,298.68 C258.129375,298.342101 258.599944,298.212695 259.03,298.35 C259.127929,298.400514 259.213341,298.47226 259.28,298.56 C259.444121,298.811958 259.556312,299.094135 259.61,299.39 C259.972072,301.050872 260.893441,302.537064 262.22,303.6 C263.647514,304.679241 265.486614,305.054818 267.222979,304.621698 C268.959344,304.188577 270.406597,302.99325 271.16,301.37 C271.643321,300.161402 271.9205,298.880296 271.98,297.58 C271.98,297.51 271.98,297.47 271.98,297.41 C272.803772,297.205771 273.675701,297.377959 274.36,297.88 C275.023729,298.388354 275.733476,298.83362 276.48,299.21 C277.37,299.56 278.48,299.56 279.09,300.21 C279.35,300.47 279.53,300.83 279.86,300.99 C280.065051,301.070385 280.280585,301.120901 280.5,301.14 C281.631917,301.445619 282.558661,302.257904 283.01,303.34 C283.7339,304.944708 284.206111,306.651415 284.41,308.4 L284.89,311.38 Z" id="Path" fill="#F86D70"></path>
                <path d="M259.05,278.1 C258.566958,278.491345 258.157262,278.965373 257.84,279.5 C257.244422,280.482724 256.412513,281.300883 255.42,281.88 C255.003787,282.025628 254.624794,282.261218 254.31,282.57 C254.155352,282.804603 254.056177,283.07135 254.02,283.35 C253.81699,284.320291 253.713123,285.308704 253.71,286.3 C253.672948,286.798819 253.755217,287.299291 253.95,287.76 C254.15,288.18 254.53,288.54 254.6,289 C254.614568,289.363987 254.574112,289.728088 254.48,290.08 C254.384065,290.457807 254.531258,290.855624 254.85,291.08 C255.031145,291.144386 255.219015,291.187999 255.41,291.21 C256.41,291.43 256.75,292.61 256.9,293.58 C257.24,293.58 257.39,293.17 257.47,292.85 L258.47,288.2 C258.59,287.7 258.77,287.11 259.28,286.94 C259.629369,286.865151 259.990631,286.865151 260.34,286.94 C261.72,287.06 262.88,285.99 264.23,285.69 C264.664935,285.60833 265.108386,285.581454 265.55,285.61 C266.61,285.61 267.85,286.1 268.08,287.09 C268.08,287.25 268.14,287.45 268.29,287.53 C268.443475,287.574722 268.606525,287.574722 268.76,287.53 C269.43,287.46 269.83,288.22 270.03,288.84 L270.73,291.11 C270.84,291.45 271.02,291.86 271.39,291.9 C271.740211,291.897903 272.034978,291.637311 272.08,291.29 C272.094996,290.950904 272.047541,290.61194 271.94,290.29 C271.61,288.81 272.12,287.29 272.43,285.8 C272.74,284.31 272.79,282.6 271.75,281.45 C271.37,281.04 270.87,280.73 270.52,280.29 C270.17,279.85 270.01,279.38 269.67,278.97 C268.311682,277.77845 266.617103,277.037727 264.82,276.85 C262.814458,276.672689 260.802352,277.108587 259.05,278.1 Z" id="Path" fill="#3F3D56"></path>
                <g id="Group" opacity="0.1" transform="translate(253.000000, 283.000000)" fill="#000000">
                    <path d="M18.43,7.82 C18.06,7.82 17.88,7.37 17.77,7.03 L17.07,4.76 C16.87,4.14 16.47,3.38 15.8,3.44 C15.646525,3.48472226 15.483475,3.48472226 15.33,3.44 C15.18,3.36 15.16,3.17 15.12,3 C14.89,2 13.65,1.57 12.59,1.52 C12.1479545,1.4898132 11.7038572,1.52009256 11.27,1.61 C9.92,1.9 8.76,2.97 7.38,2.85 C7.02962573,2.78533049 6.67037427,2.78533049 6.32,2.85 C5.81,3.03 5.63,3.61 5.51,4.12 C5.16,5.67 4.82,7.22 4.51,8.76 C4.43,9.08 4.28,9.47 3.94,9.49 C3.79,8.49 3.45,7.34 2.45,7.12 C2.25821586,7.10279632 2.0697495,7.0590452 1.89,6.99 C1.75686913,6.91835922 1.65393989,6.80123285 1.6,6.66 C1.6,6.8 1.54,6.95 1.52,7.09 C1.42406522,7.46780664 1.57125761,7.86562391 1.89,8.09 C2.07114542,8.15438638 2.25901512,8.19799899 2.45,8.22 C3.45,8.44 3.79,9.62 3.94,10.59 C4.28,10.59 4.43,10.18 4.51,9.86 C4.86,8.31 5.2,6.76 5.51,5.21 C5.63,4.71 5.81,4.12 6.32,3.95 C6.66936941,3.87515117 7.03063059,3.87515117 7.38,3.95 C8.76,4.07 9.92,3 11.27,2.7 C11.7049346,2.61832965 12.1483856,2.59145383 12.59,2.62 C13.65,2.62 14.89,3.11 15.12,4.1 C15.12,4.26 15.18,4.46 15.33,4.54 C15.483475,4.58472226 15.646525,4.58472226 15.8,4.54 C16.47,4.47 16.87,5.23 17.07,5.85 L17.77,8.12 C17.88,8.46 18.06,8.87 18.43,8.91 C18.7802107,8.9079028 19.0749784,8.64731105 19.12,8.3 C19.1413179,8.02930991 19.1072934,7.75711368 19.02,7.5 C18.9030663,7.71310081 18.6723917,7.83821246 18.43,7.82 Z" id="Path"></path>
                    <path d="M1.6,4.94 C1.53,4.48 1.15,4.12 0.95,3.7 C0.818661032,3.41668902 0.740690709,3.11158776 0.72,2.8 C0.72,2.97 0.72,3.13 0.72,3.3 C0.682947511,3.79881911 0.765216838,4.29929086 0.96,4.76 C1.12,5.1 1.4,5.4 1.54,5.76 C1.61065112,5.49274807 1.63099687,5.21468959 1.6,4.94 Z" id="Path"></path>
                    <path d="M19.47,1.73 C19.0726945,3.02547838 18.8803721,4.37510861 18.9,5.73 C19.0301323,4.74593014 19.2204896,3.77076661 19.47,2.81 C19.6364408,2.07574517 19.6937234,1.32096372 19.64,0.57 C19.6084369,0.959931406 19.5516514,1.34740912 19.47,1.73 Z" id="Path"></path>
                </g>
                <path d="M254.84,311.38 L247.05,311.38 C247.39369,309.282534 248.008855,307.238708 248.88,305.3 C248.948387,305.100595 249.061234,304.919357 249.21,304.77 C249.241997,304.734708 249.27907,304.704375 249.32,304.68 C249.55,304.5 249.87,304.43 250.12,304.26 C250.37,304.09 250.4,303.91 250.63,303.84 C251.495501,303.819648 252.35712,303.96212 253.17,304.26 C253.400037,304.285871 253.625457,304.343067 253.84,304.43 C254.347016,304.711311 254.726514,305.176734 254.9,305.73 C255.56,307.52 255.06,309.46 254.84,311.38 Z" id="Path" fill="#F86D70"></path>
            </g>
        </g>
    </g>
</svg>