<?xml version="1.0" encoding="UTF-8"?>
<svg width="1130px" height="815px" viewBox="0 0 1130 815" version="1.1" xmlns="http://www.w3.org/2000/svg" xmlns:xlink="http://www.w3.org/1999/xlink">
    <!-- Generator: Sketch 53.2 (72643) - https://sketchapp.com -->
    <title>undraw_email_campaign_qa8y</title>
    <desc>Created with Sketch.</desc>
    <defs>
        <linearGradient x1="49.9839354%" y1="100.005935%" x2="49.9839354%" y2="0.022126542%" id="linearGradient-1">
            <stop stop-color="#808080" stop-opacity="0.25" offset="0%"></stop>
            <stop stop-color="#808080" stop-opacity="0.12" offset="54%"></stop>
            <stop stop-color="#808080" stop-opacity="0.1" offset="100%"></stop>
        </linearGradient>
        <linearGradient x1="-0.0138138599%" y1="49.9721766%" x2="100.053787%" y2="49.9721766%" id="linearGradient-2">
            <stop stop-color="#808080" stop-opacity="0.25" offset="0%"></stop>
            <stop stop-color="#808080" stop-opacity="0.12" offset="54%"></stop>
            <stop stop-color="#808080" stop-opacity="0.1" offset="100%"></stop>
        </linearGradient>
    </defs>
    <g id="Page-1" stroke="none" stroke-width="1" fill="none" fill-rule="evenodd">
        <g id="IllustrationUndraw" transform="translate(-1500.000000, -1500.000000)" fill-rule="nonzero">
            <g id="undraw_email_campaign_qa8y" transform="translate(1500.000000, 1500.000000)">
                <path d="M656.54,126.55 C584.1,124.04 515.1,100.65 449.22,75.06 C383.34,49.47 318.07,21.13 247.37,7.57 C201.89,-1.15 149.88,-2.38 113.24,22 C78,45.42 66.58,85.97 60.46,123.55 C55.85,151.82 53.14,181.55 65.76,208.05 C74.53,226.43 90.1,241.88 100.87,259.48 C138.32,320.73 111.87,396.27 71.25,456.07 C52.25,484.13 30.12,510.89 15.43,540.75 C0.74,570.61 -6.06,604.84 6.79,635.3 C19.54,665.5 49.9,688.18 82.79,704.13 C149.6,736.53 228.33,745.81 305.1,751.06 C475.04,762.68 645.89,757.65 816.28,752.61 C879.34,750.74 942.67,748.85 1004.71,739.1 C1039.15,733.69 1074.71,725.1 1099.71,704.35 C1131.46,678.01 1139.33,633.41 1118.05,600.35 C1082.37,544.96 983.7,531.2 958.76,471.75 C945.03,439.03 959.13,402.57 979.08,372.23 C1021.88,307.12 1093.62,250 1097.4,175.59 C1100,124.48 1065.51,73.29 1012.19,49.11 C956.29,23.76 878.79,26.95 837.55,68.91 C795.12,112.15 720.5,128.77 656.54,126.55 Z" id="Path" fill="#1D3A8F" opacity="0.1"></path>
                <g id="Group" opacity="0.9" transform="translate(394.000000, 85.000000)">
                    <rect id="Rectangle" fill="#3A3768" x="330.27" y="153.91" width="9.91" height="81.73" rx="2.29"></rect>
                    <rect id="Rectangle" fill="#3A3768" x="0.7" y="89.88" width="5.56" height="26.91" rx="2.29"></rect>
                    <rect id="Rectangle" fill="#3A3768" x="0.5" y="139.14" width="6.27" height="46.84" rx="2.29"></rect>
                    <rect id="Rectangle" fill="#3A3768" x="0.6" y="202.36" width="5.97" height="47.24" rx="2.29"></rect>
                    <rect id="Rectangle" fill="#3A3768" x="3.85" y="0.95" width="331.77" height="674.27" rx="38.99"></rect>
                    <rect id="Rectangle" fill="#E6E8EC" x="137.73" y="21.09" width="46.33" height="9.41" rx="3.87"></rect>
                    <circle id="Oval" fill="#E6E8EC" cx="196.4" cy="25.79" r="5.34"></circle>
                </g>
                <path d="M682.78,103.52 L644.78,103.52 L644.78,108.1 C644.780001,113.854279 642.493438,119.372731 638.423611,123.440683 C634.353784,127.508634 628.834278,129.792653 623.08,129.79 L502,129.79 C490.019325,129.790001 480.305521,120.080674 480.3,108.1 L480.3,103.52 L444.69,103.52 C430.137297,103.52 418.34,115.317297 418.34,129.87 L418.34,716.31 C418.34,730.862703 430.137297,742.66 444.69,742.66 L682.78,742.66 C697.332703,742.66 709.13,730.862703 709.13,716.31 L709.13,129.87 C709.13,115.317297 697.332703,103.52 682.78,103.52 Z" id="Path" fill="#1D3A8F" opacity="0.5"></path>
                <rect id="Rectangle" fill="#E6E8EC" x="418.58" y="148.47" width="291.02" height="26.86"></rect>
                <rect id="Rectangle" fill="#3A3768" x="427.54" y="154.06" width="24.63" height="2.24"></rect>
                <rect id="Rectangle" fill="#3A3768" x="427.54" y="160.78" width="24.63" height="2.24"></rect>
                <rect id="Rectangle" fill="#3A3768" x="427.54" y="167.5" width="24.63" height="2.24"></rect>
                <path d="M690,164.49 L689.09,164.49 L688.74,164.21 C689.887991,162.835022 690.517824,161.101213 690.52,159.31 C690.492336,155.202432 687.141067,151.89448 683.033487,151.920253 C678.925907,151.946026 675.616412,155.295771 675.640294,159.403363 C675.664177,163.510955 679.012398,166.821991 683.12,166.8 C684.905275,166.788678 686.630833,166.155738 688,165.01 L688.34,165.3 L688.34,166.22 L694.08,171.98 L695.8,170.25 L690,164.49 Z M683.12,164.49 C681.023085,164.498096 679.128139,163.241176 678.320068,161.306198 C677.511997,159.371219 677.950226,157.139936 679.430109,155.654317 C680.909992,154.168698 683.139563,153.721841 685.077653,154.52242 C687.015743,155.323 688.279984,157.213069 688.28,159.31 C688.288,160.68279 687.747571,162.001958 686.778724,162.974559 C685.809878,163.947161 684.492811,164.492689 683.12,164.49 L683.12,164.49 Z" id="Shape" fill="#3A3768"></path>
                <circle id="Oval" fill="#E6E8EC" cx="439.85" cy="224.58" r="12.31"></circle>
                <rect id="Rectangle" fill="#E6E8EC" x="478.47" y="236.89" width="171.26" height="6.72"></rect>
                <rect id="Rectangle" fill="#E6E8EC" x="479.03" y="251.44" width="171.26" height="6.72"></rect>
                <rect id="Rectangle" fill="#E6E8EC" x="479.59" y="266" width="171.26" height="6.72"></rect>
                <circle id="Oval" fill="#E6E8EC" cx="439.85" cy="308.53" r="12.31"></circle>
                <rect id="Rectangle" fill="#E6E8EC" x="478.47" y="320.84" width="171.26" height="6.72"></rect>
                <rect id="Rectangle" fill="#E6E8EC" x="479.03" y="335.39" width="171.26" height="6.72"></rect>
                <rect id="Rectangle" fill="#E6E8EC" x="479.59" y="349.94" width="171.26" height="6.72"></rect>
                <circle id="Oval" fill="#E6E8EC" cx="439.85" cy="392.48" r="12.31"></circle>
                <rect id="Rectangle" fill="#E6E8EC" x="478.47" y="404.79" width="171.26" height="6.72"></rect>
                <rect id="Rectangle" fill="#E6E8EC" x="479.03" y="419.34" width="171.26" height="6.72"></rect>
                <rect id="Rectangle" fill="#E6E8EC" x="479.59" y="433.89" width="171.26" height="6.72"></rect>
                <circle id="Oval" fill="#E6E8EC" cx="439.85" cy="476.43" r="12.31"></circle>
                <rect id="Rectangle" fill="#E6E8EC" x="478.47" y="488.74" width="171.26" height="6.72"></rect>
                <rect id="Rectangle" fill="#E6E8EC" x="479.03" y="503.29" width="171.26" height="6.72"></rect>
                <rect id="Rectangle" fill="#E6E8EC" x="479.59" y="517.84" width="171.26" height="6.72"></rect>
                <circle id="Oval" fill="#E6E8EC" cx="439.85" cy="560.38" r="12.31"></circle>
                <rect id="Rectangle" fill="#E6E8EC" x="478.47" y="572.69" width="171.26" height="6.72"></rect>
                <rect id="Rectangle" fill="#E6E8EC" x="479.03" y="587.24" width="171.26" height="6.72"></rect>
                <rect id="Rectangle" fill="#E6E8EC" x="479.59" y="601.79" width="171.26" height="6.72"></rect>
                <circle id="Oval" fill="#E6E8EC" cx="439.85" cy="644.33" r="12.31"></circle>
                <rect id="Rectangle" fill="#E6E8EC" x="478.47" y="656.64" width="171.26" height="6.72"></rect>
                <rect id="Rectangle" fill="#E6E8EC" x="479.03" y="671.19" width="171.26" height="6.72"></rect>
                <rect id="Rectangle" fill="#E6E8EC" x="479.59" y="685.74" width="171.26" height="6.72"></rect>
                <circle id="Oval" fill="#000000" opacity="0.1" cx="650.28" cy="692.46" r="31.34"></circle>
                <circle id="Oval" fill="#1D3A8F" cx="650.28" cy="692.46" r="27.98"></circle>
                <path d="M314.09,115.85 L259.36,145.42 C259.002041,145.634244 258.789695,146.026903 258.806368,146.443745 C258.823042,146.860587 259.066072,147.235031 259.44,147.42 L268.78,150.93 C269.322272,151.141466 269.762597,151.553152 270.01,152.08 L277.26,167.02 C277.4,167.68 278.62,167.85 278.63,167.18 L277.52,154.84 C277.586524,153.923246 277.935929,153.049735 278.52,152.34 L306.9,124.54 C307.065008,124.382589 307.296351,124.315425 307.52,124.36 C307.722136,124.418435 307.883481,124.571103 307.952991,124.769703 C308.022501,124.968303 307.991576,125.188265 307.87,125.36 L283.41,155.42 C282.878939,156.145008 282.535409,156.990093 282.41,157.88 L281,168.54 C281.12,169.47 281.85,169.82 282.43,168.99 L287.7,162.8 C287.86911,162.557447 288.12875,162.39319 288.420362,162.344275 C288.711974,162.295359 289.011,162.365904 289.25,162.54 L302.83,172.44 C303.132809,172.662576 303.528294,172.715157 303.878741,172.579435 C304.229188,172.443713 304.486093,172.138472 304.56,171.77 L315.7,117.08 C315.79711,116.656976 315.638754,116.216157 315.294653,115.95163 C314.950553,115.687103 314.483839,115.647399 314.1,115.85 L314.09,115.85 Z" id="Path" fill="#1D3A8F"></path>
                <path d="M892,127.47 L837.27,157.08 C836.912895,157.295972 836.702344,157.689813 836.721105,158.106725 C836.739866,158.523638 836.98494,158.896976 837.36,159.08 L846.69,162.6 C847.238078,162.802148 847.681505,163.216734 847.92,163.75 L855.18,178.68 C855.32,179.34 856.53,179.52 856.55,178.85 L855.44,166.5 C855.504624,165.585821 855.854375,164.714941 856.44,164.01 L884.81,136.21 C884.973194,136.049465 885.20621,135.981815 885.43,136.03 C885.633883,136.086006 885.797786,136.237678 885.869403,136.436615 C885.941021,136.635552 885.911402,136.856892 885.79,137.03 L861.32,166.95 C860.78815,167.67831 860.444624,168.526821 860.32,169.42 L858.85,180.08 C858.97,181.01 859.7,181.37 860.29,180.53 L865.56,174.35 C865.72911,174.107447 865.98875,173.94319 866.280362,173.894275 C866.571974,173.845359 866.871,173.915904 867.11,174.09 L880.69,183.98 C880.991071,184.203399 881.38582,184.256396 881.735153,184.120319 C882.084486,183.984242 882.339373,183.678188 882.41,183.31 L893.55,128.62 C893.64711,128.196976 893.488754,127.756157 893.144653,127.49163 C892.800553,127.227103 892.333839,127.187399 891.95,127.39 L892,127.47 Z" id="Path" fill="#1D3A8F"></path>
                <path d="M554.26,19.13 L516.89,39.34 C516.627498,39.4804455 516.467836,39.7580686 516.478462,40.0555906 C516.489088,40.3531126 516.668148,40.6186386 516.94,40.74 L523.32,43.14 C523.690498,43.281323 523.991657,43.5609706 524.16,43.92 L529.16,54.12 C529.26,54.57 530.09,54.69 530.1,54.24 L529.34,45.8 C529.387848,45.1772121 529.625139,44.5839827 530.02,44.1 L549.4,25.1 C549.510869,24.9918413 549.668726,24.9467394 549.82,24.98 C549.968923,25.0141897 550.089446,25.1231924 550.138376,25.2679434 C550.187306,25.4126943 550.157636,25.5724664 550.06,25.69 L533.36,46.12 C533.009694,46.6186785 532.786555,47.195406 532.71,47.8 L531.71,55.08 C531.79,55.72 532.28,55.96 532.71,55.39 L536.31,51.17 C536.545727,50.8589532 536.980606,50.7806751 537.31,50.99 L546.58,57.75 C546.78692,57.9020124 547.057222,57.9376109 547.296443,57.8443549 C547.535665,57.751099 547.710557,57.5419506 547.76,57.29 L555.37,19.95 C555.443153,19.6602636 555.337326,19.354747 555.100629,19.1723382 C554.863932,18.9899294 554.541535,18.9654388 554.28,19.11 L554.26,19.13 Z" id="Path" fill="#1D3A8F"></path>
                <path d="M766.93,0.1 L729.56,20.32 C729.303105,20.4623106 729.147918,20.7368535 729.158476,21.0303426 C729.169033,21.3238317 729.343544,21.586515 729.61,21.71 L735.99,24.11 C736.363483,24.2518424 736.665533,24.5359134 736.83,24.9 L741.78,35.09 C741.88,35.54 742.71,35.66 742.72,35.21 L742,26.78 C742.046478,26.1538765 742.28381,25.5570566 742.68,25.07 L762.06,6.07 C762.170869,5.96184131 762.328726,5.91673942 762.48,5.95 C762.628923,5.98418973 762.749446,6.09319242 762.798376,6.23794335 C762.847306,6.38269429 762.817636,6.54246637 762.72,6.66 L746,27.11 C745.649694,27.6086785 745.426555,28.185406 745.35,28.79 L744.35,36.08 C744.43,36.71 744.93,36.95 745.35,36.38 L748.95,32.16 C749.064806,31.9961643 749.240309,31.8849857 749.437489,31.8511835 C749.634668,31.8173812 749.837181,31.8637571 750,31.98 L759.28,38.74 C759.485177,38.8928702 759.754767,38.9289026 759.992889,38.835282 C760.231011,38.7416614 760.403874,38.531673 760.45,38.28 L768,0.94 C768.073153,0.650263634 767.967326,0.344747002 767.730629,0.16233819 C767.493932,-0.020070621 767.171535,-0.0445611563 766.91,0.1 L766.93,0.1 Z" id="Path" fill="#1D3A8F"></path>
                <path d="M909.05,259.82 L798.73,250.71 C797.954012,250.627838 797.201099,251.004496 796.801522,251.674754 C796.401945,252.345012 796.42868,253.186459 796.87,253.83 L807.36,268.15 C807.97708,268.985821 808.236142,270.032866 808.08,271.06 L804.36,300.36 C803.93,301.47 805.57,302.92 806.24,301.94 L816.6,282.42 C817.585361,281.120909 818.952602,280.162791 820.51,279.68 L889.81,265.86 C890.205442,265.785038 890.612542,265.908289 890.9,266.19 C891.173357,266.478448 891.280029,266.886754 891.182692,267.272048 C891.085354,267.657343 890.797556,267.965993 890.42,268.09 L824.89,288.92 C823.409217,289.507747 822.094437,290.448346 821.06,291.66 L808.51,306.12 C807.79,307.63 808.51,308.86 810.21,308.19 L824.08,304.1 C825.095883,303.716474 826.232203,304.213614 826.64,305.22 L837.24,333.16 C837.492614,333.769789 838.02982,334.215677 838.675705,334.351652 C839.321589,334.487628 839.992972,334.29618 840.47,333.84 L910.24,263.21 C910.776026,262.666052 910.955502,261.864334 910.702558,261.143763 C910.449615,260.423192 909.808408,259.90956 909.05,259.82 L909.05,259.82 Z" id="Path" fill="#1D3A8F"></path>
                <path d="M611.66,371.08 C612.71513,372.528523 613.982723,373.809602 615.42,374.88 C616.35,375.65 617.31,376.44 618.31,377.14 C618.59,377.34 618.88,377.53 619.17,377.72 C619.17,377.77 619.11,377.82 619.09,377.88 C618.857545,378.303831 618.766457,378.790802 618.83,379.27 C619.031436,379.847904 619.404802,380.350377 619.9,380.71 C622.241324,382.870455 623.823022,385.728735 624.41,388.86 C624.75,390.67 623.53,392.61 623.61,394.45 C623.788905,396.257016 624.268863,398.021369 625.03,399.67 C626.56,403.55 628.18,407.58 631.23,410.41 C631.956059,416.643149 634.357864,422.562994 638.18,427.54 C641.4,431.65 645.68,434.77 649.91,437.82 C651.246726,438.88623 652.699199,439.798639 654.24,440.54 C655.632183,441.052586 657.068096,441.437505 658.53,441.69 C670.948174,444.186606 683.557862,445.611845 696.22,445.95 C696.573333,453.483333 696.726667,461.013333 696.68,468.54 C696.751445,469.779155 696.574653,471.020098 696.16,472.19 C695.554167,473.290905 694.822605,474.317775 693.98,475.25 C691.09,479.09 690.98,484.31 691.18,489.12 C691.475617,494.751342 692.143744,500.356934 693.18,505.9 C694.49,513 693.29,520.84 695.81,527.6 C696.81,530.27 697.81,532.93 698.81,535.6 C699.142857,536.349725 699.342511,537.151723 699.4,537.97 C699.4,539.72 698.24,541.21 697.4,542.73 C696.158231,544.945907 695.552631,547.461742 695.65,550 C695.642297,550.284392 695.715093,550.565174 695.86,550.81 C696.19,551.25 696.86,551.21 697.4,551.13 C699.614461,550.808078 701.844118,550.601134 704.08,550.51 C703.678944,551.01092 703.317835,551.542553 703,552.1 C702.459598,553.039265 701.985122,554.014948 701.58,555.02 C700.772854,556.691728 700.136302,558.44057 699.68,560.24 C699.599477,560.502289 699.536011,560.769514 699.49,561.04 C699.37,561.58 699.26,562.13 699.17,562.67 C698.688176,565.846081 698.490727,569.058821 698.58,572.27 C698.27,578.27 697.97,584.51 697.39,586.33 C696.57,588.92 697.59,593.06 698.6,597.01 C698.648543,599.737433 699.138208,602.439031 700.05,605.01 C700.134216,607.847287 700.468849,610.671592 701.05,613.45 C704.51,632.943333 708.176667,652.39 712.05,671.79 C712.4,673.48 712.73,675.16 713.18,676.79 C714.638845,682.186454 717.187931,687.22677 720.67,691.6 C723.727721,695.474065 726.350149,699.672633 728.49,704.12 C728.26,705.18 728.02,706.24 727.77,707.29 C725.57,716.58 722.66,725.74 721.65,735.23 C721.25,739.01 721.13,742.91 719.65,746.4 C718.89,748.18 717.77,749.88 717.65,751.81 C717.560133,753.037435 717.849896,754.262815 718.48,755.32 C718.22,755.51 717.97,755.71 717.73,755.91 L717.32,756.25 C714.48,758.51 710.67,758.97 707.17,759.88 C703.67,760.79 699.9,762.64 698.82,766.12 C698.74929,766.339533 698.692511,766.563312 698.65,766.79 C698.01,769.99 699.95,773.39 702.65,775.27 C705.56,777.27 709.18,777.89 712.65,778.34 C716.12,778.79 719.77,779.14 722.94,780.7 C725.68,782.06 727.99,784.29 730.94,785.27 L731.45,785.42 C730.8,785.81 730.14,786.19 729.45,786.54 C726.443937,788.070101 723.202138,789.084219 719.86,789.54 C716.48,790.01 712.44,790.23 710.7,793.18 L710.7,793.18 C709.28,795.62 710.31,798.91 712.36,800.83 C714.41,802.75 717.25,803.61 720,804.21 C726.271563,805.43243 732.619952,806.220967 739,806.57 L745.21,807.04 C751.21,807.5 757.33,807.97 763.41,808.04 C770.913323,808.061027 778.403384,807.408408 785.79,806.09 C786.47809,806.067291 787.124565,805.754949 787.57,805.23 C787.795623,804.792804 787.889422,804.299493 787.84,803.81 C787.67966,796.211757 786.727852,788.650914 785,781.25 C784.49,779.03 781.46,782.06 779.76,783.98 C779.54,782.87 779.28,781.77 778.99,780.7 L780.32,780.07 C781.335846,779.697997 782.195852,778.993075 782.76,778.07 C783.037586,777.319726 783.126862,776.512808 783.02,775.72 C782.78,770.84 782.48,765.78 780.16,761.49 C778.625131,758.925585 776.717622,756.603547 774.5,754.6 C773.81,739.27 772.31,723.92 768.96,708.96 C767.24,701.31 765.11,693.58 760.69,687.11 C760.14,686.3 759.54,685.49 758.94,684.68 C758.461909,677.325718 757.5705,670.004153 756.27,662.75 C756.014607,661.79342 756.014607,660.78658 756.27,659.83 C756.690113,659.012102 757.233081,658.263413 757.88,657.61 C760.54,654.18 759.45,649.3 759.14,644.96 C758.7,638.72 760.14,632.54 761.63,626.46 C763.443333,618.966667 765.246667,611.47 767.04,603.97 C767.486048,601.840769 768.121922,599.755771 768.94,597.74 C770.2,594.92 772.15,592.48 773.82,589.88 C778.860194,581.923044 781.234976,572.567527 780.6,563.17 C781.6,563.53 782.6,563.9 783.66,564.3 C784.41,558.02 781.76,550.89 783.66,544.99 C786.915685,542.616755 789.544705,539.486642 791.32,535.87 C792.8,532.55 793.22,528.81 794.77,525.52 C795.65,523.67 796.88,521.96 797.39,519.97 C798.16,516.97 797.2,513.85 797.24,510.78 C797.34,504.09 802.24,497.88 801.14,491.27 C800.64,488.13 798.82,485.27 798.92,482.04 C799.066465,480.312768 799.502554,478.622499 800.21,477.04 C803.89,467.29 807.52,456.91 805.63,446.65 C805.15,444.03 804.3,441.42 804.44,438.75 C804.6,435.7 806.05,432.75 805.62,429.7 C805.443637,428.544868 804.975549,427.45381 804.26,426.53 C805.57849,424.501521 806.700249,422.351762 807.61,420.11 C808.218832,418.830239 808.523435,417.427009 808.5,416.01 C808.238175,414.058773 807.195149,412.297538 805.61,411.13 C804.043589,409.997159 802.368732,409.022392 800.61,408.22 C800.047698,407.984237 799.545387,407.625444 799.14,407.17 C798.820097,406.667204 798.542477,406.138723 798.31,405.59 C797.31,403.88 795.18,403.34 793.49,402.31 C787.39,398.59 787.98,389 782.77,384.09 C779.131189,380.8483 773.731518,380.561702 769.77,383.4 C769.27368,383.897775 768.626843,384.217678 767.93,384.31 C767.251119,384.159274 766.63188,383.811387 766.15,383.31 C764.855468,382.434719 763.310426,382.006321 761.75,382.09 C760.768333,378.280518 760.324034,374.352505 760.43,370.42 L760.9,370.42 C761.513737,370.440962 762.127164,370.370181 762.72,370.21 C765.4,369.44 766.93,366.67 768.02,364.09 C768.973904,361.913343 769.759539,359.66676 770.37,357.37 C770.43,357.15 770.48,356.93 770.53,356.72 C775.66,360.32 781.62,364.09 783.04,363.3 C785.67,361.85 771.29,351.62 771.29,351.62 L771.29,351.62 L771.29,351.62 C772.98,350.12 773.92,347.41 774.29,345.02 C775.13,340.25 775.53,335.29 774.41,330.57 C773.29,325.85 770.46,321.36 766.16,319.16 C764.26,318.16 761.95,317.5 760.57,315.99 L760.57,315.99 C760.359222,315.767335 760.177753,315.518656 760.03,315.25 L760.03,315.25 C759.941311,315.129281 759.867448,314.998342 759.81,314.86 C759.658599,314.443788 759.457118,314.047543 759.21,313.68 C758.42,312.77 756.99,313.05 755.8,313.19 L755.42,313.19 L755.09,313.19 L754.77,313.19 C750.51,313.28 746.38,310.9 742.07,310.9 C737.34,310.9 733.32,313.64 729.16,315.52 C728.32,315.9 727.52,316.25 726.77,316.6 C724.17,317.82 722.12,319.12 720.77,322.05 C719.948389,323.022121 719.357003,324.167291 719.04,325.4 C718.903536,325.96348 718.829755,326.540313 718.82,327.12 C711.521618,334.347131 708.657402,344.931979 711.315486,354.853288 C713.973571,364.774598 721.746009,372.509709 731.68,375.12 C731.78,375.4 731.88,375.68 731.97,375.96 C732.835424,378.536949 733.25807,381.24188 733.22,383.96 C733.22,384.15 733.22,384.34 733.22,384.53 C731.046462,385.044296 728.965305,385.890926 727.05,387.04 C724.612873,388.484945 722.769555,390.750099 721.85,393.43 C721.78632,393.630478 721.732917,393.834076 721.69,394.04 C720.170965,393.543257 718.587682,393.270394 716.99,393.23 C715.54,393.23 713.91,393.34 712.99,394.44 C712.617674,394.889307 712.357213,395.420509 712.23,395.99 C711.68,396.5 711.57,397.38 711.23,398.05 C710.02,400.16 706.9,399.47 704.55,400.05 C702,400.68 699.99,403.05 697.36,403.05 C696.368262,402.890779 695.360735,402.853837 694.36,402.94 C693.36,403.18 692.6,404.53 693.36,405.21 C692.166972,405.091169 691.008059,405.65131 690.36,406.66 C689.64,407.6 689.16,408.72 688.36,409.6 C687.652196,408.61335 686.427959,408.138565 685.24,408.39 C684.083226,408.652279 682.973615,409.090727 681.95,409.69 C681.497706,409.937921 681.007907,410.110195 680.5,410.2 C679.905391,410.231252 679.309366,410.177374 678.73,410.04 C675.91617,409.583189 673.029971,409.987536 670.45,411.2 C668.17,412.28 665.98,410.3 663.45,410.14 C662.530261,410.186357 661.623674,409.90659 660.89,409.35 C660.409958,408.767373 660.068076,408.08361 659.89,407.35 C658.744071,404.063236 655.971488,401.608818 652.57,400.87 C653.92869,396.596765 651.742673,392.001759 647.57,390.36 C647.90677,387.366084 646.738242,384.399821 644.45,382.44 C643.895531,382.063375 643.367619,381.649064 642.87,381.2 C642.210241,380.414026 641.716942,379.502274 641.42,378.52 L639.2,372.64 C638.2,372.44 637.45,372.03 636.52,371.87 C636.52,371.68 636.52,371.48 636.52,371.27 C636.495766,369.263274 636.15837,367.272635 635.52,365.37 C634.379765,362.272798 632.78204,359.363858 630.78,356.74 C628.66,353.74 626.31,350.87 623.16,349.08 C622.110609,348.509518 621.024947,348.008444 619.91,347.58 L614.19,345.22 C613.877212,345.064685 613.537961,344.969694 613.19,344.94 C611.65,344.94 611.37,347.32 612.19,348.59 C613.93,351.16 617.85,351.88 618.96,354.79 C617.052101,354.853067 615.401384,356.136509 614.87,357.97 C614.830159,358.447957 614.637286,358.900334 614.32,359.26 C613.82,359.67 613.03,359.43 612.45,359.74 C611.45,360.29 611.88,361.81 611.77,362.96 C611.533631,363.957428 611.198649,364.928876 610.77,365.86 C610.272765,367.645626 610.599166,369.560021 611.66,371.08 L611.66,371.08 Z M748.78,772.08 C748.78,771.49 748.7,770.9 748.65,770.32 C748.77,770.63 748.88,770.95 749,771.26 C750,773.9 751.13,776.5 752.31,779.07 L752.11,778.96 C751.242299,778.569919 750.322807,778.307207 749.38,778.18 C749.13,778.18 748.87,778.18 748.62,778.11 C748.956948,776.124281 749.010817,774.100834 748.78,772.1 L748.78,772.08 Z" id="Shape" fill="url(#linearGradient-1)"></path>
                <path d="M733.28,386.26 C733.17,390.44 731.76,394.48 731.54,398.65 C743.83,399.26 755.96,393.3 768.14,395.12 C764.74,392.92 762.92,388.95 761.84,385.04 C760.483037,379.999143 760.076109,374.749761 760.64,369.56 C760.673564,369.270006 760.727023,368.982662 760.8,368.7 C761.25,366.7 762.42,363.77 762.1,362.16 C761.69,360.04 759.69,360.46 757.88,360.58 C752.376913,361.001376 746.899498,361.709001 741.47,362.7 C740.06,362.94 726.27,366.38 726.07,366.02 C728.497989,369.893515 730.509191,374.013127 732.07,378.31 C732.920022,380.872503 733.32916,383.560641 733.28,386.26 L733.28,386.26 Z" id="Path" fill="#EE8E9E"></path>
                <path d="M611.66,373.36 C612.718744,374.799662 613.985975,376.073634 615.42,377.14 C616.35,377.91 617.31,378.69 618.31,379.39 C620.0934,380.769027 622.220247,381.633599 624.46,381.89 C627.39,382.09 633.6,380.37 635.46,377.89 C636.231376,376.630363 636.597856,375.164445 636.51,373.69 C636.48609,371.693042 636.148644,369.712233 635.51,367.82 C634.369238,364.738468 632.771356,361.846098 630.77,359.24 C628.65,356.3 626.3,353.4 623.15,351.62 C622.098587,351.053556 621.013187,350.552602 619.9,350.12 L614.18,347.78 C613.867212,347.624685 613.527961,347.529694 613.18,347.5 C611.64,347.5 611.36,349.86 612.18,351.13 C613.92,353.69 617.84,354.4 618.95,357.3 C617.045362,357.354117 615.393093,358.630686 614.86,360.46 C614.820169,360.934982 614.627154,361.38418 614.31,361.74 C613.81,362.15 613.02,361.92 612.44,362.22 C611.44,362.77 611.87,364.28 611.76,365.43 C611.52193,366.420474 611.186983,367.385121 610.76,368.31 C610.30879,370.044018 610.63753,371.888618 611.66,373.36 L611.66,373.36 Z" id="Path" fill="#EE8E9E"></path>
                <path d="M781.18,792.03 C780.24,791.03 778.69,791.24 777.37,791.45 C770.274554,792.573816 763.10381,793.155499 755.92,793.19 C755.02,788.8 757.63,784.53 758.47,780.12 C758.588465,778.983997 758.87492,777.871875 759.32,776.82 C760.32,774.88 762.61,773.99 764.75,773.54 C768.62,772.73 774.66,771.29 776.82,775.19 C779.41,779.88 780.24,786.81 781.18,792.03 Z" id="Path" fill="#65617D"></path>
                <path d="M702.59,775.42 C705.5,777.42 709.12,778.03 712.59,778.48 C716.06,778.93 719.71,779.27 722.88,780.83 C725.62,782.18 727.93,784.4 730.88,785.37 C733.575047,786.108274 736.41303,786.152993 739.13,785.5 C742.39,784.89 745.86,783.7 747.62,780.89 C749.18,778.39 749.02,775.21 748.8,772.27 C748.55,768.94 748.31,765.61 748.06,762.27 C748.072144,761.425728 747.858069,760.593595 747.44,759.86 C745.09,756.42 739.36,761.29 736.29,761.29 C731.43,761.29 726.22,758.65 722.72,755.43 C722.409694,755.110653 722.052196,754.840843 721.66,754.63 C720.28,754.01 718.89,755.16 717.66,756.16 L717.25,756.5 C714.41,758.75 710.6,759.21 707.1,760.12 C703.6,761.03 699.83,762.86 698.75,766.32 C698.679311,766.536148 698.622529,766.756599 698.58,766.98 C697.92,770.19 699.86,773.57 702.59,775.42 Z" id="Path" fill="#3F3D56"></path>
                <path d="M702.59,775.42 C705.5,777.42 709.12,778.03 712.59,778.48 C716.06,778.93 719.71,779.27 722.88,780.83 C725.62,782.18 727.93,784.4 730.88,785.37 C733.575047,786.108274 736.41303,786.152993 739.13,785.5 C742.39,784.89 745.86,783.7 747.62,780.89 C749.18,778.39 749.02,775.21 748.8,772.27 C748.55,768.94 748.31,765.61 748.06,762.27 C748.072144,761.425728 747.858069,760.593595 747.44,759.86 C745.09,756.42 739.36,761.29 736.29,761.29 C731.43,761.29 726.22,758.65 722.72,755.43 C722.409694,755.110653 722.052196,754.840843 721.66,754.63 C720.28,754.01 718.89,755.16 717.66,756.16 L717.25,756.5 C714.41,758.75 710.6,759.21 707.1,760.12 C703.6,761.03 699.83,762.86 698.75,766.32 C698.679311,766.536148 698.622529,766.756599 698.58,766.98 C697.92,770.19 699.86,773.57 702.59,775.42 Z" id="Path" fill="#000000" opacity="0.05"></path>
                <path d="M702.59,776.56 C705.5,778.56 709.12,779.17 712.59,779.62 C716.06,780.07 719.71,780.41 722.88,781.97 C725.62,783.32 727.93,785.54 730.88,786.51 C733.575047,787.248274 736.41303,787.292993 739.13,786.64 C742.597331,785.906427 745.642587,783.851148 747.62,780.91 C749.18,778.41 749.02,775.23 748.8,772.29 C748.55,768.96 748.31,765.63 748.06,762.29 C748.072144,761.445728 747.858069,760.613595 747.44,759.88 C745.09,756.44 739.36,761.31 736.29,761.31 C731.43,761.31 726.22,758.67 722.72,755.45 C722.409694,755.130653 722.052196,754.860843 721.66,754.65 C720.28,754.03 718.89,755.18 717.66,756.18 C718.472355,758.657829 719.619645,761.012968 721.07,763.18 C723.448282,766.908118 727.377567,769.368511 731.77,769.88 C733.94,770.04 736.17,769.61 738.27,770.17 C740.37,770.73 742.27,772.87 741.58,774.92 C740.89,776.97 738.29,777.34 736.17,777.45 C733.17,777.62 730.17,777.76 727.34,776.84 C725.62,776.26 724.05,775.31 722.34,774.62 C715.22,771.62 706.23,773.32 700.34,768.33 C699.78061,767.819322 699.178397,767.357626 698.54,766.95 C697,770.23 699.86,774.69 702.59,776.56 Z" id="Path" fill="#E8EAF2"></path>
                <path d="M702.59,776.56 C705.5,778.56 709.12,779.17 712.59,779.62 C716.06,780.07 719.71,780.41 722.88,781.97 C725.62,783.32 727.93,785.54 730.88,786.51 C733.575047,787.248274 736.41303,787.292993 739.13,786.64 C742.597331,785.906427 745.642587,783.851148 747.62,780.91 C749.18,778.41 749.02,775.23 748.8,772.29 C748.55,768.96 748.31,765.63 748.06,762.29 C748.072144,761.445728 747.858069,760.613595 747.44,759.88 C745.09,756.44 739.36,761.31 736.29,761.31 C731.43,761.31 726.22,758.67 722.72,755.45 C722.409694,755.130653 722.052196,754.860843 721.66,754.65 C720.28,754.03 718.89,755.18 717.66,756.18 C718.472355,758.657829 719.619645,761.012968 721.07,763.18 C723.448282,766.908118 727.377567,769.368511 731.77,769.88 C733.94,770.04 736.17,769.61 738.27,770.17 C740.37,770.73 742.27,772.87 741.58,774.92 C740.89,776.97 738.29,777.34 736.17,777.45 C733.17,777.62 730.17,777.76 727.34,776.84 C725.62,776.26 724.05,775.31 722.34,774.62 C715.22,771.62 706.23,773.32 700.34,768.33 C699.78061,767.819322 699.178397,767.357626 698.54,766.95 C697,770.23 699.86,774.69 702.59,776.56 Z" id="Path" fill="#000000" opacity="0.05"></path>
                <path d="M779.85,558.68 C782.119711,569.817311 779.967984,581.400774 773.85,590.98 C772.18,593.57 770.23,595.98 768.97,598.8 C768.152008,600.805503 767.516111,602.880534 767.07,605 L761.66,627.42 C760.2,633.42 758.73,639.62 759.17,645.82 C759.48,650.14 760.57,654.99 757.91,658.41 C757.264735,659.057327 756.721842,659.799169 756.3,660.61 C756.044984,661.563239 756.044984,662.566761 756.3,663.52 C759.04,679.76 761.06,696.75 756.12,712.46 C751.65,726.7 751.39,742.46 747.58,756.92 C747.11,758.71 746.58,760.59 745.22,761.85 C744.200147,762.706849 742.978089,763.288617 741.67,763.54 C736.06,764.87 730.14,763.31 724.91,760.88 C721.23,759.18 717.27,756.19 717.59,752.15 C717.74,750.23 718.86,748.54 719.59,746.77 C721.09,743.3 721.21,739.42 721.59,735.66 C722.59,726.22 725.51,717.11 727.71,707.87 C729.91,698.63 731.41,688.98 729.55,679.67 C725.740993,660.411071 719.647937,641.675342 711.4,623.86 C711.04688,622.912689 710.478626,622.060307 709.74,621.37 C708.91473,620.897268 708.128858,620.358862 707.39,619.76 C706.819643,618.875175 706.45408,617.874148 706.32,616.83 C705.5,613.89 703.07,611.71 701.44,609.13 C697.32,602.59 698.63,594.21 698.78,586.49 C698.93,578.98 697.85,571.41 699.08,564 C700.31,556.59 704.55,549 711.69,546.7 C715.23,545.55 719.06,545.81 722.76,546.18 C742.39,548.07 761.45,551.63 779.85,558.68 Z" id="Path" fill="#303D5C"></path>
                <path d="M779.85,558.68 C782.119711,569.817311 779.967984,581.400774 773.85,590.98 C772.18,593.57 770.23,595.98 768.97,598.8 C768.152008,600.805503 767.516111,602.880534 767.07,605 L761.66,627.42 C760.2,633.42 758.73,639.62 759.17,645.82 C759.48,650.14 760.57,654.99 757.91,658.41 C757.264735,659.057327 756.721842,659.799169 756.3,660.61 C756.044984,661.563239 756.044984,662.566761 756.3,663.52 C759.04,679.76 761.06,696.75 756.12,712.46 C751.65,726.7 751.39,742.46 747.58,756.92 C747.11,758.71 746.58,760.59 745.22,761.85 C744.200147,762.706849 742.978089,763.288617 741.67,763.54 C736.06,764.87 730.14,763.31 724.91,760.88 C721.23,759.18 717.27,756.19 717.59,752.15 C717.74,750.23 718.86,748.54 719.59,746.77 C721.09,743.3 721.21,739.42 721.59,735.66 C722.59,726.22 725.51,717.11 727.71,707.87 C729.91,698.63 731.41,688.98 729.55,679.67 C725.740993,660.411071 719.647937,641.675342 711.4,623.86 C711.04688,622.912689 710.478626,622.060307 709.74,621.37 C708.91473,620.897268 708.128858,620.358862 707.39,619.76 C706.819643,618.875175 706.45408,617.874148 706.32,616.83 C705.5,613.89 703.07,611.71 701.44,609.13 C697.32,602.59 698.63,594.21 698.78,586.49 C698.93,578.98 697.85,571.41 699.08,564 C700.31,556.59 704.55,549 711.69,546.7 C715.23,545.55 719.06,545.81 722.76,546.18 C742.39,548.07 761.45,551.63 779.85,558.68 Z" id="Path" fill="#000000" opacity="0.05"></path>
                <path d="M700,605.76 C700.063088,608.678108 700.397868,611.583994 701,614.44 C704.46,633.833333 708.126667,653.166667 712,672.44 C712.35,674.12 712.68,675.79 713.13,677.44 C714.591807,682.811033 717.141141,687.82461 720.62,692.17 C736.92,712.48 738.33,741.98 747.17,766.47 C747.76,768.13 748.36,769.79 748.99,771.47 C750.590068,775.6218 752.412711,779.684357 754.45,783.64 C754.684949,784.215947 755.072095,784.717163 755.57,785.09 C756.119851,785.368154 756.735769,785.489261 757.35,785.44 C765.316651,785.486801 773.186942,783.697165 780.35,780.21 C781.367042,779.840094 782.227673,779.134659 782.79,778.21 C783.066745,777.463004 783.156021,776.659525 783.05,775.87 C782.81,771.02 782.51,765.98 780.19,761.72 C778.654637,759.164827 776.747014,756.852761 774.53,754.86 C773.84,739.61 772.34,724.34 768.99,709.46 C767.27,701.85 765.14,694.16 760.72,687.72 C757.46,682.97 752.79,678.29 753.36,672.56 C753.62,670.04 754.67,666.91 752.62,665.43 C751.73,664.78 750.4,664.7 749.8,663.77 C749.552855,663.336372 749.415531,662.848872 749.4,662.35 C748.98144,658.416815 749.228224,654.441225 750.13,650.59 C750.871345,648.075356 751.455803,645.517099 751.88,642.93 C752.14,640.31 751.7,637.48 749.95,635.53 C749.84,630.3 749.95,624.87 749.88,619.64 C749.67833,616.662937 749.927814,613.672491 750.62,610.77 C751.01,609.4 751.62,608.09 751.92,606.69 C753.02,601.69 750.29,595.69 753.54,591.69 C754.89,590.03 756.98,589.21 758.75,588.01 C762.3,585.65 764.62,581.78 765.91,577.72 C767.047393,573.608362 767.718284,569.381746 767.91,565.12 C768.004861,564.212472 768.004861,563.297528 767.91,562.39 C767.850332,561.921702 767.725805,561.463982 767.54,561.03 C766.54,558.76 763.82,557.88 761.4,557.3 C746.040238,553.614638 730.295637,551.774971 714.5,551.82 C708.66,547.82 705.37,549.26 702.9,553.48 C701.524409,556.050111 700.415304,558.754183 699.59,561.55 C698.46,564.96 698.39,584.1 697.29,587.55 C695.89,591.96 700,601.08 700,605.76 Z" id="Path" fill="#303D5C"></path>
                <path d="M805.62,431.63 C806.05,434.63 804.62,437.63 804.44,440.63 C804.3,443.29 805.15,445.88 805.63,448.49 C807.52,458.69 803.89,469.02 800.21,478.72 C799.499458,480.301414 799.06323,481.992219 798.92,483.72 C798.82,486.88 800.64,489.78 801.14,492.91 C802.19,499.48 797.34,505.66 797.24,512.31 C797.24,515.37 798.16,518.49 797.39,521.45 C796.88,523.45 795.65,525.13 794.77,526.98 C793.22,530.25 792.77,533.98 791.32,537.27 C788.64,543.27 782.88,547.14 777.41,550.72 C774.29,549.72 770.92,548.45 769.21,545.65 C768.457688,544.266239 767.972575,542.753229 767.78,541.19 C766.59,534.39 766.63,527.44 766.68,520.54 C766.58227,514.59541 766.896355,508.651189 767.62,502.75 C768.73,495.25 771.16,488.02 772.91,480.64 C775.11,471.33 776.24,461.71 779.67,452.78 C782.67,444.94 787.38,437.89 792.33,431.15 C794.21,428.57 795.7,424.9 799.33,425.49 C802.50503,426.018602 805.014933,428.468651 805.62,431.63 L805.62,431.63 Z" id="Path" fill="#3F3D56"></path>
                <path d="M805.62,431.63 C806.05,434.63 804.62,437.63 804.44,440.63 C804.3,443.29 805.15,445.88 805.63,448.49 C807.52,458.69 803.89,469.02 800.21,478.72 C799.499458,480.301414 799.06323,481.992219 798.92,483.72 C798.82,486.88 800.64,489.78 801.14,492.91 C802.19,499.48 797.34,505.66 797.24,512.31 C797.24,515.37 798.16,518.49 797.39,521.45 C796.88,523.45 795.65,525.13 794.77,526.98 C793.22,530.25 792.77,533.98 791.32,537.27 C788.64,543.27 782.88,547.14 777.41,550.72 C774.29,549.72 770.92,548.45 769.21,545.65 C768.457688,544.266239 767.972575,542.753229 767.78,541.19 C766.59,534.39 766.63,527.44 766.68,520.54 C766.58227,514.59541 766.896355,508.651189 767.62,502.75 C768.73,495.25 771.16,488.02 772.91,480.64 C775.11,471.33 776.24,461.71 779.67,452.78 C782.67,444.94 787.38,437.89 792.33,431.15 C794.21,428.57 795.7,424.9 799.33,425.49 C802.50503,426.018602 805.014933,428.468651 805.62,431.63 L805.62,431.63 Z" id="Path" fill="#000000" opacity="0.05"></path>
                <path d="M726.07,366.02 C728.497989,369.893515 730.509191,374.013127 732.07,378.31 C734.288363,378.857385 736.565102,379.132743 738.85,379.13 C747.71,379.13 753.99,374.13 759.2,367.72 C759.65,365.72 762.46,363.77 762.14,362.16 C761.73,360.04 759.73,360.46 757.92,360.58 C752.416913,361.001376 746.939498,361.709001 741.51,362.7 C740.06,362.94 726.27,366.42 726.07,366.02 Z" id="Path" fill="#000000" opacity="0.1"></path>
                <circle id="Oval" fill="#EE8E9E" cx="738.81" cy="349.96" r="28.4"></circle>
                <path d="M702.93,553.42 C707.84,553.13 712.79,553.32 717.72,553.52 C720.805329,553.557021 723.881067,553.871623 726.91,554.46 C730.64,555.31 734.13,557.01 737.81,558.07 C743.7,559.79 749.91,559.86 756.02,560.47 C760.025781,560.860377 764.005719,561.481408 767.94,562.33 C767.880332,561.861702 767.755805,561.403982 767.57,560.97 C766.57,558.7 763.85,557.82 761.43,557.24 C746.070238,553.554638 730.325637,551.714971 714.53,551.76 C708.69,547.8 705.4,549.22 702.93,553.42 Z" id="Path" fill="#000000" opacity="0.1"></path>
                <path d="M722.28,396.42 C723.52,397.85 725.18,399.42 727.02,398.96 C727.683067,398.727666 728.304363,398.390005 728.86,397.96 C732.13,395.85 736.15,395.35 740,394.77 C747.780688,393.604858 755.467272,391.88039 763,389.61 C765.182513,388.816317 767.47082,388.351242 769.79,388.23 C774.6,388.23 778.87,391.46 781.88,395.23 C784.89,399 787,403.42 790,407.21 C792.11,409.91 794.62,412.29 796.59,415.1 C801.59,422.19 802.59,431.44 801.34,440 C800.09,448.56 796.64,456.64 793.25,464.6 C791.441533,469.228442 789.229686,473.688944 786.64,477.93 C787.78,484.43 787.18,491.87 784.09,497.71 C783.09,499.61 781.85,501.46 781.51,503.59 C781.360043,505.027774 781.420682,506.479736 781.69,507.9 L783.14,518.18 C783.58,521.31 784.02,524.45 784.59,527.56 C785.59,533.25 787.05,539.42 784.41,544.56 C781.25,550.72 784.57,558.63 783.74,565.56 C774.835358,562.110547 765.503349,559.886878 756,558.95 C749.9,558.36 743.69,558.28 737.8,556.57 C734.12,555.5 730.63,553.8 726.9,552.95 C723.871803,552.35666 720.795612,552.042012 717.71,552.01 C710.9,551.74 704.05,551.47 697.32,552.47 C696.77,552.55 696.11,552.59 695.78,552.15 C695.634876,551.908928 695.56199,551.631269 695.57,551.35 C695.471153,548.824304 696.077088,546.320927 697.32,544.12 C698.17,542.6 699.32,541.12 699.32,539.38 C699.262579,538.564928 699.062898,537.766203 698.73,537.02 L695.73,529.02 C693.21,522.3 694.41,514.5 693.1,507.44 C692.063798,501.927198 691.395655,496.351543 691.1,490.75 C690.86,485.96 691.01,480.75 693.9,476.94 C694.742414,476.029455 695.474165,475.022459 696.08,473.94 C696.493845,472.776827 696.670652,471.542577 696.6,470.31 C696.66,460.73 696.396667,451.153333 695.81,441.58 C698.33,437.05 700.96,432.42 703.48,427.9 C706.41,422.63 709.38,417.26 710.57,411.35 C711.35,407.43 711.32,403.4 711.88,399.45 C711.938314,398.449363 712.285688,397.487136 712.88,396.68 C713.88,395.59 715.47,395.43 716.88,395.48 C718.717967,395.510221 720.539932,395.827378 722.28,396.42 L722.28,396.42 Z" id="Path" fill="#3F3D56"></path>
                <path d="M618.31,379.42 C620.0934,380.799027 622.220247,381.663599 624.46,381.92 C627.39,382.12 633.6,380.4 635.46,377.92 C636.231376,376.660363 636.597856,375.194445 636.51,373.72 C636.114024,373.594701 635.704417,373.51748 635.29,373.49 C632.112187,373.139896 628.899849,373.267985 625.76,373.87 C622.66,374.63 619.67,376.51 618.36,379.42 C618.32,379.42 618.32,379.42 618.31,379.42 Z" id="Path" fill="#000000" opacity="0.1"></path>
                <path d="M712.79,440.81 C711.07,442.97 709.26,445.18 706.79,446.46 C703.97,447.92 700.65,447.95 697.47,447.89 C684.369732,447.608408 671.319543,446.176233 658.47,443.61 C657.008096,443.357505 655.572183,442.972586 654.18,442.46 C652.639467,441.722158 651.186972,440.81309 649.85,439.75 C645.62,436.75 641.34,433.62 638.12,429.53 C634.301117,424.581458 631.898846,418.688117 631.17,412.48 C628.12,409.67 626.5,405.67 624.97,401.8 C624.210315,400.164894 623.73032,398.413928 623.55,396.62 C623.47,394.78 624.69,392.85 624.35,391.04 C623.760404,387.923966 622.178249,385.082401 619.84,382.94 C619.346426,382.583018 618.973217,382.084242 618.77,381.51 C618.70651,381.034023 618.797657,380.550241 619.03,380.13 C620.33,377.21 623.32,375.33 626.42,374.57 C629.563226,373.968032 632.778853,373.839946 635.96,374.19 C637.018821,374.390334 638.061595,374.667739 639.08,375.02 L641.3,380.87 C641.597151,381.849171 642.090499,382.757611 642.75,383.54 C643.247756,383.985844 643.775676,384.39682 644.33,384.77 C646.619062,386.711978 647.789222,389.667382 647.45,392.65 C651.615644,394.27109 653.804516,398.85021 652.45,403.11 C655.84208,403.841251 658.612603,406.278706 659.77,409.55 C659.944045,410.285079 660.286364,410.969717 660.77,411.55 C661.503674,412.10659 662.410261,412.386357 663.33,412.34 C665.84,412.49 668.03,414.47 670.33,413.4 C672.909971,412.187536 675.79617,411.783189 678.61,412.24 C679.189828,412.374152 679.785866,412.424663 680.38,412.39 C680.88858,412.308316 681.379166,412.139148 681.83,411.89 C682.855642,411.294902 683.9646,410.856712 685.12,410.59 C686.307521,410.343908 687.528917,410.81759 688.24,411.8 C689.04,410.93 689.52,409.8 690.24,408.88 C690.891201,407.874864 692.047805,407.315839 693.24,407.43 C692.48,406.76 693.24,405.43 694.24,405.17 C695.240955,405.093757 696.247316,405.130657 697.24,405.28 C699.87,405.28 701.88,402.88 704.43,402.28 C706.78,401.7 709.9,402.39 711.11,400.28 C711.53,399.54 711.62,398.54 712.34,398.08 C712.833804,397.839881 713.395014,397.776347 713.93,397.9 C715.594558,398.121194 717.212224,398.610884 718.72,399.35 C721.18,408.97 719.89,418.96 718.01,428.71 C717.348985,433.12783 715.550076,437.297715 712.79,440.81 L712.79,440.81 Z" id="Path" fill="#3F3D56"></path>
                <path d="M712.87,475.28 L725.1,499.94 C723.78,497.66 720.99,496.77 718.79,495.31 C716.00712,493.288732 713.912588,490.461113 712.79,487.21 C711.679022,483.964728 710.904945,480.613746 710.48,477.21 C710.23,475.64 709.72,473.45 710.48,472.03 C711.84,472.33 712.29,474.12 712.87,475.28 Z" id="Path" fill="#000000" opacity="0.1"></path>
                <path d="M748.06,496.22 C750.82,498.95 754.19,500.96 757.23,503.38 C764.32,509.03 769.38,516.77 774.32,524.38 C775.707347,526.369143 776.877371,528.501334 777.81,530.74 C777.23,531.24 776.36,530.74 775.81,530.22 L766.21,521.78 C765.030668,520.817398 763.957878,519.731198 763.01,518.54 C761.34,516.29 760.6,513.54 759.09,511.14 C757.442422,508.869208 755.475442,506.848337 753.25,505.14 C751.05,503.25 740.91,494.68 743.38,491.35 C745.14,492.3 746.6,494.77 748.06,496.22 Z" id="Path" fill="#000000" opacity="0.1"></path>
                <path d="M727.07,389.33 C730.07,387.43 733.71,386.63 737.24,385.98 C739.357321,385.49844 741.535807,385.343315 743.7,385.52 C745.7,385.77 747.62,386.52 749.63,386.65 C752.46,386.81 755.17,385.65 757.89,384.92 C760.61,384.19 763.77,383.92 766.07,385.53 C766.555777,386.016473 767.175463,386.347204 767.85,386.48 C768.546028,386.39188 769.19316,386.075349 769.69,385.58 C773.65593,382.756839 779.0452,383.042885 782.69,386.27 C787.9,391.15 787.31,400.69 793.41,404.39 C795.1,405.39 797.25,405.95 798.23,407.66 C798.466734,408.203489 798.744191,408.728315 799.06,409.23 C799.472622,409.664889 799.97396,410.005936 800.53,410.23 C802.28822,411.025453 803.963104,411.993537 805.53,413.12 C807.114004,414.279723 808.157463,416.034466 808.42,417.98 C808.443246,419.390566 808.138575,420.787257 807.53,422.06 C801.410429,437.064956 786.507836,446.592844 770.32,445.85 C768.917196,445.925506 767.533714,445.496272 766.42,444.64 C765.832266,443.978102 765.368228,443.215997 765.05,442.39 C762.18,436.39 756.8,431.93 753.37,426.21 C751.37,422.8 750.03,418.99 747.9,415.64 C744.69,410.55 739.79,406.79 735,403.14 C732.3,401.08 729.29,398.92 725.9,399.07 C722.9,399.2 720.68,399.36 721.79,395.65 C722.73861,392.98029 724.611606,390.738371 727.07,389.33 L727.07,389.33 Z" id="Path" fill="#3F3D56"></path>
                <path d="M727.07,389.33 C730.07,387.43 733.71,386.63 737.24,385.98 C739.357321,385.49844 741.535807,385.343315 743.7,385.52 C745.7,385.77 747.62,386.52 749.63,386.65 C752.46,386.81 755.17,385.65 757.89,384.92 C760.61,384.19 763.77,383.92 766.07,385.53 C766.555777,386.016473 767.175463,386.347204 767.85,386.48 C768.546028,386.39188 769.19316,386.075349 769.69,385.58 C773.65593,382.756839 779.0452,383.042885 782.69,386.27 C787.9,391.15 787.31,400.69 793.41,404.39 C795.1,405.39 797.25,405.95 798.23,407.66 C798.466734,408.203489 798.744191,408.728315 799.06,409.23 C799.472622,409.664889 799.97396,410.005936 800.53,410.23 C802.28822,411.025453 803.963104,411.993537 805.53,413.12 C807.114004,414.279723 808.157463,416.034466 808.42,417.98 C808.443246,419.390566 808.138575,420.787257 807.53,422.06 C801.410429,437.064956 786.507836,446.592844 770.32,445.85 C768.917196,445.925506 767.533714,445.496272 766.42,444.64 C765.832266,443.978102 765.368228,443.215997 765.05,442.39 C762.18,436.39 756.8,431.93 753.37,426.21 C751.37,422.8 750.03,418.99 747.9,415.64 C744.69,410.55 739.79,406.79 735,403.14 C732.3,401.08 729.29,398.92 725.9,399.07 C722.9,399.2 720.68,399.36 721.79,395.65 C722.73861,392.98029 724.611606,390.738371 727.07,389.33 L727.07,389.33 Z" id="Path" fill="#000000" opacity="0.05"></path>
                <path d="M712.29,800.94 C714.35,802.86 717.18,803.7 719.93,804.3 C726.202002,805.515904 732.5504,806.297759 738.93,806.64 L745.14,807.12 C751.14,807.58 757.26,808.04 763.34,808.07 C770.843024,808.094382 778.333089,807.445109 785.72,806.13 C786.40809,806.107291 787.054565,805.794949 787.5,805.27 C787.726477,804.8367 787.82038,804.346315 787.77,803.86 C787.632006,796.303851 786.703617,788.782888 785,781.42 C784.3,778.42 778.87,785.18 778.62,785.42 C777.12,787.13 775.98,787.92 773.69,788.04 C767.44,788.38 760.45,784.58 755.48,781.2 C754.41893,780.407614 753.291407,779.708349 752.11,779.11 C751.240635,778.724492 750.321805,778.461969 749.38,778.33 C746.165155,778.038257 742.93531,778.695351 740.09,780.22 C736.35,782.07 733.09,784.73 729.39,786.63 C726.38408,788.160453 723.142221,789.174591 719.8,789.63 C716.42,790.09 712.38,790.32 710.64,793.25 C710.64,793.25 710.64,793.25 710.64,793.25 C709.21,795.75 710.24,799.03 712.29,800.94 Z" id="Path" fill="#3F3D56"></path>
                <path d="M712.29,802.06 C714.35,803.98 717.18,804.82 719.93,805.41 C726.200995,806.634116 732.549733,807.419355 738.93,807.76 L745.14,808.24 C751.14,808.7 757.26,809.16 763.34,809.19 C770.843024,809.214382 778.333089,808.565109 785.72,807.25 C786.40809,807.227291 787.054565,806.914949 787.5,806.39 C788.083258,805.618332 788.551468,804.766122 788.89,803.86 C788.76,796.3 786.71,788.76 785.01,781.39 C784.31,778.39 778.88,785.15 778.63,785.39 C777.13,787.1 775.99,787.89 773.7,788.01 C767.45,788.35 760.46,784.55 755.49,781.17 C754.42893,780.377614 753.301407,779.678349 752.12,779.08 C751.250635,778.694492 750.331805,778.431969 749.39,778.3 C750.19,782.8 756.64,788.23 759.97,789.88 C766.7,793.22 774.7,791.56 782.21,791.95 C782.758233,791.930741 783.301252,792.062173 783.78,792.33 C784.68,792.93 784.78,794.2 784.71,795.28 C784.65,797.07 784.42,799.18 782.86,800.09 C782.083498,800.459878 781.229634,800.638196 780.37,800.61 C761.862837,801.404205 743.321855,800.735459 724.92,798.61 C721.83532,798.407886 718.799958,797.733361 715.92,796.61 C714.033047,795.721424 712.271252,794.588361 710.68,793.24 C708.27,795.19 710.24,800.15 712.29,802.06 Z" id="Path" fill="#E8EAF2"></path>
                <path d="M727.76,349.66 C727.87,352.59 725.86,358.29 731.35,356.66 C734.63,355.71 735.55,351.84 739.7,352.66 C743.85,353.48 744.81,358.66 746.22,361.99 C748.5494,367.393498 753.388274,371.304983 759.16,372.45 C760.330717,372.725149 761.549283,372.725149 762.72,372.45 C765.4,371.68 766.93,368.92 768.02,366.36 C768.97224,364.196402 769.757857,361.963242 770.37,359.68 C770.796951,358.071466 771.081383,356.42845 771.22,354.77 L771.22,354.77 C771.304983,353.641598 771.304983,352.508402 771.22,351.38 C770.72,344.7 766.92,338.61 762.05,334.01 C757.18,329.41 751.28,326.08 745.44,322.8 C743.536905,321.60978 741.477046,320.690921 739.32,320.07 C737.19159,319.635066 735.007247,319.543911 732.85,319.8 C730.009958,319.921884 727.218141,320.576587 724.62,321.73 C723.556435,322.24391 722.578315,322.918476 721.72,323.73 C720.50084,324.858693 719.629926,326.312529 719.21,327.92 C718.16,332.23 720.91,336.12 723.14,339.53 C725.15,342.67 727.61,345.88 727.76,349.66 Z" id="Path" fill="#3F3D56"></path>
                <path d="M635.35,412.69 C636.52,409.69 641.45,401.55 640.03,398.69 C638.549511,400.791576 637.289523,403.040118 636.27,405.4 C635.34,407.73 636.1,410.8 635.35,412.69 Z" id="Path" fill="#000000" opacity="0.1"></path>
                <path d="M723,339.64 C720.76,336.23 718,332.34 719.06,328.03 C719.575057,326.129514 720.699163,324.450382 722.26,323.25 C721.896619,323.874929 721.623892,324.548328 721.45,325.25 C720.39,329.57 723.15,333.45 725.38,336.86 C727.38,339.86 729.83,343.11 729.98,346.86 C730.09,349.8 728.08,355.5 733.58,353.86 C736.85,352.91 737.77,349.03 741.93,349.86 C746.09,350.69 747.03,355.86 748.44,359.19 C750.770584,364.590717 755.609674,368.498638 761.38,369.64 C762.550717,369.915149 763.769283,369.915149 764.94,369.64 C765.54447,369.469171 766.113454,369.191453 766.62,368.82 C765.779963,370.495227 764.32546,371.781351 762.56,372.41 C761.389283,372.685149 760.170717,372.685149 759,372.41 C753.226022,371.264751 748.384181,367.35389 746.05,361.95 C744.65,358.6 743.73,353.5 739.54,352.62 C735.35,351.74 734.46,355.62 731.19,356.62 C725.69,358.21 727.7,352.51 727.59,349.62 C727.49,345.88 725,342.67 723,339.64 Z" id="Path" fill="#000000" opacity="0.1"></path>
                <path d="M721.82,333.8 C722.336236,334.635351 722.900518,335.440038 723.51,336.21 C724.671417,337.665246 725.970793,339.00481 727.39,340.21 C728.23,340.94 729.1,341.62 730.01,342.27 C731.69652,343.452288 733.467998,344.50849 735.31,345.43 C740.68,348.14 746.5,349.84 752.31,351.51 L763.65,354.81 C765.04,355.81 767.59,357.76 770.4,359.73 C770.826951,358.121466 771.111383,356.47845 771.25,354.82 L771.25,354.82 C771.334983,353.691598 771.334983,352.558402 771.25,351.43 C770.75,344.75 766.95,338.66 762.08,334.06 C757.21,329.46 751.31,326.13 745.47,322.85 C743.566905,321.65978 741.507046,320.740921 739.35,320.12 C737.22159,319.685066 735.037247,319.593911 732.88,319.85 C730.039958,319.971884 727.248141,320.626587 724.65,321.78 C723.586435,322.29391 722.608315,322.968476 721.75,323.78 C721.112095,324.722921 720.623042,325.758365 720.3,326.85 C719.57,329.24 720.55,331.74 721.82,333.8 Z" id="Path" fill="#000000" opacity="0.1"></path>
                <path d="M721.82,333.04 C722.336298,333.872107 722.900586,334.673462 723.51,335.44 C724.666247,336.899789 725.966095,338.239839 727.39,339.44 C728.221256,340.180602 729.092569,340.874982 730,341.52 C731.688686,342.701896 733.459888,343.761275 735.3,344.69 C740.67,347.39 746.49,349.09 752.3,350.77 L763.64,354.06 C767.64,357.06 780.84,366.87 783.06,365.64 C785.69,364.2 771.31,354.02 771.31,354.02 L770.65,354.52 C772.76,353.2 773.86,350.13 774.33,347.52 C775.17,342.77 775.57,337.84 774.45,333.14 C773.33,328.44 770.5,323.99 766.2,321.79 C764.3,320.79 761.99,320.15 760.61,318.64 C760.40169,318.41894 760.220416,318.173885 760.07,317.91 C759.985416,317.786675 759.911802,317.656176 759.85,317.52 C759.700712,317.106009 759.499075,316.712818 759.25,316.35 C758.46,315.44 757.03,315.71 755.84,315.86 C755.71,315.86 755.59,315.86 755.46,315.86 C755.243591,315.874937 755.026409,315.874937 754.81,315.86 C750.55,315.96 746.42,313.59 742.11,313.59 C737.38,313.59 733.36,316.32 729.2,318.18 C728.36,318.56 727.56,318.91 726.81,319.26 C723.81,320.66 721.55,322.15 720.31,326.13 C719.57,328.47 720.55,330.97 721.82,333.04 Z" id="Path" fill="#1D3A8F"></path>
                <path d="M754.79,315.88 C754.620197,316.185997 754.530744,316.530048 754.53,316.88 C754.529518,317.469735 754.789334,318.029621 755.24,318.41 C755.767506,318.780366 756.386807,318.998332 757.03,319.04 C757.494344,319.101864 757.961692,319.138584 758.43,319.15 C759.059656,319.203346 759.692582,319.096712 760.27,318.84 C760.382565,318.779429 760.489637,318.709164 760.59,318.63 C760.38169,318.40894 760.200416,318.163885 760.05,317.9 C759.94,317.98 759.83,317.96 759.41,317.9 C758.631264,317.855505 757.859874,317.724705 757.11,317.51 C756.800218,317.423356 756.5088,317.281035 756.25,317.09 C755.861886,316.767135 755.579695,316.335139 755.44,315.85 L754.79,315.88 Z" id="Path" fill="#000000" opacity="0.1"></path>
                <path d="M771,353.91 C770.388384,354.283648 769.708506,354.531804 769,354.64 C768.502364,354.769336 767.993276,354.849718 767.48,354.88 C766.179387,354.838599 764.906068,354.496309 763.76,353.88" id="Path" fill="#000000" opacity="0.1"></path>
                <rect id="Rectangle" fill="#3F3D56" opacity="0.1" x="201.28" y="340.99" width="51.73" height="25.38"></rect>
                <rect id="Rectangle" fill="#3F3D56" opacity="0.1" x="201.28" y="412.24" width="51.73" height="25.38"></rect>
                <rect id="Rectangle" fill="#3F3D56" opacity="0.1" x="201.28" y="483.49" width="51.73" height="25.38"></rect>
                <rect id="Rectangle" fill="#3F3D56" opacity="0.1" x="201.28" y="554.74" width="51.73" height="25.38"></rect>
                <path d="M358.42,404.64 C359.86,403.72 359.29,401.26 357.8,400.42 C356.31,399.58 354.47,399.84 352.8,400.18 C352.961188,399.305122 352.525135,398.42894 351.73,398.03 L351.73,397.66 C352.73,396.72 352.33,394.72 351.15,393.87 C349.97,393.02 348.15,392.97 346.49,393.05 C346.70992,391.073883 345.965619,389.112649 344.49,387.78 C344.207915,387.477408 343.822457,387.291817 343.41,387.26 C342.48,387.26 342.17,388.51 342.1,389.44 C341.905067,391.873 341.503621,394.28502 340.9,396.65 L310.59,447.42 C307.21,452.3 317.71,437.7 314.33,442.58 C312.606714,445.264839 310.594733,447.752989 308.33,450 C306.298746,451.807419 304.027214,453.325139 301.58,454.51 C299.94615,454.561544 298.33621,454.107548 296.97,453.21 C295.25739,452.005696 293.759788,450.521616 292.54,448.82 C289.897549,445.458011 287.507681,441.904962 285.39,438.19 C284.648971,437.016366 284.095647,435.734272 283.75,434.39 C283.29,432.29 283.75,430 282.91,428.03 C282.564112,427.288799 282.127431,426.593469 281.61,425.96 L279.52,423.17 C279.515084,423.130151 279.515084,423.089849 279.52,423.05 C279.28,418.92 275.94,415.75 272.82,413.05 C270.16,410.73 267.28,408.31 263.82,407.86 C261.94,407.62 260.02,407.98 258.14,407.74 C256.61,407.55 255.14,406.97 253.64,406.74 C252.174659,406.544929 250.692068,406.51474 249.22,406.65 L248.59,406.08 C251.828953,404.707885 254.581165,402.394634 256.49,399.44 C257.94,397.1 258.72,394.44 260.06,392.01 C261.69,389.08 264.06,386.66 265.95,383.85 C270.31,377.18 271.11,368.6 269.35,360.85 C267.59,353.1 263.44,346.03 258.57,339.73 C249.2,327.61 233.48,323.11 218.68,325.49 C217.68,325.64 216.68,325.83 215.73,326.04 C213.240683,326.564609 210.811423,327.341972 208.48,328.36 C205.322486,329.643872 202.583917,331.780025 200.57,334.53 C200.018351,335.330658 199.555618,336.18906 199.19,337.09 C198.914175,337.772155 198.690206,338.474147 198.52,339.19 C198.063991,341.35875 197.942586,343.584517 198.16,345.79 C198.22,346.54 198.3,347.3 198.39,348.05 C198.39,348.43 198.48,348.8 198.53,349.18 C198.63,349.93 198.74,350.69 198.84,351.44 C199,352.57 199.15,353.7 199.26,354.81 C199.344846,355.600436 199.38491,356.395039 199.38,357.19 C199.38,357.39 199.38,357.58 199.38,357.78 C199.348782,358.370234 199.261726,358.956184 199.12,359.53 C199.039849,359.84163 198.943043,360.148738 198.83,360.45 C198.477705,361.350894 198.014106,362.204184 197.45,362.99 C196.684534,364.036272 195.859854,365.037907 194.98,365.99 L194.13,366.99 L193.29,367.99 C192.173314,369.289917 191.15389,370.670318 190.24,372.12 C189.78783,372.84615 189.383634,373.601094 189.03,374.38 C188.767888,374.972827 188.540831,375.580541 188.35,376.2 C188.090358,377.023798 187.912827,377.871256 187.82,378.73 C187.82,378.95 187.77,379.16 187.76,379.38 C187.734972,379.8063 187.734972,380.2337 187.76,380.66 C187.776417,381.082812 187.823204,381.503897 187.9,381.92 C188.038743,382.759015 188.287556,383.576063 188.64,384.35 C188.64,384.46 188.75,384.57 188.8,384.67 C188.85,384.77 188.91,384.88 188.96,384.99 C189.01,385.1 189.17,385.42 189.27,385.63 C189.414078,385.950183 189.521429,386.285655 189.59,386.63 C189.59,386.74 189.59,386.86 189.59,386.98 C189.59998,387.103131 189.59998,387.226869 189.59,387.35 C189.435356,388.329842 188.922146,389.217268 188.15,389.84 C187.96,390.02 187.75,390.19 187.55,390.36 L187.24,390.61 L186.61,391.11 L186,391.6 C185.468399,392.046553 184.976553,392.538399 184.53,393.07 C179.033683,392.770351 173.523793,393.309875 168.19,394.67 C166.289602,395.284493 164.315293,395.641012 162.32,395.73 C161.34768,395.820492 160.394485,395.418949 159.78,394.66 C159.452564,393.929427 159.361659,393.11478 159.52,392.33 C159.788346,389.06051 159.252779,385.775012 157.96,382.76 C157.644501,381.876065 157.10325,381.090045 156.39,380.48 C155.646536,379.881396 154.603657,379.825024 153.8,380.34 C155.448695,385.683126 155.212166,391.430416 153.13,396.62 C152.053889,399.063519 150.797071,401.423395 149.37,403.68 C147.14,407.47 145.89,411.81 143.91,415.74 C146.13,423.25 145.64,431.27 146.8,439.01 C147.88,446.23 150.4,453.13 152.93,460.01 C154.84,465.18 156.93,470.56 161.05,474.2 C162.381158,475.532608 164.167678,476.311531 166.05,476.38 C167.459957,476.209888 168.80808,475.702198 169.98,474.9 C171.188038,474.239215 172.301411,473.41848 173.29,472.46 C173.669612,472.064317 174.004928,471.628406 174.29,471.16 C174.405621,471.816609 174.654022,472.442717 175.02,473 C177.4,467.87 180.02,462.85 182.82,457.94 C183.656366,457.494177 184.441096,456.95761 185.16,456.34 C185.21,456.51 185.25,456.69 185.29,456.87 C185.17,457.34 185.05,457.82 184.92,458.29 C184.79,458.76 184.65,459.19 184.51,459.63 C184.37,460.07 184.31,460.29 184.2,460.63 C184.09,460.97 183.94,461.41 183.8,461.8 L183.32,463.07 C183.2,463.37 183.09,463.67 182.96,463.97 C182.66,464.7 182.35,465.43 182.01,466.15 C182.278611,466.28208 182.555922,466.395677 182.84,466.49 L183.03,466.55 C183.282981,466.627432 183.540037,466.690862 183.8,466.74 L184.08,466.74 L184.66,466.8 L184.88,466.8 C184.98,466.8 185.08,466.8 185.18,466.8 L185.57,466.8 C186.268138,466.758859 186.959288,466.638076 187.63,466.44 C187.76,466.96 187.88,467.49 188.01,468.01 C188.983224,471.510422 189.612868,475.097388 189.89,478.72 C190.07,482.82 189.36,486.98 190.14,491.02 C190.55,493.11 191.36,495.12 191.65,497.24 C191.846392,499.237488 191.809477,501.251053 191.54,503.24 C191.086667,508.033333 190.633333,512.826667 190.18,517.62 C190.137558,519.37855 189.718109,521.107499 188.95,522.69 C188.27,523.86 187.18,525.2 187.86,526.36 C188.985665,526.05646 190.132072,525.835869 191.29,525.7 C190.87,527.23 190.49,528.76 190.13,530.3 C189.777505,531.448603 189.685272,532.661299 189.86,533.85 C190.1,534.96 190.79,535.96 190.86,537.1 C191.03,538.85 189.86,540.4 189.14,542.03 C187.42,546.19 189.25,550.88 191.07,555.03 L196.45,567.24 C197.916667,570.573333 199.39,573.906667 200.87,577.24 C202.18,580.24 203.5,583.24 204.76,586.24 C210.521914,599.930717 215.228957,614.041817 218.84,628.45 C218.954931,629.102089 219.199782,629.724418 219.56,630.28 C220.31,631.28 221.66,631.57 222.76,632.18 C226.08,634 226.46,639.45 223.42,641.71 C224.05,649.05 218.55,656.14 215.72,662.94 C209.2,678.57 210.38,696.18 208.14,712.94 L210.67,711.46 C210.968514,711.598494 211.24485,711.780472 211.49,712 C211.43,712.31 211.37,712.62 211.29,712.94 C210.949533,714.366208 210.400273,715.734305 209.66,717 C208.19,719.54 205.94,721.79 205.6,724.7 C205.39,726.45 205.93,728.21 205.92,729.98 C205.92,730.14 205.92,730.3 205.92,730.47 C205.7,730.25 205.36,730.27 204.84,730.67 C204.05038,731.509191 203.501173,732.545432 203.25,733.67 C202.81,734.92 202.46,736.2 202.11,737.48 L200.88,742 C200.212935,744.712773 199.330125,747.367892 198.24,749.94 C197.302534,751.667595 196.519491,753.474616 195.9,755.34 C195.548043,756.856655 195.410039,758.415098 195.49,759.97 C195.471064,761.454612 195.687066,762.932876 196.13,764.35 C197.311596,767.181925 199.631157,769.385326 202.52,770.42 C205.378713,771.42179 208.372664,771.984842 211.4,772.09 C212.175115,772.190242 212.961071,772.170003 213.73,772.03 C214.558373,771.793454 215.330463,771.392103 216,770.85 C220.11,767.85 222.24,762.25 222.61,757.15 C222.506403,756.100081 222.319142,755.06011 222.05,754.04 C222.3,748.49 221.49,742.91 221.92,737.38 C222,738.01 222.1,738.63 222.19,739.26 C222.523333,741.326667 222.856667,743.396667 223.19,745.47 C223.129052,745.250381 223.011859,745.050464 222.85,744.89 C222.13127,747.19496 222.007427,749.6443 222.49,752.01 C222.95684,754.363274 223.625991,756.671847 224.49,758.91 L225.82,762.62 C226.140731,763.736852 226.677543,764.779899 227.4,765.69 C228.57,766.97 230.35,767.44 232.03,767.86 C235.679236,768.917533 239.436522,769.558284 243.23,769.77 C243.739221,769.829641 244.254642,769.735611 244.71,769.5 C244.939357,769.32465 245.159642,769.137741 245.37,768.94 C245.707471,768.693562 246.069372,768.482454 246.45,768.31 C248.078542,767.455128 249.309175,765.99846 249.88,764.25 C250.435586,762.487596 250.206073,760.57135 249.25,758.99 C248.805312,758.327997 248.296161,757.711656 247.73,757.15 L241.06,750.08 C240.042823,748.859956 238.950713,747.70439 237.79,746.62 C237.513648,746.33227 237.114074,746.197834 236.72,746.26 C234.91,741.74 235.14,736.44 235.46,731.48 C235.55,730 236.36,726.92 236.69,724.4 C237.974989,723.980767 239.174084,723.333797 240.23,722.49 C241.219493,721.747544 241.925231,720.688938 242.23,719.49 C245.59,702.29 251.04,685.62 256.13,668.86 C256.63,667.21 257.13,665.55 257.62,663.86 L258.24,661.74 C258.4,661.16 258.58,660.58 258.74,660 C259.02,659 259.29,658.05 259.55,657.07 C259.63,656.81 259.7,656.54 259.77,656.28 C259.774547,656.226764 259.774547,656.173236 259.77,656.12 C260.1,654.92 260.41,653.72 260.72,652.52 L261.08,651.14 C261.47,649.61 261.84,648.07 262.21,646.54 C262.26,646.33 262.31,646.11 262.35,645.89 C262.474968,645.347715 262.436695,644.780578 262.24,644.26 L262.24,644.26 L262.24,644.26 C262.134394,644.057477 262.003332,643.869285 261.85,643.7 C261.75,643.58 261.63,643.45 261.51,643.33 L261.14,642.92 C260.830942,642.542484 260.599817,642.107426 260.46,641.64 C260.46,641.17 260.46,640.7 260.46,640.24 C260.46,639.78 260.4,639.24 260.37,638.75 C260.474148,638.094419 260.62113,637.446365 260.81,636.81 C260.92,636.43 261.05,636.05 261.17,635.67 C261.29,635.29 261.46,634.67 261.62,634.25 C262.207137,633.58595 262.524611,632.726273 262.51,631.84 C263.11,630.33 263.77,628.84 264.51,627.4 C265.407337,625.928804 266.014925,624.299518 266.3,622.6 C266.290072,621.062251 266.095342,619.531271 265.72,618.04 C264.72,611.7 267.66,605.51 269.84,599.48 C271.4368,595.052016 272.651243,590.495348 273.47,585.86 C274.11,582.29 274.55,578.56 276.47,575.47 C277.096309,574.607133 277.632449,573.682292 278.07,572.71 C278.363874,571.686101 278.508695,570.625202 278.5,569.56 C278.734794,565.247966 279.776123,561.018202 281.57,557.09 C281.975755,556.33616 282.246503,555.517148 282.37,554.67 C282.374825,554.613436 282.374825,554.556564 282.37,554.5 L282.37,554.26 L282.87,554.19 C283.72,548.81 284.57,542.81 283.99,537.4 C283.223726,531.12446 280.168563,525.35241 275.41,521.19 L275.51,521.19 C277.19,520.34 277.94,518.31 277.96,516.43 C277.975033,513.611015 276.705131,510.9387 274.51,509.17 C274.029322,508.869725 273.628012,508.458125 273.34,507.97 C273.178076,507.459964 273.130281,506.920562 273.2,506.39 C273.201404,503.119154 271.225955,500.171785 268.2,498.93 C267.893983,498.845815 267.614946,498.683904 267.39,498.46 C267.1501,498.027661 267.078849,497.521783 267.19,497.04 C267.384139,493.797799 265.762272,490.715865 262.98,489.04 C263.533152,486.972958 263.594797,484.805135 263.16,482.71 C262.56,480.71 260.64,478.84 258.53,479.11 C260.25,474.42 257.81,469.2 258.46,464.25 C258.74,462.13 259.59,460.09 259.7,457.95 C259.8,456.01 259.31,453.95 260.26,452.21 C261.21,450.47 263.45,449.21 262.87,447.37 C262.62,446.57 261.87,446.03 261.55,445.25 C261.23,444.47 262.55,443.25 263.28,443.73 C263.61,443.48 263.94,443.21 264.28,442.94 C264.386854,443.932623 264.584345,444.913381 264.87,445.87 C265.34,447.47 266.08,448.98 266.57,450.57 C267.33,453 267.57,455.63 268.79,457.86 C270.79,461.42 274.86,463.18 277.66,466.14 C279.3,467.87 280.47,470 282.16,471.69 C283.445086,472.885069 284.85291,473.940936 286.36,474.84 L295.36,480.68 C296.29267,481.36065 297.334137,481.878002 298.44,482.21 C299.858788,482.481226 301.32668,482.157051 302.499284,481.313533 C303.671887,480.470015 304.445999,479.181393 304.64,477.75 C303.807047,477.464699 303.048508,476.996592 302.42,476.38 C302.55,476.38 302.68,476.38 302.8,476.32 C304.946895,475.759242 306.93304,474.704531 308.6,473.24 C315.02,468.13 319.6,461.15 324.14,454.29 C328.86,447.1 351.6,428.07 351.6,428.07 L351.6,420.35 C354.489058,418.674586 357.053213,416.493191 359.17,413.91 C360.320252,412.515637 360.986975,410.785668 361.07,408.98 C361.215421,407.113137 360.147097,405.363505 358.42,404.64 Z M169.36,423.13 C168.92,425.93 168.383333,428.716667 167.75,431.49 C167.044377,434.687998 166.146072,437.840414 165.06,440.93 C164.94,441.25 164.82,441.58 164.71,441.93 C164.38,441.33 164.06,440.73 163.77,440.12 C163.03,438.59 162.44,436.99 161.85,435.4 L158.09,425.25 C157.6,423.94 157.09,422.41 157.84,421.2 C158.377875,420.458764 159.12735,419.897529 159.99,419.59 C162.637858,418.379124 165.402108,417.440954 168.24,416.79 C169.139226,416.607306 170.027327,416.373595 170.9,416.09 C170.17414,418.385084 169.65868,420.741471 169.36,423.13 L169.36,423.13 Z M173.52,410.47 C173.26919,410.012095 173.26919,409.457905 173.52,409 C173.807856,408.712768 174.14706,408.482109 174.52,408.32 C174.618906,408.261501 174.712586,408.194587 174.8,408.12 L173.52,410.47 Z M181.32,399.47 C180.209136,400.382522 179.202978,401.415511 178.32,402.55 C177.36063,403.816553 176.498182,405.153681 175.74,406.55 C175.992116,405.441957 175.573839,404.288764 174.67,403.6 C174.315783,403.413405 173.980829,403.192335 173.67,402.94 C173.343784,402.505045 173.203714,401.958316 173.280604,401.420086 C173.357493,400.881857 173.645045,400.396216 174.08,400.07 C174.972587,399.4744 176.00857,399.129072 177.08,399.07 L181.57,398.41 C181.51,398.7 181.42,399.07 181.32,399.42 L181.32,399.47 Z M223.46,726.06 C223.537116,724.721052 223.449798,723.377699 223.2,722.06 C223.76,722.06 224.31,722.06 224.86,722.01 L223.46,726.06 Z" id="Shape" fill="url(#linearGradient-2)"></path>
                <path d="M218.88,328.35 C211.07,329.6 202.38,332.61 199.39,339.93 C197.14,345.46 198.88,351.69 199.46,357.64 C199.679117,359.207866 199.621579,360.802011 199.29,362.35 C198.65,364.86 196.87,366.89 195.16,368.83 C192.772891,371.294855 190.767422,374.102511 189.21,377.16 C187.8,380.29 187.36,384.02 188.81,387.16 C189.308396,387.961059 189.647908,388.850581 189.81,389.78 C189.9,391.78 187.81,393.1 186.21,394.4 C180.35,399.25 180.6,408.09 180.55,415.71 C180.442088,431.269775 176.965747,446.621624 170.36,460.71 C175.415006,463.280497 181.529271,462.486437 185.76,458.71 C184.945987,462.182265 183.773009,465.560442 182.26,468.79 C187.26,471.19 193.2,467.25 195.69,462.33 C198.18,457.41 198.47,451.69 200.24,446.47 C202.01,441.25 205.15,436.71 206.49,431.47 C206.94,429.73 207.21,427.88 208.27,426.47 C209.163941,425.425072 210.216833,424.527414 211.39,423.81 C216.531955,420.080221 220.378255,414.835266 222.39,408.81 C228.47,410.15 234.66,411.5 240.85,410.94 C247.04,410.38 253.36,407.57 256.63,402.28 C258.08,399.94 258.86,397.28 260.2,394.86 C261.83,391.93 264.2,389.51 266.09,386.71 C270.44,380.05 271.25,371.48 269.48,363.71 C267.71,355.94 263.58,348.91 258.71,342.61 C249.38,330.47 233.67,325.97 218.88,328.35 Z" id="Path" fill="#303D5C"></path>
                <path d="M169.59,425.96 C169.15,428.76 168.616667,431.54 167.99,434.3 C167.285702,437.495053 166.387371,440.644222 165.3,443.73 C164.66011,445.083454 164.367957,446.575154 164.45,448.07 C164.642363,448.986035 164.998033,449.859967 165.5,450.65 C169.06,456.98 173.87,463.1 174.28,470.36 C174.39,472.17 174.28,474.13 175.28,475.62 C178.04,469.7 181.08,463.923333 184.4,458.29 C187.87,452.39 191.74,446.44 192.74,439.67 C193.131823,436.488918 193.088087,433.269265 192.61,430.1 C192.15,426.54 191.35,422.89 189.18,420.04 C186.82,416.95 180.35,412.3 176.18,413.26 C171.23,414.42 170.21,421.99 169.59,425.96 Z" id="Path" fill="#1D3A8F"></path>
                <path d="M295.39,460.11 C300.06,458.2 304.82,456.18 308.52,452.76 C310.790205,450.52526 312.802769,448.043097 314.52,445.36 L325.52,429.49 C328.12,425.73 330.8,421.77 331.36,417.23 C337.801641,410.447672 341.689545,401.639802 342.36,392.31 C342.44,391.38 342.75,390.16 343.68,390.14 C344.090807,390.170118 344.475744,390.351893 344.76,390.65 C346.235619,391.982649 346.97992,393.943883 346.76,395.92 C348.36,395.84 350.11,395.8 351.41,396.73 C352.71,397.66 353.06,399.99 351.66,400.73 C352.636697,401.019671 353.239582,401.997205 353.06,403 C354.74,402.66 356.58,402.39 358.06,403.23 C359.54,404.07 360.12,406.53 358.68,407.45 C360.394736,408.112902 361.507604,409.782205 361.46,411.62 C361.376269,413.422501 360.709502,415.149077 359.56,416.54 C355.35,422.19 347.9,424.48 343.02,429.54 C341.41021,431.324156 339.967498,433.252236 338.71,435.3 L324.55,456.84 C320.05,463.69 315.43,470.67 309.01,475.77 C307.345502,477.232559 305.363079,478.287112 303.22,478.85 C301.037221,479.390328 298.730841,478.749245 297.14,477.16 C295.72,475.55 295.52,473.24 295.37,471.1 C295,467.51 295.63,463.76 295.39,460.11 Z" id="Path" fill="#EE8E9E"></path>
                <path d="M248,759.42 C248.562487,759.982303 249.068259,760.598607 249.51,761.26 C250.468998,762.836324 250.702217,764.749451 250.15,766.51 C249.572658,768.254819 248.343863,769.709311 246.72,770.57 C246.339632,770.738967 245.977715,770.946734 245.64,771.19 C245.429642,771.387741 245.209357,771.57465 244.98,771.75 C244.523948,771.983979 244.010007,772.081211 243.5,772.03 C239.70763,771.808521 235.951426,771.167954 232.3,770.12 C230.62,769.7 228.85,769.22 227.68,767.95 C226.957543,767.039899 226.420731,765.996852 226.1,764.88 L224.77,761.18 C223.911901,758.94328 223.24289,756.638537 222.77,754.29 C222.286961,751.927679 222.410821,749.481449 223.13,747.18 C223.466502,747.5864 223.641005,748.102788 223.62,748.63 C224.016631,751.121426 224.99284,753.484879 226.47,755.53 C227.386948,757.147192 229.055118,758.195434 230.91,758.32 C233.245981,758.827599 235.621512,759.132068 238.01,759.23 C238.348133,759.270911 238.691146,759.229749 239.01,759.11 C239.398546,758.893227 239.688636,758.53509 239.82,758.11 C240.159758,757.166316 240.159758,756.133684 239.82,755.19 C239.19,753.39 237.42,752.19 236.57,750.49 C235.95,749.22 236.82,747.83 238.1,748.9 C239.258202,749.983381 240.350175,751.135462 241.37,752.35 L248,759.42 Z" id="Path" fill="#303D5C"></path>
                <path d="M235.7,733.78 C235.32,739.78 235.05,746.17 238.32,751.18 C239.49,752.98 241.06,754.49 242.4,756.18 C243.163282,757.01998 243.669937,758.061053 243.86,759.18 C244.06,761.37 242,763.24 239.86,763.64 C237.72,764.04 235.5,763.38 233.41,762.71 C231.436344,762.213602 229.578367,761.337262 227.94,760.13 C225.1,757.73 224.35,753.73 223.78,750.06 L222.45,741.53 C222.051597,739.485363 221.890531,737.401574 221.97,735.32 C222.242027,733.021959 222.803131,730.767462 223.64,728.61 L225.83,722.2 C225.984544,721.576622 226.335064,721.019295 226.83,720.61 C227.337804,720.337041 227.917909,720.228708 228.49,720.3 C230.59,720.41 235.86,721.17 236.88,723.39 C237.72,725.33 235.85,731.48 235.7,733.78 Z" id="Path" fill="#EE8E9E"></path>
                <path d="M235.7,733.78 C235.32,739.78 235.05,746.17 238.32,751.18 C239.49,752.98 241.06,754.49 242.4,756.18 C243.163282,757.01998 243.669937,758.061053 243.86,759.18 C244.06,761.37 242,763.24 239.86,763.64 C237.72,764.04 235.5,763.38 233.41,762.71 C231.436344,762.213602 229.578367,761.337262 227.94,760.13 C225.1,757.73 224.35,753.73 223.78,750.06 L222.45,741.53 C222.051597,739.485363 221.890531,737.401574 221.97,735.32 C222.242027,733.021959 222.803131,730.767462 223.64,728.61 L225.83,722.2 C225.984544,721.576622 226.335064,721.019295 226.83,720.61 C227.337804,720.337041 227.917909,720.228708 228.49,720.3 C230.59,720.41 235.86,721.17 236.88,723.39 C237.72,725.33 235.85,731.48 235.7,733.78 Z" id="Path" fill="#000000" opacity="0.05"></path>
                <path d="M282.61,557 C282.614825,557.056564 282.614825,557.113436 282.61,557.17 C282.483552,558.016448 282.212968,558.834963 281.81,559.59 C280.020774,563.512778 278.979605,567.735107 278.74,572.04 C278.748991,573.101936 278.604155,574.159578 278.31,575.18 C277.872449,576.152292 277.336309,577.077133 276.71,577.94 C274.81,581.03 274.37,584.76 273.71,588.32 C272.896938,592.95008 271.682353,597.500591 270.08,601.92 C267.91,607.92 264.98,614.13 265.97,620.46 C266.346366,621.94768 266.541118,623.475476 266.55,625.01 C266.264925,626.709518 265.657337,628.338804 264.76,629.81 C264.02,631.25 263.36,632.73 262.76,634.24 C262.16,635.75 261.55,637.53 261.06,639.24 C260.47,641.24 260.06,643.7 261.43,645.34 C261.845722,645.7477 262.21467,646.200499 262.53,646.69 C262.784481,647.435549 262.784481,648.244451 262.53,648.99 C261.763333,652.243333 260.936667,655.483333 260.05,658.71 C259.37,661.25 258.65,663.77 257.9,666.29 C252.42,684.71 246.21,702.94 242.52,721.81 C241.99,724.52 238.52,726.47 235.81,727.06 C233.058554,727.641779 230.194609,726.876575 228.1,725 L227.57,724.47 C224.74,721.47 224.33,716.75 224.57,712.53 C225.57,693.12 235.3,675.35 239.95,656.48 C241.628331,649.658171 242.633146,642.688102 242.95,635.67 C244.04,612.23 244.47,587.47 237.85,564.96 C236.47,560.28 234.85,554.96 237.31,550.79 C238.88,548.13 241.78,546.57 244.64,545.43 C256.458601,540.806928 269.64166,541.142182 281.21,546.36 C281.2185,546.830555 281.20181,547.301229 281.16,547.77 C280.905216,549.950823 281.154977,552.161028 281.89,554.23 C282.293325,555.102988 282.537169,556.041108 282.61,557 Z" id="Path" fill="#303D5C"></path>
                <path d="M202.36,739.77 L201.13,744.28 C200.464464,746.993214 199.581613,749.648454 198.49,752.22 C197.554919,753.945287 196.771958,755.748775 196.15,757.61 C195.801813,759.123802 195.667174,760.678881 195.75,762.23 C195.726087,763.714938 195.942204,765.193988 196.39,766.61 C197.56746,769.438957 199.884248,771.639542 202.77,772.67 C205.628713,773.67179 208.622664,774.234842 211.65,774.34 C212.425115,774.440242 213.211071,774.420003 213.98,774.28 C214.804442,774.041204 215.57283,773.64001 216.24,773.1 C220.35,770.1 222.48,764.51 222.85,759.42 C222.739436,758.235377 222.504817,757.065633 222.15,755.93 C221.83,755.5 218.72,757.26 220.05,758.72 C222.05,760.9 216.25,759.77 213.32,759.59 C212.040011,759.470265 210.770147,759.259735 209.52,758.96 L204.77,757.96 C203.22,757.62 201.43,757.09 200.88,755.6 C200.33,754.11 201.53,752.34 202.47,750.9 C204.95,747.07 205.58,742.37 206.16,737.84 C206.27,736.95 207.38,731.19 205.09,732.98 C204.30038,733.819191 203.751173,734.855432 203.5,735.98 C203.06,737.22 202.71,738.5 202.36,739.77 Z" id="Path" fill="#303D5C"></path>
                <path d="M261.44,645.31 C260.09,643.67 260.49,641.25 261.07,639.21 C261.29,638.45 261.53,637.69 261.78,636.94 L243.15,630.64 C243.08,632.31 243.01,633.98 242.93,635.64 C242.612516,642.661337 241.607714,649.634662 239.93,656.46 C235.28,675.32 225.5,693.09 224.55,712.46 C224.33,716.93 224.81,721.92 228.11,724.93 C230.203817,726.80804 233.06851,727.573444 235.82,726.99 C238.52,726.4 242,724.45 242.53,721.73 C246.22,702.87 252.42,684.64 257.91,666.21 C259.623333,660.49 261.166667,654.723333 262.54,648.91 C262.794476,648.167876 262.794476,647.362124 262.54,646.62 C262.228267,646.140006 261.858842,645.700055 261.44,645.31 Z" id="Path" fill="#000000" opacity="0.05"></path>
                <path d="M209.94,719.32 C208.47,721.85 206.22,724.1 205.88,727.01 C205.67,728.76 206.21,730.52 206.2,732.28 C206.13283,733.740878 205.873947,735.186592 205.43,736.58 C203.616667,743.133333 201.526667,749.596667 199.16,755.97 C198.773599,756.790065 198.604849,757.695805 198.67,758.6 C198.91,760.1 200.35,761.08 201.75,761.67 C206.18,763.57 211.18,763.44 216,763.24 C217.394034,763.309791 218.779738,762.987615 220,762.31 C221.72,761.13 222.15,758.79 222.26,756.7 C222.59,750.7 221.57,744.58 222.26,738.56 C222.5,736.37 222.96,734.21 223.31,732.03 C223.78,729.03 224.02,725.83 223.03,722.93 C222.201796,720.85253 221.050978,718.918751 219.62,717.2 C218.350996,715.34249 216.742859,713.741138 214.88,712.48 C214.32,712.14 212.7,711.11 212.13,711.76 C211.84,712.09 211.97,712.97 211.92,713.38 C211.849757,714.012999 211.739537,714.64092 211.59,715.26 C211.237016,716.685285 210.681354,718.05255 209.94,719.32 Z" id="Path" fill="#EE8E9E"></path>
                <path d="M245.76,564.56 C244.89,565.74 245.07,567.38 245.42,568.8 C246.04,571.38 247.07,573.8 247.91,576.36 C249.284957,580.862688 250.354059,585.453146 251.11,590.1 C251.9,594.3 253.55,598.98 252.87,603.2 C257.954026,612.876318 261.304612,623.368053 262.77,634.2 C263.15,636.98 256.97,640.58 257.09,643.39 C257.32,648.96 261.77,649.39 258.48,653.87 C258.32,654.09 259.71,659.07 259.48,659.29 C258.14,660.9 256.48,662.18 255.01,663.69 C253.160507,665.789865 251.578444,668.110896 250.3,670.6 C241.8,685.93 229.53,703.33 233.3,720.45 C233.471483,721.716981 232.821144,722.953427 231.68,723.53 C230.562746,724.078111 229.334459,724.362088 228.09,724.36 L227.5,724.36 C224.67,721.36 224.26,716.64 224.5,712.42 C225.5,693.01 235.23,675.24 239.88,656.37 C241.558331,649.548171 242.563146,642.578102 242.88,635.56 C243.97,612.12 244.4,587.36 237.78,564.85 C236.4,560.17 234.78,554.85 237.24,550.68 C238.81,548.02 241.71,546.46 244.57,545.32 C256.388601,540.696928 269.57166,541.032182 281.14,546.25 C281.1485,546.720555 281.13181,547.191229 281.09,547.66 C280.835216,549.840823 281.084977,552.051028 281.82,554.12 C282.231415,555.004759 282.478761,555.956868 282.55,556.93 C282.55,556.99 282.89,553.16 282.88,553.21 C275.27,554.31 267.33,559.29 259.72,560.38 C255.763165,560.796383 251.865487,561.655079 248.1,562.94 C247.184766,563.252362 246.374533,563.813292 245.76,564.56 Z" id="Path" fill="#000000" opacity="0.05"></path>
                <path d="M193.07,523 C192.036667,526.253333 191.136667,529.54 190.37,532.86 C190.018897,534.005322 189.923317,535.213723 190.09,536.4 C190.34,537.51 191.03,538.51 191.09,539.65 C191.27,541.4 190.09,542.95 189.38,544.58 C187.66,548.73 189.49,553.41 191.3,557.52 L196.68,569.73 L201.1,579.73 C202.41,582.73 203.73,585.68 204.99,588.68 C210.74847,602.350468 215.452207,616.441619 219.06,630.83 C219.17751,631.484475 219.422118,632.109584 219.78,632.67 C220.53,633.67 221.88,633.95 222.98,634.56 C226.3,636.38 226.67,641.82 223.64,644.08 C224.27,651.41 218.77,658.49 215.94,665.28 C209.43,680.89 210.61,698.48 208.37,715.28 L210.9,713.81 C213.33,714.92 213.24,718.36 214.55,720.69 C216.55,724.19 221.3,724.69 225.31,724.42 C226.554177,724.419611 227.781912,724.135761 228.9,723.59 C230.041144,723.013427 230.691483,721.776981 230.52,720.51 C226.74,703.39 239.01,686 247.52,670.65 C248.793937,668.16129 250.376402,665.843028 252.23,663.75 C253.67,662.23 255.36,660.95 256.7,659.35 C260.45,654.85 260.93,648.5 260.7,642.65 C260.10203,628.880048 256.468753,615.412338 250.06,603.21 C250.73,598.99 249.06,594.32 248.3,590.12 C247.548125,585.486366 246.482338,580.909161 245.11,576.42 C244.27,573.89 243.24,571.42 242.62,568.85 C242.28,567.43 242.1,565.79 242.96,564.61 C243.599237,563.878978 244.430746,563.341962 245.36,563.06 C249.129362,561.748513 253.033662,560.863002 257,560.42 L283.16,556.66 C284.01,551.29 284.86,545.29 284.28,539.89 C282.998353,529.657912 275.746992,521.171775 265.84,518.31 C264.69,518 263.36,517.8 262.42,518.53 C239.305771,513.997342 215.411073,515.537491 193.07,523 L193.07,523 Z" id="Path" fill="#303D5C"></path>
                <path d="M216.85,381.57 C217.226394,384.125499 216.825716,386.735133 215.7,389.06 C214.91803,390.337249 213.899878,391.453823 212.7,392.35 C210.171436,394.387668 207.230225,395.85145 204.08,396.64 C202.22,397.1 200.14,397.42 198.92,398.89 C197.08,401.11 198.31,404.46 199.92,406.89 C202.63,411.09 206.4,414.89 211.23,416.24 C215.09,417.29 219.23,416.64 223.15,417.33 C226.01,417.82 228.7,419 231.52,419.68 C239.675072,421.543699 248.219535,419.158323 254.23,413.34 C250.04,410.12 245.69,406.7 243.52,401.88 C241.973321,398.420883 241.683289,394.530206 242.7,390.88 C243.7,387.3 245.97,383.82 245.27,380.18 C244.57,376.54 240.97,374.02 237.41,372.79 C234.201147,371.798211 230.901553,371.128243 227.56,370.79 C225.71,370.54 214,367.95 213.27,369.23 C212.86,369.95 215.27,374.23 215.59,375.17 C216.320026,377.230426 216.744526,379.386615 216.85,381.57 L216.85,381.57 Z" id="Path" fill="#EE8E9E"></path>
                <circle id="Oval" fill="#EE8E9E" cx="231.58" cy="366.35" r="23.76"></circle>
                <path d="M219,405.62 L235.11,408.34 C239.060208,409.138752 243.07985,409.544066 247.11,409.55 C249.31453,409.330111 251.53547,409.330111 253.74,409.55 C255.26,409.8 256.74,410.38 258.25,410.55 C260.13,410.79 262.04,410.43 263.92,410.67 C267.42,411.12 270.3,413.54 272.92,415.85 C276.03,418.57 279.38,421.74 279.61,425.85 C279.663932,426.318661 279.598576,426.793351 279.42,427.23 C279.117751,427.727326 278.71187,428.153672 278.23,428.48 C275.23,430.91 273.61,434.54 271.5,437.74 C269.325732,441.036773 266.622822,443.952536 263.5,446.37 C262.8,445.92 261.5,447.11 261.77,447.88 C262.04,448.65 262.84,449.2 263.09,450 C263.66,451.82 261.41,453.16 260.48,454.83 C259.55,456.5 260.02,458.62 259.92,460.57 C259.81,462.7 258.92,464.74 258.68,466.86 C258.03,471.81 260.47,477.02 258.75,481.7 C260.87,481.43 262.75,483.26 263.38,485.3 C263.816329,487.392139 263.75122,489.557851 263.19,491.62 C265.960821,493.282535 267.581943,496.3438 267.4,499.57 C267.282707,500.052633 267.358032,500.561976 267.61,500.99 C267.838999,501.208562 268.116609,501.369644 268.42,501.46 C271.453451,502.687057 273.433814,505.637798 273.42,508.91 C273.353006,509.437982 273.404242,509.974255 273.57,510.48 C273.853591,510.970857 274.25154,511.385959 274.73,511.69 C276.923382,513.452336 278.196509,516.116335 278.19,518.93 C278.19,520.81 277.41,522.84 275.73,523.69 C272.32,525.42 268.66,526.1 264.91,526.91 C261.458192,527.7261 257.962465,528.343779 254.44,528.76 C251.180922,529.033259 247.909832,529.136733 244.64,529.07 L223.08,528.98 C217.08,528.98 210.96,528.98 204.92,528.53 C199.28,528.15 193.51,527.44 188.05,528.92 C187.37,527.77 188.46,526.42 189.14,525.26 C189.906936,523.677078 190.326322,521.948387 190.37,520.19 L191.73,505.83 C191.991181,503.840295 192.024731,501.827304 191.83,499.83 C191.54,497.72 190.74,495.72 190.33,493.62 C189.55,489.62 190.26,485.44 190.08,481.34 C189.792253,477.722016 189.16278,474.13938 188.2,470.64 L184,453.1 C183.32,450.27 183,447 181.9,444.29 C178.606667,435.85 175.163333,427.48 171.57,419.18 C171.300932,418.445079 171.37048,417.628808 171.76,416.95 L175.32,410.57 C176.273512,408.756668 177.36331,407.018339 178.58,405.37 C181.581434,401.568359 185.833144,398.953557 190.58,397.99 C195.34599,397.055192 200.288459,397.785972 204.58,400.06 C206.24,400.95 207.78,402.06 209.47,402.89 C212.32,404.33 215.82,405.84 219,405.62 Z" id="Path" fill="#1D3A8F"></path>
                <path d="M276.2,421.27 L281.82,428.75 C282.333044,429.386608 282.769379,430.081387 283.12,430.82 C283.97,432.82 283.5,435.08 283.96,437.18 C284.307546,438.520486 284.860781,439.798998 285.6,440.97 C287.713171,444.682272 290.099766,448.232081 292.74,451.59 C293.960868,453.291256 295.462292,454.77239 297.18,455.97 C298.928848,457.183529 301.121212,457.570847 303.18,457.03 C302.315015,457.353709 301.601869,457.988408 301.18,458.81 C299.04,463.04 298.88,468.05 299.79,472.71 C300.053607,474.302802 300.58083,475.840534 301.35,477.26 C302.135902,478.684581 303.405863,479.78072 304.93,480.35 C304.730794,481.778267 303.954998,483.062508 302.783438,483.903386 C301.611878,484.744264 300.146911,485.068312 298.73,484.8 C297.625814,484.463769 296.585029,483.946755 295.65,483.27 L286.65,477.44 C285.150551,476.534176 283.746718,475.478789 282.46,474.29 C280.78,472.61 279.6,470.48 277.96,468.75 C275.17,465.75 271.07,464.03 269.09,460.48 C267.86,458.25 267.64,455.62 266.88,453.19 C266.38,451.6 265.65,450.1 265.17,448.5 C263.69,443.57 264.76,438.14 267.02,433.5 C269.28,428.86 272.87,425.21 276.2,421.27 Z" id="Path" fill="#1D3A8F"></path>
                <path d="M255.05,352.81 C252.853325,349.398536 250.013908,346.447037 246.69,344.12 C242.26,340.8 237.15,338.05 231.62,337.74 C229.303453,337.622366 226.988494,338.000806 224.83,338.85 C224.73,332.14 223.06,327.67 218.88,328.35 C211.07,329.6 202.38,332.61 199.39,339.93 C197.14,345.46 198.88,351.69 199.46,357.64 C199.679117,359.207866 199.621579,360.802011 199.29,362.35 C198.65,364.86 196.87,366.89 195.16,368.83 C192.772891,371.294855 190.767422,374.102511 189.21,377.16 C187.8,380.29 187.36,384.02 188.81,387.16 C189.308396,387.961059 189.647908,388.850581 189.81,389.78 C189.9,391.78 187.81,393.1 186.21,394.4 C180.35,399.25 180.6,408.09 180.55,415.71 C180.442088,431.269775 176.965747,446.621624 170.36,460.71 C175.415006,463.280497 181.529271,462.486437 185.76,458.71 C184.945987,462.182265 183.773009,465.560442 182.26,468.79 C187.26,471.19 193.2,467.25 195.69,462.33 C198.18,457.41 198.47,451.69 200.24,446.47 C202.01,441.25 205.15,436.71 206.49,431.47 C206.94,429.73 207.21,427.88 208.27,426.47 C209.163941,425.425072 210.216833,424.527414 211.39,423.81 C216.51,420.14 208.98,392.33 210.98,386.35 C213.98,387.01 219.42,372.66 222.53,358.07 C224.70075,358.815162 227.01521,359.044553 229.29,358.74 C230.08462,358.569537 230.899353,358.512304 231.71,358.57 C232.458858,358.728976 233.173373,359.0202 233.82,359.43 C236.116875,360.848303 238.520825,362.085384 241.01,363.13 C246.17,365.05 251.84,364.8 257.33,364.52 C258.084158,360.468762 257.269039,356.282341 255.05,352.81 Z" id="Path" fill="#303D5C"></path>
                <g id="Group" opacity="0.1" transform="translate(170.000000, 328.000000)" fill="#000000">
                    <path d="M3.15,132.71 C9.75123729,118.620077 13.2273516,103.269228 13.34,87.71 C13.34,80.09 13.13,71.25 19,66.4 C20.56,65.1 22.69,63.81 22.59,61.78 C22.4331384,60.8491487 22.0932503,59.9586419 21.59,59.16 C20.13,56.06 20.59,52.33 21.98,49.16 C23.5409836,46.1046753 25.5460929,43.2975223 27.93,40.83 C29.64,38.89 31.43,36.83 32.07,34.35 C32.3965274,32.8013878 32.4540338,31.2081229 32.24,29.64 C31.66,23.64 29.91,17.46 32.17,11.93 C35.06,4.84 43.29,1.8 50.9,0.48 C50.2551679,0.26764414 49.5668963,0.222906491 48.9,0.35 C41.09,1.6 32.4,4.61 29.41,11.93 C27.16,17.46 28.9,23.69 29.48,29.64 C29.6991167,31.2078656 29.6415786,32.8020109 29.31,34.35 C28.67,36.86 26.89,38.89 25.18,40.83 C22.792891,43.2948552 20.7874223,46.1025114 19.23,49.16 C17.82,52.29 17.38,56.02 18.83,59.16 C19.328396,59.9610592 19.667908,60.8505805 19.83,61.78 C19.92,63.78 17.83,65.1 16.23,66.4 C10.37,71.25 10.62,80.09 10.57,87.71 C10.462088,103.269775 6.98574711,118.621624 0.38,132.71 C2.70363157,133.91112 5.32947993,134.40151 7.93,134.12 C6.26030847,133.964412 4.636825,133.485518 3.15,132.71 Z" id="Path"></path>
                    <path d="M15.05,140.77 C16.5598471,137.540161 17.7294798,134.161967 18.54,130.69 C17.540895,131.613282 16.3996159,132.369632 15.16,132.93 C14.4067278,135.618742 13.4334425,138.240926 12.25,140.77 C13.6775771,141.452323 15.2862699,141.659105 16.84,141.36 C16.2205419,141.240751 15.6189573,141.042463 15.05,140.77 L15.05,140.77 Z" id="Path"></path>
                    <path d="M57.63,10.85 C59.0771187,10.2787928 60.5998113,9.92170123 62.15,9.79 L61.62,9.74 C60.2793611,9.67180755 58.9354694,9.77259943 57.62,10.04 C57.61,10.31 57.63,10.57 57.63,10.85 Z" id="Path"></path>
                    <path d="M73.8,35.05 C71.3085686,34.0033423 68.9014502,32.7663509 66.6,31.35 C65.9550945,30.9368704 65.2399551,30.6453918 64.49,30.49 C63.7504626,30.4272053 63.0057015,30.4743847 62.28,30.63 C62.813449,30.8166339 63.3261744,31.0579165 63.81,31.35 C66.1068748,32.7683028 68.5108246,34.005384 71,35.05 C74.882242,36.325718 78.9708804,36.8550355 83.05,36.61 C79.901479,36.606705 76.7754521,36.0795048 73.8,35.05 L73.8,35.05 Z" id="Path"></path>
                    <path d="M55.32,29.99 C55.27,30.2 55.22,30.41 55.18,30.63 C56.348501,30.8049056 57.5341042,30.8351334 58.71,30.72 C57.5558386,30.6068706 56.4184289,30.3619416 55.32,29.99 L55.32,29.99 Z" id="Path"></path>
                </g>
                <path d="M175.86,468.15 C176.148775,470.694168 175.295548,473.23554 173.53,475.09 C172.541818,476.046177 171.4283,476.863654 170.22,477.52 C169.050314,478.326478 167.701101,478.834579 166.29,479 C164.406549,478.936505 162.618281,478.15682 161.29,476.82 C157.16,473.19 155.09,467.82 153.18,462.65 C150.65,455.82 148.13,448.92 147.05,441.71 C145.89,433.98 146.38,425.97 144.17,418.47 C146.17,414.54 147.39,410.21 149.62,406.42 C151.04321,404.164622 152.299883,401.808361 153.38,399.37 C155.450823,394.186143 155.66981,388.446576 154,383.12 C154.804209,382.593737 155.856952,382.650423 156.6,383.26 C157.314985,383.864406 157.856759,384.647736 158.17,385.53 C159.454575,388.540215 159.986576,391.818028 159.72,395.08 C159.567118,395.870117 159.665015,396.68826 160,397.42 C160.623023,398.167503 161.569905,398.566386 162.54,398.49 C164.532368,398.396765 166.503249,398.036894 168.4,397.42 C174.298506,395.921568 180.405719,395.417985 186.47,395.93 C187.690891,395.964938 188.890542,396.258034 189.99,396.79 C191.107484,397.348106 191.812531,398.490902 191.81,399.74 L177.36,401.85 C176.287824,401.905142 175.250826,402.250808 174.36,402.85 C173.914878,403.165985 173.618256,403.650181 173.538943,404.190264 C173.45963,404.730347 173.60452,405.279381 173.94,405.71 C174.252588,405.962841 174.587268,406.187076 174.94,406.38 C175.662055,406.96642 176.071242,407.854608 176.04775,408.784501 C176.024258,409.714394 175.570745,410.580787 174.82,411.13 C174.443964,411.286437 174.103719,411.517804 173.82,411.81 C173.23,412.6 174.02,413.65 174.26,414.61 C174.485876,416.052676 173.797562,417.485005 172.53,418.21 C171.285084,418.888651 169.931556,419.345467 168.53,419.56 C165.690933,420.211341 162.926387,421.152962 160.28,422.37 C159.416251,422.670307 158.66569,423.228864 158.13,423.97 C157.42,425.18 157.89,426.71 158.38,428.02 L162.14,438.16 C162.73,439.75 163.32,441.34 164.06,442.86 C165.06,444.86 166.2,446.72 167.18,448.69 C168.05809,450.542726 168.842415,452.438456 169.53,454.37 C171.43,459.57 175.22,462.67 175.86,468.15 Z" id="Path" fill="#EE8E9E"></path>
                <path d="M342.93,399.87 C342.126786,400.466999 341.546047,401.315231 341.28,402.28 C341.167663,402.684067 341.319394,403.115302 341.66,403.36 C341.8779,403.42967 342.1121,403.42967 342.33,403.36 C343.398945,403.15609 344.39755,402.680892 345.23,401.98 C344.898748,402.15683 344.603637,402.394276 344.36,402.68 C344.122432,402.982736 344.079657,403.394934 344.25,403.74 C344.485461,404.028965 344.828499,404.209511 345.2,404.24 C346.593601,404.494363 348.026962,404.425945 349.39,404.04 C348.751079,404.26495 348.158179,404.603751 347.64,405.04 C347.126639,405.495153 346.841059,406.154183 346.86,406.84 C346.854302,407.102065 346.968435,407.352422 347.17,407.52 C347.311468,407.602742 347.46772,407.65709 347.63,407.68 C348.9169,407.905068 350.2331,407.905068 351.52,407.68 C352.201436,407.648174 352.819653,407.271213 353.16,406.68 C353.294088,406.027732 353.156894,405.348984 352.78,404.8 C352.076193,403.314315 351.733543,401.683303 351.78,400.04 C351.822903,399.700149 351.774583,399.355003 351.64,399.04 C351.423213,398.743991 351.118872,398.523606 350.77,398.41 C349.39,397.8 347.53,396.96 345.99,397.46 C344.820039,398.052094 343.779786,398.871378 342.93,399.87 L342.93,399.87 Z" id="Path" fill="#EE8E9E"></path>
                <path d="M374.58,367.88 L326.86,393.7 C326.532263,393.883859 326.33527,394.235935 326.350036,394.611431 C326.364803,394.986927 326.588837,395.322446 326.93,395.48 L335.07,398.55 C335.545371,398.727918 335.930375,399.087734 336.14,399.55 L342.47,412.55 C342.59,413.13 343.65,413.28 343.66,412.7 L342.66,401.93 C342.718059,401.133973 343.02208,400.375667 343.53,399.76 L368.27,375.52 C368.410288,375.376987 368.614447,375.316496 368.81,375.36 C368.999204,375.406118 369.151769,375.545641 369.214567,375.729983 C369.277365,375.914324 369.241703,376.117968 369.12,376.27 L347.83,402.42 C347.377842,403.056894 347.089361,403.795269 346.99,404.57 L345.72,413.87 C345.82,414.68 346.46,414.99 346.97,414.26 L351.57,408.87 C351.887835,408.454781 352.471898,408.354531 352.91,408.64 L364.76,417.27 C365.029225,417.43973 365.363165,417.471172 365.659339,417.354676 C365.955514,417.238181 366.178549,416.987662 366.26,416.68 L376,368.96 C376.062998,368.594758 375.918817,368.224629 375.625355,367.998244 C375.331893,367.771858 374.937288,367.726353 374.6,367.88 L374.58,367.88 Z" id="Path" fill="#1D3A8F"></path>
                <ellipse id="Oval" fill="#1D3A8F" cx="917.08" cy="803.39" rx="59.47" ry="11.44"></ellipse>
                <ellipse id="Oval" fill="#3F3D56" cx="916.09" cy="798.53" rx="6.92" ry="9.06"></ellipse>
                <ellipse id="Oval" fill="#3F3D56" cx="916.09" cy="787.46" rx="6.92" ry="9.06"></ellipse>
                <ellipse id="Oval" fill="#3F3D56" cx="916.09" cy="776.38" rx="6.92" ry="9.06"></ellipse>
                <ellipse id="Oval" fill="#3F3D56" cx="916.09" cy="765.3" rx="6.92" ry="9.06"></ellipse>
                <ellipse id="Oval" fill="#3F3D56" cx="916.09" cy="754.22" rx="6.92" ry="9.06"></ellipse>
                <ellipse id="Oval" fill="#3F3D56" cx="916.09" cy="743.15" rx="6.92" ry="9.06"></ellipse>
                <ellipse id="Oval" fill="#3F3D56" cx="916.09" cy="732.07" rx="6.92" ry="9.06"></ellipse>
                <path d="M942,656.26 C942.941655,655.054227 943.803492,653.788195 944.58,652.47 L926.38,649.47 L946.06,649.62 C949.868584,641.317884 950.096391,631.815078 946.69,623.34 L920.3,637.03 L944.64,619.14 C938.433664,608.377294 926.733205,601.985198 914.323395,602.577689 C901.913584,603.17018 890.875322,610.647907 885.722583,621.952938 C880.569844,633.257968 882.166648,646.494654 889.86,656.25 C888.396023,658.113986 887.12925,660.124736 886.08,662.25 L909.7,674.52 L884.52,666.07 C880.928479,676.685851 882.936792,688.397252 889.86,697.21 C879.173273,710.805392 880.728403,730.330755 893.432403,742.063155 C906.136402,753.795555 925.723598,753.795555 938.427597,742.063155 C951.131597,730.330755 952.686727,710.805392 942,697.21 C951.446749,685.175792 951.446749,668.244208 942,656.21 L942,656.26 Z" id="Path" fill="#1D3A8F"></path>
                <path d="M882.78,676.77 C882.765824,684.207031 885.264194,691.430807 889.87,697.27 C879.183273,710.865392 880.738403,730.390755 893.442403,742.123155 C906.146402,753.855555 925.733598,753.855555 938.437597,742.123155 C951.141597,730.390755 952.696727,710.865392 942.01,697.27 C946.45,691.63 882.78,673.05 882.78,676.77 Z" id="Path" fill="#000000" opacity="0.1"></path>
                <ellipse id="Oval" fill="#1D3A8F" cx="358.05" cy="772.77" rx="33.95" ry="6.53"></ellipse>
                <ellipse id="Oval" fill="#3F3D56" cx="358.62" cy="769.99" rx="3.95" ry="5.17"></ellipse>
                <ellipse id="Oval" fill="#3F3D56" cx="358.62" cy="763.67" rx="3.95" ry="5.17"></ellipse>
                <ellipse id="Oval" fill="#3F3D56" cx="358.62" cy="757.34" rx="3.95" ry="5.17"></ellipse>
                <ellipse id="Oval" fill="#3F3D56" cx="358.62" cy="751.02" rx="3.95" ry="5.17"></ellipse>
                <ellipse id="Oval" fill="#3F3D56" cx="358.62" cy="744.69" rx="3.95" ry="5.17"></ellipse>
                <ellipse id="Oval" fill="#3F3D56" cx="358.62" cy="738.37" rx="3.95" ry="5.17"></ellipse>
                <ellipse id="Oval" fill="#3F3D56" cx="358.62" cy="732.05" rx="3.95" ry="5.17"></ellipse>
                <path d="M343.82,688.77 C343.28006,688.081785 342.788864,687.356686 342.35,686.6 L352.73,684.9 L341.5,684.98 C339.327224,680.241128 339.19706,674.81765 341.14,669.98 L356.21,677.8 L342.31,667.58 C345.844196,661.414869 352.532067,657.746833 359.630527,658.080367 C366.728987,658.413901 373.043453,662.692876 375.983995,669.162234 C378.924536,675.631592 377.996296,683.202621 373.58,688.77 C374.425781,689.836291 375.150242,690.993416 375.74,692.22 L362.26,699.22 L376.64,694.42 C377.300366,696.379146 377.638098,698.432554 377.64,700.5 C377.645355,704.746347 376.214513,708.869709 373.58,712.2 C379.683053,719.960684 378.79678,731.108659 371.544177,737.807557 C364.291575,744.506455 353.108425,744.506455 345.855823,737.807557 C338.60322,731.108659 337.716947,719.960684 343.82,712.2 C338.4202,705.330813 338.4202,695.659187 343.82,688.79 L343.82,688.77 Z" id="Path" fill="#1D3A8F"></path>
                <path d="M377.64,700.48 C377.645355,704.726347 376.214513,708.849709 373.58,712.18 C379.683053,719.940684 378.79678,731.088659 371.544177,737.787557 C364.291575,744.486455 353.108425,744.486455 345.855823,737.787557 C338.60322,731.088659 337.716947,719.940684 343.82,712.18 C341.28,708.96 377.64,698.35 377.64,700.48 Z" id="Path" fill="#000000" opacity="0.1"></path>
                <ellipse id="Oval" fill="#1D3A8F" cx="105.17" cy="720.25" rx="22.83" ry="4.39"></ellipse>
                <ellipse id="Oval" fill="#3F3D56" cx="105.56" cy="718.39" rx="2.66" ry="3.48"></ellipse>
                <ellipse id="Oval" fill="#3F3D56" cx="105.56" cy="714.14" rx="2.66" ry="3.48"></ellipse>
                <ellipse id="Oval" fill="#3F3D56" cx="105.56" cy="709.88" rx="2.66" ry="3.48"></ellipse>
                <ellipse id="Oval" fill="#3F3D56" cx="105.56" cy="705.63" rx="2.66" ry="3.48"></ellipse>
                <ellipse id="Oval" fill="#3F3D56" cx="105.56" cy="701.38" rx="2.66" ry="3.48"></ellipse>
                <ellipse id="Oval" fill="#3F3D56" cx="105.56" cy="697.13" rx="2.66" ry="3.48"></ellipse>
                <ellipse id="Oval" fill="#3F3D56" cx="105.56" cy="692.88" rx="2.66" ry="3.48"></ellipse>
                <path d="M95.61,663.78 C95.2379977,663.320979 94.9035824,662.832733 94.61,662.32 L101.61,661.18 L94.06,661.18 C92.591632,657.997906 92.5011823,654.350973 93.81,651.1 L103.94,656.42 L94.59,649.55 C96.9547055,645.382426 101.459351,642.895774 106.246016,643.115653 C111.032681,643.335531 115.290385,646.224688 117.263057,650.591502 C119.23573,654.958317 118.589151,660.062943 115.59,663.8 C116.154204,664.519749 116.64027,665.297455 117.04,666.12 L108,670.81 L117.66,667.57 C118.108088,668.883424 118.334513,670.262252 118.33,671.65 C118.333532,674.504463 117.375338,677.276887 115.61,679.52 C119.73055,684.74017 119.14254,692.251601 114.259873,696.766981 C109.377205,701.282361 101.842795,701.282361 96.9601272,696.766981 C92.0774598,692.251601 91.4894504,684.74017 95.61,679.52 C91.9704542,674.90451 91.9704542,668.39549 95.61,663.78 Z" id="Path" fill="#1D3A8F"></path>
                <path d="M118.34,671.65 C118.343532,674.504463 117.385338,677.276887 115.62,679.52 C119.74055,684.74017 119.15254,692.251601 114.269873,696.766981 C109.387205,701.282361 101.852795,701.282361 96.9701272,696.766981 C92.0874598,692.251601 91.4994504,684.74017 95.62,679.52 C93.9,677.36 118.34,670.22 118.34,671.65 Z" id="Path" fill="#000000" opacity="0.1"></path>
            </g>
        </g>
    </g>
</svg>