<?xml version="1.0" encoding="UTF-8"?>
<svg width="1114px" height="785px" viewBox="0 0 1114 785" version="1.1" xmlns="http://www.w3.org/2000/svg" xmlns:xlink="http://www.w3.org/1999/xlink">
    <!-- Generator: Sketch 53.2 (72643) - https://sketchapp.com -->
    <title>undraw_visual_data_b1wx</title>
    <desc>Created with Sketch.</desc>
    <defs>
        <linearGradient x1="99.982811%" y1="50.0000413%" x2="0.0187255522%" y2="50.0000413%" id="linearGradient-1">
            <stop stop-color="#808080" stop-opacity="0.25" offset="0%"></stop>
            <stop stop-color="#808080" stop-opacity="0.12" offset="54%"></stop>
            <stop stop-color="#808080" stop-opacity="0.1" offset="100%"></stop>
        </linearGradient>
    </defs>
    <g id="Page-1" stroke="none" stroke-width="1" fill="none" fill-rule="evenodd">
        <g id="IllustrationUndraw" transform="translate(-4500.000000, -6000.000000)">
            <g id="undraw_visual_data_b1wx" transform="translate(4500.000000, 6000.000000)">
                <ellipse id="Oval" fill="#254095" fill-rule="nonzero" opacity="0.1" cx="965" cy="767.42" rx="64" ry="16.99"></ellipse>
                <path d="M1070.55,694.89 C1046.2,715.09 1011.55,723.45 978.04,728.73 L972.4,729.59 C937.4,734.81 902.01,737.59 866.5,739.28 C847.5,740.2 828.5,740.85 809.5,741.43 L794.61,741.87 C775.276667,742.443333 755.906667,743.006667 736.5,743.56 C717.5,744.1 698.5,744.606667 679.5,745.08 C655.166667,745.673333 630.833333,746.166667 606.5,746.56 C587.5,746.86 568.5,747.066667 549.5,747.18 C525.16,747.32 500.826667,747.273333 476.5,747.04 C457.486667,746.846667 438.486667,746.513333 419.5,746.04 C395.153333,745.413333 370.82,744.496667 346.5,743.29 C329.993333,742.483333 313.496667,741.513333 297.01,740.38 L289.5,739.85 C218.73,734.75 146.69,725.6 84.76,696.68 L83.09,695.89 C82.26,695.5 81.43,695.11 80.6,694.7 C69.2291796,689.263549 58.3372289,682.877574 48.04,675.61 C29.73,662.55 14.61,646.61 6.62,627.7 C-5.9,598.04 0.72,564.7 15.02,535.7 C29.32,506.7 50.79,480.52 69.36,453.21 C74.8,445.21 79.96,436.91 84.76,428.4 C114.76,375.03 129.64,313.27 98.19,261.84 C94.0387814,255.282785 89.5563092,248.941238 84.76,242.84 C77.09,232.84 69.29,222.84 64.02,211.77 C51.73,186.01 54.37,157.04 58.85,129.52 C64.85,92.93 75.85,53.52 110.23,30.66 C145.9,6.92 196.53,8.12 240.8,16.66 C309.63,29.85 373.16,57.46 437.29,82.36 C501.42,107.26 568.6,130.03 639.11,132.48 C654.256647,132.998333 669.420991,132.446963 684.49,130.83 L684.49,130.83 C704.578879,128.76562 724.394696,124.592634 743.61,118.38 C771.36,109.24 796.61,95.49 815.33,76.38 C855.48,35.53 930.93,32.44 985.33,57.11 C1037.24,80.65 1070.81,130.47 1068.33,180.23 C1065.51,235.62 1024.03,281.16 986.02,327.87 C981.41,333.53 976.86,339.21 972.43,344.93 C969.956667,348.123333 967.53,351.323333 965.15,354.53 L965.15,354.53 C960.98,360.19 956.95,365.88 953.15,371.64 C933.73,401.17 920,436.64 933.37,468.52 C940.87,486.37 955.18,499.99 972.43,511.88 C1011.08,538.51 1064.43,556.43 1088.43,593.71 C1109.11,625.84 1101.45,669.21 1070.55,694.89 Z" id="Path" fill="#254095" fill-rule="nonzero" opacity="0.1"></path>
                <g id="Group" opacity="0.1" transform="translate(457.000000, 0.000000)" fill-rule="nonzero">
                    <path d="M98.5,549.35 C98.54,550.29 98.61,551.21 98.71,552.11 C106.49,549.01 114.126667,545.676667 121.62,542.11 C125.618928,541.579403 129.336328,539.761071 132.21,536.93 C134.4,535.83 136.58,534.68 138.74,533.53 C138.251218,532.495619 137.696752,531.493571 137.08,530.53 C132.87,523.88 126.47,519.72 119.42,519.95 C112.37,520.18 106.27,524.75 102.5,531.64 C99.6075198,537.079631 98.2262417,543.195239 98.5,549.35 L98.5,549.35 Z" id="Path" fill="#3F3D56"></path>
                    <path d="M97.35,514.38 C97.5007884,520.507811 99.2781725,526.485344 102.5,531.7 C106.72,538.33 113.12,542.49 120.17,542.26 C120.66,542.26 121.17,542.19 121.62,542.15 C125.618928,541.619403 129.336328,539.801071 132.21,536.97 C134.160322,535.114085 135.80406,532.960687 137.08,530.59 C142.817388,519.520059 142.385591,506.263124 135.94,495.59 C131.72,488.94 125.32,484.78 118.27,485.01 C111.22,485.24 105.13,489.81 101.36,496.7 C98.4697549,502.129968 97.0852007,508.234436 97.35,514.38 L97.35,514.38 Z" id="Path" fill="#3F3D56"></path>
                    <ellipse id="Oval" fill="#3F3D56" transform="translate(118.077123, 478.677747) rotate(-1.880000) translate(-118.077123, -478.677747) " cx="118.077123" cy="478.677747" rx="21.87" ry="28.63"></ellipse>
                    <ellipse id="Oval" fill="#3F3D56" transform="translate(116.930505, 443.714298) rotate(-1.880000) translate(-116.930505, -443.714298) " cx="116.930505" cy="443.714298" rx="21.87" ry="28.63"></ellipse>
                    <ellipse id="Oval" fill="#3F3D56" transform="translate(115.783882, 408.740521) rotate(-1.880000) translate(-115.783882, -408.740521) " cx="115.783882" cy="408.740521" rx="21.87" ry="28.63"></ellipse>
                    <path d="M189.79,166.77 C192.651459,162.871441 195.237726,158.778191 197.53,154.52 L139.79,146.98 L201.91,145.4 C213.092673,118.81124 212.832254,88.7907604 201.19,62.4 L119.28,108.35 L194.28,49.35 C173.470068,16.2437094 135.952654,-2.51522871 96.9816308,0.700216556 C58.0106076,3.91566183 24.0751689,28.5700761 8.97282479,64.639439 C-6.12951932,100.708802 0.115972145,142.187085 25.17,172.21 C20.7134325,178.279675 16.9216859,184.810463 13.86,191.69 L89.67,227.97 L9.31,203.91 C-0.926615111,237.798524 6.63721296,274.564521 29.42,301.66 C-2.91416778,345.693189 4.02509596,407.182906 45.3595489,442.902413 C86.6940018,478.621919 148.540128,476.573661 187.420636,438.197546 C226.301145,399.82143 229.156756,338.00732 193.98,296.21 C222.610751,257.26303 220.879617,203.783809 189.79,166.77 Z" id="Path" fill="#254095"></path>
                    <path d="M4.89,237.63 C5.62042109,261.118157 14.2644042,283.670742 29.42,301.63 C-2.92264408,345.657218 4.00513977,407.148511 45.3331515,442.875784 C86.6611631,478.603056 148.507941,476.566051 187.395485,438.196774 C226.28303,399.827497 229.149595,338.013614 193.98,296.21 C207.43,277.95 4.51,225.88 4.89,237.63 Z" id="Path" fill="#000000"></path>
                </g>
                <g id="Group" opacity="0.1" transform="translate(240.000000, 342.000000)" fill-rule="nonzero">
                    <path d="M86.18,391.56 C86.18,392.22 86.11,392.88 86.03,393.56 C80.4966667,391.36 75.06,389.003333 69.72,386.49 C66.8747793,386.118041 64.2280359,384.829772 62.18,382.82 C60.62,382.026667 59.07,381.22 57.53,380.4 C57.8775217,379.66879 58.2716669,378.960664 58.71,378.28 C61.71,373.54 66.25,370.58 71.27,370.74 C76.29,370.9 80.63,374.14 83.27,379.04 C85.3369768,382.879971 86.341551,387.202056 86.18,391.56 L86.18,391.56 Z" id="Path" fill="#3F3D56"></path>
                    <path d="M86.96,366.67 C86.8615333,371.030067 85.6052637,375.285508 83.32,379 C80.32,383.72 75.77,386.69 70.76,386.53 L69.76,386.45 C66.9147793,386.078041 64.2680359,384.789772 62.22,382.78 C60.8289701,381.461088 59.657546,379.928447 58.75,378.24 C54.6717015,370.370454 54.9669579,360.948745 59.53,353.35 C62.53,348.61 67.08,345.65 72.09,345.81 C77.1,345.97 81.45,349.21 84.14,354.11 C86.182728,357.970465 87.1563354,362.306815 86.96,366.67 L86.96,366.67 Z" id="Path" fill="#3F3D56"></path>
                    <ellipse id="Oval" fill="#3F3D56" transform="translate(72.215630, 341.334486) rotate(-88.190000) translate(-72.215630, -341.334486) " cx="72.2156297" cy="341.334486" rx="20.37" ry="15.56"></ellipse>
                    <ellipse id="Oval" fill="#3F3D56" transform="translate(72.992685, 316.448720) rotate(-88.190000) translate(-72.992685, -316.448720) " cx="72.9926847" cy="316.44872" rx="20.37" ry="15.56"></ellipse>
                    <ellipse id="Oval" fill="#3F3D56" transform="translate(73.780056, 291.552958) rotate(-88.190000) translate(-73.780056, -291.552958) " cx="73.7800556" cy="291.552958" rx="20.37" ry="15.56"></ellipse>
                    <path d="M20.91,119.38 C18.8710144,116.605613 17.0234035,113.695543 15.38,110.67 L56.46,105.21 L12.25,104.21 C4.2644939,85.2943858 4.42364616,63.924578 12.69,45.13 L71.02,77.76 L17.6,35.81 C32.3348309,12.1394075 59.0481907,-1.32867143 86.8410301,0.900738539 C114.63387,3.13014851 138.858777,20.684254 149.631991,46.4009811 C160.405205,72.1177081 155.92527,101.696804 138.02,123.07 C141.201361,127.385847 143.907065,132.032818 146.09,136.93 L92.17,162.81 L149.34,145.61 C156.649859,169.723095 151.30234,195.896604 135.12,215.21 C158.177873,246.512019 153.305533,290.278976 123.928128,315.743657 C94.550724,341.208339 50.5353551,339.817826 22.8238635,312.549619 C-4.8876281,285.281412 -6.98767929,241.294186 18,211.51 C-2.40476177,183.811167 -1.20230459,145.745752 20.91,119.39 L20.91,119.38 Z" id="Path" fill="#254095"></path>
                    <path d="M152.51,169.64 C152.008724,186.354555 145.881472,202.410846 135.12,215.21 C158.177873,246.512019 153.305533,290.278976 123.928128,315.743657 C94.550724,341.208339 50.5353551,339.817826 22.8238635,312.549619 C-4.8876281,285.281412 -6.98767929,241.294186 18,211.51 C8.41,198.51 152.79,161.27 152.51,169.64 Z" id="Path" fill="#000000"></path>
                </g>
                <g id="Group" opacity="0.1" transform="translate(761.000000, 212.000000)" fill-rule="nonzero">
                    <path d="M85.95,391.51 C85.95,392.18 85.88,392.83 85.81,393.51 C80.27,391.31 74.8333333,388.953333 69.5,386.44 C66.65229,386.066606 64.0027964,384.778707 61.95,382.77 C60.4,381.98 58.84,381.17 57.3,380.35 C57.6514016,379.620796 58.0454161,378.912905 58.48,378.23 C61.48,373.49 66.02,370.53 71.04,370.69 C76.06,370.85 80.4,374.09 83.04,378.99 C85.1069768,382.829971 86.111551,387.152056 85.95,391.51 L85.95,391.51 Z" id="Path" fill="#3F3D56"></path>
                    <path d="M86.79,366.62 C86.6885185,370.980995 85.4287781,375.236502 83.14,378.95 C80.14,383.67 75.6,386.64 70.58,386.48 L69.58,386.4 C66.73229,386.026606 64.0827964,384.738707 62.03,382.73 C60.6429868,381.407482 59.47208,379.875518 58.56,378.19 C54.4817015,370.320454 54.7769579,360.898745 59.34,353.3 C62.34,348.57 66.89,345.6 71.9,345.76 C76.91,345.92 81.27,349.16 83.95,354.06 C85.9996598,357.91854 86.9801961,362.254996 86.79,366.62 L86.79,366.62 Z" id="Path" fill="#3F3D56"></path>
                    <ellipse id="Oval" fill="#3F3D56" transform="translate(72.019144, 341.276662) rotate(-88.190000) translate(-72.019144, -341.276662) " cx="72.0191439" cy="341.276662" rx="20.37" ry="15.56"></ellipse>
                    <ellipse id="Oval" fill="#3F3D56" transform="translate(72.806515, 316.390900) rotate(-88.190000) translate(-72.806515, -316.390900) " cx="72.8065148" cy="316.3909" rx="20.37" ry="15.56"></ellipse>
                    <ellipse id="Oval" fill="#3F3D56" transform="translate(73.593565, 291.505449) rotate(-88.190000) translate(-73.593565, -291.505449) " cx="73.5935648" cy="291.505449" rx="20.37" ry="15.56"></ellipse>
                    <path d="M20.68,119.33 C18.6385431,116.55935 16.7940134,113.648869 15.16,110.62 L56.24,105.21 L12.03,104.14 C4.04843054,85.2243452 4.20394433,63.857473 12.46,45.06 L70.79,77.69 L17.37,35.76 C32.0799686,12.0299919 58.8162488,-1.49171085 86.647714,0.723239181 C114.479179,2.93818921 138.740226,20.5184828 149.511727,46.276418 C160.283228,72.0343532 155.759474,101.651929 137.79,123.02 C140.968146,127.336136 143.670505,131.983119 145.85,136.88 L91.93,162.76 L149.1,145.56 C156.421301,169.669364 151.07249,195.845437 134.88,215.15 C157.941124,246.446817 153.073154,290.212369 123.698565,315.676848 C94.3239763,341.141328 50.3104969,339.750518 22.6022434,312.482243 C-5.10601007,285.213967 -7.20107717,241.228385 17.79,211.45 C-2.61476177,183.751167 -1.41230459,145.685752 20.7,119.33 L20.68,119.33 Z" id="Path" fill="#254095"></path>
                    <path d="M152.29,169.59 C151.789128,186.303397 145.657775,202.357677 134.89,215.15 C157.946585,246.447588 153.075881,290.209996 123.702006,315.672136 C94.3281302,341.134276 50.3174683,339.743674 22.6096318,312.477928 C-5.09820478,285.212181 -7.19643609,241.229576 17.79,211.45 C8.19,198.46 152.55,161.21 152.29,169.59 Z" id="Path" fill="#000000"></path>
                </g>
                <ellipse id="Oval" fill="#254095" fill-rule="nonzero" cx="193.5" cy="750.89" rx="57.01" ry="10.96"></ellipse>
                <ellipse id="Oval" fill="#3F3D56" fill-rule="nonzero" cx="192.55" cy="746.23" rx="6.64" ry="8.69"></ellipse>
                <ellipse id="Oval" fill="#3F3D56" fill-rule="nonzero" cx="192.55" cy="735.61" rx="6.64" ry="8.69"></ellipse>
                <ellipse id="Oval" fill="#3F3D56" fill-rule="nonzero" cx="192.55" cy="724.99" rx="6.64" ry="8.69"></ellipse>
                <ellipse id="Oval" fill="#3F3D56" fill-rule="nonzero" cx="192.55" cy="714.37" rx="6.64" ry="8.69"></ellipse>
                <ellipse id="Oval" fill="#3F3D56" fill-rule="nonzero" cx="192.55" cy="703.75" rx="6.64" ry="8.69"></ellipse>
                <ellipse id="Oval" fill="#3F3D56" fill-rule="nonzero" cx="192.55" cy="693.13" rx="6.64" ry="8.69"></ellipse>
                <ellipse id="Oval" fill="#3F3D56" fill-rule="nonzero" cx="192.55" cy="682.51" rx="6.64" ry="8.69"></ellipse>
                <path d="M217.4,609.83 C218.305044,608.67417 219.130288,607.45802 219.87,606.19 L202.43,603.32 L221.29,603.47 C224.945465,595.510227 225.166055,586.397318 221.9,578.27 L196.59,591.4 L219.93,574.21 C213.96528,563.918296 202.755385,557.816072 190.874137,558.393137 C178.992889,558.970202 168.427124,566.130057 163.487851,576.951361 C158.548577,587.772665 160.061762,600.445833 167.41,609.8 C165.999669,611.59851 164.786078,613.542939 163.79,615.6 L186.43,627.36 L162.29,619.26 C158.844889,629.439322 160.770552,640.669845 167.41,649.12 C157.16085,662.157648 158.651735,680.882693 170.834792,692.134291 C183.017848,703.385889 201.802152,703.385889 213.985208,692.134291 C226.168265,680.882693 227.65915,662.157648 217.41,649.12 C226.476763,637.581356 226.476763,621.338644 217.41,609.8 L217.4,609.83 Z" id="Path" fill="#254095" fill-rule="nonzero"></path>
                <path d="M160.61,629.49 C160.598292,636.622064 162.994282,643.549293 167.41,649.15 C157.16085,662.187648 158.651735,680.912693 170.834792,692.164291 C183.017848,703.415889 201.802152,703.415889 213.985208,692.164291 C226.168265,680.912693 227.65915,662.187648 217.41,649.15 C221.66,643.74 160.61,625.92 160.61,629.49 Z" id="Path" fill="#000000" fill-rule="nonzero" opacity="0.1"></path>
                <path d="M346.5,517.21 L346.5,743.21 C329.993333,742.403333 313.496667,741.433333 297.01,740.3 L289.5,739.77 L289.5,517.21 C289.5,514.870791 290.429247,512.627389 292.083318,510.973318 C293.737389,509.319247 295.980791,508.39 298.32,508.39 L337.68,508.39 C340.019209,508.39 342.262611,509.319247 343.916682,510.973318 C345.570753,512.627389 346.5,514.870791 346.5,517.21 L346.5,517.21 Z" id="Path" fill="#3F3D56" fill-rule="nonzero"></path>
                <path d="M419.5,746.02 L419.5,366.21 C419.5,361.338849 423.448849,357.39 428.32,357.39 L467.68,357.39 C470.019209,357.39 472.262611,358.319247 473.916682,359.973318 C475.570753,361.627389 476.5,363.870791 476.5,366.21 L476.5,747.01 L419.5,746.02 Z" id="Path" fill="#3F3D56" fill-rule="nonzero"></path>
                <path d="M549.5,747.21 L549.5,445.21 C549.5,440.338849 553.448849,436.39 558.32,436.39 L597.68,436.39 C602.551151,436.39 606.5,440.338849 606.5,445.21 L606.5,746.56 L549.5,747.21 Z" id="Path" fill="#3F3D56" fill-rule="nonzero"></path>
                <path d="M736.5,221.21 L736.5,743.56 C717.5,744.1 698.5,744.606667 679.5,745.08 L679.5,221.21 C679.5,216.338849 683.448849,212.39 688.32,212.39 L727.68,212.39 C732.551151,212.39 736.5,216.338849 736.5,221.21 L736.5,221.21 Z" id="Path" fill="#3F3D56" fill-rule="nonzero"></path>
                <path d="M866.5,326.21 L866.5,739.21 C847.5,740.13 828.5,740.78 809.5,741.36 L809.5,326.21 C809.5,321.338849 813.448849,317.39 818.32,317.39 L857.68,317.39 C862.551151,317.39 866.5,321.338849 866.5,326.21 Z" id="Path" fill="#3F3D56" fill-rule="nonzero"></path>
                <polyline id="Path" stroke="#3F3D56" stroke-width="7" stroke-linecap="round" points="318.5 385.41 448.5 240.41 578.5 313.41 708.5 89.41 838.5 196.41"></polyline>
                <circle id="Oval" fill="#254095" fill-rule="nonzero" cx="318" cy="385.41" r="28"></circle>
                <circle id="Oval" fill="#254095" fill-rule="nonzero" cx="448" cy="240.41" r="28"></circle>
                <circle id="Oval" fill="#254095" fill-rule="nonzero" cx="578" cy="313.41" r="28"></circle>
                <circle id="Oval" fill="#254095" fill-rule="nonzero" cx="708" cy="89.41" r="28"></circle>
                <circle id="Oval" fill="#254095" fill-rule="nonzero" cx="958" cy="327.41" r="28"></circle>
                <ellipse id="Oval" fill="#254095" fill-rule="nonzero" opacity="0.1" cx="233.68" cy="722.61" rx="18.68" ry="3.16"></ellipse>
                <path d="M221.14,707.94 C221.14,707.94 231.79,707.61 235,705.32 C238.21,703.03 251.39,700.32 252.19,703.97 C252.99,707.62 268.19,722.21 256.19,722.31 C244.19,722.41 228.24,720.43 225.04,718.48 C221.84,716.53 221.14,707.94 221.14,707.94 Z" id="Path" fill="#A8A8A8" fill-rule="nonzero"></path>
                <path d="M256.38,721.03 C244.38,721.13 228.44,719.16 225.23,717.21 C222.79,715.72 221.82,710.39 221.49,707.93 L221.14,707.93 C221.14,707.93 221.81,716.52 225.02,718.47 C228.23,720.42 244.14,722.4 256.17,722.3 C259.64,722.3 260.84,721.04 260.77,719.21 C260.29,720.32 258.97,721.01 256.38,721.03 Z" id="Path" fill="#000000" fill-rule="nonzero" opacity="0.2"></path>
                <ellipse id="Oval" fill="#254095" fill-rule="nonzero" opacity="0.1" cx="1063.8" cy="749.41" rx="34.31" ry="5.8"></ellipse>
                <path d="M1040.79,722.46 C1040.79,722.46 1060.36,721.86 1066.26,717.66 C1072.16,713.46 1096.36,708.45 1097.82,715.18 C1099.28,721.91 1127.24,748.68 1105.14,748.86 C1083.04,749.04 1053.8,745.42 1047.91,741.86 C1042.02,738.3 1040.79,722.46 1040.79,722.46 Z" id="Path" fill="#A8A8A8" fill-rule="nonzero"></path>
                <path d="M1105.51,746.52 C1083.41,746.7 1054.17,743.08 1048.28,739.52 C1043.8,736.79 1042.01,726.99 1041.41,722.52 L1040.76,722.52 C1040.76,722.52 1042,738.31 1047.88,741.89 C1053.76,745.47 1083.02,749.1 1105.11,748.89 C1111.49,748.89 1113.69,746.57 1113.57,743.21 C1112.68,745.21 1110.25,746.48 1105.51,746.52 Z" id="Path" fill="#000000" fill-rule="nonzero" opacity="0.2"></path>
                <path d="M849.6,344.58 C849.785575,346.331443 850.480964,347.989945 851.6,349.35 C853.05,350.99 855.22,351.74 857.17,352.72 C862.216492,355.302966 866.071093,359.734324 867.93,365.09 C871.26,374.81 871.69,385.09 875.93,394.47 C880.17,403.85 885.15,412.86 888.81,422.47 C890.89,427.92 892.55,433.59 895.6,438.55 C897.076578,440.989373 898.960549,443.157461 901.17,444.96 C900.94,448.48 900.85,451.96 900.87,455.48 C902.243456,455.452927 903.534719,456.13254 904.29,457.28 C905.030018,458.420088 905.539608,459.694062 905.79,461.03 C907.16,466.7 905.47,472.74 906.7,478.44 C910.079224,494.295262 909.041526,510.773904 903.7,526.08 C902.33,529.96 900.61,542.8 902.07,546.65 C907.51,546.1 912.33,549.44 917.42,551.65 C917.831549,554.666827 917.585938,557.736972 916.7,560.65 C914.87,565.92 914.88,571.65 914.91,577.22 L915.16,618.48 C915.16,623.71 915.23,629.01 916.54,634.08 C918.03,639.79 921.16,645.61 921.06,651.51 C920.79,664.21 926.79,676.31 926.31,688.91 C926.22,691.33 925.89,693.73 925.66,696.13 C925.069435,702.523442 925.230535,708.964078 926.14,715.32 C927.96,727.98 932.77,740.43 931.57,753.16 C931.49,754.02 931.2,755.16 930.39,755.49 C931.39,756.62 932.45,757.74 933.53,758.81 C933.311461,759.174394 933.01421,759.485313 932.66,759.72 C931.478355,760.337099 930.172446,760.67896 928.84,760.72 C927.276704,760.761014 925.758803,761.254245 924.47,762.14 C923.533178,763.038826 922.897435,764.205519 922.65,765.48 C921.930047,768.028452 922.369008,770.764641 923.85,772.96 C924.742885,774.083984 925.910456,774.958801 927.24,775.5 C931.86,777.5 937.16,776.05 941.98,774.59 L960.86,768.87 C962.011593,768.630799 963.0743,768.076945 963.93,767.27 C964.321503,766.807507 964.580651,766.247749 964.68,765.65 C968.85,766.65 973.43,765.42 977.68,764.15 L996.56,758.42 C997.71321,758.185346 998.777101,757.630875 999.63,756.82 C1000.31799,755.98323 1000.59995,754.884675 1000.4,753.82 C1000.54,753.76 1000.68,753.72 1000.82,753.65 C1002.26,753 1003.82,751.73 1003.47,750.2 C1003.22,749.2 1002.22,748.62 1001.79,747.7 C1001.3784,746.482614 1001.645,745.1382 1002.49,744.17 C1003.23,743.17 1004.23,742.34 1004.91,741.29 C1007.09,737.95 1005.61,733.56 1004.79,729.65 C1003.02,721.3 1004.66,712.58 1003.54,704.12 C1003.16,701.27 1002.47,698.47 1001.92,695.64 C1000.75454,688.951074 999.983214,682.199434 999.61,675.42 C998.89,665.74 996.2,656.2 997.74,646.6 C998.487832,640.965673 998.805418,635.282568 998.69,629.6 C998.798802,625.980034 998.641713,622.356964 998.22,618.76 C997.83,616.08 997.14,613.45 996.84,610.76 C996.596606,607.736328 996.543167,604.700364 996.68,601.67 C996.817885,594.914752 996.193947,588.165486 994.82,581.55 C992.82,572.46 989.06,563.76 987.46,554.65 C988,554.77 988.54,554.89 989.06,555.03 C989.12,548.03 982.99,532.81 980.72,526.17 C980.387716,525.356659 980.185249,524.496173 980.12,523.62 C980.257247,522.464493 980.46767,521.318859 980.75,520.19 C981.04,517.77 979.75,515.47 979.4,513.05 C979.263647,511.347706 979.388422,509.634571 979.77,507.97 C981.38,499.02 983.38,490.14 985.38,481.27 C986.252005,478.057439 986.553244,474.716732 986.27,471.4 C985.799748,467.843538 986.894061,464.257838 989.27,461.57 C990.148655,460.759309 990.897407,459.81831 991.49,458.78 C991.822567,457.888992 991.972211,456.940113 991.93,455.99 C991.890283,451.876598 991.284599,447.788235 990.13,443.84 C991.89,440.65 992.54,436.73 993.05,433.03 C994.17,424.86 995.29,416.65 995.25,408.4 C995.339098,403.998871 994.731594,399.611341 993.45,395.4 C992.513842,392.799102 991.37016,390.277651 990.03,387.86 C984.77,377.73 979.74,367.07 973.1,357.79 C971.1,354.97 972.36,351.08 972.5,347.6 C972.65,343.4 970.99,339.37 969.36,335.51 C968.528419,333.134353 967.252393,330.938637 965.6,329.04 C964.470557,327.796921 962.879213,327.073583 961.2,327.04 C959.29496,327.27276 957.584252,328.319611 956.51,329.91 C954.067286,333.237339 953.055599,337.402895 953.7,341.48 C954.364335,345.520522 956.124957,349.30119 958.79,352.41 C960.077301,353.974293 961.551646,355.374753 963.18,356.58 C964.833333,361.833333 966.5,367.083333 968.18,372.33 C970.82,380.68 973.46,389.07 977.18,396.97 C978.27,399.26 979.47,401.59 979.6,404.12 C979.74,406.85 978.6,409.45 977.69,412.02 C975.772885,417.376503 974.686976,422.994898 974.47,428.68 C974.177654,428.809624 973.896673,428.963495 973.63,429.14 C970.48,431.2 969.49,435.69 966.21,437.53 C964.3,438.6 961.98,438.53 959.84,439.02 C959.65,439.02 959.46,439.12 959.26,439.18 C959.18,438.78 959.1,438.39 959.05,437.98 C959.019297,437.724252 959.019297,437.465748 959.05,437.21 C964.148913,434.406572 968.432123,430.326668 971.48,425.37 C972.122217,424.452051 972.618116,423.440012 972.95,422.37 C973.219907,421.087802 973.270625,419.769142 973.1,418.47 C972.932966,414.133888 972.312927,409.827132 971.25,405.62 C970.18313,401.392532 967.8487,397.592542 964.56,394.73 C962.92,393.41 961.03,392.42 959.4,391.09 C956.22,388.52 954.04,384.72 950.4,382.81 C945.614732,380.47947 939.845297,381.971638 936.79,386.33 C936.305798,387.305637 935.624839,388.170455 934.79,388.87 C934.153271,389.171236 933.532452,389.505009 932.93,389.87 C931.83,390.75 931.77,392.44 932.13,393.81 C932.812364,396.625026 933.194498,399.504436 933.27,402.4 C926.604655,410.221989 926.579267,421.718649 933.21,429.57 C933.21,431.43 933.21,433.29 933.14,435.15 C933.14,435.5 933.14,435.86 933.07,436.21 C931.916756,435.808166 930.884479,435.119981 930.07,434.21 C928.95,432.81 928.75,430.75 927.38,429.6 C926.394816,428.950464 925.271751,428.539586 924.1,428.4 C921.187748,427.738384 918.456597,426.444502 916.1,424.61 C914.25,423.18 912.33,421.35 910.17,420.93 C906.442854,413.938747 902.091844,407.298436 897.17,401.09 C895.921762,399.620325 894.785255,398.059299 893.77,396.42 C891.62,392.67 890.98,388.26 889.62,384.15 C885.82,372.63 876.34,363.39 874.03,351.47 C873.19,347.15 870.45,343.39 868.57,339.41 C867.3,336.72 865.9,333.88 863.36,332.34 C860.09,330.34 855.57,331.26 852.85,333.95 C850.18183,336.800506 848.982025,340.724793 849.6,344.58 L849.6,344.58 Z M968.33,749.27 C967.148355,749.887099 965.842446,750.22896 964.51,750.27 C963.837972,750.339925 963.170297,750.446753 962.51,750.59 C962.26,748.49 962.12,746.36 961.96,744.29 C961.43,737.5 960.37,730.76 959.32,724.03 C958.22,717.03 957.7,709.37 955.32,702.65 C951.49,691.71 947.61,680.44 948.1,668.85 C948.21,666.22 948.54,663.61 948.68,660.99 C949,654.5 948.09,647.87 949.68,641.56 C950.39,638.69 951.6,635.95 952.06,633.03 C952.353403,630.393003 952.386897,627.73355 952.16,625.09 C951.722951,615.91339 952.486069,606.718993 954.43,597.74 C956.29,600.17 956.9,603.31 957.43,606.32 L961.18,626.66 C963.41,638.73 965.38,651.53 971.29,662.27 C970.46,666.14 969.64,670.27 971.01,673.97 C971.6,675.57 972.57,676.97 973.17,678.59 C974.17,681.28 974.03,684.24 974.33,687.09 C974.98,693.09 977.46,698.99 975.64,704.78 C973.767933,710.750294 972.550776,716.906493 972.01,723.14 C971.910562,724.873522 971.710222,726.59978 971.41,728.31 C971.09,729.85 970.57,731.31 970.28,732.89 C969.880154,735.107282 969.979219,737.385789 970.57,739.56 C971.018994,740.765021 971.295068,742.027557 971.39,743.31 C971.39,744.59 969.82,745.51 968.56,745.71 C968.93,746.19 969.33,746.65 969.74,747.1 C969.499291,747.948838 969.007835,748.705192 968.33,749.27 L968.33,749.27 Z" id="Shape" fill="url(#linearGradient-1)" fill-rule="nonzero"></path>
                <path d="M928.84,760.81 C927.276704,760.851014 925.758803,761.344245 924.47,762.23 C923.529847,763.118164 922.893094,764.279713 922.65,765.55 C921.931902,768.079025 922.371345,770.796245 923.85,772.97 C924.743485,774.090974 925.911132,774.962404 927.24,775.5 C931.86,777.5 937.16,776.04 941.98,774.59 L960.86,768.91 C962.010872,768.674643 963.073727,768.124174 963.93,767.32 C964.995677,765.88463 965.027857,763.929667 964.01,762.46 C962.995732,761.048733 961.611557,759.944854 960.01,759.27 C954.14,756.41 947.52,755.76 941.07,755.64 C938.67,755.64 936.3,755.06 934.67,756.91 C933.81,757.91 933.97,758.98 932.67,759.83 C931.481746,760.436493 930.173521,760.771234 928.84,760.81 L928.84,760.81 Z" id="Path" fill="#3F3D56" fill-rule="nonzero"></path>
                <path d="M964.51,750.43 C962.947483,750.475527 961.430826,750.968354 960.14,751.85 C959.202006,752.73983 958.565659,753.900637 958.32,755.17 C957.603009,757.702344 958.042273,760.422119 959.52,762.6 C960.416904,763.715042 961.583797,764.582468 962.91,765.12 C967.54,767.12 972.83,765.67 977.65,764.22 L996.53,758.53 C997.680872,758.294643 998.743727,757.744174 999.6,756.94 C1000.66397,755.507766 1000.69615,753.556545 999.68,752.09 C998.664598,750.679812 997.280758,749.576199 995.68,748.9 C989.8,746.04 983.18,745.38 976.73,745.26 C974.33,745.26 971.97,744.69 970.33,746.54 C969.47,747.54 969.63,748.6 968.33,749.45 C967.148468,750.064765 965.841561,750.400045 964.51,750.43 Z" id="Path" fill="#3F3D56" fill-rule="nonzero"></path>
                <path d="M948.1,545.53 C959.226223,544.412023 970.418585,544.097875 981.59,544.59 C982.327166,544.582452 983.060469,544.697348 983.76,544.93 C986.22,545.93 986.6,549.15 986.83,551.78 C987.83,562.46 992.49,572.41 994.83,582.87 C996.204166,589.444902 996.828154,596.154452 996.69,602.87 C996.554833,605.870391 996.608272,608.87631 996.85,611.87 C997.15,614.54 997.85,617.16 998.23,619.82 C998.651891,623.39351 998.808986,626.993323 998.7,630.59 C998.814403,636.229339 998.496808,641.869159 997.75,647.46 C996.21,656.99 998.9,666.46 999.62,676.1 C999.978825,682.842283 1000.73682,689.557383 1001.89,696.21 C1002.44,699.02 1003.13,701.8 1003.51,704.63 C1004.63,713.04 1002.99,721.7 1004.76,730 C1005.58,733.88 1007.06,738.24 1004.88,741.56 C1004.2,742.56 1003.2,743.41 1002.46,744.42 C1001.61467,745.380089 1001.34763,746.719087 1001.76,747.93 C1002.19,748.84 1003.19,749.44 1003.44,750.41 C1003.83,751.94 1002.23,753.19 1000.79,753.84 C989.94,758.74 975.95,755.29 968.63,745.9 C969.89,745.7 971.43,744.79 971.46,743.51 C971.363866,742.237476 971.087785,740.98501 970.64,739.79 C970.051043,737.632543 969.951959,735.370694 970.35,733.17 C970.64,731.63 971.16,730.17 971.48,728.62 C971.780212,726.919855 971.980556,725.203581 972.08,723.48 C972.620887,717.285769 973.838135,711.169348 975.71,705.24 C977.53,699.49 975.05,693.67 974.4,687.67 C974.1,684.83 974.23,681.9 973.24,679.22 C972.64,677.64 971.67,676.22 971.08,674.64 C969.71,670.95 970.53,666.85 971.36,663.01 C965.45,652.34 963.48,639.62 961.25,627.63 L957.5,607.43 C956.94,604.43 956.33,601.32 954.5,598.9 C952.556157,607.818088 951.792953,616.952993 952.23,626.07 C952.456787,628.696868 952.42329,631.339724 952.13,633.96 C951.67,636.86 950.46,639.59 949.75,642.43 C948.2,648.7 949.11,655.28 948.75,661.73 C948.61,664.34 948.28,666.93 948.17,669.54 C947.68,681.06 951.56,692.26 955.39,703.13 C957.74,709.8 958.26,717.38 959.39,724.36 C960.39,731.05 961.5,737.74 962.03,744.49 C962.52,750.69 962.74,757.4 966.6,762.27 C963.07,764.56 959.43,766.89 955.3,767.68 C950.487074,768.432991 945.56239,767.477772 941.38,764.98 C937.221291,762.493381 933.504119,759.333785 930.38,755.63 C931.19,755.35 931.48,754.17 931.56,753.32 C932.76,740.66 927.95,728.32 926.13,715.72 C925.220216,709.407717 925.059101,703.010075 925.65,696.66 C925.88,694.27 926.21,691.88 926.3,689.48 C926.78,676.97 920.75,664.92 920.97,652.4 C921.07,646.53 917.97,640.75 916.45,635.08 C915.14,630.08 915.1,624.78 915.07,619.58 L914.82,578.58 C914.82,573.04 914.82,567.36 916.61,562.13 C918.81,555.83 916.29,548.6 915.91,541.94 C926.301322,545.23335 937.238435,546.453115 948.1,545.53 L948.1,545.53 Z" id="Path" fill="#696791" fill-rule="nonzero"></path>
                <path d="M912.45,427.73 C908.246806,419.137194 903.1127,411.031948 897.14,403.56 C895.892045,402.100679 894.755512,400.549646 893.74,398.92 C891.59,395.19 890.95,390.81 889.59,386.73 C885.79,375.29 876.31,366.1 874,354.27 C873.16,349.97 870.42,346.27 868.54,342.27 C867.27,339.6 865.87,336.78 863.33,335.27 C860.06,333.27 855.54,334.19 852.82,336.87 C850.167831,339.696539 848.978212,343.594206 849.6,347.42 C849.78725,349.161985 850.482786,350.810405 851.6,352.16 C853.05,353.79 855.22,354.53 857.17,355.51 C862.208719,358.064034 866.064354,362.467913 867.93,367.8 C871.26,377.45 871.69,387.67 875.93,396.99 C880.17,406.31 885.15,415.25 888.81,424.78 C890.89,430.19 892.55,435.78 895.6,440.78 C898.65,445.78 903.41,449.97 909.16,450.72 C909.121042,447.095195 909.671554,443.48816 910.79,440.04 C912.04,436.1 914.26,431.46 912.45,427.73 Z" id="Path" fill="#A0616A" fill-rule="nonzero"></path>
                <path d="M974.36,435.21 C974.103001,428.139144 975.206315,421.084724 977.61,414.43 C978.53,411.88 979.61,409.29 979.52,406.58 C979.39,404.06 978.19,401.75 977.1,399.47 C973.34,391.62 970.7,383.3 968.1,375 L963.1,359.35 C961.46981,358.154575 959.995093,356.76048 958.71,355.2 C956.044705,352.1184 954.283164,348.359984 953.62,344.34 C952.97545,340.291185 953.988276,336.153377 956.43,332.86 C957.508135,331.275345 959.217566,330.23292 961.12,330 C962.798413,330.037099 964.388435,330.759836 965.52,332 C967.169529,333.881899 968.445592,336.060709 969.28,338.42 C970.91,342.26 972.57,346.26 972.42,350.42 C972.28,353.88 970.99,357.74 973.02,360.55 C979.66,369.77 984.69,380.36 989.95,390.43 C991.291737,392.829534 992.435529,395.334505 993.37,397.92 C994.654584,402.110107 995.262226,406.478374 995.17,410.86 C995.17,419.05 994.09,427.21 992.97,435.33 C992.26,440.42 991.33,445.96 987.48,449.33 C983.48,444.21 979.46,439.21 974.36,435.21 Z" id="Path" fill="#A0616A" fill-rule="nonzero"></path>
                <circle id="Oval" fill="#A0616A" fill-rule="nonzero" cx="948.92" cy="418.36" r="20.75"></circle>
                <path d="M958.97,440.21 C959.47,443.96 961.48,447.32 963.44,450.56 C964.62,452.56 966.13,454.69 968.44,454.91 C962.428014,458.065122 956.112604,460.604688 949.59,462.49 C947.373071,463.234849 945.048692,463.609858 942.71,463.6 C940.72819,463.452148 938.788229,462.954461 936.98,462.13 C928.966965,458.640484 922.998947,451.666122 920.79,443.21 C923.373447,443.278822 925.957106,443.08111 928.5,442.62 C929.952118,442.508474 931.305641,441.842455 932.28,440.76 C932.859456,439.746281 933.130533,438.585513 933.06,437.42 C933.16,433.96 933.17,430.49 933.06,427.03 C938.158649,426.705028 943.273124,427.335859 948.14,428.89 C950.14,429.54 952.14,430.32 954.14,430.83 C955.4,431.15 958.87,430.83 959.8,431.56 C961.33,432.59 958.62,437.66 958.97,440.21 Z" id="Path" fill="#A0616A" fill-rule="nonzero"></path>
                <path d="M949.85,452.82 C950.316502,447.212866 954.32168,442.534785 959.79,441.21 C961.93,440.73 964.25,440.79 966.16,439.73 C969.44,437.9 970.43,433.44 973.58,431.39 C976.73,429.34 981.2,430.48 983.94,433.07 C986.68,435.66 988.07,439.35 989.19,442.96 C990.862057,447.841196 991.769439,452.951549 991.88,458.11 C991.921708,459.053562 991.772037,459.995806 991.44,460.88 C990.847027,461.912123 990.0982,462.84647 989.22,463.65 C986.845545,466.31473 985.750199,469.881906 986.22,473.42 C986.50418,476.713592 986.202861,480.031486 985.33,483.22 C983.33,492.04 981.33,500.85 979.72,509.75 C979.342226,511.388018 979.217447,513.074217 979.35,514.75 C979.66,517.16 980.99,519.44 980.7,521.85 C980.416796,522.971916 980.206358,524.110954 980.07,525.26 C980.135343,526.129695 980.337845,526.98358 980.67,527.79 C982.94,534.38 989.07,549.48 989.01,556.46 C978.36,553.73 962.66,553.12 951.66,553.07 C948.634971,553.038342 945.610469,553.171875 942.6,553.47 C935.37,554.25 927.97,556.36 920.96,554.41 C914.45,552.6 908.69,547.41 901.96,548.06 C900.5,544.24 902.22,531.49 903.59,527.63 C908.931008,512.430941 909.969196,496.051787 906.59,480.3 C905.36,474.64 907.05,468.63 905.68,463.01 C905.429607,461.680283 904.919919,460.412857 904.18,459.28 C903.422373,458.13635 902.131524,457.46073 900.76,457.49 C900.635368,448.450053 901.473423,439.422523 903.26,430.56 C903.92,427.41 905.26,423.69 908.49,423.15 C911.35,422.66 913.75,425.08 916.05,426.85 C918.408272,428.675479 921.139622,429.959214 924.05,430.61 C925.221751,430.749586 926.344816,431.160464 927.33,431.81 C928.7,432.95 928.9,435 930.02,436.39 C932.02,438.88 936.49,438.67 937.91,441.54 C938.220455,442.394884 938.47106,443.270331 938.66,444.16 C939.33171,445.865378 940.476633,447.34337 941.96,448.42 C944.187466,450.514117 946.897749,452.025555 949.85,452.82 Z" id="Path" fill="#F86D70" fill-rule="nonzero"></path>
                <path d="M932.06,396.3 C931.7,394.93 931.76,393.3 932.86,392.38 C933.41,391.95 934.13,391.79 934.72,391.38 C935.551503,390.681181 936.231995,389.820359 936.72,388.85 C939.801338,384.538029 945.545028,383.079918 950.31,385.4 C953.92,387.29 956.1,391.07 959.31,393.62 C960.94,394.94 962.83,395.92 964.47,397.24 C967.75454,400.077214 970.089594,403.853788 971.16,408.06 C972.222848,412.236605 972.842933,416.513521 973.01,420.82 C973.180672,422.112468 973.129947,423.424566 972.86,424.7 C972.527665,425.769833 972.0318,426.781804 971.39,427.7 C968.09,432.7 963.74,437.24 958.29,439.82 C952.84,442.4 946.21,442.82 940.83,440.12 C940.288741,439.901306 939.823047,439.529445 939.49,439.05 C939.184197,438.319897 939.110868,437.513279 939.28,436.74 C939.571625,433.683628 938.967018,430.60847 937.54,427.89 C936.54,425.89 935.04,424.17 934.24,422.1 C933.496097,419.782969 933.177632,417.350442 933.3,414.92 C933.21,408.63 933.64,402.36 932.06,396.3 Z" id="Path" fill="#2D293D" fill-rule="nonzero"></path>
            </g>
        </g>
    </g>
</svg>