<?xml version="1.0" encoding="UTF-8"?>
<svg width="240px" height="240px" viewBox="0 0 240 240" version="1.1" xmlns="http://www.w3.org/2000/svg" xmlns:xlink="http://www.w3.org/1999/xlink">
    <!-- Generator: Sketch 55.2 (78181) - https://sketchapp.com -->
    <title>02</title>
    <desc>Created with Sketch.</desc>
    <g id="Page-1" stroke="none" stroke-width="1" fill="none" fill-rule="evenodd">
        <g id="Artboard" transform="translate(-420.000000, -136.000000)">
            <g id="02" transform="translate(420.000000, 136.000000)">
                <rect id="Rectangle" fill="#FFFFFF" x="0" y="0" width="240" height="240"></rect>
                <polygon id="path4327" stroke="#1C419B" stroke-width="8" stroke-linecap="round" points="39 77.75 115 35 191 77.75 191 161.870968 115 206 39 161.870968"></polygon>
                <polygon id="path4327" stroke="#1C419B" stroke-width="8" stroke-linecap="round" points="77 98.5 115.222222 77 153.444444 98.5 153.444444 140.806452 115.222222 163 77 140.806452"></polygon>
                <polygon id="path4327" stroke="#E9222E" stroke-width="8" stroke-linecap="round" points="58 88.25 115.5 56 173 88.25 173 151.709677 115.5 185 58 151.709677"></polygon>
                <polygon id="Triangle" fill="#FFFFFF" transform="translate(158.000000, 121.000000) scale(1, -1) rotate(-90.000000) translate(-158.000000, -121.000000) " points="158 78 232 164 84 164"></polygon>
                <circle id="circle4305" stroke="#E9222E" stroke-width="7.99999999" fill="#FFFFFF" fill-rule="nonzero" stroke-linecap="square" stroke-linejoin="round" cx="115" cy="120" r="16"></circle>
            </g>
        </g>
    </g>
</svg>
