<?xml version="1.0" encoding="UTF-8"?>
<svg width="240px" height="240px" viewBox="0 0 240 240" version="1.1" xmlns="http://www.w3.org/2000/svg" xmlns:xlink="http://www.w3.org/1999/xlink">
    <!-- Generator: Sketch 55.2 (78181) - https://sketchapp.com -->
    <title>17</title>
    <desc>Created with Sketch.</desc>
    <g id="Page-1" stroke="none" stroke-width="1" fill="none" fill-rule="evenodd">
        <g id="Artboard" transform="translate(-138.000000, -1239.000000)">
            <g id="17" transform="translate(138.000000, 1239.000000)">
                <rect id="Rectangle" fill="#FFFFFF" x="0" y="0" width="240" height="240"></rect>
                <polyline id="path4329" stroke="#EB1C24" stroke-width="8" stroke-linecap="round" transform="translate(109.837000, 132.029680) scale(1, -1) translate(-109.837000, -132.029680) " points="100 151.059361 119.673999 128.325304 119.673999 113"></polyline>
                <polyline id="path4329" stroke="#EB1C24" stroke-width="8" stroke-linecap="round" transform="translate(77.837000, 144.500000) scale(-1, -1) translate(-77.837000, -144.500000) " points="68 176 87.6739993 153.265943 87.6739993 113"></polyline>
                <polyline id="path4329" stroke="#EB1C24" stroke-width="8" stroke-linecap="round" transform="translate(161.837000, 144.500000) scale(1, -1) translate(-161.837000, -144.500000) " points="152 176 171.673999 153.265943 171.673999 113"></polyline>
                <polyline id="path4329" stroke="#1C419B" stroke-width="8" stroke-linecap="round" transform="translate(138.000000, 176.000000) scale(1, -1) translate(-138.000000, -176.000000) " points="130 189 146 179.617691 146 163"></polyline>
                <polyline id="path4329" stroke="#1C419B" stroke-width="8" stroke-linecap="round" transform="translate(102.000000, 176.000000) scale(-1, -1) translate(-102.000000, -176.000000) " points="94 189 110 179.617691 110 163"></polyline>
                <polyline id="path4329" stroke="#EB1C24" stroke-width="8" stroke-linecap="round" transform="translate(129.837000, 132.029680) scale(-1, -1) translate(-129.837000, -132.029680) " points="120 151.059361 139.673999 128.325304 139.614638 113"></polyline>
                <circle id="circle4305" stroke="#E9222E" stroke-width="7.99999999" fill="#FFFFFF" fill-rule="nonzero" stroke-linecap="square" stroke-linejoin="round" cx="94.059361" cy="101.059361" r="16.059361"></circle>
                <circle id="circle4305" stroke="#E9222E" stroke-width="7.99999999" fill="#FFFFFF" fill-rule="nonzero" stroke-linecap="square" stroke-linejoin="round" cx="146.059361" cy="101.059361" r="16.059361"></circle>
                <circle id="circle4305" stroke="#1C419B" stroke-width="7.99999999" fill="#FFFFFF" fill-rule="nonzero" stroke-linecap="square" stroke-linejoin="round" cx="120.059361" cy="151.059361" r="16.059361"></circle>
                <polygon id="path4327" stroke="#1C419B" stroke-width="8" stroke-linecap="round" points="44 78.75 120 36 196 78.75 196 162.870968 120 207 44 162.870968"></polygon>
            </g>
        </g>
    </g>
</svg>
