<?xml version="1.0" encoding="UTF-8"?>
<svg width="1537px" height="906px" viewBox="0 0 1537 906" version="1.1" xmlns="http://www.w3.org/2000/svg" xmlns:xlink="http://www.w3.org/1999/xlink">
    <!-- Generator: Sketch 58 (84663) - https://sketch.com -->
    <title>Slice</title>
    <desc>Created with Sketch.</desc>
    <g id="Page-1" stroke="none" stroke-width="1" fill="none" fill-rule="evenodd">
        <g id="Logo_de_la_République_française_(1999)_deuil" transform="translate(-97.000000, -116.000000)">
            <rect id="rect6" fill="#FFFFFF" fill-rule="nonzero" x="97" y="116" width="1538" height="520"></rect>
            <path d="M1325.1684,1021.42094 C1324.3198,1021.07483 1324.2672,1020.14855 1324.9802,1018.10333 C1325.8834,1015.51253 1326.2998,1015.31022 1329.7714,1015.77586 C1332.92,1016.19818 1333.8466,1015.89601 1335.1621,1014.01781 C1337.6918,1010.40618 1335.7394,1007.80074 1331.1487,1008.66196 C1327.6278,1009.32249 1327.5728,1009.28297 1328.2511,1006.58048 C1330.4052,997.99763 1330.6098,998.47042 1324.191,997.19762 C1316.5499,995.68244 1309.2388,991.40219 1303.6231,985.15626 C1295.191,975.77771 1292.2667,966.29032 1293.1071,951.03893 C1293.5352,943.26958 1294.197,940.24046 1296.6468,934.83756 C1304.1439,918.30316 1321.2683,909.87181 1344.2851,911.3824 C1349.2685,911.70946 1355.5958,912.55799 1358.3458,913.26803 L1363.3458,914.55901 L1363.6333,923.80901 L1363.9209,933.05901 L1360.8833,933.05901 C1359.0918,933.05901 1357.8458,932.53719 1357.8458,931.78685 C1357.8458,929.18911 1351.7222,923.17721 1347.3915,921.52333 C1341.802,919.38865 1330.9576,919.87531 1325.5254,922.50461 C1313.1092,928.51417 1307.4483,944.11459 1311.2233,961.9182 C1312.9772,970.18999 1315.875,975.73881 1321.4149,981.43365 C1326.666,986.83159 1331.9632,989.01045 1339.9,989.03705 C1348.2942,989.06515 1354.1709,985.69227 1357.8671,978.72501 C1360.3783,973.9912 1361.2741,973.41048 1363.6966,974.94562 C1364.824,975.66007 1364.8344,977.30593 1363.7596,984.90001 L1362.4718,993.99843 L1357.9088,995.57522 C1355.3992,996.44245 1349.6333,997.42292 1345.0958,997.75404 C1337.2721,998.32496 1336.8458,998.47759 1336.8458,1000.70754 C1336.8458,1002.48785 1337.399,1003.05901 1339.1233,1003.05901 C1342.4631,1003.05901 1345.5961,1005.64547 1346.3358,1009.01338 C1347.1952,1012.92653 1344.4104,1018.71568 1340.7606,1020.60306 C1338.1207,1021.96824 1327.8335,1022.50785 1325.1684,1021.42094 L1325.1684,1021.42094 Z M730.20703,1017.21236 C721.55005,1014.66018 714.084,1010.81018 705.10387,1004.26748 L697.34576,998.6151 L685.34576,997.99961 C672.04015,997.31714 667.39107,995.83185 658.78386,989.51357 C639.82318,975.59515 639.13478,940.17662 657.48987,922.93757 C671.30781,909.95981 695.61683,907.27837 713.11453,916.80181 C736.73688,929.65871 739.24477,967.58681 717.7862,987.45367 C714.45626,990.53661 711.19491,993.06077 710.53876,993.06291 C708.49491,993.06991 731.99546,1005.92498 738.86697,1008.55914 C746.45876,1011.46941 755.32882,1011.85832 761.82651,1009.5658 C766.55327,1007.8981 767.36118,1008.09795 768.15436,1011.13111 C768.61767,1012.9028 767.80904,1013.64902 763.02507,1015.8645 C755.48398,1019.35683 739.68238,1020.00581 730.20703,1017.21236 L730.20703,1017.21236 Z M700.88375,986.30782 C717.62846,977.56028 720.81633,949.54716 707.10288,931.65779 C694.39397,915.07884 672.11919,917.58863 663.74673,936.5429 C656.18209,953.66835 664.81283,980.14436 680.24464,987.1526 C686.49042,989.98906 694.46159,989.6628 700.88375,986.30782 Z M175.345759,996.67137 C170.75278,994.66674 165.71373,988.43085 157.75067,974.89722 C145.51691,954.10529 143.22409,951.05901 139.8085,951.05901 L136.845759,951.05901 L136.86587,962.30901 C136.90257,982.84205 138.96708,989.86871 145.44059,991.49345 C147.1723,991.92809 147.845759,992.79179 147.845759,994.57806 L147.845759,997.05901 L127.345759,997.05901 L106.845759,997.05901 L106.845759,994.70367 C106.845759,992.91985 107.60967,992.12924 109.994,991.44543 C111.72552,990.94883 114.08802,989.27551 115.244,987.72693 C117.29531,984.97891 117.345759,983.97866 117.345759,946.05806 C117.345759,908.13715 117.29533,907.13725 115.244,904.39014 C114.08802,902.84208 111.72552,901.16919 109.994,900.67259 C107.69343,900.0128 106.845759,899.17868 106.845759,897.57468 C106.845759,895.38944 106.958759,895.37676 132.24496,894.72611 C159.15788,894.0336 165.0885,894.54583 172.67423,898.21802 C179.30114,901.42605 184.82477,911.14646 184.84019,919.62751 C184.85783,929.33707 177.63704,940.30316 168.10892,945.03699 L163.12131,947.51497 L174.14493,964.03699 C187.11368,983.47433 191.1865,988.66673 195.01829,990.64823 C198.59536,992.49801 198.93899,996.53277 195.59576,997.42872 C191.57359,998.50662 178.42388,998.01482 175.345759,996.67137 L175.345759,996.67137 Z M150.32322,940.94363 C163.729,937.22188 168.25351,918.59324 158.10813,908.89104 C153.33903,904.33027 148.27462,902.67482 141.81093,903.5638 L136.84576,904.24669 L136.84576,923.15285 L136.84576,942.05901 L141.59576,942.05301 C144.20826,942.05001 148.13562,941.55053 150.32322,940.94321 L150.32322,940.94363 Z M380.72804,996.67843 C375.24734,994.7199 370.07969,991.23226 367.34397,987.64555 C362.3722,981.12722 361.8501,977.70002 361.78932,951.18328 C361.72582,923.46772 361.20437,920.42258 356.1174,918.05901 C354.07384,917.1095 352.8813,915.82502 352.867516,914.55901 C352.84763,912.63661 353.50645,912.55901 369.84663,912.55901 C386.80949,912.55901 386.84643,912.56401 386.8461,914.80901 C386.84587,916.32061 386.24661,917.05901 385.02007,917.05901 C384.01595,917.05901 382.10345,918.22008 380.77007,919.63916 L378.34576,922.2193 L378.34576,949.38916 C378.34576,974.9591 378.46809,976.79222 380.42321,980.51934 C383.47241,986.33215 389.55499,989.32214 397.3774,988.85343 C405.79355,988.34916 410.34606,985.36439 413.70644,978.14758 C416.28498,972.60989 416.30884,972.33558 416.32721,948.01523 C416.34371,926.23767 416.1471,923.16824 414.58311,920.78111 C413.61365,919.30142 411.70115,917.80984 410.33311,917.46648 C408.77996,917.07666 407.84576,916.13175 407.84576,914.9506 C407.84576,913.18856 408.77032,913.05901 421.34576,913.05901 C433.9212,913.05901 434.84576,913.18856 434.84576,914.9506 C434.84576,916.12842 433.9133,917.07623 432.37462,917.46241 C427.76969,918.61818 427.40202,920.76189 426.85693,949.63393 L426.34576,976.70885 L423.33537,982.59097 C419.78227,989.53354 414.02759,994.3336 406.62013,996.53337 C400.37166,998.38897 385.7441,998.47092 380.72804,996.67843 L380.72804,996.67843 Z M770.72804,996.67843 C765.18646,994.69814 760.07067,991.22044 757.24005,987.50931 C752.52632,981.32929 751.85049,976.75914 751.78932,950.65008 C751.72572,923.50407 751.18812,920.41503 746.1174,918.05901 C744.07384,917.1095 742.8813,915.82502 742.867516,914.55901 C742.84763,912.63661 743.50645,912.55901 759.84663,912.55901 C776.64882,912.55901 776.84643,912.58441 776.8461,914.73946 C776.84587,916.20461 776.14056,917.02474 774.69609,917.23946 C773.51377,917.41521 771.60127,918.8285 770.44609,920.38011 C768.47781,923.02384 768.32501,924.67141 768.01568,946.58589 C767.63565,973.5095 768.38729,979.18757 772.94898,983.85338 C781.20154,992.2943 798.3543,989.93649 803.21515,979.69301 C806.27657,973.24155 807.06236,965.15926 806.68582,943.99534 C806.28713,921.58666 805.61813,918.79293 800.33311,917.46648 C798.77996,917.07666 797.84576,916.13175 797.84576,914.9506 C797.84576,913.18856 798.77032,913.05901 811.34576,913.05901 C823.88849,913.05901 824.84576,913.19222 824.84576,914.93769 C824.84576,916.07206 823.68566,917.2969 821.91762,918.02925 C820.30714,918.69633 818.64506,919.98842 818.22412,920.90057 C817.80318,921.81271 817.20834,934.74338 816.90226,949.63538 L816.34576,976.71176 L813.33537,982.59243 C809.78218,989.53346 804.02636,994.33396 796.62013,996.53337 C790.37166,998.38897 775.7441,998.47092 770.72804,996.67843 L770.72804,996.67843 Z M1087.25829,996.63643 C1083.26109,994.89613 1078.50679,988.97013 1071.15049,976.55898 C1061.65039,960.53085 1060.57109,959.08498 1058.09579,959.07136 C1055.88149,959.05916 1055.84579,959.25783 1055.84579,971.5911 C1055.84579,986.5436 1057.09419,990.75866 1061.80149,991.70012 C1064.16839,992.17351 1064.84579,992.83741 1064.84579,994.68398 L1064.84579,997.05898 L1047.84579,997.05898 L1030.84579,997.05898 L1030.84579,994.68398 C1030.84579,992.83741 1031.52309,992.17351 1033.89009,991.70012 C1039.58719,990.5607 1039.99059,987.85274 1039.64859,953.04363 L1039.34579,922.21696 L1036.92149,919.63797 C1035.58809,918.21953 1033.67559,917.05898 1032.67149,917.05898 C1031.53959,917.05898 1030.84579,916.33138 1030.84579,915.1443 C1030.84579,913.49455 1031.86069,913.13451 1038.18079,912.54227 C1042.21499,912.16423 1053.35249,912.02681 1062.93079,912.23689 C1078.50289,912.57843 1080.78659,912.85138 1084.51159,914.81628 C1091.12889,918.30686 1094.84579,925.1133 1094.84579,933.74032 C1094.84579,941.93522 1090.14749,949.13284 1081.61859,954.00388 C1078.89589,955.5589 1077.13699,957.12094 1077.70999,957.47507 C1078.28299,957.82921 1082.70189,964.06796 1087.52979,971.33897 C1097.0074,985.6127 1102.2753,992.05898 1104.4622,992.05898 C1106.3898,992.05898 1106.2192,996.7017 1104.264,997.45199 C1101.4262,998.54098 1090.42029,998.01317 1087.25829,996.63643 L1087.25829,996.63643 Z M1068.77629,949.5949 C1072.75119,947.53942 1076.65439,942.59587 1077.38739,938.68877 C1078.32859,933.67201 1076.12049,927.05421 1072.30469,923.45547 C1068.77109,920.12286 1065.35779,919.16731 1059.45049,919.85696 L1055.84579,920.27779 L1055.84579,935.66839 L1055.84579,951.05898 L1060.89539,951.05898 C1063.67269,951.05898 1067.21909,950.40014 1068.77629,949.5949 Z M1513.8994,996.46339 C1510.9038,995.65821 1508.2733,994.81986 1508.0539,994.60039 C1507.8344,994.38092 1507.103,989.89432 1506.4285,984.63016 L1505.2022,975.05898 L1508.024,975.05898 C1509.576,975.05898 1510.8458,975.43183 1510.8458,975.88754 C1510.8458,978.48931 1517.408,986.15271 1521.2133,987.99482 C1531.4984,992.97375 1543.8507,988.28636 1543.8421,979.40777 C1543.8321,973.58132 1541.007,970.09883 1531.3719,964.05898 C1517.8524,955.58418 1512.6319,951.10922 1509.9356,945.68394 C1507.2474,940.27499 1506.7671,931.85746 1508.796,925.70981 C1510.1352,921.65205 1516.4176,915.59267 1521.7062,913.25787 C1527.0305,910.90733 1543.6942,910.98317 1550.5958,913.38935 L1555.8458,915.21971 L1555.8458,924.13935 L1555.8458,933.05898 L1552.9542,933.05898 C1550.7095,933.05898 1549.9233,932.50378 1549.4398,930.57732 C1548.3915,926.40092 1543.0308,921.18588 1538.544,919.9777 C1526.5409,916.74562 1516.9271,929.06003 1524.4623,938.01508 C1525.9014,939.72534 1532.4253,944.74832 1538.96,949.17728 C1551.6177,957.75625 1556.2939,962.42777 1557.8608,968.05898 C1561.3087,980.45035 1555.5819,991.395 1543.2325,996.01547 C1536.606,998.49479 1522.2712,998.71368 1513.8994,996.46339 L1513.8994,996.46339 Z M203.84576,994.36307 C203.84576,992.59044 204.40565,992.05901 206.27318,992.05901 C207.70449,992.05901 209.5511,990.97778 210.77318,989.42415 C212.77011,986.88547 212.84576,985.64199 212.84576,955.35841 C212.84576,933.38077 212.49587,923.27058 211.68242,921.74327 C210.19262,918.94607 207.81829,917.1312 205.59576,917.09081 C204.40424,917.06911 203.84576,916.26118 203.84576,914.55901 L203.84576,912.05901 L233.84576,912.05901 L263.84576,912.05901 L263.84576,922.62543 L263.84576,933.19185 L261.22033,932.87543 C259.24288,932.63711 258.31735,931.71829 257.47033,929.15267 C255.49891,923.18123 252.20713,921.65993 240.3042,921.21931 L229.84576,920.83217 L229.84576,935.07408 L229.84576,949.31598 L237.88914,948.85036 C246.65534,948.34289 251.06983,946.21461 251.66531,942.20868 C251.90105,940.62281 252.68786,940.05938 254.66531,940.0604 L257.34576,940.0614 L257.34576,953.06014 L257.34576,966.05888 L254.59576,966.05875 C252.3776,966.05865 251.84576,965.6051 251.84576,963.71361 C251.84576,959.24811 248.51128,957.5929 238.74222,957.20912 L229.84576,956.85962 L229.84576,970.90242 C229.84576,987.82817 230.00122,988.05862 241.41904,988.05862 C252.67936,988.05862 258.54932,985.20685 261.48806,978.30862 C262.97331,974.82222 266.43569,973.82642 267.49295,976.58159 C268.19062,978.39969 265.37247,990.13939 263.25576,994.23266 L261.75773,997.12953 L232.80175,996.89813 L203.84576,996.66674 L203.84576,994.36268 L203.84576,994.36307 Z M280.84576,994.68401 C280.84576,992.85487 281.52276,992.17361 283.79138,991.71989 C289.06754,990.66465 289.3181,989.18396 289.65658,957.05901 C290.009,923.61054 289.58108,920.59761 284.1174,918.05901 C281.83868,917.00024 280.88268,915.86922 280.8674,914.21403 L280.84576,911.86905 L303.5958,912.28367 C328.19381,912.73197 330.20048,913.1208 336.86738,918.73062 C344.19438,924.89589 346.09381,937.15803 341.13353,946.27169 C336.80718,954.22062 329.32734,958.44171 317.40328,959.66337 L311.15714,960.3033 L309.60523,956.43116 L308.05331,952.55901 L311.74848,952.0185 C316.44312,951.33179 321.54118,948.35873 324.24127,944.73302 C325.77692,942.67094 326.32719,940.50843 326.27697,936.73302 C326.14743,926.99604 320.67372,921.041 311.1255,920.24918 L305.72193,919.80108 L306.03386,953.18004 C306.37406,989.58299 306.53486,990.60595 312.0958,991.74549 C314.16569,992.16964 314.8458,992.89638 314.8458,994.68401 L314.8458,997.05901 L297.8458,997.05901 L280.84576,997.05901 L280.84576,994.68401 L280.84576,994.68401 Z M446.84576,994.3186 C446.84576,992.76984 447.44008,992.05901 448.73498,992.05901 C449.77404,992.05901 451.68654,991.19931 452.98498,990.14858 L455.34576,988.23814 L455.6486,957.24291 C455.98761,922.54566 455.6038,919.92633 449.86325,917.75951 C448.06266,917.07986 446.84576,915.90239 446.84576,914.83977 C446.84576,913.22087 448.23185,913.03629 462.09576,912.80901 C491.27854,912.3306 497.38611,912.65808 502.1324,914.95572 C508.28468,917.93399 511.15933,922.24597 511.66645,929.25683 C511.89438,932.40794 511.8031,936.09284 511.46361,937.44549 C510.47842,941.37078 505.81736,946.16418 500.66392,948.5518 L495.90036,950.75879 L499.93523,951.96767 C509.57624,954.85619 515.72305,964.93752 514.4496,975.7726 C513.37477,984.91776 509.45026,990.06074 500.34576,994.2554 C495.56409,996.45842 494.28685,996.55943 471.09576,996.5686 L446.84576,996.5786 L446.84576,994.31902 L446.84576,994.3186 Z M490.94788,986.78908 C496.04451,983.3843 498.0677,978.74771 497.49995,971.77351 C496.64581,961.28113 489.31737,955.05901 477.81355,955.05901 L471.70167,955.05901 L472.02371,970.14964 C472.33241,984.61458 472.44364,985.31944 474.70654,987.14964 C478.16005,989.94279 486.50436,989.75754 490.94788,986.78908 L490.94788,986.78908 Z M486.81827,945.23631 C492.95767,942.88359 496.18869,938.07698 495.54988,932.24674 C494.69152,924.41268 488.37877,920.05901 477.87788,920.05901 L471.84576,920.05901 L471.84576,933.55901 L471.84576,947.05901 L477.09576,947.00461 C479.98326,946.97471 484.35839,946.17895 486.81827,945.23629 L486.81827,945.23631 Z M527.84576,994.37543 C527.84576,992.75923 528.53462,992.10964 530.49686,991.87543 C531.98728,991.69754 534.06689,990.32292 535.24686,988.73568 C537.27176,986.0119 537.34576,984.83073 537.34576,955.23568 C537.34576,930.64939 537.06516,924.06267 535.93242,922.05901 C534.1663,918.935 531.86678,917.13209 529.59576,917.09081 C528.45704,917.07011 527.84576,916.27308 527.84576,914.80901 C527.84576,912.55901 527.84576,912.55901 545.84576,912.55901 C563.84576,912.55901 563.84576,912.55901 563.84576,914.80901 C563.84576,916.37083 563.2511,917.05901 561.90152,917.05901 C560.83219,917.05901 558.69469,918.14453 557.15152,919.47129 L554.34576,921.88356 L554.05558,953.4219 L553.76539,984.96024 L556.32447,986.63702 C558.35019,987.96432 560.5158,988.2193 566.71503,987.86044 C576.23084,987.30957 580.68721,984.95463 583.33807,979.07607 C585.10178,975.16485 586.96805,974.21497 589.60261,975.88757 C590.59162,976.51547 590.4304,978.36313 588.84608,984.55775 C587.73872,988.88749 586.13711,993.4916 585.28695,994.78911 L583.7412,997.14823 L555.79379,996.85362 L527.84639,996.55901 L527.84576,994.37543 L527.84576,994.37543 Z M597.84576,994.68401 C597.84576,992.83744 598.52311,992.17354 600.89004,991.70015 C606.41167,990.59583 606.84623,987.86823 606.84202,954.34113 C606.83902,926.49835 606.71031,924.34913 604.87304,921.33585 C603.79216,919.56311 601.76884,917.82682 600.37678,917.47744 C598.6544,917.04515 597.84576,916.15798 597.84576,914.7006 C597.84576,912.5958 598.13777,912.55901 614.84576,912.55901 C631.55375,912.55901 631.84576,912.59581 631.84576,914.7006 C631.84576,916.14807 631.03957,917.04453 629.35841,917.46648 C627.99037,917.80984 626.07787,919.3009 625.10841,920.77997 C623.52204,923.20022 623.34576,926.52395 623.34576,954.01409 C623.34576,987.96691 623.75322,990.6905 628.98933,991.73772 C631.16907,992.17367 631.84576,992.87165 631.84576,994.68401 L631.84576,997.05901 L614.84576,997.05901 L597.84576,997.05901 L597.84576,994.68401 L597.84576,994.68401 Z M836.84576,994.50311 C836.84576,992.85813 837.60766,992.15663 839.89004,991.70015 C845.41344,990.59547 845.84576,987.87618 845.84576,954.23901 C845.84576,924.77306 845.81376,924.30722 843.5614,920.95689 C842.305,919.08806 840.28,917.41521 839.0614,917.23946 C837.46928,917.00984 836.84576,916.23594 836.84576,914.48946 L836.84576,912.05901 L866.34576,912.05901 L895.84576,912.05901 L895.84576,922.55901 C895.84576,932.96189 895.82366,933.05901 893.45705,933.05901 C891.52427,933.05901 890.9445,932.39886 890.4195,929.60036 C889.30439,923.65632 885.21965,921.66039 873.26442,921.21784 L863.14717,920.84333 L862.49647,925.59074 C862.13858,928.20182 861.84576,934.61378 861.84576,939.83954 L861.84576,949.34092 L870.3531,948.81017 C879.71951,948.22582 883.4266,946.57724 884.43829,942.54636 C884.88565,940.76394 885.74037,940.05901 887.45417,940.05901 L889.84576,940.05901 L889.84576,953.05901 L889.84576,966.05901 L887.34576,966.05901 C885.64359,966.05901 884.83561,965.50053 884.81396,964.30901 C884.72396,959.35932 879.96526,957.05901 869.81561,957.05901 L861.65397,957.05901 L861.99986,971.14057 C862.41888,988.19883 862.31702,988.05901 874.325,988.05901 C884.92324,988.05901 890.43484,985.52009 893.31988,979.30901 C894.77295,976.18076 895.87912,975.05901 897.51086,975.05901 C898.73014,975.05901 900.03191,975.55119 900.40369,976.15274 C901.31506,977.62736 896.87928,993.88264 895.07246,995.68946 C893.87999,996.88193 888.8022,997.09 865.24057,996.91187 L836.84576,996.6972 L836.84576,994.50311 Z M946.84576,994.73948 C946.84576,993.09994 947.7776,992.00059 950.02437,990.98948 C951.7726,990.20272 954.1351,988.28829 955.27437,986.73519 C957.28294,983.997 957.34576,982.76871 957.34576,946.23519 C957.34576,903.85381 957.26686,903.34317 950.36315,901.06475 C947.62743,900.16188 946.84576,899.36556 946.84576,897.48146 L946.84576,895.05901 L981.84579,895.05901 L1016.84579,895.05901 L1016.84579,907.55901 L1016.84579,920.05901 L1013.84579,920.05901 C1011.40239,920.05901 1010.84509,919.64151 1010.84199,917.80901 C1010.83599,914.12899 1007.07029,909.05379 1003.07389,907.33921 C1000.70899,906.32461 995.23219,905.56929 988.09579,905.27355 L976.84579,904.80734 L976.84579,921.93317 L976.84579,939.05901 L985.09579,939.00261 C996.09179,938.92741 999.85529,937.56286 1002.17809,932.80905 C1003.67229,929.75126 1004.54909,929.05905 1006.92809,929.05905 L1009.84579,929.05905 L1009.84579,944.12241 L1009.84579,959.18577 L1006.63509,958.87241 C1004.42989,958.65719 1003.25549,957.9327 1002.88509,956.55905 C1001.29899,950.67715 995.17919,948.05905 983.01629,948.05905 L976.62279,948.05905 L977.03019,965.80905 C977.49509,986.06569 978.34719,989.0261 984.33619,991.19174 C986.96329,992.14172 987.84579,993.03892 987.84579,994.75994 L987.84579,997.05905 L967.34579,997.05905 L946.84576,997.05905 L946.84576,994.73952 L946.84576,994.73948 Z M1106.8458,994.55901 C1106.8458,992.73163 1107.3801,992.05901 1108.8316,992.05901 C1111.8958,992.05901 1115.3954,985.82693 1123.0016,966.82521 C1133.187,941.38011 1142.8458,915.50731 1142.8458,913.66911 C1142.8458,912.41209 1143.8874,912.06349 1147.5958,912.078913 L1152.3458,912.09983 L1165.8338,946.67099 C1180.4807,984.21244 1183.1805,990.04772 1186.5958,991.54612 C1187.9754,992.1514 1188.8458,993.40859 1188.8458,994.79612 C1188.8458,997.05787 1188.8358,997.05899 1171.8458,997.05899 L1154.8458,997.05899 L1154.8458,994.68399 C1154.8458,992.84983 1155.5229,992.17357 1157.8191,991.71432 C1162.1168,990.85478 1162.376,987.946 1159.0356,978.05899 L1156.1639,969.55899 L1144.3475,969.55899 L1132.5311,969.55899 L1130.1558,976.55899 C1127.163,985.37873 1127.3364,991.41563 1130.5958,991.87854 C1132.2243,992.10983 1132.8458,992.86942 1132.8458,994.62854 L1132.8458,997.05899 L1119.8458,997.05899 L1106.8458,997.05899 L1106.8458,994.55899 L1106.8458,994.55901 Z M1152.8458,959.54295 C1152.8458,958.02148 1145.4998,938.05901 1144.94,938.05901 C1144.5754,938.05901 1143.556,939.97151 1142.6746,942.30901 C1141.7931,944.64651 1139.9162,949.59651 1138.5037,953.30901 L1135.9354,960.05901 L1144.3906,960.05901 C1149.041,960.05901 1152.8458,959.82678 1152.8458,959.54295 Z M1195.8458,994.68401 C1195.8458,992.89638 1196.5259,992.16964 1198.5958,991.74549 C1204.0055,990.63695 1204.2484,989.22838 1204.6687,956.52687 C1205.1023,922.79069 1204.6787,919.95414 1198.8633,917.75951 C1197.0627,917.07986 1195.8458,915.90239 1195.8458,914.83977 C1195.8458,913.23749 1196.9734,913.05889 1207.0958,913.06114 L1218.3458,913.06314 L1224.8458,921.28965 C1228.4208,925.81423 1237.6458,936.95992 1245.3458,946.05784 C1253.0458,955.15576 1260.3777,963.94038 1261.639,965.57921 L1263.9322,968.55889 L1263.6082,945.96788 C1263.2551,921.35177 1262.696,918.81236 1257.3332,917.46636 C1255.78,917.07654 1254.8458,916.13163 1254.8458,914.95048 C1254.8458,913.18844 1255.7704,913.05889 1268.3458,913.05889 C1281.017,913.05889 1281.8458,913.1774 1281.8458,914.98934 C1281.8458,916.19882 1281.043,917.03913 1279.6961,917.23934 C1278.5138,917.41509 1276.6013,918.82861 1275.4461,920.38048 C1273.4153,923.10868 1273.3357,924.42446 1273.0394,960.13048 L1272.733,997.05889 L1268.3734,997.05889 C1264.4298,997.05889 1263.6984,996.65339 1260.7077,992.80889 C1258.0639,989.41034 1215.6992,936.93881 1214.0812,935.05889 C1213.8446,934.78389 1213.8475,945.80889 1214.0912,959.55889 C1214.5785,987.44094 1215.1873,990.77651 1219.9637,991.73179 C1222.1724,992.17353 1222.8492,992.86595 1222.8492,994.68389 L1222.8492,997.05889 L1209.3492,997.05889 L1195.8492,997.05889 L1195.8492,994.68389 L1195.8458,994.68401 Z M1370.8458,994.55901 C1370.8458,993.07345 1371.4184,992.05901 1372.2569,992.05901 C1374.2332,992.05901 1377.9397,987.36659 1380.5865,981.51378 C1384.2673,973.37442 1401.3812,929.19953 1404.3177,920.25826 L1407.0438,911.95752 L1411.514,912.25826 L1415.9842,912.55901 L1429.2512,946.55901 C1436.5481,965.25901 1443.3195,982.13401 1444.299,984.05901 C1446.5347,988.45318 1449.7895,992.05901 1451.5201,992.05901 C1452.2675,992.05901 1452.8458,993.14955 1452.8458,994.55901 L1452.8458,997.05901 L1435.8458,997.05901 L1418.8458,997.05901 L1418.8458,994.55901 C1418.8458,992.81827 1419.3925,992.05901 1420.6458,992.05901 C1425.4854,992.05901 1425.9339,987.83301 1422.2637,976.81242 L1419.6816,969.05901 L1407.9461,969.05901 L1396.2106,969.05901 L1394.0824,975.80901 C1390.0626,988.55856 1390.2534,992.05901 1394.9682,992.05901 C1396.3043,992.05901 1396.8458,992.78002 1396.8458,994.55901 L1396.8458,997.05901 L1383.8458,997.05901 L1370.8458,997.05901 L1370.8458,994.55901 Z M1413.2759,949.80901 C1411.3853,944.17151 1409.5706,938.88401 1409.2432,938.05901 C1408.8877,937.16301 1406.8882,940.98836 1404.2776,947.55901 C1401.8739,953.60901 1399.8934,958.89651 1399.87644,959.30901 C1399.8595,959.72151 1403.641,960.05901 1408.2796,960.05901 L1416.7135,960.05901 L1413.2759,949.80901 Z M1458.8455,994.55901 C1458.8455,992.60307 1459.3561,992.05901 1461.1908,992.05901 C1462.4806,992.05901 1464.3931,991.11244 1465.4408,989.95552 C1467.2141,987.99749 1467.3661,985.69805 1467.6396,956.70552 C1467.8011,939.57494 1467.6836,924.55896 1467.3774,923.33669 C1466.6648,920.48733 1462.9948,917.05901 1460.6572,917.05901 C1459.4455,917.05901 1458.8455,916.31415 1458.8455,914.80901 C1458.8451,912.5639 1458.8825,912.55901 1475.8449,912.55901 C1492.1945,912.55901 1492.8448,912.63571 1492.8453,914.5649 C1492.8458,915.81586 1491.7566,917.0529 1489.9518,917.85178 C1488.3602,918.55632 1486.5936,920.35367 1486.0261,921.84589 C1484.5689,925.67795 1483.7399,956.88242 1484.6476,973.74015 C1485.2807,985.49825 1485.7311,988.27478 1487.2835,989.99015 C1488.3132,991.12802 1489.986,992.05901 1491.0008,992.05901 C1492.3021,992.05901 1492.8458,992.79568 1492.8458,994.55901 L1492.8458,997.05901 L1475.8458,997.05901 L1458.8455,997.05901 L1458.8455,994.55901 Z M1570.8458,994.37931 C1570.8458,992.58949 1571.4008,992.05901 1573.2732,992.05901 C1574.7045,992.05901 1576.5511,990.97778 1577.7732,989.42415 C1579.7701,986.88547 1579.8458,985.64199 1579.8458,955.35841 C1579.8458,933.38077 1579.4959,923.27058 1578.6825,921.74327 C1577.1927,918.94607 1574.8183,917.1312 1572.5958,917.09081 C1571.4043,917.06911 1570.8458,916.26118 1570.8458,914.55901 L1570.8458,912.05901 L1600.8458,912.05901 L1630.8458,912.05901 L1630.8458,922.62543 L1630.8458,933.19185 L1628.2204,932.87543 C1626.2429,932.63711 1625.3174,931.71829 1624.4704,929.15267 C1622.499,923.18123 1619.2072,921.65993 1607.3042,921.21931 L1596.8458,920.83217 L1596.8458,934.94559 L1596.8458,949.05901 L1603.0958,949.00261 C1611.7717,948.92421 1616.0028,947.29724 1617.8458,943.33069 C1618.9443,940.96648 1620.015,940.09691 1621.8458,940.08208 L1624.3458,940.06178 L1624.3458,953.06052 L1624.3458,966.05926 L1621.5958,966.05913 C1619.3776,966.05903 1618.8458,965.60548 1618.8458,963.71399 C1618.8458,959.24849 1615.5113,957.59328 1605.7423,957.2095 L1596.8458,956.86 L1596.8458,970.9028 C1596.8458,987.82855 1597.0013,988.059 1608.4191,988.059 C1619.6794,988.059 1625.5494,985.20723 1628.4881,978.309 C1629.9734,974.8226 1633.4357,973.8268 1634.493,976.58197 C1635.1907,978.40008 1632.3725,990.13978 1630.2558,994.23307 L1628.7577,997.12997 L1599.8018,996.91479 L1570.8458,996.6996 L1570.8458,994.3793 L1570.8458,994.37931 Z M230.90171,903.1361 L228.45767,901.25767 L234.40171,892.17403 C237.67094,887.17803 240.9839,883.08333 241.76385,883.0747 C245.14525,883.0373 255.91183,885.35058 255.64218,886.05657 C255.10519,887.46252 235.36817,905.04735 234.34576,905.030772 C233.79576,905.02176 232.24594,904.16924 230.90171,903.1361 Z M103.845759,834.05901 L1626.8458,834.05901 L1626.8458,843.05901 L103.845759,843.05901 L103.845759,834.05901 Z M683.48302,813.5942 C675.48342,810.74242 670.98456,803.28592 672.44176,795.29419 C673.42377,789.90858 676.47239,786.13998 681.87015,783.63917 L686.59353,781.45079 L683.71964,779.80141 C682.08628,778.86399 680.84576,777.30228 680.84576,776.18344 C680.84576,774.37396 688.17822,767.05901 689.99203,767.05901 C690.42449,767.05901 689.79675,765.3954 688.59708,763.36209 C683.47606,754.68262 687.57296,742.13388 697.134,737.2136 C702.31027,734.5498 704.05777,734.43709 722.1819,735.59808 C732.60833,736.26598 732.99639,736.37289 732.44555,738.42562 C732.13069,739.59898 731.86692,740.89651 731.85941,741.30901 C731.85141,741.72151 730.08843,742.05901 727.94059,742.05901 L724.03542,742.05901 L724.56259,747.87275 C725.71275,760.55692 716.69204,769.24418 702.12907,769.47701 C694.56432,769.59796 690.90286,771.20231 693.85412,773.10289 C694.67452,773.63122 699.55822,775.42676 704.70679,777.09299 C721.2626,782.45092 724.32213,785.14716 723.61609,793.75701 C722.88279,802.69931 715.68988,810.49592 705.2841,813.6276 C699.32513,815.42099 688.56114,815.4045 683.48302,813.5942 L683.48302,813.5942 Z M705.74855,807.42016 C713.86681,803.37466 717.38371,795.6658 712.94407,791.64798 C709.95303,788.94113 696.96268,784.78563 693.59651,785.45886 C686.74336,786.82949 680.34142,795.18503 681.52299,801.2167 C683.14687,809.50621 695.31142,812.6212 705.74855,807.42016 L705.74855,807.42016 Z M708.4258,762.17333 C714.52087,758.45656 716.87498,747.90846 712.77318,742.69387 C707.16229,735.56078 696.48334,743.5111 696.38371,754.89559 C696.35271,758.43311 696.86275,759.67688 699.15152,761.64559 C702.52513,764.54745 704.36119,764.65193 708.4258,762.17333 L708.4258,762.17333 Z M746.34576,785.37804 C741.95271,784.48053 739.59918,781.54822 739.0997,776.35001 C737.82079,763.04019 749.01875,743.53309 761.5507,737.23985 C768.06469,733.96867 780.91373,733.63865 789.47391,736.52264 C790.2419,736.78138 789.67398,740.19998 787.69499,747.23087 C783.82438,760.98219 781.60795,774.74615 782.88109,777.12503 C783.71621,778.68545 784.30864,778.79361 786.95934,777.86957 C789.40598,777.01667 790.2455,777.08087 790.93689,778.17375 C792.37637,780.44914 791.50154,781.31466 785.78765,783.26827 C778.10551,785.89483 774.58885,785.38283 773.43418,781.46972 L772.5226,778.38042 L768.42807,780.6689 C761.51621,784.53201 752.06745,786.547 746.34576,785.37804 L746.34576,785.37804 Z M763.63276,776.38731 C766.54061,775.00593 769.57336,772.87819 770.3722,771.659 C771.70768,769.6208 775.78112,754.61958 777.37145,745.88291 C778.02314,742.3028 777.94315,742.17991 774.30769,741.17611 C767.59126,739.32161 760.8364,744.21957 755.45542,754.84593 C749.81052,765.99347 748.38719,775.92398 752.06509,778.50008 C754.56206,780.24903 756.09191,779.96961 763.63276,776.38731 Z M1237.102,785.08421 C1232.6145,784.01889 1231.0313,782.46149 1229.8046,777.90584 C1227.9445,770.99807 1232.2486,757.93123 1239.5681,748.26488 C1248.3331,736.68953 1258.0751,732.78263 1272.4599,735.07415 C1276.2472,735.67746 1279.6435,736.48336 1280.0074,736.86504 C1280.3712,737.24673 1279.1075,743.63401 1277.1992,751.05901 C1275.2908,758.48401 1273.6431,767.48401 1273.5376,771.05901 L1273.3458,777.55901 L1277.5958,777.36968 C1281.409,777.19981 1281.8458,777.41478 1281.8458,779.46136 C1281.8458,781.37062 1280.9055,782.02706 1276.076,783.48932 C1268.1285,785.89563 1264.4404,785.38121 1264.0294,781.80901 C1263.8553,780.29651 1263.5307,779.05901 1263.3079,779.05901 C1263.0851,779.05901 1260.47,780.13493 1257.4965,781.44994 C1252.7127,783.56557 1242.9632,786.2366 1241.0466,785.95665 C1240.6612,785.90035 1238.8861,785.50775 1237.102,785.08421 L1237.102,785.08421 Z M1253.8458,776.52404 C1256.3208,775.28717 1259.0755,773.43904 1259.9673,772.4171 C1262.18,769.8816 1266.1519,756.82999 1268.2077,745.3392 C1268.7557,742.27587 1268.5903,742.0673 1264.8035,741.04762 C1261.5632,740.17511 1260.1728,740.28451 1257.3246,741.6361 C1250.9764,744.6485 1244.6769,754.8679 1241.4101,767.45326 C1238.2813,779.50708 1242.1825,782.35271 1253.8458,776.52404 Z M169.3422,782.80901 C169.04428,781.57151 170.82691,772.26953 173.30361,762.13794 C178.18674,742.16219 178.14549,740.53907 172.79366,742.07395 C170.14675,742.83308 169.84576,742.68744 169.84576,740.64753 C169.84576,738.74308 170.77567,738.10418 175.59576,736.69697 C178.75826,735.77368 182.92076,734.91493 184.84576,734.78864 C188.14057,734.57247 188.36459,734.75564 188.6669,737.91331 C188.84353,739.75817 187.11866,748.89877 184.83387,758.22575 C182.54908,767.55272 180.94725,775.88111 181.27426,776.73326 C181.74782,777.96735 182.79829,778.14326 186.43642,777.59769 C190.78873,776.94502 190.98852,777.02075 190.6749,779.20442 C190.41543,781.01102 189.18157,781.86026 184.84576,783.21646 C181.82076,784.16266 177.21684,784.96432 174.61482,784.99792 C170.51086,785.05092 169.81208,784.76082 169.3422,782.80901 L169.3422,782.80901 Z M207.78734,783.21279 L205.50735,781.36657 L213.25446,747.33172 C217.51536,728.61256 220.854,712.00586 220.67366,710.42795 C220.33742,707.48601 219.97517,707.33434 216.09576,708.51121 C214.17703,709.09329 213.84576,708.82271 213.84576,706.6734 C213.84576,703.76085 217.35788,702.35379 227.09576,701.36506 C232.67452,700.79862 232.84576,700.8534 232.84576,703.20455 C232.84576,704.53738 231.27076,712.76497 229.34576,721.48809 C227.42076,730.21122 225.84576,737.93292 225.84576,738.64743 C225.84576,739.61753 226.94516,739.46023 230.18674,738.02633 C241.32353,733.1 251.03153,733.36051 254.51647,738.6792 C257.77946,743.65916 256.08999,756.54679 250.78924,767.11125 C248.03108,772.60829 239.82437,781.16351 235.36708,783.18832 C229.51186,785.84817 211.06211,785.86454 207.78734,783.21282 L207.78734,783.21279 Z M233.0919,776.87173 C238.10568,773.32354 243.69496,761.33243 245.27134,750.74227 C246.8506,740.13267 239.83818,738.01619 228.6376,745.7219 C226.27182,747.3495 224.37357,749.77281 223.39391,752.41601 C221.58083,757.30784 217.84576,773.2723 217.84576,776.12996 C217.84576,780.33781 227.52847,780.8089 233.0919,776.87173 Z M271.28285,781.99244 C268.57415,779.16434 268.35052,778.36729 268.40697,771.74244 C268.55081,754.86211 278.14719,739.75429 291.36679,735.59621 C297.96241,733.52164 303.76442,734.22481 307.65353,737.57008 C309.89648,739.49939 310.34576,740.70516 310.34576,744.79546 C310.34576,755.09073 300.95703,762.89994 287.44534,763.84321 C283.54057,764.1158 280.01515,764.83838 279.61107,765.44892 C278.48532,767.14989 278.70921,772.93106 279.99546,775.37475 C282.49076,780.11543 286.07053,780.22657 294.64469,775.82955 C299.98668,773.09007 301.08579,772.82414 301.87938,774.07917 C303.64672,776.87411 302.82821,777.75186 295.05134,781.40132 C288.57531,784.44033 286.15436,785.05901 280.73844,785.05901 C274.76941,785.05901 273.97237,784.80052 271.28285,781.99244 Z M289.19018,757.98036 C297.6976,755.61806 303.30964,746.52289 298.94993,742.16318 C296.20076,739.41401 293.65853,739.50423 290.12644,742.47629 C287.31323,744.84345 282.74206,752.34408 281.39155,756.80901 C280.8221,758.69164 281.08936,759.0581 283.02837,759.053474 C284.30294,759.05043 287.07575,758.56748 289.19018,757.98036 Z M322.84565,784.71832 C322.84565,784.55198 324.64301,776.79809 326.83965,767.48745 C329.03629,758.17681 330.83629,748.589 330.83965,746.1812 L330.84565,741.80339 L326.84565,742.44302 C323.30001,743.00999 322.84565,742.85565 322.84565,741.08425 C322.84565,738.89113 326.07891,737.21165 334.19553,735.18869 C339.7485,733.80468 341.84565,734.7539 341.84565,738.65132 L341.84565,740.99874 L345.39484,738.59019 C351.63756,734.35377 355.45101,733.57731 359.98137,735.62021 C362.15133,736.59873 363.7889,737.88526 363.62041,738.47917 C360.90518,748.05 359.36061,751.05901 357.16303,751.05901 C355.19726,751.05901 354.84565,750.54653 354.84565,747.68145 C354.84565,740.40633 348.51683,740.35438 343.92697,747.59185 C341.0671,752.1014 338.11037,762.35667 335.76285,775.90871 C335.06263,779.95103 334.0073,783.4003 333.41768,783.57376 C331.65818,784.09139 322.84565,785.04547 322.84565,784.71834 L322.84565,784.71832 Z M373.00807,783.75458 C371.90427,782.42459 372.51054,778.83064 378.22832,752.80901 L380.59043,742.05901 L377.2181,742.05901 C375.36331,742.05901 373.84576,741.80443 373.84576,741.49327 C373.84576,739.92952 376.08458,737.05901 377.30422,737.05901 C379.74221,737.05901 384.4239,732.32397 386.38802,727.8717 C388.58369,722.89454 389.45666,722.09537 392.72076,722.073897 C394.86906,722.06052 395.03357,722.36922 394.44417,725.30901 C394.08579,727.09651 393.52203,730.24651 393.19136,732.30901 L392.59014,736.05901 L397.21795,736.05901 C401.94478,736.05901 402.64074,736.82375 401.23877,740.47722 C400.80231,741.61463 399.28762,742.05901 395.84718,742.05901 C390.28823,742.05901 391.20074,740.05966 386.76512,761.95821 C383.50672,778.04489 383.72663,779.52716 389.14127,777.97426 C393.65984,776.67835 394.02368,776.7857 393.66531,779.30901 C393.42291,781.01575 392.13852,781.96219 388.34576,783.22884 C382.22338,785.2735 374.4887,785.53863 373.00807,783.75458 Z M413.34499,782.46368 C406.0265,774.5669 411.32248,752.10934 422.97349,741.63408 C427.72732,737.35998 435.14998,734.05901 440.00702,734.05901 C443.0817,734.05901 449.85601,737.20965 450.87493,739.11352 C452.4867,742.12514 451.98461,749.31903 449.92716,752.69318 C445.71082,759.60782 436.62223,764.05901 426.72003,764.05901 L420.84576,764.05901 L420.84576,769.3365 C420.84576,779.58116 425.10323,781.37898 436.2947,775.86022 C439.86245,774.10088 442.97819,772.86338 443.21857,773.11022 C443.45895,773.35705 443.8109,774.45901 444.00069,775.55901 C444.27764,777.16418 442.88751,778.29932 436.95912,781.30901 C430.53952,784.56807 428.66769,785.05901 422.66137,785.05901 C416.50634,785.05901 415.48713,784.77508 413.34499,782.46368 L413.34499,782.46368 Z M430.94654,757.90606 C436.23059,756.11381 439.93628,753.08661 441.53756,749.2542 C442.88464,746.0302 442.84718,745.53705 441.0741,743.15286 C438.32571,739.45719 435.62716,739.43404 431.48536,743.07056 C428.28998,745.87613 422.84576,755.28203 422.84576,757.99705 C422.84576,759.39203 426.69285,759.3488 430.94654,757.90605 L430.94654,757.90606 Z M806.51243,784.39234 C805.10033,782.98025 806.01608,777.07956 810.81296,756.68141 C817.3386,728.93195 820.84576,712.5944 820.84576,709.94515 C820.84576,708.04897 820.43568,707.86387 817.34576,708.3653 C814.16069,708.88216 813.84576,708.71744 813.84576,706.53468 C813.84576,704.03289 816.34058,702.92547 826.27735,701.01646 C831.40922,700.03055 832.84576,700.68103 832.84576,703.99067 C832.84576,705.4854 829.47373,721.29976 825.35235,739.13369 C821.23097,756.96761 817.85597,773.08268 817.85235,774.94493 L817.84535,778.33086 L822.41362,777.70471 C826.70874,777.116 826.96286,777.21063 826.66362,779.28733 C826.41754,780.9951 825.0978,781.88633 820.84535,783.21646 C815.22772,784.97362 807.71003,785.59035 806.51202,784.39234 L806.51243,784.39234 Z M844.20894,783.83763 C842.98198,781.85236 843.68376,777.52181 847.94228,760.80018 C850.16007,752.09174 851.8064,744.19993 851.6008,743.26283 C851.20616,741.46411 850.95624,741.42352 846.59576,742.44985 C844.27294,742.99657 843.84576,742.77555 843.84576,741.02704 C843.84576,738.64315 848.11402,736.5253 855.89079,735.05047 C861.44619,733.99691 863.84576,734.5363 863.84576,736.83864 C863.84576,737.69975 861.80829,746.89939 859.31804,757.28229 C856.82779,767.66519 855.08713,776.64053 855.44989,777.2275 C855.8537,777.88087 857.82983,778.05891 860.54588,777.68663 C864.70023,777.11722 864.96206,777.21899 864.66403,779.28733 C864.41795,780.9951 863.09821,781.88633 858.84576,783.21646 C852.33799,785.25205 845.26852,785.55206 844.20894,783.83763 L844.20894,783.83763 Z M881.14309,783.39145 C880.79114,782.47429 881.05919,779.21179 881.7387,776.14145 C883.96947,766.06213 888.84576,742.99533 888.84576,742.5222 C888.84576,742.26745 887.46276,742.05901 885.77244,742.05901 C881.43137,742.05901 882.24117,739.26395 887.34663,736.62563 C890.386,735.05498 892.13897,733.05906 894.65092,728.30901 C897.51106,722.90054 898.3359,722.05901 900.77696,722.05901 L903.59784,722.05901 L902.25693,728.30901 C901.51943,731.74651 900.90021,734.89651 900.88089,735.30901 C900.86159,735.72151 903.09576,736.05901 905.84576,736.05901 C911.06993,736.05901 911.19229,736.16402 910.21547,739.80901 C909.68866,741.77479 908.95883,742.05901 904.43773,742.05901 L899.26296,742.05901 L895.89975,758.9349 C894.04998,768.21664 892.80752,776.51699 893.13874,777.38012 C893.62548,778.64853 894.37293,778.76821 897.03675,778.00423 C901.61971,776.68986 901.84576,776.75675 901.84576,779.42723 C901.84576,781.45966 901.02115,782.02683 896.03016,783.42723 C888.2821,785.60123 881.98525,785.58609 881.14309,783.39143 L881.14309,783.39145 Z M922.32443,782.79432 C919.83533,780.65329 919.40359,779.47866 919.04692,773.87718 C918.24549,761.29094 924.00725,747.08154 932.56048,740.55067 C942.00569,733.33871 952.32182,732.38122 958.11904,738.17845 C960.80831,740.86772 961.0457,741.62638 960.61159,746.14428 C959.65984,756.04935 950.16704,763.24391 937.17777,763.90469 C929.05435,764.31793 928.19974,765.29383 929.79317,772.33736 C931.52776,780.0049 934.67948,780.79187 944.68878,776.05669 C951.31885,772.92015 952.84576,772.92207 952.84576,776.06699 C952.84576,779.26295 940.84396,784.39741 932.26845,784.8701 C925.886,785.22191 924.90969,785.01811 922.32443,782.79436 L922.32443,782.79432 Z M943.82835,756.06789 C950.06423,752.88658 952.74035,745.80998 949.19077,741.88775 C944.72349,736.95146 936.45348,743.4165 932.34711,755.05519 L930.8382,759.33189 L935.34518,758.71414 C937.82402,758.37438 941.64145,757.18357 943.82835,756.06789 L943.82835,756.06789 Z M1182.8458,784.69033 C1182.8458,784.53938 1184.6431,776.79809 1186.8397,767.48745 C1189.0363,758.17681 1190.8363,748.589 1190.8397,746.1812 L1190.8497,741.80339 L1186.8497,742.44302 C1183.3164,743.00802 1182.8497,742.85202 1182.8497,741.10601 C1182.8497,738.67778 1184.6095,737.69425 1192.7104,735.59511 C1199.7492,733.77117 1201.8497,734.47357 1201.8497,738.65132 L1201.8497,740.99874 L1205.3989,738.59019 C1211.6232,734.36624 1215.4577,733.5785 1219.9449,735.60192 C1222.0925,736.57038 1223.8499,737.63192 1223.8499,737.96088 C1223.8499,738.28985 1222.8415,741.37151 1221.6088,744.80901 C1219.7582,749.96971 1218.9739,751.05901 1217.1086,751.05901 C1215.2093,751.05901 1214.8497,750.5214 1214.8497,747.68145 C1214.8497,740.84615 1208.9731,740.3362 1204.5854,746.79075 C1201.2489,751.69879 1199.5416,757.02551 1196.8066,771.05901 C1195.574,777.38401 1194.2919,782.83851 1193.9576,783.18011 C1193.3575,783.79328 1182.8497,785.22191 1182.8497,784.69033 L1182.8458,784.69033 Z M1298.1827,783.49469 C1297.3623,781.35654 1298.3095,775.19732 1302.1716,757.55901 L1305.456,742.55901 L1302.6509,742.24565 C1299.2953,741.8708 1298.7286,738.54837 1301.8512,737.5573 C1305.3665,736.44158 1309.4264,732.31837 1311.3881,727.8717 C1313.5837,722.89454 1314.4567,722.09537 1317.7208,722.073897 C1319.8691,722.06052 1320.0336,722.36922 1319.4442,725.30901 C1319.0858,727.09651 1318.5221,730.24651 1318.1914,732.30901 L1317.5902,736.05901 L1322.218,736.05901 C1326.9448,736.05901 1327.6408,736.82375 1326.2388,740.47722 C1325.8023,741.61463 1324.2877,742.05901 1320.8472,742.05901 C1315.2883,742.05901 1316.2008,740.05966 1311.7652,761.95821 C1308.5068,778.04489 1308.7267,779.52716 1314.1413,777.97426 C1318.6599,776.67835 1319.0237,776.7857 1318.6654,779.30901 C1318.423,781.01575 1317.1386,781.96219 1313.3458,783.22884 C1306.6886,785.4521 1298.9857,785.58716 1298.1827,783.49469 L1298.1827,783.49469 Z M1338.5302,782.47067 C1330.9496,774.89011 1336.1901,752.22842 1347.9735,741.63408 C1352.7274,737.35998 1360.15,734.05901 1365.0071,734.05901 C1368.0817,734.05901 1374.856,737.20965 1375.875,739.11352 C1377.4867,742.12514 1376.9847,749.31903 1374.9272,752.69318 C1370.6912,759.64012 1361.6218,764.05901 1351.5999,764.05901 L1345.6054,764.05901 L1346.0491,770.19339 C1346.7538,779.93522 1350.3331,781.26565 1361.2947,775.86022 C1364.8625,774.10088 1367.9782,772.86338 1368.2186,773.11022 C1368.459,773.35705 1368.8109,774.45901 1369.0007,775.55901 C1369.2777,777.16418 1367.8876,778.29932 1361.9592,781.30901 C1355.5975,784.53867 1353.6391,785.05901 1347.8455,785.05901 C1341.9422,785.05901 1340.8016,784.7421 1338.5302,782.47067 L1338.5302,782.47067 Z M1359.494,756.40916 C1366.4887,752.93286 1369.6227,744.87227 1365.2625,741.57293 C1362.3665,739.38162 1360.2664,739.75079 1356.421,743.12714 C1353.2035,745.9521 1347.8458,755.32503 1347.8458,758.12875 C1347.8458,759.78386 1354.7565,758.76365 1359.494,756.40916 Z M1389.8458,784.19915 C1389.8458,783.77805 1391.672,775.66842 1393.904,766.17775 C1396.1361,756.68709 1397.8236,747.49032 1397.654,745.7405 C1397.3651,742.75857 1397.1172,742.57205 1393.7014,742.76687 C1390.8439,742.92986 1389.9484,742.55923 1389.5538,741.05041 C1389.1444,739.48484 1390.0103,738.77197 1394.1982,737.22665 C1397.0294,736.18196 1401.0336,735.02141 1403.0965,734.64766 C1406.974,733.94514 1406.9084,733.8913 1409.3347,739.76209 C1409.3807,739.87378 1412.0531,738.63628 1415.2731,737.01209 C1422.1637,733.53641 1423.319,733.44037 1427.5085,735.99495 L1430.6712,737.92342 L1428.5085,744.46708 C1426.704,749.92692 1425.9731,751.01475 1424.0958,751.03488 C1422.2121,751.05508 1421.8458,750.52172 1421.8458,747.75901 C1421.8458,739.04542 1413.5527,740.76887 1409.0134,750.42581 C1407.8729,752.85206 1405.6138,761.21696 1403.9931,769.01448 C1402.3724,776.81199 1400.8887,783.32386 1400.6961,783.48528 C1399.816,784.22269 1389.8458,784.87865 1389.8458,784.19915 L1389.8458,784.19915 Z M1439.8458,784.20315 C1439.8458,783.75322 1441.4513,777.12433 1443.4136,769.47228 C1445.5566,761.11571 1447.0542,752.76394 1447.1636,748.55947 L1447.3458,741.55947 L1443.7197,741.83729 C1440.8695,742.05567 1439.9881,741.7115 1439.6003,740.22874 C1439.1972,738.68716 1440.0427,738.0574 1444.2264,736.78323 C1453.3178,734.01439 1455.4594,733.81588 1457.2221,735.57862 C1458.1151,736.47166 1458.8458,738.29518 1458.8458,739.6309 C1458.8458,740.96661 1459.0304,742.05947 1459.256,742.05947 C1459.4816,742.05947 1462.4512,740.74236 1465.8552,739.13257 C1473.9152,735.32079 1484.5981,733.32135 1487.7867,735.02783 C1489.8675,736.14147 1490.0163,736.71672 1489.4083,741.29963 C1489.0402,744.07477 1487.4221,751.79352 1485.8125,758.4524 C1484.2029,765.11129 1482.7644,772.13447 1482.6159,774.05947 C1482.3458,777.55904 1482.3463,777.55946 1486.5528,777.47634 C1489.4281,777.41954 1490.9421,777.86817 1491.3356,778.89355 C1492.1284,780.95939 1491.1836,781.63251 1484.9143,783.46868 C1477.8024,785.55164 1471.2549,785.56805 1470.4632,783.50488 C1470.1351,782.64987 1471.662,773.93308 1473.8562,764.13424 C1478.2558,744.48735 1478.5084,742.25093 1476.4187,741.44903 C1474.2617,740.62132 1466.6106,744.3737 1462.0451,748.49837 C1458.2871,751.89343 1457.8062,752.94863 1455.4987,762.86104 C1454.1289,768.74516 1452.6902,775.73273 1452.3015,778.38897 C1451.9128,781.04522 1451.0888,783.36949 1450.4703,783.55403 C1447.4374,784.45896 1439.8458,784.92276 1439.8458,784.20312 L1439.8458,784.20315 Z M1508.4324,783.42447 C1508.0873,782.52522 1509.8724,773.26153 1512.3994,762.83849 C1514.9263,752.41544 1516.7591,743.27584 1516.4722,742.52826 C1516.0726,741.487 1515.1796,741.39015 1512.6548,742.11425 C1510.8421,742.63412 1509.2435,743.05947 1509.1024,743.05947 C1508.9613,743.05947 1508.8458,742.01665 1508.8458,740.74209 C1508.8458,738.81481 1509.7295,738.15745 1514.0958,736.837 C1525.9441,733.25383 1529.6041,733.86168 1528.4074,739.21382 C1528.119,740.50393 1526.0581,749.17936 1523.8277,758.49256 C1521.5972,767.80576 1520.0227,776.07821 1520.3288,776.87578 C1520.7538,777.98333 1521.9598,778.17863 1525.4338,777.70246 C1529.7079,777.11664 1529.9631,777.21231 1529.6641,779.28779 C1529.0481,783.56263 1509.9158,787.29027 1508.4324,783.42447 Z M1546.1606,783.43747 C1545.4936,781.69924 1546.3037,776.92481 1550.212,759.55949 C1554.5331,740.35997 1554.471,742.05949 1550.8519,742.05949 C1546.4547,742.05949 1547.1867,739.3007 1552.2935,736.62611 C1555.2316,735.08734 1557.0438,733.02698 1559.3885,728.55949 C1561.9491,723.68075 1563.0598,722.49782 1565.3323,722.2295 C1568.3675,721.87111 1568.3895,722.12518 1566.2474,732.80949 L1565.5958,736.05949 L1570.8278,736.05949 C1575.1878,736.05949 1575.9586,736.3231 1575.4528,737.64128 C1575.1189,738.51126 1574.8458,739.86126 1574.8458,740.64128 C1574.8458,741.68965 1573.4442,742.05949 1569.4709,742.05949 L1564.0961,742.05949 L1560.794,758.87732 C1558.9779,768.12712 1557.773,776.42747 1558.1165,777.32254 C1558.6273,778.65373 1559.3409,778.77789 1562.0368,778.00471 C1566.6198,776.69034 1566.8458,776.75723 1566.8458,779.42771 C1566.8458,781.46014 1566.0212,782.02731 1561.0302,783.42771 C1553.3604,785.57975 1546.9843,785.58393 1546.1606,783.43771 L1546.1606,783.43747 Z M1587.2685,782.74463 C1584.4049,780.27948 1584.3458,780.02867 1584.3458,770.33974 C1584.3458,760.91476 1584.523,760.09241 1588.1237,752.8092 C1592.5412,743.87394 1597.6106,739.03948 1605.7599,735.99045 C1619.9547,730.67949 1630.1502,739.70177 1623.8684,752.01511 C1620.3165,758.97747 1610.8424,764.00306 1601.2042,764.03753 C1595.4149,764.05823 1595.0248,764.21026 1594.4029,766.68784 C1593.5669,770.01886 1594.6116,775.04161 1596.6121,777.30949 C1598.8859,779.88719 1602.7961,779.45598 1609.7719,775.85825 C1614.974,773.17536 1616.1277,772.892 1616.8971,774.10825 C1618.6681,776.90779 1617.7898,777.9844 1611.0958,781.21888 C1605.9421,783.70912 1602.6721,784.57268 1597.2685,784.87054 C1590.8517,785.22424 1589.9184,785.02582 1587.2685,782.74463 L1587.2685,782.74463 Z M1609.0494,755.82491 C1615.8067,752.02709 1618.0619,744.55764 1613.3778,741.48853 C1611.5308,740.27827 1610.21,740.10354 1608.1278,740.79398 C1604.6013,741.96338 1599.565,748.5005 1597.4829,754.6111 L1595.876,759.3272 L1600.4664,758.69801 C1602.9912,758.35195 1606.8535,757.05906 1609.0494,755.82491 L1609.0494,755.82491 Z M97.0307495,782.33697 C97.2166395,781.37172 98.2635595,780.41785 99.3572495,780.21726 C102.326589,779.67264 104.92117,777.03914 106.947389,772.51327 C109.63504,766.50997 117.92843,724.76035 118.15266,716.105 C118.3439,708.72279 118.31483,708.63127 115.13428,706.605 C108.92944,702.65198 110.5875,702.05901 127.84576,702.05901 C141.51789,702.05901 143.84576,702.28088 143.84576,703.58401 C143.84576,704.48187 142.59948,705.35827 140.81521,705.71512 C134.43788,706.99059 132.01734,713.28597 125.99646,744.25604 C120.36996,773.19754 120.42504,772.63829 122.95231,775.16556 C124.87268,777.08592 125.91769,777.2503 133.7125,776.85808 C144.19703,776.33052 147.98477,774.56596 151.64684,768.50315 C154.53172,763.72703 154.64655,763.64669 156.71507,764.95708 C157.86314,765.68437 157.82017,766.61092 156.44909,770.69176 C155.54967,773.36875 153.79441,777.35901 152.5485,779.55901 L150.2832,783.55901 L123.48799,783.82549 C98.3971095,784.07502 96.7142695,783.98034 97.0307495,782.33697 L97.0307495,782.33697 Z M602.84576,782.64137 C602.84576,781.86166 604.53326,780.39916 606.59576,779.39137 C609.2089,778.11451 611.01054,776.19478 612.53856,773.05901 C615.40351,767.17964 624.06413,724.59231 624.2229,715.603 C624.34288,708.80988 624.2705,708.59912 621.13428,706.603 C614.42329,702.3317 615.94031,702.05901 646.41315,702.05901 C674.36823,702.05901 674.96715,702.10121 674.35607,704.02652 C674.01262,705.10866 673.17021,709.04616 672.48406,712.77652 C671.42586,718.52958 670.9033,719.60751 669.04114,719.87856 C667.25517,720.13852 666.84576,719.70666 666.84576,717.56282 C666.84576,710.92433 662.90672,709.05901 648.88805,709.05901 L639.22879,709.05901 L636.45538,721.80901 C634.92999,728.82151 633.46349,735.34651 633.19647,736.30901 C632.76042,737.88083 633.60874,738.05751 641.52837,738.04427 C651.48637,738.02757 654.42158,736.96505 657.34381,732.31897 C659.94413,728.18469 663.33615,727.8523 662.54792,731.80901 C662.24661,733.32151 661.20311,738.72151 660.22903,743.80901 C658.83208,751.10513 658.10287,753.05901 656.77687,753.05901 C655.71587,753.05901 654.87845,751.97247 654.50664,750.11339 C654.18195,748.48998 652.89145,746.61582 651.63164,745.93812 C649.2319,744.64721 633.50616,744.07193 632.34144,745.23245 C631.66853,745.90292 628.71589,760.31503 627.42061,769.25146 C626.79798,773.54718 626.95717,774.08591 629.30351,775.62329 C631.36478,776.97388 633.57752,777.21661 640.60616,776.86316 C651.04128,776.33841 654.7491,774.67333 659.04078,768.58468 C660.89762,765.95035 662.65458,764.43215 663.47987,764.74884 C665.42517,765.49533 665.19517,767.28325 662.24618,774.33914 C657.87287,784.80291 660.36447,784.05901 629.69077,784.05901 C607.18834,784.05901 602.84576,783.82969 602.84576,782.64137 L602.84576,782.64137 Z M1110.8458,782.66197 C1110.8458,781.86565 1112.3083,780.71558 1114.0958,780.10624 C1120.4088,777.9542 1122.4953,772.25093 1128.8112,739.88221 C1134.2502,712.0077 1134.117,707.54942 1127.7848,705.53967 C1126.6578,705.18197 1125.9103,704.36499 1126.1237,703.72416 C1126.4036,702.8833 1134.232,702.485 1154.2512,702.29307 C1181.5183,702.03166 1181.98,702.0609 1181.3612,704.01059 C1181.0149,705.10149 1180.1703,709.04617 1179.4841,712.77653 C1178.4259,718.52959 1177.9033,719.60752 1176.0412,719.87857 C1174.1881,720.1483 1173.8458,719.71955 1173.8458,717.12857 C1173.8458,710.81522 1168.9688,708.73203 1155.4098,709.2537 L1147.4739,709.55902 L1144.6938,722.55902 C1143.1648,729.70902 1141.8985,736.12152 1141.8798,736.80902 C1141.8298,738.6549 1157.1104,738.49069 1160.7546,736.60618 C1162.2998,735.80712 1164.1321,733.78212 1164.8263,732.10618 C1165.5996,730.23917 1166.816,729.05902 1167.9671,729.05902 C1170.2948,729.05902 1170.3103,728.3335 1167.6946,741.80902 C1165.8611,751.25543 1165.2172,753.05902 1163.6784,753.05902 C1162.5708,753.05902 1161.8458,752.33676 1161.8458,751.23333 C1161.8458,746.56703 1152.4971,743.0974 1143.8571,744.55711 L1140.0354,745.20278 L1138.007,756.3809 C1134.4299,776.09257 1134.5808,777.87817 1140.0132,780.12836 C1145.9926,782.60509 1142.5408,783.5527 1126.5136,783.83441 C1113.3774,784.06531 1110.8458,783.87591 1110.8458,782.66197 L1110.8458,782.66197 Z M524.23987,761.15047 C519.76697,759.11917 515.84576,752.84116 515.84576,747.71118 C515.84576,739.76721 522.86759,732.66318 530.69228,732.690799 C540.05038,732.72398 545.83527,738.44035 545.842026,747.66114 C545.85102,759.37794 535.10803,766.08607 524.23987,761.15047 Z M1033.22489,761.62244 C1031.50839,760.87538 1028.82369,758.58561 1027.25889,756.53405 C1024.93879,753.49216 1024.42769,751.84591 1024.48889,747.61135 C1024.62169,738.42398 1030.33459,732.77331 1039.49029,732.77331 C1044.02699,732.77331 1045.53789,733.26642 1048.63529,735.75781 C1055.53819,741.31016 1056.61109,750.61916 1051.10269,757.16556 C1046.47289,762.66778 1039.57679,764.38696 1033.22489,761.62244 Z M435.36388,726.07904 C433.39692,723.90557 433.25533,724.13328 444.6197,711.19344 L448.45375,706.82786 L454.14976,708.10257 C457.28256,708.80366 459.84576,709.67938 459.84576,710.04862 C459.84576,710.72325 438.43427,728.05902 437.60103,728.05902 C437.35612,728.05902 436.3494,727.16803 435.36388,726.07904 L435.36388,726.07904 Z M944.1172,726.07804 L941.89864,724.28156 L949.44739,715.67044 C953.5992,710.93432 957.37797,707.05932 957.84466,707.05932 C960.28362,707.05932 968.85569,709.51719 968.61999,710.14893 C968.37179,710.81406 949.7414,725.79623 947.34076,727.26122 C946.78801,727.59853 945.33741,727.0661 944.1172,726.07804 L944.1172,726.07804 Z M1608.8824,726.08704 L1606.4694,724.26691 L1614.2805,715.66316 C1618.5766,710.9311 1622.452,707.05941 1622.8924,707.05941 C1624.8711,707.05941 1633.8409,709.46251 1633.79825,709.98116 C1633.7531,710.52195 1614.8702,725.75824 1612.4164,727.23329 C1611.7999,727.60392 1610.2096,727.08811 1608.8824,726.08704 Z M181.7416,720.95484 C177.67777,716.89102 181.64375,709.05901 187.76542,709.05901 C192.02276,709.05901 194.24576,711.29276 194.24576,715.57068 C194.24576,722.24423 186.40649,725.61974 181.7416,720.95484 L181.7416,720.95484 Z M856.59576,721.66696 C854.13803,719.80128 854.28368,713.62109 856.84576,711.05901 C860.97039,706.93438 868.84576,709.62654 868.84576,715.16117 C868.84576,721.1552 861.2416,725.19366 856.59576,721.66696 L856.59576,721.66696 Z M1520.7416,720.95484 C1516.6068,716.82002 1520.6616,709.05901 1526.9566,709.05901 C1533.2385,709.05901 1535.9299,716.06584 1531.3913,720.60446 C1528.3106,723.68515 1523.6261,723.83927 1520.7416,720.95484 L1520.7416,720.95484 Z M644.64193,692.37055 C643.11429,690.66775 643.4787,690.05654 650.71264,682.18837 L658.40855,673.81773 L664.12715,675.0975 C667.27239,675.80137 669.82309,676.64316 669.795604,676.96814 C669.71428,677.91907 649.63273,693.30196 647.87099,693.76266 C646.98886,693.99335 645.53578,693.36689 644.64193,692.37055 Z" id="path8" fill="#000000" fill-rule="nonzero"></path>
            <path d="M977.09985,636 L979.43295,629.96677 C983.38643,619.06776 987.48672,610.74962 993.40421,601.62399 C999.67279,591.95687 1013.47095,577.71717 1019.21073,574.99162 C1026.26511,571.64189 1035.03479,570.46251 1045.87956,571.40512 C1055.19223,572.21457 1083.80525,576.89332 1095.3513,579.49464 C1104.1388,581.47446 1117.0058,581.66391 1123.0604,579.9026 C1134.7263,576.50895 1141.6376,569.94888 1144.9175,559.15603 C1147.4336,550.87651 1147.4096,543.35173 1144.8515,538.33348 C1141.4151,531.59302 1142.0002,529.83991 1150.3515,521.85409 C1154.4765,517.90964 1157.857,514.26255 1157.8638,513.74946 C1157.8988,511.07962 1152.1837,500.35931 1150.7123,500.33515 C1149.8107,500.32035 1148.0296,499.46272 1146.7542,498.4293 L1144.4353,496.55034 L1149.3934,494.01566 C1156.1634,490.55468 1161.1848,485.17267 1161.1848,481.37742 C1161.1848,479.73782 1159.7584,475.71833 1158.0151,472.44524 C1154.6695,466.16413 1153.7745,460.16258 1155.6581,456.64059 C1156.9027,454.31363 1159.0489,453.33504 1169.5914,450.28768 C1178.4504,447.72697 1181.6533,445.13119 1182.9162,439.48844 C1183.9967,434.66119 1183.4658,431.55858 1180.567,425.75879 C1178.2069,421.03664 1162.8365,397.489 1158.3593,391.73621 C1152.3428,384.00565 1145.0135,370.64983 1142.8458,363.46654 C1140.709,356.38587 1140.6947,355.98453 1142.2538,346.83164 C1145.5497,327.48289 1143.6225,311.44107 1134.2442,280.16219 C1127.2744,256.91586 1125.4027,251.27254 1123.2202,246.92337 C1119.2743,239.06046 1119.8015,237.21975 1127.897,230.59213 C1131.7719,227.41978 1135.3719,224.02105 1135.8969,223.03941 C1138.3415,218.46871 1135.6094,209.661764 1130.9775,207.181178 C1128.0377,205.606754 1126.4012,206.687621 1123.4165,212.175222 C1121.155,216.33302 1120.2685,217.12036 1117.8482,217.12036 C1113.9086,217.12036 1113.2178,215.46782 1115.7338,212.062427 C1118.6672,208.092163 1118.4349,207.45552 1113.8269,206.83705 C1110.3777,206.374103 1108.5545,205.026248 1101.0769,197.411225 C1091.05173,187.201812 1084.31705,182.497024 1070.89178,176.324183 C1064.7373,173.494425 1062.59381,172.155056 1064.8517,172.550088 C1066.7767,172.886876 1073.58288,173.425036 1079.97666,173.745997 C1098.5295,174.677335 1103.0392,172.22621 1107.3629,158.860904 C1110.2985,149.786466 1111.7065,145.589683 1104.9703,139.254037 L1080.24593,116 L1635,116 L1635,636 L977.09985,636 Z" id="path10" fill="#E2011C" fill-rule="nonzero"></path>
            <path d="M504.03269,636 C500.00654,635.57741 496.51557,635.39378 496.27496,635.15302 C495.8516,634.72938 500.39887,631.80615 521.2242,619.11429 C527.90394,615.04337 530.65209,612.86126 529.72417,612.36507 C528.96997,611.96178 523.13932,611.32248 516.76715,610.94439 C507.3003,610.38266 504.55697,610.54385 501.76719,611.82572 C499.88939,612.68854 492.39543,614.95793 485.11396,616.86881 C467.05435,621.60818 460.97706,624.86193 455.17827,632.89622 L453.01156,636 L97,636 L97,116 L803.33891,116 L789.65306,124.933712 C782.11857,128.674393 773.36262,133.869739 770.19536,136.478925 C759.45156,145.329709 744.98415,165.464275 741.37161,176.59347 C740.04382,180.683989 738.83839,182.217265 734.76433,184.997789 C728.54747,189.240744 721.10053,197.332133 714.93428,206.543895 C706.56137,219.05216 690.6022,247.2415 687.46645,255.06146 C682.60192,267.19267 683.04383,276.43019 690.22301,312.68376 C693.38363,328.64435 696.80358,344.85511 697.82289,348.70766 C698.8422,352.56022 699.95783,359.08955 700.30205,363.21729 C700.91667,370.58724 701.39574,372.18278 705.71032,381.22924 C706.89152,383.70588 707.8567,386.51644 707.85517,387.47491 C707.85317,388.43339 708.75239,389.78002 709.85239,390.46744 C710.99321,391.18038 711.85238,392.80102 711.85238,394.24003 C711.85238,395.97355 714.12991,399.26355 719.13247,404.75646 C730.57715,417.32297 738.8523,429.10319 738.8523,432.82893 C738.8523,435.88883 734.36375,436.67963 727.13198,434.89382 C718.67956,432.80659 711.76535,428.29834 701.10241,417.92185 C696.56492,413.50626 692.85244,410.53757 692.85244,411.32478 C692.85244,412.11198 695.96349,416.21737 699.76588,420.44786 C707.32814,428.86155 708.51424,431.15718 706.87893,434.21482 C705.44834,436.8897 701.9676,437.66862 697.25888,436.36761 C691.82504,434.86626 688.64102,436.95906 689.53719,441.44294 C690.08698,444.19373 689.93614,444.51734 688.38226,443.92065 C685.31046,442.74111 678.58845,441.38997 672.54387,440.73712 C666.99126,440.1374 666.5803,439.89391 663.21901,435.2121 C660.6718,431.66422 658.68991,430.03005 656.02765,429.28243 C646.10498,426.49597 621.42413,422.20085 604.85269,420.37662 C575.72439,417.1701 568.70837,416.91836 554.7534,418.57895 C544.03687,419.85418 541.12277,420.60257 535.25346,423.58687 C524.86333,428.86983 506.85297,445.42371 506.85297,449.69065 C506.85297,451.69244 510.81977,450.98622 515.35294,448.17739 C529.10969,439.65346 576.23204,427.62324 599.3527,426.73244 C610.80983,426.29102 610.18873,426.83979 596.44213,429.30407 C592.64132,429.98541 583.64135,432.29118 576.44219,434.428 C569.24303,436.56482 556.82782,439.85748 548.85285,441.74502 C540.87787,443.63256 531.8779,446.06595 528.8529,447.15254 L523.35292,449.12817 L531.8529,449.22107 C575.16332,449.69435 624.53401,463.44415 644.62627,480.62858 C653.27146,488.02259 656.43739,488.91994 669.15411,487.58075 C686.58182,485.74545 709.13931,477.4252 719.03177,469.18355 C723.32465,465.60705 726.85604,464.1851 726.84982,466.03554 C726.83882,469.30405 721.15207,486.87503 718.69436,491.23429 C715.95446,496.09409 715.79885,496.79364 717.22554,497.83755 C718.10319,498.47974 718.56936,499.25725 718.26146,499.56535 C717.95356,499.87346 718.63555,500.42215 719.777,500.78467 C723.05887,501.82699 722.233,502.83429 716.9952,504.17759 C711.88896,505.48716 707.85239,507.78005 707.85239,509.37099 C707.85239,509.89015 708.55395,510.31491 709.41141,510.31491 C711.97977,510.31491 710.06314,512.1109 706.70779,512.84835 C704.41041,513.35328 703.95134,513.7659 704.96926,514.41102 C705.96713,515.04342 706.00421,515.29185 705.1024,515.30291 C704.4149,515.31091 703.8524,516.33406 703.8524,517.57562 C703.8524,519.12143 702.90674,520.25188 700.85241,521.16182 C695.84556,523.37954 697.24912,524.57724 704.1024,523.93512 C707.53989,523.61304 709.67739,523.61624 708.85239,523.94212 C708.02739,524.26812 702.40241,526.81438 696.35243,529.60049 C690.30244,532.38659 682.42747,535.69393 678.85248,536.95013 C674.80558,538.37216 672.22078,539.86978 672.0035,540.91844 C671.65447,542.60299 673.5334,542.54708 678.25958,540.73227 C679.13566,540.39586 679.84151,540.50651 679.82812,540.97817 C679.81472,541.44983 669.3995,547.46446 656.68317,554.34402 C643.96685,561.22359 632.06783,568.31579 630.24093,570.10448 C628.41403,571.89317 626.07653,573.35664 625.04648,573.35664 C624.01,573.35664 622.65542,574.49482 622.01316,575.90538 C620.0708,580.17122 620.47263,580.69008 625.10263,579.89469 C631.98139,578.71297 635.13406,578.77804 635.59076,580.11112 C635.83782,580.83231 635.18896,581.36195 634.05838,581.36195 C632.9799,581.36195 631.55947,582.01067 630.90188,582.80355 C630.24428,583.59642 628.50777,584.38445 627.04295,584.55471 C625.33866,584.7528 623.65463,586.0111 622.36615,588.04918 C621.25872,589.80088 619.45265,591.46543 618.35265,591.74818 C617.25265,592.03093 618.82765,592.07809 621.85264,591.85297 C666.83239,588.50559 675.21247,586.83994 693.35243,577.64154 C708.82795,569.79422 724.89283,558.1286 736.32101,546.43962 C739.60378,543.08193 742.64127,540.33473 743.07099,540.33473 C744.6249,540.33473 743.7819,545.94765 741.48748,550.87816 C737.51656,559.41131 729.18486,567.27171 712.05929,578.64174 C703.42052,584.3772 694.10243,589.77884 691.35244,590.64539 C682.76034,593.35283 668.88955,596.23688 654.34819,598.33943 C606.97502,605.18916 588.84606,610.38465 570.88826,622.25777 C567.88279,624.2449 564.72786,625.75275 563.8773,625.60857 C563.02675,625.46437 560.76079,626.68906 558.84184,628.3301 C553.44464,632.94563 557.35486,632.16485 568.54881,626.39183 C580.0199,620.47588 585.39782,619.5436 576.35277,625.03899 C565.26197,631.77736 556.80757,636 548.53049,636 L504.03269,636 Z M445.18641,577.99391 C446.98438,577.24217 452.9324,573.9098 458.40426,570.58863 C463.87611,567.26747 470.37807,563.6314 472.85306,562.50848 C475.32806,561.38556 482.30304,558.23281 488.35302,555.50238 C501.03363,549.77947 519.64285,544.37954 520.71305,546.11232 C521.089,546.72101 523.86175,547.39137 526.87474,547.60202 C531.09186,547.89685 531.83497,548.16792 530.1029,548.7796 C528.8654,549.21663 527.85291,549.97198 527.85291,550.45816 C527.85291,552.26845 537.21153,551.72539 541.15176,549.68645 C542.6965,548.8871 546.18618,547.9693 548.90661,547.64689 C552.289,547.24603 553.85283,546.60239 553.85283,545.61112 C553.85283,544.47971 554.71174,544.30677 557.76614,544.82315 C561.96904,545.53369 571.00882,543.82368 595.35271,537.71311 C611.8392,533.57482 624.32573,529.41004 635.29257,524.39151 L643.23251,520.75812 L635.29257,515.6698 C615.94028,503.26783 596.50768,495.65216 553.85283,483.75342 C546.42785,481.6822 539.90287,479.54015 539.35287,478.99332 C538.68959,478.33386 539.0263,478.24074 540.35287,478.71678 C544.61174,480.24505 547.85285,480.53798 547.85285,479.39463 C547.85285,477.91161 544.63233,476.71608 538.30506,475.85025 C532.51809,475.05836 528.78259,473.3308 532.80289,473.30565 C539.02516,473.26675 528.32849,469.32122 516.35294,467.238 C507.48713,465.69574 506.97645,465.36566 510.67952,463.57102 C513.90665,462.00703 517.37767,456.08873 516.46446,453.70735 C515.68925,451.68585 514.72236,451.89435 509.92706,455.11707 C500.6818,461.33039 492.20176,471.50517 487.43619,482.10275 C484.71772,488.14803 485.65897,488.70269 499.65106,489.30095 C511.10862,489.79084 511.29031,489.83495 508.35296,491.41327 C506.70297,492.29987 503.39324,493.32592 500.99801,493.6934 C492.86296,494.94144 488.34429,498.80392 492.37716,501.06233 C493.57481,501.73301 493.09956,502.29844 490.15872,503.70177 C486.86233,505.27475 486.63052,505.60774 488.21436,506.4947 C489.2034,507.04857 492.07921,507.33725 494.60505,507.13622 C498.1154,506.85685 499.71841,507.23502 501.40829,508.74126 L503.61911,510.7118 L499.1828,513.52709 C496.74284,515.0755 493.98296,517.78612 493.04976,519.55068 C492.11655,521.31524 488.76552,525.51346 485.60303,528.88005 C482.44054,532.24664 479.85304,535.72878 479.85304,536.61813 C479.85304,537.50748 475.24056,541.92723 469.60307,546.43978 C454.44223,558.57537 447.85314,565.24549 447.85314,568.45716 C447.85314,570.15657 446.99645,571.68692 445.49345,572.67237 C440.76047,575.77561 438.29038,579.3607 440.88528,579.3607 C441.45293,579.3607 443.38845,578.74564 445.18641,577.99391 L445.18641,577.99391 Z M562.16541,566.30144 C565.91232,565.80046 570.25115,564.63797 571.80724,563.71815 L574.6365,562.04575 L569.81105,559.63953 L564.98559,557.2333 L560.16921,559.18563 C557.5202,560.25941 553.852,561.7062 552.01767,562.40072 C544.63993,565.19409 543.67718,568.94905 550.60284,567.91887 C553.21533,567.53027 558.41849,566.80242 562.16541,566.30144 Z M392.85329,520.79772 C415.13803,497.48179 430.8638,483.64985 450.82485,469.80762 C457.60823,465.1036 462.38671,462.38395 462.62286,463.09286 C463.27082,465.03803 466.17655,464.46538 470.90729,461.46019 C476.34342,458.00689 479.06299,454.51192 485.8487,442.25866 C492.88847,429.54663 495.54842,426.37006 505.71053,418.53926 C510.46386,414.8764 517.46341,409.40779 521.2651,406.38677 C526.74338,402.03345 528.0593,401.34534 527.6087,403.0696 C527.25967,404.40516 527.50064,405.24517 528.23278,405.24517 C530.50475,405.24517 541.20914,400.67334 541.58599,399.54203 C542.1751,397.77352 531.29937,395.94733 523.25468,396.46396 C517.07864,396.86058 514.89123,397.57757 507.22774,401.71731 C489.21935,411.44527 476.21062,421.9383 451.3703,446.77273 C433.49411,464.64469 419.41188,476.62789 412.29419,480.02435 C409.97618,481.13046 408.23046,483.44907 405.4185,489.1564 C399.95324,500.24903 390.19568,516.16829 380.9332,529.10363 C372.17931,541.3287 370.30041,545.55773 377.10334,537.72387 C379.44083,535.03215 386.52831,527.41538 392.85329,520.79772 L392.85329,520.79772 Z M615.85266,630.27213 C642.61647,624.70585 645.57089,624.29139 664.35252,623.46845 C685.44218,622.54437 688.12985,621.99606 700.81692,616.0294 C704.88176,614.11773 706.47594,613.7701 707.04083,614.67221 C708.02412,616.24247 714.90512,612.49241 728.35233,603.0577 C733.85232,599.19886 741.62992,594.26748 745.63588,592.09909 C751.67248,588.83154 753.51928,588.26916 756.423,588.81427 C759.52337,589.39629 760.44141,589.01847 764.40061,585.53113 C775.37438,575.86518 784.74434,571.39691 794.10215,571.367126 C796.88469,571.35827 797.85213,571.77025 797.85213,572.96345 C797.85213,573.98171 798.40229,574.36024 799.35213,573.99551 C802.14006,572.92497 800.87714,574.14939 793.7076,579.46793 C785.40664,585.62579 786.22261,587.47482 794.66163,581.62984 C802.83163,575.97118 802.85212,575.96273 802.85212,578.25118 C802.85212,579.5551 799.77682,582.82905 794.10215,587.56636 C781.19119,598.3446 772.04908,607.2585 758.13114,622.63942 L745.68072,636 L587.35274,636 L615.85266,630.27213 L615.85266,630.27213 Z M616.10265,426.57 C617.06515,426.31831 618.64015,426.31831 619.60264,426.57 C620.56514,426.8217 619.77764,427.02763 617.85265,427.02763 C615.92766,427.02763 615.14016,426.8217 616.10265,426.57 Z" id="path12" fill="#003189" fill-rule="nonzero"></path>
            <polygon id="Rectangle" fill="#000000" transform="translate(358.717522, 318.460802) rotate(-40.000000) translate(-358.717522, -318.460802) " points="80.1031719 243.34027 584.066193 243.256982 763.315038 393.664622 -45.8799935 393.48116"></polygon>
            <path d="M1082.58435,388.51618 C1078.21706,387.85562 1080.47076,386.23256 1085.75534,386.23256 C1091.05683,386.23256 1093.85132,384.19604 1093.85132,380.33251 C1093.85132,378.51599 1093.45632,378.21783 1091.76242,378.75581 C1090.30113,379.21993 1089.26073,378.82941 1088.29943,377.45607 C1087.40164,376.17349 1085.23084,375.26798 1082.03765,374.8441 C1076.33367,374.08695 1067.09619,368.57606 1068.75259,366.91855 C1069.31819,366.35255 1072.25488,365.68416 1075.27847,365.43325 C1080.48936,365.00083 1080.83406,364.80079 1081.89135,361.59506 C1082.68265,359.19561 1083.78305,358.0304 1085.67904,357.58429 C1087.14874,357.23846 1089.47633,355.91835 1090.85133,354.65072 C1092.22632,353.38307 1096.7263,350.14294 1100.8513,347.45043 C1107.7862,342.92378 1112.0826,338.09856 1110.5466,336.5616 C1108.9284,334.94228 1093.91292,333.18007 1086.85134,333.78073 C1078.64776,334.47851 1064.513,337.46034 1058.60142,339.74024 C1052.53344,342.08045 1054.30723,340.04249 1062.64431,335.0953 C1073.89888,328.4169 1095.564,322.19007 1107.5458,322.19007 C1112.1942,322.19007 1127.7485,325.8661 1129.6012,327.40252 C1133.2304,330.41207 1129.2719,340.97685 1122.5403,346.24768 L1119.7292,348.44866 L1122.0403,350.91467 L1124.3513,353.38066 L1121.9905,355.29698 C1120.6921,356.35096 1118.9135,357.21331 1118.0381,357.21331 C1117.1627,357.21331 1114.9953,358.62086 1113.2215,360.34119 C1110.4915,362.98894 1110.1389,363.84383 1110.924,365.91037 C1111.532,367.51056 1111.4725,369.06039 1110.7514,370.40878 C1110.0778,371.66816 1109.9091,374.5316 1110.3162,377.7925 C1111.1474,384.44951 1109.9479,386.83436 1105.0895,388.18452 C1101.4869,389.18569 1088.29613,389.38009 1082.58435,388.51618 L1082.58435,388.51618 Z" id="path14" fill="#7F7F7F" fill-rule="nonzero"></path>
        </g>
    </g>
</svg>