<?xml version="1.0" encoding="UTF-8"?>
<svg width="201px" height="197px" viewBox="0 0 201 197" version="1.1" xmlns="http://www.w3.org/2000/svg" xmlns:xlink="http://www.w3.org/1999/xlink">
    <!-- Generator: Sketch 53.2 (72643) - https://sketchapp.com -->
    <title>g17713</title>
    <desc>Created with Sketch.</desc>
    <g id="Page-1" stroke="none" stroke-width="1" fill="none" fill-rule="evenodd" stroke-linejoin="round">
        <g id="EIG3" transform="translate(-439.000000, -1410.000000)">
            <g id="layer1" transform="translate(0.000000, 0.952700)">
                <g id="g17713" transform="translate(443.472630, 1413.003575)">
                    <g id="g4774" transform="translate(97.347975, 170.221624) scale(-1, 1) rotate(94.382943) translate(-97.347975, -170.221624) translate(78.396867, 119.768123)" stroke="#E9222E" stroke-linecap="round" stroke-width="8.00000753">
                        <path d="M28.0023592,24.8656668 L0.363341064,99.0537934" id="path4776"></path>
                        <path d="M37.6033848,47.8708978 L0.984974595,100.523771" id="path4778"></path>
                        <path d="M12.681874,0.396862789 L0.363341064,99.0537934" id="path4780"></path>
                    </g>
                    <g id="g4769" transform="translate(172.825843, 102.849288) rotate(10.590281) translate(-172.825843, -102.849288) translate(153.908184, 52.306600)" stroke="#E9222E" stroke-linecap="round" stroke-width="8.00000742">
                        <path d="M27.9529335,24.9096218 L0.362699747,99.2288908" id="path4744"></path>
                        <path d="M37.5370128,47.9555192 L0.98323606,100.701467" id="path4754"></path>
                        <path d="M12.6594898,0.397564323 L0.362699747,99.2288908" id="path4756"></path>
                    </g>
                    <polygon id="path4752" stroke="#20459A" stroke-width="8" fill="#FFFFFF" stroke-linecap="round" points="0.072 0.789192 81.49224 100.19217 91.67005 148.33067 146.17107 148.63024 151.0008 93.67348 98.5119 83.18936"></polygon>
                    <circle id="circle4742" stroke="#20459A" stroke-width="8.00000003" fill="#FFFFFF" fill-rule="nonzero" stroke-linecap="square" transform="translate(116.191348, 117.000081) rotate(2.880912) translate(-116.191348, -117.000081) " cx="116.191348" cy="117.000081" r="16.0593611"></circle>
                </g>
            </g>
        </g>
    </g>
</svg>