<?xml version="1.0" encoding="UTF-8"?>
<svg width="193px" height="176px" viewBox="0 0 193 176" version="1.1" xmlns="http://www.w3.org/2000/svg" xmlns:xlink="http://www.w3.org/1999/xlink">
    <!-- Generator: Sketch 53.2 (72643) - https://sketchapp.com -->
    <title>g17769</title>
    <desc>Created with Sketch.</desc>
    <g id="Page-1" stroke="none" stroke-width="1" fill="none" fill-rule="evenodd" stroke-linejoin="round">
        <g id="EIG3" transform="translate(-108.000000, -2113.000000)">
            <g id="g17769" transform="translate(112.243958, 2115.770431)">
                <circle id="circle17614" stroke="#20459A" stroke-width="8" fill="#FFFFFF" fill-rule="nonzero" stroke-linecap="square" cx="92.52029" cy="84.8324" r="16.059361"></circle>
                <g id="g17071" transform="translate(0.294625, 0.359848)" stroke="#E9222E" stroke-linecap="round" stroke-width="7.99999991">
                    <polygon id="path17073" points="136.722431 72.4959917 157.956801 66.7806306 159.003027 66.6271668 184.024333 76.1481352 184.024333 92.7969644 159.003027 102.317929 157.956801 102.164466 136.722431 96.4491005 124.873685 116.917172 140.45371 132.40013 141.110078 133.227044 145.35337 159.599032 130.896632 167.923446 110.118607 151.072433 109.72876 150.092045 104.074405 128.893744 80.3769226 128.893744 74.7225668 150.092045 74.3327203 151.072433 53.5546953 167.923446 39.0979571 159.599032 43.3412387 133.227044 43.9976173 132.40013 59.5776428 116.917172 47.7288963 96.4491005 26.4945151 102.164466 25.4483007 102.317929 0.426994124 92.7969644 0.426994124 76.1481352 25.4483007 66.6271668 26.4945151 66.7806306 47.7288963 72.4959917 59.5776428 52.0279177 43.9976173 36.5449644 43.3412387 35.7180464 39.0979571 9.34606215 53.5546953 1.02164916 74.3327203 17.872666 74.7225668 18.8530478 80.3769226 40.0513494 104.074405 40.0513494 109.72876 18.8530478 110.118607 17.872666 130.896632 1.02164916 145.35337 9.34606215 141.110078 35.7180464 140.45371 36.5449644 124.873685 52.0279177"></polygon>
                </g>
            </g>
        </g>
    </g>
</svg>