<?xml version="1.0" encoding="UTF-8"?>
<svg width="240px" height="240px" viewBox="0 0 240 240" version="1.1" xmlns="http://www.w3.org/2000/svg" xmlns:xlink="http://www.w3.org/1999/xlink">
    <!-- Generator: Sketch 53.2 (72643) - https://sketchapp.com -->
    <title>EIGNode</title>
    <desc>Created with Sketch.</desc>
    <g id="Page-1" stroke="none" stroke-width="1" fill="none" fill-rule="evenodd">
        <g id="EIG3" transform="translate(-459.000000, -680.000000)">
            <g id="layer1">
                <g id="EIGNode" transform="translate(459.000000, 680.000000)">
                    <rect id="rect4504" fill="#FDFDFD" fill-rule="nonzero" transform="translate(120.000000, 120.000000) scale(-1, 1) rotate(-180.000000) translate(-120.000000, -120.000000) " x="0" y="0" width="240" height="240"></rect>
                    <polygon id="path4327" stroke="#1C419B" stroke-width="8" stroke-linecap="round" points="44.6165711 76.94829 120.21485 32.78208 195.39451 76.18708 195.39451 163.05516 119.6136 207.20727 44.6165711 163.05516"></polygon>
                    <path d="M195.06,164.06 L45.06,76.06" id="path4329" stroke="#EB1C24" stroke-width="8" stroke-linecap="round"></path>
                    <path d="M195.06,76.06 L44.6165711,164.06" id="path4329" stroke="#EB1C24" stroke-width="8" stroke-linecap="round"></path>
                    <path d="M120.06,207.20727 C120.06,207.20727 119.961416,149.15818 119.764247,33.06" id="path4329" stroke="#EB1C24" stroke-width="8" stroke-linecap="round"></path>
                    <circle id="path4303" stroke="#EB1C24" stroke-width="8" fill="#FFFFFF" stroke-linecap="square" transform="translate(120.060000, 120.060000) scale(-1, 1) rotate(-180.000000) translate(-120.060000, -120.060000) " cx="120.06" cy="120.06" r="16.06"></circle>
                    <circle id="circle4325" stroke="#1C419B" stroke-width="8" fill="#FFFFFF" stroke-linecap="square" transform="translate(120.060000, 207.060000) scale(-1, 1) rotate(-180.000000) translate(-120.060000, -207.060000) " cx="120.06" cy="207.06" r="16.06"></circle>
                    <circle id="circle4325" stroke="#1C419B" stroke-width="8" fill="#FFFFFF" stroke-linecap="square" transform="translate(195.060000, 164.060000) scale(-1, 1) rotate(-180.000000) translate(-195.060000, -164.060000) " cx="195.06" cy="164.06" r="16.06"></circle>
                    <circle id="circle4325" stroke="#1C419B" stroke-width="8" fill="#FFFFFF" stroke-linecap="square" transform="translate(195.060000, 76.060000) scale(-1, 1) rotate(-180.000000) translate(-195.060000, -76.060000) " cx="195.06" cy="76.06" r="16.06"></circle>
                    <circle id="circle4325" stroke="#1C419B" stroke-width="8" fill="#FFFFFF" stroke-linecap="square" transform="translate(120.060000, 33.060000) scale(-1, 1) rotate(-180.000000) translate(-120.060000, -33.060000) " cx="120.06" cy="33.06" r="16.06"></circle>
                    <circle id="circle4325" stroke="#1C419B" stroke-width="8" fill="#FFFFFF" stroke-linecap="square" transform="translate(45.060000, 76.060000) scale(-1, 1) rotate(-180.000000) translate(-45.060000, -76.060000) " cx="45.06" cy="76.06" r="16.06"></circle>
                    <circle id="circle4325" stroke="#1C419B" stroke-width="8" fill="#FFFFFF" stroke-linecap="square" transform="translate(45.060000, 164.060000) scale(-1, 1) rotate(-180.000000) translate(-45.060000, -164.060000) " cx="45.06" cy="164.06" r="16.06"></circle>
                </g>
            </g>
        </g>
    </g>
</svg>