<?xml version="1.0" encoding="UTF-8"?>
<svg width="184px" height="171px" viewBox="0 0 184 171" version="1.1" xmlns="http://www.w3.org/2000/svg" xmlns:xlink="http://www.w3.org/1999/xlink">
    <!-- Generator: Sketch 53.2 (72643) - https://sketchapp.com -->
    <title>g17626</title>
    <desc>Created with Sketch.</desc>
    <g id="Page-1" stroke="none" stroke-width="1" fill="none" fill-rule="evenodd" stroke-linejoin="round">
        <g id="EIG3" transform="translate(-447.000000, -383.000000)">
            <g id="layer1" transform="translate(0.000000, 0.952700)">
                <g id="g17626" transform="translate(451.096536, 379.004746)">
                    <circle id="circle4301" stroke="#20459A" stroke-width="7.99999999" fill="#FFFFFF" fill-rule="nonzero" stroke-linecap="square" transform="translate(36.440266, 153.546711) rotate(-45.000000) translate(-36.440266, -153.546711) " cx="36.4402662" cy="153.546711" r="16.059361"></circle>
                    <circle id="circle4305" stroke="#20459A" stroke-width="7.99999999" fill="#FFFFFF" fill-rule="nonzero" stroke-linecap="square" transform="translate(131.740752, 153.949535) rotate(-45.000000) translate(-131.740752, -153.949535) " cx="131.740752" cy="153.949535" r="16.059361"></circle>
                    <polyline id="path4303" stroke="#20459A" stroke-width="8" points="18.53972 152.19477 0.86205 152.19477 0.86205 94.91912 28.43921 67.34195 93.49304 67.34195 169.69217 111.33554 169.69217 152.90187 145.81894 152.90187"></polyline>
                    <polyline id="path4299" stroke="#E9222E" stroke-width="8" stroke-linecap="round" points="160.2065 24.17542 127.67162 55.11349 163.76344 55.22043 127.98727 88.36066"></polyline>
                    <circle id="circle4303" stroke="#E9222E" stroke-width="7.99999999" fill="#FFFFFF" fill-rule="nonzero" stroke-linecap="square" transform="translate(159.571103, 23.144681) rotate(-45.000000) translate(-159.571103, -23.144681) " cx="159.571103" cy="23.1446807" r="16.059361"></circle>
                    <circle id="circle4307" stroke="#E9222E" stroke-width="7.99999999" fill="#FFFFFF" fill-rule="nonzero" stroke-linecap="square" transform="translate(131.864538, 89.390121) rotate(-45.000000) translate(-131.864538, -89.390121) " cx="131.864538" cy="89.3901208" r="16.059361"></circle>
                </g>
            </g>
        </g>
    </g>
</svg>