<?xml version="1.0" encoding="UTF-8"?>
<svg width="240px" height="240px" viewBox="0 0 240 240" version="1.1" xmlns="http://www.w3.org/2000/svg" xmlns:xlink="http://www.w3.org/1999/xlink">
    <!-- Generator: Sketch 55.2 (78181) - https://sketchapp.com -->
    <title>07</title>
    <desc>Created with Sketch.</desc>
    <g id="Page-1" stroke="none" stroke-width="1" fill="none" fill-rule="evenodd">
        <g id="Artboard" transform="translate(-694.000000, -413.000000)">
            <g id="07" transform="translate(694.000000, 413.000000)">
                <rect id="Rectangle" fill="#FFFFFF" x="0" y="0" width="240" height="240"></rect>
                <polygon id="path4327" stroke="#1C419B" stroke-width="8" stroke-linecap="round" points="44 78.75 120 36 196 78.75 196 162.870968 120 207 44 162.870968"></polygon>
                <polygon id="path4327" stroke="#E9222E" stroke-width="8" stroke-linecap="round" points="63 89.25 120.5 57 178 89.25 178 152.709677 120.5 186 63 152.709677"></polygon>
                <polyline id="path4329" stroke="#EB1C24" stroke-width="8" stroke-linecap="round" transform="translate(135.837000, 147.398209) scale(1, -1) translate(-135.837000, -147.398209) " points="126 166.796418 145.673999 152.796418 145.673999 128"></polyline>
                <polyline id="path4329" stroke="#EB1C24" stroke-width="8" stroke-linecap="round" transform="translate(103.837000, 147.398209) scale(-1, -1) translate(-103.837000, -147.398209) " points="94 166.796418 113.673999 152.796418 113.673999 128"></polyline>
                <circle id="circle4305" stroke="#E9222E" stroke-width="7.99999999" fill="#FFFFFF" fill-rule="nonzero" stroke-linecap="square" stroke-linejoin="round" cx="120.059361" cy="114.059361" r="16.059361"></circle>
            </g>
        </g>
    </g>
</svg>