<?xml version="1.0" encoding="UTF-8"?>
<svg width="240px" height="240px" viewBox="0 0 240 240" version="1.1" xmlns="http://www.w3.org/2000/svg" xmlns:xlink="http://www.w3.org/1999/xlink">
    <!-- Generator: Sketch 55.2 (78181) - https://sketchapp.com -->
    <title>13</title>
    <desc>Created with Sketch.</desc>
    <g id="Page-1" stroke="none" stroke-width="1" fill="none" fill-rule="evenodd">
        <g id="Artboard" transform="translate(-138.000000, -961.000000)">
            <g id="13" transform="translate(138.000000, 961.000000)">
                <polygon id="Rectangle" fill="#FFFFFF" points="0 0 240 0 240 41.5476008 240 240 0 240"></polygon>
                <polygon id="path4299" stroke="#E9222E" stroke-width="8" stroke-linecap="round" stroke-linejoin="round" points="133 153 107 153 107 201 133 201"></polygon>
                <circle id="path4303" stroke="#1C419B" stroke-width="8" fill="#FFFFFF" stroke-linecap="square" transform="translate(119.060000, 114.060000) scale(-1, 1) rotate(-180.000000) translate(-119.060000, -114.060000) " cx="119.06" cy="114.06" r="16.06"></circle>
                <circle id="path4303" stroke="#EB1C24" stroke-width="8" fill="#FFFFFF" stroke-linecap="square" transform="translate(187.060000, 55.060000) scale(-1, 1) rotate(-180.000000) translate(-187.060000, -55.060000) " cx="187.06" cy="55.06" r="16.06"></circle>
                <polygon id="path4327" stroke="#1C419B" stroke-width="8" stroke-linecap="round" transform="translate(119.000000, 138.000000) scale(1, -1) translate(-119.000000, -138.000000) " points="65.7605634 75 119 75 172.239437 75 172.239437 167.900215 119 201 65.7605634 167.900215"></polygon>
                <polyline id="path4327" stroke="#EB1C24" stroke-width="8" stroke-linecap="round" transform="translate(119.515152, 81.000000) scale(1, -1) translate(-119.515152, -81.000000) " points="203.030303 55 119.515152 107 36 55"></polyline>
            </g>
        </g>
    </g>
</svg>