<?xml version="1.0" encoding="UTF-8"?>
<svg width="240px" height="240px" viewBox="0 0 240 240" version="1.1" xmlns="http://www.w3.org/2000/svg" xmlns:xlink="http://www.w3.org/1999/xlink">
    <!-- Generator: Sketch 55.2 (78181) - https://sketchapp.com -->
    <title>15</title>
    <desc>Created with Sketch.</desc>
    <g id="Page-1" stroke="none" stroke-width="1" fill="none" fill-rule="evenodd">
        <g id="Artboard" transform="translate(-695.000000, -961.000000)">
            <g id="15" transform="translate(695.000000, 961.000000)">
                <rect id="Rectangle" fill="#FFFFFF" x="0" y="0" width="240" height="240"></rect>
                <polygon id="path4327" stroke="#1C419B" stroke-width="8" stroke-linecap="round" points="112 43.059361 128 43.059361 128 75.3181818 153 75.3181818 153 91 128 91 128 164.515757 153 159.936136 180.042062 150.05594 171.192345 139.7578 208.900921 132.72995 202.693655 168.5156 192.040806 159.936136 153 183.978515 128 192.170625 120 200.801182 112 192.170625 85 183.978515 49.6342617 159.936136 38.0687168 168.5156 33.5249955 132.72995 71.0086278 139.7578 59.9112396 150.05594 85 159.936136 112 164.515757 112 91 85 91 85 75.3181818 112 75.3181818"></polygon>
                <circle id="circle4942" stroke="#E9222E" stroke-width="8" fill="#FFFFFF" stroke-linecap="square" stroke-linejoin="round" cx="120.059361" cy="43.059361" r="16.059361"></circle>
            </g>
        </g>
    </g>
</svg>