<?xml version="1.0" encoding="UTF-8"?>
<svg width="240px" height="240px" viewBox="0 0 240 240" version="1.1" xmlns="http://www.w3.org/2000/svg" xmlns:xlink="http://www.w3.org/1999/xlink">
    <!-- Generator: Sketch 55.2 (78181) - https://sketchapp.com -->
    <title>16</title>
    <desc>Created with Sketch.</desc>
    <g id="Page-1" stroke="none" stroke-width="1" fill="none" fill-rule="evenodd">
        <g id="Artboard" transform="translate(-972.000000, -961.000000)">
            <g id="16" transform="translate(972.000000, 961.000000)">
                <polygon id="Rectangle" fill="#FFFFFF" points="0 0 240 0 240 41.5476008 240 240 0 240"></polygon>
                <polyline id="path4327" stroke="#1C419B" stroke-width="8" stroke-linecap="round" transform="translate(119.152655, 132.687900) scale(1, -1) translate(-119.152655, -132.687900) " points="169.30531 116.888914 165.281871 115 146.385863 122.394216 132.105505 117.865934 120.57318 122.394216 120.57318 132.6879 129.504083 137.157429 127.705923 146.012116 113.273132 150.3758 101.532539 146.012116 93.0796838 134.32786 87.4401496 117.865934 69 122.394216"></polyline>
                <polyline id="path4327" stroke="#1C419B" stroke-width="8" stroke-linecap="round" transform="translate(114.615156, 161.697108) scale(1, -1) translate(-114.615156, -161.697108) " points="175.849961 163.275139 164.008388 158 145.678273 165.394216 124.041904 158 103.033026 165.394216 85.1516125 158 67.5605802 165.394216 53.3803518 158"></polyline>
                <polygon id="path4327" stroke="#E9222E" stroke-width="8" stroke-linecap="round" transform="translate(116.000000, 120.000000) scale(1, -1) translate(-116.000000, -120.000000) " points="43 63 189 63 115.45134 177"></polygon>
                <polygon id="path4327" stroke="#1C419B" stroke-width="8" stroke-linecap="round" transform="translate(116.000000, 113.000000) scale(1, -1) translate(-116.000000, -113.000000) " points="14.8245614 34 217.175439 34 115.239577 192"></polygon>
            </g>
        </g>
    </g>
</svg>