<?xml version="1.0" encoding="UTF-8"?>
<svg width="218px" height="189px" viewBox="0 0 218 189" version="1.1" xmlns="http://www.w3.org/2000/svg" xmlns:xlink="http://www.w3.org/1999/xlink">
    <!-- Generator: Sketch 53.2 (72643) - https://sketchapp.com -->
    <title>Group 3</title>
    <desc>Created with Sketch.</desc>
    <g id="Page-1" stroke="none" stroke-width="1" fill="none" fill-rule="evenodd" stroke-linejoin="round">
        <g id="EIG2[T]" transform="translate(-430.000000, -720.000000)">
            <g id="Group-3" transform="translate(427.711854, 717.223477)">
                <polyline id="path4644" stroke="#20459A" stroke-width="8" stroke-linecap="round" points="39.0943559 116.811933 54.9712659 116.811933 66.5822559 77.6248532 78.1932459 167.610003 97.0611059 38.4377532 112.966646 155.078413"></polyline>
                <polyline id="path4638" stroke="#E9222E" stroke-width="8" stroke-linecap="round" points="127.489876 38.9595932 140.973916 140.702783 161.565736 63.8530232 170.289566 96.4107632 184.167006 96.4107632"></polyline>
                <circle id="circle4301" stroke="#20459A" stroke-width="7.99999999" stroke-linecap="square" transform="translate(23.059361, 116.237444) rotate(-45.000000) translate(-23.059361, -116.237444) " cx="23.059361" cy="116.237444" r="16.059361"></circle>
                <circle id="circle4303" stroke="#E9222E" stroke-width="7.99999999" stroke-linecap="square" transform="translate(125.384041, 23.059361) rotate(-45.000000) translate(-125.384041, -23.059361) " cx="125.384041" cy="23.059361" r="16.059361"></circle>
                <circle id="circle4305" stroke="#20459A" stroke-width="7.99999999" stroke-linecap="square" transform="translate(114.117160, 171.087529) rotate(-45.000000) translate(-114.117160, -171.087529) " cx="114.11716" cy="171.087529" r="16.059361"></circle>
                <circle id="circle4307" stroke="#E9222E" stroke-width="7.99999999" stroke-linecap="square" transform="translate(200.177460, 95.304791) rotate(-45.000000) translate(-200.177460, -95.304791) " cx="200.17746" cy="95.3047909" r="16.059361"></circle>
            </g>
        </g>
    </g>
</svg>